<?xml version="1.0" encoding="utf-8"?>
<svg xmlns="http://www.w3.org/2000/svg" xmlns:xlink="http://www.w3.org/1999/xlink" width="500" height="200" viewBox="0 0 2000 800">
<defs>
  <clipPath id="clip760">
    <rect x="0" y="0" width="2000" height="800"/>
  </clipPath>
</defs>
<path clip-path="url(#clip760)" d="M0 800 L2000 800 L2000 -4.44089e-14 L0 -4.44089e-14  Z" fill="#ffffff" fill-rule="evenodd" fill-opacity="1"/>
<defs>
  <clipPath id="clip761">
    <rect x="400" y="0" width="1401" height="800"/>
  </clipPath>
</defs>
<path clip-path="url(#clip760)" d="M666.667 645.868 L1952.76 645.868 L1952.76 99.2801 L666.667 99.2801  Z" fill="#ffffff" fill-rule="evenodd" fill-opacity="1"/>
<defs>
  <clipPath id="clip762">
    <rect x="666" y="99" width="1287" height="548"/>
  </clipPath>
</defs>
<polyline clip-path="url(#clip762)" style="stroke:#000000; stroke-linecap:round; stroke-linejoin:round; stroke-width:2; stroke-opacity:0.1; fill:none" points="690.81,645.868 690.81,99.2801 "/>
<polyline clip-path="url(#clip762)" style="stroke:#000000; stroke-linecap:round; stroke-linejoin:round; stroke-width:2; stroke-opacity:0.1; fill:none" points="997.197,645.868 997.197,99.2801 "/>
<polyline clip-path="url(#clip762)" style="stroke:#000000; stroke-linecap:round; stroke-linejoin:round; stroke-width:2; stroke-opacity:0.1; fill:none" points="1303.58,645.868 1303.58,99.2801 "/>
<polyline clip-path="url(#clip762)" style="stroke:#000000; stroke-linecap:round; stroke-linejoin:round; stroke-width:2; stroke-opacity:0.1; fill:none" points="1609.97,645.868 1609.97,99.2801 "/>
<polyline clip-path="url(#clip762)" style="stroke:#000000; stroke-linecap:round; stroke-linejoin:round; stroke-width:2; stroke-opacity:0.1; fill:none" points="1916.36,645.868 1916.36,99.2801 "/>
<polyline clip-path="url(#clip762)" style="stroke:#000000; stroke-linecap:round; stroke-linejoin:round; stroke-width:2; stroke-opacity:0.1; fill:none" points="666.667,594.418 1952.76,594.418 "/>
<polyline clip-path="url(#clip762)" style="stroke:#000000; stroke-linecap:round; stroke-linejoin:round; stroke-width:2; stroke-opacity:0.1; fill:none" points="666.667,491.591 1952.76,491.591 "/>
<polyline clip-path="url(#clip762)" style="stroke:#000000; stroke-linecap:round; stroke-linejoin:round; stroke-width:2; stroke-opacity:0.1; fill:none" points="666.667,388.763 1952.76,388.763 "/>
<polyline clip-path="url(#clip762)" style="stroke:#000000; stroke-linecap:round; stroke-linejoin:round; stroke-width:2; stroke-opacity:0.1; fill:none" points="666.667,285.935 1952.76,285.935 "/>
<polyline clip-path="url(#clip762)" style="stroke:#000000; stroke-linecap:round; stroke-linejoin:round; stroke-width:2; stroke-opacity:0.1; fill:none" points="666.667,183.107 1952.76,183.107 "/>
<polyline clip-path="url(#clip760)" style="stroke:#000000; stroke-linecap:round; stroke-linejoin:round; stroke-width:4; stroke-opacity:1; fill:none" points="666.667,645.868 1952.76,645.868 "/>
<polyline clip-path="url(#clip760)" style="stroke:#000000; stroke-linecap:round; stroke-linejoin:round; stroke-width:4; stroke-opacity:1; fill:none" points="690.81,645.868 690.81,626.97 "/>
<polyline clip-path="url(#clip760)" style="stroke:#000000; stroke-linecap:round; stroke-linejoin:round; stroke-width:4; stroke-opacity:1; fill:none" points="997.197,645.868 997.197,626.97 "/>
<polyline clip-path="url(#clip760)" style="stroke:#000000; stroke-linecap:round; stroke-linejoin:round; stroke-width:4; stroke-opacity:1; fill:none" points="1303.58,645.868 1303.58,626.97 "/>
<polyline clip-path="url(#clip760)" style="stroke:#000000; stroke-linecap:round; stroke-linejoin:round; stroke-width:4; stroke-opacity:1; fill:none" points="1609.97,645.868 1609.97,626.97 "/>
<polyline clip-path="url(#clip760)" style="stroke:#000000; stroke-linecap:round; stroke-linejoin:round; stroke-width:4; stroke-opacity:1; fill:none" points="1916.36,645.868 1916.36,626.97 "/>
<path clip-path="url(#clip760)" d="M690.81 683.84 Q684.04 683.84 680.611 690.524 Q677.225 697.165 677.225 710.533 Q677.225 723.858 680.611 730.542 Q684.04 737.182 690.81 737.182 Q697.625 737.182 701.01 730.542 Q704.439 723.858 704.439 710.533 Q704.439 697.165 701.01 690.524 Q697.625 683.84 690.81 683.84 M690.81 676.896 Q701.704 676.896 707.434 685.533 Q713.206 694.127 713.206 710.533 Q713.206 726.896 707.434 735.533 Q701.704 744.127 690.81 744.127 Q679.916 744.127 674.144 735.533 Q668.415 726.896 668.415 710.533 Q668.415 694.127 674.144 685.533 Q679.916 676.896 690.81 676.896 Z" fill="#000000" fill-rule="nonzero" fill-opacity="1" /><path clip-path="url(#clip760)" d="M958.33 735.489 L988.929 735.489 L988.929 742.868 L947.783 742.868 L947.783 735.489 Q952.775 730.325 961.368 721.644 Q970.005 712.92 972.219 710.403 Q976.429 705.672 978.078 702.417 Q979.771 699.118 979.771 695.95 Q979.771 690.785 976.125 687.53 Q972.523 684.274 966.707 684.274 Q962.584 684.274 957.983 685.707 Q953.426 687.139 948.217 690.047 L948.217 681.193 Q953.512 679.066 958.113 677.981 Q962.714 676.896 966.533 676.896 Q976.603 676.896 982.592 681.931 Q988.582 686.965 988.582 695.385 Q988.582 699.378 987.063 702.981 Q985.587 706.54 981.637 711.401 Q980.552 712.66 974.736 718.693 Q968.92 724.682 958.33 735.489 Z" fill="#000000" fill-rule="nonzero" fill-opacity="1" /><path clip-path="url(#clip760)" d="M1007.42 678.068 L1041.84 678.068 L1041.84 685.446 L1015.45 685.446 L1015.45 701.332 Q1017.36 700.681 1019.27 700.377 Q1021.18 700.03 1023.09 700.03 Q1033.94 700.03 1040.27 705.976 Q1046.61 711.922 1046.61 722.078 Q1046.61 732.538 1040.1 738.354 Q1033.59 744.127 1021.74 744.127 Q1017.66 744.127 1013.41 743.432 Q1009.2 742.738 1004.68 741.349 L1004.68 732.538 Q1008.59 734.665 1012.76 735.706 Q1016.92 736.748 1021.57 736.748 Q1029.08 736.748 1033.46 732.798 Q1037.84 728.849 1037.84 722.078 Q1037.84 715.307 1033.46 711.358 Q1029.08 707.408 1021.57 707.408 Q1018.05 707.408 1014.54 708.189 Q1011.06 708.97 1007.42 710.62 L1007.42 678.068 Z" fill="#000000" fill-rule="nonzero" fill-opacity="1" /><path clip-path="url(#clip760)" d="M1256.14 678.068 L1290.56 678.068 L1290.56 685.446 L1264.17 685.446 L1264.17 701.332 Q1266.08 700.681 1267.99 700.377 Q1269.9 700.03 1271.81 700.03 Q1282.66 700.03 1289 705.976 Q1295.34 711.922 1295.34 722.078 Q1295.34 732.538 1288.83 738.354 Q1282.32 744.127 1270.47 744.127 Q1266.39 744.127 1262.13 743.432 Q1257.92 742.738 1253.41 741.349 L1253.41 732.538 Q1257.32 734.665 1261.48 735.706 Q1265.65 736.748 1270.29 736.748 Q1277.8 736.748 1282.19 732.798 Q1286.57 728.849 1286.57 722.078 Q1286.57 715.307 1282.19 711.358 Q1277.8 707.408 1270.29 707.408 Q1266.78 707.408 1263.26 708.189 Q1259.79 708.97 1256.14 710.62 L1256.14 678.068 Z" fill="#000000" fill-rule="nonzero" fill-opacity="1" /><path clip-path="url(#clip760)" d="M1331.36 683.84 Q1324.59 683.84 1321.16 690.524 Q1317.78 697.165 1317.78 710.533 Q1317.78 723.858 1321.16 730.542 Q1324.59 737.182 1331.36 737.182 Q1338.18 737.182 1341.56 730.542 Q1344.99 723.858 1344.99 710.533 Q1344.99 697.165 1341.56 690.524 Q1338.18 683.84 1331.36 683.84 M1331.36 676.896 Q1342.26 676.896 1347.98 685.533 Q1353.76 694.127 1353.76 710.533 Q1353.76 726.896 1347.98 735.533 Q1342.26 744.127 1331.36 744.127 Q1320.47 744.127 1314.69 735.533 Q1308.97 726.896 1308.97 710.533 Q1308.97 694.127 1314.69 685.533 Q1320.47 676.896 1331.36 676.896 Z" fill="#000000" fill-rule="nonzero" fill-opacity="1" /><path clip-path="url(#clip760)" d="M1560.95 678.068 L1602.61 678.068 L1602.61 681.8 L1579.09 742.868 L1569.93 742.868 L1592.07 685.446 L1560.95 685.446 L1560.95 678.068 Z" fill="#000000" fill-rule="nonzero" fill-opacity="1" /><path clip-path="url(#clip760)" d="M1619.8 678.068 L1654.22 678.068 L1654.22 685.446 L1627.83 685.446 L1627.83 701.332 Q1629.74 700.681 1631.65 700.377 Q1633.56 700.03 1635.47 700.03 Q1646.32 700.03 1652.66 705.976 Q1658.99 711.922 1658.99 722.078 Q1658.99 732.538 1652.48 738.354 Q1645.97 744.127 1634.12 744.127 Q1630.04 744.127 1625.79 743.432 Q1621.58 742.738 1617.07 741.349 L1617.07 732.538 Q1620.97 734.665 1625.14 735.706 Q1629.31 736.748 1633.95 736.748 Q1641.46 736.748 1645.84 732.798 Q1650.23 728.849 1650.23 722.078 Q1650.23 715.307 1645.84 711.358 Q1641.46 707.408 1633.95 707.408 Q1630.43 707.408 1626.92 708.189 Q1623.45 708.97 1619.8 710.62 L1619.8 678.068 Z" fill="#000000" fill-rule="nonzero" fill-opacity="1" /><path clip-path="url(#clip760)" d="M1840.62 735.489 L1854.94 735.489 L1854.94 686.054 L1839.36 689.179 L1839.36 681.193 L1854.86 678.068 L1863.62 678.068 L1863.62 735.489 L1877.95 735.489 L1877.95 742.868 L1840.62 742.868 L1840.62 735.489 Z" fill="#000000" fill-rule="nonzero" fill-opacity="1" /><path clip-path="url(#clip760)" d="M1914.4 683.84 Q1907.63 683.84 1904.2 690.524 Q1900.82 697.165 1900.82 710.533 Q1900.82 723.858 1904.2 730.542 Q1907.63 737.182 1914.4 737.182 Q1921.22 737.182 1924.6 730.542 Q1928.03 723.858 1928.03 710.533 Q1928.03 697.165 1924.6 690.524 Q1921.22 683.84 1914.4 683.84 M1914.4 676.896 Q1925.3 676.896 1931.03 685.533 Q1936.8 694.127 1936.8 710.533 Q1936.8 726.896 1931.03 735.533 Q1925.3 744.127 1914.4 744.127 Q1903.51 744.127 1897.74 735.533 Q1892.01 726.896 1892.01 710.533 Q1892.01 694.127 1897.74 685.533 Q1903.51 676.896 1914.4 676.896 Z" fill="#000000" fill-rule="nonzero" fill-opacity="1" /><path clip-path="url(#clip760)" d="M1970.96 683.84 Q1964.19 683.84 1960.76 690.524 Q1957.37 697.165 1957.37 710.533 Q1957.37 723.858 1960.76 730.542 Q1964.19 737.182 1970.96 737.182 Q1977.77 737.182 1981.16 730.542 Q1984.59 723.858 1984.59 710.533 Q1984.59 697.165 1981.16 690.524 Q1977.77 683.84 1970.96 683.84 M1970.96 676.896 Q1981.85 676.896 1987.58 685.533 Q1993.35 694.127 1993.35 710.533 Q1993.35 726.896 1987.58 735.533 Q1981.85 744.127 1970.96 744.127 Q1960.06 744.127 1954.29 735.533 Q1948.56 726.896 1948.56 710.533 Q1948.56 694.127 1954.29 685.533 Q1960.06 676.896 1970.96 676.896 Z" fill="#000000" fill-rule="nonzero" fill-opacity="1" /><path clip-path="url(#clip760)" d="M1308.77 784.322 L1308.77 794.444 L1320.84 794.444 L1320.84 798.995 L1308.77 798.995 L1308.77 818.347 Q1308.77 822.708 1309.95 823.949 Q1311.16 825.19 1314.82 825.19 L1320.84 825.19 L1320.84 830.092 L1314.82 830.092 Q1308.04 830.092 1305.46 827.577 Q1302.88 825.031 1302.88 818.347 L1302.88 798.995 L1298.59 798.995 L1298.59 794.444 L1302.88 794.444 L1302.88 784.322 L1308.77 784.322 Z" fill="#000000" fill-rule="nonzero" fill-opacity="1" /><polyline clip-path="url(#clip760)" style="stroke:#000000; stroke-linecap:round; stroke-linejoin:round; stroke-width:4; stroke-opacity:1; fill:none" points="666.667,645.868 666.667,99.2801 "/>
<polyline clip-path="url(#clip760)" style="stroke:#000000; stroke-linecap:round; stroke-linejoin:round; stroke-width:4; stroke-opacity:1; fill:none" points="666.667,594.418 685.565,594.418 "/>
<polyline clip-path="url(#clip760)" style="stroke:#000000; stroke-linecap:round; stroke-linejoin:round; stroke-width:4; stroke-opacity:1; fill:none" points="666.667,491.591 685.565,491.591 "/>
<polyline clip-path="url(#clip760)" style="stroke:#000000; stroke-linecap:round; stroke-linejoin:round; stroke-width:4; stroke-opacity:1; fill:none" points="666.667,388.763 685.565,388.763 "/>
<polyline clip-path="url(#clip760)" style="stroke:#000000; stroke-linecap:round; stroke-linejoin:round; stroke-width:4; stroke-opacity:1; fill:none" points="666.667,285.935 685.565,285.935 "/>
<polyline clip-path="url(#clip760)" style="stroke:#000000; stroke-linecap:round; stroke-linejoin:round; stroke-width:4; stroke-opacity:1; fill:none" points="666.667,183.107 685.565,183.107 "/>
<path clip-path="url(#clip760)" d="M97.2522 607.354 L152.894 607.354 L152.894 614.733 L97.2522 614.733 L97.2522 607.354 Z" fill="#000000" fill-rule="nonzero" fill-opacity="1" /><path clip-path="url(#clip760)" d="M171.905 574.108 L206.323 574.108 L206.323 581.486 L179.934 581.486 L179.934 597.371 Q181.844 596.72 183.753 596.417 Q185.663 596.069 187.573 596.069 Q198.423 596.069 204.76 602.016 Q211.097 607.962 211.097 618.118 Q211.097 628.578 204.587 634.394 Q198.076 640.166 186.227 640.166 Q182.148 640.166 177.894 639.472 Q173.684 638.778 169.17 637.389 L169.17 628.578 Q173.076 630.705 177.243 631.746 Q181.41 632.788 186.054 632.788 Q193.562 632.788 197.946 628.838 Q202.33 624.889 202.33 618.118 Q202.33 611.347 197.946 607.397 Q193.562 603.448 186.054 603.448 Q182.538 603.448 179.023 604.229 Q175.55 605.01 171.905 606.66 L171.905 574.108 Z" fill="#000000" fill-rule="nonzero" fill-opacity="1" /><path clip-path="url(#clip760)" d="M228.371 627.883 L237.529 627.883 L237.529 638.908 L228.371 638.908 L228.371 627.883 Z" fill="#000000" fill-rule="nonzero" fill-opacity="1" /><path clip-path="url(#clip760)" d="M275.376 579.88 Q268.605 579.88 265.177 586.564 Q261.791 593.205 261.791 606.573 Q261.791 619.897 265.177 626.581 Q268.605 633.222 275.376 633.222 Q282.19 633.222 285.576 626.581 Q289.005 619.897 289.005 606.573 Q289.005 593.205 285.576 586.564 Q282.19 579.88 275.376 579.88 M275.376 572.936 Q286.27 572.936 291.999 581.573 Q297.772 590.167 297.772 606.573 Q297.772 622.936 291.999 631.573 Q286.27 640.166 275.376 640.166 Q264.482 640.166 258.71 631.573 Q252.98 622.936 252.98 606.573 Q252.98 590.167 258.71 581.573 Q264.482 572.936 275.376 572.936 Z" fill="#000000" fill-rule="nonzero" fill-opacity="1" /><path clip-path="url(#clip760)" d="M331.93 579.88 Q325.159 579.88 321.73 586.564 Q318.345 593.205 318.345 606.573 Q318.345 619.897 321.73 626.581 Q325.159 633.222 331.93 633.222 Q338.744 633.222 342.129 626.581 Q345.558 619.897 345.558 606.573 Q345.558 593.205 342.129 586.564 Q338.744 579.88 331.93 579.88 M331.93 572.936 Q342.824 572.936 348.553 581.573 Q354.325 590.167 354.325 606.573 Q354.325 622.936 348.553 631.573 Q342.824 640.166 331.93 640.166 Q321.036 640.166 315.263 631.573 Q309.534 622.936 309.534 606.573 Q309.534 590.167 315.263 581.573 Q321.036 572.936 331.93 572.936 Z" fill="#000000" fill-rule="nonzero" fill-opacity="1" /><path clip-path="url(#clip760)" d="M422.554 591.165 L402.719 611.087 L422.554 630.922 L417.389 636.173 L397.468 616.252 L377.546 636.173 L372.424 630.922 L392.216 611.087 L372.424 591.165 L377.546 585.913 L397.468 605.835 L417.389 585.913 L422.554 591.165 Z" fill="#000000" fill-rule="nonzero" fill-opacity="1" /><path clip-path="url(#clip760)" d="M445.731 631.529 L460.054 631.529 L460.054 582.094 L444.473 585.219 L444.473 577.233 L459.967 574.108 L468.735 574.108 L468.735 631.529 L483.057 631.529 L483.057 638.908 L445.731 638.908 L445.731 631.529 Z" fill="#000000" fill-rule="nonzero" fill-opacity="1" /><path clip-path="url(#clip760)" d="M519.516 579.88 Q512.745 579.88 509.316 586.564 Q505.931 593.205 505.931 606.573 Q505.931 619.897 509.316 626.581 Q512.745 633.222 519.516 633.222 Q526.33 633.222 529.715 626.581 Q533.144 619.897 533.144 606.573 Q533.144 593.205 529.715 586.564 Q526.33 579.88 519.516 579.88 M519.516 572.936 Q530.41 572.936 536.139 581.573 Q541.911 590.167 541.911 606.573 Q541.911 622.936 536.139 631.573 Q530.41 640.166 519.516 640.166 Q508.621 640.166 502.849 631.573 Q497.12 622.936 497.12 606.573 Q497.12 590.167 502.849 581.573 Q508.621 572.936 519.516 572.936 Z" fill="#000000" fill-rule="nonzero" fill-opacity="1" /><path clip-path="url(#clip760)" d="M541.911 561.876 L587.12 561.876 L587.12 567.871 L541.911 567.871 L541.911 561.876 Z" fill="#000000" fill-rule="nonzero" fill-opacity="1" /><path clip-path="url(#clip760)" d="M622.068 541.07 L604.083 569.176 L622.068 569.176 L622.068 541.07 M620.199 534.863 L629.156 534.863 L629.156 569.176 L636.667 569.176 L636.667 575.1 L629.156 575.1 L629.156 587.513 L622.068 587.513 L622.068 575.1 L598.299 575.1 L598.299 568.224 L620.199 534.863 Z" fill="#000000" fill-rule="nonzero" fill-opacity="1" /><path clip-path="url(#clip760)" d="M97.2522 504.526 L152.894 504.526 L152.894 511.905 L97.2522 511.905 L97.2522 504.526 Z" fill="#000000" fill-rule="nonzero" fill-opacity="1" /><path clip-path="url(#clip760)" d="M179.37 528.701 L209.969 528.701 L209.969 536.08 L168.823 536.08 L168.823 528.701 Q173.814 523.537 182.408 514.856 Q191.045 506.132 193.259 503.615 Q197.469 498.884 199.118 495.629 Q200.811 492.33 200.811 489.162 Q200.811 483.997 197.165 480.742 Q193.562 477.486 187.746 477.486 Q183.623 477.486 179.023 478.919 Q174.465 480.351 169.257 483.259 L169.257 474.405 Q174.552 472.278 179.153 471.193 Q183.753 470.108 187.573 470.108 Q197.642 470.108 203.632 475.143 Q209.621 480.177 209.621 488.597 Q209.621 492.591 208.102 496.193 Q206.627 499.752 202.677 504.613 Q201.592 505.872 195.776 511.905 Q189.96 517.894 179.37 528.701 Z" fill="#000000" fill-rule="nonzero" fill-opacity="1" /><path clip-path="url(#clip760)" d="M228.371 525.056 L237.529 525.056 L237.529 536.08 L228.371 536.08 L228.371 525.056 Z" fill="#000000" fill-rule="nonzero" fill-opacity="1" /><path clip-path="url(#clip760)" d="M256.713 471.28 L291.131 471.28 L291.131 478.658 L264.743 478.658 L264.743 494.544 Q266.652 493.893 268.562 493.589 Q270.472 493.242 272.381 493.242 Q283.232 493.242 289.569 499.188 Q295.906 505.134 295.906 515.29 Q295.906 525.75 289.395 531.566 Q282.885 537.339 271.036 537.339 Q266.956 537.339 262.703 536.644 Q258.493 535.95 253.979 534.561 L253.979 525.75 Q257.885 527.877 262.052 528.918 Q266.218 529.96 270.862 529.96 Q278.371 529.96 282.755 526.01 Q287.138 522.061 287.138 515.29 Q287.138 508.519 282.755 504.57 Q278.371 500.62 270.862 500.62 Q267.347 500.62 263.831 501.401 Q260.359 502.182 256.713 503.832 L256.713 471.28 Z" fill="#000000" fill-rule="nonzero" fill-opacity="1" /><path clip-path="url(#clip760)" d="M331.93 477.052 Q325.159 477.052 321.73 483.736 Q318.345 490.377 318.345 503.745 Q318.345 517.07 321.73 523.754 Q325.159 530.394 331.93 530.394 Q338.744 530.394 342.129 523.754 Q345.558 517.07 345.558 503.745 Q345.558 490.377 342.129 483.736 Q338.744 477.052 331.93 477.052 M331.93 470.108 Q342.824 470.108 348.553 478.745 Q354.325 487.339 354.325 503.745 Q354.325 520.108 348.553 528.745 Q342.824 537.339 331.93 537.339 Q321.036 537.339 315.263 528.745 Q309.534 520.108 309.534 503.745 Q309.534 487.339 315.263 478.745 Q321.036 470.108 331.93 470.108 Z" fill="#000000" fill-rule="nonzero" fill-opacity="1" /><path clip-path="url(#clip760)" d="M422.554 488.337 L402.719 508.259 L422.554 528.094 L417.389 533.345 L397.468 513.424 L377.546 533.345 L372.424 528.094 L392.216 508.259 L372.424 488.337 L377.546 483.085 L397.468 503.007 L417.389 483.085 L422.554 488.337 Z" fill="#000000" fill-rule="nonzero" fill-opacity="1" /><path clip-path="url(#clip760)" d="M445.731 528.701 L460.054 528.701 L460.054 479.266 L444.473 482.391 L444.473 474.405 L459.967 471.28 L468.735 471.28 L468.735 528.701 L483.057 528.701 L483.057 536.08 L445.731 536.08 L445.731 528.701 Z" fill="#000000" fill-rule="nonzero" fill-opacity="1" /><path clip-path="url(#clip760)" d="M519.516 477.052 Q512.745 477.052 509.316 483.736 Q505.931 490.377 505.931 503.745 Q505.931 517.07 509.316 523.754 Q512.745 530.394 519.516 530.394 Q526.33 530.394 529.715 523.754 Q533.144 517.07 533.144 503.745 Q533.144 490.377 529.715 483.736 Q526.33 477.052 519.516 477.052 M519.516 470.108 Q530.41 470.108 536.139 478.745 Q541.911 487.339 541.911 503.745 Q541.911 520.108 536.139 528.745 Q530.41 537.339 519.516 537.339 Q508.621 537.339 502.849 528.745 Q497.12 520.108 497.12 503.745 Q497.12 487.339 502.849 478.745 Q508.621 470.108 519.516 470.108 Z" fill="#000000" fill-rule="nonzero" fill-opacity="1" /><path clip-path="url(#clip760)" d="M541.911 459.048 L587.12 459.048 L587.12 465.043 L541.911 465.043 L541.911 459.048 Z" fill="#000000" fill-rule="nonzero" fill-opacity="1" /><path clip-path="url(#clip760)" d="M622.068 438.242 L604.083 466.348 L622.068 466.348 L622.068 438.242 M620.199 432.035 L629.156 432.035 L629.156 466.348 L636.667 466.348 L636.667 472.272 L629.156 472.272 L629.156 484.685 L622.068 484.685 L622.068 472.272 L598.299 472.272 L598.299 465.396 L620.199 432.035 Z" fill="#000000" fill-rule="nonzero" fill-opacity="1" /><path clip-path="url(#clip760)" d="M614.271 362.135 Q607.501 362.135 604.072 368.819 Q600.686 375.46 600.686 388.828 Q600.686 402.152 604.072 408.836 Q607.501 415.477 614.271 415.477 Q621.086 415.477 624.471 408.836 Q627.9 402.152 627.9 388.828 Q627.9 375.46 624.471 368.819 Q621.086 362.135 614.271 362.135 M614.271 355.191 Q625.165 355.191 630.895 363.828 Q636.667 372.422 636.667 388.828 Q636.667 405.191 630.895 413.828 Q625.165 422.421 614.271 422.421 Q603.377 422.421 597.605 413.828 Q591.876 405.191 591.876 388.828 Q591.876 372.422 597.605 363.828 Q603.377 355.191 614.271 355.191 Z" fill="#000000" fill-rule="nonzero" fill-opacity="1" /><path clip-path="url(#clip760)" d="M179.37 323.046 L209.969 323.046 L209.969 330.424 L168.823 330.424 L168.823 323.046 Q173.814 317.881 182.408 309.2 Q191.045 300.476 193.259 297.959 Q197.469 293.228 199.118 289.973 Q200.811 286.674 200.811 283.506 Q200.811 278.341 197.165 275.086 Q193.562 271.831 187.746 271.831 Q183.623 271.831 179.023 273.263 Q174.465 274.695 169.257 277.603 L169.257 268.749 Q174.552 266.622 179.153 265.537 Q183.753 264.452 187.573 264.452 Q197.642 264.452 203.632 269.487 Q209.621 274.522 209.621 282.942 Q209.621 286.935 208.102 290.537 Q206.627 294.096 202.677 298.957 Q201.592 300.216 195.776 306.249 Q189.96 312.238 179.37 323.046 Z" fill="#000000" fill-rule="nonzero" fill-opacity="1" /><path clip-path="url(#clip760)" d="M228.371 319.4 L237.529 319.4 L237.529 330.424 L228.371 330.424 L228.371 319.4 Z" fill="#000000" fill-rule="nonzero" fill-opacity="1" /><path clip-path="url(#clip760)" d="M256.713 265.624 L291.131 265.624 L291.131 273.003 L264.743 273.003 L264.743 288.888 Q266.652 288.237 268.562 287.933 Q270.472 287.586 272.381 287.586 Q283.232 287.586 289.569 293.532 Q295.906 299.478 295.906 309.634 Q295.906 320.094 289.395 325.91 Q282.885 331.683 271.036 331.683 Q266.956 331.683 262.703 330.988 Q258.493 330.294 253.979 328.905 L253.979 320.094 Q257.885 322.221 262.052 323.263 Q266.218 324.304 270.862 324.304 Q278.371 324.304 282.755 320.355 Q287.138 316.405 287.138 309.634 Q287.138 302.864 282.755 298.914 Q278.371 294.964 270.862 294.964 Q267.347 294.964 263.831 295.745 Q260.359 296.527 256.713 298.176 L256.713 265.624 Z" fill="#000000" fill-rule="nonzero" fill-opacity="1" /><path clip-path="url(#clip760)" d="M331.93 271.397 Q325.159 271.397 321.73 278.081 Q318.345 284.721 318.345 298.089 Q318.345 311.414 321.73 318.098 Q325.159 324.738 331.93 324.738 Q338.744 324.738 342.129 318.098 Q345.558 311.414 345.558 298.089 Q345.558 284.721 342.129 278.081 Q338.744 271.397 331.93 271.397 M331.93 264.452 Q342.824 264.452 348.553 273.089 Q354.325 281.683 354.325 298.089 Q354.325 314.452 348.553 323.089 Q342.824 331.683 331.93 331.683 Q321.036 331.683 315.263 323.089 Q309.534 314.452 309.534 298.089 Q309.534 281.683 315.263 273.089 Q321.036 264.452 331.93 264.452 Z" fill="#000000" fill-rule="nonzero" fill-opacity="1" /><path clip-path="url(#clip760)" d="M422.554 282.681 L402.719 302.603 L422.554 322.438 L417.389 327.69 L397.468 307.768 L377.546 327.69 L372.424 322.438 L392.216 302.603 L372.424 282.681 L377.546 277.43 L397.468 297.351 L417.389 277.43 L422.554 282.681 Z" fill="#000000" fill-rule="nonzero" fill-opacity="1" /><path clip-path="url(#clip760)" d="M445.731 323.046 L460.054 323.046 L460.054 273.61 L444.473 276.735 L444.473 268.749 L459.967 265.624 L468.735 265.624 L468.735 323.046 L483.057 323.046 L483.057 330.424 L445.731 330.424 L445.731 323.046 Z" fill="#000000" fill-rule="nonzero" fill-opacity="1" /><path clip-path="url(#clip760)" d="M519.516 271.397 Q512.745 271.397 509.316 278.081 Q505.931 284.721 505.931 298.089 Q505.931 311.414 509.316 318.098 Q512.745 324.738 519.516 324.738 Q526.33 324.738 529.715 318.098 Q533.144 311.414 533.144 298.089 Q533.144 284.721 529.715 278.081 Q526.33 271.397 519.516 271.397 M519.516 264.452 Q530.41 264.452 536.139 273.089 Q541.911 281.683 541.911 298.089 Q541.911 314.452 536.139 323.089 Q530.41 331.683 519.516 331.683 Q508.621 331.683 502.849 323.089 Q497.12 314.452 497.12 298.089 Q497.12 281.683 502.849 273.089 Q508.621 264.452 519.516 264.452 Z" fill="#000000" fill-rule="nonzero" fill-opacity="1" /><path clip-path="url(#clip760)" d="M541.911 253.392 L587.12 253.392 L587.12 259.387 L541.911 259.387 L541.911 253.392 Z" fill="#000000" fill-rule="nonzero" fill-opacity="1" /><path clip-path="url(#clip760)" d="M622.068 232.586 L604.083 260.692 L622.068 260.692 L622.068 232.586 M620.199 226.38 L629.156 226.38 L629.156 260.692 L636.667 260.692 L636.667 266.616 L629.156 266.616 L629.156 279.03 L622.068 279.03 L622.068 266.616 L598.299 266.616 L598.299 259.74 L620.199 226.38 Z" fill="#000000" fill-rule="nonzero" fill-opacity="1" /><path clip-path="url(#clip760)" d="M171.905 162.796 L206.323 162.796 L206.323 170.175 L179.934 170.175 L179.934 186.06 Q181.844 185.409 183.753 185.105 Q185.663 184.758 187.573 184.758 Q198.423 184.758 204.76 190.704 Q211.097 196.65 211.097 206.806 Q211.097 217.266 204.587 223.082 Q198.076 228.855 186.227 228.855 Q182.148 228.855 177.894 228.16 Q173.684 227.466 169.17 226.077 L169.17 217.266 Q173.076 219.393 177.243 220.435 Q181.41 221.476 186.054 221.476 Q193.562 221.476 197.946 217.527 Q202.33 213.577 202.33 206.806 Q202.33 200.036 197.946 196.086 Q193.562 192.136 186.054 192.136 Q182.538 192.136 179.023 192.918 Q175.55 193.699 171.905 195.348 L171.905 162.796 Z" fill="#000000" fill-rule="nonzero" fill-opacity="1" /><path clip-path="url(#clip760)" d="M228.371 216.572 L237.529 216.572 L237.529 227.596 L228.371 227.596 L228.371 216.572 Z" fill="#000000" fill-rule="nonzero" fill-opacity="1" /><path clip-path="url(#clip760)" d="M275.376 168.569 Q268.605 168.569 265.177 175.253 Q261.791 181.893 261.791 195.261 Q261.791 208.586 265.177 215.27 Q268.605 221.911 275.376 221.911 Q282.19 221.911 285.576 215.27 Q289.005 208.586 289.005 195.261 Q289.005 181.893 285.576 175.253 Q282.19 168.569 275.376 168.569 M275.376 161.624 Q286.27 161.624 291.999 170.261 Q297.772 178.855 297.772 195.261 Q297.772 211.624 291.999 220.261 Q286.27 228.855 275.376 228.855 Q264.482 228.855 258.71 220.261 Q252.98 211.624 252.98 195.261 Q252.98 178.855 258.71 170.261 Q264.482 161.624 275.376 161.624 Z" fill="#000000" fill-rule="nonzero" fill-opacity="1" /><path clip-path="url(#clip760)" d="M331.93 168.569 Q325.159 168.569 321.73 175.253 Q318.345 181.893 318.345 195.261 Q318.345 208.586 321.73 215.27 Q325.159 221.911 331.93 221.911 Q338.744 221.911 342.129 215.27 Q345.558 208.586 345.558 195.261 Q345.558 181.893 342.129 175.253 Q338.744 168.569 331.93 168.569 M331.93 161.624 Q342.824 161.624 348.553 170.261 Q354.325 178.855 354.325 195.261 Q354.325 211.624 348.553 220.261 Q342.824 228.855 331.93 228.855 Q321.036 228.855 315.263 220.261 Q309.534 211.624 309.534 195.261 Q309.534 178.855 315.263 170.261 Q321.036 161.624 331.93 161.624 Z" fill="#000000" fill-rule="nonzero" fill-opacity="1" /><path clip-path="url(#clip760)" d="M422.554 179.853 L402.719 199.775 L422.554 219.61 L417.389 224.862 L397.468 204.94 L377.546 224.862 L372.424 219.61 L392.216 199.775 L372.424 179.853 L377.546 174.602 L397.468 194.524 L417.389 174.602 L422.554 179.853 Z" fill="#000000" fill-rule="nonzero" fill-opacity="1" /><path clip-path="url(#clip760)" d="M445.731 220.218 L460.054 220.218 L460.054 170.782 L444.473 173.907 L444.473 165.921 L459.967 162.796 L468.735 162.796 L468.735 220.218 L483.057 220.218 L483.057 227.596 L445.731 227.596 L445.731 220.218 Z" fill="#000000" fill-rule="nonzero" fill-opacity="1" /><path clip-path="url(#clip760)" d="M519.516 168.569 Q512.745 168.569 509.316 175.253 Q505.931 181.893 505.931 195.261 Q505.931 208.586 509.316 215.27 Q512.745 221.911 519.516 221.911 Q526.33 221.911 529.715 215.27 Q533.144 208.586 533.144 195.261 Q533.144 181.893 529.715 175.253 Q526.33 168.569 519.516 168.569 M519.516 161.624 Q530.41 161.624 536.139 170.261 Q541.911 178.855 541.911 195.261 Q541.911 211.624 536.139 220.261 Q530.41 228.855 519.516 228.855 Q508.621 228.855 502.849 220.261 Q497.12 211.624 497.12 195.261 Q497.12 178.855 502.849 170.261 Q508.621 161.624 519.516 161.624 Z" fill="#000000" fill-rule="nonzero" fill-opacity="1" /><path clip-path="url(#clip760)" d="M541.911 150.564 L587.12 150.564 L587.12 156.559 L541.911 156.559 L541.911 150.564 Z" fill="#000000" fill-rule="nonzero" fill-opacity="1" /><path clip-path="url(#clip760)" d="M622.068 129.758 L604.083 157.864 L622.068 157.864 L622.068 129.758 M620.199 123.552 L629.156 123.552 L629.156 157.864 L636.667 157.864 L636.667 163.789 L629.156 163.789 L629.156 176.202 L622.068 176.202 L622.068 163.789 L598.299 163.789 L598.299 156.912 L620.199 123.552 Z" fill="#000000" fill-rule="nonzero" fill-opacity="1" /><path clip-path="url(#clip760)" d="M17.3482 355.959 L34.6948 368.85 L52.9962 355.291 L52.9962 362.198 L38.9916 372.574 L52.9962 382.95 L52.9962 389.857 L34.3446 376.011 L17.3482 388.679 L17.3482 381.772 L30.0478 372.319 L17.3482 362.866 L17.3482 355.959 Z" fill="#000000" fill-rule="nonzero" fill-opacity="1" /><path clip-path="url(#clip760)" d="M1027.38 20.0358 Q1023.25 17.2001 1013.57 17.2001 Q1003.32 17.2001 1003.32 21.9397 Q1003.32 25.6665 1014.02 27.611 Q1022.44 29.1098 1027.18 33.6468 Q1032.93 39.1155 1032.93 50.3365 Q1032.93 61.0714 1027.38 67.3908 Q1021.83 73.7508 1012.11 73.7508 Q1002.43 73.7508 996.84 67.3908 Q991.29 61.0714 991.29 49.9314 Q991.29 41.6676 996.84 34.9836 Q998.987 32.391 1002.03 30.9327 Q995.706 27.7325 995.706 22.0207 Q995.706 11.0023 1013.57 11.0023 Q1022.52 11.0023 1027.38 13.8379 L1027.38 20.0358 M1007.62 32.9582 Q1004.86 34.1329 1002.63 37.0901 Q999.149 41.6676 999.149 49.9314 Q999.149 58.1548 1002.59 62.7728 Q1006.08 67.4314 1012.11 67.4314 Q1018.07 67.4314 1021.55 62.7323 Q1025.03 58.0333 1025.03 50.3365 Q1025.03 42.2752 1021.35 38.3864 Q1017.42 34.2139 1012.31 33.7683 Q1009.72 33.5253 1007.62 32.9582 Z" fill="#000000" fill-rule="nonzero" fill-opacity="1" /><path clip-path="url(#clip760)" d="M1108.24 14.0809 L1108.24 22.0612 Q1103.58 19.8332 1099.45 18.7395 Q1095.32 17.6457 1091.47 17.6457 Q1084.79 17.6457 1081.14 20.2383 Q1077.53 22.8309 1077.53 27.611 Q1077.53 31.6214 1079.92 33.6873 Q1082.35 35.7128 1089.08 36.9686 L1094.02 37.9813 Q1103.18 39.7232 1107.51 44.1387 Q1111.89 48.5136 1111.89 55.8863 Q1111.89 64.6767 1105.97 69.2137 Q1100.1 73.7508 1088.71 73.7508 Q1084.42 73.7508 1079.56 72.7785 Q1074.74 71.8063 1069.55 69.9024 L1069.55 61.4765 Q1074.54 64.2716 1079.32 65.6895 Q1084.1 67.1073 1088.71 67.1073 Q1095.72 67.1073 1099.53 64.3527 Q1103.34 61.598 1103.34 56.4939 Q1103.34 52.0379 1100.58 49.5264 Q1097.87 47.0148 1091.63 45.759 L1086.65 44.7868 Q1077.49 42.9639 1073.4 39.075 Q1069.31 35.1862 1069.31 28.2591 Q1069.31 20.2383 1074.94 15.6203 Q1080.61 11.0023 1090.54 11.0023 Q1094.79 11.0023 1099.21 11.7719 Q1103.62 12.5416 1108.24 14.0809 Z" fill="#000000" fill-rule="nonzero" fill-opacity="1" /><path clip-path="url(#clip760)" d="M1156.97 28.9478 L1156.97 35.9153 Q1153.81 34.1734 1150.61 33.3227 Q1147.45 32.4315 1144.21 32.4315 Q1136.96 32.4315 1132.95 37.0496 Q1128.94 41.6271 1128.94 49.9314 Q1128.94 58.2358 1132.95 62.8538 Q1136.96 67.4314 1144.21 67.4314 Q1147.45 67.4314 1150.61 66.5807 Q1153.81 65.6895 1156.97 63.9476 L1156.97 70.8341 Q1153.85 72.2924 1150.49 73.0216 Q1147.17 73.7508 1143.4 73.7508 Q1133.15 73.7508 1127.12 67.3098 Q1121.08 60.8689 1121.08 49.9314 Q1121.08 38.832 1127.16 32.472 Q1133.27 26.1121 1143.89 26.1121 Q1147.33 26.1121 1150.61 26.8413 Q1153.89 27.5299 1156.97 28.9478 Z" fill="#000000" fill-rule="nonzero" fill-opacity="1" /><path clip-path="url(#clip760)" d="M1169.17 54.671 L1169.17 27.2059 L1176.62 27.2059 L1176.62 54.3874 Q1176.62 60.8284 1179.13 64.0691 Q1181.64 67.2693 1186.67 67.2693 Q1192.7 67.2693 1196.18 63.421 Q1199.71 59.5726 1199.71 52.9291 L1199.71 27.2059 L1207.16 27.2059 L1207.16 72.576 L1199.71 72.576 L1199.71 65.6084 Q1197 69.7404 1193.39 71.7658 Q1189.83 73.7508 1185.09 73.7508 Q1177.27 73.7508 1173.22 68.8897 Q1169.17 64.0286 1169.17 54.671 M1187.92 26.1121 L1187.92 26.1121 Z" fill="#000000" fill-rule="nonzero" fill-opacity="1" /><path clip-path="url(#clip760)" d="M1229.89 14.324 L1229.89 27.2059 L1245.24 27.2059 L1245.24 32.9987 L1229.89 32.9987 L1229.89 57.6282 Q1229.89 63.1779 1231.39 64.7578 Q1232.93 66.3376 1237.59 66.3376 L1245.24 66.3376 L1245.24 72.576 L1237.59 72.576 Q1228.96 72.576 1225.68 69.3758 Q1222.39 66.1351 1222.39 57.6282 L1222.39 32.9987 L1216.93 32.9987 L1216.93 27.2059 L1222.39 27.2059 L1222.39 14.324 L1229.89 14.324 Z" fill="#000000" fill-rule="nonzero" fill-opacity="1" /><path clip-path="url(#clip760)" d="M1255.04 27.2059 L1262.5 27.2059 L1262.5 72.576 L1255.04 72.576 L1255.04 27.2059 M1255.04 9.54393 L1262.5 9.54393 L1262.5 18.9825 L1255.04 18.9825 L1255.04 9.54393 Z" fill="#000000" fill-rule="nonzero" fill-opacity="1" /><path clip-path="url(#clip760)" d="M1320.39 72.576 L1297.3 12.096 L1305.84 12.096 L1325 63.0159 L1344.2 12.096 L1352.71 12.096 L1329.66 72.576 L1320.39 72.576 Z" fill="#000000" fill-rule="nonzero" fill-opacity="1" /><path clip-path="url(#clip760)" d="M1375.4 49.7694 Q1366.36 49.7694 1362.88 51.8354 Q1359.4 53.9013 1359.4 58.8839 Q1359.4 62.8538 1361.99 65.2034 Q1364.62 67.5124 1369.12 67.5124 Q1375.32 67.5124 1379.04 63.1374 Q1382.81 58.7219 1382.81 51.4303 L1382.81 49.7694 L1375.4 49.7694 M1390.26 46.6907 L1390.26 72.576 L1382.81 72.576 L1382.81 65.6895 Q1380.26 69.8214 1376.45 71.8063 Q1372.64 73.7508 1367.13 73.7508 Q1360.17 73.7508 1356.03 69.8619 Q1351.94 65.9325 1351.94 59.3701 Q1351.94 51.7138 1357.05 47.825 Q1362.19 43.9361 1372.36 43.9361 L1382.81 43.9361 L1382.81 43.2069 Q1382.81 38.0623 1379.41 35.2672 Q1376.05 32.4315 1369.93 32.4315 Q1366.04 32.4315 1362.35 33.3632 Q1358.67 34.295 1355.26 36.1584 L1355.26 29.2718 Q1359.36 27.692 1363.2 26.9223 Q1367.05 26.1121 1370.7 26.1121 Q1380.54 26.1121 1385.4 31.2163 Q1390.26 36.3204 1390.26 46.6907 Z" fill="#000000" fill-rule="nonzero" fill-opacity="1" /><path clip-path="url(#clip760)" d="M1431.91 34.1734 Q1430.65 33.4443 1429.15 33.1202 Q1427.69 32.7556 1425.91 32.7556 Q1419.59 32.7556 1416.19 36.8875 Q1412.83 40.9789 1412.83 48.6757 L1412.83 72.576 L1405.33 72.576 L1405.33 27.2059 L1412.83 27.2059 L1412.83 34.2544 Q1415.18 30.1225 1418.94 28.1376 Q1422.71 26.1121 1428.1 26.1121 Q1428.87 26.1121 1429.8 26.2337 Q1430.73 26.3147 1431.87 26.5172 L1431.91 34.1734 Z" fill="#000000" fill-rule="nonzero" fill-opacity="1" /><path clip-path="url(#clip760)" d="M1439.73 27.2059 L1447.18 27.2059 L1447.18 72.576 L1439.73 72.576 L1439.73 27.2059 M1439.73 9.54393 L1447.18 9.54393 L1447.18 18.9825 L1439.73 18.9825 L1439.73 9.54393 Z" fill="#000000" fill-rule="nonzero" fill-opacity="1" /><path clip-path="url(#clip760)" d="M1483.39 49.7694 Q1474.36 49.7694 1470.88 51.8354 Q1467.39 53.9013 1467.39 58.8839 Q1467.39 62.8538 1469.99 65.2034 Q1472.62 67.5124 1477.12 67.5124 Q1483.31 67.5124 1487.04 63.1374 Q1490.81 58.7219 1490.81 51.4303 L1490.81 49.7694 L1483.39 49.7694 M1498.26 46.6907 L1498.26 72.576 L1490.81 72.576 L1490.81 65.6895 Q1488.26 69.8214 1484.45 71.8063 Q1480.64 73.7508 1475.13 73.7508 Q1468.16 73.7508 1464.03 69.8619 Q1459.94 65.9325 1459.94 59.3701 Q1459.94 51.7138 1465.04 47.825 Q1470.19 43.9361 1480.36 43.9361 L1490.81 43.9361 L1490.81 43.2069 Q1490.81 38.0623 1487.4 35.2672 Q1484.04 32.4315 1477.93 32.4315 Q1474.04 32.4315 1470.35 33.3632 Q1466.66 34.295 1463.26 36.1584 L1463.26 29.2718 Q1467.35 27.692 1471.2 26.9223 Q1475.05 26.1121 1478.69 26.1121 Q1488.54 26.1121 1493.4 31.2163 Q1498.26 36.3204 1498.26 46.6907 Z" fill="#000000" fill-rule="nonzero" fill-opacity="1" /><path clip-path="url(#clip760)" d="M1546.18 49.9314 Q1546.18 41.7081 1542.78 37.0496 Q1539.42 32.3505 1533.5 32.3505 Q1527.59 32.3505 1524.19 37.0496 Q1520.82 41.7081 1520.82 49.9314 Q1520.82 58.1548 1524.19 62.8538 Q1527.59 67.5124 1533.5 67.5124 Q1539.42 67.5124 1542.78 62.8538 Q1546.18 58.1548 1546.18 49.9314 M1520.82 34.0924 Q1523.17 30.0415 1526.74 28.0971 Q1530.34 26.1121 1535.33 26.1121 Q1543.59 26.1121 1548.74 32.6746 Q1553.92 39.2371 1553.92 49.9314 Q1553.92 60.6258 1548.74 67.1883 Q1543.59 73.7508 1535.33 73.7508 Q1530.34 73.7508 1526.74 71.8063 Q1523.17 69.8214 1520.82 65.7705 L1520.82 72.576 L1513.33 72.576 L1513.33 9.54393 L1520.82 9.54393 L1520.82 34.0924 Z" fill="#000000" fill-rule="nonzero" fill-opacity="1" /><path clip-path="url(#clip760)" d="M1566.28 9.54393 L1573.73 9.54393 L1573.73 72.576 L1566.28 72.576 L1566.28 9.54393 Z" fill="#000000" fill-rule="nonzero" fill-opacity="1" /><path clip-path="url(#clip760)" d="M1628.13 48.0275 L1628.13 51.6733 L1593.86 51.6733 Q1594.35 59.3701 1598.48 63.421 Q1602.65 67.4314 1610.07 67.4314 Q1614.36 67.4314 1618.37 66.3781 Q1622.42 65.3249 1626.39 63.2184 L1626.39 70.267 Q1622.38 71.9684 1618.17 72.8596 Q1613.95 73.7508 1609.62 73.7508 Q1598.76 73.7508 1592.4 67.4314 Q1586.08 61.1119 1586.08 50.3365 Q1586.08 39.1965 1592.08 32.6746 Q1598.12 26.1121 1608.32 26.1121 Q1617.48 26.1121 1622.79 32.0264 Q1628.13 37.9003 1628.13 48.0275 M1620.68 45.84 Q1620.6 39.7232 1617.24 36.0774 Q1613.91 32.4315 1608.4 32.4315 Q1602.17 32.4315 1598.4 35.9558 Q1594.67 39.4801 1594.11 45.8805 L1620.68 45.84 Z" fill="#000000" fill-rule="nonzero" fill-opacity="1" /><polyline clip-path="url(#clip762)" style="stroke:#ff7e0d; stroke-linecap:round; stroke-linejoin:round; stroke-width:4; stroke-opacity:0.4; fill:none" points="703.066,410.449 715.321,462.883 727.577,317.666 739.832,348.456 752.088,475.169 764.343,415.714 776.599,289.237 788.854,411.258 801.11,330.013 813.365,427.934 825.621,414.416 837.876,114.75 850.131,351.481 862.387,588.212 874.642,357.941 886.898,127.669 899.153,452.04 911.409,623.544 923.664,283.078 935.92,197.797 948.175,398.729 960.431,521.557 972.686,400.467 984.942,450.087 997.197,287.736 1009.45,345.794 1021.71,613.133 1033.96,439.89 1046.22,225.726 1058.47,294.194 1070.73,570.684 1082.99,514.552 1095.24,214.854 1107.5,322.359 1119.75,535.863 1132.01,448.787 1144.26,291.461 1156.52,294.107 1168.77,446.218 1181.03,525.539 1193.28,302.122 1205.54,208.826 1217.8,311.042 1230.05,413.257 1242.31,162.253 1254.56,422.075 1266.82,616.815 1279.07,333.095 1291.33,273.604 1303.58,283.338 1315.84,571.842 1328.09,439.194 1340.35,244.17 1352.61,385.605 1364.86,414.846 1377.12,383.83 1389.37,366.058 1401.63,440.225 1413.88,375.758 1426.14,297.428 1438.39,403.212 1450.65,571.816 1462.9,339.8 1475.16,221.376 1487.42,501.872 1499.67,484.648 1511.93,251.406 1524.18,382.17 1536.44,406.689 1548.69,356.051 1560.95,346.472 1573.2,527.272 1585.46,404.15 1597.72,191.28 1609.97,385.133 1622.23,578.847 1634.48,320.34 1646.74,329.537 1658.99,417.421 1671.25,358.7 1683.5,531.327 1695.76,313.209 1708.01,130.591 1720.27,344.644 1732.53,558.697 1744.78,247.568 1757.04,325.974 1769.29,460.603 1781.55,291.758 1793.8,388.322 1806.06,475.539 1818.31,438.23 1830.57,252.728 1842.82,361.166 1855.08,630.398 1867.34,318.478 1879.59,304.342 1891.85,526.378 1904.1,449.84 1916.36,289.604 "/>
<polyline clip-path="url(#clip762)" style="stroke:#ff7e0d; stroke-linecap:round; stroke-linejoin:round; stroke-width:4; stroke-opacity:0.4; fill:none" points="703.066,388.367 715.321,394.468 727.577,389.231 739.832,388.537 752.088,392.167 764.343,387.103 776.599,390.393 788.854,389.339 801.11,386.92 813.365,391.702 825.621,389.926 837.876,389.127 850.131,391.061 862.387,388.041 874.642,388.21 886.898,390.974 899.153,386.262 911.409,391.623 923.664,388.121 935.92,388.295 948.175,389.811 960.431,386.97 972.686,389.28 984.942,390.025 997.197,386.558 1009.45,390.226 1021.71,389.619 1033.96,387.57 1046.22,390.17 1058.47,385.77 1070.73,389.544 1082.99,389.996 1095.24,384.899 1107.5,390.403 1119.75,387.186 1132.01,386.76 1144.26,389.24 1156.52,383.673 1168.77,388.095 1181.03,388.02 1193.28,385.823 1205.54,391.402 1217.8,388.377 1230.05,387.556 1242.31,392.554 1254.56,386.362 1266.82,389.557 1279.07,391.699 1291.33,388.003 1303.58,392.263 1315.84,390.008 1328.09,389.417 1340.35,393.084 1352.61,387.401 1364.86,390.793 1377.12,392.294 1389.37,387.72 1401.63,391.43 1413.88,389.725 1426.14,387.241 1438.39,392.579 1450.65,387.134 1462.9,389.755 1475.16,390.943 1487.42,385.959 1499.67,391.75 1511.93,387.421 1524.18,388.733 1536.44,390.373 1548.69,386.825 1560.95,389.801 1573.2,389.363 1585.46,384.948 1597.72,389.805 1609.97,388.927 1622.23,387.156 1634.48,391.6 1646.74,386.368 1658.99,389.092 1671.25,390.85 1683.5,387.292 1695.76,392.343 1708.01,388.242 1720.27,387.131 1732.53,393.362 1744.78,388.768 1757.04,390.308 1769.29,390.465 1781.55,387.061 1793.8,390.645 1806.06,388.763 1818.31,387.149 1830.57,391.146 1842.82,386.182 1855.08,386.696 1867.34,388.422 1879.59,384.139 1891.85,384.964 1904.1,385.79 1916.36,385.869 "/>
<polyline clip-path="url(#clip762)" style="stroke:#ff7e0d; stroke-linecap:round; stroke-linejoin:round; stroke-width:4; stroke-opacity:0.4; fill:none" points="703.066,382.901 715.321,390.695 727.577,392.753 739.832,384.218 752.088,383.853 764.343,379.006 776.599,389.595 788.854,395.573 801.11,382.696 813.365,385.516 825.621,392.326 837.876,395.514 850.131,381.604 862.387,383.996 874.642,393.769 886.898,392.924 899.153,392.924 911.409,392.079 923.664,393.228 935.92,387.382 948.175,382.738 960.431,387.813 972.686,388.012 984.942,400.684 997.197,390.497 1009.45,381.401 1021.71,389.944 1033.96,399.054 1046.22,391.266 1058.47,383.479 1070.73,387.645 1082.99,390.99 1095.24,378.882 1107.5,383.375 1119.75,392.206 1132.01,394.998 1144.26,388.303 1156.52,382.859 1168.77,388.784 1181.03,391.872 1193.28,394.65 1205.54,384.799 1217.8,388.682 1230.05,395.487 1242.31,385.56 1254.56,383.525 1266.82,393.144 1279.07,397.25 1291.33,385.594 1303.58,384.006 1315.84,391.794 1328.09,392.961 1340.35,392.613 1352.61,388.892 1364.86,393.431 1377.12,392.205 1389.37,390.446 1401.63,385.564 1413.88,389.311 1426.14,388.456 1438.39,389.153 1450.65,378.519 1462.9,388.31 1475.16,398.276 1487.42,393.44 1499.67,383.949 1511.93,387.489 1524.18,390.286 1536.44,388.26 1548.69,393.199 1560.95,385.756 1573.2,389.743 1585.46,389.942 1597.72,386.709 1609.97,384.785 1622.23,394.366 1634.48,399.265 1646.74,389.968 1658.99,384.585 1671.25,392.786 1683.5,393.902 1695.76,386.829 1708.01,385.164 1720.27,390.63 1732.53,390.858 1744.78,386.592 1757.04,387.632 1769.29,384.313 1781.55,393.69 1793.8,385.407 1806.06,381.601 1818.31,387.642 1830.57,390.947 1842.82,388.893 1855.08,380.559 1867.34,385.975 1879.59,396.666 1891.85,385.494 1904.1,384.741 1916.36,387.277 "/>
<polyline clip-path="url(#clip762)" style="stroke:#ff7e0d; stroke-linecap:round; stroke-linejoin:round; stroke-width:4; stroke-opacity:0.4; fill:none" points="703.066,370.446 715.321,375.506 727.577,419.205 739.832,361.607 752.088,393.932 764.343,389.108 776.599,368.221 788.854,362.31 801.11,447.185 813.365,395.933 825.621,395.933 837.876,395.933 850.131,395.933 862.387,344.681 874.642,393.901 886.898,410.949 899.153,356.945 911.409,416.804 923.664,371.057 935.92,401.451 948.175,396.989 960.431,377.897 972.686,399.208 984.942,397.297 997.197,358.139 1009.45,439.822 1021.71,331.707 1033.96,426.665 1046.22,386.154 1058.47,378.198 1070.73,417.683 1082.99,390.389 1095.24,349.651 1107.5,491.193 1119.75,425.195 1132.01,425.195 1144.26,359.197 1156.52,378.925 1168.77,420.051 1181.03,357.038 1193.28,383.351 1205.54,419.016 1217.8,342.934 1230.05,427.947 1242.31,372.547 1254.56,370.737 1266.82,441.507 1279.07,310.314 1291.33,371.616 1303.58,371.616 1315.84,432.919 1328.09,365.38 1340.35,351.545 1352.61,447.845 1364.86,306.305 1377.12,441.4 1389.37,377.573 1401.63,343.301 1413.88,453.43 1426.14,319.877 1438.39,422.419 1450.65,386.932 1462.9,363.073 1475.16,416.592 1487.42,391.35 1499.67,377.456 1511.93,416.037 1524.18,376.517 1536.44,367.222 1548.69,445.091 1560.95,314.669 1573.2,487.283 1585.46,306.751 1597.72,467.339 1609.97,358.987 1622.23,387.499 1634.48,435.126 1646.74,342.603 1658.99,425.572 1671.25,396.91 1683.5,339.307 1695.76,473.064 1708.01,320.237 1720.27,416.674 1732.53,408.852 1744.78,334.814 1757.04,425.686 1769.29,381.628 1781.55,354.562 1793.8,422.728 1806.06,369.128 1818.31,367.692 1830.57,434.319 1842.82,338.261 1855.08,423.113 1867.34,365.147 1879.59,407.016 1891.85,359.917 1904.1,433.038 1916.36,346.581 "/>
<polyline clip-path="url(#clip762)" style="stroke:#ff7e0d; stroke-linecap:round; stroke-linejoin:round; stroke-width:4; stroke-opacity:0.4; fill:none" points="703.066,442.085 715.321,294.674 727.577,347.533 739.832,500.52 752.088,416.255 764.343,416.255 776.599,331.99 788.854,416.779 801.11,375.239 813.365,322.256 825.621,446.678 837.876,337.85 850.131,383.138 862.387,352.288 874.642,437.378 886.898,325.622 899.153,383.238 911.409,360.173 923.664,409.452 935.92,375.841 948.175,329.565 960.431,448.693 972.686,352.002 984.942,396.92 997.197,333.266 1009.45,455.195 1021.71,348.257 1033.96,353.695 1046.22,492.802 1058.47,495.868 1070.73,498.935 1082.99,331.869 1095.24,467.074 1107.5,427.827 1119.75,353.467 1132.01,441.698 1144.26,394.077 1156.52,431.646 1168.77,264.358 1181.03,482.881 1193.28,366.291 1205.54,409.306 1217.8,377.91 1230.05,391.577 1242.31,453.416 1254.56,270.949 1266.82,447.754 1279.07,362.645 1291.33,386.125 1303.58,384.472 1315.84,359.727 1328.09,444.652 1340.35,339.407 1352.61,397.351 1364.86,406.907 1377.12,389.045 1389.37,307.746 1401.63,442.161 1413.88,352.849 1426.14,370.28 1438.39,389.107 1450.65,316.065 1462.9,351.84 1475.16,351.84 1487.42,387.616 1499.67,418.404 1511.93,378.349 1524.18,338.602 1536.44,403.573 1548.69,478.3 1560.95,457.574 1573.2,457.574 1585.46,457.574 1597.72,436.848 1609.97,374.159 1622.23,298.261 1634.48,466.407 1646.74,328.138 1658.99,381.49 1671.25,353.723 1683.5,431.236 1695.76,345.909 1708.01,371.07 1720.27,415.924 1732.53,390.426 1744.78,370.811 1757.04,323.901 1769.29,482.199 1781.55,338.853 1793.8,411.743 1806.06,383.797 1818.31,419.63 1830.57,408.033 1842.82,339.33 1855.08,439.511 1867.34,385.993 1879.59,410.687 1891.85,306.831 1904.1,337.044 1916.36,367.256 "/>
<polyline clip-path="url(#clip762)" style="stroke:#ff7e0d; stroke-linecap:round; stroke-linejoin:round; stroke-width:4; stroke-opacity:0.4; fill:none" points="703.066,407.391 715.321,311.119 727.577,199.036 739.832,249.792 752.088,408.309 764.343,535.665 776.599,461.089 788.854,312.003 801.11,286.748 813.365,423.065 825.621,543.32 837.876,446.866 850.131,262.905 862.387,209.667 874.642,364.904 886.898,517.665 899.153,436.38 911.409,248.119 923.664,205.361 935.92,378.28 948.175,567.575 960.431,483.922 972.686,281.655 984.942,228.978 997.197,403.309 1009.45,579.7 1021.71,500.292 1033.96,296.303 1046.22,238.642 1058.47,400.84 1070.73,576.279 1082.99,503.12 1095.24,329.884 1107.5,269.381 1119.75,424.805 1132.01,574.568 1144.26,516.076 1156.52,351.791 1168.77,283.944 1181.03,378.743 1193.28,478.942 1205.54,434.337 1217.8,317.871 1230.05,260.684 1242.31,319.44 1254.56,425.925 1266.82,445.016 1279.07,359.175 1291.33,287.869 1303.58,309.456 1315.84,407.167 1328.09,461.344 1340.35,409.264 1352.61,317.667 1364.86,311.532 1377.12,411.13 1389.37,516.666 1401.63,485.091 1413.88,374.534 1426.14,342.356 1438.39,443.771 1450.65,587.244 1462.9,555.713 1475.16,403.083 1487.42,315.79 1499.67,379.05 1511.93,511.476 1524.18,489.463 1536.44,365.849 1548.69,286.362 1560.95,367.529 1573.2,536.382 1585.46,544.767 1597.72,410.245 1609.97,301.236 1622.23,327.257 1634.48,447.931 1646.74,449.838 1658.99,343.262 1671.25,253.155 1683.5,281.724 1695.76,410.747 1708.01,462.828 1720.27,366.171 1732.53,262.784 1744.78,254.119 1757.04,369.432 1769.29,437.002 1781.55,361.202 1793.8,236.39 1806.06,201.281 1818.31,299.093 1830.57,422.966 1842.82,343.001 1855.08,253.555 1867.34,196.319 1879.59,295.611 1891.85,456.944 1904.1,456.841 1916.36,326.178 "/>
</svg>
