<?xml version="1.0" encoding="utf-8"?>
<svg xmlns="http://www.w3.org/2000/svg" xmlns:xlink="http://www.w3.org/1999/xlink" width="500" height="200" viewBox="0 0 2000 800">
<defs>
  <clipPath id="clip780">
    <rect x="0" y="0" width="2000" height="800"/>
  </clipPath>
</defs>
<path clip-path="url(#clip780)" d="M0 800 L2000 800 L2000 -4.44089e-14 L0 -4.44089e-14  Z" fill="#ffffff" fill-rule="evenodd" fill-opacity="1"/>
<defs>
  <clipPath id="clip781">
    <rect x="400" y="0" width="1401" height="800"/>
  </clipPath>
</defs>
<path clip-path="url(#clip780)" d="M240.663 645.868 L1952.76 645.868 L1952.76 99.2801 L240.663 99.2801  Z" fill="#ffffff" fill-rule="evenodd" fill-opacity="1"/>
<defs>
  <clipPath id="clip782">
    <rect x="240" y="99" width="1713" height="548"/>
  </clipPath>
</defs>
<polyline clip-path="url(#clip782)" style="stroke:#000000; stroke-linecap:round; stroke-linejoin:round; stroke-width:2; stroke-opacity:0.1; fill:none" points="272.117,645.868 272.117,99.2801 "/>
<polyline clip-path="url(#clip782)" style="stroke:#000000; stroke-linecap:round; stroke-linejoin:round; stroke-width:2; stroke-opacity:0.1; fill:none" points="612.155,645.868 612.155,99.2801 "/>
<polyline clip-path="url(#clip782)" style="stroke:#000000; stroke-linecap:round; stroke-linejoin:round; stroke-width:2; stroke-opacity:0.1; fill:none" points="952.193,645.868 952.193,99.2801 "/>
<polyline clip-path="url(#clip782)" style="stroke:#000000; stroke-linecap:round; stroke-linejoin:round; stroke-width:2; stroke-opacity:0.1; fill:none" points="1292.23,645.868 1292.23,99.2801 "/>
<polyline clip-path="url(#clip782)" style="stroke:#000000; stroke-linecap:round; stroke-linejoin:round; stroke-width:2; stroke-opacity:0.1; fill:none" points="1632.27,645.868 1632.27,99.2801 "/>
<polyline clip-path="url(#clip782)" style="stroke:#000000; stroke-linecap:round; stroke-linejoin:round; stroke-width:2; stroke-opacity:0.1; fill:none" points="240.663,591.508 1952.76,591.508 "/>
<polyline clip-path="url(#clip782)" style="stroke:#000000; stroke-linecap:round; stroke-linejoin:round; stroke-width:2; stroke-opacity:0.1; fill:none" points="240.663,510.978 1952.76,510.978 "/>
<polyline clip-path="url(#clip782)" style="stroke:#000000; stroke-linecap:round; stroke-linejoin:round; stroke-width:2; stroke-opacity:0.1; fill:none" points="240.663,430.449 1952.76,430.449 "/>
<polyline clip-path="url(#clip782)" style="stroke:#000000; stroke-linecap:round; stroke-linejoin:round; stroke-width:2; stroke-opacity:0.1; fill:none" points="240.663,349.919 1952.76,349.919 "/>
<polyline clip-path="url(#clip782)" style="stroke:#000000; stroke-linecap:round; stroke-linejoin:round; stroke-width:2; stroke-opacity:0.1; fill:none" points="240.663,269.39 1952.76,269.39 "/>
<polyline clip-path="url(#clip782)" style="stroke:#000000; stroke-linecap:round; stroke-linejoin:round; stroke-width:2; stroke-opacity:0.1; fill:none" points="240.663,188.861 1952.76,188.861 "/>
<polyline clip-path="url(#clip782)" style="stroke:#000000; stroke-linecap:round; stroke-linejoin:round; stroke-width:2; stroke-opacity:0.1; fill:none" points="240.663,108.331 1952.76,108.331 "/>
<polyline clip-path="url(#clip780)" style="stroke:#000000; stroke-linecap:round; stroke-linejoin:round; stroke-width:4; stroke-opacity:1; fill:none" points="240.663,645.868 1952.76,645.868 "/>
<polyline clip-path="url(#clip780)" style="stroke:#000000; stroke-linecap:round; stroke-linejoin:round; stroke-width:4; stroke-opacity:1; fill:none" points="272.117,645.868 272.117,626.97 "/>
<polyline clip-path="url(#clip780)" style="stroke:#000000; stroke-linecap:round; stroke-linejoin:round; stroke-width:4; stroke-opacity:1; fill:none" points="612.155,645.868 612.155,626.97 "/>
<polyline clip-path="url(#clip780)" style="stroke:#000000; stroke-linecap:round; stroke-linejoin:round; stroke-width:4; stroke-opacity:1; fill:none" points="952.193,645.868 952.193,626.97 "/>
<polyline clip-path="url(#clip780)" style="stroke:#000000; stroke-linecap:round; stroke-linejoin:round; stroke-width:4; stroke-opacity:1; fill:none" points="1292.23,645.868 1292.23,626.97 "/>
<polyline clip-path="url(#clip780)" style="stroke:#000000; stroke-linecap:round; stroke-linejoin:round; stroke-width:4; stroke-opacity:1; fill:none" points="1632.27,645.868 1632.27,626.97 "/>
<path clip-path="url(#clip780)" d="M272.117 683.84 Q265.346 683.84 261.917 690.524 Q258.532 697.165 258.532 710.533 Q258.532 723.858 261.917 730.542 Q265.346 737.182 272.117 737.182 Q278.931 737.182 282.316 730.542 Q285.745 723.858 285.745 710.533 Q285.745 697.165 282.316 690.524 Q278.931 683.84 272.117 683.84 M272.117 676.896 Q283.011 676.896 288.74 685.533 Q294.512 694.127 294.512 710.533 Q294.512 726.896 288.74 735.533 Q283.011 744.127 272.117 744.127 Q261.223 744.127 255.45 735.533 Q249.721 726.896 249.721 710.533 Q249.721 694.127 255.45 685.533 Q261.223 676.896 272.117 676.896 Z" fill="#000000" fill-rule="nonzero" fill-opacity="1" /><path clip-path="url(#clip780)" d="M572.355 735.489 L602.954 735.489 L602.954 742.868 L561.808 742.868 L561.808 735.489 Q566.799 730.325 575.393 721.644 Q584.03 712.92 586.244 710.403 Q590.454 705.672 592.103 702.417 Q593.796 699.118 593.796 695.95 Q593.796 690.785 590.15 687.53 Q586.547 684.274 580.731 684.274 Q576.608 684.274 572.008 685.707 Q567.45 687.139 562.242 690.047 L562.242 681.193 Q567.537 679.066 572.138 677.981 Q576.738 676.896 580.558 676.896 Q590.627 676.896 596.617 681.931 Q602.606 686.965 602.606 695.385 Q602.606 699.378 601.087 702.981 Q599.612 706.54 595.662 711.401 Q594.577 712.66 588.761 718.693 Q582.945 724.682 572.355 735.489 Z" fill="#000000" fill-rule="nonzero" fill-opacity="1" /><path clip-path="url(#clip780)" d="M640.106 683.84 Q633.335 683.84 629.907 690.524 Q626.521 697.165 626.521 710.533 Q626.521 723.858 629.907 730.542 Q633.335 737.182 640.106 737.182 Q646.92 737.182 650.306 730.542 Q653.735 723.858 653.735 710.533 Q653.735 697.165 650.306 690.524 Q646.92 683.84 640.106 683.84 M640.106 676.896 Q651 676.896 656.729 685.533 Q662.502 694.127 662.502 710.533 Q662.502 726.896 656.729 735.533 Q651 744.127 640.106 744.127 Q629.212 744.127 623.44 735.533 Q617.71 726.896 617.71 710.533 Q617.71 694.127 623.44 685.533 Q629.212 676.896 640.106 676.896 Z" fill="#000000" fill-rule="nonzero" fill-opacity="1" /><path clip-path="url(#clip780)" d="M930.014 685.707 L907.879 720.299 L930.014 720.299 L930.014 685.707 M927.714 678.068 L938.738 678.068 L938.738 720.299 L947.983 720.299 L947.983 727.59 L938.738 727.59 L938.738 742.868 L930.014 742.868 L930.014 727.59 L900.761 727.59 L900.761 719.127 L927.714 678.068 Z" fill="#000000" fill-rule="nonzero" fill-opacity="1" /><path clip-path="url(#clip780)" d="M981.229 683.84 Q974.459 683.84 971.03 690.524 Q967.644 697.165 967.644 710.533 Q967.644 723.858 971.03 730.542 Q974.459 737.182 981.229 737.182 Q988.044 737.182 991.429 730.542 Q994.858 723.858 994.858 710.533 Q994.858 697.165 991.429 690.524 Q988.044 683.84 981.229 683.84 M981.229 676.896 Q992.124 676.896 997.853 685.533 Q1003.63 694.127 1003.63 710.533 Q1003.63 726.896 997.853 735.533 Q992.124 744.127 981.229 744.127 Q970.335 744.127 964.563 735.533 Q958.834 726.896 958.834 710.533 Q958.834 694.127 964.563 685.533 Q970.335 676.896 981.229 676.896 Z" fill="#000000" fill-rule="nonzero" fill-opacity="1" /><path clip-path="url(#clip780)" d="M1264.87 706.974 Q1258.96 706.974 1255.49 711.01 Q1252.06 715.047 1252.06 722.078 Q1252.06 729.066 1255.49 733.146 Q1258.96 737.182 1264.87 737.182 Q1270.77 737.182 1274.2 733.146 Q1277.67 729.066 1277.67 722.078 Q1277.67 715.047 1274.2 711.01 Q1270.77 706.974 1264.87 706.974 M1282.27 679.5 L1282.27 687.486 Q1278.97 685.924 1275.59 685.099 Q1272.24 684.274 1268.95 684.274 Q1260.27 684.274 1255.66 690.134 Q1251.11 695.993 1250.46 707.842 Q1253.02 704.066 1256.88 702.069 Q1260.74 700.03 1265.39 700.03 Q1275.15 700.03 1280.79 705.976 Q1286.48 711.878 1286.48 722.078 Q1286.48 732.061 1280.58 738.094 Q1274.68 744.127 1264.87 744.127 Q1253.62 744.127 1247.68 735.533 Q1241.73 726.896 1241.73 710.533 Q1241.73 695.168 1249.02 686.054 Q1256.32 676.896 1268.6 676.896 Q1271.9 676.896 1275.24 677.547 Q1278.62 678.198 1282.27 679.5 Z" fill="#000000" fill-rule="nonzero" fill-opacity="1" /><path clip-path="url(#clip780)" d="M1320.33 683.84 Q1313.56 683.84 1310.14 690.524 Q1306.75 697.165 1306.75 710.533 Q1306.75 723.858 1310.14 730.542 Q1313.56 737.182 1320.33 737.182 Q1327.15 737.182 1330.53 730.542 Q1333.96 723.858 1333.96 710.533 Q1333.96 697.165 1330.53 690.524 Q1327.15 683.84 1320.33 683.84 M1320.33 676.896 Q1331.23 676.896 1336.96 685.533 Q1342.73 694.127 1342.73 710.533 Q1342.73 726.896 1336.96 735.533 Q1331.23 744.127 1320.33 744.127 Q1309.44 744.127 1303.67 735.533 Q1297.94 726.896 1297.94 710.533 Q1297.94 694.127 1303.67 685.533 Q1309.44 676.896 1320.33 676.896 Z" fill="#000000" fill-rule="nonzero" fill-opacity="1" /><path clip-path="url(#clip780)" d="M1603.91 712.095 Q1597.66 712.095 1594.05 715.437 Q1590.49 718.779 1590.49 724.639 Q1590.49 730.498 1594.05 733.84 Q1597.66 737.182 1603.91 737.182 Q1610.16 737.182 1613.76 733.84 Q1617.36 730.455 1617.36 724.639 Q1617.36 718.779 1613.76 715.437 Q1610.2 712.095 1603.91 712.095 M1595.14 708.363 Q1589.5 706.974 1586.33 703.111 Q1583.2 699.248 1583.2 693.693 Q1583.2 685.924 1588.72 681.41 Q1594.27 676.896 1603.91 676.896 Q1613.59 676.896 1619.1 681.41 Q1624.61 685.924 1624.61 693.693 Q1624.61 699.248 1621.44 703.111 Q1618.32 706.974 1612.72 708.363 Q1619.05 709.839 1622.57 714.135 Q1626.13 718.432 1626.13 724.639 Q1626.13 734.057 1620.36 739.092 Q1614.63 744.127 1603.91 744.127 Q1593.19 744.127 1587.41 739.092 Q1581.68 734.057 1581.68 724.639 Q1581.68 718.432 1585.24 714.135 Q1588.8 709.839 1595.14 708.363 M1591.93 694.517 Q1591.93 699.552 1595.05 702.373 Q1598.22 705.194 1603.91 705.194 Q1609.55 705.194 1612.72 702.373 Q1615.93 699.552 1615.93 694.517 Q1615.93 689.483 1612.72 686.662 Q1609.55 683.84 1603.91 683.84 Q1598.22 683.84 1595.05 686.662 Q1591.93 689.483 1591.93 694.517 Z" fill="#000000" fill-rule="nonzero" fill-opacity="1" /><path clip-path="url(#clip780)" d="M1660.46 683.84 Q1653.69 683.84 1650.26 690.524 Q1646.87 697.165 1646.87 710.533 Q1646.87 723.858 1650.26 730.542 Q1653.69 737.182 1660.46 737.182 Q1667.27 737.182 1670.66 730.542 Q1674.09 723.858 1674.09 710.533 Q1674.09 697.165 1670.66 690.524 Q1667.27 683.84 1660.46 683.84 M1660.46 676.896 Q1671.35 676.896 1677.08 685.533 Q1682.86 694.127 1682.86 710.533 Q1682.86 726.896 1677.08 735.533 Q1671.35 744.127 1660.46 744.127 Q1649.57 744.127 1643.79 735.533 Q1638.06 726.896 1638.06 710.533 Q1638.06 694.127 1643.79 685.533 Q1649.57 676.896 1660.46 676.896 Z" fill="#000000" fill-rule="nonzero" fill-opacity="1" /><path clip-path="url(#clip780)" d="M1095.77 784.322 L1095.77 794.444 L1107.83 794.444 L1107.83 798.995 L1095.77 798.995 L1095.77 818.347 Q1095.77 822.708 1096.95 823.949 Q1098.16 825.19 1101.82 825.19 L1107.83 825.19 L1107.83 830.092 L1101.82 830.092 Q1095.04 830.092 1092.46 827.577 Q1089.88 825.031 1089.88 818.347 L1089.88 798.995 L1085.59 798.995 L1085.59 794.444 L1089.88 794.444 L1089.88 784.322 L1095.77 784.322 Z" fill="#000000" fill-rule="nonzero" fill-opacity="1" /><polyline clip-path="url(#clip780)" style="stroke:#000000; stroke-linecap:round; stroke-linejoin:round; stroke-width:4; stroke-opacity:1; fill:none" points="240.663,645.868 240.663,99.2801 "/>
<polyline clip-path="url(#clip780)" style="stroke:#000000; stroke-linecap:round; stroke-linejoin:round; stroke-width:4; stroke-opacity:1; fill:none" points="240.663,591.508 259.561,591.508 "/>
<polyline clip-path="url(#clip780)" style="stroke:#000000; stroke-linecap:round; stroke-linejoin:round; stroke-width:4; stroke-opacity:1; fill:none" points="240.663,510.978 259.561,510.978 "/>
<polyline clip-path="url(#clip780)" style="stroke:#000000; stroke-linecap:round; stroke-linejoin:round; stroke-width:4; stroke-opacity:1; fill:none" points="240.663,430.449 259.561,430.449 "/>
<polyline clip-path="url(#clip780)" style="stroke:#000000; stroke-linecap:round; stroke-linejoin:round; stroke-width:4; stroke-opacity:1; fill:none" points="240.663,349.919 259.561,349.919 "/>
<polyline clip-path="url(#clip780)" style="stroke:#000000; stroke-linecap:round; stroke-linejoin:round; stroke-width:4; stroke-opacity:1; fill:none" points="240.663,269.39 259.561,269.39 "/>
<polyline clip-path="url(#clip780)" style="stroke:#000000; stroke-linecap:round; stroke-linejoin:round; stroke-width:4; stroke-opacity:1; fill:none" points="240.663,188.861 259.561,188.861 "/>
<polyline clip-path="url(#clip780)" style="stroke:#000000; stroke-linecap:round; stroke-linejoin:round; stroke-width:4; stroke-opacity:1; fill:none" points="240.663,108.331 259.561,108.331 "/>
<path clip-path="url(#clip780)" d="M97.9466 592.354 L153.589 592.354 L153.589 599.732 L97.9466 599.732 L97.9466 592.354 Z" fill="#000000" fill-rule="nonzero" fill-opacity="1" /><path clip-path="url(#clip780)" d="M180.064 616.529 L210.663 616.529 L210.663 623.908 L169.517 623.908 L169.517 616.529 Q174.509 611.364 183.102 602.684 Q191.739 593.96 193.953 591.442 Q198.163 586.712 199.812 583.456 Q201.505 580.158 201.505 576.989 Q201.505 571.824 197.859 568.569 Q194.257 565.314 188.441 565.314 Q184.318 565.314 179.717 566.746 Q175.16 568.179 169.951 571.087 L169.951 562.232 Q175.247 560.106 179.847 559.021 Q184.448 557.936 188.267 557.936 Q198.337 557.936 204.326 562.97 Q210.316 568.005 210.316 576.425 Q210.316 580.418 208.797 584.021 Q207.321 587.58 203.371 592.441 Q202.286 593.699 196.47 599.732 Q190.654 605.722 180.064 616.529 Z" fill="#000000" fill-rule="nonzero" fill-opacity="1" /><path clip-path="url(#clip780)" d="M97.2522 511.824 L152.894 511.824 L152.894 519.203 L97.2522 519.203 L97.2522 511.824 Z" fill="#000000" fill-rule="nonzero" fill-opacity="1" /><path clip-path="url(#clip780)" d="M173.337 536 L187.66 536 L187.66 486.564 L172.078 489.689 L172.078 481.703 L187.573 478.578 L196.34 478.578 L196.34 536 L210.663 536 L210.663 543.378 L173.337 543.378 L173.337 536 Z" fill="#000000" fill-rule="nonzero" fill-opacity="1" /><path clip-path="url(#clip780)" d="M188.267 403.821 Q181.496 403.821 178.068 410.505 Q174.682 417.146 174.682 430.514 Q174.682 443.838 178.068 450.522 Q181.496 457.163 188.267 457.163 Q195.081 457.163 198.467 450.522 Q201.896 443.838 201.896 430.514 Q201.896 417.146 198.467 410.505 Q195.081 403.821 188.267 403.821 M188.267 396.877 Q199.161 396.877 204.89 405.514 Q210.663 414.108 210.663 430.514 Q210.663 446.877 204.89 455.514 Q199.161 464.107 188.267 464.107 Q177.373 464.107 171.601 455.514 Q165.872 446.877 165.872 430.514 Q165.872 414.108 171.601 405.514 Q177.373 396.877 188.267 396.877 Z" fill="#000000" fill-rule="nonzero" fill-opacity="1" /><path clip-path="url(#clip780)" d="M173.337 374.941 L187.66 374.941 L187.66 325.505 L172.078 328.63 L172.078 320.644 L187.573 317.519 L196.34 317.519 L196.34 374.941 L210.663 374.941 L210.663 382.319 L173.337 382.319 L173.337 374.941 Z" fill="#000000" fill-rule="nonzero" fill-opacity="1" /><path clip-path="url(#clip780)" d="M180.064 294.412 L210.663 294.412 L210.663 301.79 L169.517 301.79 L169.517 294.412 Q174.509 289.247 183.102 280.566 Q191.739 271.842 193.953 269.325 Q198.163 264.594 199.812 261.339 Q201.505 258.04 201.505 254.872 Q201.505 249.707 197.859 246.452 Q194.257 243.197 188.441 243.197 Q184.318 243.197 179.717 244.629 Q175.16 246.061 169.951 248.969 L169.951 240.115 Q175.247 237.988 179.847 236.903 Q184.448 235.818 188.267 235.818 Q198.337 235.818 204.326 240.853 Q210.316 245.888 210.316 254.308 Q210.316 258.301 208.797 261.903 Q207.321 265.462 203.371 270.323 Q202.286 271.582 196.47 277.615 Q190.654 283.604 180.064 294.412 Z" fill="#000000" fill-rule="nonzero" fill-opacity="1" /><path clip-path="url(#clip780)" d="M197.295 186.322 Q203.588 187.667 207.104 191.921 Q210.663 196.174 210.663 202.424 Q210.663 212.016 204.066 217.268 Q197.469 222.519 185.316 222.519 Q181.236 222.519 176.896 221.695 Q172.599 220.913 167.998 219.308 L167.998 210.844 Q171.644 212.971 175.984 214.056 Q180.325 215.141 185.056 215.141 Q193.302 215.141 197.599 211.886 Q201.939 208.631 201.939 202.424 Q201.939 196.695 197.903 193.483 Q193.91 190.228 186.748 190.228 L179.196 190.228 L179.196 183.023 L187.095 183.023 Q193.562 183.023 196.991 180.462 Q200.42 177.858 200.42 172.997 Q200.42 168.006 196.861 165.358 Q193.345 162.667 186.748 162.667 Q183.146 162.667 179.023 163.448 Q174.899 164.23 169.951 165.879 L169.951 158.067 Q174.943 156.678 179.283 155.983 Q183.667 155.289 187.529 155.289 Q197.512 155.289 203.328 159.846 Q209.144 164.36 209.144 172.086 Q209.144 177.468 206.062 181.2 Q202.981 184.889 197.295 186.322 Z" fill="#000000" fill-rule="nonzero" fill-opacity="1" /><path clip-path="url(#clip780)" d="M192.694 83.5702 L170.559 118.162 L192.694 118.162 L192.694 83.5702 M190.394 75.9313 L201.418 75.9313 L201.418 118.162 L210.663 118.162 L210.663 125.454 L201.418 125.454 L201.418 140.731 L192.694 140.731 L192.694 125.454 L163.441 125.454 L163.441 116.99 L190.394 75.9313 Z" fill="#000000" fill-rule="nonzero" fill-opacity="1" /><path clip-path="url(#clip780)" d="M17.3482 355.959 L34.6948 368.85 L52.9962 355.291 L52.9962 362.198 L38.9916 372.574 L52.9962 382.95 L52.9962 389.857 L34.3446 376.011 L17.3482 388.679 L17.3482 381.772 L30.0478 372.319 L17.3482 362.866 L17.3482 355.959 Z" fill="#000000" fill-rule="nonzero" fill-opacity="1" /><path clip-path="url(#clip780)" d="M941.256 12.096 L949.439 12.096 L949.439 36.8875 L979.172 36.8875 L979.172 12.096 L987.355 12.096 L987.355 72.576 L979.172 72.576 L979.172 43.7741 L949.439 43.7741 L949.439 72.576 L941.256 72.576 L941.256 12.096 Z" fill="#000000" fill-rule="nonzero" fill-opacity="1" /><path clip-path="url(#clip780)" d="M1042.12 48.0275 L1042.12 51.6733 L1007.85 51.6733 Q1008.34 59.3701 1012.47 63.421 Q1016.64 67.4314 1024.06 67.4314 Q1028.35 67.4314 1032.36 66.3781 Q1036.41 65.3249 1040.38 63.2184 L1040.38 70.267 Q1036.37 71.9684 1032.16 72.8596 Q1027.95 73.7508 1023.61 73.7508 Q1012.75 73.7508 1006.39 67.4314 Q1000.08 61.1119 1000.08 50.3365 Q1000.08 39.1965 1006.07 32.6746 Q1012.11 26.1121 1022.31 26.1121 Q1031.47 26.1121 1036.78 32.0264 Q1042.12 37.9003 1042.12 48.0275 M1034.67 45.84 Q1034.59 39.7232 1031.23 36.0774 Q1027.9 32.4315 1022.4 32.4315 Q1016.16 32.4315 1012.39 35.9558 Q1008.66 39.4801 1008.1 45.8805 L1034.67 45.84 Z" fill="#000000" fill-rule="nonzero" fill-opacity="1" /><path clip-path="url(#clip780)" d="M1074.98 49.7694 Q1065.94 49.7694 1062.46 51.8354 Q1058.98 53.9013 1058.98 58.8839 Q1058.98 62.8538 1061.57 65.2034 Q1064.2 67.5124 1068.7 67.5124 Q1074.9 67.5124 1078.62 63.1374 Q1082.39 58.7219 1082.39 51.4303 L1082.39 49.7694 L1074.98 49.7694 M1089.84 46.6907 L1089.84 72.576 L1082.39 72.576 L1082.39 65.6895 Q1079.84 69.8214 1076.03 71.8063 Q1072.22 73.7508 1066.71 73.7508 Q1059.74 73.7508 1055.61 69.8619 Q1051.52 65.9325 1051.52 59.3701 Q1051.52 51.7138 1056.63 47.825 Q1061.77 43.9361 1071.94 43.9361 L1082.39 43.9361 L1082.39 43.2069 Q1082.39 38.0623 1078.99 35.2672 Q1075.62 32.4315 1069.51 32.4315 Q1065.62 32.4315 1061.93 33.3632 Q1058.25 34.295 1054.84 36.1584 L1054.84 29.2718 Q1058.93 27.692 1062.78 26.9223 Q1066.63 26.1121 1070.28 26.1121 Q1080.12 26.1121 1084.98 31.2163 Q1089.84 36.3204 1089.84 46.6907 Z" fill="#000000" fill-rule="nonzero" fill-opacity="1" /><path clip-path="url(#clip780)" d="M1105.2 9.54393 L1112.65 9.54393 L1112.65 72.576 L1105.2 72.576 L1105.2 9.54393 Z" fill="#000000" fill-rule="nonzero" fill-opacity="1" /><path clip-path="url(#clip780)" d="M1135.62 14.324 L1135.62 27.2059 L1150.97 27.2059 L1150.97 32.9987 L1135.62 32.9987 L1135.62 57.6282 Q1135.62 63.1779 1137.12 64.7578 Q1138.66 66.3376 1143.32 66.3376 L1150.97 66.3376 L1150.97 72.576 L1143.32 72.576 Q1134.69 72.576 1131.41 69.3758 Q1128.12 66.1351 1128.12 57.6282 L1128.12 32.9987 L1122.66 32.9987 L1122.66 27.2059 L1128.12 27.2059 L1128.12 14.324 L1135.62 14.324 Z" fill="#000000" fill-rule="nonzero" fill-opacity="1" /><path clip-path="url(#clip780)" d="M1198.49 45.1919 L1198.49 72.576 L1191.03 72.576 L1191.03 45.4349 Q1191.03 38.994 1188.52 35.7938 Q1186.01 32.5936 1180.99 32.5936 Q1174.95 32.5936 1171.47 36.4419 Q1167.99 40.2903 1167.99 46.9338 L1167.99 72.576 L1160.49 72.576 L1160.49 9.54393 L1167.99 9.54393 L1167.99 34.2544 Q1170.66 30.163 1174.26 28.1376 Q1177.91 26.1121 1182.65 26.1121 Q1190.47 26.1121 1194.48 30.9732 Q1198.49 35.7938 1198.49 45.1919 Z" fill="#000000" fill-rule="nonzero" fill-opacity="1" /><path clip-path="url(#clip780)" d="M1232.23 76.7889 Q1229.07 84.8907 1226.08 87.3618 Q1223.08 89.8329 1218.05 89.8329 L1212.1 89.8329 L1212.1 83.5945 L1216.47 83.5945 Q1219.55 83.5945 1221.25 82.1361 Q1222.96 80.6778 1225.02 75.2496 L1226.36 71.8468 L1208.01 27.2059 L1215.91 27.2059 L1230.09 62.6918 L1244.26 27.2059 L1252.16 27.2059 L1232.23 76.7889 Z" fill="#000000" fill-rule="nonzero" fill-opacity="1" /><polyline clip-path="url(#clip782)" style="stroke:#ff7e0d; stroke-linecap:round; stroke-linejoin:round; stroke-width:4; stroke-opacity:0.4; fill:none" points="289.118,376.556 306.12,378.897 323.122,403.217 340.124,407.473 357.126,441.02 374.128,453.663 391.13,457.659 408.132,493.064 425.134,488.761 442.136,487.537 459.138,502.992 476.14,505.085 493.141,527.581 510.143,527.433 527.145,534.338 544.147,550.649 561.149,548.79 578.151,560.927 595.153,588.623 612.155,602.825 629.157,610.478 646.159,606.908 663.161,625.254 680.163,622.378 697.164,618.508 714.166,624.454 731.168,569.61 748.17,551.897 765.172,521.987 782.174,478.508 799.176,464.697 816.178,426.492 833.18,403.122 850.182,382.524 867.184,364.853 884.186,389.099 901.187,370.781 918.189,363.909 935.191,388.442 952.193,374.447 969.195,378.77 986.197,384.001 1003.2,383.609 1020.2,379.956 1037.2,378.906 1054.2,379.425 1071.21,394.053 1088.21,369.643 1105.21,378.839 1122.21,388.14 1139.21,376.834 1156.22,396.21 1173.22,384.578 1190.22,379.09 1207.22,393.693 1224.22,415.826 1241.23,391.879 1258.23,393.063 1275.23,400.562 1292.23,384.474 1309.23,417.659 1326.24,388.381 1343.24,384.801 1360.24,425.53 1377.24,392.241 1394.24,402.317 1411.24,410.93 1428.25,381.844 1445.25,381.282 1462.25,367.524 1479.25,348.977 1496.25,384.111 1513.26,403.184 1530.26,381.856 1547.26,406.649 1564.26,413.413 1581.26,396.755 1598.27,423.322 1615.27,415.815 1632.27,403.524 1649.27,428.22 1666.27,406.772 1683.28,403.915 1700.28,432.915 1717.28,399.652 1734.28,412.706 1751.28,413.518 1768.29,417.626 1785.29,408.54 1802.29,397.371 1819.29,344.914 1836.29,225.681 1853.29,253.913 1870.3,305.83 1887.3,357.731 1904.3,456.675 "/>
<polyline clip-path="url(#clip782)" style="stroke:#ff7e0d; stroke-linecap:round; stroke-linejoin:round; stroke-width:4; stroke-opacity:0.4; fill:none" points="289.118,249.355 306.12,145.774 323.122,197.858 340.124,211.335 357.126,361.023 374.128,400.204 391.13,298.445 408.132,327.12 425.134,337.271 442.136,335.016 459.138,382.503 476.14,434.597 493.141,465.383 510.143,460.983 527.145,472.58 544.147,488.293 561.149,487.912 578.151,496.516 595.153,499.679 612.155,511.599 629.157,521.814 646.159,516.732 663.161,521.267 680.163,536.422 697.164,551.353 714.166,551.661 731.168,563.633 748.17,581.917 765.172,576.215 782.174,581.959 799.176,590.413 816.178,589.921 833.18,572.803 850.182,545.739 867.184,531.026 884.186,504.899 901.187,470.523 918.189,442.631 935.191,414.63 952.193,401.341 969.195,388.186 986.197,367.487 1003.2,361.536 1020.2,360.549 1037.2,363.912 1054.2,367.573 1071.21,372.05 1088.21,377.976 1105.21,377.662 1122.21,388.175 1139.21,384.648 1156.22,372.463 1173.22,384.309 1190.22,390.116 1207.22,390.558 1224.22,388.984 1241.23,388.865 1258.23,397.755 1275.23,396.454 1292.23,397.368 1309.23,404.722 1326.24,404.963 1343.24,405.693 1360.24,410.131 1377.24,422.491 1394.24,425.7 1411.24,419.084 1428.25,424.454 1445.25,429.597 1462.25,428.999 1479.25,425.591 1496.25,430.874 1513.26,433.669 1530.26,423.6 1547.26,411.754 1564.26,399.457 1581.26,398.004 1598.27,398.756 1615.27,411.095 1632.27,426.172 1649.27,431.694 1666.27,446.16 1683.28,445.95 1700.28,458.597 1717.28,465.434 1734.28,449.013 1751.28,452.964 1768.29,462.59 1785.29,459.149 1802.29,450.73 1819.29,455.99 1836.29,458.77 1853.29,450.76 1870.3,452.63 1887.3,453.911 1904.3,446.964 "/>
<polyline clip-path="url(#clip782)" style="stroke:#ff7e0d; stroke-linecap:round; stroke-linejoin:round; stroke-width:4; stroke-opacity:0.4; fill:none" points="289.118,355.753 306.12,328.552 323.122,213.443 340.124,114.75 357.126,219.257 374.128,303.3 391.13,404.443 408.132,427.724 425.134,324.027 442.136,315.864 459.138,348.062 476.14,333.839 493.141,341.16 510.143,428.273 527.145,466.119 544.147,471.574 561.149,475.777 578.151,487.256 595.153,490.868 612.155,502.171 629.157,498.26 646.159,497.813 663.161,525.623 680.163,525.698 697.164,521.586 714.166,533.852 731.168,552.569 748.17,567.012 765.172,567.071 782.174,574.8 799.176,583.263 816.178,581.616 833.18,573.086 850.182,564.366 867.184,554.235 884.186,534.409 901.187,512.445 918.189,487.387 935.191,475.107 952.193,447.377 969.195,411.894 986.197,413.903 1003.2,394.545 1020.2,381.632 1037.2,370.299 1054.2,371.948 1071.21,363.961 1088.21,350.781 1105.21,366.336 1122.21,379.064 1139.21,382.097 1156.22,369.86 1173.22,373.148 1190.22,393.233 1207.22,391.75 1224.22,381.33 1241.23,373.218 1258.23,397.221 1275.23,393.779 1292.23,383.572 1309.23,394.519 1326.24,396.232 1343.24,399.445 1360.24,399.988 1377.24,401.39 1394.24,400.393 1411.24,414.313 1428.25,424.194 1445.25,412.509 1462.25,424.894 1479.25,425.218 1496.25,435.736 1513.26,416.165 1530.26,398.06 1547.26,400.882 1564.26,386.779 1581.26,399.326 1598.27,410.578 1615.27,425 1632.27,443.703 1649.27,441.846 1666.27,463.141 1683.28,462.114 1700.28,457.075 1717.28,476.874 1734.28,463.241 1751.28,458.986 1768.29,477.234 1785.29,462.641 1802.29,469.677 1819.29,474.005 1836.29,463.361 1853.29,476.182 1870.3,468.433 1887.3,466.187 1904.3,459.403 "/>
<polyline clip-path="url(#clip782)" style="stroke:#ff7e0d; stroke-linecap:round; stroke-linejoin:round; stroke-width:4; stroke-opacity:0.4; fill:none" points="289.118,325.08 306.12,226.494 323.122,223.71 340.124,339.312 357.126,433.845 374.128,385.611 391.13,339.115 408.132,357.445 425.134,344.76 442.136,391.506 459.138,457.273 476.14,455.13 493.141,482.683 510.143,494.857 527.145,496.05 544.147,501.476 561.149,511.209 578.151,530.761 595.153,528.416 612.155,531.983 629.157,566.74 646.159,565.086 663.161,583.296 680.163,605.186 697.164,606.424 714.166,630.398 731.168,626.117 748.17,629.801 765.172,612.145 782.174,585.469 799.176,557.916 816.178,520.022 833.18,481.076 850.182,446.36 867.184,424.473 884.186,410.756 901.187,389.139 918.189,373.663 935.191,385.845 952.193,384.818 969.195,368.447 986.197,390.036 1003.2,396.173 1020.2,375.109 1037.2,389.917 1054.2,385.025 1071.21,381.669 1088.21,384.293 1105.21,380.721 1122.21,383.279 1139.21,387.73 1156.22,385.845 1173.22,374.1 1190.22,389.426 1207.22,395.439 1224.22,389.499 1241.23,394.07 1258.23,397.32 1275.23,404.194 1292.23,395.115 1309.23,402.707 1326.24,412.65 1343.24,415.763 1360.24,406.58 1377.24,414.686 1394.24,423.827 1411.24,410.186 1428.25,425.478 1445.25,421.1 1462.25,426.831 1479.25,412.567 1496.25,391.844 1513.26,391.301 1530.26,387.285 1547.26,402.196 1564.26,409.24 1581.26,426.403 1598.27,432.429 1615.27,433.689 1632.27,437.03 1649.27,429.054 1666.27,445.344 1683.28,428.796 1700.28,433.777 1717.28,426.397 1734.28,426.834 1751.28,441.038 1768.29,433.136 1785.29,422.625 1802.29,423.957 1819.29,396.774 1836.29,311.613 1853.29,255.254 1870.3,363.999 1887.3,474.013 1904.3,437.828 "/>
<polyline clip-path="url(#clip782)" style="stroke:#ff7e0d; stroke-linecap:round; stroke-linejoin:round; stroke-width:4; stroke-opacity:0.4; fill:none" points="289.118,350.474 306.12,212.629 323.122,150.743 340.124,252.264 357.126,393.945 374.128,426.6 391.13,353.176 408.132,334.372 425.134,349.319 442.136,350.618 459.138,383.887 476.14,432.039 493.141,469.88 510.143,466.066 527.145,477.555 544.147,466.233 561.149,459.988 578.151,462.967 595.153,480.027 612.155,497.594 629.157,512.992 646.159,527.186 663.161,541.28 680.163,544.254 697.164,550.261 714.166,574.846 731.168,579.804 748.17,597.441 765.172,598.508 782.174,592.105 799.176,603.786 816.178,598.924 833.18,594.017 850.182,582.112 867.184,557.088 884.186,535.609 901.187,511.143 918.189,473.373 935.191,438.556 952.193,422.263 969.195,396.302 986.197,377.933 1003.2,368.305 1020.2,356.813 1037.2,365.677 1054.2,365.923 1071.21,374.816 1088.21,381.309 1105.21,373.343 1122.21,378.025 1139.21,380.05 1156.22,379.31 1173.22,379.888 1190.22,375.929 1207.22,370.81 1224.22,368.789 1241.23,369.45 1258.23,379.605 1275.23,386.127 1292.23,384.531 1309.23,392.356 1326.24,399.627 1343.24,398.303 1360.24,403.212 1377.24,410.186 1394.24,411.378 1411.24,413.522 1428.25,414.361 1445.25,414.715 1462.25,417.916 1479.25,415.412 1496.25,418.157 1513.26,425.752 1530.26,418.688 1547.26,402.803 1564.26,394.88 1581.26,378.941 1598.27,378.636 1615.27,394.229 1632.27,396.989 1649.27,411.054 1666.27,421.339 1683.28,426.997 1700.28,439.826 1717.28,437.66 1734.28,435.625 1751.28,441.113 1768.29,443.764 1785.29,440.361 1802.29,451.937 1819.29,455.639 1836.29,446.439 1853.29,440.109 1870.3,436.648 1887.3,442.159 1904.3,433.491 "/>
<polyline clip-path="url(#clip782)" style="stroke:#ff7e0d; stroke-linecap:round; stroke-linejoin:round; stroke-width:4; stroke-opacity:0.4; fill:none" points="289.118,355.753 306.12,328.552 323.122,213.443 340.124,114.75 357.126,219.257 374.128,303.3 391.13,404.443 408.132,427.724 425.134,324.027 442.136,315.864 459.138,348.062 476.14,333.839 493.141,341.16 510.143,428.273 527.145,466.119 544.147,471.574 561.149,475.777 578.151,487.256 595.153,490.868 612.155,502.171 629.157,498.26 646.159,497.813 663.161,525.623 680.163,525.698 697.164,521.586 714.166,533.852 731.168,552.569 748.17,567.012 765.172,567.071 782.174,574.8 799.176,583.263 816.178,581.616 833.18,573.086 850.182,564.366 867.184,554.235 884.186,534.409 901.187,512.445 918.189,487.387 935.191,475.107 952.193,447.377 969.195,411.894 986.197,413.903 1003.2,394.545 1020.2,381.632 1037.2,370.299 1054.2,371.948 1071.21,363.961 1088.21,350.781 1105.21,366.336 1122.21,379.064 1139.21,382.097 1156.22,369.86 1173.22,373.148 1190.22,393.233 1207.22,391.75 1224.22,381.33 1241.23,373.218 1258.23,397.221 1275.23,393.779 1292.23,383.572 1309.23,394.519 1326.24,396.232 1343.24,399.445 1360.24,399.988 1377.24,401.39 1394.24,400.393 1411.24,414.313 1428.25,424.194 1445.25,412.509 1462.25,424.894 1479.25,425.218 1496.25,435.736 1513.26,416.165 1530.26,398.06 1547.26,400.882 1564.26,386.779 1581.26,399.326 1598.27,410.578 1615.27,425 1632.27,443.703 1649.27,441.846 1666.27,463.141 1683.28,462.114 1700.28,457.075 1717.28,476.874 1734.28,463.241 1751.28,458.986 1768.29,477.234 1785.29,462.641 1802.29,469.677 1819.29,474.005 1836.29,463.361 1853.29,476.182 1870.3,468.433 1887.3,466.187 1904.3,459.403 "/>
<polyline clip-path="url(#clip782)" style="stroke:#ff7e0d; stroke-linecap:round; stroke-linejoin:round; stroke-width:4; stroke-opacity:0.4; fill:none" points="289.118,383.682 306.12,342.099 323.122,290.001 340.124,246.973 357.126,238.025 374.128,241.332 391.13,273.961 408.132,327.574 425.134,377.83 442.136,423.866 459.138,423.039 476.14,408.573 493.141,448.464 510.143,456.161 527.145,417.778 544.147,427.77 561.149,452.724 578.151,463.906 595.153,487.439 612.155,493.252 629.157,487.331 646.159,497.229 663.161,501.566 680.163,493.709 697.164,495.853 714.166,523.833 731.168,543.389 748.17,522.567 765.172,523.106 782.174,561.732 799.176,565.541 816.178,552.993 833.18,571.433 850.182,590.777 867.184,598.456 884.186,597.4 901.187,584.386 918.189,578.982 935.191,577.551 952.193,567.731 969.195,558.691 986.197,543.847 1003.2,516.392 1020.2,489.428 1037.2,479.898 1054.2,480.671 1071.21,454.813 1088.21,421.09 1105.21,425.987 1122.21,425.098 1139.21,396.359 1156.22,393.95 1173.22,405.751 1190.22,401.521 1207.22,400.685 1224.22,399.605 1241.23,392.458 1258.23,393.316 1275.23,400.352 1292.23,406.833 1309.23,407.441 1326.24,403.11 1343.24,401.24 1360.24,399.385 1377.24,400.246 1394.24,403.932 1411.24,401.06 1428.25,400.862 1445.25,401.559 1462.25,388.443 1479.25,379.736 1496.25,379.116 1513.26,364.405 1530.26,347.574 1547.26,344.216 1564.26,345.847 1581.26,355.508 1598.27,373.021 1615.27,375.509 1632.27,371.647 1649.27,381.751 1666.27,377.467 1683.28,366.816 1700.28,382.424 1717.28,389.918 1734.28,388.987 1751.28,401.257 1768.29,396.714 1785.29,395.27 1802.29,411.906 1819.29,405.753 1836.29,396.722 1853.29,407.653 1870.3,407.364 1887.3,403.903 1904.3,418.56 "/>
</svg>
