<?xml version="1.0" encoding="utf-8"?>
<svg xmlns="http://www.w3.org/2000/svg" xmlns:xlink="http://www.w3.org/1999/xlink" width="500" height="200" viewBox="0 0 2000 800">
<defs>
  <clipPath id="clip470">
    <rect x="0" y="0" width="2000" height="800"/>
  </clipPath>
</defs>
<path clip-path="url(#clip470)" d="M0 800 L2000 800 L2000 -4.44089e-14 L0 -4.44089e-14  Z" fill="#ffffff" fill-rule="evenodd" fill-opacity="1"/>
<defs>
  <clipPath id="clip471">
    <rect x="400" y="0" width="1401" height="800"/>
  </clipPath>
</defs>
<path clip-path="url(#clip470)" d="M240.663 645.868 L1952.76 645.868 L1952.76 99.2801 L240.663 99.2801  Z" fill="#ffffff" fill-rule="evenodd" fill-opacity="1"/>
<defs>
  <clipPath id="clip472">
    <rect x="240" y="99" width="1713" height="548"/>
  </clipPath>
</defs>
<polyline clip-path="url(#clip472)" style="stroke:#000000; stroke-linecap:round; stroke-linejoin:round; stroke-width:2; stroke-opacity:0.1; fill:none" points="272.117,645.868 272.117,99.2801 "/>
<polyline clip-path="url(#clip472)" style="stroke:#000000; stroke-linecap:round; stroke-linejoin:round; stroke-width:2; stroke-opacity:0.1; fill:none" points="612.155,645.868 612.155,99.2801 "/>
<polyline clip-path="url(#clip472)" style="stroke:#000000; stroke-linecap:round; stroke-linejoin:round; stroke-width:2; stroke-opacity:0.1; fill:none" points="952.193,645.868 952.193,99.2801 "/>
<polyline clip-path="url(#clip472)" style="stroke:#000000; stroke-linecap:round; stroke-linejoin:round; stroke-width:2; stroke-opacity:0.1; fill:none" points="1292.23,645.868 1292.23,99.2801 "/>
<polyline clip-path="url(#clip472)" style="stroke:#000000; stroke-linecap:round; stroke-linejoin:round; stroke-width:2; stroke-opacity:0.1; fill:none" points="1632.27,645.868 1632.27,99.2801 "/>
<polyline clip-path="url(#clip472)" style="stroke:#000000; stroke-linecap:round; stroke-linejoin:round; stroke-width:2; stroke-opacity:0.1; fill:none" points="240.663,570.997 1952.76,570.997 "/>
<polyline clip-path="url(#clip472)" style="stroke:#000000; stroke-linecap:round; stroke-linejoin:round; stroke-width:2; stroke-opacity:0.1; fill:none" points="240.663,472.306 1952.76,472.306 "/>
<polyline clip-path="url(#clip472)" style="stroke:#000000; stroke-linecap:round; stroke-linejoin:round; stroke-width:2; stroke-opacity:0.1; fill:none" points="240.663,373.615 1952.76,373.615 "/>
<polyline clip-path="url(#clip472)" style="stroke:#000000; stroke-linecap:round; stroke-linejoin:round; stroke-width:2; stroke-opacity:0.1; fill:none" points="240.663,274.924 1952.76,274.924 "/>
<polyline clip-path="url(#clip472)" style="stroke:#000000; stroke-linecap:round; stroke-linejoin:round; stroke-width:2; stroke-opacity:0.1; fill:none" points="240.663,176.232 1952.76,176.232 "/>
<polyline clip-path="url(#clip470)" style="stroke:#000000; stroke-linecap:round; stroke-linejoin:round; stroke-width:4; stroke-opacity:1; fill:none" points="240.663,645.868 1952.76,645.868 "/>
<polyline clip-path="url(#clip470)" style="stroke:#000000; stroke-linecap:round; stroke-linejoin:round; stroke-width:4; stroke-opacity:1; fill:none" points="272.117,645.868 272.117,626.97 "/>
<polyline clip-path="url(#clip470)" style="stroke:#000000; stroke-linecap:round; stroke-linejoin:round; stroke-width:4; stroke-opacity:1; fill:none" points="612.155,645.868 612.155,626.97 "/>
<polyline clip-path="url(#clip470)" style="stroke:#000000; stroke-linecap:round; stroke-linejoin:round; stroke-width:4; stroke-opacity:1; fill:none" points="952.193,645.868 952.193,626.97 "/>
<polyline clip-path="url(#clip470)" style="stroke:#000000; stroke-linecap:round; stroke-linejoin:round; stroke-width:4; stroke-opacity:1; fill:none" points="1292.23,645.868 1292.23,626.97 "/>
<polyline clip-path="url(#clip470)" style="stroke:#000000; stroke-linecap:round; stroke-linejoin:round; stroke-width:4; stroke-opacity:1; fill:none" points="1632.27,645.868 1632.27,626.97 "/>
<path clip-path="url(#clip470)" d="M272.117 683.84 Q265.346 683.84 261.917 690.524 Q258.532 697.165 258.532 710.533 Q258.532 723.858 261.917 730.542 Q265.346 737.182 272.117 737.182 Q278.931 737.182 282.316 730.542 Q285.745 723.858 285.745 710.533 Q285.745 697.165 282.316 690.524 Q278.931 683.84 272.117 683.84 M272.117 676.896 Q283.011 676.896 288.74 685.533 Q294.512 694.127 294.512 710.533 Q294.512 726.896 288.74 735.533 Q283.011 744.127 272.117 744.127 Q261.223 744.127 255.45 735.533 Q249.721 726.896 249.721 710.533 Q249.721 694.127 255.45 685.533 Q261.223 676.896 272.117 676.896 Z" fill="#000000" fill-rule="nonzero" fill-opacity="1" /><path clip-path="url(#clip470)" d="M572.355 735.489 L602.954 735.489 L602.954 742.868 L561.808 742.868 L561.808 735.489 Q566.799 730.325 575.393 721.644 Q584.03 712.92 586.244 710.403 Q590.454 705.672 592.103 702.417 Q593.796 699.118 593.796 695.95 Q593.796 690.785 590.15 687.53 Q586.547 684.274 580.731 684.274 Q576.608 684.274 572.008 685.707 Q567.45 687.139 562.242 690.047 L562.242 681.193 Q567.537 679.066 572.138 677.981 Q576.738 676.896 580.558 676.896 Q590.627 676.896 596.617 681.931 Q602.606 686.965 602.606 695.385 Q602.606 699.378 601.087 702.981 Q599.612 706.54 595.662 711.401 Q594.577 712.66 588.761 718.693 Q582.945 724.682 572.355 735.489 Z" fill="#000000" fill-rule="nonzero" fill-opacity="1" /><path clip-path="url(#clip470)" d="M640.106 683.84 Q633.335 683.84 629.907 690.524 Q626.521 697.165 626.521 710.533 Q626.521 723.858 629.907 730.542 Q633.335 737.182 640.106 737.182 Q646.92 737.182 650.306 730.542 Q653.735 723.858 653.735 710.533 Q653.735 697.165 650.306 690.524 Q646.92 683.84 640.106 683.84 M640.106 676.896 Q651 676.896 656.729 685.533 Q662.502 694.127 662.502 710.533 Q662.502 726.896 656.729 735.533 Q651 744.127 640.106 744.127 Q629.212 744.127 623.44 735.533 Q617.71 726.896 617.71 710.533 Q617.71 694.127 623.44 685.533 Q629.212 676.896 640.106 676.896 Z" fill="#000000" fill-rule="nonzero" fill-opacity="1" /><path clip-path="url(#clip470)" d="M930.014 685.707 L907.879 720.299 L930.014 720.299 L930.014 685.707 M927.714 678.068 L938.738 678.068 L938.738 720.299 L947.983 720.299 L947.983 727.59 L938.738 727.59 L938.738 742.868 L930.014 742.868 L930.014 727.59 L900.761 727.59 L900.761 719.127 L927.714 678.068 Z" fill="#000000" fill-rule="nonzero" fill-opacity="1" /><path clip-path="url(#clip470)" d="M981.229 683.84 Q974.459 683.84 971.03 690.524 Q967.644 697.165 967.644 710.533 Q967.644 723.858 971.03 730.542 Q974.459 737.182 981.229 737.182 Q988.044 737.182 991.429 730.542 Q994.858 723.858 994.858 710.533 Q994.858 697.165 991.429 690.524 Q988.044 683.84 981.229 683.84 M981.229 676.896 Q992.124 676.896 997.853 685.533 Q1003.63 694.127 1003.63 710.533 Q1003.63 726.896 997.853 735.533 Q992.124 744.127 981.229 744.127 Q970.335 744.127 964.563 735.533 Q958.834 726.896 958.834 710.533 Q958.834 694.127 964.563 685.533 Q970.335 676.896 981.229 676.896 Z" fill="#000000" fill-rule="nonzero" fill-opacity="1" /><path clip-path="url(#clip470)" d="M1264.87 706.974 Q1258.96 706.974 1255.49 711.01 Q1252.06 715.047 1252.06 722.078 Q1252.06 729.066 1255.49 733.146 Q1258.96 737.182 1264.87 737.182 Q1270.77 737.182 1274.2 733.146 Q1277.67 729.066 1277.67 722.078 Q1277.67 715.047 1274.2 711.01 Q1270.77 706.974 1264.87 706.974 M1282.27 679.5 L1282.27 687.486 Q1278.97 685.924 1275.59 685.099 Q1272.24 684.274 1268.95 684.274 Q1260.27 684.274 1255.66 690.134 Q1251.11 695.993 1250.46 707.842 Q1253.02 704.066 1256.88 702.069 Q1260.74 700.03 1265.39 700.03 Q1275.15 700.03 1280.79 705.976 Q1286.48 711.878 1286.48 722.078 Q1286.48 732.061 1280.58 738.094 Q1274.68 744.127 1264.87 744.127 Q1253.62 744.127 1247.68 735.533 Q1241.73 726.896 1241.73 710.533 Q1241.73 695.168 1249.02 686.054 Q1256.32 676.896 1268.6 676.896 Q1271.9 676.896 1275.24 677.547 Q1278.62 678.198 1282.27 679.5 Z" fill="#000000" fill-rule="nonzero" fill-opacity="1" /><path clip-path="url(#clip470)" d="M1320.33 683.84 Q1313.56 683.84 1310.14 690.524 Q1306.75 697.165 1306.75 710.533 Q1306.75 723.858 1310.14 730.542 Q1313.56 737.182 1320.33 737.182 Q1327.15 737.182 1330.53 730.542 Q1333.96 723.858 1333.96 710.533 Q1333.96 697.165 1330.53 690.524 Q1327.15 683.84 1320.33 683.84 M1320.33 676.896 Q1331.23 676.896 1336.96 685.533 Q1342.73 694.127 1342.73 710.533 Q1342.73 726.896 1336.96 735.533 Q1331.23 744.127 1320.33 744.127 Q1309.44 744.127 1303.67 735.533 Q1297.94 726.896 1297.94 710.533 Q1297.94 694.127 1303.67 685.533 Q1309.44 676.896 1320.33 676.896 Z" fill="#000000" fill-rule="nonzero" fill-opacity="1" /><path clip-path="url(#clip470)" d="M1603.91 712.095 Q1597.66 712.095 1594.05 715.437 Q1590.49 718.779 1590.49 724.639 Q1590.49 730.498 1594.05 733.84 Q1597.66 737.182 1603.91 737.182 Q1610.16 737.182 1613.76 733.84 Q1617.36 730.455 1617.36 724.639 Q1617.36 718.779 1613.76 715.437 Q1610.2 712.095 1603.91 712.095 M1595.14 708.363 Q1589.5 706.974 1586.33 703.111 Q1583.2 699.248 1583.2 693.693 Q1583.2 685.924 1588.72 681.41 Q1594.27 676.896 1603.91 676.896 Q1613.59 676.896 1619.1 681.41 Q1624.61 685.924 1624.61 693.693 Q1624.61 699.248 1621.44 703.111 Q1618.32 706.974 1612.72 708.363 Q1619.05 709.839 1622.57 714.135 Q1626.13 718.432 1626.13 724.639 Q1626.13 734.057 1620.36 739.092 Q1614.63 744.127 1603.91 744.127 Q1593.19 744.127 1587.41 739.092 Q1581.68 734.057 1581.68 724.639 Q1581.68 718.432 1585.24 714.135 Q1588.8 709.839 1595.14 708.363 M1591.93 694.517 Q1591.93 699.552 1595.05 702.373 Q1598.22 705.194 1603.91 705.194 Q1609.55 705.194 1612.72 702.373 Q1615.93 699.552 1615.93 694.517 Q1615.93 689.483 1612.72 686.662 Q1609.55 683.84 1603.91 683.84 Q1598.22 683.84 1595.05 686.662 Q1591.93 689.483 1591.93 694.517 Z" fill="#000000" fill-rule="nonzero" fill-opacity="1" /><path clip-path="url(#clip470)" d="M1660.46 683.84 Q1653.69 683.84 1650.26 690.524 Q1646.87 697.165 1646.87 710.533 Q1646.87 723.858 1650.26 730.542 Q1653.69 737.182 1660.46 737.182 Q1667.27 737.182 1670.66 730.542 Q1674.09 723.858 1674.09 710.533 Q1674.09 697.165 1670.66 690.524 Q1667.27 683.84 1660.46 683.84 M1660.46 676.896 Q1671.35 676.896 1677.08 685.533 Q1682.86 694.127 1682.86 710.533 Q1682.86 726.896 1677.08 735.533 Q1671.35 744.127 1660.46 744.127 Q1649.57 744.127 1643.79 735.533 Q1638.06 726.896 1638.06 710.533 Q1638.06 694.127 1643.79 685.533 Q1649.57 676.896 1660.46 676.896 Z" fill="#000000" fill-rule="nonzero" fill-opacity="1" /><path clip-path="url(#clip470)" d="M1095.77 784.322 L1095.77 794.444 L1107.83 794.444 L1107.83 798.995 L1095.77 798.995 L1095.77 818.347 Q1095.77 822.708 1096.95 823.949 Q1098.16 825.19 1101.82 825.19 L1107.83 825.19 L1107.83 830.092 L1101.82 830.092 Q1095.04 830.092 1092.46 827.577 Q1089.88 825.031 1089.88 818.347 L1089.88 798.995 L1085.59 798.995 L1085.59 794.444 L1089.88 794.444 L1089.88 784.322 L1095.77 784.322 Z" fill="#000000" fill-rule="nonzero" fill-opacity="1" /><polyline clip-path="url(#clip470)" style="stroke:#000000; stroke-linecap:round; stroke-linejoin:round; stroke-width:4; stroke-opacity:1; fill:none" points="240.663,645.868 240.663,99.2801 "/>
<polyline clip-path="url(#clip470)" style="stroke:#000000; stroke-linecap:round; stroke-linejoin:round; stroke-width:4; stroke-opacity:1; fill:none" points="240.663,570.997 259.561,570.997 "/>
<polyline clip-path="url(#clip470)" style="stroke:#000000; stroke-linecap:round; stroke-linejoin:round; stroke-width:4; stroke-opacity:1; fill:none" points="240.663,472.306 259.561,472.306 "/>
<polyline clip-path="url(#clip470)" style="stroke:#000000; stroke-linecap:round; stroke-linejoin:round; stroke-width:4; stroke-opacity:1; fill:none" points="240.663,373.615 259.561,373.615 "/>
<polyline clip-path="url(#clip470)" style="stroke:#000000; stroke-linecap:round; stroke-linejoin:round; stroke-width:4; stroke-opacity:1; fill:none" points="240.663,274.924 259.561,274.924 "/>
<polyline clip-path="url(#clip470)" style="stroke:#000000; stroke-linecap:round; stroke-linejoin:round; stroke-width:4; stroke-opacity:1; fill:none" points="240.663,176.232 259.561,176.232 "/>
<path clip-path="url(#clip470)" d="M97.9466 571.843 L153.589 571.843 L153.589 579.221 L97.9466 579.221 L97.9466 571.843 Z" fill="#000000" fill-rule="nonzero" fill-opacity="1" /><path clip-path="url(#clip470)" d="M180.064 596.018 L210.663 596.018 L210.663 603.397 L169.517 603.397 L169.517 596.018 Q174.509 590.853 183.102 582.173 Q191.739 573.449 193.953 570.932 Q198.163 566.201 199.812 562.945 Q201.505 559.647 201.505 556.479 Q201.505 551.314 197.859 548.058 Q194.257 544.803 188.441 544.803 Q184.318 544.803 179.717 546.236 Q175.16 547.668 169.951 550.576 L169.951 541.722 Q175.247 539.595 179.847 538.51 Q184.448 537.425 188.267 537.425 Q198.337 537.425 204.326 542.459 Q210.316 547.494 210.316 555.914 Q210.316 559.907 208.797 563.51 Q207.321 567.069 203.371 571.93 Q202.286 573.188 196.47 579.221 Q190.654 585.211 180.064 596.018 Z" fill="#000000" fill-rule="nonzero" fill-opacity="1" /><path clip-path="url(#clip470)" d="M97.2522 473.152 L152.894 473.152 L152.894 480.53 L97.2522 480.53 L97.2522 473.152 Z" fill="#000000" fill-rule="nonzero" fill-opacity="1" /><path clip-path="url(#clip470)" d="M173.337 497.327 L187.66 497.327 L187.66 447.892 L172.078 451.017 L172.078 443.031 L187.573 439.906 L196.34 439.906 L196.34 497.327 L210.663 497.327 L210.663 504.706 L173.337 504.706 L173.337 497.327 Z" fill="#000000" fill-rule="nonzero" fill-opacity="1" /><path clip-path="url(#clip470)" d="M188.267 346.987 Q181.496 346.987 178.068 353.671 Q174.682 360.312 174.682 373.68 Q174.682 387.004 178.068 393.688 Q181.496 400.329 188.267 400.329 Q195.081 400.329 198.467 393.688 Q201.896 387.004 201.896 373.68 Q201.896 360.312 198.467 353.671 Q195.081 346.987 188.267 346.987 M188.267 340.043 Q199.161 340.043 204.89 348.68 Q210.663 357.274 210.663 373.68 Q210.663 390.042 204.89 398.68 Q199.161 407.273 188.267 407.273 Q177.373 407.273 171.601 398.68 Q165.872 390.042 165.872 373.68 Q165.872 357.274 171.601 348.68 Q177.373 340.043 188.267 340.043 Z" fill="#000000" fill-rule="nonzero" fill-opacity="1" /><path clip-path="url(#clip470)" d="M173.337 299.945 L187.66 299.945 L187.66 250.51 L172.078 253.635 L172.078 245.649 L187.573 242.524 L196.34 242.524 L196.34 299.945 L210.663 299.945 L210.663 307.324 L173.337 307.324 L173.337 299.945 Z" fill="#000000" fill-rule="nonzero" fill-opacity="1" /><path clip-path="url(#clip470)" d="M180.064 201.254 L210.663 201.254 L210.663 208.632 L169.517 208.632 L169.517 201.254 Q174.509 196.089 183.102 187.409 Q191.739 178.685 193.953 176.167 Q198.163 171.437 199.812 168.181 Q201.505 164.883 201.505 161.714 Q201.505 156.549 197.859 153.294 Q194.257 150.039 188.441 150.039 Q184.318 150.039 179.717 151.471 Q175.16 152.904 169.951 155.812 L169.951 146.957 Q175.247 144.831 179.847 143.746 Q184.448 142.661 188.267 142.661 Q198.337 142.661 204.326 147.695 Q210.316 152.73 210.316 161.15 Q210.316 165.143 208.797 168.746 Q207.321 172.305 203.371 177.166 Q202.286 178.424 196.47 184.457 Q190.654 190.447 180.064 201.254 Z" fill="#000000" fill-rule="nonzero" fill-opacity="1" /><path clip-path="url(#clip470)" d="M17.3482 355.959 L34.6948 368.85 L52.9962 355.291 L52.9962 362.198 L38.9916 372.574 L52.9962 382.95 L52.9962 389.857 L34.3446 376.011 L17.3482 388.679 L17.3482 381.772 L30.0478 372.319 L17.3482 362.866 L17.3482 355.959 Z" fill="#000000" fill-rule="nonzero" fill-opacity="1" /><path clip-path="url(#clip470)" d="M928.577 20.1573 L917.477 50.2555 L939.717 50.2555 L928.577 20.1573 M923.959 12.096 L933.235 12.096 L956.285 72.576 L947.778 72.576 L942.269 57.061 L915.006 57.061 L909.497 72.576 L900.868 72.576 L923.959 12.096 Z" fill="#000000" fill-rule="nonzero" fill-opacity="1" /><path clip-path="url(#clip470)" d="M997.361 49.9314 Q997.361 41.7081 993.958 37.0496 Q990.596 32.3505 984.682 32.3505 Q978.767 32.3505 975.365 37.0496 Q972.002 41.7081 972.002 49.9314 Q972.002 58.1548 975.365 62.8538 Q978.767 67.5124 984.682 67.5124 Q990.596 67.5124 993.958 62.8538 Q997.361 58.1548 997.361 49.9314 M972.002 34.0924 Q974.352 30.0415 977.917 28.0971 Q981.522 26.1121 986.505 26.1121 Q994.768 26.1121 999.913 32.6746 Q1005.1 39.2371 1005.1 49.9314 Q1005.1 60.6258 999.913 67.1883 Q994.768 73.7508 986.505 73.7508 Q981.522 73.7508 977.917 71.8063 Q974.352 69.8214 972.002 65.7705 L972.002 72.576 L964.508 72.576 L964.508 9.54393 L972.002 9.54393 L972.002 34.0924 Z" fill="#000000" fill-rule="nonzero" fill-opacity="1" /><path clip-path="url(#clip470)" d="M1055.17 45.1919 L1055.17 72.576 L1047.71 72.576 L1047.71 45.4349 Q1047.71 38.994 1045.2 35.7938 Q1042.69 32.5936 1037.67 32.5936 Q1031.63 32.5936 1028.15 36.4419 Q1024.66 40.2903 1024.66 46.9338 L1024.66 72.576 L1017.17 72.576 L1017.17 27.2059 L1024.66 27.2059 L1024.66 34.2544 Q1027.34 30.163 1030.94 28.1376 Q1034.59 26.1121 1039.33 26.1121 Q1047.15 26.1121 1051.16 30.9732 Q1055.17 35.7938 1055.17 45.1919 Z" fill="#000000" fill-rule="nonzero" fill-opacity="1" /><path clip-path="url(#clip470)" d="M1087.62 32.4315 Q1081.62 32.4315 1078.14 37.1306 Q1074.65 41.7891 1074.65 49.9314 Q1074.65 58.0738 1078.1 62.7728 Q1081.58 67.4314 1087.62 67.4314 Q1093.57 67.4314 1097.05 62.7323 Q1100.54 58.0333 1100.54 49.9314 Q1100.54 41.8701 1097.05 37.1711 Q1093.57 32.4315 1087.62 32.4315 M1087.62 26.1121 Q1097.34 26.1121 1102.89 32.4315 Q1108.44 38.7509 1108.44 49.9314 Q1108.44 61.0714 1102.89 67.4314 Q1097.34 73.7508 1087.62 73.7508 Q1077.85 73.7508 1072.3 67.4314 Q1066.79 61.0714 1066.79 49.9314 Q1066.79 38.7509 1072.3 32.4315 Q1077.85 26.1121 1087.62 26.1121 Z" fill="#000000" fill-rule="nonzero" fill-opacity="1" /><path clip-path="url(#clip470)" d="M1147.08 34.1734 Q1145.83 33.4443 1144.33 33.1202 Q1142.87 32.7556 1141.09 32.7556 Q1134.77 32.7556 1131.36 36.8875 Q1128 40.9789 1128 48.6757 L1128 72.576 L1120.51 72.576 L1120.51 27.2059 L1128 27.2059 L1128 34.2544 Q1130.35 30.1225 1134.12 28.1376 Q1137.89 26.1121 1143.27 26.1121 Q1144.04 26.1121 1144.98 26.2337 Q1145.91 26.3147 1147.04 26.5172 L1147.08 34.1734 Z" fill="#000000" fill-rule="nonzero" fill-opacity="1" /><path clip-path="url(#clip470)" d="M1188.77 35.9153 Q1191.56 30.8922 1195.45 28.5022 Q1199.34 26.1121 1204.61 26.1121 Q1211.69 26.1121 1215.54 31.0947 Q1219.39 36.0368 1219.39 45.1919 L1219.39 72.576 L1211.9 72.576 L1211.9 45.4349 Q1211.9 38.913 1209.59 35.7533 Q1207.28 32.5936 1202.54 32.5936 Q1196.75 32.5936 1193.38 36.4419 Q1190.02 40.2903 1190.02 46.9338 L1190.02 72.576 L1182.53 72.576 L1182.53 45.4349 Q1182.53 38.8725 1180.22 35.7533 Q1177.91 32.5936 1173.09 32.5936 Q1167.38 32.5936 1164.02 36.4824 Q1160.65 40.3308 1160.65 46.9338 L1160.65 72.576 L1153.16 72.576 L1153.16 27.2059 L1160.65 27.2059 L1160.65 34.2544 Q1163.21 30.082 1166.77 28.0971 Q1170.33 26.1121 1175.24 26.1121 Q1180.18 26.1121 1183.62 28.6237 Q1187.11 31.1352 1188.77 35.9153 Z" fill="#000000" fill-rule="nonzero" fill-opacity="1" /><path clip-path="url(#clip470)" d="M1254.88 49.7694 Q1245.84 49.7694 1242.36 51.8354 Q1238.88 53.9013 1238.88 58.8839 Q1238.88 62.8538 1241.47 65.2034 Q1244.1 67.5124 1248.6 67.5124 Q1254.8 67.5124 1258.52 63.1374 Q1262.29 58.7219 1262.29 51.4303 L1262.29 49.7694 L1254.88 49.7694 M1269.74 46.6907 L1269.74 72.576 L1262.29 72.576 L1262.29 65.6895 Q1259.74 69.8214 1255.93 71.8063 Q1252.12 73.7508 1246.61 73.7508 Q1239.65 73.7508 1235.51 69.8619 Q1231.42 65.9325 1231.42 59.3701 Q1231.42 51.7138 1236.53 47.825 Q1241.67 43.9361 1251.84 43.9361 L1262.29 43.9361 L1262.29 43.2069 Q1262.29 38.0623 1258.89 35.2672 Q1255.53 32.4315 1249.41 32.4315 Q1245.52 32.4315 1241.83 33.3632 Q1238.15 34.295 1234.74 36.1584 L1234.74 29.2718 Q1238.84 27.692 1242.68 26.9223 Q1246.53 26.1121 1250.18 26.1121 Q1260.02 26.1121 1264.88 31.2163 Q1269.74 36.3204 1269.74 46.6907 Z" fill="#000000" fill-rule="nonzero" fill-opacity="1" /><path clip-path="url(#clip470)" d="M1285.1 9.54393 L1292.55 9.54393 L1292.55 72.576 L1285.1 72.576 L1285.1 9.54393 Z" fill="#000000" fill-rule="nonzero" fill-opacity="1" /><polyline clip-path="url(#clip472)" style="stroke:#1f77b4; stroke-linecap:round; stroke-linejoin:round; stroke-width:4; stroke-opacity:0.4; fill:none" points="289.118,355.107 306.12,400.916 323.122,404.091 340.124,400.344 357.126,445.723 374.128,391.25 391.13,413.502 408.132,503.436 425.134,477.172 442.136,489.331 459.138,494.537 476.14,498.597 493.141,529.345 510.143,523.493 527.145,533.729 544.147,550.182 561.149,538.759 578.151,566.909 595.153,587.856 612.155,560.513 629.157,582.69 646.159,585.687 663.161,580.084 680.163,562.823 697.164,509.746 714.166,511.267 731.168,494.466 748.17,443.062 765.172,424.519 782.174,410.149 799.176,374.398 816.178,379.595 833.18,368.767 850.182,349.627 867.184,355.891 884.186,336.336 901.187,360.547 918.189,361.497 935.191,315.697 952.193,330.704 969.195,346.241 986.197,335.04 1003.2,331.421 1020.2,320.193 1037.2,317.614 1054.2,311.041 1071.21,313.388 1088.21,314.155 1105.21,324.197 1122.21,313.457 1139.21,302.921 1156.22,307.959 1173.22,304.494 1190.22,339.302 1207.22,328.364 1224.22,300.678 1241.23,321.938 1258.23,322.78 1275.23,332.393 1292.23,343.81 1309.23,328.488 1326.24,345.133 1343.24,358.558 1360.24,357.265 1377.24,351.706 1394.24,338.543 1411.24,339.047 1428.25,350.155 1445.25,344.676 1462.25,322.001 1479.25,312.248 1496.25,315.9 1513.26,309.017 1530.26,295.223 1547.26,290.087 1564.26,322.916 1581.26,347.376 1598.27,336.041 1615.27,342.218 1632.27,338.997 1649.27,329.845 1666.27,335.278 1683.28,322.736 1700.28,356.336 1717.28,364.99 1734.28,332.558 1751.28,341.377 1768.29,333.968 1785.29,305.407 1802.29,227.505 1819.29,154.396 1836.29,114.75 1853.29,118.085 1870.3,182.605 1887.3,291.233 1904.3,376.608 "/>
<polyline clip-path="url(#clip472)" style="stroke:#1f77b4; stroke-linecap:round; stroke-linejoin:round; stroke-width:4; stroke-opacity:0.4; fill:none" points="289.118,323.409 306.12,293.706 323.122,220.366 340.124,178.04 357.126,213.307 374.128,239.116 391.13,234.249 408.132,277.511 425.134,354.499 442.136,399.646 459.138,406.819 476.14,392.252 493.141,386.725 510.143,406.836 527.145,415.561 544.147,402.231 561.149,403.121 578.151,419.747 595.153,430.658 612.155,442.651 629.157,458.67 646.159,459.086 663.161,450.111 680.163,456.297 697.164,461.67 714.166,455.268 731.168,466.137 748.17,481.053 765.172,471.384 782.174,468.599 799.176,483.637 816.178,490.668 833.18,499.749 850.182,509.481 867.184,504.154 884.186,511.277 901.187,535.324 918.189,539.104 935.191,526.23 952.193,521.11 969.195,515.892 986.197,506.122 1003.2,504.312 1020.2,501.713 1037.2,486.963 1054.2,477.176 1071.21,470.528 1088.21,441.891 1105.21,416.445 1122.21,430.3 1139.21,436.679 1156.22,385.433 1173.22,338.95 1190.22,355.295 1207.22,363.466 1224.22,325.65 1241.23,316.959 1258.23,333.746 1275.23,320.861 1292.23,315.707 1309.23,322.116 1326.24,302.384 1343.24,306.025 1360.24,338.915 1377.24,330.462 1394.24,303.065 1411.24,305.318 1428.25,313.702 1445.25,314.004 1462.25,309.195 1479.25,302.049 1496.25,305.784 1513.26,302.734 1530.26,287.211 1547.26,290.273 1564.26,289.812 1581.26,259.609 1598.27,248.312 1615.27,265.261 1632.27,257.212 1649.27,235.631 1666.27,238.126 1683.28,227.716 1700.28,196.293 1717.28,231.665 1734.28,305.269 1751.28,281.741 1768.29,225.85 1785.29,255.515 1802.29,289.026 1819.29,304.026 1836.29,360.023 1853.29,406.438 1870.3,469.423 1887.3,557.408 1904.3,495.855 "/>
<polyline clip-path="url(#clip472)" style="stroke:#1f77b4; stroke-linecap:round; stroke-linejoin:round; stroke-width:4; stroke-opacity:0.4; fill:none" points="289.118,327.488 306.12,340.049 323.122,338.936 340.124,293.686 357.126,245.965 374.128,202.53 391.13,160.156 408.132,162.269 425.134,209.638 442.136,263.017 459.138,328.43 476.14,391.184 493.141,395.844 510.143,370.406 527.145,385.148 544.147,414.563 561.149,408.787 578.151,398.385 595.153,409.85 612.155,407.049 629.157,381.693 646.159,385.559 663.161,431.552 680.163,461.146 697.164,449.922 714.166,443.011 731.168,459.494 748.17,471.241 765.172,475.426 782.174,491.127 799.176,506.894 816.178,503.425 833.18,492.773 850.182,491.967 867.184,497.166 884.186,509.87 901.187,539.12 918.189,562.426 935.191,551.661 952.193,535.327 969.195,551.518 986.197,570.676 1003.2,552.921 1020.2,522.914 1037.2,518.084 1054.2,527.509 1071.21,524.011 1088.21,505.564 1105.21,483.176 1122.21,462.361 1139.21,446.182 1156.22,434.917 1173.22,418.916 1190.22,392.608 1207.22,368.205 1224.22,353.454 1241.23,341.64 1258.23,333.089 1275.23,329.031 1292.23,318.929 1309.23,303.368 1326.24,296.722 1343.24,298.228 1360.24,296.859 1377.24,292.907 1394.24,289.45 1411.24,287.874 1428.25,292.567 1445.25,297.18 1462.25,292.853 1479.25,290.749 1496.25,295.836 1513.26,291.774 1530.26,284.19 1547.26,295.663 1564.26,315.171 1581.26,323.246 1598.27,325.448 1615.27,318.821 1632.27,298.319 1649.27,283.87 1666.27,278.686 1683.28,271.664 1700.28,285.262 1717.28,320.022 1734.28,325.844 1751.28,306.837 1768.29,314.902 1785.29,328.808 1802.29,302.384 1819.29,276.556 1836.29,299.448 1853.29,324.498 1870.3,302.569 1887.3,283.666 1904.3,324.874 "/>
<polyline clip-path="url(#clip472)" style="stroke:#1f77b4; stroke-linecap:round; stroke-linejoin:round; stroke-width:4; stroke-opacity:0.4; fill:none" points="289.118,321.662 306.12,274.144 323.122,196.968 340.124,140.9 357.126,146.48 374.128,167.644 391.13,179.434 408.132,224.191 425.134,299.552 442.136,362.226 459.138,396.1 476.14,393.463 493.141,373.476 510.143,382.536 527.145,409.488 544.147,416.54 561.149,415.226 578.151,411.502 595.153,397.665 612.155,402.561 629.157,432.728 646.159,451.817 663.161,452.016 680.163,446.866 697.164,442.759 714.166,456.659 731.168,483.314 748.17,490.989 765.172,489.288 782.174,505.09 799.176,522.891 816.178,527.614 833.18,534.429 850.182,546.682 867.184,552.767 884.186,552.955 901.187,553.071 918.189,554.291 935.191,552.251 952.193,541.301 969.195,526.168 986.197,517.374 1003.2,515.389 1020.2,512.72 1037.2,498.144 1054.2,463.859 1071.21,425.583 1088.21,412.74 1105.21,423.105 1122.21,418.054 1139.21,386.589 1156.22,366.737 1173.22,369.168 1190.22,361.294 1207.22,347.664 1224.22,349.651 1241.23,343.117 1258.23,328.297 1275.23,344.111 1292.23,364.079 1309.23,341.929 1326.24,319.218 1343.24,338.474 1360.24,354.334 1377.24,332.63 1394.24,317.074 1411.24,332.981 1428.25,340.982 1445.25,328.858 1462.25,328.351 1479.25,334.254 1496.25,324.86 1513.26,313.644 1530.26,311.252 1547.26,314.87 1564.26,321.037 1581.26,313.962 1598.27,305.725 1615.27,319.721 1632.27,316.36 1649.27,280.791 1666.27,273.199 1683.28,285.907 1700.28,272.057 1717.28,271.061 1734.28,296.747 1751.28,296.679 1768.29,289.608 1785.29,308.522 1802.29,311.313 1819.29,291.621 1836.29,291.988 1853.29,300.592 1870.3,292.284 1887.3,293.977 1904.3,324.757 "/>
<polyline clip-path="url(#clip472)" style="stroke:#1f77b4; stroke-linecap:round; stroke-linejoin:round; stroke-width:4; stroke-opacity:0.4; fill:none" points="289.118,172.157 306.12,174.102 323.122,183.546 340.124,143.234 357.126,257.764 374.128,418.277 391.13,445.47 408.132,469.628 425.134,485.436 442.136,502.741 459.138,514.438 476.14,509.591 493.141,521.123 510.143,535.385 527.145,536.529 544.147,535.184 561.149,546.082 578.151,550.842 595.153,560.373 612.155,557.406 629.157,574.103 646.159,572.791 663.161,559.339 680.163,559.037 697.164,541.601 714.166,535.362 731.168,508.876 748.17,479.661 765.172,450.177 782.174,405.768 799.176,363.155 816.178,332.18 833.18,318.564 850.182,308.308 867.184,300.381 884.186,297.741 901.187,286.003 918.189,281.771 935.191,285.504 952.193,292.108 969.195,303.225 986.197,310.959 1003.2,316.235 1020.2,318.485 1037.2,322.406 1054.2,319.707 1071.21,327.943 1088.21,335.411 1105.21,324.412 1122.21,328.365 1139.21,335.779 1156.22,327.976 1173.22,322.169 1190.22,320.036 1207.22,304.092 1224.22,293.589 1241.23,290.587 1258.23,289.485 1275.23,305.411 1292.23,299.856 1309.23,295.386 1326.24,292.205 1343.24,301.219 1360.24,320.103 1377.24,330.201 1394.24,356.029 1411.24,366.911 1428.25,377.807 1445.25,374.285 1462.25,372.129 1479.25,378.452 1496.25,382.961 1513.26,384.867 1530.26,373.729 1547.26,381.89 1564.26,382.888 1581.26,381.386 1598.27,373.595 1615.27,382.271 1632.27,382.837 1649.27,379.309 1666.27,379.577 1683.28,379.261 1700.28,385.104 1717.28,376.074 1734.28,364.84 1751.28,362.237 1768.29,367.036 1785.29,363.355 1802.29,350.05 1819.29,343.395 1836.29,340.299 1853.29,299.077 1870.3,287.957 1887.3,290.888 1904.3,239.525 "/>
<polyline clip-path="url(#clip472)" style="stroke:#1f77b4; stroke-linecap:round; stroke-linejoin:round; stroke-width:4; stroke-opacity:0.4; fill:none" points="289.118,309.294 306.12,251.53 323.122,165.431 340.124,232.245 357.126,295.974 374.128,418.959 391.13,409.469 408.132,428.637 425.134,491.643 442.136,455.032 459.138,451.202 476.14,494.875 493.141,503.943 510.143,510.114 527.145,503.266 544.147,502.791 561.149,521.181 578.151,537.887 595.153,537.249 612.155,551.758 629.157,562.384 646.159,603.511 663.161,621.283 680.163,614.08 697.164,595.892 714.166,630.398 731.168,548.713 748.17,538.239 765.172,527.563 782.174,438.798 799.176,459.844 816.178,408.01 833.18,380.52 850.182,388.643 867.184,384.457 884.186,341.243 901.187,352.702 918.189,374.347 935.191,335.346 952.193,359.788 969.195,352.865 986.197,341.774 1003.2,329.675 1020.2,335.413 1037.2,326.35 1054.2,312.32 1071.21,316.451 1088.21,304.569 1105.21,283.144 1122.21,305.482 1139.21,295.779 1156.22,287.131 1173.22,291.588 1190.22,294.82 1207.22,299.702 1224.22,319.28 1241.23,318.028 1258.23,276.776 1275.23,328.152 1292.23,311.992 1309.23,311.499 1326.24,309.468 1343.24,336.913 1360.24,305.437 1377.24,323.304 1394.24,316.506 1411.24,329.299 1428.25,324.101 1445.25,319.19 1462.25,322.445 1479.25,327.096 1496.25,315.302 1513.26,321.755 1530.26,317.647 1547.26,314.316 1564.26,314.403 1581.26,336.909 1598.27,296.684 1615.27,293.358 1632.27,292.967 1649.27,289.018 1666.27,316.53 1683.28,295.076 1700.28,334.32 1717.28,327.568 1734.28,322.551 1751.28,338.967 1768.29,340.094 1785.29,346.223 1802.29,307.499 1819.29,334.96 1836.29,323.61 1853.29,383.738 1870.3,344.74 1887.3,328.815 1904.3,335.156 "/>
<polyline clip-path="url(#clip472)" style="stroke:#1f77b4; stroke-linecap:round; stroke-linejoin:round; stroke-width:4; stroke-opacity:0.4; fill:none" points="289.118,309.294 306.12,251.53 323.122,165.431 340.124,232.245 357.126,295.974 374.128,418.959 391.13,409.469 408.132,428.637 425.134,491.643 442.136,455.032 459.138,451.202 476.14,494.875 493.141,503.943 510.143,510.114 527.145,503.266 544.147,502.791 561.149,521.181 578.151,537.887 595.153,537.249 612.155,551.758 629.157,562.384 646.159,603.511 663.161,621.283 680.163,614.08 697.164,595.892 714.166,630.398 731.168,548.713 748.17,538.239 765.172,527.563 782.174,438.798 799.176,459.844 816.178,408.01 833.18,380.52 850.182,388.643 867.184,384.457 884.186,341.243 901.187,352.702 918.189,374.347 935.191,335.346 952.193,359.788 969.195,352.865 986.197,341.774 1003.2,329.675 1020.2,335.413 1037.2,326.35 1054.2,312.32 1071.21,316.451 1088.21,304.569 1105.21,283.144 1122.21,305.482 1139.21,295.779 1156.22,287.131 1173.22,291.588 1190.22,294.82 1207.22,299.702 1224.22,319.28 1241.23,318.028 1258.23,276.776 1275.23,328.152 1292.23,311.992 1309.23,311.499 1326.24,309.468 1343.24,336.913 1360.24,305.437 1377.24,323.304 1394.24,316.506 1411.24,329.299 1428.25,324.101 1445.25,319.19 1462.25,322.445 1479.25,327.096 1496.25,315.302 1513.26,321.755 1530.26,317.647 1547.26,314.316 1564.26,314.403 1581.26,336.909 1598.27,296.684 1615.27,293.358 1632.27,292.967 1649.27,289.018 1666.27,316.53 1683.28,295.076 1700.28,334.32 1717.28,327.568 1734.28,322.551 1751.28,338.967 1768.29,340.094 1785.29,346.223 1802.29,307.499 1819.29,334.96 1836.29,323.61 1853.29,383.738 1870.3,344.74 1887.3,328.815 1904.3,335.156 "/>
</svg>
