<?xml version="1.0" encoding="utf-8"?>
<svg xmlns="http://www.w3.org/2000/svg" xmlns:xlink="http://www.w3.org/1999/xlink" width="500" height="200" viewBox="0 0 2000 800">
<defs>
  <clipPath id="clip180">
    <rect x="0" y="0" width="2000" height="800"/>
  </clipPath>
</defs>
<path clip-path="url(#clip180)" d="M0 800 L2000 800 L2000 -4.44089e-14 L0 -4.44089e-14  Z" fill="#ffffff" fill-rule="evenodd" fill-opacity="1"/>
<defs>
  <clipPath id="clip181">
    <rect x="400" y="0" width="1401" height="800"/>
  </clipPath>
</defs>
<path clip-path="url(#clip180)" d="M240.663 645.868 L1952.76 645.868 L1952.76 99.2801 L240.663 99.2801  Z" fill="#ffffff" fill-rule="evenodd" fill-opacity="1"/>
<defs>
  <clipPath id="clip182">
    <rect x="240" y="99" width="1713" height="548"/>
  </clipPath>
</defs>
<polyline clip-path="url(#clip182)" style="stroke:#000000; stroke-linecap:round; stroke-linejoin:round; stroke-width:2; stroke-opacity:0.1; fill:none" points="570.02,645.868 570.02,99.2801 "/>
<polyline clip-path="url(#clip182)" style="stroke:#000000; stroke-linecap:round; stroke-linejoin:round; stroke-width:2; stroke-opacity:0.1; fill:none" points="921.146,645.868 921.146,99.2801 "/>
<polyline clip-path="url(#clip182)" style="stroke:#000000; stroke-linecap:round; stroke-linejoin:round; stroke-width:2; stroke-opacity:0.1; fill:none" points="1272.27,645.868 1272.27,99.2801 "/>
<polyline clip-path="url(#clip182)" style="stroke:#000000; stroke-linecap:round; stroke-linejoin:round; stroke-width:2; stroke-opacity:0.1; fill:none" points="1623.4,645.868 1623.4,99.2801 "/>
<polyline clip-path="url(#clip182)" style="stroke:#000000; stroke-linecap:round; stroke-linejoin:round; stroke-width:2; stroke-opacity:0.1; fill:none" points="240.663,523.898 1952.76,523.898 "/>
<polyline clip-path="url(#clip182)" style="stroke:#000000; stroke-linecap:round; stroke-linejoin:round; stroke-width:2; stroke-opacity:0.1; fill:none" points="240.663,389.089 1952.76,389.089 "/>
<polyline clip-path="url(#clip182)" style="stroke:#000000; stroke-linecap:round; stroke-linejoin:round; stroke-width:2; stroke-opacity:0.1; fill:none" points="240.663,254.28 1952.76,254.28 "/>
<polyline clip-path="url(#clip182)" style="stroke:#000000; stroke-linecap:round; stroke-linejoin:round; stroke-width:2; stroke-opacity:0.1; fill:none" points="240.663,119.47 1952.76,119.47 "/>
<polyline clip-path="url(#clip180)" style="stroke:#000000; stroke-linecap:round; stroke-linejoin:round; stroke-width:4; stroke-opacity:1; fill:none" points="240.663,645.868 1952.76,645.868 "/>
<polyline clip-path="url(#clip180)" style="stroke:#000000; stroke-linecap:round; stroke-linejoin:round; stroke-width:4; stroke-opacity:1; fill:none" points="570.02,645.868 570.02,626.97 "/>
<polyline clip-path="url(#clip180)" style="stroke:#000000; stroke-linecap:round; stroke-linejoin:round; stroke-width:4; stroke-opacity:1; fill:none" points="921.146,645.868 921.146,626.97 "/>
<polyline clip-path="url(#clip180)" style="stroke:#000000; stroke-linecap:round; stroke-linejoin:round; stroke-width:4; stroke-opacity:1; fill:none" points="1272.27,645.868 1272.27,626.97 "/>
<polyline clip-path="url(#clip180)" style="stroke:#000000; stroke-linecap:round; stroke-linejoin:round; stroke-width:4; stroke-opacity:1; fill:none" points="1623.4,645.868 1623.4,626.97 "/>
<path clip-path="url(#clip180)" d="M551.791 678.068 L586.209 678.068 L586.209 685.446 L559.82 685.446 L559.82 701.332 Q561.73 700.681 563.64 700.377 Q565.549 700.03 567.459 700.03 Q578.31 700.03 584.646 705.976 Q590.983 711.922 590.983 722.078 Q590.983 732.538 584.473 738.354 Q577.962 744.127 566.113 744.127 Q562.034 744.127 557.78 743.432 Q553.57 742.738 549.056 741.349 L549.056 732.538 Q552.962 734.665 557.129 735.706 Q561.296 736.748 565.94 736.748 Q573.448 736.748 577.832 732.798 Q582.216 728.849 582.216 722.078 Q582.216 715.307 577.832 711.358 Q573.448 707.408 565.94 707.408 Q562.424 707.408 558.909 708.189 Q555.436 708.97 551.791 710.62 L551.791 678.068 Z" fill="#000000" fill-rule="nonzero" fill-opacity="1" /><path clip-path="url(#clip180)" d="M873.686 735.489 L888.008 735.489 L888.008 686.054 L872.427 689.179 L872.427 681.193 L887.922 678.068 L896.689 678.068 L896.689 735.489 L911.012 735.489 L911.012 742.868 L873.686 742.868 L873.686 735.489 Z" fill="#000000" fill-rule="nonzero" fill-opacity="1" /><path clip-path="url(#clip180)" d="M947.47 683.84 Q940.699 683.84 937.27 690.524 Q933.885 697.165 933.885 710.533 Q933.885 723.858 937.27 730.542 Q940.699 737.182 947.47 737.182 Q954.284 737.182 957.669 730.542 Q961.098 723.858 961.098 710.533 Q961.098 697.165 957.669 690.524 Q954.284 683.84 947.47 683.84 M947.47 676.896 Q958.364 676.896 964.093 685.533 Q969.866 694.127 969.866 710.533 Q969.866 726.896 964.093 735.533 Q958.364 744.127 947.47 744.127 Q936.576 744.127 930.803 735.533 Q925.074 726.896 925.074 710.533 Q925.074 694.127 930.803 685.533 Q936.576 676.896 947.47 676.896 Z" fill="#000000" fill-rule="nonzero" fill-opacity="1" /><path clip-path="url(#clip180)" d="M1225.75 735.489 L1240.07 735.489 L1240.07 686.054 L1224.49 689.179 L1224.49 681.193 L1239.98 678.068 L1248.75 678.068 L1248.75 735.489 L1263.07 735.489 L1263.07 742.868 L1225.75 742.868 L1225.75 735.489 Z" fill="#000000" fill-rule="nonzero" fill-opacity="1" /><path clip-path="url(#clip180)" d="M1280.87 678.068 L1315.28 678.068 L1315.28 685.446 L1288.9 685.446 L1288.9 701.332 Q1290.81 700.681 1292.72 700.377 Q1294.63 700.03 1296.53 700.03 Q1307.39 700.03 1313.72 705.976 Q1320.06 711.922 1320.06 722.078 Q1320.06 732.538 1313.55 738.354 Q1307.04 744.127 1295.19 744.127 Q1291.11 744.127 1286.86 743.432 Q1282.65 742.738 1278.13 741.349 L1278.13 732.538 Q1282.04 734.665 1286.2 735.706 Q1290.37 736.748 1295.02 736.748 Q1302.52 736.748 1306.91 732.798 Q1311.29 728.849 1311.29 722.078 Q1311.29 715.307 1306.91 711.358 Q1302.52 707.408 1295.02 707.408 Q1291.5 707.408 1287.98 708.189 Q1284.51 708.97 1280.87 710.62 L1280.87 678.068 Z" fill="#000000" fill-rule="nonzero" fill-opacity="1" /><path clip-path="url(#clip180)" d="M1583.6 735.489 L1614.2 735.489 L1614.2 742.868 L1573.05 742.868 L1573.05 735.489 Q1578.04 730.325 1586.64 721.644 Q1595.27 712.92 1597.49 710.403 Q1601.7 705.672 1603.35 702.417 Q1605.04 699.118 1605.04 695.95 Q1605.04 690.785 1601.39 687.53 Q1597.79 684.274 1591.98 684.274 Q1587.85 684.274 1583.25 685.707 Q1578.69 687.139 1573.49 690.047 L1573.49 681.193 Q1578.78 679.066 1583.38 677.981 Q1587.98 676.896 1591.8 676.896 Q1601.87 676.896 1607.86 681.931 Q1613.85 686.965 1613.85 695.385 Q1613.85 699.378 1612.33 702.981 Q1610.86 706.54 1606.91 711.401 Q1605.82 712.66 1600.01 718.693 Q1594.19 724.682 1583.6 735.489 Z" fill="#000000" fill-rule="nonzero" fill-opacity="1" /><path clip-path="url(#clip180)" d="M1651.35 683.84 Q1644.58 683.84 1641.15 690.524 Q1637.77 697.165 1637.77 710.533 Q1637.77 723.858 1641.15 730.542 Q1644.58 737.182 1651.35 737.182 Q1658.16 737.182 1661.55 730.542 Q1664.98 723.858 1664.98 710.533 Q1664.98 697.165 1661.55 690.524 Q1658.16 683.84 1651.35 683.84 M1651.35 676.896 Q1662.24 676.896 1667.97 685.533 Q1673.75 694.127 1673.75 710.533 Q1673.75 726.896 1667.97 735.533 Q1662.24 744.127 1651.35 744.127 Q1640.46 744.127 1634.68 735.533 Q1628.95 726.896 1628.95 710.533 Q1628.95 694.127 1634.68 685.533 Q1640.46 676.896 1651.35 676.896 Z" fill="#000000" fill-rule="nonzero" fill-opacity="1" /><path clip-path="url(#clip180)" d="M1095.77 784.322 L1095.77 794.444 L1107.83 794.444 L1107.83 798.995 L1095.77 798.995 L1095.77 818.347 Q1095.77 822.708 1096.95 823.949 Q1098.16 825.19 1101.82 825.19 L1107.83 825.19 L1107.83 830.092 L1101.82 830.092 Q1095.04 830.092 1092.46 827.577 Q1089.88 825.031 1089.88 818.347 L1089.88 798.995 L1085.59 798.995 L1085.59 794.444 L1089.88 794.444 L1089.88 784.322 L1095.77 784.322 Z" fill="#000000" fill-rule="nonzero" fill-opacity="1" /><polyline clip-path="url(#clip180)" style="stroke:#000000; stroke-linecap:round; stroke-linejoin:round; stroke-width:4; stroke-opacity:1; fill:none" points="240.663,645.868 240.663,99.2801 "/>
<polyline clip-path="url(#clip180)" style="stroke:#000000; stroke-linecap:round; stroke-linejoin:round; stroke-width:4; stroke-opacity:1; fill:none" points="240.663,523.898 259.561,523.898 "/>
<polyline clip-path="url(#clip180)" style="stroke:#000000; stroke-linecap:round; stroke-linejoin:round; stroke-width:4; stroke-opacity:1; fill:none" points="240.663,389.089 259.561,389.089 "/>
<polyline clip-path="url(#clip180)" style="stroke:#000000; stroke-linecap:round; stroke-linejoin:round; stroke-width:4; stroke-opacity:1; fill:none" points="240.663,254.28 259.561,254.28 "/>
<polyline clip-path="url(#clip180)" style="stroke:#000000; stroke-linecap:round; stroke-linejoin:round; stroke-width:4; stroke-opacity:1; fill:none" points="240.663,119.47 259.561,119.47 "/>
<path clip-path="url(#clip180)" d="M97.2522 524.745 L152.894 524.745 L152.894 532.123 L97.2522 532.123 L97.2522 524.745 Z" fill="#000000" fill-rule="nonzero" fill-opacity="1" /><path clip-path="url(#clip180)" d="M173.337 548.92 L187.66 548.92 L187.66 499.484 L172.078 502.609 L172.078 494.623 L187.573 491.498 L196.34 491.498 L196.34 548.92 L210.663 548.92 L210.663 556.298 L173.337 556.298 L173.337 548.92 Z" fill="#000000" fill-rule="nonzero" fill-opacity="1" /><path clip-path="url(#clip180)" d="M188.267 362.461 Q181.496 362.461 178.068 369.145 Q174.682 375.786 174.682 389.154 Q174.682 402.479 178.068 409.163 Q181.496 415.803 188.267 415.803 Q195.081 415.803 198.467 409.163 Q201.896 402.479 201.896 389.154 Q201.896 375.786 198.467 369.145 Q195.081 362.461 188.267 362.461 M188.267 355.517 Q199.161 355.517 204.89 364.154 Q210.663 372.748 210.663 389.154 Q210.663 405.517 204.89 414.154 Q199.161 422.748 188.267 422.748 Q177.373 422.748 171.601 414.154 Q165.872 405.517 165.872 389.154 Q165.872 372.748 171.601 364.154 Q177.373 355.517 188.267 355.517 Z" fill="#000000" fill-rule="nonzero" fill-opacity="1" /><path clip-path="url(#clip180)" d="M173.337 279.301 L187.66 279.301 L187.66 229.866 L172.078 232.991 L172.078 225.005 L187.573 221.88 L196.34 221.88 L196.34 279.301 L210.663 279.301 L210.663 286.68 L173.337 286.68 L173.337 279.301 Z" fill="#000000" fill-rule="nonzero" fill-opacity="1" /><path clip-path="url(#clip180)" d="M180.064 144.492 L210.663 144.492 L210.663 151.87 L169.517 151.87 L169.517 144.492 Q174.509 139.327 183.102 130.646 Q191.739 121.922 193.953 119.405 Q198.163 114.674 199.812 111.419 Q201.505 108.12 201.505 104.952 Q201.505 99.7871 197.859 96.5319 Q194.257 93.2767 188.441 93.2767 Q184.318 93.2767 179.717 94.709 Q175.16 96.1413 169.951 99.0492 L169.951 90.1951 Q175.247 88.0684 179.847 86.9833 Q184.448 85.8983 188.267 85.8983 Q198.337 85.8983 204.326 90.933 Q210.316 95.9677 210.316 104.388 Q210.316 108.381 208.797 111.983 Q207.321 115.542 203.371 120.403 Q202.286 121.662 196.47 127.695 Q190.654 133.684 180.064 144.492 Z" fill="#000000" fill-rule="nonzero" fill-opacity="1" /><path clip-path="url(#clip180)" d="M17.3482 355.959 L34.6948 368.85 L52.9962 355.291 L52.9962 362.198 L38.9916 372.574 L52.9962 382.95 L52.9962 389.857 L34.3446 376.011 L17.3482 388.679 L17.3482 381.772 L30.0478 372.319 L17.3482 362.866 L17.3482 355.959 Z" fill="#000000" fill-rule="nonzero" fill-opacity="1" /><path clip-path="url(#clip180)" d="M961.328 12.096 L969.592 12.096 L982.312 63.2184 L994.991 12.096 L1004.19 12.096 L1016.91 63.2184 L1029.59 12.096 L1037.89 12.096 L1022.7 72.576 L1012.41 72.576 L999.65 20.0763 L986.768 72.576 L976.479 72.576 L961.328 12.096 Z" fill="#000000" fill-rule="nonzero" fill-opacity="1" /><path clip-path="url(#clip180)" d="M1046.6 27.2059 L1054.05 27.2059 L1054.05 72.576 L1046.6 72.576 L1046.6 27.2059 M1046.6 9.54393 L1054.05 9.54393 L1054.05 18.9825 L1046.6 18.9825 L1046.6 9.54393 Z" fill="#000000" fill-rule="nonzero" fill-opacity="1" /><path clip-path="url(#clip180)" d="M1107.36 45.1919 L1107.36 72.576 L1099.91 72.576 L1099.91 45.4349 Q1099.91 38.994 1097.4 35.7938 Q1094.89 32.5936 1089.86 32.5936 Q1083.83 32.5936 1080.34 36.4419 Q1076.86 40.2903 1076.86 46.9338 L1076.86 72.576 L1069.37 72.576 L1069.37 27.2059 L1076.86 27.2059 L1076.86 34.2544 Q1079.53 30.163 1083.14 28.1376 Q1086.78 26.1121 1091.52 26.1121 Q1099.34 26.1121 1103.35 30.9732 Q1107.36 35.7938 1107.36 45.1919 Z" fill="#000000" fill-rule="nonzero" fill-opacity="1" /><path clip-path="url(#clip180)" d="M1129.6 14.324 L1129.6 27.2059 L1144.96 27.2059 L1144.96 32.9987 L1129.6 32.9987 L1129.6 57.6282 Q1129.6 63.1779 1131.1 64.7578 Q1132.64 66.3376 1137.3 66.3376 L1144.96 66.3376 L1144.96 72.576 L1137.3 72.576 Q1128.67 72.576 1125.39 69.3758 Q1122.11 66.1351 1122.11 57.6282 L1122.11 32.9987 L1116.64 32.9987 L1116.64 27.2059 L1122.11 27.2059 L1122.11 14.324 L1129.6 14.324 Z" fill="#000000" fill-rule="nonzero" fill-opacity="1" /><path clip-path="url(#clip180)" d="M1193.57 48.0275 L1193.57 51.6733 L1159.3 51.6733 Q1159.78 59.3701 1163.91 63.421 Q1168.09 67.4314 1175.5 67.4314 Q1179.79 67.4314 1183.8 66.3781 Q1187.85 65.3249 1191.82 63.2184 L1191.82 70.267 Q1187.81 71.9684 1183.6 72.8596 Q1179.39 73.7508 1175.05 73.7508 Q1164.2 73.7508 1157.84 67.4314 Q1151.52 61.1119 1151.52 50.3365 Q1151.52 39.1965 1157.51 32.6746 Q1163.55 26.1121 1173.76 26.1121 Q1182.91 26.1121 1188.22 32.0264 Q1193.57 37.9003 1193.57 48.0275 M1186.11 45.84 Q1186.03 39.7232 1182.67 36.0774 Q1179.35 32.4315 1173.84 32.4315 Q1167.6 32.4315 1163.83 35.9558 Q1160.11 39.4801 1159.54 45.8805 L1186.11 45.84 Z" fill="#000000" fill-rule="nonzero" fill-opacity="1" /><path clip-path="url(#clip180)" d="M1232.09 34.1734 Q1230.83 33.4443 1229.34 33.1202 Q1227.88 32.7556 1226.1 32.7556 Q1219.78 32.7556 1216.37 36.8875 Q1213.01 40.9789 1213.01 48.6757 L1213.01 72.576 L1205.52 72.576 L1205.52 27.2059 L1213.01 27.2059 L1213.01 34.2544 Q1215.36 30.1225 1219.13 28.1376 Q1222.9 26.1121 1228.28 26.1121 Q1229.05 26.1121 1229.98 26.2337 Q1230.92 26.3147 1232.05 26.5172 L1232.09 34.1734 Z" fill="#000000" fill-rule="nonzero" fill-opacity="1" /><polyline clip-path="url(#clip182)" style="stroke:#1f77b4; stroke-linecap:round; stroke-linejoin:round; stroke-width:4; stroke-opacity:0.4; fill:none" points="289.118,468.022 359.344,499.595 429.569,549.21 499.794,585.294 570.02,630.398 640.245,576.273 710.47,531.168 780.696,445.47 850.921,449.98 921.146,373.302 991.372,319.177 1061.6,301.135 1131.82,314.666 1202.05,359.771 1272.27,404.876 1342.5,454.491 1412.72,386.834 1482.95,233.478 1553.17,197.395 1623.4,170.332 1693.62,183.863 1763.85,210.926 1834.08,296.625 1904.3,395.855 "/>
<polyline clip-path="url(#clip182)" style="stroke:#1f77b4; stroke-linecap:round; stroke-linejoin:round; stroke-width:4; stroke-opacity:0.4; fill:none" points="289.118,444.546 359.344,479.881 429.569,538.773 499.794,556.441 570.02,579.998 640.245,568.219 710.47,503.438 780.696,468.103 850.921,497.549 921.146,379.764 991.372,297.315 1061.6,285.537 1131.82,303.205 1202.05,379.764 1272.27,438.657 1342.5,456.324 1412.72,438.657 1482.95,391.543 1553.17,150.085 1623.4,114.75 1693.62,179.531 1763.85,197.199 1834.08,303.205 1904.3,385.654 "/>
<polyline clip-path="url(#clip182)" style="stroke:#1f77b4; stroke-linecap:round; stroke-linejoin:round; stroke-width:4; stroke-opacity:0.4; fill:none" points="289.118,529.012 359.344,564.565 429.569,587.189 499.794,603.35 570.02,606.582 640.245,593.653 710.47,532.244 780.696,390.032 850.921,225.195 921.146,234.891 991.372,238.123 1061.6,241.355 1131.82,257.516 1202.05,341.55 1272.27,331.854 1342.5,328.622 1412.72,328.622 1482.95,348.014 1553.17,328.622 1623.4,225.195 1693.62,299.533 1763.85,341.55 1834.08,402.96 1904.3,457.906 "/>
<polyline clip-path="url(#clip182)" style="stroke:#1f77b4; stroke-linecap:round; stroke-linejoin:round; stroke-width:4; stroke-opacity:0.4; fill:none" points="289.118,451.034 359.344,514.61 429.569,583.076 499.794,592.857 570.02,607.528 640.245,578.185 710.47,509.719 780.696,387.459 850.921,323.883 921.146,211.404 991.372,206.513 1061.6,240.746 1131.82,318.993 1202.05,363.007 1272.27,431.473 1342.5,416.801 1412.72,431.473 1482.95,421.692 1553.17,348.335 1623.4,162.499 1693.62,162.499 1763.85,274.979 1834.08,372.788 1904.3,426.582 "/>
<polyline clip-path="url(#clip182)" style="stroke:#1f77b4; stroke-linecap:round; stroke-linejoin:round; stroke-width:4; stroke-opacity:0.4; fill:none" points="289.118,533.427 359.344,566.226 429.569,588.933 499.794,599.025 570.02,599.025 640.245,588.933 710.47,530.904 780.696,412.322 850.921,326.539 921.146,258.418 991.372,263.464 1061.6,265.987 1131.82,296.263 1202.05,303.832 1272.27,324.016 1342.5,318.97 1412.72,301.309 1482.95,215.526 1553.17,243.279 1623.4,245.802 1693.62,298.786 1763.85,346.723 1834.08,424.937 1904.3,485.489 "/>
<polyline clip-path="url(#clip182)" style="stroke:#1f77b4; stroke-linecap:round; stroke-linejoin:round; stroke-width:4; stroke-opacity:0.4; fill:none" points="289.118,539.938 359.344,578.105 429.569,597.188 499.794,605.367 570.02,597.188 640.245,575.379 710.47,531.76 780.696,417.26 850.921,327.295 921.146,259.141 991.372,253.688 1061.6,300.033 1131.82,291.855 1202.05,313.664 1272.27,308.212 1342.5,270.045 1412.72,280.95 1482.95,245.51 1553.17,240.057 1623.4,253.688 1693.62,310.938 1763.85,351.831 1834.08,422.712 1904.3,466.331 "/>
<polyline clip-path="url(#clip182)" style="stroke:#1f77b4; stroke-linecap:round; stroke-linejoin:round; stroke-width:4; stroke-opacity:0.4; fill:none" points="289.118,396.183 359.344,466.631 429.569,537.08 499.794,572.304 570.02,584.045 640.245,578.175 710.47,519.468 780.696,472.502 850.921,501.855 921.146,407.924 991.372,313.993 1061.6,308.122 1131.82,313.993 1202.05,372.7 1272.27,437.278 1342.5,431.407 1412.72,460.76 1482.95,396.183 1553.17,190.708 1623.4,178.967 1693.62,132.001 1763.85,178.967 1834.08,237.674 1904.3,349.217 "/>
</svg>
