<?xml version="1.0" encoding="utf-8"?>
<svg xmlns="http://www.w3.org/2000/svg" xmlns:xlink="http://www.w3.org/1999/xlink" width="500" height="200" viewBox="0 0 2000 800">
<defs>
  <clipPath id="clip400">
    <rect x="0" y="0" width="2000" height="800"/>
  </clipPath>
</defs>
<path clip-path="url(#clip400)" d="M0 800 L2000 800 L2000 -4.44089e-14 L0 -4.44089e-14  Z" fill="#ffffff" fill-rule="evenodd" fill-opacity="1"/>
<defs>
  <clipPath id="clip401">
    <rect x="400" y="0" width="1401" height="800"/>
  </clipPath>
</defs>
<path clip-path="url(#clip400)" d="M240.663 645.868 L1952.76 645.868 L1952.76 99.2801 L240.663 99.2801  Z" fill="#ffffff" fill-rule="evenodd" fill-opacity="1"/>
<defs>
  <clipPath id="clip402">
    <rect x="240" y="99" width="1713" height="548"/>
  </clipPath>
</defs>
<polyline clip-path="url(#clip402)" style="stroke:#000000; stroke-linecap:round; stroke-linejoin:round; stroke-width:2; stroke-opacity:0.1; fill:none" points="570.02,645.868 570.02,99.2801 "/>
<polyline clip-path="url(#clip402)" style="stroke:#000000; stroke-linecap:round; stroke-linejoin:round; stroke-width:2; stroke-opacity:0.1; fill:none" points="921.146,645.868 921.146,99.2801 "/>
<polyline clip-path="url(#clip402)" style="stroke:#000000; stroke-linecap:round; stroke-linejoin:round; stroke-width:2; stroke-opacity:0.1; fill:none" points="1272.27,645.868 1272.27,99.2801 "/>
<polyline clip-path="url(#clip402)" style="stroke:#000000; stroke-linecap:round; stroke-linejoin:round; stroke-width:2; stroke-opacity:0.1; fill:none" points="1623.4,645.868 1623.4,99.2801 "/>
<polyline clip-path="url(#clip402)" style="stroke:#000000; stroke-linecap:round; stroke-linejoin:round; stroke-width:2; stroke-opacity:0.1; fill:none" points="240.663,534.476 1952.76,534.476 "/>
<polyline clip-path="url(#clip402)" style="stroke:#000000; stroke-linecap:round; stroke-linejoin:round; stroke-width:2; stroke-opacity:0.1; fill:none" points="240.663,411.922 1952.76,411.922 "/>
<polyline clip-path="url(#clip402)" style="stroke:#000000; stroke-linecap:round; stroke-linejoin:round; stroke-width:2; stroke-opacity:0.1; fill:none" points="240.663,289.369 1952.76,289.369 "/>
<polyline clip-path="url(#clip402)" style="stroke:#000000; stroke-linecap:round; stroke-linejoin:round; stroke-width:2; stroke-opacity:0.1; fill:none" points="240.663,166.816 1952.76,166.816 "/>
<polyline clip-path="url(#clip400)" style="stroke:#000000; stroke-linecap:round; stroke-linejoin:round; stroke-width:4; stroke-opacity:1; fill:none" points="240.663,645.868 1952.76,645.868 "/>
<polyline clip-path="url(#clip400)" style="stroke:#000000; stroke-linecap:round; stroke-linejoin:round; stroke-width:4; stroke-opacity:1; fill:none" points="570.02,645.868 570.02,626.97 "/>
<polyline clip-path="url(#clip400)" style="stroke:#000000; stroke-linecap:round; stroke-linejoin:round; stroke-width:4; stroke-opacity:1; fill:none" points="921.146,645.868 921.146,626.97 "/>
<polyline clip-path="url(#clip400)" style="stroke:#000000; stroke-linecap:round; stroke-linejoin:round; stroke-width:4; stroke-opacity:1; fill:none" points="1272.27,645.868 1272.27,626.97 "/>
<polyline clip-path="url(#clip400)" style="stroke:#000000; stroke-linecap:round; stroke-linejoin:round; stroke-width:4; stroke-opacity:1; fill:none" points="1623.4,645.868 1623.4,626.97 "/>
<path clip-path="url(#clip400)" d="M551.791 678.068 L586.209 678.068 L586.209 685.446 L559.82 685.446 L559.82 701.332 Q561.73 700.681 563.64 700.377 Q565.549 700.03 567.459 700.03 Q578.31 700.03 584.646 705.976 Q590.983 711.922 590.983 722.078 Q590.983 732.538 584.473 738.354 Q577.962 744.127 566.113 744.127 Q562.034 744.127 557.78 743.432 Q553.57 742.738 549.056 741.349 L549.056 732.538 Q552.962 734.665 557.129 735.706 Q561.296 736.748 565.94 736.748 Q573.448 736.748 577.832 732.798 Q582.216 728.849 582.216 722.078 Q582.216 715.307 577.832 711.358 Q573.448 707.408 565.94 707.408 Q562.424 707.408 558.909 708.189 Q555.436 708.97 551.791 710.62 L551.791 678.068 Z" fill="#000000" fill-rule="nonzero" fill-opacity="1" /><path clip-path="url(#clip400)" d="M873.686 735.489 L888.008 735.489 L888.008 686.054 L872.427 689.179 L872.427 681.193 L887.922 678.068 L896.689 678.068 L896.689 735.489 L911.012 735.489 L911.012 742.868 L873.686 742.868 L873.686 735.489 Z" fill="#000000" fill-rule="nonzero" fill-opacity="1" /><path clip-path="url(#clip400)" d="M947.47 683.84 Q940.699 683.84 937.27 690.524 Q933.885 697.165 933.885 710.533 Q933.885 723.858 937.27 730.542 Q940.699 737.182 947.47 737.182 Q954.284 737.182 957.669 730.542 Q961.098 723.858 961.098 710.533 Q961.098 697.165 957.669 690.524 Q954.284 683.84 947.47 683.84 M947.47 676.896 Q958.364 676.896 964.093 685.533 Q969.866 694.127 969.866 710.533 Q969.866 726.896 964.093 735.533 Q958.364 744.127 947.47 744.127 Q936.576 744.127 930.803 735.533 Q925.074 726.896 925.074 710.533 Q925.074 694.127 930.803 685.533 Q936.576 676.896 947.47 676.896 Z" fill="#000000" fill-rule="nonzero" fill-opacity="1" /><path clip-path="url(#clip400)" d="M1225.75 735.489 L1240.07 735.489 L1240.07 686.054 L1224.49 689.179 L1224.49 681.193 L1239.98 678.068 L1248.75 678.068 L1248.75 735.489 L1263.07 735.489 L1263.07 742.868 L1225.75 742.868 L1225.75 735.489 Z" fill="#000000" fill-rule="nonzero" fill-opacity="1" /><path clip-path="url(#clip400)" d="M1280.87 678.068 L1315.28 678.068 L1315.28 685.446 L1288.9 685.446 L1288.9 701.332 Q1290.81 700.681 1292.72 700.377 Q1294.63 700.03 1296.53 700.03 Q1307.39 700.03 1313.72 705.976 Q1320.06 711.922 1320.06 722.078 Q1320.06 732.538 1313.55 738.354 Q1307.04 744.127 1295.19 744.127 Q1291.11 744.127 1286.86 743.432 Q1282.65 742.738 1278.13 741.349 L1278.13 732.538 Q1282.04 734.665 1286.2 735.706 Q1290.37 736.748 1295.02 736.748 Q1302.52 736.748 1306.91 732.798 Q1311.29 728.849 1311.29 722.078 Q1311.29 715.307 1306.91 711.358 Q1302.52 707.408 1295.02 707.408 Q1291.5 707.408 1287.98 708.189 Q1284.51 708.97 1280.87 710.62 L1280.87 678.068 Z" fill="#000000" fill-rule="nonzero" fill-opacity="1" /><path clip-path="url(#clip400)" d="M1583.6 735.489 L1614.2 735.489 L1614.2 742.868 L1573.05 742.868 L1573.05 735.489 Q1578.04 730.325 1586.64 721.644 Q1595.27 712.92 1597.49 710.403 Q1601.7 705.672 1603.35 702.417 Q1605.04 699.118 1605.04 695.95 Q1605.04 690.785 1601.39 687.53 Q1597.79 684.274 1591.98 684.274 Q1587.85 684.274 1583.25 685.707 Q1578.69 687.139 1573.49 690.047 L1573.49 681.193 Q1578.78 679.066 1583.38 677.981 Q1587.98 676.896 1591.8 676.896 Q1601.87 676.896 1607.86 681.931 Q1613.85 686.965 1613.85 695.385 Q1613.85 699.378 1612.33 702.981 Q1610.86 706.54 1606.91 711.401 Q1605.82 712.66 1600.01 718.693 Q1594.19 724.682 1583.6 735.489 Z" fill="#000000" fill-rule="nonzero" fill-opacity="1" /><path clip-path="url(#clip400)" d="M1651.35 683.84 Q1644.58 683.84 1641.15 690.524 Q1637.77 697.165 1637.77 710.533 Q1637.77 723.858 1641.15 730.542 Q1644.58 737.182 1651.35 737.182 Q1658.16 737.182 1661.55 730.542 Q1664.98 723.858 1664.98 710.533 Q1664.98 697.165 1661.55 690.524 Q1658.16 683.84 1651.35 683.84 M1651.35 676.896 Q1662.24 676.896 1667.97 685.533 Q1673.75 694.127 1673.75 710.533 Q1673.75 726.896 1667.97 735.533 Q1662.24 744.127 1651.35 744.127 Q1640.46 744.127 1634.68 735.533 Q1628.95 726.896 1628.95 710.533 Q1628.95 694.127 1634.68 685.533 Q1640.46 676.896 1651.35 676.896 Z" fill="#000000" fill-rule="nonzero" fill-opacity="1" /><path clip-path="url(#clip400)" d="M1095.77 784.322 L1095.77 794.444 L1107.83 794.444 L1107.83 798.995 L1095.77 798.995 L1095.77 818.347 Q1095.77 822.708 1096.95 823.949 Q1098.16 825.19 1101.82 825.19 L1107.83 825.19 L1107.83 830.092 L1101.82 830.092 Q1095.04 830.092 1092.46 827.577 Q1089.88 825.031 1089.88 818.347 L1089.88 798.995 L1085.59 798.995 L1085.59 794.444 L1089.88 794.444 L1089.88 784.322 L1095.77 784.322 Z" fill="#000000" fill-rule="nonzero" fill-opacity="1" /><polyline clip-path="url(#clip400)" style="stroke:#000000; stroke-linecap:round; stroke-linejoin:round; stroke-width:4; stroke-opacity:1; fill:none" points="240.663,645.868 240.663,99.2801 "/>
<polyline clip-path="url(#clip400)" style="stroke:#000000; stroke-linecap:round; stroke-linejoin:round; stroke-width:4; stroke-opacity:1; fill:none" points="240.663,534.476 259.561,534.476 "/>
<polyline clip-path="url(#clip400)" style="stroke:#000000; stroke-linecap:round; stroke-linejoin:round; stroke-width:4; stroke-opacity:1; fill:none" points="240.663,411.922 259.561,411.922 "/>
<polyline clip-path="url(#clip400)" style="stroke:#000000; stroke-linecap:round; stroke-linejoin:round; stroke-width:4; stroke-opacity:1; fill:none" points="240.663,289.369 259.561,289.369 "/>
<polyline clip-path="url(#clip400)" style="stroke:#000000; stroke-linecap:round; stroke-linejoin:round; stroke-width:4; stroke-opacity:1; fill:none" points="240.663,166.816 259.561,166.816 "/>
<path clip-path="url(#clip400)" d="M97.2522 535.322 L152.894 535.322 L152.894 542.701 L97.2522 542.701 L97.2522 535.322 Z" fill="#000000" fill-rule="nonzero" fill-opacity="1" /><path clip-path="url(#clip400)" d="M173.337 559.497 L187.66 559.497 L187.66 510.062 L172.078 513.187 L172.078 505.201 L187.573 502.076 L196.34 502.076 L196.34 559.497 L210.663 559.497 L210.663 566.876 L173.337 566.876 L173.337 559.497 Z" fill="#000000" fill-rule="nonzero" fill-opacity="1" /><path clip-path="url(#clip400)" d="M188.267 385.295 Q181.496 385.295 178.068 391.979 Q174.682 398.62 174.682 411.988 Q174.682 425.312 178.068 431.996 Q181.496 438.637 188.267 438.637 Q195.081 438.637 198.467 431.996 Q201.896 425.312 201.896 411.988 Q201.896 398.62 198.467 391.979 Q195.081 385.295 188.267 385.295 M188.267 378.351 Q199.161 378.351 204.89 386.988 Q210.663 395.581 210.663 411.988 Q210.663 428.35 204.89 436.987 Q199.161 445.581 188.267 445.581 Q177.373 445.581 171.601 436.987 Q165.872 428.35 165.872 411.988 Q165.872 395.581 171.601 386.988 Q177.373 378.351 188.267 378.351 Z" fill="#000000" fill-rule="nonzero" fill-opacity="1" /><path clip-path="url(#clip400)" d="M173.337 314.391 L187.66 314.391 L187.66 264.955 L172.078 268.08 L172.078 260.094 L187.573 256.969 L196.34 256.969 L196.34 314.391 L210.663 314.391 L210.663 321.769 L173.337 321.769 L173.337 314.391 Z" fill="#000000" fill-rule="nonzero" fill-opacity="1" /><path clip-path="url(#clip400)" d="M180.064 191.837 L210.663 191.837 L210.663 199.216 L169.517 199.216 L169.517 191.837 Q174.509 186.672 183.102 177.992 Q191.739 169.268 193.953 166.751 Q198.163 162.02 199.812 158.765 Q201.505 155.466 201.505 152.298 Q201.505 147.133 197.859 143.878 Q194.257 140.622 188.441 140.622 Q184.318 140.622 179.717 142.055 Q175.16 143.487 169.951 146.395 L169.951 137.541 Q175.247 135.414 179.847 134.329 Q184.448 133.244 188.267 133.244 Q198.337 133.244 204.326 138.279 Q210.316 143.313 210.316 151.733 Q210.316 155.726 208.797 159.329 Q207.321 162.888 203.371 167.749 Q202.286 169.008 196.47 175.041 Q190.654 181.03 180.064 191.837 Z" fill="#000000" fill-rule="nonzero" fill-opacity="1" /><path clip-path="url(#clip400)" d="M17.3482 355.959 L34.6948 368.85 L52.9962 355.291 L52.9962 362.198 L38.9916 372.574 L52.9962 382.95 L52.9962 389.857 L34.3446 376.011 L17.3482 388.679 L17.3482 381.772 L30.0478 372.319 L17.3482 362.866 L17.3482 355.959 Z" fill="#000000" fill-rule="nonzero" fill-opacity="1" /><path clip-path="url(#clip400)" d="M962.361 14.0809 L962.361 22.0612 Q957.703 19.8332 953.571 18.7395 Q949.439 17.6457 945.59 17.6457 Q938.906 17.6457 935.261 20.2383 Q931.655 22.8309 931.655 27.611 Q931.655 31.6214 934.045 33.6873 Q936.476 35.7128 943.2 36.9686 L948.143 37.9813 Q957.298 39.7232 961.632 44.1387 Q966.007 48.5136 966.007 55.8863 Q966.007 64.6767 960.093 69.2137 Q954.219 73.7508 942.836 73.7508 Q938.542 73.7508 933.681 72.7785 Q928.86 71.8063 923.675 69.9024 L923.675 61.4765 Q928.658 64.2716 933.438 65.6895 Q938.218 67.1073 942.836 67.1073 Q949.844 67.1073 953.652 64.3527 Q957.46 61.598 957.46 56.4939 Q957.46 52.0379 954.705 49.5264 Q951.991 47.0148 945.753 45.759 L940.77 44.7868 Q931.615 42.9639 927.523 39.075 Q923.432 35.1862 923.432 28.2591 Q923.432 20.2383 929.063 15.6203 Q934.734 11.0023 944.659 11.0023 Q948.912 11.0023 953.328 11.7719 Q957.743 12.5416 962.361 14.0809 Z" fill="#000000" fill-rule="nonzero" fill-opacity="1" /><path clip-path="url(#clip400)" d="M977.674 54.671 L977.674 27.2059 L985.127 27.2059 L985.127 54.3874 Q985.127 60.8284 987.639 64.0691 Q990.15 67.2693 995.174 67.2693 Q1001.21 67.2693 1004.69 63.421 Q1008.22 59.5726 1008.22 52.9291 L1008.22 27.2059 L1015.67 27.2059 L1015.67 72.576 L1008.22 72.576 L1008.22 65.6084 Q1005.5 69.7404 1001.9 71.7658 Q998.333 73.7508 993.594 73.7508 Q985.775 73.7508 981.725 68.8897 Q977.674 64.0286 977.674 54.671 M996.429 26.1121 L996.429 26.1121 Z" fill="#000000" fill-rule="nonzero" fill-opacity="1" /><path clip-path="url(#clip400)" d="M1066.35 35.9153 Q1069.14 30.8922 1073.03 28.5022 Q1076.92 26.1121 1082.19 26.1121 Q1089.28 26.1121 1093.12 31.0947 Q1096.97 36.0368 1096.97 45.1919 L1096.97 72.576 L1089.48 72.576 L1089.48 45.4349 Q1089.48 38.913 1087.17 35.7533 Q1084.86 32.5936 1080.12 32.5936 Q1074.33 32.5936 1070.97 36.4419 Q1067.6 40.2903 1067.6 46.9338 L1067.6 72.576 L1060.11 72.576 L1060.11 45.4349 Q1060.11 38.8725 1057.8 35.7533 Q1055.49 32.5936 1050.67 32.5936 Q1044.96 32.5936 1041.6 36.4824 Q1038.23 40.3308 1038.23 46.9338 L1038.23 72.576 L1030.74 72.576 L1030.74 27.2059 L1038.23 27.2059 L1038.23 34.2544 Q1040.79 30.082 1044.35 28.0971 Q1047.92 26.1121 1052.82 26.1121 Q1057.76 26.1121 1061.2 28.6237 Q1064.69 31.1352 1066.35 35.9153 Z" fill="#000000" fill-rule="nonzero" fill-opacity="1" /><path clip-path="url(#clip400)" d="M1147.16 35.9153 Q1149.96 30.8922 1153.85 28.5022 Q1157.74 26.1121 1163 26.1121 Q1170.09 26.1121 1173.94 31.0947 Q1177.79 36.0368 1177.79 45.1919 L1177.79 72.576 L1170.29 72.576 L1170.29 45.4349 Q1170.29 38.913 1167.99 35.7533 Q1165.68 32.5936 1160.94 32.5936 Q1155.14 32.5936 1151.78 36.4419 Q1148.42 40.2903 1148.42 46.9338 L1148.42 72.576 L1140.93 72.576 L1140.93 45.4349 Q1140.93 38.8725 1138.62 35.7533 Q1136.31 32.5936 1131.49 32.5936 Q1125.77 32.5936 1122.41 36.4824 Q1119.05 40.3308 1119.05 46.9338 L1119.05 72.576 L1111.56 72.576 L1111.56 27.2059 L1119.05 27.2059 L1119.05 34.2544 Q1121.6 30.082 1125.17 28.0971 Q1128.73 26.1121 1133.63 26.1121 Q1138.58 26.1121 1142.02 28.6237 Q1145.5 31.1352 1147.16 35.9153 Z" fill="#000000" fill-rule="nonzero" fill-opacity="1" /><path clip-path="url(#clip400)" d="M1231.46 48.0275 L1231.46 51.6733 L1197.19 51.6733 Q1197.68 59.3701 1201.81 63.421 Q1205.98 67.4314 1213.4 67.4314 Q1217.69 67.4314 1221.7 66.3781 Q1225.75 65.3249 1229.72 63.2184 L1229.72 70.267 Q1225.71 71.9684 1221.5 72.8596 Q1217.28 73.7508 1212.95 73.7508 Q1202.09 73.7508 1195.73 67.4314 Q1189.41 61.1119 1189.41 50.3365 Q1189.41 39.1965 1195.41 32.6746 Q1201.45 26.1121 1211.65 26.1121 Q1220.81 26.1121 1226.12 32.0264 Q1231.46 37.9003 1231.46 48.0275 M1224.01 45.84 Q1223.93 39.7232 1220.57 36.0774 Q1217.24 32.4315 1211.73 32.4315 Q1205.5 32.4315 1201.73 35.9558 Q1198 39.4801 1197.44 45.8805 L1224.01 45.84 Z" fill="#000000" fill-rule="nonzero" fill-opacity="1" /><path clip-path="url(#clip400)" d="M1269.99 34.1734 Q1268.73 33.4443 1267.23 33.1202 Q1265.77 32.7556 1263.99 32.7556 Q1257.67 32.7556 1254.27 36.8875 Q1250.91 40.9789 1250.91 48.6757 L1250.91 72.576 L1243.41 72.576 L1243.41 27.2059 L1250.91 27.2059 L1250.91 34.2544 Q1253.26 30.1225 1257.02 28.1376 Q1260.79 26.1121 1266.18 26.1121 Q1266.95 26.1121 1267.88 26.2337 Q1268.81 26.3147 1269.95 26.5172 L1269.99 34.1734 Z" fill="#000000" fill-rule="nonzero" fill-opacity="1" /><polyline clip-path="url(#clip402)" style="stroke:#ff7e0d; stroke-linecap:round; stroke-linejoin:round; stroke-width:4; stroke-opacity:0.4; fill:none" points="289.118,291.326 359.344,391.13 429.569,475.579 499.794,513.966 570.02,521.643 640.245,498.611 710.47,498.611 780.696,629.124 850.921,521.643 921.146,352.744 991.372,329.712 1061.6,322.035 1131.82,322.035 1202.05,360.421 1272.27,475.579 1342.5,490.934 1412.72,498.611 1482.95,506.288 1553.17,498.611 1623.4,444.871 1693.62,383.453 1763.85,114.75 1834.08,176.167 1904.3,268.294 "/>
<polyline clip-path="url(#clip402)" style="stroke:#ff7e0d; stroke-linecap:round; stroke-linejoin:round; stroke-width:4; stroke-opacity:0.4; fill:none" points="289.118,528.745 359.344,610.606 429.569,579.908 499.794,590.141 570.02,590.141 640.245,603.784 710.47,552.621 780.696,443.473 850.921,330.914 921.146,266.108 991.372,262.697 1061.6,259.286 1131.82,289.984 1202.05,337.736 1272.27,330.914 1342.5,324.092 1412.72,300.216 1482.95,347.969 1553.17,354.79 1623.4,378.666 1693.62,320.682 1763.85,375.256 1834.08,433.24 1904.3,474.171 "/>
<polyline clip-path="url(#clip402)" style="stroke:#ff7e0d; stroke-linecap:round; stroke-linejoin:round; stroke-width:4; stroke-opacity:0.4; fill:none" points="289.118,349.871 359.344,454.747 429.569,517.672 499.794,566.614 570.02,580.597 640.245,559.622 710.47,517.672 780.696,608.564 850.921,531.655 921.146,419.788 991.372,321.904 1061.6,314.913 1131.82,314.913 1202.05,391.821 1272.27,454.747 1342.5,440.763 1412.72,440.763 1482.95,447.755 1553.17,419.788 1623.4,286.946 1693.62,286.946 1763.85,126.137 1834.08,231.012 1904.3,300.929 "/>
<polyline clip-path="url(#clip402)" style="stroke:#ff7e0d; stroke-linecap:round; stroke-linejoin:round; stroke-width:4; stroke-opacity:0.4; fill:none" points="289.118,513.524 359.344,558.298 429.569,596.183 499.794,613.404 570.02,606.515 640.245,592.739 710.47,589.295 780.696,437.753 850.921,327.541 921.146,255.215 991.372,258.659 1061.6,258.659 1131.82,289.656 1202.05,330.986 1272.27,334.43 1342.5,306.877 1412.72,317.209 1482.95,337.874 1553.17,375.759 1623.4,392.98 1693.62,396.424 1763.85,386.092 1834.08,372.315 1904.3,437.753 "/>
<polyline clip-path="url(#clip402)" style="stroke:#ff7e0d; stroke-linecap:round; stroke-linejoin:round; stroke-width:4; stroke-opacity:0.4; fill:none" points="289.118,291.326 359.344,391.13 429.569,475.579 499.794,513.966 570.02,521.643 640.245,498.611 710.47,498.611 780.696,629.124 850.921,521.643 921.146,352.744 991.372,329.712 1061.6,322.035 1131.82,322.035 1202.05,360.421 1272.27,475.579 1342.5,490.934 1412.72,498.611 1482.95,506.288 1553.17,498.611 1623.4,444.871 1693.62,383.453 1763.85,114.75 1834.08,176.167 1904.3,268.294 "/>
<polyline clip-path="url(#clip402)" style="stroke:#ff7e0d; stroke-linecap:round; stroke-linejoin:round; stroke-width:4; stroke-opacity:0.4; fill:none" points="289.118,415.226 359.344,488.837 429.569,556.787 499.794,607.749 570.02,590.761 640.245,562.449 710.47,630.398 780.696,562.449 850.921,369.926 921.146,245.352 991.372,205.715 1061.6,222.702 1131.82,301.977 1202.05,358.601 1272.27,403.901 1342.5,392.576 1412.72,415.226 1482.95,392.576 1553.17,415.226 1623.4,398.238 1693.62,392.576 1763.85,279.327 1834.08,301.977 1904.3,375.588 "/>
<polyline clip-path="url(#clip402)" style="stroke:#ff7e0d; stroke-linecap:round; stroke-linejoin:round; stroke-width:4; stroke-opacity:0.4; fill:none" points="289.118,250.266 359.344,342.095 429.569,388.009 499.794,422.444 570.02,433.923 640.245,445.402 710.47,422.444 780.696,583.144 850.921,548.708 921.146,502.794 991.372,410.966 1061.6,422.444 1131.82,410.966 1202.05,468.359 1272.27,479.837 1342.5,502.794 1412.72,502.794 1482.95,502.794 1553.17,548.708 1623.4,468.359 1693.62,353.573 1763.85,124.003 1834.08,135.481 1904.3,215.831 "/>
</svg>
