<?xml version="1.0" encoding="utf-8"?>
<svg xmlns="http://www.w3.org/2000/svg" xmlns:xlink="http://www.w3.org/1999/xlink" width="500" height="200" viewBox="0 0 2000 800">
<defs>
  <clipPath id="clip870">
    <rect x="0" y="0" width="2000" height="800"/>
  </clipPath>
</defs>
<path clip-path="url(#clip870)" d="M0 800 L2000 800 L2000 -4.44089e-14 L0 -4.44089e-14  Z" fill="#ffffff" fill-rule="evenodd" fill-opacity="1"/>
<defs>
  <clipPath id="clip871">
    <rect x="400" y="0" width="1401" height="800"/>
  </clipPath>
</defs>
<path clip-path="url(#clip870)" d="M666.667 645.868 L1952.76 645.868 L1952.76 99.2801 L666.667 99.2801  Z" fill="#ffffff" fill-rule="evenodd" fill-opacity="1"/>
<defs>
  <clipPath id="clip872">
    <rect x="666" y="99" width="1287" height="548"/>
  </clipPath>
</defs>
<polyline clip-path="url(#clip872)" style="stroke:#000000; stroke-linecap:round; stroke-linejoin:round; stroke-width:2; stroke-opacity:0.1; fill:none" points="690.81,645.868 690.81,99.2801 "/>
<polyline clip-path="url(#clip872)" style="stroke:#000000; stroke-linecap:round; stroke-linejoin:round; stroke-width:2; stroke-opacity:0.1; fill:none" points="997.197,645.868 997.197,99.2801 "/>
<polyline clip-path="url(#clip872)" style="stroke:#000000; stroke-linecap:round; stroke-linejoin:round; stroke-width:2; stroke-opacity:0.1; fill:none" points="1303.58,645.868 1303.58,99.2801 "/>
<polyline clip-path="url(#clip872)" style="stroke:#000000; stroke-linecap:round; stroke-linejoin:round; stroke-width:2; stroke-opacity:0.1; fill:none" points="1609.97,645.868 1609.97,99.2801 "/>
<polyline clip-path="url(#clip872)" style="stroke:#000000; stroke-linecap:round; stroke-linejoin:round; stroke-width:2; stroke-opacity:0.1; fill:none" points="1916.36,645.868 1916.36,99.2801 "/>
<polyline clip-path="url(#clip872)" style="stroke:#000000; stroke-linecap:round; stroke-linejoin:round; stroke-width:2; stroke-opacity:0.1; fill:none" points="666.667,614.571 1952.76,614.571 "/>
<polyline clip-path="url(#clip872)" style="stroke:#000000; stroke-linecap:round; stroke-linejoin:round; stroke-width:2; stroke-opacity:0.1; fill:none" points="666.667,539.513 1952.76,539.513 "/>
<polyline clip-path="url(#clip872)" style="stroke:#000000; stroke-linecap:round; stroke-linejoin:round; stroke-width:2; stroke-opacity:0.1; fill:none" points="666.667,464.455 1952.76,464.455 "/>
<polyline clip-path="url(#clip872)" style="stroke:#000000; stroke-linecap:round; stroke-linejoin:round; stroke-width:2; stroke-opacity:0.1; fill:none" points="666.667,389.397 1952.76,389.397 "/>
<polyline clip-path="url(#clip872)" style="stroke:#000000; stroke-linecap:round; stroke-linejoin:round; stroke-width:2; stroke-opacity:0.1; fill:none" points="666.667,314.339 1952.76,314.339 "/>
<polyline clip-path="url(#clip872)" style="stroke:#000000; stroke-linecap:round; stroke-linejoin:round; stroke-width:2; stroke-opacity:0.1; fill:none" points="666.667,239.281 1952.76,239.281 "/>
<polyline clip-path="url(#clip872)" style="stroke:#000000; stroke-linecap:round; stroke-linejoin:round; stroke-width:2; stroke-opacity:0.1; fill:none" points="666.667,164.223 1952.76,164.223 "/>
<polyline clip-path="url(#clip870)" style="stroke:#000000; stroke-linecap:round; stroke-linejoin:round; stroke-width:4; stroke-opacity:1; fill:none" points="666.667,645.868 1952.76,645.868 "/>
<polyline clip-path="url(#clip870)" style="stroke:#000000; stroke-linecap:round; stroke-linejoin:round; stroke-width:4; stroke-opacity:1; fill:none" points="690.81,645.868 690.81,626.97 "/>
<polyline clip-path="url(#clip870)" style="stroke:#000000; stroke-linecap:round; stroke-linejoin:round; stroke-width:4; stroke-opacity:1; fill:none" points="997.197,645.868 997.197,626.97 "/>
<polyline clip-path="url(#clip870)" style="stroke:#000000; stroke-linecap:round; stroke-linejoin:round; stroke-width:4; stroke-opacity:1; fill:none" points="1303.58,645.868 1303.58,626.97 "/>
<polyline clip-path="url(#clip870)" style="stroke:#000000; stroke-linecap:round; stroke-linejoin:round; stroke-width:4; stroke-opacity:1; fill:none" points="1609.97,645.868 1609.97,626.97 "/>
<polyline clip-path="url(#clip870)" style="stroke:#000000; stroke-linecap:round; stroke-linejoin:round; stroke-width:4; stroke-opacity:1; fill:none" points="1916.36,645.868 1916.36,626.97 "/>
<path clip-path="url(#clip870)" d="M690.81 683.84 Q684.04 683.84 680.611 690.524 Q677.225 697.165 677.225 710.533 Q677.225 723.858 680.611 730.542 Q684.04 737.182 690.81 737.182 Q697.625 737.182 701.01 730.542 Q704.439 723.858 704.439 710.533 Q704.439 697.165 701.01 690.524 Q697.625 683.84 690.81 683.84 M690.81 676.896 Q701.704 676.896 707.434 685.533 Q713.206 694.127 713.206 710.533 Q713.206 726.896 707.434 735.533 Q701.704 744.127 690.81 744.127 Q679.916 744.127 674.144 735.533 Q668.415 726.896 668.415 710.533 Q668.415 694.127 674.144 685.533 Q679.916 676.896 690.81 676.896 Z" fill="#000000" fill-rule="nonzero" fill-opacity="1" /><path clip-path="url(#clip870)" d="M958.33 735.489 L988.929 735.489 L988.929 742.868 L947.783 742.868 L947.783 735.489 Q952.775 730.325 961.368 721.644 Q970.005 712.92 972.219 710.403 Q976.429 705.672 978.078 702.417 Q979.771 699.118 979.771 695.95 Q979.771 690.785 976.125 687.53 Q972.523 684.274 966.707 684.274 Q962.584 684.274 957.983 685.707 Q953.426 687.139 948.217 690.047 L948.217 681.193 Q953.512 679.066 958.113 677.981 Q962.714 676.896 966.533 676.896 Q976.603 676.896 982.592 681.931 Q988.582 686.965 988.582 695.385 Q988.582 699.378 987.063 702.981 Q985.587 706.54 981.637 711.401 Q980.552 712.66 974.736 718.693 Q968.92 724.682 958.33 735.489 Z" fill="#000000" fill-rule="nonzero" fill-opacity="1" /><path clip-path="url(#clip870)" d="M1007.42 678.068 L1041.84 678.068 L1041.84 685.446 L1015.45 685.446 L1015.45 701.332 Q1017.36 700.681 1019.27 700.377 Q1021.18 700.03 1023.09 700.03 Q1033.94 700.03 1040.27 705.976 Q1046.61 711.922 1046.61 722.078 Q1046.61 732.538 1040.1 738.354 Q1033.59 744.127 1021.74 744.127 Q1017.66 744.127 1013.41 743.432 Q1009.2 742.738 1004.68 741.349 L1004.68 732.538 Q1008.59 734.665 1012.76 735.706 Q1016.92 736.748 1021.57 736.748 Q1029.08 736.748 1033.46 732.798 Q1037.84 728.849 1037.84 722.078 Q1037.84 715.307 1033.46 711.358 Q1029.08 707.408 1021.57 707.408 Q1018.05 707.408 1014.54 708.189 Q1011.06 708.97 1007.42 710.62 L1007.42 678.068 Z" fill="#000000" fill-rule="nonzero" fill-opacity="1" /><path clip-path="url(#clip870)" d="M1256.14 678.068 L1290.56 678.068 L1290.56 685.446 L1264.17 685.446 L1264.17 701.332 Q1266.08 700.681 1267.99 700.377 Q1269.9 700.03 1271.81 700.03 Q1282.66 700.03 1289 705.976 Q1295.34 711.922 1295.34 722.078 Q1295.34 732.538 1288.83 738.354 Q1282.32 744.127 1270.47 744.127 Q1266.39 744.127 1262.13 743.432 Q1257.92 742.738 1253.41 741.349 L1253.41 732.538 Q1257.32 734.665 1261.48 735.706 Q1265.65 736.748 1270.29 736.748 Q1277.8 736.748 1282.19 732.798 Q1286.57 728.849 1286.57 722.078 Q1286.57 715.307 1282.19 711.358 Q1277.8 707.408 1270.29 707.408 Q1266.78 707.408 1263.26 708.189 Q1259.79 708.97 1256.14 710.62 L1256.14 678.068 Z" fill="#000000" fill-rule="nonzero" fill-opacity="1" /><path clip-path="url(#clip870)" d="M1331.36 683.84 Q1324.59 683.84 1321.16 690.524 Q1317.78 697.165 1317.78 710.533 Q1317.78 723.858 1321.16 730.542 Q1324.59 737.182 1331.36 737.182 Q1338.18 737.182 1341.56 730.542 Q1344.99 723.858 1344.99 710.533 Q1344.99 697.165 1341.56 690.524 Q1338.18 683.84 1331.36 683.84 M1331.36 676.896 Q1342.26 676.896 1347.98 685.533 Q1353.76 694.127 1353.76 710.533 Q1353.76 726.896 1347.98 735.533 Q1342.26 744.127 1331.36 744.127 Q1320.47 744.127 1314.69 735.533 Q1308.97 726.896 1308.97 710.533 Q1308.97 694.127 1314.69 685.533 Q1320.47 676.896 1331.36 676.896 Z" fill="#000000" fill-rule="nonzero" fill-opacity="1" /><path clip-path="url(#clip870)" d="M1560.95 678.068 L1602.61 678.068 L1602.61 681.8 L1579.09 742.868 L1569.93 742.868 L1592.07 685.446 L1560.95 685.446 L1560.95 678.068 Z" fill="#000000" fill-rule="nonzero" fill-opacity="1" /><path clip-path="url(#clip870)" d="M1619.8 678.068 L1654.22 678.068 L1654.22 685.446 L1627.83 685.446 L1627.83 701.332 Q1629.74 700.681 1631.65 700.377 Q1633.56 700.03 1635.47 700.03 Q1646.32 700.03 1652.66 705.976 Q1658.99 711.922 1658.99 722.078 Q1658.99 732.538 1652.48 738.354 Q1645.97 744.127 1634.12 744.127 Q1630.04 744.127 1625.79 743.432 Q1621.58 742.738 1617.07 741.349 L1617.07 732.538 Q1620.97 734.665 1625.14 735.706 Q1629.31 736.748 1633.95 736.748 Q1641.46 736.748 1645.84 732.798 Q1650.23 728.849 1650.23 722.078 Q1650.23 715.307 1645.84 711.358 Q1641.46 707.408 1633.95 707.408 Q1630.43 707.408 1626.92 708.189 Q1623.45 708.97 1619.8 710.62 L1619.8 678.068 Z" fill="#000000" fill-rule="nonzero" fill-opacity="1" /><path clip-path="url(#clip870)" d="M1840.62 735.489 L1854.94 735.489 L1854.94 686.054 L1839.36 689.179 L1839.36 681.193 L1854.86 678.068 L1863.62 678.068 L1863.62 735.489 L1877.95 735.489 L1877.95 742.868 L1840.62 742.868 L1840.62 735.489 Z" fill="#000000" fill-rule="nonzero" fill-opacity="1" /><path clip-path="url(#clip870)" d="M1914.4 683.84 Q1907.63 683.84 1904.2 690.524 Q1900.82 697.165 1900.82 710.533 Q1900.82 723.858 1904.2 730.542 Q1907.63 737.182 1914.4 737.182 Q1921.22 737.182 1924.6 730.542 Q1928.03 723.858 1928.03 710.533 Q1928.03 697.165 1924.6 690.524 Q1921.22 683.84 1914.4 683.84 M1914.4 676.896 Q1925.3 676.896 1931.03 685.533 Q1936.8 694.127 1936.8 710.533 Q1936.8 726.896 1931.03 735.533 Q1925.3 744.127 1914.4 744.127 Q1903.51 744.127 1897.74 735.533 Q1892.01 726.896 1892.01 710.533 Q1892.01 694.127 1897.74 685.533 Q1903.51 676.896 1914.4 676.896 Z" fill="#000000" fill-rule="nonzero" fill-opacity="1" /><path clip-path="url(#clip870)" d="M1970.96 683.84 Q1964.19 683.84 1960.76 690.524 Q1957.37 697.165 1957.37 710.533 Q1957.37 723.858 1960.76 730.542 Q1964.19 737.182 1970.96 737.182 Q1977.77 737.182 1981.16 730.542 Q1984.59 723.858 1984.59 710.533 Q1984.59 697.165 1981.16 690.524 Q1977.77 683.84 1970.96 683.84 M1970.96 676.896 Q1981.85 676.896 1987.58 685.533 Q1993.35 694.127 1993.35 710.533 Q1993.35 726.896 1987.58 735.533 Q1981.85 744.127 1970.96 744.127 Q1960.06 744.127 1954.29 735.533 Q1948.56 726.896 1948.56 710.533 Q1948.56 694.127 1954.29 685.533 Q1960.06 676.896 1970.96 676.896 Z" fill="#000000" fill-rule="nonzero" fill-opacity="1" /><path clip-path="url(#clip870)" d="M1308.77 784.322 L1308.77 794.444 L1320.84 794.444 L1320.84 798.995 L1308.77 798.995 L1308.77 818.347 Q1308.77 822.708 1309.95 823.949 Q1311.16 825.19 1314.82 825.19 L1320.84 825.19 L1320.84 830.092 L1314.82 830.092 Q1308.04 830.092 1305.46 827.577 Q1302.88 825.031 1302.88 818.347 L1302.88 798.995 L1298.59 798.995 L1298.59 794.444 L1302.88 794.444 L1302.88 784.322 L1308.77 784.322 Z" fill="#000000" fill-rule="nonzero" fill-opacity="1" /><polyline clip-path="url(#clip870)" style="stroke:#000000; stroke-linecap:round; stroke-linejoin:round; stroke-width:4; stroke-opacity:1; fill:none" points="666.667,645.868 666.667,99.2801 "/>
<polyline clip-path="url(#clip870)" style="stroke:#000000; stroke-linecap:round; stroke-linejoin:round; stroke-width:4; stroke-opacity:1; fill:none" points="666.667,614.571 685.565,614.571 "/>
<polyline clip-path="url(#clip870)" style="stroke:#000000; stroke-linecap:round; stroke-linejoin:round; stroke-width:4; stroke-opacity:1; fill:none" points="666.667,539.513 685.565,539.513 "/>
<polyline clip-path="url(#clip870)" style="stroke:#000000; stroke-linecap:round; stroke-linejoin:round; stroke-width:4; stroke-opacity:1; fill:none" points="666.667,464.455 685.565,464.455 "/>
<polyline clip-path="url(#clip870)" style="stroke:#000000; stroke-linecap:round; stroke-linejoin:round; stroke-width:4; stroke-opacity:1; fill:none" points="666.667,389.397 685.565,389.397 "/>
<polyline clip-path="url(#clip870)" style="stroke:#000000; stroke-linecap:round; stroke-linejoin:round; stroke-width:4; stroke-opacity:1; fill:none" points="666.667,314.339 685.565,314.339 "/>
<polyline clip-path="url(#clip870)" style="stroke:#000000; stroke-linecap:round; stroke-linejoin:round; stroke-width:4; stroke-opacity:1; fill:none" points="666.667,239.281 685.565,239.281 "/>
<polyline clip-path="url(#clip870)" style="stroke:#000000; stroke-linecap:round; stroke-linejoin:round; stroke-width:4; stroke-opacity:1; fill:none" points="666.667,164.223 685.565,164.223 "/>
<path clip-path="url(#clip870)" d="M97.2522 627.507 L152.894 627.507 L152.894 634.885 L97.2522 634.885 L97.2522 627.507 Z" fill="#000000" fill-rule="nonzero" fill-opacity="1" /><path clip-path="url(#clip870)" d="M173.337 651.682 L187.66 651.682 L187.66 602.246 L172.078 605.371 L172.078 597.385 L187.573 594.26 L196.34 594.26 L196.34 651.682 L210.663 651.682 L210.663 659.06 L173.337 659.06 L173.337 651.682 Z" fill="#000000" fill-rule="nonzero" fill-opacity="1" /><path clip-path="url(#clip870)" d="M228.371 648.036 L237.529 648.036 L237.529 659.06 L228.371 659.06 L228.371 648.036 Z" fill="#000000" fill-rule="nonzero" fill-opacity="1" /><path clip-path="url(#clip870)" d="M256.713 594.26 L291.131 594.26 L291.131 601.639 L264.743 601.639 L264.743 617.524 Q266.652 616.873 268.562 616.569 Q270.472 616.222 272.381 616.222 Q283.232 616.222 289.569 622.168 Q295.906 628.114 295.906 638.271 Q295.906 648.731 289.395 654.547 Q282.885 660.319 271.036 660.319 Q266.956 660.319 262.703 659.625 Q258.493 658.93 253.979 657.541 L253.979 648.731 Q257.885 650.857 262.052 651.899 Q266.218 652.941 270.862 652.941 Q278.371 652.941 282.755 648.991 Q287.138 645.041 287.138 638.271 Q287.138 631.5 282.755 627.55 Q278.371 623.601 270.862 623.601 Q267.347 623.601 263.831 624.382 Q260.359 625.163 256.713 626.812 L256.713 594.26 Z" fill="#000000" fill-rule="nonzero" fill-opacity="1" /><path clip-path="url(#clip870)" d="M331.93 600.033 Q325.159 600.033 321.73 606.717 Q318.345 613.358 318.345 626.726 Q318.345 640.05 321.73 646.734 Q325.159 653.375 331.93 653.375 Q338.744 653.375 342.129 646.734 Q345.558 640.05 345.558 626.726 Q345.558 613.358 342.129 606.717 Q338.744 600.033 331.93 600.033 M331.93 593.089 Q342.824 593.089 348.553 601.726 Q354.325 610.319 354.325 626.726 Q354.325 643.088 348.553 651.725 Q342.824 660.319 331.93 660.319 Q321.036 660.319 315.263 651.725 Q309.534 643.088 309.534 626.726 Q309.534 610.319 315.263 601.726 Q321.036 593.089 331.93 593.089 Z" fill="#000000" fill-rule="nonzero" fill-opacity="1" /><path clip-path="url(#clip870)" d="M422.554 611.318 L402.719 631.239 L422.554 651.074 L417.389 656.326 L397.468 636.404 L377.546 656.326 L372.424 651.074 L392.216 631.239 L372.424 611.318 L377.546 606.066 L397.468 625.988 L417.389 606.066 L422.554 611.318 Z" fill="#000000" fill-rule="nonzero" fill-opacity="1" /><path clip-path="url(#clip870)" d="M445.731 651.682 L460.054 651.682 L460.054 602.246 L444.473 605.371 L444.473 597.385 L459.967 594.26 L468.735 594.26 L468.735 651.682 L483.057 651.682 L483.057 659.06 L445.731 659.06 L445.731 651.682 Z" fill="#000000" fill-rule="nonzero" fill-opacity="1" /><path clip-path="url(#clip870)" d="M519.516 600.033 Q512.745 600.033 509.316 606.717 Q505.931 613.358 505.931 626.726 Q505.931 640.05 509.316 646.734 Q512.745 653.375 519.516 653.375 Q526.33 653.375 529.715 646.734 Q533.144 640.05 533.144 626.726 Q533.144 613.358 529.715 606.717 Q526.33 600.033 519.516 600.033 M519.516 593.089 Q530.41 593.089 536.139 601.726 Q541.911 610.319 541.911 626.726 Q541.911 643.088 536.139 651.725 Q530.41 660.319 519.516 660.319 Q508.621 660.319 502.849 651.725 Q497.12 643.088 497.12 626.726 Q497.12 610.319 502.849 601.726 Q508.621 593.089 519.516 593.089 Z" fill="#000000" fill-rule="nonzero" fill-opacity="1" /><path clip-path="url(#clip870)" d="M541.911 582.029 L587.12 582.029 L587.12 588.024 L541.911 588.024 L541.911 582.029 Z" fill="#000000" fill-rule="nonzero" fill-opacity="1" /><path clip-path="url(#clip870)" d="M622.068 561.222 L604.083 589.328 L622.068 589.328 L622.068 561.222 M620.199 555.016 L629.156 555.016 L629.156 589.328 L636.667 589.328 L636.667 595.253 L629.156 595.253 L629.156 607.666 L622.068 607.666 L622.068 595.253 L598.299 595.253 L598.299 588.376 L620.199 555.016 Z" fill="#000000" fill-rule="nonzero" fill-opacity="1" /><path clip-path="url(#clip870)" d="M97.2522 552.449 L152.894 552.449 L152.894 559.827 L97.2522 559.827 L97.2522 552.449 Z" fill="#000000" fill-rule="nonzero" fill-opacity="1" /><path clip-path="url(#clip870)" d="M173.337 576.624 L187.66 576.624 L187.66 527.189 L172.078 530.314 L172.078 522.327 L187.573 519.202 L196.34 519.202 L196.34 576.624 L210.663 576.624 L210.663 584.002 L173.337 584.002 L173.337 576.624 Z" fill="#000000" fill-rule="nonzero" fill-opacity="1" /><path clip-path="url(#clip870)" d="M228.371 572.978 L237.529 572.978 L237.529 584.002 L228.371 584.002 L228.371 572.978 Z" fill="#000000" fill-rule="nonzero" fill-opacity="1" /><path clip-path="url(#clip870)" d="M275.376 524.975 Q268.605 524.975 265.177 531.659 Q261.791 538.3 261.791 551.668 Q261.791 564.992 265.177 571.676 Q268.605 578.317 275.376 578.317 Q282.19 578.317 285.576 571.676 Q289.005 564.992 289.005 551.668 Q289.005 538.3 285.576 531.659 Q282.19 524.975 275.376 524.975 M275.376 518.031 Q286.27 518.031 291.999 526.668 Q297.772 535.261 297.772 551.668 Q297.772 568.03 291.999 576.667 Q286.27 585.261 275.376 585.261 Q264.482 585.261 258.71 576.667 Q252.98 568.03 252.98 551.668 Q252.98 535.261 258.71 526.668 Q264.482 518.031 275.376 518.031 Z" fill="#000000" fill-rule="nonzero" fill-opacity="1" /><path clip-path="url(#clip870)" d="M331.93 524.975 Q325.159 524.975 321.73 531.659 Q318.345 538.3 318.345 551.668 Q318.345 564.992 321.73 571.676 Q325.159 578.317 331.93 578.317 Q338.744 578.317 342.129 571.676 Q345.558 564.992 345.558 551.668 Q345.558 538.3 342.129 531.659 Q338.744 524.975 331.93 524.975 M331.93 518.031 Q342.824 518.031 348.553 526.668 Q354.325 535.261 354.325 551.668 Q354.325 568.03 348.553 576.667 Q342.824 585.261 331.93 585.261 Q321.036 585.261 315.263 576.667 Q309.534 568.03 309.534 551.668 Q309.534 535.261 315.263 526.668 Q321.036 518.031 331.93 518.031 Z" fill="#000000" fill-rule="nonzero" fill-opacity="1" /><path clip-path="url(#clip870)" d="M422.554 536.26 L402.719 556.181 L422.554 576.016 L417.389 581.268 L397.468 561.346 L377.546 581.268 L372.424 576.016 L392.216 556.181 L372.424 536.26 L377.546 531.008 L397.468 550.93 L417.389 531.008 L422.554 536.26 Z" fill="#000000" fill-rule="nonzero" fill-opacity="1" /><path clip-path="url(#clip870)" d="M445.731 576.624 L460.054 576.624 L460.054 527.189 L444.473 530.314 L444.473 522.327 L459.967 519.202 L468.735 519.202 L468.735 576.624 L483.057 576.624 L483.057 584.002 L445.731 584.002 L445.731 576.624 Z" fill="#000000" fill-rule="nonzero" fill-opacity="1" /><path clip-path="url(#clip870)" d="M519.516 524.975 Q512.745 524.975 509.316 531.659 Q505.931 538.3 505.931 551.668 Q505.931 564.992 509.316 571.676 Q512.745 578.317 519.516 578.317 Q526.33 578.317 529.715 571.676 Q533.144 564.992 533.144 551.668 Q533.144 538.3 529.715 531.659 Q526.33 524.975 519.516 524.975 M519.516 518.031 Q530.41 518.031 536.139 526.668 Q541.911 535.261 541.911 551.668 Q541.911 568.03 536.139 576.667 Q530.41 585.261 519.516 585.261 Q508.621 585.261 502.849 576.667 Q497.12 568.03 497.12 551.668 Q497.12 535.261 502.849 526.668 Q508.621 518.031 519.516 518.031 Z" fill="#000000" fill-rule="nonzero" fill-opacity="1" /><path clip-path="url(#clip870)" d="M541.911 506.971 L587.12 506.971 L587.12 512.966 L541.911 512.966 L541.911 506.971 Z" fill="#000000" fill-rule="nonzero" fill-opacity="1" /><path clip-path="url(#clip870)" d="M622.068 486.165 L604.083 514.27 L622.068 514.27 L622.068 486.165 M620.199 479.958 L629.156 479.958 L629.156 514.27 L636.667 514.27 L636.667 520.195 L629.156 520.195 L629.156 532.608 L622.068 532.608 L622.068 520.195 L598.299 520.195 L598.299 513.318 L620.199 479.958 Z" fill="#000000" fill-rule="nonzero" fill-opacity="1" /><path clip-path="url(#clip870)" d="M99.5091 477.391 L155.151 477.391 L155.151 484.769 L99.5091 484.769 L99.5091 477.391 Z" fill="#000000" fill-rule="nonzero" fill-opacity="1" /><path clip-path="url(#clip870)" d="M174.161 444.145 L208.58 444.145 L208.58 451.523 L182.191 451.523 L182.191 467.408 Q184.101 466.757 186.01 466.453 Q187.92 466.106 189.83 466.106 Q200.68 466.106 207.017 472.052 Q213.354 477.998 213.354 488.155 Q213.354 498.615 206.844 504.431 Q200.333 510.203 188.484 510.203 Q184.404 510.203 180.151 509.509 Q175.941 508.814 171.427 507.425 L171.427 498.615 Q175.333 500.741 179.5 501.783 Q183.667 502.825 188.311 502.825 Q195.819 502.825 200.203 498.875 Q204.587 494.925 204.587 488.155 Q204.587 481.384 200.203 477.434 Q195.819 473.485 188.311 473.485 Q184.795 473.485 181.279 474.266 Q177.807 475.047 174.161 476.696 L174.161 444.145 Z" fill="#000000" fill-rule="nonzero" fill-opacity="1" /><path clip-path="url(#clip870)" d="M230.628 497.92 L239.786 497.92 L239.786 508.945 L230.628 508.945 L230.628 497.92 Z" fill="#000000" fill-rule="nonzero" fill-opacity="1" /><path clip-path="url(#clip870)" d="M277.633 449.917 Q270.862 449.917 267.434 456.601 Q264.048 463.242 264.048 476.61 Q264.048 489.934 267.434 496.618 Q270.862 503.259 277.633 503.259 Q284.447 503.259 287.833 496.618 Q291.262 489.934 291.262 476.61 Q291.262 463.242 287.833 456.601 Q284.447 449.917 277.633 449.917 M277.633 442.973 Q288.527 442.973 294.256 451.61 Q300.029 460.203 300.029 476.61 Q300.029 492.972 294.256 501.609 Q288.527 510.203 277.633 510.203 Q266.739 510.203 260.967 501.609 Q255.237 492.972 255.237 476.61 Q255.237 460.203 260.967 451.61 Q266.739 442.973 277.633 442.973 Z" fill="#000000" fill-rule="nonzero" fill-opacity="1" /><path clip-path="url(#clip870)" d="M334.187 449.917 Q327.416 449.917 323.987 456.601 Q320.602 463.242 320.602 476.61 Q320.602 489.934 323.987 496.618 Q327.416 503.259 334.187 503.259 Q341.001 503.259 344.386 496.618 Q347.815 489.934 347.815 476.61 Q347.815 463.242 344.386 456.601 Q341.001 449.917 334.187 449.917 M334.187 442.973 Q345.081 442.973 350.81 451.61 Q356.582 460.203 356.582 476.61 Q356.582 492.972 350.81 501.609 Q345.081 510.203 334.187 510.203 Q323.293 510.203 317.52 501.609 Q311.791 492.972 311.791 476.61 Q311.791 460.203 317.52 451.61 Q323.293 442.973 334.187 442.973 Z" fill="#000000" fill-rule="nonzero" fill-opacity="1" /><path clip-path="url(#clip870)" d="M424.811 461.202 L404.976 481.123 L424.811 500.958 L419.646 506.21 L399.724 486.288 L379.803 506.21 L374.681 500.958 L394.473 481.123 L374.681 461.202 L379.803 455.95 L399.724 475.872 L419.646 455.95 L424.811 461.202 Z" fill="#000000" fill-rule="nonzero" fill-opacity="1" /><path clip-path="url(#clip870)" d="M447.988 501.566 L462.311 501.566 L462.311 452.131 L446.729 455.256 L446.729 447.269 L462.224 444.145 L470.991 444.145 L470.991 501.566 L485.314 501.566 L485.314 508.945 L447.988 508.945 L447.988 501.566 Z" fill="#000000" fill-rule="nonzero" fill-opacity="1" /><path clip-path="url(#clip870)" d="M521.772 449.917 Q515.002 449.917 511.573 456.601 Q508.187 463.242 508.187 476.61 Q508.187 489.934 511.573 496.618 Q515.002 503.259 521.772 503.259 Q528.587 503.259 531.972 496.618 Q535.401 489.934 535.401 476.61 Q535.401 463.242 531.972 456.601 Q528.587 449.917 521.772 449.917 M521.772 442.973 Q532.666 442.973 538.396 451.61 Q544.168 460.203 544.168 476.61 Q544.168 492.972 538.396 501.609 Q532.666 510.203 521.772 510.203 Q510.878 510.203 505.106 501.609 Q499.377 492.972 499.377 476.61 Q499.377 460.203 505.106 451.61 Q510.878 442.973 521.772 442.973 Z" fill="#000000" fill-rule="nonzero" fill-opacity="1" /><path clip-path="url(#clip870)" d="M544.168 431.913 L589.377 431.913 L589.377 437.908 L544.168 437.908 L544.168 431.913 Z" fill="#000000" fill-rule="nonzero" fill-opacity="1" /><path clip-path="url(#clip870)" d="M604.823 404.9 L632.788 404.9 L632.788 410.895 L611.347 410.895 L611.347 423.802 Q612.899 423.273 614.45 423.026 Q616.002 422.744 617.554 422.744 Q626.37 422.744 631.519 427.575 Q636.667 432.406 636.667 440.658 Q636.667 449.157 631.377 453.882 Q626.088 458.573 616.461 458.573 Q613.146 458.573 609.69 458.008 Q606.269 457.444 602.602 456.316 L602.602 449.157 Q605.775 450.885 609.161 451.731 Q612.546 452.578 616.319 452.578 Q622.42 452.578 625.982 449.369 Q629.544 446.16 629.544 440.658 Q629.544 435.157 625.982 431.948 Q622.42 428.739 616.319 428.739 Q613.463 428.739 610.607 429.374 Q607.785 430.008 604.823 431.348 L604.823 404.9 Z" fill="#000000" fill-rule="nonzero" fill-opacity="1" /><path clip-path="url(#clip870)" d="M614.271 362.77 Q607.501 362.77 604.072 369.454 Q600.686 376.094 600.686 389.462 Q600.686 402.787 604.072 409.471 Q607.501 416.112 614.271 416.112 Q621.086 416.112 624.471 409.471 Q627.9 402.787 627.9 389.462 Q627.9 376.094 624.471 369.454 Q621.086 362.77 614.271 362.77 M614.271 355.825 Q625.165 355.825 630.895 364.463 Q636.667 373.056 636.667 389.462 Q636.667 405.825 630.895 414.462 Q625.165 423.056 614.271 423.056 Q603.377 423.056 597.605 414.462 Q591.876 405.825 591.876 389.462 Q591.876 373.056 597.605 364.463 Q603.377 355.825 614.271 355.825 Z" fill="#000000" fill-rule="nonzero" fill-opacity="1" /><path clip-path="url(#clip870)" d="M174.161 294.029 L208.58 294.029 L208.58 301.407 L182.191 301.407 L182.191 317.292 Q184.101 316.641 186.01 316.338 Q187.92 315.99 189.83 315.99 Q200.68 315.99 207.017 321.936 Q213.354 327.883 213.354 338.039 Q213.354 348.499 206.844 354.315 Q200.333 360.087 188.484 360.087 Q184.404 360.087 180.151 359.393 Q175.941 358.698 171.427 357.31 L171.427 348.499 Q175.333 350.626 179.5 351.667 Q183.667 352.709 188.311 352.709 Q195.819 352.709 200.203 348.759 Q204.587 344.81 204.587 338.039 Q204.587 331.268 200.203 327.318 Q195.819 323.369 188.311 323.369 Q184.795 323.369 181.279 324.15 Q177.807 324.931 174.161 326.581 L174.161 294.029 Z" fill="#000000" fill-rule="nonzero" fill-opacity="1" /><path clip-path="url(#clip870)" d="M230.628 347.804 L239.786 347.804 L239.786 358.829 L230.628 358.829 L230.628 347.804 Z" fill="#000000" fill-rule="nonzero" fill-opacity="1" /><path clip-path="url(#clip870)" d="M277.633 299.801 Q270.862 299.801 267.434 306.485 Q264.048 313.126 264.048 326.494 Q264.048 339.818 267.434 346.502 Q270.862 353.143 277.633 353.143 Q284.447 353.143 287.833 346.502 Q291.262 339.818 291.262 326.494 Q291.262 313.126 287.833 306.485 Q284.447 299.801 277.633 299.801 M277.633 292.857 Q288.527 292.857 294.256 301.494 Q300.029 310.088 300.029 326.494 Q300.029 342.856 294.256 351.494 Q288.527 360.087 277.633 360.087 Q266.739 360.087 260.967 351.494 Q255.237 342.856 255.237 326.494 Q255.237 310.088 260.967 301.494 Q266.739 292.857 277.633 292.857 Z" fill="#000000" fill-rule="nonzero" fill-opacity="1" /><path clip-path="url(#clip870)" d="M334.187 299.801 Q327.416 299.801 323.987 306.485 Q320.602 313.126 320.602 326.494 Q320.602 339.818 323.987 346.502 Q327.416 353.143 334.187 353.143 Q341.001 353.143 344.386 346.502 Q347.815 339.818 347.815 326.494 Q347.815 313.126 344.386 306.485 Q341.001 299.801 334.187 299.801 M334.187 292.857 Q345.081 292.857 350.81 301.494 Q356.582 310.088 356.582 326.494 Q356.582 342.856 350.81 351.494 Q345.081 360.087 334.187 360.087 Q323.293 360.087 317.52 351.494 Q311.791 342.856 311.791 326.494 Q311.791 310.088 317.52 301.494 Q323.293 292.857 334.187 292.857 Z" fill="#000000" fill-rule="nonzero" fill-opacity="1" /><path clip-path="url(#clip870)" d="M424.811 311.086 L404.976 331.008 L424.811 350.843 L419.646 356.094 L399.724 336.172 L379.803 356.094 L374.681 350.843 L394.473 331.008 L374.681 311.086 L379.803 305.834 L399.724 325.756 L419.646 305.834 L424.811 311.086 Z" fill="#000000" fill-rule="nonzero" fill-opacity="1" /><path clip-path="url(#clip870)" d="M447.988 351.45 L462.311 351.45 L462.311 302.015 L446.729 305.14 L446.729 297.154 L462.224 294.029 L470.991 294.029 L470.991 351.45 L485.314 351.45 L485.314 358.829 L447.988 358.829 L447.988 351.45 Z" fill="#000000" fill-rule="nonzero" fill-opacity="1" /><path clip-path="url(#clip870)" d="M521.772 299.801 Q515.002 299.801 511.573 306.485 Q508.187 313.126 508.187 326.494 Q508.187 339.818 511.573 346.502 Q515.002 353.143 521.772 353.143 Q528.587 353.143 531.972 346.502 Q535.401 339.818 535.401 326.494 Q535.401 313.126 531.972 306.485 Q528.587 299.801 521.772 299.801 M521.772 292.857 Q532.666 292.857 538.396 301.494 Q544.168 310.088 544.168 326.494 Q544.168 342.856 538.396 351.494 Q532.666 360.087 521.772 360.087 Q510.878 360.087 505.106 351.494 Q499.377 342.856 499.377 326.494 Q499.377 310.088 505.106 301.494 Q510.878 292.857 521.772 292.857 Z" fill="#000000" fill-rule="nonzero" fill-opacity="1" /><path clip-path="url(#clip870)" d="M544.168 281.797 L589.377 281.797 L589.377 287.792 L544.168 287.792 L544.168 281.797 Z" fill="#000000" fill-rule="nonzero" fill-opacity="1" /><path clip-path="url(#clip870)" d="M604.823 254.784 L632.788 254.784 L632.788 260.779 L611.347 260.779 L611.347 273.686 Q612.899 273.157 614.45 272.91 Q616.002 272.628 617.554 272.628 Q626.37 272.628 631.519 277.459 Q636.667 282.29 636.667 290.542 Q636.667 299.041 631.377 303.767 Q626.088 308.457 616.461 308.457 Q613.146 308.457 609.69 307.893 Q606.269 307.328 602.602 306.2 L602.602 299.041 Q605.775 300.769 609.161 301.615 Q612.546 302.462 616.319 302.462 Q622.42 302.462 625.982 299.253 Q629.544 296.044 629.544 290.542 Q629.544 285.041 625.982 281.832 Q622.42 278.623 616.319 278.623 Q613.463 278.623 610.607 279.258 Q607.785 279.892 604.823 281.233 L604.823 254.784 Z" fill="#000000" fill-rule="nonzero" fill-opacity="1" /><path clip-path="url(#clip870)" d="M173.337 276.392 L187.66 276.392 L187.66 226.957 L172.078 230.082 L172.078 222.096 L187.573 218.971 L196.34 218.971 L196.34 276.392 L210.663 276.392 L210.663 283.771 L173.337 283.771 L173.337 276.392 Z" fill="#000000" fill-rule="nonzero" fill-opacity="1" /><path clip-path="url(#clip870)" d="M228.371 272.746 L237.529 272.746 L237.529 283.771 L228.371 283.771 L228.371 272.746 Z" fill="#000000" fill-rule="nonzero" fill-opacity="1" /><path clip-path="url(#clip870)" d="M275.376 224.743 Q268.605 224.743 265.177 231.427 Q261.791 238.068 261.791 251.436 Q261.791 264.76 265.177 271.444 Q268.605 278.085 275.376 278.085 Q282.19 278.085 285.576 271.444 Q289.005 264.76 289.005 251.436 Q289.005 238.068 285.576 231.427 Q282.19 224.743 275.376 224.743 M275.376 217.799 Q286.27 217.799 291.999 226.436 Q297.772 235.03 297.772 251.436 Q297.772 267.799 291.999 276.436 Q286.27 285.029 275.376 285.029 Q264.482 285.029 258.71 276.436 Q252.98 267.799 252.98 251.436 Q252.98 235.03 258.71 226.436 Q264.482 217.799 275.376 217.799 Z" fill="#000000" fill-rule="nonzero" fill-opacity="1" /><path clip-path="url(#clip870)" d="M331.93 224.743 Q325.159 224.743 321.73 231.427 Q318.345 238.068 318.345 251.436 Q318.345 264.76 321.73 271.444 Q325.159 278.085 331.93 278.085 Q338.744 278.085 342.129 271.444 Q345.558 264.76 345.558 251.436 Q345.558 238.068 342.129 231.427 Q338.744 224.743 331.93 224.743 M331.93 217.799 Q342.824 217.799 348.553 226.436 Q354.325 235.03 354.325 251.436 Q354.325 267.799 348.553 276.436 Q342.824 285.029 331.93 285.029 Q321.036 285.029 315.263 276.436 Q309.534 267.799 309.534 251.436 Q309.534 235.03 315.263 226.436 Q321.036 217.799 331.93 217.799 Z" fill="#000000" fill-rule="nonzero" fill-opacity="1" /><path clip-path="url(#clip870)" d="M422.554 236.028 L402.719 255.95 L422.554 275.785 L417.389 281.036 L397.468 261.115 L377.546 281.036 L372.424 275.785 L392.216 255.95 L372.424 236.028 L377.546 230.776 L397.468 250.698 L417.389 230.776 L422.554 236.028 Z" fill="#000000" fill-rule="nonzero" fill-opacity="1" /><path clip-path="url(#clip870)" d="M445.731 276.392 L460.054 276.392 L460.054 226.957 L444.473 230.082 L444.473 222.096 L459.967 218.971 L468.735 218.971 L468.735 276.392 L483.057 276.392 L483.057 283.771 L445.731 283.771 L445.731 276.392 Z" fill="#000000" fill-rule="nonzero" fill-opacity="1" /><path clip-path="url(#clip870)" d="M519.516 224.743 Q512.745 224.743 509.316 231.427 Q505.931 238.068 505.931 251.436 Q505.931 264.76 509.316 271.444 Q512.745 278.085 519.516 278.085 Q526.33 278.085 529.715 271.444 Q533.144 264.76 533.144 251.436 Q533.144 238.068 529.715 231.427 Q526.33 224.743 519.516 224.743 M519.516 217.799 Q530.41 217.799 536.139 226.436 Q541.911 235.03 541.911 251.436 Q541.911 267.799 536.139 276.436 Q530.41 285.029 519.516 285.029 Q508.621 285.029 502.849 276.436 Q497.12 267.799 497.12 251.436 Q497.12 235.03 502.849 226.436 Q508.621 217.799 519.516 217.799 Z" fill="#000000" fill-rule="nonzero" fill-opacity="1" /><path clip-path="url(#clip870)" d="M541.911 206.739 L587.12 206.739 L587.12 212.734 L541.911 212.734 L541.911 206.739 Z" fill="#000000" fill-rule="nonzero" fill-opacity="1" /><path clip-path="url(#clip870)" d="M622.068 185.933 L604.083 214.039 L622.068 214.039 L622.068 185.933 M620.199 179.726 L629.156 179.726 L629.156 214.039 L636.667 214.039 L636.667 219.963 L629.156 219.963 L629.156 232.376 L622.068 232.376 L622.068 219.963 L598.299 219.963 L598.299 213.086 L620.199 179.726 Z" fill="#000000" fill-rule="nonzero" fill-opacity="1" /><path clip-path="url(#clip870)" d="M173.337 201.334 L187.66 201.334 L187.66 151.899 L172.078 155.024 L172.078 147.038 L187.573 143.913 L196.34 143.913 L196.34 201.334 L210.663 201.334 L210.663 208.713 L173.337 208.713 L173.337 201.334 Z" fill="#000000" fill-rule="nonzero" fill-opacity="1" /><path clip-path="url(#clip870)" d="M228.371 197.688 L237.529 197.688 L237.529 208.713 L228.371 208.713 L228.371 197.688 Z" fill="#000000" fill-rule="nonzero" fill-opacity="1" /><path clip-path="url(#clip870)" d="M256.713 143.913 L291.131 143.913 L291.131 151.291 L264.743 151.291 L264.743 167.176 Q266.652 166.525 268.562 166.222 Q270.472 165.874 272.381 165.874 Q283.232 165.874 289.569 171.821 Q295.906 177.767 295.906 187.923 Q295.906 198.383 289.395 204.199 Q282.885 209.971 271.036 209.971 Q266.956 209.971 262.703 209.277 Q258.493 208.583 253.979 207.194 L253.979 198.383 Q257.885 200.51 262.052 201.551 Q266.218 202.593 270.862 202.593 Q278.371 202.593 282.755 198.643 Q287.138 194.694 287.138 187.923 Q287.138 181.152 282.755 177.202 Q278.371 173.253 270.862 173.253 Q267.347 173.253 263.831 174.034 Q260.359 174.815 256.713 176.465 L256.713 143.913 Z" fill="#000000" fill-rule="nonzero" fill-opacity="1" /><path clip-path="url(#clip870)" d="M331.93 149.685 Q325.159 149.685 321.73 156.369 Q318.345 163.01 318.345 176.378 Q318.345 189.702 321.73 196.386 Q325.159 203.027 331.93 203.027 Q338.744 203.027 342.129 196.386 Q345.558 189.702 345.558 176.378 Q345.558 163.01 342.129 156.369 Q338.744 149.685 331.93 149.685 M331.93 142.741 Q342.824 142.741 348.553 151.378 Q354.325 159.972 354.325 176.378 Q354.325 192.741 348.553 201.378 Q342.824 209.971 331.93 209.971 Q321.036 209.971 315.263 201.378 Q309.534 192.741 309.534 176.378 Q309.534 159.972 315.263 151.378 Q321.036 142.741 331.93 142.741 Z" fill="#000000" fill-rule="nonzero" fill-opacity="1" /><path clip-path="url(#clip870)" d="M422.554 160.97 L402.719 180.892 L422.554 200.727 L417.389 205.978 L397.468 186.057 L377.546 205.978 L372.424 200.727 L392.216 180.892 L372.424 160.97 L377.546 155.718 L397.468 175.64 L417.389 155.718 L422.554 160.97 Z" fill="#000000" fill-rule="nonzero" fill-opacity="1" /><path clip-path="url(#clip870)" d="M445.731 201.334 L460.054 201.334 L460.054 151.899 L444.473 155.024 L444.473 147.038 L459.967 143.913 L468.735 143.913 L468.735 201.334 L483.057 201.334 L483.057 208.713 L445.731 208.713 L445.731 201.334 Z" fill="#000000" fill-rule="nonzero" fill-opacity="1" /><path clip-path="url(#clip870)" d="M519.516 149.685 Q512.745 149.685 509.316 156.369 Q505.931 163.01 505.931 176.378 Q505.931 189.702 509.316 196.386 Q512.745 203.027 519.516 203.027 Q526.33 203.027 529.715 196.386 Q533.144 189.702 533.144 176.378 Q533.144 163.01 529.715 156.369 Q526.33 149.685 519.516 149.685 M519.516 142.741 Q530.41 142.741 536.139 151.378 Q541.911 159.972 541.911 176.378 Q541.911 192.741 536.139 201.378 Q530.41 209.971 519.516 209.971 Q508.621 209.971 502.849 201.378 Q497.12 192.741 497.12 176.378 Q497.12 159.972 502.849 151.378 Q508.621 142.741 519.516 142.741 Z" fill="#000000" fill-rule="nonzero" fill-opacity="1" /><path clip-path="url(#clip870)" d="M541.911 131.681 L587.12 131.681 L587.12 137.676 L541.911 137.676 L541.911 131.681 Z" fill="#000000" fill-rule="nonzero" fill-opacity="1" /><path clip-path="url(#clip870)" d="M622.068 110.875 L604.083 138.981 L622.068 138.981 L622.068 110.875 M620.199 104.668 L629.156 104.668 L629.156 138.981 L636.667 138.981 L636.667 144.905 L629.156 144.905 L629.156 157.318 L622.068 157.318 L622.068 144.905 L598.299 144.905 L598.299 138.028 L620.199 104.668 Z" fill="#000000" fill-rule="nonzero" fill-opacity="1" /><path clip-path="url(#clip870)" d="M17.3482 355.959 L34.6948 368.85 L52.9962 355.291 L52.9962 362.198 L38.9916 372.574 L52.9962 382.95 L52.9962 389.857 L34.3446 376.011 L17.3482 388.679 L17.3482 381.772 L30.0478 372.319 L17.3482 362.866 L17.3482 355.959 Z" fill="#000000" fill-rule="nonzero" fill-opacity="1" /><path clip-path="url(#clip870)" d="M1052.8 12.096 L1063.82 12.096 L1090.64 62.6918 L1090.64 12.096 L1098.58 12.096 L1098.58 72.576 L1087.56 72.576 L1060.74 21.9802 L1060.74 72.576 L1052.8 72.576 L1052.8 12.096 Z" fill="#000000" fill-rule="nonzero" fill-opacity="1" /><path clip-path="url(#clip870)" d="M1132.12 32.4315 Q1126.12 32.4315 1122.64 37.1306 Q1119.16 41.7891 1119.16 49.9314 Q1119.16 58.0738 1122.6 62.7728 Q1126.08 67.4314 1132.12 67.4314 Q1138.07 67.4314 1141.56 62.7323 Q1145.04 58.0333 1145.04 49.9314 Q1145.04 41.8701 1141.56 37.1711 Q1138.07 32.4315 1132.12 32.4315 M1132.12 26.1121 Q1141.84 26.1121 1147.39 32.4315 Q1152.94 38.7509 1152.94 49.9314 Q1152.94 61.0714 1147.39 67.4314 Q1141.84 73.7508 1132.12 73.7508 Q1122.36 73.7508 1116.81 67.4314 Q1111.3 61.0714 1111.3 49.9314 Q1111.3 38.7509 1116.81 32.4315 Q1122.36 26.1121 1132.12 26.1121 Z" fill="#000000" fill-rule="nonzero" fill-opacity="1" /><path clip-path="url(#clip870)" d="M1203.01 45.1919 L1203.01 72.576 L1195.56 72.576 L1195.56 45.4349 Q1195.56 38.994 1193.05 35.7938 Q1190.53 32.5936 1185.51 32.5936 Q1179.47 32.5936 1175.99 36.4419 Q1172.51 40.2903 1172.51 46.9338 L1172.51 72.576 L1165.01 72.576 L1165.01 27.2059 L1172.51 27.2059 L1172.51 34.2544 Q1175.18 30.163 1178.79 28.1376 Q1182.43 26.1121 1187.17 26.1121 Q1194.99 26.1121 1199 30.9732 Q1203.01 35.7938 1203.01 45.1919 Z" fill="#000000" fill-rule="nonzero" fill-opacity="1" /><path clip-path="url(#clip870)" d="M1214.11 46.5287 L1235.94 46.5287 L1235.94 53.1722 L1214.11 53.1722 L1214.11 46.5287 Z" fill="#000000" fill-rule="nonzero" fill-opacity="1" /><path clip-path="url(#clip870)" d="M1258.87 72.576 L1235.78 12.096 L1244.33 12.096 L1263.49 63.0159 L1282.69 12.096 L1291.2 12.096 L1268.15 72.576 L1258.87 72.576 Z" fill="#000000" fill-rule="nonzero" fill-opacity="1" /><path clip-path="url(#clip870)" d="M1313.88 49.7694 Q1304.85 49.7694 1301.37 51.8354 Q1297.88 53.9013 1297.88 58.8839 Q1297.88 62.8538 1300.48 65.2034 Q1303.11 67.5124 1307.61 67.5124 Q1313.8 67.5124 1317.53 63.1374 Q1321.3 58.7219 1321.3 51.4303 L1321.3 49.7694 L1313.88 49.7694 M1328.75 46.6907 L1328.75 72.576 L1321.3 72.576 L1321.3 65.6895 Q1318.75 69.8214 1314.94 71.8063 Q1311.13 73.7508 1305.62 73.7508 Q1298.65 73.7508 1294.52 69.8619 Q1290.43 65.9325 1290.43 59.3701 Q1290.43 51.7138 1295.53 47.825 Q1300.68 43.9361 1310.85 43.9361 L1321.3 43.9361 L1321.3 43.2069 Q1321.3 38.0623 1317.89 35.2672 Q1314.53 32.4315 1308.42 32.4315 Q1304.53 32.4315 1300.84 33.3632 Q1297.15 34.295 1293.75 36.1584 L1293.75 29.2718 Q1297.84 27.692 1301.69 26.9223 Q1305.54 26.1121 1309.18 26.1121 Q1319.03 26.1121 1323.89 31.2163 Q1328.75 36.3204 1328.75 46.6907 Z" fill="#000000" fill-rule="nonzero" fill-opacity="1" /><path clip-path="url(#clip870)" d="M1370.39 34.1734 Q1369.14 33.4443 1367.64 33.1202 Q1366.18 32.7556 1364.4 32.7556 Q1358.08 32.7556 1354.68 36.8875 Q1351.31 40.9789 1351.31 48.6757 L1351.31 72.576 L1343.82 72.576 L1343.82 27.2059 L1351.31 27.2059 L1351.31 34.2544 Q1353.66 30.1225 1357.43 28.1376 Q1361.2 26.1121 1366.59 26.1121 Q1367.36 26.1121 1368.29 26.2337 Q1369.22 26.3147 1370.35 26.5172 L1370.39 34.1734 Z" fill="#000000" fill-rule="nonzero" fill-opacity="1" /><path clip-path="url(#clip870)" d="M1378.21 27.2059 L1385.67 27.2059 L1385.67 72.576 L1378.21 72.576 L1378.21 27.2059 M1378.21 9.54393 L1385.67 9.54393 L1385.67 18.9825 L1378.21 18.9825 L1378.21 9.54393 Z" fill="#000000" fill-rule="nonzero" fill-opacity="1" /><path clip-path="url(#clip870)" d="M1421.88 49.7694 Q1412.85 49.7694 1409.36 51.8354 Q1405.88 53.9013 1405.88 58.8839 Q1405.88 62.8538 1408.47 65.2034 Q1411.11 67.5124 1415.6 67.5124 Q1421.8 67.5124 1425.53 63.1374 Q1429.29 58.7219 1429.29 51.4303 L1429.29 49.7694 L1421.88 49.7694 M1436.75 46.6907 L1436.75 72.576 L1429.29 72.576 L1429.29 65.6895 Q1426.74 69.8214 1422.93 71.8063 Q1419.13 73.7508 1413.62 73.7508 Q1406.65 73.7508 1402.52 69.8619 Q1398.43 65.9325 1398.43 59.3701 Q1398.43 51.7138 1403.53 47.825 Q1408.68 43.9361 1418.84 43.9361 L1429.29 43.9361 L1429.29 43.2069 Q1429.29 38.0623 1425.89 35.2672 Q1422.53 32.4315 1416.41 32.4315 Q1412.52 32.4315 1408.84 33.3632 Q1405.15 34.295 1401.75 36.1584 L1401.75 29.2718 Q1405.84 27.692 1409.69 26.9223 Q1413.54 26.1121 1417.18 26.1121 Q1427.03 26.1121 1431.89 31.2163 Q1436.75 36.3204 1436.75 46.6907 Z" fill="#000000" fill-rule="nonzero" fill-opacity="1" /><path clip-path="url(#clip870)" d="M1484.67 49.9314 Q1484.67 41.7081 1481.27 37.0496 Q1477.91 32.3505 1471.99 32.3505 Q1466.08 32.3505 1462.67 37.0496 Q1459.31 41.7081 1459.31 49.9314 Q1459.31 58.1548 1462.67 62.8538 Q1466.08 67.5124 1471.99 67.5124 Q1477.91 67.5124 1481.27 62.8538 Q1484.67 58.1548 1484.67 49.9314 M1459.31 34.0924 Q1461.66 30.0415 1465.23 28.0971 Q1468.83 26.1121 1473.81 26.1121 Q1482.08 26.1121 1487.22 32.6746 Q1492.41 39.2371 1492.41 49.9314 Q1492.41 60.6258 1487.22 67.1883 Q1482.08 73.7508 1473.81 73.7508 Q1468.83 73.7508 1465.23 71.8063 Q1461.66 69.8214 1459.31 65.7705 L1459.31 72.576 L1451.82 72.576 L1451.82 9.54393 L1459.31 9.54393 L1459.31 34.0924 Z" fill="#000000" fill-rule="nonzero" fill-opacity="1" /><path clip-path="url(#clip870)" d="M1504.76 9.54393 L1512.22 9.54393 L1512.22 72.576 L1504.76 72.576 L1504.76 9.54393 Z" fill="#000000" fill-rule="nonzero" fill-opacity="1" /><path clip-path="url(#clip870)" d="M1566.62 48.0275 L1566.62 51.6733 L1532.35 51.6733 Q1532.84 59.3701 1536.97 63.421 Q1541.14 67.4314 1548.55 67.4314 Q1552.85 67.4314 1556.86 66.3781 Q1560.91 65.3249 1564.88 63.2184 L1564.88 70.267 Q1560.87 71.9684 1556.65 72.8596 Q1552.44 73.7508 1548.11 73.7508 Q1537.25 73.7508 1530.89 67.4314 Q1524.57 61.1119 1524.57 50.3365 Q1524.57 39.1965 1530.57 32.6746 Q1536.6 26.1121 1546.81 26.1121 Q1555.97 26.1121 1561.27 32.0264 Q1566.62 37.9003 1566.62 48.0275 M1559.17 45.84 Q1559.09 39.7232 1555.72 36.0774 Q1552.4 32.4315 1546.89 32.4315 Q1540.65 32.4315 1536.89 35.9558 Q1533.16 39.4801 1532.59 45.8805 L1559.17 45.84 Z" fill="#000000" fill-rule="nonzero" fill-opacity="1" /><polyline clip-path="url(#clip872)" style="stroke:#1f77b4; stroke-linecap:round; stroke-linejoin:round; stroke-width:4; stroke-opacity:0.4; fill:none" points="703.066,420.005 715.321,412.973 727.577,544.505 739.832,503.977 752.088,420.28 764.343,345.529 776.599,435.875 788.854,386.212 801.11,496.617 813.365,330.795 825.621,321.245 837.876,326.956 850.131,380.897 862.387,430.998 874.642,425.668 886.898,446.147 899.153,401.079 911.409,399.546 923.664,289.779 935.92,336.571 948.175,383.364 960.431,450.616 972.686,417.915 984.942,444.847 997.197,410.155 1009.45,362.485 1021.71,378.676 1033.96,452.572 1046.22,352.068 1058.47,316.526 1070.73,419.301 1082.99,436.746 1095.24,440.211 1107.5,407.86 1119.75,319.895 1132.01,331.921 1144.26,521.917 1156.52,375.085 1168.77,437.185 1181.03,420.943 1193.28,479.091 1205.54,359.267 1217.8,399.634 1230.05,465.376 1242.31,423.981 1254.56,360.524 1266.82,387.089 1279.07,424.417 1291.33,414.436 1303.58,313.375 1315.84,388.143 1328.09,397.948 1340.35,345.602 1352.61,345.602 1364.86,293.256 1377.12,340.534 1389.37,471.303 1401.63,311.642 1413.88,269.985 1426.14,464.359 1438.39,439.293 1450.65,363.776 1462.9,443.353 1475.16,397.67 1487.42,344.79 1499.67,396.868 1511.93,387.004 1524.18,483.681 1536.44,335.4 1548.69,365.772 1560.95,411.839 1573.2,424.237 1585.46,416.181 1597.72,314.351 1609.97,456.193 1622.23,463.58 1634.48,339.022 1646.74,399.858 1658.99,313.734 1671.25,422.598 1683.5,279.103 1695.76,429.771 1708.01,338.573 1720.27,373.669 1732.53,517.926 1744.78,423.888 1757.04,312.772 1769.29,485.339 1781.55,425.535 1793.8,365.732 1806.06,354.72 1818.31,394.643 1830.57,327.829 1842.82,346.398 1855.08,300.696 1867.34,295.604 1879.59,431.249 1891.85,523.867 1904.1,413.96 1916.36,386.251 "/>
<polyline clip-path="url(#clip872)" style="stroke:#1f77b4; stroke-linecap:round; stroke-linejoin:round; stroke-width:4; stroke-opacity:0.4; fill:none" points="703.066,398.811 715.321,382.672 727.577,466.643 739.832,329.416 752.088,343.301 764.343,524.194 776.599,384.76 788.854,394.253 801.11,423.457 813.365,251.815 825.621,233.626 837.876,516.241 850.131,385.676 862.387,444.319 874.642,364.601 886.898,269.466 899.153,475.071 911.409,287.368 923.664,449.028 935.92,423.617 948.175,535.493 960.431,326.616 972.686,497.988 984.942,503.949 997.197,469.937 1009.45,370.537 1021.71,415.181 1033.96,241.667 1046.22,404.287 1058.47,630.398 1070.73,516.978 1082.99,253.124 1095.24,499.389 1107.5,492.078 1119.75,363.951 1132.01,578.717 1144.26,507.388 1156.52,492.282 1168.77,392.64 1181.03,249.613 1193.28,484.952 1205.54,157.307 1217.8,221.013 1230.05,221.013 1242.31,284.72 1254.56,406.55 1266.82,507.602 1279.07,498.341 1291.33,510.419 1303.58,335.069 1315.84,399.342 1328.09,580.283 1340.35,325.68 1352.61,377.971 1364.86,459.349 1377.12,430.914 1389.37,220.216 1401.63,371.302 1413.88,114.75 1426.14,378.046 1438.39,267.092 1450.65,356.566 1462.9,469.3 1475.16,373.013 1487.42,374.548 1499.67,245.49 1511.93,527.148 1524.18,242.867 1536.44,277.655 1548.69,277.655 1560.95,312.442 1573.2,258.192 1585.46,474.829 1597.72,481.474 1609.97,481.474 1622.23,488.118 1634.48,443.5 1646.74,328.142 1658.99,438.483 1671.25,434.567 1683.5,558.283 1695.76,451.63 1708.01,352.634 1720.27,513.51 1732.53,425.979 1744.78,472.35 1757.04,496.117 1769.29,498.376 1781.55,433.184 1793.8,347.617 1806.06,404.526 1818.31,315.43 1830.57,307.683 1842.82,363.34 1855.08,414.829 1867.34,498.963 1879.59,396.665 1891.85,367.172 1904.1,535.177 1916.36,308.116 "/>
<polyline clip-path="url(#clip872)" style="stroke:#1f77b4; stroke-linecap:round; stroke-linejoin:round; stroke-width:4; stroke-opacity:0.4; fill:none" points="703.066,384.522 715.321,415.715 727.577,421.376 739.832,404.075 752.088,428.541 764.343,485.526 776.599,420.194 788.854,354.861 801.11,365.531 813.365,376.201 825.621,359.734 837.876,367.313 850.131,414.369 862.387,432.679 874.642,392.96 886.898,436.764 899.153,394.228 911.409,412.114 923.664,414.092 935.92,376.273 948.175,439.3 960.431,427.325 972.686,370.686 984.942,397.949 997.197,374.687 1009.45,441.194 1021.71,405.192 1033.96,353.564 1046.22,358.856 1058.47,381.788 1070.73,403.887 1082.99,380.507 1095.24,365.233 1107.5,348.986 1119.75,407.657 1132.01,355.685 1144.26,377.658 1156.52,421.748 1168.77,377.417 1181.03,383.878 1193.28,386.835 1205.54,408.932 1217.8,393.648 1230.05,408.346 1242.31,367.467 1254.56,384.986 1266.82,377.169 1279.07,380.137 1291.33,400.233 1303.58,362.24 1315.84,378.871 1328.09,348.485 1340.35,365.91 1352.61,406.984 1364.86,362.479 1377.12,403.625 1389.37,396.897 1401.63,372.552 1413.88,379.994 1426.14,394.502 1438.39,371.933 1450.65,372.507 1462.9,379.309 1475.16,421.478 1487.42,410.666 1499.67,415.453 1511.93,351.532 1524.18,378.863 1536.44,383.959 1548.69,367.615 1560.95,369.479 1573.2,371.804 1585.46,404.872 1597.72,381.107 1609.97,379.394 1622.23,333.338 1634.48,350.939 1646.74,402.029 1658.99,358.383 1671.25,392.727 1683.5,427.072 1695.76,391.401 1708.01,399.939 1720.27,385.299 1732.53,372.078 1744.78,372.743 1757.04,419.551 1769.29,408.463 1781.55,395.125 1793.8,393.541 1806.06,396.538 1818.31,358.181 1830.57,387.864 1842.82,390.825 1855.08,386.506 1867.34,379.688 1879.59,402.086 1891.85,423.179 1904.1,427.996 1916.36,371.558 "/>
<polyline clip-path="url(#clip872)" style="stroke:#1f77b4; stroke-linecap:round; stroke-linejoin:round; stroke-width:4; stroke-opacity:0.4; fill:none" points="703.066,382.501 715.321,336.42 727.577,398.031 739.832,319.599 752.088,359.035 764.343,395.525 776.599,440.543 788.854,451.637 801.11,493.328 813.365,348.058 825.621,388.913 837.876,395.947 850.131,361.057 862.387,393.931 874.642,390.293 886.898,404.166 899.153,403.149 911.409,369.052 923.664,375.236 935.92,451.422 948.175,527.607 960.431,529.929 972.686,455.739 984.942,381.549 997.197,367.668 1009.45,450.41 1021.71,346.874 1033.96,462.593 1046.22,337.96 1058.47,245.335 1070.73,329.794 1082.99,466.067 1095.24,285.906 1107.5,402.288 1119.75,404.736 1132.01,363.992 1144.26,442.602 1156.52,367.879 1168.77,288.294 1181.03,360.545 1193.28,460.677 1205.54,364.3 1217.8,313.126 1230.05,357.264 1242.31,451.352 1254.56,449.103 1266.82,443.153 1279.07,332.962 1291.33,350.042 1303.58,500.068 1315.84,373.597 1328.09,363.034 1340.35,378.986 1352.61,471.734 1364.86,302.176 1377.12,470.296 1389.37,488.583 1401.63,362.82 1413.88,414.342 1426.14,316.574 1438.39,358.21 1450.65,399.845 1462.9,303.566 1475.16,380.326 1487.42,426.499 1499.67,317.686 1511.93,355.233 1524.18,396.675 1536.44,334.957 1548.69,363.541 1560.95,324.619 1573.2,237.547 1585.46,407.79 1597.72,491.71 1609.97,429.928 1622.23,368.146 1634.48,388.139 1646.74,319.038 1658.99,384.669 1671.25,328.547 1683.5,365.023 1695.76,355.817 1708.01,406.168 1720.27,431.25 1732.53,544.249 1744.78,435.883 1757.04,309.577 1769.29,320.265 1781.55,404.873 1793.8,421.17 1806.06,385.684 1818.31,432.625 1830.57,354.232 1842.82,400.475 1855.08,407.096 1867.34,323.114 1879.59,380.989 1891.85,538.244 1904.1,481.072 1916.36,423.9 "/>
<polyline clip-path="url(#clip872)" style="stroke:#1f77b4; stroke-linecap:round; stroke-linejoin:round; stroke-width:4; stroke-opacity:0.4; fill:none" points="703.066,392.513 715.321,391.811 727.577,385.237 739.832,390.215 752.088,388.045 764.343,392.427 776.599,394.777 788.854,390.522 801.11,390.597 813.365,386.736 825.621,390.724 837.876,392.851 850.131,386.384 862.387,389.309 874.642,393.68 886.898,378.662 899.153,385.544 911.409,388.713 923.664,391.84 935.92,390.16 948.175,381.884 960.431,396.402 972.686,393.308 984.942,385.554 997.197,389.925 1009.45,389.808 1021.71,398.168 1033.96,390.308 1046.22,388.723 1058.47,390.032 1070.73,392.754 1082.99,384.937 1095.24,389.84 1107.5,387.479 1119.75,393.999 1132.01,385.075 1144.26,385.512 1156.52,383.363 1168.77,382.502 1181.03,387.628 1193.28,385.469 1205.54,394.712 1217.8,388.916 1230.05,385.438 1242.31,382.098 1254.56,396.499 1266.82,389.873 1279.07,391.373 1291.33,393.852 1303.58,384.684 1315.84,382.28 1328.09,392.427 1340.35,385.003 1352.61,387.301 1364.86,391.917 1377.12,393.534 1389.37,385.238 1401.63,394.991 1413.88,385.866 1426.14,394.237 1438.39,389.43 1450.65,389.909 1462.9,387.888 1475.16,393.961 1487.42,393.77 1499.67,384.836 1511.93,392.409 1524.18,388.645 1536.44,394.697 1548.69,389.135 1560.95,385.04 1573.2,389.263 1585.46,383.722 1597.72,386.902 1609.97,387.009 1622.23,388.499 1634.48,388.063 1646.74,399.443 1658.99,389.223 1671.25,395.977 1683.5,396.637 1695.76,397.967 1708.01,396.202 1720.27,392.496 1732.53,388.789 1744.78,389.981 1757.04,380.122 1769.29,391.875 1781.55,387.451 1793.8,391.025 1806.06,387.569 1818.31,382.688 1830.57,388.123 1842.82,394.122 1855.08,384.242 1867.34,384.615 1879.59,389.508 1891.85,394.146 1904.1,385.989 1916.36,390.361 "/>
<polyline clip-path="url(#clip872)" style="stroke:#1f77b4; stroke-linecap:round; stroke-linejoin:round; stroke-width:4; stroke-opacity:0.4; fill:none" points="703.066,395.05 715.321,400.677 727.577,341.352 739.832,318.999 752.088,361.74 764.343,359.92 776.599,349.175 788.854,366.084 801.11,372.081 813.365,387.628 825.621,387.184 837.876,340.052 850.131,418.004 862.387,385.795 874.642,406.422 886.898,353.107 899.153,359.085 911.409,373.931 923.664,391.888 935.92,377.159 948.175,436.317 960.431,415.254 972.686,364.595 984.942,371.39 997.197,374.712 1009.45,408.766 1021.71,383.344 1033.96,338.656 1046.22,365.836 1058.47,389.693 1070.73,407.124 1082.99,391.658 1095.24,386.228 1107.5,377.361 1119.75,414.137 1132.01,384.398 1144.26,415.993 1156.52,382.459 1168.77,397.345 1181.03,381.948 1193.28,425.952 1205.54,393.274 1217.8,342.9 1230.05,425.334 1242.31,386.899 1254.56,375.89 1266.82,403.646 1279.07,410.543 1291.33,343.909 1303.58,426.342 1315.84,416.046 1328.09,381.583 1340.35,385.234 1352.61,381.545 1364.86,352.273 1377.12,388.316 1389.37,390.59 1401.63,390.211 1413.88,419.707 1426.14,353.364 1438.39,401.215 1450.65,366.719 1462.9,357.163 1475.16,323.871 1487.42,355.522 1499.67,367.403 1511.93,372.708 1524.18,388.251 1536.44,403.795 1548.69,370.333 1560.95,399.985 1573.2,390.466 1585.46,430.885 1597.72,373.612 1609.97,384.195 1622.23,393.797 1634.48,385.996 1646.74,377.635 1658.99,423.56 1671.25,389.931 1683.5,351.661 1695.76,392.611 1708.01,389.261 1720.27,407.18 1732.53,405.26 1744.78,397.367 1757.04,387.055 1769.29,414.722 1781.55,378.049 1793.8,394.305 1806.06,367.243 1818.31,418.269 1830.57,392.569 1842.82,401.719 1855.08,402.396 1867.34,363.55 1879.59,407.149 1891.85,386.097 1904.1,425.228 1916.36,399.241 "/>
</svg>
