<?xml version="1.0" encoding="utf-8"?>
<svg xmlns="http://www.w3.org/2000/svg" xmlns:xlink="http://www.w3.org/1999/xlink" width="1200" height="300" viewBox="0 0 4800 1200">
<defs>
  <clipPath id="clip690">
    <rect x="0" y="0" width="4800" height="1200"/>
  </clipPath>
</defs>
<path clip-path="url(#clip690)" d="M0 1200 L4800 1200 L4800 0 L0 0  Z" fill="#ffffff" fill-rule="evenodd" fill-opacity="1"/>
<defs>
  <clipPath id="clip691">
    <rect x="960" y="0" width="3361" height="1200"/>
  </clipPath>
</defs>
<path clip-path="url(#clip690)" d="M338.33 983.992 L2367.76 983.992 L2367.76 85.6721 L338.33 85.6721  Z" fill="#ffffff" fill-rule="evenodd" fill-opacity="1"/>
<defs>
  <clipPath id="clip692">
    <rect x="338" y="85" width="2030" height="899"/>
  </clipPath>
</defs>
<polyline clip-path="url(#clip692)" style="stroke:#000000; stroke-linecap:round; stroke-linejoin:round; stroke-width:2; stroke-opacity:0.1; fill:none" points="376.428,983.992 376.428,85.6721 "/>
<polyline clip-path="url(#clip692)" style="stroke:#000000; stroke-linecap:round; stroke-linejoin:round; stroke-width:2; stroke-opacity:0.1; fill:none" points="859.901,983.992 859.901,85.6721 "/>
<polyline clip-path="url(#clip692)" style="stroke:#000000; stroke-linecap:round; stroke-linejoin:round; stroke-width:2; stroke-opacity:0.1; fill:none" points="1343.37,983.992 1343.37,85.6721 "/>
<polyline clip-path="url(#clip692)" style="stroke:#000000; stroke-linecap:round; stroke-linejoin:round; stroke-width:2; stroke-opacity:0.1; fill:none" points="1826.85,983.992 1826.85,85.6721 "/>
<polyline clip-path="url(#clip692)" style="stroke:#000000; stroke-linecap:round; stroke-linejoin:round; stroke-width:2; stroke-opacity:0.1; fill:none" points="2310.32,983.992 2310.32,85.6721 "/>
<polyline clip-path="url(#clip692)" style="stroke:#000000; stroke-linecap:round; stroke-linejoin:round; stroke-width:2; stroke-opacity:0.1; fill:none" points="338.33,959.175 2367.76,959.175 "/>
<polyline clip-path="url(#clip692)" style="stroke:#000000; stroke-linecap:round; stroke-linejoin:round; stroke-width:2; stroke-opacity:0.1; fill:none" points="338.33,746.892 2367.76,746.892 "/>
<polyline clip-path="url(#clip692)" style="stroke:#000000; stroke-linecap:round; stroke-linejoin:round; stroke-width:2; stroke-opacity:0.1; fill:none" points="338.33,534.609 2367.76,534.609 "/>
<polyline clip-path="url(#clip692)" style="stroke:#000000; stroke-linecap:round; stroke-linejoin:round; stroke-width:2; stroke-opacity:0.1; fill:none" points="338.33,322.326 2367.76,322.326 "/>
<polyline clip-path="url(#clip692)" style="stroke:#000000; stroke-linecap:round; stroke-linejoin:round; stroke-width:2; stroke-opacity:0.1; fill:none" points="338.33,110.044 2367.76,110.044 "/>
<polyline clip-path="url(#clip690)" style="stroke:#000000; stroke-linecap:round; stroke-linejoin:round; stroke-width:4; stroke-opacity:1; fill:none" points="338.33,983.992 2367.76,983.992 "/>
<polyline clip-path="url(#clip690)" style="stroke:#000000; stroke-linecap:round; stroke-linejoin:round; stroke-width:4; stroke-opacity:1; fill:none" points="376.428,983.992 376.428,965.094 "/>
<polyline clip-path="url(#clip690)" style="stroke:#000000; stroke-linecap:round; stroke-linejoin:round; stroke-width:4; stroke-opacity:1; fill:none" points="859.901,983.992 859.901,965.094 "/>
<polyline clip-path="url(#clip690)" style="stroke:#000000; stroke-linecap:round; stroke-linejoin:round; stroke-width:4; stroke-opacity:1; fill:none" points="1343.37,983.992 1343.37,965.094 "/>
<polyline clip-path="url(#clip690)" style="stroke:#000000; stroke-linecap:round; stroke-linejoin:round; stroke-width:4; stroke-opacity:1; fill:none" points="1826.85,983.992 1826.85,965.094 "/>
<polyline clip-path="url(#clip690)" style="stroke:#000000; stroke-linecap:round; stroke-linejoin:round; stroke-width:4; stroke-opacity:1; fill:none" points="2310.32,983.992 2310.32,965.094 "/>
<path clip-path="url(#clip690)" d="M376.428 1034.11 Q372.817 1034.11 370.988 1037.68 Q369.183 1041.22 369.183 1048.35 Q369.183 1055.45 370.988 1059.02 Q372.817 1062.56 376.428 1062.56 Q380.062 1062.56 381.868 1059.02 Q383.696 1055.45 383.696 1048.35 Q383.696 1041.22 381.868 1037.68 Q380.062 1034.11 376.428 1034.11 M376.428 1030.41 Q382.238 1030.41 385.294 1035.01 Q388.372 1039.6 388.372 1048.35 Q388.372 1057.07 385.294 1061.68 Q382.238 1066.26 376.428 1066.26 Q370.618 1066.26 367.539 1061.68 Q364.484 1057.07 364.484 1048.35 Q364.484 1039.6 367.539 1035.01 Q370.618 1030.41 376.428 1030.41 Z" fill="#000000" fill-rule="nonzero" fill-opacity="1" /><path clip-path="url(#clip690)" d="M839.172 1061.66 L855.491 1061.66 L855.491 1065.59 L833.547 1065.59 L833.547 1061.66 Q836.209 1058.9 840.792 1054.27 Q845.398 1049.62 846.579 1048.28 Q848.824 1045.75 849.704 1044.02 Q850.607 1042.26 850.607 1040.57 Q850.607 1037.81 848.662 1036.08 Q846.741 1034.34 843.639 1034.34 Q841.44 1034.34 838.986 1035.11 Q836.556 1035.87 833.778 1037.42 L833.778 1032.7 Q836.602 1031.56 839.056 1030.99 Q841.51 1030.41 843.547 1030.41 Q848.917 1030.41 852.111 1033.09 Q855.306 1035.78 855.306 1040.27 Q855.306 1042.4 854.496 1044.32 Q853.709 1046.22 851.602 1048.81 Q851.023 1049.48 847.922 1052.7 Q844.82 1055.89 839.172 1061.66 Z" fill="#000000" fill-rule="nonzero" fill-opacity="1" /><path clip-path="url(#clip690)" d="M865.352 1031.03 L883.708 1031.03 L883.708 1034.97 L869.634 1034.97 L869.634 1043.44 Q870.653 1043.09 871.671 1042.93 Q872.69 1042.74 873.709 1042.74 Q879.496 1042.74 882.875 1045.92 Q886.255 1049.09 886.255 1054.5 Q886.255 1060.08 882.783 1063.18 Q879.31 1066.26 872.991 1066.26 Q870.815 1066.26 868.547 1065.89 Q866.301 1065.52 863.894 1064.78 L863.894 1060.08 Q865.977 1061.22 868.199 1061.77 Q870.422 1062.33 872.898 1062.33 Q876.903 1062.33 879.241 1060.22 Q881.579 1058.11 881.579 1054.5 Q881.579 1050.89 879.241 1048.79 Q876.903 1046.68 872.898 1046.68 Q871.023 1046.68 869.148 1047.1 Q867.297 1047.51 865.352 1048.39 L865.352 1031.03 Z" fill="#000000" fill-rule="nonzero" fill-opacity="1" /><path clip-path="url(#clip690)" d="M1318.07 1031.03 L1336.43 1031.03 L1336.43 1034.97 L1322.36 1034.97 L1322.36 1043.44 Q1323.37 1043.09 1324.39 1042.93 Q1325.41 1042.74 1326.43 1042.74 Q1332.22 1042.74 1335.6 1045.92 Q1338.98 1049.09 1338.98 1054.5 Q1338.98 1060.08 1335.5 1063.18 Q1332.03 1066.26 1325.71 1066.26 Q1323.54 1066.26 1321.27 1065.89 Q1319.02 1065.52 1316.61 1064.78 L1316.61 1060.08 Q1318.7 1061.22 1320.92 1061.77 Q1323.14 1062.33 1325.62 1062.33 Q1329.62 1062.33 1331.96 1060.22 Q1334.3 1058.11 1334.3 1054.5 Q1334.3 1050.89 1331.96 1048.79 Q1329.62 1046.68 1325.62 1046.68 Q1323.74 1046.68 1321.87 1047.1 Q1320.02 1047.51 1318.07 1048.39 L1318.07 1031.03 Z" fill="#000000" fill-rule="nonzero" fill-opacity="1" /><path clip-path="url(#clip690)" d="M1358.19 1034.11 Q1354.58 1034.11 1352.75 1037.68 Q1350.94 1041.22 1350.94 1048.35 Q1350.94 1055.45 1352.75 1059.02 Q1354.58 1062.56 1358.19 1062.56 Q1361.82 1062.56 1363.63 1059.02 Q1365.46 1055.45 1365.46 1048.35 Q1365.46 1041.22 1363.63 1037.68 Q1361.82 1034.11 1358.19 1034.11 M1358.19 1030.41 Q1364 1030.41 1367.05 1035.01 Q1370.13 1039.6 1370.13 1048.35 Q1370.13 1057.07 1367.05 1061.68 Q1364 1066.26 1358.19 1066.26 Q1352.38 1066.26 1349.3 1061.68 Q1346.24 1057.07 1346.24 1048.35 Q1346.24 1039.6 1349.3 1035.01 Q1352.38 1030.41 1358.19 1030.41 Z" fill="#000000" fill-rule="nonzero" fill-opacity="1" /><path clip-path="url(#clip690)" d="M1800.7 1031.03 L1822.92 1031.03 L1822.92 1033.02 L1810.38 1065.59 L1805.49 1065.59 L1817.3 1034.97 L1800.7 1034.97 L1800.7 1031.03 Z" fill="#000000" fill-rule="nonzero" fill-opacity="1" /><path clip-path="url(#clip690)" d="M1832.09 1031.03 L1850.45 1031.03 L1850.45 1034.97 L1836.37 1034.97 L1836.37 1043.44 Q1837.39 1043.09 1838.41 1042.93 Q1839.43 1042.74 1840.45 1042.74 Q1846.23 1042.74 1849.61 1045.92 Q1852.99 1049.09 1852.99 1054.5 Q1852.99 1060.08 1849.52 1063.18 Q1846.05 1066.26 1839.73 1066.26 Q1837.55 1066.26 1835.28 1065.89 Q1833.04 1065.52 1830.63 1064.78 L1830.63 1060.08 Q1832.71 1061.22 1834.94 1061.77 Q1837.16 1062.33 1839.64 1062.33 Q1843.64 1062.33 1845.98 1060.22 Q1848.32 1058.11 1848.32 1054.5 Q1848.32 1050.89 1845.98 1048.79 Q1843.64 1046.68 1839.64 1046.68 Q1837.76 1046.68 1835.89 1047.1 Q1834.03 1047.51 1832.09 1048.39 L1832.09 1031.03 Z" fill="#000000" fill-rule="nonzero" fill-opacity="1" /><path clip-path="url(#clip690)" d="M2269.93 1061.66 L2277.56 1061.66 L2277.56 1035.29 L2269.25 1036.96 L2269.25 1032.7 L2277.52 1031.03 L2282.19 1031.03 L2282.19 1061.66 L2289.83 1061.66 L2289.83 1065.59 L2269.93 1065.59 L2269.93 1061.66 Z" fill="#000000" fill-rule="nonzero" fill-opacity="1" /><path clip-path="url(#clip690)" d="M2309.28 1034.11 Q2305.67 1034.11 2303.84 1037.68 Q2302.03 1041.22 2302.03 1048.35 Q2302.03 1055.45 2303.84 1059.02 Q2305.67 1062.56 2309.28 1062.56 Q2312.91 1062.56 2314.72 1059.02 Q2316.55 1055.45 2316.55 1048.35 Q2316.55 1041.22 2314.72 1037.68 Q2312.91 1034.11 2309.28 1034.11 M2309.28 1030.41 Q2315.09 1030.41 2318.14 1035.01 Q2321.22 1039.6 2321.22 1048.35 Q2321.22 1057.07 2318.14 1061.68 Q2315.09 1066.26 2309.28 1066.26 Q2303.47 1066.26 2300.39 1061.68 Q2297.33 1057.07 2297.33 1048.35 Q2297.33 1039.6 2300.39 1035.01 Q2303.47 1030.41 2309.28 1030.41 Z" fill="#000000" fill-rule="nonzero" fill-opacity="1" /><path clip-path="url(#clip690)" d="M2339.44 1034.11 Q2335.83 1034.11 2334 1037.68 Q2332.19 1041.22 2332.19 1048.35 Q2332.19 1055.45 2334 1059.02 Q2335.83 1062.56 2339.44 1062.56 Q2343.07 1062.56 2344.88 1059.02 Q2346.71 1055.45 2346.71 1048.35 Q2346.71 1041.22 2344.88 1037.68 Q2343.07 1034.11 2339.44 1034.11 M2339.44 1030.41 Q2345.25 1030.41 2348.31 1035.01 Q2351.38 1039.6 2351.38 1048.35 Q2351.38 1057.07 2348.31 1061.68 Q2345.25 1066.26 2339.44 1066.26 Q2333.63 1066.26 2330.55 1061.68 Q2327.5 1057.07 2327.5 1048.35 Q2327.5 1039.6 2330.55 1035.01 Q2333.63 1030.41 2339.44 1030.41 Z" fill="#000000" fill-rule="nonzero" fill-opacity="1" /><path clip-path="url(#clip690)" d="M1292.2 1119.09 L1292.2 1129.21 L1304.27 1129.21 L1304.27 1133.76 L1292.2 1133.76 L1292.2 1153.11 Q1292.2 1157.47 1293.38 1158.71 Q1294.59 1159.95 1298.25 1159.95 L1304.27 1159.95 L1304.27 1164.86 L1298.25 1164.86 Q1291.47 1164.86 1288.89 1162.34 Q1286.31 1159.79 1286.31 1153.11 L1286.31 1133.76 L1282.02 1133.76 L1282.02 1129.21 L1286.31 1129.21 L1286.31 1119.09 L1292.2 1119.09 Z" fill="#000000" fill-rule="nonzero" fill-opacity="1" /><path clip-path="url(#clip690)" d="M1311.97 1129.21 L1317.82 1129.21 L1317.82 1164.86 L1311.97 1164.86 L1311.97 1129.21 M1311.97 1115.33 L1317.82 1115.33 L1317.82 1122.75 L1311.97 1122.75 L1311.97 1115.33 Z" fill="#000000" fill-rule="nonzero" fill-opacity="1" /><path clip-path="url(#clip690)" d="M1357.83 1136.05 Q1360.03 1132.1 1363.08 1130.23 Q1366.14 1128.35 1370.28 1128.35 Q1375.85 1128.35 1378.87 1132.26 Q1381.9 1136.15 1381.9 1143.34 L1381.9 1164.86 L1376.01 1164.86 L1376.01 1143.53 Q1376.01 1138.41 1374.19 1135.92 Q1372.38 1133.44 1368.65 1133.44 Q1364.1 1133.44 1361.46 1136.46 Q1358.82 1139.49 1358.82 1144.71 L1358.82 1164.86 L1352.93 1164.86 L1352.93 1143.53 Q1352.93 1138.37 1351.12 1135.92 Q1349.3 1133.44 1345.52 1133.44 Q1341.03 1133.44 1338.39 1136.5 Q1335.74 1139.52 1335.74 1144.71 L1335.74 1164.86 L1329.86 1164.86 L1329.86 1129.21 L1335.74 1129.21 L1335.74 1134.75 Q1337.75 1131.47 1340.55 1129.91 Q1343.35 1128.35 1347.2 1128.35 Q1351.09 1128.35 1353.79 1130.32 Q1356.53 1132.3 1357.83 1136.05 Z" fill="#000000" fill-rule="nonzero" fill-opacity="1" /><path clip-path="url(#clip690)" d="M1424.07 1145.57 L1424.07 1148.43 L1397.14 1148.43 Q1397.52 1154.48 1400.77 1157.66 Q1404.05 1160.81 1409.87 1160.81 Q1413.25 1160.81 1416.4 1159.99 Q1419.58 1159.16 1422.7 1157.5 L1422.7 1163.04 Q1419.55 1164.38 1416.24 1165.08 Q1412.93 1165.78 1409.52 1165.78 Q1400.99 1165.78 1396 1160.81 Q1391.03 1155.85 1391.03 1147.38 Q1391.03 1138.63 1395.74 1133.5 Q1400.48 1128.35 1408.5 1128.35 Q1415.7 1128.35 1419.87 1133 Q1424.07 1137.61 1424.07 1145.57 M1418.21 1143.85 Q1418.15 1139.04 1415.51 1136.18 Q1412.9 1133.31 1408.57 1133.31 Q1403.67 1133.31 1400.71 1136.08 Q1397.78 1138.85 1397.33 1143.88 L1418.21 1143.85 Z" fill="#000000" fill-rule="nonzero" fill-opacity="1" /><polyline clip-path="url(#clip690)" style="stroke:#000000; stroke-linecap:round; stroke-linejoin:round; stroke-width:4; stroke-opacity:1; fill:none" points="338.33,983.992 338.33,85.6721 "/>
<polyline clip-path="url(#clip690)" style="stroke:#000000; stroke-linecap:round; stroke-linejoin:round; stroke-width:4; stroke-opacity:1; fill:none" points="338.33,959.175 357.228,959.175 "/>
<polyline clip-path="url(#clip690)" style="stroke:#000000; stroke-linecap:round; stroke-linejoin:round; stroke-width:4; stroke-opacity:1; fill:none" points="338.33,746.892 357.228,746.892 "/>
<polyline clip-path="url(#clip690)" style="stroke:#000000; stroke-linecap:round; stroke-linejoin:round; stroke-width:4; stroke-opacity:1; fill:none" points="338.33,534.609 357.228,534.609 "/>
<polyline clip-path="url(#clip690)" style="stroke:#000000; stroke-linecap:round; stroke-linejoin:round; stroke-width:4; stroke-opacity:1; fill:none" points="338.33,322.326 357.228,322.326 "/>
<polyline clip-path="url(#clip690)" style="stroke:#000000; stroke-linecap:round; stroke-linejoin:round; stroke-width:4; stroke-opacity:1; fill:none" points="338.33,110.044 357.228,110.044 "/>
<path clip-path="url(#clip690)" d="M178.993 944.974 Q175.382 944.974 173.553 948.538 Q171.747 952.08 171.747 959.21 Q171.747 966.316 173.553 969.881 Q175.382 973.422 178.993 973.422 Q182.627 973.422 184.433 969.881 Q186.261 966.316 186.261 959.21 Q186.261 952.08 184.433 948.538 Q182.627 944.974 178.993 944.974 M178.993 941.27 Q184.803 941.27 187.858 945.876 Q190.937 950.46 190.937 959.21 Q190.937 967.936 187.858 972.543 Q184.803 977.126 178.993 977.126 Q173.183 977.126 170.104 972.543 Q167.048 967.936 167.048 959.21 Q167.048 950.46 170.104 945.876 Q173.183 941.27 178.993 941.27 Z" fill="#000000" fill-rule="nonzero" fill-opacity="1" /><path clip-path="url(#clip690)" d="M199.155 970.575 L204.039 970.575 L204.039 976.455 L199.155 976.455 L199.155 970.575 Z" fill="#000000" fill-rule="nonzero" fill-opacity="1" /><path clip-path="url(#clip690)" d="M224.224 944.974 Q220.613 944.974 218.784 948.538 Q216.979 952.08 216.979 959.21 Q216.979 966.316 218.784 969.881 Q220.613 973.422 224.224 973.422 Q227.858 973.422 229.664 969.881 Q231.492 966.316 231.492 959.21 Q231.492 952.08 229.664 948.538 Q227.858 944.974 224.224 944.974 M224.224 941.27 Q230.034 941.27 233.09 945.876 Q236.168 950.46 236.168 959.21 Q236.168 967.936 233.09 972.543 Q230.034 977.126 224.224 977.126 Q218.414 977.126 215.335 972.543 Q212.28 967.936 212.28 959.21 Q212.28 950.46 215.335 945.876 Q218.414 941.27 224.224 941.27 Z" fill="#000000" fill-rule="nonzero" fill-opacity="1" /><path clip-path="url(#clip690)" d="M254.386 944.974 Q250.775 944.974 248.946 948.538 Q247.141 952.08 247.141 959.21 Q247.141 966.316 248.946 969.881 Q250.775 973.422 254.386 973.422 Q258.02 973.422 259.826 969.881 Q261.654 966.316 261.654 959.21 Q261.654 952.08 259.826 948.538 Q258.02 944.974 254.386 944.974 M254.386 941.27 Q260.196 941.27 263.252 945.876 Q266.33 950.46 266.33 959.21 Q266.33 967.936 263.252 972.543 Q260.196 977.126 254.386 977.126 Q248.576 977.126 245.497 972.543 Q242.441 967.936 242.441 959.21 Q242.441 950.46 245.497 945.876 Q248.576 941.27 254.386 941.27 Z" fill="#000000" fill-rule="nonzero" fill-opacity="1" /><path clip-path="url(#clip690)" d="M179.988 732.691 Q176.377 732.691 174.548 736.256 Q172.743 739.797 172.743 746.927 Q172.743 754.033 174.548 757.598 Q176.377 761.14 179.988 761.14 Q183.622 761.14 185.428 757.598 Q187.257 754.033 187.257 746.927 Q187.257 739.797 185.428 736.256 Q183.622 732.691 179.988 732.691 M179.988 728.987 Q185.798 728.987 188.854 733.594 Q191.932 738.177 191.932 746.927 Q191.932 755.654 188.854 760.26 Q185.798 764.843 179.988 764.843 Q174.178 764.843 171.099 760.26 Q168.044 755.654 168.044 746.927 Q168.044 738.177 171.099 733.594 Q174.178 728.987 179.988 728.987 Z" fill="#000000" fill-rule="nonzero" fill-opacity="1" /><path clip-path="url(#clip690)" d="M200.15 758.292 L205.034 758.292 L205.034 764.172 L200.15 764.172 L200.15 758.292 Z" fill="#000000" fill-rule="nonzero" fill-opacity="1" /><path clip-path="url(#clip690)" d="M219.247 760.237 L235.566 760.237 L235.566 764.172 L213.622 764.172 L213.622 760.237 Q216.284 757.482 220.868 752.853 Q225.474 748.2 226.655 746.857 Q228.9 744.334 229.779 742.598 Q230.682 740.839 230.682 739.149 Q230.682 736.394 228.738 734.658 Q226.817 732.922 223.715 732.922 Q221.516 732.922 219.062 733.686 Q216.631 734.45 213.854 736.001 L213.854 731.279 Q216.678 730.144 219.131 729.566 Q221.585 728.987 223.622 728.987 Q228.992 728.987 232.187 731.672 Q235.381 734.357 235.381 738.848 Q235.381 740.978 234.571 742.899 Q233.784 744.797 231.678 747.39 Q231.099 748.061 227.997 751.279 Q224.895 754.473 219.247 760.237 Z" fill="#000000" fill-rule="nonzero" fill-opacity="1" /><path clip-path="url(#clip690)" d="M245.428 729.612 L263.784 729.612 L263.784 733.547 L249.71 733.547 L249.71 742.019 Q250.728 741.672 251.747 741.51 Q252.765 741.325 253.784 741.325 Q259.571 741.325 262.951 744.496 Q266.33 747.668 266.33 753.084 Q266.33 758.663 262.858 761.765 Q259.386 764.843 253.066 764.843 Q250.89 764.843 248.622 764.473 Q246.377 764.103 243.969 763.362 L243.969 758.663 Q246.053 759.797 248.275 760.353 Q250.497 760.908 252.974 760.908 Q256.978 760.908 259.316 758.802 Q261.654 756.695 261.654 753.084 Q261.654 749.473 259.316 747.367 Q256.978 745.26 252.974 745.26 Q251.099 745.26 249.224 745.677 Q247.372 746.093 245.428 746.973 L245.428 729.612 Z" fill="#000000" fill-rule="nonzero" fill-opacity="1" /><path clip-path="url(#clip690)" d="M178.993 520.408 Q175.382 520.408 173.553 523.973 Q171.747 527.514 171.747 534.644 Q171.747 541.75 173.553 545.315 Q175.382 548.857 178.993 548.857 Q182.627 548.857 184.433 545.315 Q186.261 541.75 186.261 534.644 Q186.261 527.514 184.433 523.973 Q182.627 520.408 178.993 520.408 M178.993 516.704 Q184.803 516.704 187.858 521.311 Q190.937 525.894 190.937 534.644 Q190.937 543.371 187.858 547.977 Q184.803 552.561 178.993 552.561 Q173.183 552.561 170.104 547.977 Q167.048 543.371 167.048 534.644 Q167.048 525.894 170.104 521.311 Q173.183 516.704 178.993 516.704 Z" fill="#000000" fill-rule="nonzero" fill-opacity="1" /><path clip-path="url(#clip690)" d="M199.155 546.01 L204.039 546.01 L204.039 551.889 L199.155 551.889 L199.155 546.01 Z" fill="#000000" fill-rule="nonzero" fill-opacity="1" /><path clip-path="url(#clip690)" d="M214.27 517.329 L232.627 517.329 L232.627 521.264 L218.553 521.264 L218.553 529.737 Q219.571 529.389 220.59 529.227 Q221.608 529.042 222.627 529.042 Q228.414 529.042 231.793 532.213 Q235.173 535.385 235.173 540.801 Q235.173 546.38 231.701 549.482 Q228.229 552.561 221.909 552.561 Q219.733 552.561 217.465 552.19 Q215.219 551.82 212.812 551.079 L212.812 546.38 Q214.895 547.514 217.118 548.07 Q219.34 548.625 221.817 548.625 Q225.821 548.625 228.159 546.519 Q230.497 544.412 230.497 540.801 Q230.497 537.19 228.159 535.084 Q225.821 532.977 221.817 532.977 Q219.942 532.977 218.067 533.394 Q216.215 533.811 214.27 534.69 L214.27 517.329 Z" fill="#000000" fill-rule="nonzero" fill-opacity="1" /><path clip-path="url(#clip690)" d="M254.386 520.408 Q250.775 520.408 248.946 523.973 Q247.141 527.514 247.141 534.644 Q247.141 541.75 248.946 545.315 Q250.775 548.857 254.386 548.857 Q258.02 548.857 259.826 545.315 Q261.654 541.75 261.654 534.644 Q261.654 527.514 259.826 523.973 Q258.02 520.408 254.386 520.408 M254.386 516.704 Q260.196 516.704 263.252 521.311 Q266.33 525.894 266.33 534.644 Q266.33 543.371 263.252 547.977 Q260.196 552.561 254.386 552.561 Q248.576 552.561 245.497 547.977 Q242.441 543.371 242.441 534.644 Q242.441 525.894 245.497 521.311 Q248.576 516.704 254.386 516.704 Z" fill="#000000" fill-rule="nonzero" fill-opacity="1" /><path clip-path="url(#clip690)" d="M179.988 308.125 Q176.377 308.125 174.548 311.69 Q172.743 315.232 172.743 322.361 Q172.743 329.468 174.548 333.032 Q176.377 336.574 179.988 336.574 Q183.622 336.574 185.428 333.032 Q187.257 329.468 187.257 322.361 Q187.257 315.232 185.428 311.69 Q183.622 308.125 179.988 308.125 M179.988 304.421 Q185.798 304.421 188.854 309.028 Q191.932 313.611 191.932 322.361 Q191.932 331.088 188.854 335.694 Q185.798 340.278 179.988 340.278 Q174.178 340.278 171.099 335.694 Q168.044 331.088 168.044 322.361 Q168.044 313.611 171.099 309.028 Q174.178 304.421 179.988 304.421 Z" fill="#000000" fill-rule="nonzero" fill-opacity="1" /><path clip-path="url(#clip690)" d="M200.15 333.727 L205.034 333.727 L205.034 339.606 L200.15 339.606 L200.15 333.727 Z" fill="#000000" fill-rule="nonzero" fill-opacity="1" /><path clip-path="url(#clip690)" d="M214.039 305.046 L236.261 305.046 L236.261 307.037 L223.715 339.606 L218.83 339.606 L230.636 308.982 L214.039 308.982 L214.039 305.046 Z" fill="#000000" fill-rule="nonzero" fill-opacity="1" /><path clip-path="url(#clip690)" d="M245.428 305.046 L263.784 305.046 L263.784 308.982 L249.71 308.982 L249.71 317.454 Q250.728 317.107 251.747 316.945 Q252.765 316.759 253.784 316.759 Q259.571 316.759 262.951 319.931 Q266.33 323.102 266.33 328.519 Q266.33 334.097 262.858 337.199 Q259.386 340.278 253.066 340.278 Q250.89 340.278 248.622 339.907 Q246.377 339.537 243.969 338.796 L243.969 334.097 Q246.053 335.231 248.275 335.787 Q250.497 336.343 252.974 336.343 Q256.978 336.343 259.316 334.236 Q261.654 332.13 261.654 328.519 Q261.654 324.907 259.316 322.801 Q256.978 320.694 252.974 320.694 Q251.099 320.694 249.224 321.111 Q247.372 321.528 245.428 322.407 L245.428 305.046 Z" fill="#000000" fill-rule="nonzero" fill-opacity="1" /><path clip-path="url(#clip690)" d="M169.803 123.388 L177.442 123.388 L177.442 97.0228 L169.132 98.6895 L169.132 94.4303 L177.396 92.7636 L182.071 92.7636 L182.071 123.388 L189.71 123.388 L189.71 127.324 L169.803 127.324 L169.803 123.388 Z" fill="#000000" fill-rule="nonzero" fill-opacity="1" /><path clip-path="url(#clip690)" d="M199.155 121.444 L204.039 121.444 L204.039 127.324 L199.155 127.324 L199.155 121.444 Z" fill="#000000" fill-rule="nonzero" fill-opacity="1" /><path clip-path="url(#clip690)" d="M224.224 95.8423 Q220.613 95.8423 218.784 99.4071 Q216.979 102.949 216.979 110.078 Q216.979 117.185 218.784 120.75 Q220.613 124.291 224.224 124.291 Q227.858 124.291 229.664 120.75 Q231.492 117.185 231.492 110.078 Q231.492 102.949 229.664 99.4071 Q227.858 95.8423 224.224 95.8423 M224.224 92.1386 Q230.034 92.1386 233.09 96.7451 Q236.168 101.328 236.168 110.078 Q236.168 118.805 233.09 123.412 Q230.034 127.995 224.224 127.995 Q218.414 127.995 215.335 123.412 Q212.28 118.805 212.28 110.078 Q212.28 101.328 215.335 96.7451 Q218.414 92.1386 224.224 92.1386 Z" fill="#000000" fill-rule="nonzero" fill-opacity="1" /><path clip-path="url(#clip690)" d="M254.386 95.8423 Q250.775 95.8423 248.946 99.4071 Q247.141 102.949 247.141 110.078 Q247.141 117.185 248.946 120.75 Q250.775 124.291 254.386 124.291 Q258.02 124.291 259.826 120.75 Q261.654 117.185 261.654 110.078 Q261.654 102.949 259.826 99.4071 Q258.02 95.8423 254.386 95.8423 M254.386 92.1386 Q260.196 92.1386 263.252 96.7451 Q266.33 101.328 266.33 110.078 Q266.33 118.805 263.252 123.412 Q260.196 127.995 254.386 127.995 Q248.576 127.995 245.497 123.412 Q242.441 118.805 242.441 110.078 Q242.441 101.328 245.497 96.7451 Q248.576 92.1386 254.386 92.1386 Z" fill="#000000" fill-rule="nonzero" fill-opacity="1" /><path clip-path="url(#clip690)" d="M45.1444 518.217 L62.4909 531.108 L80.7923 517.549 L80.7923 524.456 L66.7878 534.832 L80.7923 545.208 L80.7923 552.115 L62.1408 538.269 L45.1444 550.937 L45.1444 544.03 L57.844 534.577 L45.1444 525.124 L45.1444 518.217 Z" fill="#000000" fill-rule="nonzero" fill-opacity="1" /><path clip-path="url(#clip690)" d="M1118.23 17.6457 Q1109.32 17.6457 1104.05 24.2892 Q1098.83 30.9327 1098.83 42.3968 Q1098.83 53.8203 1104.05 60.4638 Q1109.32 67.1073 1118.23 67.1073 Q1127.14 67.1073 1132.33 60.4638 Q1137.56 53.8203 1137.56 42.3968 Q1137.56 30.9327 1132.33 24.2892 Q1127.14 17.6457 1118.23 17.6457 M1118.23 11.0023 Q1130.95 11.0023 1138.57 19.5497 Q1146.18 28.0566 1146.18 42.3968 Q1146.18 56.6965 1138.57 65.2439 Q1130.95 73.7508 1118.23 73.7508 Q1105.47 73.7508 1097.82 65.2439 Q1090.2 56.737 1090.2 42.3968 Q1090.2 28.0566 1097.82 19.5497 Q1105.47 11.0023 1118.23 11.0023 Z" fill="#000000" fill-rule="nonzero" fill-opacity="1" /><path clip-path="url(#clip690)" d="M1184.95 34.1734 Q1183.69 33.4443 1182.2 33.1202 Q1180.74 32.7556 1178.96 32.7556 Q1172.64 32.7556 1169.23 36.8875 Q1165.87 40.9789 1165.87 48.6757 L1165.87 72.576 L1158.38 72.576 L1158.38 27.2059 L1165.87 27.2059 L1165.87 34.2544 Q1168.22 30.1225 1171.99 28.1376 Q1175.76 26.1121 1181.14 26.1121 Q1181.91 26.1121 1182.84 26.2337 Q1183.78 26.3147 1184.91 26.5172 L1184.95 34.1734 Z" fill="#000000" fill-rule="nonzero" fill-opacity="1" /><path clip-path="url(#clip690)" d="M1192.77 27.2059 L1200.22 27.2059 L1200.22 72.576 L1192.77 72.576 L1192.77 27.2059 M1192.77 9.54393 L1200.22 9.54393 L1200.22 18.9825 L1192.77 18.9825 L1192.77 9.54393 Z" fill="#000000" fill-rule="nonzero" fill-opacity="1" /><path clip-path="url(#clip690)" d="M1245.67 49.3643 Q1245.67 41.2625 1242.31 36.8065 Q1238.99 32.3505 1232.95 32.3505 Q1226.96 32.3505 1223.6 36.8065 Q1220.27 41.2625 1220.27 49.3643 Q1220.27 57.4256 1223.6 61.8816 Q1226.96 66.3376 1232.95 66.3376 Q1238.99 66.3376 1242.31 61.8816 Q1245.67 57.4256 1245.67 49.3643 M1253.13 66.9452 Q1253.13 78.5308 1247.98 84.1616 Q1242.84 89.8329 1232.22 89.8329 Q1228.3 89.8329 1224.81 89.2252 Q1221.33 88.6581 1218.05 87.4428 L1218.05 80.1917 Q1221.33 81.9741 1224.53 82.8248 Q1227.73 83.6755 1231.05 83.6755 Q1238.38 83.6755 1242.03 79.8271 Q1245.67 76.0193 1245.67 68.282 L1245.67 64.5957 Q1243.36 68.6061 1239.76 70.5911 Q1236.15 72.576 1231.13 72.576 Q1222.79 72.576 1217.68 66.2161 Q1212.58 59.8562 1212.58 49.3643 Q1212.58 38.832 1217.68 32.472 Q1222.79 26.1121 1231.13 26.1121 Q1236.15 26.1121 1239.76 28.0971 Q1243.36 30.082 1245.67 34.0924 L1245.67 27.2059 L1253.13 27.2059 L1253.13 66.9452 Z" fill="#000000" fill-rule="nonzero" fill-opacity="1" /><path clip-path="url(#clip690)" d="M1268.48 27.2059 L1275.93 27.2059 L1275.93 72.576 L1268.48 72.576 L1268.48 27.2059 M1268.48 9.54393 L1275.93 9.54393 L1275.93 18.9825 L1268.48 18.9825 L1268.48 9.54393 Z" fill="#000000" fill-rule="nonzero" fill-opacity="1" /><path clip-path="url(#clip690)" d="M1329.24 45.1919 L1329.24 72.576 L1321.79 72.576 L1321.79 45.4349 Q1321.79 38.994 1319.28 35.7938 Q1316.77 32.5936 1311.74 32.5936 Q1305.71 32.5936 1302.22 36.4419 Q1298.74 40.2903 1298.74 46.9338 L1298.74 72.576 L1291.25 72.576 L1291.25 27.2059 L1298.74 27.2059 L1298.74 34.2544 Q1301.41 30.163 1305.02 28.1376 Q1308.67 26.1121 1313.4 26.1121 Q1321.22 26.1121 1325.23 30.9732 Q1329.24 35.7938 1329.24 45.1919 Z" fill="#000000" fill-rule="nonzero" fill-opacity="1" /><path clip-path="url(#clip690)" d="M1364.73 49.7694 Q1355.7 49.7694 1352.21 51.8354 Q1348.73 53.9013 1348.73 58.8839 Q1348.73 62.8538 1351.32 65.2034 Q1353.95 67.5124 1358.45 67.5124 Q1364.65 67.5124 1368.38 63.1374 Q1372.14 58.7219 1372.14 51.4303 L1372.14 49.7694 L1364.73 49.7694 M1379.6 46.6907 L1379.6 72.576 L1372.14 72.576 L1372.14 65.6895 Q1369.59 69.8214 1365.78 71.8063 Q1361.98 73.7508 1356.47 73.7508 Q1349.5 73.7508 1345.37 69.8619 Q1341.28 65.9325 1341.28 59.3701 Q1341.28 51.7138 1346.38 47.825 Q1351.52 43.9361 1361.69 43.9361 L1372.14 43.9361 L1372.14 43.2069 Q1372.14 38.0623 1368.74 35.2672 Q1365.38 32.4315 1359.26 32.4315 Q1355.37 32.4315 1351.69 33.3632 Q1348 34.295 1344.6 36.1584 L1344.6 29.2718 Q1348.69 27.692 1352.54 26.9223 Q1356.39 26.1121 1360.03 26.1121 Q1369.87 26.1121 1374.74 31.2163 Q1379.6 36.3204 1379.6 46.6907 Z" fill="#000000" fill-rule="nonzero" fill-opacity="1" /><path clip-path="url(#clip690)" d="M1394.95 9.54393 L1402.4 9.54393 L1402.4 72.576 L1394.95 72.576 L1394.95 9.54393 Z" fill="#000000" fill-rule="nonzero" fill-opacity="1" /><path clip-path="url(#clip690)" d="M1474.23 34.0924 L1474.23 9.54393 L1481.68 9.54393 L1481.68 72.576 L1474.23 72.576 L1474.23 65.7705 Q1471.88 69.8214 1468.27 71.8063 Q1464.71 73.7508 1459.68 73.7508 Q1451.46 73.7508 1446.27 67.1883 Q1441.13 60.6258 1441.13 49.9314 Q1441.13 39.2371 1446.27 32.6746 Q1451.46 26.1121 1459.68 26.1121 Q1464.71 26.1121 1468.27 28.0971 Q1471.88 30.0415 1474.23 34.0924 M1448.83 49.9314 Q1448.83 58.1548 1452.19 62.8538 Q1455.59 67.5124 1461.51 67.5124 Q1467.42 67.5124 1470.82 62.8538 Q1474.23 58.1548 1474.23 49.9314 Q1474.23 41.7081 1470.82 37.0496 Q1467.42 32.3505 1461.51 32.3505 Q1455.59 32.3505 1452.19 37.0496 Q1448.83 41.7081 1448.83 49.9314 Z" fill="#000000" fill-rule="nonzero" fill-opacity="1" /><path clip-path="url(#clip690)" d="M1517.65 49.7694 Q1508.62 49.7694 1505.13 51.8354 Q1501.65 53.9013 1501.65 58.8839 Q1501.65 62.8538 1504.24 65.2034 Q1506.88 67.5124 1511.37 67.5124 Q1517.57 67.5124 1521.3 63.1374 Q1525.06 58.7219 1525.06 51.4303 L1525.06 49.7694 L1517.65 49.7694 M1532.52 46.6907 L1532.52 72.576 L1525.06 72.576 L1525.06 65.6895 Q1522.51 69.8214 1518.7 71.8063 Q1514.9 73.7508 1509.39 73.7508 Q1502.42 73.7508 1498.29 69.8619 Q1494.2 65.9325 1494.2 59.3701 Q1494.2 51.7138 1499.3 47.825 Q1504.45 43.9361 1514.61 43.9361 L1525.06 43.9361 L1525.06 43.2069 Q1525.06 38.0623 1521.66 35.2672 Q1518.3 32.4315 1512.18 32.4315 Q1508.29 32.4315 1504.61 33.3632 Q1500.92 34.295 1497.52 36.1584 L1497.52 29.2718 Q1501.61 27.692 1505.46 26.9223 Q1509.31 26.1121 1512.95 26.1121 Q1522.8 26.1121 1527.66 31.2163 Q1532.52 36.3204 1532.52 46.6907 Z" fill="#000000" fill-rule="nonzero" fill-opacity="1" /><path clip-path="url(#clip690)" d="M1555.24 14.324 L1555.24 27.2059 L1570.6 27.2059 L1570.6 32.9987 L1555.24 32.9987 L1555.24 57.6282 Q1555.24 63.1779 1556.74 64.7578 Q1558.28 66.3376 1562.94 66.3376 L1570.6 66.3376 L1570.6 72.576 L1562.94 72.576 Q1554.31 72.576 1551.03 69.3758 Q1547.75 66.1351 1547.75 57.6282 L1547.75 32.9987 L1542.28 32.9987 L1542.28 27.2059 L1547.75 27.2059 L1547.75 14.324 L1555.24 14.324 Z" fill="#000000" fill-rule="nonzero" fill-opacity="1" /><path clip-path="url(#clip690)" d="M1601.02 49.7694 Q1591.99 49.7694 1588.5 51.8354 Q1585.02 53.9013 1585.02 58.8839 Q1585.02 62.8538 1587.61 65.2034 Q1590.24 67.5124 1594.74 67.5124 Q1600.94 67.5124 1604.66 63.1374 Q1608.43 58.7219 1608.43 51.4303 L1608.43 49.7694 L1601.02 49.7694 M1615.89 46.6907 L1615.89 72.576 L1608.43 72.576 L1608.43 65.6895 Q1605.88 69.8214 1602.07 71.8063 Q1598.26 73.7508 1592.76 73.7508 Q1585.79 73.7508 1581.66 69.8619 Q1577.56 65.9325 1577.56 59.3701 Q1577.56 51.7138 1582.67 47.825 Q1587.81 43.9361 1597.98 43.9361 L1608.43 43.9361 L1608.43 43.2069 Q1608.43 38.0623 1605.03 35.2672 Q1601.67 32.4315 1595.55 32.4315 Q1591.66 32.4315 1587.98 33.3632 Q1584.29 34.295 1580.89 36.1584 L1580.89 29.2718 Q1584.98 27.692 1588.83 26.9223 Q1592.67 26.1121 1596.32 26.1121 Q1606.16 26.1121 1611.02 31.2163 Q1615.89 36.3204 1615.89 46.6907 Z" fill="#000000" fill-rule="nonzero" fill-opacity="1" /><polyline clip-path="url(#clip692)" style="stroke:#009af9; stroke-linecap:round; stroke-linejoin:round; stroke-width:4; stroke-opacity:1; fill:none" points="395.767,811.787 415.106,686.042 434.445,739.602 453.784,817.847 473.122,511.67 492.461,549.026 511.8,627.45 531.139,277.524 550.478,126.383 569.817,878.99 589.156,496.604 608.495,590.725 627.834,779.814 647.173,803.419 666.512,664.095 685.851,430.466 705.189,936.261 724.528,128.182 743.867,119.119 763.206,912.219 782.545,419.993 801.884,248.167 821.223,398.782 840.562,269.665 859.901,198.491 879.24,466.499 898.579,530.836 917.917,897.476 937.256,260.281 956.595,661.626 975.934,881.407 995.273,164.829 1014.61,206.428 1033.95,498.157 1053.29,673.801 1072.63,739.878 1091.97,532.201 1111.31,923.102 1130.65,617.637 1149.98,397.035 1169.32,235.027 1188.66,820.313 1208,111.475 1227.34,782.327 1246.68,878.495 1266.02,119.721 1285.36,525.051 1304.7,660.736 1324.03,120.89 1343.37,238.085 1362.71,667.964 1382.05,327.234 1401.39,781.298 1420.73,697.24 1440.07,745.687 1459.41,735.728 1478.75,318.671 1498.08,128.66 1517.42,111.28 1536.76,945.508 1556.1,365.986 1575.44,128.964 1594.78,768.788 1614.12,366.286 1633.46,305.963 1652.8,508.743 1672.14,558.403 1691.47,126.335 1710.81,838.299 1730.15,342.102 1749.49,161.117 1768.83,111.096 1788.17,574.728 1807.51,907.85 1826.85,531.195 1846.19,245.649 1865.52,166.793 1884.86,257.098 1904.2,845.486 1923.54,524.84 1942.88,804.161 1962.22,315.847 1981.56,424.915 2000.9,857.144 2020.24,747.247 2039.57,719.841 2058.91,255.383 2078.25,645.556 2097.59,695.268 2116.93,790.118 2136.27,509.139 2155.61,958.568 2174.95,147.168 2194.29,790.979 2213.62,192.986 2232.96,428.937 2252.3,346.117 2271.64,643.004 2290.98,933.543 2310.32,891.81 "/>
<path clip-path="url(#clip690)" d="M2723.33 983.992 L4752.76 983.992 L4752.76 85.6721 L2723.33 85.6721  Z" fill="#ffffff" fill-rule="evenodd" fill-opacity="1"/>
<defs>
  <clipPath id="clip693">
    <rect x="2723" y="85" width="2030" height="899"/>
  </clipPath>
</defs>
<polyline clip-path="url(#clip693)" style="stroke:#000000; stroke-linecap:round; stroke-linejoin:round; stroke-width:2; stroke-opacity:0.1; fill:none" points="2761.43,983.992 2761.43,85.6721 "/>
<polyline clip-path="url(#clip693)" style="stroke:#000000; stroke-linecap:round; stroke-linejoin:round; stroke-width:2; stroke-opacity:0.1; fill:none" points="3244.9,983.992 3244.9,85.6721 "/>
<polyline clip-path="url(#clip693)" style="stroke:#000000; stroke-linecap:round; stroke-linejoin:round; stroke-width:2; stroke-opacity:0.1; fill:none" points="3728.37,983.992 3728.37,85.6721 "/>
<polyline clip-path="url(#clip693)" style="stroke:#000000; stroke-linecap:round; stroke-linejoin:round; stroke-width:2; stroke-opacity:0.1; fill:none" points="4211.85,983.992 4211.85,85.6721 "/>
<polyline clip-path="url(#clip693)" style="stroke:#000000; stroke-linecap:round; stroke-linejoin:round; stroke-width:2; stroke-opacity:0.1; fill:none" points="4695.32,983.992 4695.32,85.6721 "/>
<polyline clip-path="url(#clip693)" style="stroke:#000000; stroke-linecap:round; stroke-linejoin:round; stroke-width:2; stroke-opacity:0.1; fill:none" points="2723.33,966.186 4752.76,966.186 "/>
<polyline clip-path="url(#clip693)" style="stroke:#000000; stroke-linecap:round; stroke-linejoin:round; stroke-width:2; stroke-opacity:0.1; fill:none" points="2723.33,794.743 4752.76,794.743 "/>
<polyline clip-path="url(#clip693)" style="stroke:#000000; stroke-linecap:round; stroke-linejoin:round; stroke-width:2; stroke-opacity:0.1; fill:none" points="2723.33,623.3 4752.76,623.3 "/>
<polyline clip-path="url(#clip693)" style="stroke:#000000; stroke-linecap:round; stroke-linejoin:round; stroke-width:2; stroke-opacity:0.1; fill:none" points="2723.33,451.857 4752.76,451.857 "/>
<polyline clip-path="url(#clip693)" style="stroke:#000000; stroke-linecap:round; stroke-linejoin:round; stroke-width:2; stroke-opacity:0.1; fill:none" points="2723.33,280.414 4752.76,280.414 "/>
<polyline clip-path="url(#clip693)" style="stroke:#000000; stroke-linecap:round; stroke-linejoin:round; stroke-width:2; stroke-opacity:0.1; fill:none" points="2723.33,108.971 4752.76,108.971 "/>
<polyline clip-path="url(#clip690)" style="stroke:#000000; stroke-linecap:round; stroke-linejoin:round; stroke-width:4; stroke-opacity:1; fill:none" points="2723.33,983.992 4752.76,983.992 "/>
<polyline clip-path="url(#clip690)" style="stroke:#000000; stroke-linecap:round; stroke-linejoin:round; stroke-width:4; stroke-opacity:1; fill:none" points="2761.43,983.992 2761.43,965.094 "/>
<polyline clip-path="url(#clip690)" style="stroke:#000000; stroke-linecap:round; stroke-linejoin:round; stroke-width:4; stroke-opacity:1; fill:none" points="3244.9,983.992 3244.9,965.094 "/>
<polyline clip-path="url(#clip690)" style="stroke:#000000; stroke-linecap:round; stroke-linejoin:round; stroke-width:4; stroke-opacity:1; fill:none" points="3728.37,983.992 3728.37,965.094 "/>
<polyline clip-path="url(#clip690)" style="stroke:#000000; stroke-linecap:round; stroke-linejoin:round; stroke-width:4; stroke-opacity:1; fill:none" points="4211.85,983.992 4211.85,965.094 "/>
<polyline clip-path="url(#clip690)" style="stroke:#000000; stroke-linecap:round; stroke-linejoin:round; stroke-width:4; stroke-opacity:1; fill:none" points="4695.32,983.992 4695.32,965.094 "/>
<path clip-path="url(#clip690)" d="M2761.43 1034.11 Q2757.82 1034.11 2755.99 1037.68 Q2754.18 1041.22 2754.18 1048.35 Q2754.18 1055.45 2755.99 1059.02 Q2757.82 1062.56 2761.43 1062.56 Q2765.06 1062.56 2766.87 1059.02 Q2768.7 1055.45 2768.7 1048.35 Q2768.7 1041.22 2766.87 1037.68 Q2765.06 1034.11 2761.43 1034.11 M2761.43 1030.41 Q2767.24 1030.41 2770.29 1035.01 Q2773.37 1039.6 2773.37 1048.35 Q2773.37 1057.07 2770.29 1061.68 Q2767.24 1066.26 2761.43 1066.26 Q2755.62 1066.26 2752.54 1061.68 Q2749.48 1057.07 2749.48 1048.35 Q2749.48 1039.6 2752.54 1035.01 Q2755.62 1030.41 2761.43 1030.41 Z" fill="#000000" fill-rule="nonzero" fill-opacity="1" /><path clip-path="url(#clip690)" d="M3224.17 1061.66 L3240.49 1061.66 L3240.49 1065.59 L3218.55 1065.59 L3218.55 1061.66 Q3221.21 1058.9 3225.79 1054.27 Q3230.4 1049.62 3231.58 1048.28 Q3233.82 1045.75 3234.7 1044.02 Q3235.61 1042.26 3235.61 1040.57 Q3235.61 1037.81 3233.66 1036.08 Q3231.74 1034.34 3228.64 1034.34 Q3226.44 1034.34 3223.99 1035.11 Q3221.56 1035.87 3218.78 1037.42 L3218.78 1032.7 Q3221.6 1031.56 3224.06 1030.99 Q3226.51 1030.41 3228.55 1030.41 Q3233.92 1030.41 3237.11 1033.09 Q3240.31 1035.78 3240.31 1040.27 Q3240.31 1042.4 3239.5 1044.32 Q3238.71 1046.22 3236.6 1048.81 Q3236.02 1049.48 3232.92 1052.7 Q3229.82 1055.89 3224.17 1061.66 Z" fill="#000000" fill-rule="nonzero" fill-opacity="1" /><path clip-path="url(#clip690)" d="M3250.35 1031.03 L3268.71 1031.03 L3268.71 1034.97 L3254.63 1034.97 L3254.63 1043.44 Q3255.65 1043.09 3256.67 1042.93 Q3257.69 1042.74 3258.71 1042.74 Q3264.5 1042.74 3267.88 1045.92 Q3271.25 1049.09 3271.25 1054.5 Q3271.25 1060.08 3267.78 1063.18 Q3264.31 1066.26 3257.99 1066.26 Q3255.82 1066.26 3253.55 1065.89 Q3251.3 1065.52 3248.89 1064.78 L3248.89 1060.08 Q3250.98 1061.22 3253.2 1061.77 Q3255.42 1062.33 3257.9 1062.33 Q3261.9 1062.33 3264.24 1060.22 Q3266.58 1058.11 3266.58 1054.5 Q3266.58 1050.89 3264.24 1048.79 Q3261.9 1046.68 3257.9 1046.68 Q3256.02 1046.68 3254.15 1047.1 Q3252.3 1047.51 3250.35 1048.39 L3250.35 1031.03 Z" fill="#000000" fill-rule="nonzero" fill-opacity="1" /><path clip-path="url(#clip690)" d="M3703.07 1031.03 L3721.43 1031.03 L3721.43 1034.97 L3707.36 1034.97 L3707.36 1043.44 Q3708.37 1043.09 3709.39 1042.93 Q3710.41 1042.74 3711.43 1042.74 Q3717.22 1042.74 3720.6 1045.92 Q3723.98 1049.09 3723.98 1054.5 Q3723.98 1060.08 3720.5 1063.18 Q3717.03 1066.26 3710.71 1066.26 Q3708.54 1066.26 3706.27 1065.89 Q3704.02 1065.52 3701.61 1064.78 L3701.61 1060.08 Q3703.7 1061.22 3705.92 1061.77 Q3708.14 1062.33 3710.62 1062.33 Q3714.62 1062.33 3716.96 1060.22 Q3719.3 1058.11 3719.3 1054.5 Q3719.3 1050.89 3716.96 1048.79 Q3714.62 1046.68 3710.62 1046.68 Q3708.74 1046.68 3706.87 1047.1 Q3705.02 1047.51 3703.07 1048.39 L3703.07 1031.03 Z" fill="#000000" fill-rule="nonzero" fill-opacity="1" /><path clip-path="url(#clip690)" d="M3743.19 1034.11 Q3739.58 1034.11 3737.75 1037.68 Q3735.94 1041.22 3735.94 1048.35 Q3735.94 1055.45 3737.75 1059.02 Q3739.58 1062.56 3743.19 1062.56 Q3746.82 1062.56 3748.63 1059.02 Q3750.46 1055.45 3750.46 1048.35 Q3750.46 1041.22 3748.63 1037.68 Q3746.82 1034.11 3743.19 1034.11 M3743.19 1030.41 Q3749 1030.41 3752.05 1035.01 Q3755.13 1039.6 3755.13 1048.35 Q3755.13 1057.07 3752.05 1061.68 Q3749 1066.26 3743.19 1066.26 Q3737.38 1066.26 3734.3 1061.68 Q3731.24 1057.07 3731.24 1048.35 Q3731.24 1039.6 3734.3 1035.01 Q3737.38 1030.41 3743.19 1030.41 Z" fill="#000000" fill-rule="nonzero" fill-opacity="1" /><path clip-path="url(#clip690)" d="M4185.7 1031.03 L4207.92 1031.03 L4207.92 1033.02 L4195.38 1065.59 L4190.49 1065.59 L4202.3 1034.97 L4185.7 1034.97 L4185.7 1031.03 Z" fill="#000000" fill-rule="nonzero" fill-opacity="1" /><path clip-path="url(#clip690)" d="M4217.09 1031.03 L4235.45 1031.03 L4235.45 1034.97 L4221.37 1034.97 L4221.37 1043.44 Q4222.39 1043.09 4223.41 1042.93 Q4224.43 1042.74 4225.45 1042.74 Q4231.23 1042.74 4234.61 1045.92 Q4237.99 1049.09 4237.99 1054.5 Q4237.99 1060.08 4234.52 1063.18 Q4231.05 1066.26 4224.73 1066.26 Q4222.55 1066.26 4220.28 1065.89 Q4218.04 1065.52 4215.63 1064.78 L4215.63 1060.08 Q4217.71 1061.22 4219.94 1061.77 Q4222.16 1062.33 4224.64 1062.33 Q4228.64 1062.33 4230.98 1060.22 Q4233.32 1058.11 4233.32 1054.5 Q4233.32 1050.89 4230.98 1048.79 Q4228.64 1046.68 4224.64 1046.68 Q4222.76 1046.68 4220.89 1047.1 Q4219.03 1047.51 4217.09 1048.39 L4217.09 1031.03 Z" fill="#000000" fill-rule="nonzero" fill-opacity="1" /><path clip-path="url(#clip690)" d="M4654.93 1061.66 L4662.56 1061.66 L4662.56 1035.29 L4654.25 1036.96 L4654.25 1032.7 L4662.52 1031.03 L4667.19 1031.03 L4667.19 1061.66 L4674.83 1061.66 L4674.83 1065.59 L4654.93 1065.59 L4654.93 1061.66 Z" fill="#000000" fill-rule="nonzero" fill-opacity="1" /><path clip-path="url(#clip690)" d="M4694.28 1034.11 Q4690.67 1034.11 4688.84 1037.68 Q4687.03 1041.22 4687.03 1048.35 Q4687.03 1055.45 4688.84 1059.02 Q4690.67 1062.56 4694.28 1062.56 Q4697.91 1062.56 4699.72 1059.02 Q4701.55 1055.45 4701.55 1048.35 Q4701.55 1041.22 4699.72 1037.68 Q4697.91 1034.11 4694.28 1034.11 M4694.28 1030.41 Q4700.09 1030.41 4703.14 1035.01 Q4706.22 1039.6 4706.22 1048.35 Q4706.22 1057.07 4703.14 1061.68 Q4700.09 1066.26 4694.28 1066.26 Q4688.47 1066.26 4685.39 1061.68 Q4682.33 1057.07 4682.33 1048.35 Q4682.33 1039.6 4685.39 1035.01 Q4688.47 1030.41 4694.28 1030.41 Z" fill="#000000" fill-rule="nonzero" fill-opacity="1" /><path clip-path="url(#clip690)" d="M4724.44 1034.11 Q4720.83 1034.11 4719 1037.68 Q4717.19 1041.22 4717.19 1048.35 Q4717.19 1055.45 4719 1059.02 Q4720.83 1062.56 4724.44 1062.56 Q4728.07 1062.56 4729.88 1059.02 Q4731.71 1055.45 4731.71 1048.35 Q4731.71 1041.22 4729.88 1037.68 Q4728.07 1034.11 4724.44 1034.11 M4724.44 1030.41 Q4730.25 1030.41 4733.31 1035.01 Q4736.38 1039.6 4736.38 1048.35 Q4736.38 1057.07 4733.31 1061.68 Q4730.25 1066.26 4724.44 1066.26 Q4718.63 1066.26 4715.55 1061.68 Q4712.5 1057.07 4712.5 1048.35 Q4712.5 1039.6 4715.55 1035.01 Q4718.63 1030.41 4724.44 1030.41 Z" fill="#000000" fill-rule="nonzero" fill-opacity="1" /><path clip-path="url(#clip690)" d="M3677.2 1119.09 L3677.2 1129.21 L3689.27 1129.21 L3689.27 1133.76 L3677.2 1133.76 L3677.2 1153.11 Q3677.2 1157.47 3678.38 1158.71 Q3679.59 1159.95 3683.25 1159.95 L3689.27 1159.95 L3689.27 1164.86 L3683.25 1164.86 Q3676.47 1164.86 3673.89 1162.34 Q3671.31 1159.79 3671.31 1153.11 L3671.31 1133.76 L3667.02 1133.76 L3667.02 1129.21 L3671.31 1129.21 L3671.31 1119.09 L3677.2 1119.09 Z" fill="#000000" fill-rule="nonzero" fill-opacity="1" /><path clip-path="url(#clip690)" d="M3696.97 1129.21 L3702.82 1129.21 L3702.82 1164.86 L3696.97 1164.86 L3696.97 1129.21 M3696.97 1115.33 L3702.82 1115.33 L3702.82 1122.75 L3696.97 1122.75 L3696.97 1115.33 Z" fill="#000000" fill-rule="nonzero" fill-opacity="1" /><path clip-path="url(#clip690)" d="M3742.83 1136.05 Q3745.03 1132.1 3748.09 1130.23 Q3751.14 1128.35 3755.28 1128.35 Q3760.85 1128.35 3763.87 1132.26 Q3766.9 1136.15 3766.9 1143.34 L3766.9 1164.86 L3761.01 1164.86 L3761.01 1143.53 Q3761.01 1138.41 3759.19 1135.92 Q3757.38 1133.44 3753.65 1133.44 Q3749.1 1133.44 3746.46 1136.46 Q3743.82 1139.49 3743.82 1144.71 L3743.82 1164.86 L3737.93 1164.86 L3737.93 1143.53 Q3737.93 1138.37 3736.12 1135.92 Q3734.3 1133.44 3730.52 1133.44 Q3726.03 1133.44 3723.39 1136.5 Q3720.74 1139.52 3720.74 1144.71 L3720.74 1164.86 L3714.86 1164.86 L3714.86 1129.21 L3720.74 1129.21 L3720.74 1134.75 Q3722.75 1131.47 3725.55 1129.91 Q3728.35 1128.35 3732.2 1128.35 Q3736.09 1128.35 3738.79 1130.32 Q3741.53 1132.3 3742.83 1136.05 Z" fill="#000000" fill-rule="nonzero" fill-opacity="1" /><path clip-path="url(#clip690)" d="M3809.07 1145.57 L3809.07 1148.43 L3782.14 1148.43 Q3782.52 1154.48 3785.77 1157.66 Q3789.05 1160.81 3794.87 1160.81 Q3798.25 1160.81 3801.4 1159.99 Q3804.58 1159.16 3807.7 1157.5 L3807.7 1163.04 Q3804.55 1164.38 3801.24 1165.08 Q3797.93 1165.78 3794.52 1165.78 Q3785.99 1165.78 3781 1160.81 Q3776.03 1155.85 3776.03 1147.38 Q3776.03 1138.63 3780.74 1133.5 Q3785.48 1128.35 3793.5 1128.35 Q3800.7 1128.35 3804.87 1133 Q3809.07 1137.61 3809.07 1145.57 M3803.21 1143.85 Q3803.15 1139.04 3800.51 1136.18 Q3797.9 1133.31 3793.57 1133.31 Q3788.67 1133.31 3785.71 1136.08 Q3782.78 1138.85 3782.33 1143.88 L3803.21 1143.85 Z" fill="#000000" fill-rule="nonzero" fill-opacity="1" /><polyline clip-path="url(#clip690)" style="stroke:#000000; stroke-linecap:round; stroke-linejoin:round; stroke-width:4; stroke-opacity:1; fill:none" points="2723.33,983.992 2723.33,85.6721 "/>
<polyline clip-path="url(#clip690)" style="stroke:#000000; stroke-linecap:round; stroke-linejoin:round; stroke-width:4; stroke-opacity:1; fill:none" points="2723.33,966.186 2742.23,966.186 "/>
<polyline clip-path="url(#clip690)" style="stroke:#000000; stroke-linecap:round; stroke-linejoin:round; stroke-width:4; stroke-opacity:1; fill:none" points="2723.33,794.743 2742.23,794.743 "/>
<polyline clip-path="url(#clip690)" style="stroke:#000000; stroke-linecap:round; stroke-linejoin:round; stroke-width:4; stroke-opacity:1; fill:none" points="2723.33,623.3 2742.23,623.3 "/>
<polyline clip-path="url(#clip690)" style="stroke:#000000; stroke-linecap:round; stroke-linejoin:round; stroke-width:4; stroke-opacity:1; fill:none" points="2723.33,451.857 2742.23,451.857 "/>
<polyline clip-path="url(#clip690)" style="stroke:#000000; stroke-linecap:round; stroke-linejoin:round; stroke-width:4; stroke-opacity:1; fill:none" points="2723.33,280.414 2742.23,280.414 "/>
<polyline clip-path="url(#clip690)" style="stroke:#000000; stroke-linecap:round; stroke-linejoin:round; stroke-width:4; stroke-opacity:1; fill:none" points="2723.33,108.971 2742.23,108.971 "/>
<path clip-path="url(#clip690)" d="M2595.15 951.984 Q2591.54 951.984 2589.71 955.549 Q2587.9 959.091 2587.9 966.22 Q2587.9 973.327 2589.71 976.892 Q2591.54 980.433 2595.15 980.433 Q2598.78 980.433 2600.59 976.892 Q2602.42 973.327 2602.42 966.22 Q2602.42 959.091 2600.59 955.549 Q2598.78 951.984 2595.15 951.984 M2595.15 948.281 Q2600.96 948.281 2604.02 952.887 Q2607.09 957.47 2607.09 966.22 Q2607.09 974.947 2604.02 979.554 Q2600.96 984.137 2595.15 984.137 Q2589.34 984.137 2586.26 979.554 Q2583.21 974.947 2583.21 966.22 Q2583.21 957.47 2586.26 952.887 Q2589.34 948.281 2595.15 948.281 Z" fill="#000000" fill-rule="nonzero" fill-opacity="1" /><path clip-path="url(#clip690)" d="M2615.31 977.586 L2620.2 977.586 L2620.2 983.466 L2615.31 983.466 L2615.31 977.586 Z" fill="#000000" fill-rule="nonzero" fill-opacity="1" /><path clip-path="url(#clip690)" d="M2630.43 948.906 L2648.78 948.906 L2648.78 952.841 L2634.71 952.841 L2634.71 961.313 Q2635.73 960.966 2636.75 960.804 Q2637.77 960.619 2638.78 960.619 Q2644.57 960.619 2647.95 963.79 Q2651.33 966.961 2651.33 972.378 Q2651.33 977.956 2647.86 981.058 Q2644.39 984.137 2638.07 984.137 Q2635.89 984.137 2633.62 983.767 Q2631.38 983.396 2628.97 982.656 L2628.97 977.956 Q2631.05 979.091 2633.27 979.646 Q2635.5 980.202 2637.97 980.202 Q2641.98 980.202 2644.32 978.095 Q2646.65 975.989 2646.65 972.378 Q2646.65 968.767 2644.32 966.66 Q2641.98 964.554 2637.97 964.554 Q2636.1 964.554 2634.22 964.97 Q2632.37 965.387 2630.43 966.267 L2630.43 948.906 Z" fill="#000000" fill-rule="nonzero" fill-opacity="1" /><path clip-path="url(#clip690)" d="M2593.99 780.541 Q2590.38 780.541 2588.55 784.106 Q2586.75 787.648 2586.75 794.777 Q2586.75 801.884 2588.55 805.449 Q2590.38 808.99 2593.99 808.99 Q2597.63 808.99 2599.43 805.449 Q2601.26 801.884 2601.26 794.777 Q2601.26 787.648 2599.43 784.106 Q2597.63 780.541 2593.99 780.541 M2593.99 776.838 Q2599.8 776.838 2602.86 781.444 Q2605.94 786.028 2605.94 794.777 Q2605.94 803.504 2602.86 808.111 Q2599.8 812.694 2593.99 812.694 Q2588.18 812.694 2585.1 808.111 Q2582.05 803.504 2582.05 794.777 Q2582.05 786.028 2585.1 781.444 Q2588.18 776.838 2593.99 776.838 Z" fill="#000000" fill-rule="nonzero" fill-opacity="1" /><path clip-path="url(#clip690)" d="M2614.15 806.143 L2619.04 806.143 L2619.04 812.023 L2614.15 812.023 L2614.15 806.143 Z" fill="#000000" fill-rule="nonzero" fill-opacity="1" /><path clip-path="url(#clip690)" d="M2639.8 792.879 Q2636.65 792.879 2634.8 795.032 Q2632.97 797.185 2632.97 800.935 Q2632.97 804.662 2634.8 806.838 Q2636.65 808.99 2639.8 808.99 Q2642.95 808.99 2644.78 806.838 Q2646.63 804.662 2646.63 800.935 Q2646.63 797.185 2644.78 795.032 Q2642.95 792.879 2639.8 792.879 M2649.08 778.227 L2649.08 782.486 Q2647.33 781.653 2645.52 781.213 Q2643.74 780.773 2641.98 780.773 Q2637.35 780.773 2634.9 783.898 Q2632.46 787.023 2632.12 793.342 Q2633.48 791.328 2635.54 790.264 Q2637.6 789.176 2640.08 789.176 Q2645.29 789.176 2648.3 792.347 Q2651.33 795.495 2651.33 800.935 Q2651.33 806.259 2648.18 809.476 Q2645.03 812.694 2639.8 812.694 Q2633.81 812.694 2630.64 808.111 Q2627.46 803.504 2627.46 794.777 Q2627.46 786.583 2631.35 781.722 Q2635.24 776.838 2641.79 776.838 Q2643.55 776.838 2645.33 777.185 Q2647.14 777.532 2649.08 778.227 Z" fill="#000000" fill-rule="nonzero" fill-opacity="1" /><path clip-path="url(#clip690)" d="M2595.06 609.098 Q2591.45 609.098 2589.62 612.663 Q2587.81 616.205 2587.81 623.335 Q2587.81 630.441 2589.62 634.006 Q2591.45 637.547 2595.06 637.547 Q2598.69 637.547 2600.5 634.006 Q2602.33 630.441 2602.33 623.335 Q2602.33 616.205 2600.5 612.663 Q2598.69 609.098 2595.06 609.098 M2595.06 605.395 Q2600.87 605.395 2603.92 610.001 Q2607 614.585 2607 623.335 Q2607 632.061 2603.92 636.668 Q2600.87 641.251 2595.06 641.251 Q2589.25 641.251 2586.17 636.668 Q2583.11 632.061 2583.11 623.335 Q2583.11 614.585 2586.17 610.001 Q2589.25 605.395 2595.06 605.395 Z" fill="#000000" fill-rule="nonzero" fill-opacity="1" /><path clip-path="url(#clip690)" d="M2615.22 634.7 L2620.1 634.7 L2620.1 640.58 L2615.22 640.58 L2615.22 634.7 Z" fill="#000000" fill-rule="nonzero" fill-opacity="1" /><path clip-path="url(#clip690)" d="M2629.11 606.02 L2651.33 606.02 L2651.33 608.011 L2638.78 640.58 L2633.9 640.58 L2645.71 609.955 L2629.11 609.955 L2629.11 606.02 Z" fill="#000000" fill-rule="nonzero" fill-opacity="1" /><path clip-path="url(#clip690)" d="M2594.25 437.656 Q2590.64 437.656 2588.81 441.22 Q2587 444.762 2587 451.892 Q2587 458.998 2588.81 462.563 Q2590.64 466.104 2594.25 466.104 Q2597.88 466.104 2599.69 462.563 Q2601.52 458.998 2601.52 451.892 Q2601.52 444.762 2599.69 441.22 Q2597.88 437.656 2594.25 437.656 M2594.25 433.952 Q2600.06 433.952 2603.11 438.558 Q2606.19 443.142 2606.19 451.892 Q2606.19 460.618 2603.11 465.225 Q2600.06 469.808 2594.25 469.808 Q2588.44 469.808 2585.36 465.225 Q2582.3 460.618 2582.3 451.892 Q2582.3 443.142 2585.36 438.558 Q2588.44 433.952 2594.25 433.952 Z" fill="#000000" fill-rule="nonzero" fill-opacity="1" /><path clip-path="url(#clip690)" d="M2614.41 463.257 L2619.29 463.257 L2619.29 469.137 L2614.41 469.137 L2614.41 463.257 Z" fill="#000000" fill-rule="nonzero" fill-opacity="1" /><path clip-path="url(#clip690)" d="M2639.48 452.725 Q2636.15 452.725 2634.22 454.507 Q2632.33 456.29 2632.33 459.415 Q2632.33 462.54 2634.22 464.322 Q2636.15 466.104 2639.48 466.104 Q2642.81 466.104 2644.73 464.322 Q2646.65 462.516 2646.65 459.415 Q2646.65 456.29 2644.73 454.507 Q2642.83 452.725 2639.48 452.725 M2634.8 450.734 Q2631.79 449.993 2630.1 447.933 Q2628.44 445.873 2628.44 442.91 Q2628.44 438.767 2631.38 436.359 Q2634.34 433.952 2639.48 433.952 Q2644.64 433.952 2647.58 436.359 Q2650.52 438.767 2650.52 442.91 Q2650.52 445.873 2648.83 447.933 Q2647.16 449.993 2644.18 450.734 Q2647.56 451.521 2649.43 453.813 Q2651.33 456.104 2651.33 459.415 Q2651.33 464.438 2648.25 467.123 Q2645.2 469.808 2639.48 469.808 Q2633.76 469.808 2630.68 467.123 Q2627.63 464.438 2627.63 459.415 Q2627.63 456.104 2629.52 453.813 Q2631.42 451.521 2634.8 450.734 M2633.09 443.35 Q2633.09 446.035 2634.76 447.54 Q2636.45 449.044 2639.48 449.044 Q2642.49 449.044 2644.18 447.54 Q2645.89 446.035 2645.89 443.35 Q2645.89 440.665 2644.18 439.16 Q2642.49 437.656 2639.48 437.656 Q2636.45 437.656 2634.76 439.16 Q2633.09 440.665 2633.09 443.35 Z" fill="#000000" fill-rule="nonzero" fill-opacity="1" /><path clip-path="url(#clip690)" d="M2594.34 266.213 Q2590.73 266.213 2588.9 269.777 Q2587.09 273.319 2587.09 280.449 Q2587.09 287.555 2588.9 291.12 Q2590.73 294.661 2594.34 294.661 Q2597.97 294.661 2599.78 291.12 Q2601.61 287.555 2601.61 280.449 Q2601.61 273.319 2599.78 269.777 Q2597.97 266.213 2594.34 266.213 M2594.34 262.509 Q2600.15 262.509 2603.21 267.115 Q2606.28 271.699 2606.28 280.449 Q2606.28 289.175 2603.21 293.782 Q2600.15 298.365 2594.34 298.365 Q2588.53 298.365 2585.45 293.782 Q2582.4 289.175 2582.4 280.449 Q2582.4 271.699 2585.45 267.115 Q2588.53 262.509 2594.34 262.509 Z" fill="#000000" fill-rule="nonzero" fill-opacity="1" /><path clip-path="url(#clip690)" d="M2614.5 291.814 L2619.39 291.814 L2619.39 297.694 L2614.5 297.694 L2614.5 291.814 Z" fill="#000000" fill-rule="nonzero" fill-opacity="1" /><path clip-path="url(#clip690)" d="M2629.71 296.976 L2629.71 292.717 Q2631.47 293.55 2633.27 293.99 Q2635.08 294.43 2636.82 294.43 Q2641.45 294.43 2643.88 291.328 Q2646.33 288.203 2646.68 281.861 Q2645.33 283.851 2643.27 284.916 Q2641.21 285.981 2638.71 285.981 Q2633.53 285.981 2630.5 282.856 Q2627.49 279.708 2627.49 274.268 Q2627.49 268.944 2630.64 265.726 Q2633.78 262.509 2639.02 262.509 Q2645.01 262.509 2648.16 267.115 Q2651.33 271.699 2651.33 280.449 Q2651.33 288.62 2647.44 293.504 Q2643.58 298.365 2637.02 298.365 Q2635.27 298.365 2633.46 298.018 Q2631.65 297.671 2629.71 296.976 M2639.02 282.324 Q2642.16 282.324 2643.99 280.171 Q2645.84 278.018 2645.84 274.268 Q2645.84 270.541 2643.99 268.388 Q2642.16 266.213 2639.02 266.213 Q2635.87 266.213 2634.02 268.388 Q2632.19 270.541 2632.19 274.268 Q2632.19 278.018 2634.02 280.171 Q2635.87 282.324 2639.02 282.324 Z" fill="#000000" fill-rule="nonzero" fill-opacity="1" /><path clip-path="url(#clip690)" d="M2584.96 122.316 L2592.6 122.316 L2592.6 95.9502 L2584.29 97.6168 L2584.29 93.3576 L2592.56 91.6909 L2597.23 91.6909 L2597.23 122.316 L2604.87 122.316 L2604.87 126.251 L2584.96 126.251 L2584.96 122.316 Z" fill="#000000" fill-rule="nonzero" fill-opacity="1" /><path clip-path="url(#clip690)" d="M2614.32 120.371 L2619.2 120.371 L2619.2 126.251 L2614.32 126.251 L2614.32 120.371 Z" fill="#000000" fill-rule="nonzero" fill-opacity="1" /><path clip-path="url(#clip690)" d="M2639.39 94.7696 Q2635.77 94.7696 2633.95 98.3344 Q2632.14 101.876 2632.14 109.006 Q2632.14 116.112 2633.95 119.677 Q2635.77 123.219 2639.39 123.219 Q2643.02 123.219 2644.83 119.677 Q2646.65 116.112 2646.65 109.006 Q2646.65 101.876 2644.83 98.3344 Q2643.02 94.7696 2639.39 94.7696 M2639.39 91.0659 Q2645.2 91.0659 2648.25 95.6724 Q2651.33 100.256 2651.33 109.006 Q2651.33 117.732 2648.25 122.339 Q2645.2 126.922 2639.39 126.922 Q2633.58 126.922 2630.5 122.339 Q2627.44 117.732 2627.44 109.006 Q2627.44 100.256 2630.5 95.6724 Q2633.58 91.0659 2639.39 91.0659 Z" fill="#000000" fill-rule="nonzero" fill-opacity="1" /><path clip-path="url(#clip690)" d="M2460.14 518.217 L2477.49 531.108 L2495.79 517.549 L2495.79 524.456 L2481.79 534.832 L2495.79 545.208 L2495.79 552.115 L2477.14 538.269 L2460.14 550.937 L2460.14 544.03 L2472.84 534.577 L2460.14 525.124 L2460.14 518.217 Z" fill="#000000" fill-rule="nonzero" fill-opacity="1" /><path clip-path="url(#clip690)" d="M3197.79 12.096 L3209.99 12.096 L3225.42 53.2532 L3240.94 12.096 L3253.13 12.096 L3253.13 72.576 L3245.15 72.576 L3245.15 19.4686 L3229.55 60.9499 L3221.33 60.9499 L3205.73 19.4686 L3205.73 72.576 L3197.79 72.576 L3197.79 12.096 Z" fill="#000000" fill-rule="nonzero" fill-opacity="1" /><path clip-path="url(#clip690)" d="M3269.37 12.096 L3280.39 12.096 L3307.21 62.6918 L3307.21 12.096 L3315.15 12.096 L3315.15 72.576 L3304.13 72.576 L3277.31 21.9802 L3277.31 72.576 L3269.37 72.576 L3269.37 12.096 Z" fill="#000000" fill-rule="nonzero" fill-opacity="1" /><path clip-path="url(#clip690)" d="M3351.65 20.1573 L3340.55 50.2555 L3362.79 50.2555 L3351.65 20.1573 M3347.03 12.096 L3356.31 12.096 L3379.36 72.576 L3370.85 72.576 L3365.34 57.061 L3338.08 57.061 L3332.57 72.576 L3323.94 72.576 L3347.03 12.096 Z" fill="#000000" fill-rule="nonzero" fill-opacity="1" /><path clip-path="url(#clip690)" d="M3416.87 44.2197 Q3419.5 45.1109 3421.97 48.0275 Q3424.48 50.9442 3426.99 56.0483 L3435.3 72.576 L3426.51 72.576 L3418.77 57.061 Q3415.77 50.9847 3412.94 48.9997 Q3410.14 47.0148 3405.28 47.0148 L3396.37 47.0148 L3396.37 72.576 L3388.19 72.576 L3388.19 12.096 L3406.66 12.096 Q3417.03 12.096 3422.13 16.4305 Q3427.24 20.7649 3427.24 29.5149 Q3427.24 35.2267 3424.56 38.994 Q3421.93 42.7613 3416.87 44.2197 M3396.37 18.8205 L3396.37 40.2903 L3406.66 40.2903 Q3412.57 40.2903 3415.57 37.5762 Q3418.61 34.8216 3418.61 29.5149 Q3418.61 24.2082 3415.57 21.5346 Q3412.57 18.8205 3406.66 18.8205 L3396.37 18.8205 Z" fill="#000000" fill-rule="nonzero" fill-opacity="1" /><path clip-path="url(#clip690)" d="M3473.01 12.096 L3505.14 12.096 L3505.14 18.9825 L3480.51 18.9825 L3480.51 33.8088 Q3482.29 33.2012 3484.07 32.9176 Q3485.85 32.5936 3487.64 32.5936 Q3497.76 32.5936 3503.68 38.1433 Q3509.59 43.6931 3509.59 53.1722 Q3509.59 62.9348 3503.52 68.3631 Q3497.44 73.7508 3486.38 73.7508 Q3482.57 73.7508 3478.6 73.1026 Q3474.67 72.4545 3470.46 71.1582 L3470.46 62.9348 Q3474.11 64.9198 3478 65.892 Q3481.88 66.8642 3486.22 66.8642 Q3493.23 66.8642 3497.32 63.1779 Q3501.41 59.4916 3501.41 53.1722 Q3501.41 46.8528 3497.32 43.1664 Q3493.23 39.4801 3486.22 39.4801 Q3482.94 39.4801 3479.66 40.2093 Q3476.42 40.9384 3473.01 42.4778 L3473.01 12.096 Z" fill="#000000" fill-rule="nonzero" fill-opacity="1" /><path clip-path="url(#clip690)" d="M3543.21 17.4837 Q3536.9 17.4837 3533.7 23.7221 Q3530.54 29.92 3530.54 42.3968 Q3530.54 54.833 3533.7 61.0714 Q3536.9 67.2693 3543.21 67.2693 Q3549.57 67.2693 3552.73 61.0714 Q3555.93 54.833 3555.93 42.3968 Q3555.93 29.92 3552.73 23.7221 Q3549.57 17.4837 3543.21 17.4837 M3543.21 11.0023 Q3553.38 11.0023 3558.73 19.0636 Q3564.12 27.0843 3564.12 42.3968 Q3564.12 57.6687 3558.73 65.73 Q3553.38 73.7508 3543.21 73.7508 Q3533.05 73.7508 3527.66 65.73 Q3522.31 57.6687 3522.31 42.3968 Q3522.31 27.0843 3527.66 19.0636 Q3533.05 11.0023 3543.21 11.0023 Z" fill="#000000" fill-rule="nonzero" fill-opacity="1" /><path clip-path="url(#clip690)" d="M3578.5 62.2867 L3587.05 62.2867 L3587.05 72.576 L3578.5 72.576 L3578.5 62.2867 Z" fill="#000000" fill-rule="nonzero" fill-opacity="1" /><path clip-path="url(#clip690)" d="M3622.37 17.4837 Q3616.05 17.4837 3612.85 23.7221 Q3609.69 29.92 3609.69 42.3968 Q3609.69 54.833 3612.85 61.0714 Q3616.05 67.2693 3622.37 67.2693 Q3628.73 67.2693 3631.89 61.0714 Q3635.09 54.833 3635.09 42.3968 Q3635.09 29.92 3631.89 23.7221 Q3628.73 17.4837 3622.37 17.4837 M3622.37 11.0023 Q3632.54 11.0023 3637.88 19.0636 Q3643.27 27.0843 3643.27 42.3968 Q3643.27 57.6687 3637.88 65.73 Q3632.54 73.7508 3622.37 73.7508 Q3612.2 73.7508 3606.81 65.73 Q3601.47 57.6687 3601.47 42.3968 Q3601.47 27.0843 3606.81 19.0636 Q3612.2 11.0023 3622.37 11.0023 Z" fill="#000000" fill-rule="nonzero" fill-opacity="1" /><path clip-path="url(#clip690)" d="M3709.1 45.9616 Q3705.58 45.9616 3703.55 48.9592 Q3701.56 51.9569 3701.56 57.3041 Q3701.56 62.5703 3703.55 65.6084 Q3705.58 68.6061 3709.1 68.6061 Q3712.54 68.6061 3714.53 65.6084 Q3716.55 62.5703 3716.55 57.3041 Q3716.55 51.9974 3714.53 48.9997 Q3712.54 45.9616 3709.1 45.9616 M3709.1 40.8169 Q3715.5 40.8169 3719.27 45.2729 Q3723.03 49.7289 3723.03 57.3041 Q3723.03 64.8793 3719.23 69.3353 Q3715.46 73.7508 3709.1 73.7508 Q3702.62 73.7508 3698.85 69.3353 Q3695.08 64.8793 3695.08 57.3041 Q3695.08 49.6884 3698.85 45.2729 Q3702.66 40.8169 3709.1 40.8169 M3667.29 16.1469 Q3663.81 16.1469 3661.78 19.1851 Q3659.8 22.1828 3659.8 27.4489 Q3659.8 32.7961 3661.78 35.7938 Q3663.77 38.7915 3667.29 38.7915 Q3670.82 38.7915 3672.8 35.7938 Q3674.83 32.7961 3674.83 27.4489 Q3674.83 22.2233 3672.8 19.1851 Q3670.78 16.1469 3667.29 16.1469 M3703.87 11.0023 L3710.36 11.0023 L3672.52 73.7508 L3666.04 73.7508 L3703.87 11.0023 M3667.29 11.0023 Q3673.69 11.0023 3677.5 15.4583 Q3681.31 19.8737 3681.31 27.4489 Q3681.31 35.1051 3677.5 39.5206 Q3673.73 43.9361 3667.29 43.9361 Q3660.85 43.9361 3657.09 39.5206 Q3653.36 35.0646 3653.36 27.4489 Q3653.36 19.9142 3657.13 15.4583 Q3660.89 11.0023 3667.29 11.0023 Z" fill="#000000" fill-rule="nonzero" fill-opacity="1" /><path clip-path="url(#clip690)" d="M3797.13 35.9153 Q3799.92 30.8922 3803.81 28.5022 Q3807.7 26.1121 3812.96 26.1121 Q3820.05 26.1121 3823.9 31.0947 Q3827.75 36.0368 3827.75 45.1919 L3827.75 72.576 L3820.26 72.576 L3820.26 45.4349 Q3820.26 38.913 3817.95 35.7533 Q3815.64 32.5936 3810.9 32.5936 Q3805.11 32.5936 3801.74 36.4419 Q3798.38 40.2903 3798.38 46.9338 L3798.38 72.576 L3790.89 72.576 L3790.89 45.4349 Q3790.89 38.8725 3788.58 35.7533 Q3786.27 32.5936 3781.45 32.5936 Q3775.74 32.5936 3772.37 36.4824 Q3769.01 40.3308 3769.01 46.9338 L3769.01 72.576 L3761.52 72.576 L3761.52 27.2059 L3769.01 27.2059 L3769.01 34.2544 Q3771.56 30.082 3775.13 28.0971 Q3778.69 26.1121 3783.6 26.1121 Q3788.54 26.1121 3791.98 28.6237 Q3795.46 31.1352 3797.13 35.9153 Z" fill="#000000" fill-rule="nonzero" fill-opacity="1" /><path clip-path="url(#clip690)" d="M3842.62 27.2059 L3850.07 27.2059 L3850.07 72.576 L3842.62 72.576 L3842.62 27.2059 M3842.62 9.54393 L3850.07 9.54393 L3850.07 18.9825 L3842.62 18.9825 L3842.62 9.54393 Z" fill="#000000" fill-rule="nonzero" fill-opacity="1" /><path clip-path="url(#clip690)" d="M3894.59 28.5427 L3894.59 35.5912 Q3891.43 33.9709 3888.03 33.1607 Q3884.63 32.3505 3880.98 32.3505 Q3875.43 32.3505 3872.63 34.0519 Q3869.88 35.7533 3869.88 39.156 Q3869.88 41.7486 3871.86 43.2475 Q3873.85 44.7058 3879.85 46.0426 L3882.4 46.6097 Q3890.34 48.3111 3893.66 51.4303 Q3897.02 54.509 3897.02 60.0587 Q3897.02 66.3781 3892 70.0644 Q3887.02 73.7508 3878.27 73.7508 Q3874.62 73.7508 3870.65 73.0216 Q3866.72 72.3329 3862.35 70.9151 L3862.35 63.2184 Q3866.48 65.3654 3870.49 66.4591 Q3874.5 67.5124 3878.43 67.5124 Q3883.69 67.5124 3886.53 65.73 Q3889.36 63.9071 3889.36 60.6258 Q3889.36 57.5877 3887.3 55.9673 Q3885.27 54.3469 3878.35 52.8481 L3875.75 52.2405 Q3868.83 50.7821 3865.75 47.7845 Q3862.67 44.7463 3862.67 39.4801 Q3862.67 33.0797 3867.21 29.5959 Q3871.74 26.1121 3880.09 26.1121 Q3884.22 26.1121 3887.87 26.7198 Q3891.51 27.3274 3894.59 28.5427 Z" fill="#000000" fill-rule="nonzero" fill-opacity="1" /><path clip-path="url(#clip690)" d="M3937.81 28.5427 L3937.81 35.5912 Q3934.65 33.9709 3931.25 33.1607 Q3927.85 32.3505 3924.2 32.3505 Q3918.65 32.3505 3915.86 34.0519 Q3913.1 35.7533 3913.1 39.156 Q3913.1 41.7486 3915.09 43.2475 Q3917.07 44.7058 3923.07 46.0426 L3925.62 46.6097 Q3933.56 48.3111 3936.88 51.4303 Q3940.24 54.509 3940.24 60.0587 Q3940.24 66.3781 3935.22 70.0644 Q3930.24 73.7508 3921.49 73.7508 Q3917.84 73.7508 3913.87 73.0216 Q3909.94 72.3329 3905.57 70.9151 L3905.57 63.2184 Q3909.7 65.3654 3913.71 66.4591 Q3917.72 67.5124 3921.65 67.5124 Q3926.92 67.5124 3929.75 65.73 Q3932.59 63.9071 3932.59 60.6258 Q3932.59 57.5877 3930.52 55.9673 Q3928.5 54.3469 3921.57 52.8481 L3918.98 52.2405 Q3912.05 50.7821 3908.97 47.7845 Q3905.89 44.7463 3905.89 39.4801 Q3905.89 33.0797 3910.43 29.5959 Q3914.97 26.1121 3923.31 26.1121 Q3927.44 26.1121 3931.09 26.7198 Q3934.73 27.3274 3937.81 28.5427 Z" fill="#000000" fill-rule="nonzero" fill-opacity="1" /><path clip-path="url(#clip690)" d="M3952.11 27.2059 L3959.57 27.2059 L3959.57 72.576 L3952.11 72.576 L3952.11 27.2059 M3952.11 9.54393 L3959.57 9.54393 L3959.57 18.9825 L3952.11 18.9825 L3952.11 9.54393 Z" fill="#000000" fill-rule="nonzero" fill-opacity="1" /><path clip-path="url(#clip690)" d="M4012.88 45.1919 L4012.88 72.576 L4005.42 72.576 L4005.42 45.4349 Q4005.42 38.994 4002.91 35.7938 Q4000.4 32.5936 3995.38 32.5936 Q3989.34 32.5936 3985.86 36.4419 Q3982.37 40.2903 3982.37 46.9338 L3982.37 72.576 L3974.88 72.576 L3974.88 27.2059 L3982.37 27.2059 L3982.37 34.2544 Q3985.05 30.163 3988.65 28.1376 Q3992.3 26.1121 3997.04 26.1121 Q4004.86 26.1121 4008.87 30.9732 Q4012.88 35.7938 4012.88 45.1919 Z" fill="#000000" fill-rule="nonzero" fill-opacity="1" /><path clip-path="url(#clip690)" d="M4057.6 49.3643 Q4057.6 41.2625 4054.24 36.8065 Q4050.91 32.3505 4044.88 32.3505 Q4038.88 32.3505 4035.52 36.8065 Q4032.2 41.2625 4032.2 49.3643 Q4032.2 57.4256 4035.52 61.8816 Q4038.88 66.3376 4044.88 66.3376 Q4050.91 66.3376 4054.24 61.8816 Q4057.6 57.4256 4057.6 49.3643 M4065.05 66.9452 Q4065.05 78.5308 4059.91 84.1616 Q4054.76 89.8329 4044.15 89.8329 Q4040.22 89.8329 4036.74 89.2252 Q4033.25 88.6581 4029.97 87.4428 L4029.97 80.1917 Q4033.25 81.9741 4036.45 82.8248 Q4039.65 83.6755 4042.97 83.6755 Q4050.31 83.6755 4053.95 79.8271 Q4057.6 76.0193 4057.6 68.282 L4057.6 64.5957 Q4055.29 68.6061 4051.68 70.5911 Q4048.08 72.576 4043.06 72.576 Q4034.71 72.576 4029.61 66.2161 Q4024.5 59.8562 4024.5 49.3643 Q4024.5 38.832 4029.61 32.472 Q4034.71 26.1121 4043.06 26.1121 Q4048.08 26.1121 4051.68 28.0971 Q4055.29 30.082 4057.6 34.0924 L4057.6 27.2059 L4065.05 27.2059 L4065.05 66.9452 Z" fill="#000000" fill-rule="nonzero" fill-opacity="1" /><path clip-path="url(#clip690)" d="M4136.63 34.0924 L4136.63 9.54393 L4144.09 9.54393 L4144.09 72.576 L4136.63 72.576 L4136.63 65.7705 Q4134.28 69.8214 4130.68 71.8063 Q4127.11 73.7508 4122.09 73.7508 Q4113.87 73.7508 4108.68 67.1883 Q4103.54 60.6258 4103.54 49.9314 Q4103.54 39.2371 4108.68 32.6746 Q4113.87 26.1121 4122.09 26.1121 Q4127.11 26.1121 4130.68 28.0971 Q4134.28 30.0415 4136.63 34.0924 M4111.23 49.9314 Q4111.23 58.1548 4114.59 62.8538 Q4118 67.5124 4123.91 67.5124 Q4129.83 67.5124 4133.23 62.8538 Q4136.63 58.1548 4136.63 49.9314 Q4136.63 41.7081 4133.23 37.0496 Q4129.83 32.3505 4123.91 32.3505 Q4118 32.3505 4114.59 37.0496 Q4111.23 41.7081 4111.23 49.9314 Z" fill="#000000" fill-rule="nonzero" fill-opacity="1" /><path clip-path="url(#clip690)" d="M4180.06 49.7694 Q4171.02 49.7694 4167.54 51.8354 Q4164.06 53.9013 4164.06 58.8839 Q4164.06 62.8538 4166.65 65.2034 Q4169.28 67.5124 4173.78 67.5124 Q4179.98 67.5124 4183.7 63.1374 Q4187.47 58.7219 4187.47 51.4303 L4187.47 49.7694 L4180.06 49.7694 M4194.92 46.6907 L4194.92 72.576 L4187.47 72.576 L4187.47 65.6895 Q4184.92 69.8214 4181.11 71.8063 Q4177.3 73.7508 4171.79 73.7508 Q4164.83 73.7508 4160.69 69.8619 Q4156.6 65.9325 4156.6 59.3701 Q4156.6 51.7138 4161.71 47.825 Q4166.85 43.9361 4177.02 43.9361 L4187.47 43.9361 L4187.47 43.2069 Q4187.47 38.0623 4184.07 35.2672 Q4180.71 32.4315 4174.59 32.4315 Q4170.7 32.4315 4167.01 33.3632 Q4163.33 34.295 4159.92 36.1584 L4159.92 29.2718 Q4164.02 27.692 4167.86 26.9223 Q4171.71 26.1121 4175.36 26.1121 Q4185.2 26.1121 4190.06 31.2163 Q4194.92 36.3204 4194.92 46.6907 Z" fill="#000000" fill-rule="nonzero" fill-opacity="1" /><path clip-path="url(#clip690)" d="M4217.65 14.324 L4217.65 27.2059 L4233 27.2059 L4233 32.9987 L4217.65 32.9987 L4217.65 57.6282 Q4217.65 63.1779 4219.15 64.7578 Q4220.69 66.3376 4225.35 66.3376 L4233 66.3376 L4233 72.576 L4225.35 72.576 Q4216.72 72.576 4213.44 69.3758 Q4210.16 66.1351 4210.16 57.6282 L4210.16 32.9987 L4204.69 32.9987 L4204.69 27.2059 L4210.16 27.2059 L4210.16 14.324 L4217.65 14.324 Z" fill="#000000" fill-rule="nonzero" fill-opacity="1" /><path clip-path="url(#clip690)" d="M4263.43 49.7694 Q4254.39 49.7694 4250.91 51.8354 Q4247.42 53.9013 4247.42 58.8839 Q4247.42 62.8538 4250.02 65.2034 Q4252.65 67.5124 4257.15 67.5124 Q4263.34 67.5124 4267.07 63.1374 Q4270.84 58.7219 4270.84 51.4303 L4270.84 49.7694 L4263.43 49.7694 M4278.29 46.6907 L4278.29 72.576 L4270.84 72.576 L4270.84 65.6895 Q4268.29 69.8214 4264.48 71.8063 Q4260.67 73.7508 4255.16 73.7508 Q4248.19 73.7508 4244.06 69.8619 Q4239.97 65.9325 4239.97 59.3701 Q4239.97 51.7138 4245.07 47.825 Q4250.22 43.9361 4260.39 43.9361 L4270.84 43.9361 L4270.84 43.2069 Q4270.84 38.0623 4267.44 35.2672 Q4264.07 32.4315 4257.96 32.4315 Q4254.07 32.4315 4250.38 33.3632 Q4246.69 34.295 4243.29 36.1584 L4243.29 29.2718 Q4247.38 27.692 4251.23 26.9223 Q4255.08 26.1121 4258.73 26.1121 Q4268.57 26.1121 4273.43 31.2163 Q4278.29 36.3204 4278.29 46.6907 Z" fill="#000000" fill-rule="nonzero" fill-opacity="1" /><polyline clip-path="url(#clip693)" style="stroke:#009af9; stroke-linecap:round; stroke-linejoin:round; stroke-width:4; stroke-opacity:1; fill:none" points="2916.14,447.121 2935.48,141.961 "/>
<polyline clip-path="url(#clip693)" style="stroke:#009af9; stroke-linecap:round; stroke-linejoin:round; stroke-width:4; stroke-opacity:1; fill:none" points="3109.53,145.594 3128.87,127.295 "/>
<polyline clip-path="url(#clip693)" style="stroke:#009af9; stroke-linecap:round; stroke-linejoin:round; stroke-width:4; stroke-opacity:1; fill:none" points="3167.55,734.771 3186.88,387.848 3206.22,691.946 3225.56,431.252 3244.9,287.55 3264.24,828.668 3283.58,958.568 "/>
<polyline clip-path="url(#clip693)" style="stroke:#009af9; stroke-linecap:round; stroke-linejoin:round; stroke-width:4; stroke-opacity:1; fill:none" points="3380.27,219.584 3399.61,303.575 3418.95,892.587 "/>
<polyline clip-path="url(#clip693)" style="stroke:#009af9; stroke-linecap:round; stroke-linejoin:round; stroke-width:4; stroke-opacity:1; fill:none" points="3534.98,688.417 3554.32,361.317 "/>
<polyline clip-path="url(#clip693)" style="stroke:#009af9; stroke-linecap:round; stroke-linejoin:round; stroke-width:4; stroke-opacity:1; fill:none" points="3651.02,128.51 3670.36,946.888 "/>
<polyline clip-path="url(#clip693)" style="stroke:#009af9; stroke-linecap:round; stroke-linejoin:round; stroke-width:4; stroke-opacity:1; fill:none" points="3709.03,130.871 3728.37,367.491 "/>
<polyline clip-path="url(#clip693)" style="stroke:#009af9; stroke-linecap:round; stroke-linejoin:round; stroke-width:4; stroke-opacity:1; fill:none" points="3863.75,530.198 3883.08,146.559 3902.42,111.467 "/>
<polyline clip-path="url(#clip693)" style="stroke:#009af9; stroke-linecap:round; stroke-linejoin:round; stroke-width:4; stroke-opacity:1; fill:none" points="3941.1,625.729 3960.44,147.172 "/>
<polyline clip-path="url(#clip693)" style="stroke:#009af9; stroke-linecap:round; stroke-linejoin:round; stroke-width:4; stroke-opacity:1; fill:none" points="3999.12,626.334 4018.46,504.54 4037.8,913.961 "/>
<polyline clip-path="url(#clip693)" style="stroke:#009af9; stroke-linecap:round; stroke-linejoin:round; stroke-width:4; stroke-opacity:1; fill:none" points="4115.15,577.506 4134.49,212.09 4153.83,111.096 "/>
<polyline clip-path="url(#clip693)" style="stroke:#009af9; stroke-linecap:round; stroke-linejoin:round; stroke-width:4; stroke-opacity:1; fill:none" points="4231.19,382.763 4250.52,223.55 4269.86,405.88 "/>
<polyline clip-path="url(#clip693)" style="stroke:#009af9; stroke-linecap:round; stroke-linejoin:round; stroke-width:4; stroke-opacity:1; fill:none" points="4347.22,524.496 4366.56,744.709 "/>
<polyline clip-path="url(#clip693)" style="stroke:#009af9; stroke-linecap:round; stroke-linejoin:round; stroke-width:4; stroke-opacity:1; fill:none" points="4598.62,276.436 4617.96,752.83 4637.3,585.612 "/>
</svg>
