<?xml version="1.0" encoding="utf-8"?>
<svg xmlns="http://www.w3.org/2000/svg" xmlns:xlink="http://www.w3.org/1999/xlink" width="1500" height="800" viewBox="0 0 6000 3200">
<defs>
  <clipPath id="clip050">
    <rect x="0" y="0" width="6000" height="3200"/>
  </clipPath>
</defs>
<path clip-path="url(#clip050)" d="M0 3200 L6000 3200 L6000 4.44089e-14 L0 4.44089e-14  Z" fill="#ffffff" fill-rule="evenodd" fill-opacity="1"/>
<defs>
  <clipPath id="clip051">
    <rect x="1200" y="0" width="4201" height="3200"/>
  </clipPath>
</defs>
<path clip-path="url(#clip050)" d="M732.111 2788.55 L5952.76 2788.55 L5952.76 142.48 L732.111 142.48  Z" fill="#ffffff" fill-rule="evenodd" fill-opacity="1"/>
<defs>
  <clipPath id="clip052">
    <rect x="732" y="142" width="5222" height="2647"/>
  </clipPath>
</defs>
<polyline clip-path="url(#clip052)" style="stroke:#000000; stroke-linecap:round; stroke-linejoin:round; stroke-width:2; stroke-opacity:0.1; fill:none" points="5470.33,2788.55 5470.33,142.48 "/>
<polyline clip-path="url(#clip052)" style="stroke:#000000; stroke-linecap:round; stroke-linejoin:round; stroke-width:2; stroke-opacity:0.1; fill:none" points="4997.46,2788.55 4997.46,142.48 "/>
<polyline clip-path="url(#clip052)" style="stroke:#000000; stroke-linecap:round; stroke-linejoin:round; stroke-width:2; stroke-opacity:0.1; fill:none" points="4524.6,2788.55 4524.6,142.48 "/>
<polyline clip-path="url(#clip052)" style="stroke:#000000; stroke-linecap:round; stroke-linejoin:round; stroke-width:2; stroke-opacity:0.1; fill:none" points="4051.73,2788.55 4051.73,142.48 "/>
<polyline clip-path="url(#clip052)" style="stroke:#000000; stroke-linecap:round; stroke-linejoin:round; stroke-width:2; stroke-opacity:0.1; fill:none" points="3578.87,2788.55 3578.87,142.48 "/>
<polyline clip-path="url(#clip052)" style="stroke:#000000; stroke-linecap:round; stroke-linejoin:round; stroke-width:2; stroke-opacity:0.1; fill:none" points="3106,2788.55 3106,142.48 "/>
<polyline clip-path="url(#clip052)" style="stroke:#000000; stroke-linecap:round; stroke-linejoin:round; stroke-width:2; stroke-opacity:0.1; fill:none" points="2633.13,2788.55 2633.13,142.48 "/>
<polyline clip-path="url(#clip052)" style="stroke:#000000; stroke-linecap:round; stroke-linejoin:round; stroke-width:2; stroke-opacity:0.1; fill:none" points="2160.27,2788.55 2160.27,142.48 "/>
<polyline clip-path="url(#clip052)" style="stroke:#000000; stroke-linecap:round; stroke-linejoin:round; stroke-width:2; stroke-opacity:0.1; fill:none" points="1687.4,2788.55 1687.4,142.48 "/>
<polyline clip-path="url(#clip052)" style="stroke:#000000; stroke-linecap:round; stroke-linejoin:round; stroke-width:2; stroke-opacity:0.1; fill:none" points="1214.54,2788.55 1214.54,142.48 "/>
<polyline clip-path="url(#clip052)" style="stroke:#000000; stroke-linecap:round; stroke-linejoin:round; stroke-width:2; stroke-opacity:0.1; fill:none" points="5952.76,2788.55 732.111,2788.55 "/>
<polyline clip-path="url(#clip052)" style="stroke:#000000; stroke-linecap:round; stroke-linejoin:round; stroke-width:2; stroke-opacity:0.1; fill:none" points="5952.76,2127.03 732.111,2127.03 "/>
<polyline clip-path="url(#clip052)" style="stroke:#000000; stroke-linecap:round; stroke-linejoin:round; stroke-width:2; stroke-opacity:0.1; fill:none" points="5952.76,1465.52 732.111,1465.52 "/>
<polyline clip-path="url(#clip052)" style="stroke:#000000; stroke-linecap:round; stroke-linejoin:round; stroke-width:2; stroke-opacity:0.1; fill:none" points="5952.76,803.998 732.111,803.998 "/>
<polyline clip-path="url(#clip052)" style="stroke:#000000; stroke-linecap:round; stroke-linejoin:round; stroke-width:2; stroke-opacity:0.1; fill:none" points="5952.76,142.48 732.111,142.48 "/>
<polyline clip-path="url(#clip050)" style="stroke:#000000; stroke-linecap:round; stroke-linejoin:round; stroke-width:4; stroke-opacity:1; fill:none" points="5952.76,2788.55 732.111,2788.55 "/>
<polyline clip-path="url(#clip050)" style="stroke:#000000; stroke-linecap:round; stroke-linejoin:round; stroke-width:4; stroke-opacity:1; fill:none" points="5470.33,2788.55 5470.33,2769.65 "/>
<polyline clip-path="url(#clip050)" style="stroke:#000000; stroke-linecap:round; stroke-linejoin:round; stroke-width:4; stroke-opacity:1; fill:none" points="4997.46,2788.55 4997.46,2769.65 "/>
<polyline clip-path="url(#clip050)" style="stroke:#000000; stroke-linecap:round; stroke-linejoin:round; stroke-width:4; stroke-opacity:1; fill:none" points="4524.6,2788.55 4524.6,2769.65 "/>
<polyline clip-path="url(#clip050)" style="stroke:#000000; stroke-linecap:round; stroke-linejoin:round; stroke-width:4; stroke-opacity:1; fill:none" points="4051.73,2788.55 4051.73,2769.65 "/>
<polyline clip-path="url(#clip050)" style="stroke:#000000; stroke-linecap:round; stroke-linejoin:round; stroke-width:4; stroke-opacity:1; fill:none" points="3578.87,2788.55 3578.87,2769.65 "/>
<polyline clip-path="url(#clip050)" style="stroke:#000000; stroke-linecap:round; stroke-linejoin:round; stroke-width:4; stroke-opacity:1; fill:none" points="3106,2788.55 3106,2769.65 "/>
<polyline clip-path="url(#clip050)" style="stroke:#000000; stroke-linecap:round; stroke-linejoin:round; stroke-width:4; stroke-opacity:1; fill:none" points="2633.13,2788.55 2633.13,2769.65 "/>
<polyline clip-path="url(#clip050)" style="stroke:#000000; stroke-linecap:round; stroke-linejoin:round; stroke-width:4; stroke-opacity:1; fill:none" points="2160.27,2788.55 2160.27,2769.65 "/>
<polyline clip-path="url(#clip050)" style="stroke:#000000; stroke-linecap:round; stroke-linejoin:round; stroke-width:4; stroke-opacity:1; fill:none" points="1687.4,2788.55 1687.4,2769.65 "/>
<polyline clip-path="url(#clip050)" style="stroke:#000000; stroke-linecap:round; stroke-linejoin:round; stroke-width:4; stroke-opacity:1; fill:none" points="1214.54,2788.55 1214.54,2769.65 "/>
<path clip-path="url(#clip050)" d="M5442.38 2861.39 L5495.15 2861.39 L5495.15 2872.71 L5454.69 2872.71 L5454.69 2897.06 Q5457.62 2896.06 5460.55 2895.6 Q5463.48 2895.07 5466.4 2895.07 Q5483.04 2895.07 5492.76 2904.18 Q5502.47 2913.3 5502.47 2928.87 Q5502.47 2944.91 5492.49 2953.83 Q5482.51 2962.68 5464.34 2962.68 Q5458.09 2962.68 5451.56 2961.62 Q5445.11 2960.55 5438.19 2958.42 L5438.19 2944.91 Q5444.18 2948.17 5450.57 2949.77 Q5456.95 2951.37 5464.08 2951.37 Q5475.59 2951.37 5482.31 2945.31 Q5489.03 2939.26 5489.03 2928.87 Q5489.03 2918.49 5482.31 2912.44 Q5475.59 2906.38 5464.08 2906.38 Q5458.68 2906.38 5453.29 2907.58 Q5447.97 2908.78 5442.38 2911.3 L5442.38 2861.39 Z" fill="#000000" fill-rule="nonzero" fill-opacity="1" /><path clip-path="url(#clip050)" d="M4926.12 2949.44 L4948.08 2949.44 L4948.08 2873.64 L4924.19 2878.43 L4924.19 2866.18 L4947.95 2861.39 L4961.39 2861.39 L4961.39 2949.44 L4983.36 2949.44 L4983.36 2960.75 L4926.12 2960.75 L4926.12 2949.44 Z" fill="#000000" fill-rule="nonzero" fill-opacity="1" /><path clip-path="url(#clip050)" d="M5010.64 2861.39 L5063.42 2861.39 L5063.42 2872.71 L5022.95 2872.71 L5022.95 2897.06 Q5025.88 2896.06 5028.81 2895.6 Q5031.74 2895.07 5034.67 2895.07 Q5051.3 2895.07 5061.02 2904.18 Q5070.74 2913.3 5070.74 2928.87 Q5070.74 2944.91 5060.75 2953.83 Q5050.77 2962.68 5032.6 2962.68 Q5026.35 2962.68 5019.83 2961.62 Q5013.37 2960.55 5006.45 2958.42 L5006.45 2944.91 Q5012.44 2948.17 5018.83 2949.77 Q5025.22 2951.37 5032.34 2951.37 Q5043.85 2951.37 5050.57 2945.31 Q5057.29 2939.26 5057.29 2928.87 Q5057.29 2918.49 5050.57 2912.44 Q5043.85 2906.38 5032.34 2906.38 Q5026.95 2906.38 5021.56 2907.58 Q5016.23 2908.78 5010.64 2911.3 L5010.64 2861.39 Z" fill="#000000" fill-rule="nonzero" fill-opacity="1" /><path clip-path="url(#clip050)" d="M4465 2949.44 L4511.92 2949.44 L4511.92 2960.75 L4448.83 2960.75 L4448.83 2949.44 Q4456.48 2941.52 4469.66 2928.21 Q4482.9 2914.83 4486.3 2910.97 Q4492.75 2903.72 4495.28 2898.73 Q4497.88 2893.67 4497.88 2888.81 Q4497.88 2880.89 4492.29 2875.9 Q4486.76 2870.91 4477.85 2870.91 Q4471.52 2870.91 4464.47 2873.1 Q4457.48 2875.3 4449.5 2879.76 L4449.5 2866.18 Q4457.62 2862.92 4464.67 2861.26 Q4471.72 2859.59 4477.58 2859.59 Q4493.02 2859.59 4502.2 2867.31 Q4511.39 2875.03 4511.39 2887.95 Q4511.39 2894.07 4509.06 2899.59 Q4506.8 2905.05 4500.74 2912.5 Q4499.08 2914.43 4490.16 2923.68 Q4481.24 2932.87 4465 2949.44 Z" fill="#000000" fill-rule="nonzero" fill-opacity="1" /><path clip-path="url(#clip050)" d="M4540.27 2861.39 L4593.05 2861.39 L4593.05 2872.71 L4552.58 2872.71 L4552.58 2897.06 Q4555.51 2896.06 4558.44 2895.6 Q4561.37 2895.07 4564.3 2895.07 Q4580.93 2895.07 4590.65 2904.18 Q4600.37 2913.3 4600.37 2928.87 Q4600.37 2944.91 4590.38 2953.83 Q4580.4 2962.68 4562.23 2962.68 Q4555.98 2962.68 4549.46 2961.62 Q4543 2960.55 4536.08 2958.42 L4536.08 2944.91 Q4542.07 2948.17 4548.46 2949.77 Q4554.85 2951.37 4561.97 2951.37 Q4573.48 2951.37 4580.2 2945.31 Q4586.92 2939.26 4586.92 2928.87 Q4586.92 2918.49 4580.2 2912.44 Q4573.48 2906.38 4561.97 2906.38 Q4556.58 2906.38 4551.19 2907.58 Q4545.86 2908.78 4540.27 2911.3 L4540.27 2861.39 Z" fill="#000000" fill-rule="nonzero" fill-opacity="1" /><path clip-path="url(#clip050)" d="M4021.09 2907.18 Q4030.74 2909.24 4036.13 2915.76 Q4041.58 2922.29 4041.58 2931.87 Q4041.58 2946.58 4031.47 2954.63 Q4021.35 2962.68 4002.72 2962.68 Q3996.46 2962.68 3989.81 2961.42 Q3983.22 2960.22 3976.16 2957.76 L3976.16 2944.78 Q3981.75 2948.04 3988.41 2949.7 Q3995.06 2951.37 4002.32 2951.37 Q4014.96 2951.37 4021.55 2946.38 Q4028.21 2941.39 4028.21 2931.87 Q4028.21 2923.08 4022.02 2918.16 Q4015.9 2913.17 4004.91 2913.17 L3993.33 2913.17 L3993.33 2902.12 L4005.45 2902.12 Q4015.36 2902.12 4020.62 2898.19 Q4025.88 2894.2 4025.88 2886.75 Q4025.88 2879.09 4020.42 2875.03 Q4015.03 2870.91 4004.91 2870.91 Q3999.39 2870.91 3993.07 2872.11 Q3986.75 2873.3 3979.16 2875.83 L3979.16 2863.85 Q3986.81 2861.72 3993.47 2860.66 Q4000.19 2859.59 4006.11 2859.59 Q4021.42 2859.59 4030.34 2866.58 Q4039.25 2873.5 4039.25 2885.35 Q4039.25 2893.6 4034.53 2899.33 Q4029.8 2904.98 4021.09 2907.18 Z" fill="#000000" fill-rule="nonzero" fill-opacity="1" /><path clip-path="url(#clip050)" d="M4067.21 2861.39 L4119.98 2861.39 L4119.98 2872.71 L4079.52 2872.71 L4079.52 2897.06 Q4082.45 2896.06 4085.37 2895.6 Q4088.3 2895.07 4091.23 2895.07 Q4107.87 2895.07 4117.58 2904.18 Q4127.3 2913.3 4127.3 2928.87 Q4127.3 2944.91 4117.32 2953.83 Q4107.34 2962.68 4089.17 2962.68 Q4082.91 2962.68 4076.39 2961.62 Q4069.93 2960.55 4063.01 2958.42 L4063.01 2944.91 Q4069 2948.17 4075.39 2949.77 Q4081.78 2951.37 4088.9 2951.37 Q4100.41 2951.37 4107.14 2945.31 Q4113.86 2939.26 4113.86 2928.87 Q4113.86 2918.49 4107.14 2912.44 Q4100.41 2906.38 4088.9 2906.38 Q4083.51 2906.38 4078.12 2907.58 Q4072.8 2908.78 4067.21 2911.3 L4067.21 2861.39 Z" fill="#000000" fill-rule="nonzero" fill-opacity="1" /><path clip-path="url(#clip050)" d="M3546.29 2873.1 L3512.35 2926.15 L3546.29 2926.15 L3546.29 2873.1 M3542.76 2861.39 L3559.67 2861.39 L3559.67 2926.15 L3573.84 2926.15 L3573.84 2937.33 L3559.67 2937.33 L3559.67 2960.75 L3546.29 2960.75 L3546.29 2937.33 L3501.44 2937.33 L3501.44 2924.35 L3542.76 2861.39 Z" fill="#000000" fill-rule="nonzero" fill-opacity="1" /><path clip-path="url(#clip050)" d="M3596.2 2861.39 L3648.98 2861.39 L3648.98 2872.71 L3608.51 2872.71 L3608.51 2897.06 Q3611.44 2896.06 3614.37 2895.6 Q3617.3 2895.07 3620.23 2895.07 Q3636.87 2895.07 3646.58 2904.18 Q3656.3 2913.3 3656.3 2928.87 Q3656.3 2944.91 3646.32 2953.83 Q3636.33 2962.68 3618.16 2962.68 Q3611.91 2962.68 3605.39 2961.62 Q3598.93 2960.55 3592.01 2958.42 L3592.01 2944.91 Q3598 2948.17 3604.39 2949.77 Q3610.78 2951.37 3617.9 2951.37 Q3629.41 2951.37 3636.13 2945.31 Q3642.85 2939.26 3642.85 2928.87 Q3642.85 2918.49 3636.13 2912.44 Q3629.41 2906.38 3617.9 2906.38 Q3612.51 2906.38 3607.12 2907.58 Q3601.79 2908.78 3596.2 2911.3 L3596.2 2861.39 Z" fill="#000000" fill-rule="nonzero" fill-opacity="1" /><path clip-path="url(#clip050)" d="M3034.69 2861.39 L3087.47 2861.39 L3087.47 2872.71 L3047 2872.71 L3047 2897.06 Q3049.93 2896.06 3052.86 2895.6 Q3055.79 2895.07 3058.72 2895.07 Q3075.35 2895.07 3085.07 2904.18 Q3094.79 2913.3 3094.79 2928.87 Q3094.79 2944.91 3084.8 2953.83 Q3074.82 2962.68 3056.65 2962.68 Q3050.4 2962.68 3043.88 2961.62 Q3037.42 2960.55 3030.5 2958.42 L3030.5 2944.91 Q3036.49 2948.17 3042.88 2949.77 Q3049.27 2951.37 3056.39 2951.37 Q3067.9 2951.37 3074.62 2945.31 Q3081.34 2939.26 3081.34 2928.87 Q3081.34 2918.49 3074.62 2912.44 Q3067.9 2906.38 3056.39 2906.38 Q3051 2906.38 3045.61 2907.58 Q3040.28 2908.78 3034.69 2911.3 L3034.69 2861.39 Z" fill="#000000" fill-rule="nonzero" fill-opacity="1" /><path clip-path="url(#clip050)" d="M3121.41 2861.39 L3174.18 2861.39 L3174.18 2872.71 L3133.72 2872.71 L3133.72 2897.06 Q3136.65 2896.06 3139.58 2895.6 Q3142.5 2895.07 3145.43 2895.07 Q3162.07 2895.07 3171.79 2904.18 Q3181.5 2913.3 3181.5 2928.87 Q3181.5 2944.91 3171.52 2953.83 Q3161.54 2962.68 3143.37 2962.68 Q3137.11 2962.68 3130.59 2961.62 Q3124.14 2960.55 3117.21 2958.42 L3117.21 2944.91 Q3123.2 2948.17 3129.59 2949.77 Q3135.98 2951.37 3143.1 2951.37 Q3154.62 2951.37 3161.34 2945.31 Q3168.06 2939.26 3168.06 2928.87 Q3168.06 2918.49 3161.34 2912.44 Q3154.62 2906.38 3143.1 2906.38 Q3137.71 2906.38 3132.32 2907.58 Q3127 2908.78 3121.41 2911.3 L3121.41 2861.39 Z" fill="#000000" fill-rule="nonzero" fill-opacity="1" /><path clip-path="url(#clip050)" d="M2592.61 2905.71 Q2583.55 2905.71 2578.23 2911.9 Q2572.97 2918.09 2572.97 2928.87 Q2572.97 2939.59 2578.23 2945.84 Q2583.55 2952.03 2592.61 2952.03 Q2601.66 2952.03 2606.91 2945.84 Q2612.24 2939.59 2612.24 2928.87 Q2612.24 2918.09 2606.91 2911.9 Q2601.66 2905.71 2592.61 2905.71 M2619.29 2863.59 L2619.29 2875.83 Q2614.23 2873.44 2609.04 2872.17 Q2603.92 2870.91 2598.86 2870.91 Q2585.55 2870.91 2578.5 2879.89 Q2571.51 2888.88 2570.51 2907.05 Q2574.44 2901.26 2580.36 2898.19 Q2586.28 2895.07 2593.4 2895.07 Q2608.38 2895.07 2617.03 2904.18 Q2625.75 2913.23 2625.75 2928.87 Q2625.75 2944.18 2616.7 2953.43 Q2607.65 2962.68 2592.61 2962.68 Q2575.37 2962.68 2566.25 2949.5 Q2557.13 2936.26 2557.13 2911.17 Q2557.13 2887.61 2568.31 2873.64 Q2579.49 2859.59 2598.33 2859.59 Q2603.39 2859.59 2608.51 2860.59 Q2613.7 2861.59 2619.29 2863.59 Z" fill="#000000" fill-rule="nonzero" fill-opacity="1" /><path clip-path="url(#clip050)" d="M2649.04 2861.39 L2701.81 2861.39 L2701.81 2872.71 L2661.35 2872.71 L2661.35 2897.06 Q2664.28 2896.06 2667.21 2895.6 Q2670.14 2895.07 2673.06 2895.07 Q2689.7 2895.07 2699.42 2904.18 Q2709.14 2913.3 2709.14 2928.87 Q2709.14 2944.91 2699.15 2953.83 Q2689.17 2962.68 2671 2962.68 Q2664.75 2962.68 2658.22 2961.62 Q2651.77 2960.55 2644.85 2958.42 L2644.85 2944.91 Q2650.84 2948.17 2657.23 2949.77 Q2663.61 2951.37 2670.74 2951.37 Q2682.25 2951.37 2688.97 2945.31 Q2695.69 2939.26 2695.69 2928.87 Q2695.69 2918.49 2688.97 2912.44 Q2682.25 2906.38 2670.74 2906.38 Q2665.34 2906.38 2659.95 2907.58 Q2654.63 2908.78 2649.04 2911.3 L2649.04 2861.39 Z" fill="#000000" fill-rule="nonzero" fill-opacity="1" /><path clip-path="url(#clip050)" d="M2085.1 2861.39 L2148.99 2861.39 L2148.99 2867.11 L2112.92 2960.75 L2098.88 2960.75 L2132.82 2872.71 L2085.1 2872.71 L2085.1 2861.39 Z" fill="#000000" fill-rule="nonzero" fill-opacity="1" /><path clip-path="url(#clip050)" d="M2175.34 2861.39 L2228.12 2861.39 L2228.12 2872.71 L2187.65 2872.71 L2187.65 2897.06 Q2190.58 2896.06 2193.51 2895.6 Q2196.44 2895.07 2199.37 2895.07 Q2216 2895.07 2225.72 2904.18 Q2235.44 2913.3 2235.44 2928.87 Q2235.44 2944.91 2225.45 2953.83 Q2215.47 2962.68 2197.3 2962.68 Q2191.05 2962.68 2184.53 2961.62 Q2178.07 2960.55 2171.15 2958.42 L2171.15 2944.91 Q2177.14 2948.17 2183.53 2949.77 Q2189.92 2951.37 2197.04 2951.37 Q2208.55 2951.37 2215.27 2945.31 Q2221.99 2939.26 2221.99 2928.87 Q2221.99 2918.49 2215.27 2912.44 Q2208.55 2906.38 2197.04 2906.38 Q2191.65 2906.38 2186.26 2907.58 Q2180.93 2908.78 2175.34 2911.3 L2175.34 2861.39 Z" fill="#000000" fill-rule="nonzero" fill-opacity="1" /><path clip-path="url(#clip050)" d="M1645.34 2913.57 Q1635.76 2913.57 1630.24 2918.69 Q1624.78 2923.82 1624.78 2932.8 Q1624.78 2941.78 1630.24 2946.91 Q1635.76 2952.03 1645.34 2952.03 Q1654.93 2952.03 1660.45 2946.91 Q1665.97 2941.72 1665.97 2932.8 Q1665.97 2923.82 1660.45 2918.69 Q1654.99 2913.57 1645.34 2913.57 M1631.9 2907.84 Q1623.25 2905.71 1618.39 2899.79 Q1613.6 2893.87 1613.6 2885.35 Q1613.6 2873.44 1622.05 2866.52 Q1630.57 2859.59 1645.34 2859.59 Q1660.18 2859.59 1668.64 2866.52 Q1677.09 2873.44 1677.09 2885.35 Q1677.09 2893.87 1672.23 2899.79 Q1667.44 2905.71 1658.85 2907.84 Q1668.57 2910.11 1673.96 2916.7 Q1679.42 2923.28 1679.42 2932.8 Q1679.42 2947.24 1670.57 2954.96 Q1661.78 2962.68 1645.34 2962.68 Q1628.9 2962.68 1620.05 2954.96 Q1611.27 2947.24 1611.27 2932.8 Q1611.27 2923.28 1616.73 2916.7 Q1622.18 2910.11 1631.9 2907.84 M1626.97 2886.61 Q1626.97 2894.33 1631.77 2898.66 Q1636.62 2902.99 1645.34 2902.99 Q1653.99 2902.99 1658.85 2898.66 Q1663.78 2894.33 1663.78 2886.61 Q1663.78 2878.89 1658.85 2874.57 Q1653.99 2870.24 1645.34 2870.24 Q1636.62 2870.24 1631.77 2874.57 Q1626.97 2878.89 1626.97 2886.61 Z" fill="#000000" fill-rule="nonzero" fill-opacity="1" /><path clip-path="url(#clip050)" d="M1703.44 2861.39 L1756.22 2861.39 L1756.22 2872.71 L1715.75 2872.71 L1715.75 2897.06 Q1718.68 2896.06 1721.61 2895.6 Q1724.54 2895.07 1727.47 2895.07 Q1744.1 2895.07 1753.82 2904.18 Q1763.54 2913.3 1763.54 2928.87 Q1763.54 2944.91 1753.55 2953.83 Q1743.57 2962.68 1725.4 2962.68 Q1719.15 2962.68 1712.63 2961.62 Q1706.17 2960.55 1699.25 2958.42 L1699.25 2944.91 Q1705.24 2948.17 1711.63 2949.77 Q1718.02 2951.37 1725.14 2951.37 Q1736.65 2951.37 1743.37 2945.31 Q1750.09 2939.26 1750.09 2928.87 Q1750.09 2918.49 1743.37 2912.44 Q1736.65 2906.38 1725.14 2906.38 Q1719.75 2906.38 1714.36 2907.58 Q1709.03 2908.78 1703.44 2911.3 L1703.44 2861.39 Z" fill="#000000" fill-rule="nonzero" fill-opacity="1" /><path clip-path="url(#clip050)" d="M1144.46 2958.69 L1144.46 2946.44 Q1149.52 2948.84 1154.71 2950.1 Q1159.9 2951.37 1164.89 2951.37 Q1178.2 2951.37 1185.19 2942.45 Q1192.24 2933.47 1193.24 2915.23 Q1189.38 2920.95 1183.46 2924.02 Q1177.53 2927.08 1170.35 2927.08 Q1155.44 2927.08 1146.72 2918.09 Q1138.07 2909.04 1138.07 2893.4 Q1138.07 2878.1 1147.12 2868.85 Q1156.17 2859.59 1171.21 2859.59 Q1188.45 2859.59 1197.5 2872.84 Q1206.62 2886.02 1206.62 2911.17 Q1206.62 2934.66 1195.44 2948.71 Q1184.32 2962.68 1165.49 2962.68 Q1160.43 2962.68 1155.24 2961.68 Q1150.05 2960.69 1144.46 2958.69 M1171.21 2916.56 Q1180.26 2916.56 1185.52 2910.37 Q1190.84 2904.18 1190.84 2893.4 Q1190.84 2882.69 1185.52 2876.5 Q1180.26 2870.24 1171.21 2870.24 Q1162.16 2870.24 1156.84 2876.5 Q1151.58 2882.69 1151.58 2893.4 Q1151.58 2904.18 1156.84 2910.37 Q1162.16 2916.56 1171.21 2916.56 Z" fill="#000000" fill-rule="nonzero" fill-opacity="1" /><path clip-path="url(#clip050)" d="M1230.91 2861.39 L1283.68 2861.39 L1283.68 2872.71 L1243.22 2872.71 L1243.22 2897.06 Q1246.15 2896.06 1249.08 2895.6 Q1252 2895.07 1254.93 2895.07 Q1271.57 2895.07 1281.29 2904.18 Q1291 2913.3 1291 2928.87 Q1291 2944.91 1281.02 2953.83 Q1271.04 2962.68 1252.87 2962.68 Q1246.61 2962.68 1240.09 2961.62 Q1233.64 2960.55 1226.72 2958.42 L1226.72 2944.91 Q1232.7 2948.17 1239.09 2949.77 Q1245.48 2951.37 1252.6 2951.37 Q1264.12 2951.37 1270.84 2945.31 Q1277.56 2939.26 1277.56 2928.87 Q1277.56 2918.49 1270.84 2912.44 Q1264.12 2906.38 1252.6 2906.38 Q1247.21 2906.38 1241.82 2907.58 Q1236.5 2908.78 1230.91 2911.3 L1230.91 2861.39 Z" fill="#000000" fill-rule="nonzero" fill-opacity="1" /><path clip-path="url(#clip050)" d="M2920.67 3103.1 Q2914.88 3103.1 2911.55 3108.02 Q2908.29 3112.95 2908.29 3121.73 Q2908.29 3130.39 2911.55 3135.38 Q2914.88 3140.3 2920.67 3140.3 Q2926.33 3140.3 2929.59 3135.38 Q2932.91 3130.39 2932.91 3121.73 Q2932.91 3113.02 2929.59 3108.09 Q2926.33 3103.1 2920.67 3103.1 M2920.67 3094.65 Q2931.18 3094.65 2937.37 3101.97 Q2943.56 3109.29 2943.56 3121.73 Q2943.56 3134.18 2937.31 3141.5 Q2931.12 3148.75 2920.67 3148.75 Q2910.02 3148.75 2903.83 3141.5 Q2897.64 3134.18 2897.64 3121.73 Q2897.64 3109.22 2903.83 3101.97 Q2910.09 3094.65 2920.67 3094.65 M2851.99 3054.12 Q2846.27 3054.12 2842.94 3059.11 Q2839.68 3064.03 2839.68 3072.69 Q2839.68 3081.47 2842.94 3086.4 Q2846.2 3091.32 2851.99 3091.32 Q2857.78 3091.32 2861.04 3086.4 Q2864.37 3081.47 2864.37 3072.69 Q2864.37 3064.1 2861.04 3059.11 Q2857.71 3054.12 2851.99 3054.12 M2912.08 3045.67 L2922.73 3045.67 L2860.57 3148.75 L2849.93 3148.75 L2912.08 3045.67 M2851.99 3045.67 Q2862.5 3045.67 2868.76 3052.99 Q2875.02 3060.24 2875.02 3072.69 Q2875.02 3085.26 2868.76 3092.52 Q2862.57 3099.77 2851.99 3099.77 Q2841.41 3099.77 2835.22 3092.52 Q2829.1 3085.2 2829.1 3072.69 Q2829.1 3060.31 2835.28 3052.99 Q2841.47 3045.67 2851.99 3045.67 Z" fill="#000000" fill-rule="nonzero" fill-opacity="1" /><path clip-path="url(#clip050)" d="M3056.3 3083.6 L3056.3 3043.27 L3068.54 3043.27 L3068.54 3146.82 L3056.3 3146.82 L3056.3 3135.64 Q3052.44 3142.3 3046.52 3145.56 Q3040.66 3148.75 3032.41 3148.75 Q3018.9 3148.75 3010.38 3137.97 Q3001.93 3127.19 3001.93 3109.62 Q3001.93 3092.05 3010.38 3081.27 Q3018.9 3070.49 3032.41 3070.49 Q3040.66 3070.49 3046.52 3073.75 Q3052.44 3076.95 3056.3 3083.6 M3014.57 3109.62 Q3014.57 3123.13 3020.1 3130.85 Q3025.69 3138.5 3035.4 3138.5 Q3045.12 3138.5 3050.71 3130.85 Q3056.3 3123.13 3056.3 3109.62 Q3056.3 3096.11 3050.71 3088.46 Q3045.12 3080.74 3035.4 3080.74 Q3025.69 3080.74 3020.1 3088.46 Q3014.57 3096.11 3014.57 3109.62 Z" fill="#000000" fill-rule="nonzero" fill-opacity="1" /><path clip-path="url(#clip050)" d="M3127.64 3109.36 Q3112.8 3109.36 3107.08 3112.75 Q3101.35 3116.14 3101.35 3124.33 Q3101.35 3130.85 3105.61 3134.71 Q3109.94 3138.5 3117.33 3138.5 Q3127.51 3138.5 3133.63 3131.32 Q3139.82 3124.06 3139.82 3112.08 L3139.82 3109.36 L3127.64 3109.36 M3152.07 3104.3 L3152.07 3146.82 L3139.82 3146.82 L3139.82 3135.51 Q3135.63 3142.3 3129.37 3145.56 Q3123.12 3148.75 3114.07 3148.75 Q3102.62 3148.75 3095.83 3142.36 Q3089.11 3135.91 3089.11 3125.13 Q3089.11 3112.55 3097.49 3106.16 Q3105.95 3099.77 3122.65 3099.77 L3139.82 3099.77 L3139.82 3098.57 Q3139.82 3090.12 3134.23 3085.53 Q3128.71 3080.87 3118.66 3080.87 Q3112.27 3080.87 3106.21 3082.4 Q3100.16 3083.93 3094.57 3086.99 L3094.57 3075.68 Q3101.29 3073.09 3107.61 3071.82 Q3113.93 3070.49 3119.92 3070.49 Q3136.09 3070.49 3144.08 3078.88 Q3152.07 3087.26 3152.07 3104.3 Z" fill="#000000" fill-rule="nonzero" fill-opacity="1" /><path clip-path="url(#clip050)" d="M3189.4 3051.12 L3189.4 3072.29 L3214.62 3072.29 L3214.62 3081.8 L3189.4 3081.8 L3189.4 3122.27 Q3189.4 3131.38 3191.86 3133.98 Q3194.39 3136.57 3202.05 3136.57 L3214.62 3136.57 L3214.62 3146.82 L3202.05 3146.82 Q3187.87 3146.82 3182.48 3141.57 Q3177.09 3136.24 3177.09 3122.27 L3177.09 3081.8 L3168.1 3081.8 L3168.1 3072.29 L3177.09 3072.29 L3177.09 3051.12 L3189.4 3051.12 Z" fill="#000000" fill-rule="nonzero" fill-opacity="1" /><path clip-path="url(#clip050)" d="M3264.6 3109.36 Q3249.76 3109.36 3244.04 3112.75 Q3238.32 3116.14 3238.32 3124.33 Q3238.32 3130.85 3242.57 3134.71 Q3246.9 3138.5 3254.29 3138.5 Q3264.47 3138.5 3270.59 3131.32 Q3276.78 3124.06 3276.78 3112.08 L3276.78 3109.36 L3264.6 3109.36 M3289.03 3104.3 L3289.03 3146.82 L3276.78 3146.82 L3276.78 3135.51 Q3272.59 3142.3 3266.33 3145.56 Q3260.08 3148.75 3251.03 3148.75 Q3239.58 3148.75 3232.79 3142.36 Q3226.07 3135.91 3226.07 3125.13 Q3226.07 3112.55 3234.46 3106.16 Q3242.91 3099.77 3259.61 3099.77 L3276.78 3099.77 L3276.78 3098.57 Q3276.78 3090.12 3271.19 3085.53 Q3265.67 3080.87 3255.62 3080.87 Q3249.23 3080.87 3243.17 3082.4 Q3237.12 3083.93 3231.53 3086.99 L3231.53 3075.68 Q3238.25 3073.09 3244.57 3071.82 Q3250.89 3070.49 3256.88 3070.49 Q3273.05 3070.49 3281.04 3078.88 Q3289.03 3087.26 3289.03 3104.3 Z" fill="#000000" fill-rule="nonzero" fill-opacity="1" /><path clip-path="url(#clip050)" d="M3415.61 3086.6 Q3420.2 3078.34 3426.59 3074.42 Q3432.98 3070.49 3441.63 3070.49 Q3453.27 3070.49 3459.6 3078.68 Q3465.92 3086.79 3465.92 3101.84 L3465.92 3146.82 L3453.61 3146.82 L3453.61 3102.23 Q3453.61 3091.52 3449.81 3086.33 Q3446.02 3081.14 3438.23 3081.14 Q3428.72 3081.14 3423.19 3087.46 Q3417.67 3093.78 3417.67 3104.7 L3417.67 3146.82 L3405.36 3146.82 L3405.36 3102.23 Q3405.36 3091.45 3401.56 3086.33 Q3397.77 3081.14 3389.85 3081.14 Q3380.47 3081.14 3374.94 3087.53 Q3369.42 3093.85 3369.42 3104.7 L3369.42 3146.82 L3357.11 3146.82 L3357.11 3072.29 L3369.42 3072.29 L3369.42 3083.87 Q3373.61 3077.01 3379.47 3073.75 Q3385.33 3070.49 3393.38 3070.49 Q3401.5 3070.49 3407.15 3074.62 Q3412.88 3078.74 3415.61 3086.6 Z" fill="#000000" fill-rule="nonzero" fill-opacity="1" /><path clip-path="url(#clip050)" d="M3490.34 3072.29 L3502.59 3072.29 L3502.59 3146.82 L3490.34 3146.82 L3490.34 3072.29 M3490.34 3043.27 L3502.59 3043.27 L3502.59 3058.78 L3490.34 3058.78 L3490.34 3043.27 Z" fill="#000000" fill-rule="nonzero" fill-opacity="1" /><path clip-path="url(#clip050)" d="M3575.73 3074.48 L3575.73 3086.06 Q3570.54 3083.4 3564.95 3082.07 Q3559.36 3080.74 3553.37 3080.74 Q3544.25 3080.74 3539.66 3083.53 Q3535.13 3086.33 3535.13 3091.92 Q3535.13 3096.18 3538.39 3098.64 Q3541.65 3101.04 3551.5 3103.23 L3555.69 3104.16 Q3568.74 3106.96 3574.2 3112.08 Q3579.72 3117.14 3579.72 3126.26 Q3579.72 3136.64 3571.47 3142.7 Q3563.28 3148.75 3548.91 3148.75 Q3542.92 3148.75 3536.4 3147.56 Q3529.94 3146.42 3522.75 3144.09 L3522.75 3131.45 Q3529.54 3134.98 3536.13 3136.77 Q3542.72 3138.5 3549.17 3138.5 Q3557.82 3138.5 3562.48 3135.58 Q3567.14 3132.58 3567.14 3127.19 Q3567.14 3122.2 3563.75 3119.54 Q3560.42 3116.88 3549.04 3114.41 L3544.78 3113.42 Q3533.4 3111.02 3528.34 3106.09 Q3523.28 3101.1 3523.28 3092.45 Q3523.28 3081.94 3530.74 3076.21 Q3538.19 3070.49 3551.9 3070.49 Q3558.69 3070.49 3564.68 3071.49 Q3570.67 3072.49 3575.73 3074.48 Z" fill="#000000" fill-rule="nonzero" fill-opacity="1" /><path clip-path="url(#clip050)" d="M3646.74 3074.48 L3646.74 3086.06 Q3641.55 3083.4 3635.95 3082.07 Q3630.36 3080.74 3624.38 3080.74 Q3615.26 3080.74 3610.67 3083.53 Q3606.14 3086.33 3606.14 3091.92 Q3606.14 3096.18 3609.4 3098.64 Q3612.66 3101.04 3622.51 3103.23 L3626.7 3104.16 Q3639.75 3106.96 3645.21 3112.08 Q3650.73 3117.14 3650.73 3126.26 Q3650.73 3136.64 3642.48 3142.7 Q3634.29 3148.75 3619.92 3148.75 Q3613.93 3148.75 3607.4 3147.56 Q3600.95 3146.42 3593.76 3144.09 L3593.76 3131.45 Q3600.55 3134.98 3607.14 3136.77 Q3613.73 3138.5 3620.18 3138.5 Q3628.83 3138.5 3633.49 3135.58 Q3638.15 3132.58 3638.15 3127.19 Q3638.15 3122.2 3634.76 3119.54 Q3631.43 3116.88 3620.05 3114.41 L3615.79 3113.42 Q3604.41 3111.02 3599.35 3106.09 Q3594.29 3101.1 3594.29 3092.45 Q3594.29 3081.94 3601.75 3076.21 Q3609.2 3070.49 3622.91 3070.49 Q3629.7 3070.49 3635.69 3071.49 Q3641.68 3072.49 3646.74 3074.48 Z" fill="#000000" fill-rule="nonzero" fill-opacity="1" /><path clip-path="url(#clip050)" d="M3670.23 3072.29 L3682.47 3072.29 L3682.47 3146.82 L3670.23 3146.82 L3670.23 3072.29 M3670.23 3043.27 L3682.47 3043.27 L3682.47 3058.78 L3670.23 3058.78 L3670.23 3043.27 Z" fill="#000000" fill-rule="nonzero" fill-opacity="1" /><path clip-path="url(#clip050)" d="M3770.05 3101.84 L3770.05 3146.82 L3757.81 3146.82 L3757.81 3102.23 Q3757.81 3091.65 3753.68 3086.4 Q3749.56 3081.14 3741.3 3081.14 Q3731.39 3081.14 3725.67 3087.46 Q3719.94 3093.78 3719.94 3104.7 L3719.94 3146.82 L3707.63 3146.82 L3707.63 3072.29 L3719.94 3072.29 L3719.94 3083.87 Q3724.33 3077.15 3730.26 3073.82 Q3736.25 3070.49 3744.03 3070.49 Q3756.88 3070.49 3763.47 3078.48 Q3770.05 3086.4 3770.05 3101.84 Z" fill="#000000" fill-rule="nonzero" fill-opacity="1" /><path clip-path="url(#clip050)" d="M3843.53 3108.69 Q3843.53 3095.38 3838 3088.06 Q3832.55 3080.74 3822.63 3080.74 Q3812.78 3080.74 3807.26 3088.06 Q3801.8 3095.38 3801.8 3108.69 Q3801.8 3121.93 3807.26 3129.25 Q3812.78 3136.57 3822.63 3136.57 Q3832.55 3136.57 3838 3129.25 Q3843.53 3121.93 3843.53 3108.69 M3855.77 3137.57 Q3855.77 3156.61 3847.32 3165.86 Q3838.87 3175.17 3821.43 3175.17 Q3814.98 3175.17 3809.25 3174.18 Q3803.53 3173.24 3798.14 3171.25 L3798.14 3159.34 Q3803.53 3162.26 3808.79 3163.66 Q3814.04 3165.06 3819.5 3165.06 Q3831.55 3165.06 3837.54 3158.74 Q3843.53 3152.48 3843.53 3139.77 L3843.53 3133.71 Q3839.73 3140.3 3833.81 3143.56 Q3827.89 3146.82 3819.63 3146.82 Q3805.93 3146.82 3797.54 3136.38 Q3789.15 3125.93 3789.15 3108.69 Q3789.15 3091.39 3797.54 3080.94 Q3805.93 3070.49 3819.63 3070.49 Q3827.89 3070.49 3833.81 3073.75 Q3839.73 3077.01 3843.53 3083.6 L3843.53 3072.29 L3855.77 3072.29 L3855.77 3137.57 Z" fill="#000000" fill-rule="nonzero" fill-opacity="1" /><polyline clip-path="url(#clip050)" style="stroke:#000000; stroke-linecap:round; stroke-linejoin:round; stroke-width:4; stroke-opacity:1; fill:none" points="732.111,2788.55 732.111,142.48 "/>
<polyline clip-path="url(#clip050)" style="stroke:#000000; stroke-linecap:round; stroke-linejoin:round; stroke-width:4; stroke-opacity:1; fill:none" points="732.111,2788.55 751.009,2788.55 "/>
<polyline clip-path="url(#clip050)" style="stroke:#000000; stroke-linecap:round; stroke-linejoin:round; stroke-width:4; stroke-opacity:1; fill:none" points="732.111,2127.03 751.009,2127.03 "/>
<polyline clip-path="url(#clip050)" style="stroke:#000000; stroke-linecap:round; stroke-linejoin:round; stroke-width:4; stroke-opacity:1; fill:none" points="732.111,1465.52 751.009,1465.52 "/>
<polyline clip-path="url(#clip050)" style="stroke:#000000; stroke-linecap:round; stroke-linejoin:round; stroke-width:4; stroke-opacity:1; fill:none" points="732.111,803.998 751.009,803.998 "/>
<polyline clip-path="url(#clip050)" style="stroke:#000000; stroke-linecap:round; stroke-linejoin:round; stroke-width:4; stroke-opacity:1; fill:none" points="732.111,142.48 751.009,142.48 "/>
<path clip-path="url(#clip050)" d="M304.301 2747.72 Q293.919 2747.72 288.661 2757.97 Q283.47 2768.15 283.47 2788.65 Q283.47 2809.08 288.661 2819.33 Q293.919 2829.51 304.301 2829.51 Q314.749 2829.51 319.94 2819.33 Q325.197 2809.08 325.197 2788.65 Q325.197 2768.15 319.94 2757.97 Q314.749 2747.72 304.301 2747.72 M304.301 2737.07 Q321.005 2737.07 329.789 2750.32 Q338.641 2763.5 338.641 2788.65 Q338.641 2813.74 329.789 2826.98 Q321.005 2840.16 304.301 2840.16 Q287.596 2840.16 278.745 2826.98 Q269.96 2813.74 269.96 2788.65 Q269.96 2763.5 278.745 2750.32 Q287.596 2737.07 304.301 2737.07 Z" fill="#000000" fill-rule="nonzero" fill-opacity="1" /><path clip-path="url(#clip050)" d="M362.266 2821.33 L376.308 2821.33 L376.308 2838.23 L362.266 2838.23 L362.266 2821.33 Z" fill="#000000" fill-rule="nonzero" fill-opacity="1" /><path clip-path="url(#clip050)" d="M434.34 2747.72 Q423.958 2747.72 418.701 2757.97 Q413.51 2768.15 413.51 2788.65 Q413.51 2809.08 418.701 2819.33 Q423.958 2829.51 434.34 2829.51 Q444.789 2829.51 449.98 2819.33 Q455.237 2809.08 455.237 2788.65 Q455.237 2768.15 449.98 2757.97 Q444.789 2747.72 434.34 2747.72 M434.34 2737.07 Q451.045 2737.07 459.829 2750.32 Q468.68 2763.5 468.68 2788.65 Q468.68 2813.74 459.829 2826.98 Q451.045 2840.16 434.34 2840.16 Q417.636 2840.16 408.785 2826.98 Q400 2813.74 400 2788.65 Q400 2763.5 408.785 2750.32 Q417.636 2737.07 434.34 2737.07 Z" fill="#000000" fill-rule="nonzero" fill-opacity="1" /><path clip-path="url(#clip050)" d="M521.056 2791.05 Q511.472 2791.05 505.949 2796.17 Q500.492 2801.3 500.492 2810.28 Q500.492 2819.26 505.949 2824.39 Q511.472 2829.51 521.056 2829.51 Q530.639 2829.51 536.163 2824.39 Q541.686 2819.2 541.686 2810.28 Q541.686 2801.3 536.163 2796.17 Q530.706 2791.05 521.056 2791.05 M507.613 2785.32 Q498.961 2783.19 494.103 2777.27 Q489.311 2771.35 489.311 2762.83 Q489.311 2750.92 497.763 2744 Q506.282 2737.07 521.056 2737.07 Q535.897 2737.07 544.348 2744 Q552.8 2750.92 552.8 2762.83 Q552.8 2771.35 547.942 2777.27 Q543.151 2783.19 534.566 2785.32 Q544.282 2787.59 549.672 2794.18 Q555.13 2800.76 555.13 2810.28 Q555.13 2824.72 546.278 2832.44 Q537.494 2840.16 521.056 2840.16 Q504.618 2840.16 495.767 2832.44 Q486.982 2824.72 486.982 2810.28 Q486.982 2800.76 492.439 2794.18 Q497.896 2787.59 507.613 2785.32 M502.688 2764.09 Q502.688 2771.81 507.479 2776.14 Q512.338 2780.47 521.056 2780.47 Q529.707 2780.47 534.566 2776.14 Q539.49 2771.81 539.49 2764.09 Q539.49 2756.37 534.566 2752.05 Q529.707 2747.72 521.056 2747.72 Q512.338 2747.72 507.479 2752.05 Q502.688 2756.37 502.688 2764.09 Z" fill="#000000" fill-rule="nonzero" fill-opacity="1" /><path clip-path="url(#clip050)" d="M607.771 2747.72 Q597.389 2747.72 592.132 2757.97 Q586.941 2768.15 586.941 2788.65 Q586.941 2809.08 592.132 2819.33 Q597.389 2829.51 607.771 2829.51 Q618.22 2829.51 623.411 2819.33 Q628.668 2809.08 628.668 2788.65 Q628.668 2768.15 623.411 2757.97 Q618.22 2747.72 607.771 2747.72 M607.771 2737.07 Q624.475 2737.07 633.26 2750.32 Q642.111 2763.5 642.111 2788.65 Q642.111 2813.74 633.26 2826.98 Q624.475 2840.16 607.771 2840.16 Q591.067 2840.16 582.216 2826.98 Q573.431 2813.74 573.431 2788.65 Q573.431 2763.5 582.216 2750.32 Q591.067 2737.07 607.771 2737.07 Z" fill="#000000" fill-rule="nonzero" fill-opacity="1" /><path clip-path="url(#clip050)" d="M307.162 2086.2 Q296.78 2086.2 291.523 2096.45 Q286.332 2106.64 286.332 2127.13 Q286.332 2147.56 291.523 2157.81 Q296.78 2168 307.162 2168 Q317.611 2168 322.802 2157.81 Q328.059 2147.56 328.059 2127.13 Q328.059 2106.64 322.802 2096.45 Q317.611 2086.2 307.162 2086.2 M307.162 2075.56 Q323.866 2075.56 332.651 2088.8 Q341.502 2101.98 341.502 2127.13 Q341.502 2152.22 332.651 2165.47 Q323.866 2178.64 307.162 2178.64 Q290.458 2178.64 281.607 2165.47 Q272.822 2152.22 272.822 2127.13 Q272.822 2101.98 281.607 2088.8 Q290.458 2075.56 307.162 2075.56 Z" fill="#000000" fill-rule="nonzero" fill-opacity="1" /><path clip-path="url(#clip050)" d="M365.128 2159.81 L379.17 2159.81 L379.17 2176.71 L365.128 2176.71 L365.128 2159.81 Z" fill="#000000" fill-rule="nonzero" fill-opacity="1" /><path clip-path="url(#clip050)" d="M437.202 2086.2 Q426.82 2086.2 421.563 2096.45 Q416.372 2106.64 416.372 2127.13 Q416.372 2147.56 421.563 2157.81 Q426.82 2168 437.202 2168 Q447.65 2168 452.841 2157.81 Q458.099 2147.56 458.099 2127.13 Q458.099 2106.64 452.841 2096.45 Q447.65 2086.2 437.202 2086.2 M437.202 2075.56 Q453.906 2075.56 462.691 2088.8 Q471.542 2101.98 471.542 2127.13 Q471.542 2152.22 462.691 2165.47 Q453.906 2178.64 437.202 2178.64 Q420.498 2178.64 411.647 2165.47 Q402.862 2152.22 402.862 2127.13 Q402.862 2101.98 411.647 2088.8 Q420.498 2075.56 437.202 2075.56 Z" fill="#000000" fill-rule="nonzero" fill-opacity="1" /><path clip-path="url(#clip050)" d="M523.917 2129.53 Q514.334 2129.53 508.81 2134.65 Q503.353 2139.78 503.353 2148.76 Q503.353 2157.75 508.81 2162.87 Q514.334 2168 523.917 2168 Q533.501 2168 539.024 2162.87 Q544.548 2157.68 544.548 2148.76 Q544.548 2139.78 539.024 2134.65 Q533.567 2129.53 523.917 2129.53 M510.474 2123.81 Q501.823 2121.68 496.964 2115.75 Q492.173 2109.83 492.173 2101.31 Q492.173 2089.4 500.625 2082.48 Q509.143 2075.56 523.917 2075.56 Q538.758 2075.56 547.21 2082.48 Q555.662 2089.4 555.662 2101.31 Q555.662 2109.83 550.804 2115.75 Q546.012 2121.68 537.427 2123.81 Q547.144 2126.07 552.534 2132.66 Q557.991 2139.25 557.991 2148.76 Q557.991 2163.2 549.14 2170.92 Q540.355 2178.64 523.917 2178.64 Q507.479 2178.64 498.628 2170.92 Q489.844 2163.2 489.844 2148.76 Q489.844 2139.25 495.301 2132.66 Q500.758 2126.07 510.474 2123.81 M505.549 2102.58 Q505.549 2110.3 510.341 2114.62 Q515.199 2118.95 523.917 2118.95 Q532.569 2118.95 537.427 2114.62 Q542.352 2110.3 542.352 2102.58 Q542.352 2094.86 537.427 2090.53 Q532.569 2086.2 523.917 2086.2 Q515.199 2086.2 510.341 2090.53 Q505.549 2094.86 505.549 2102.58 Z" fill="#000000" fill-rule="nonzero" fill-opacity="1" /><path clip-path="url(#clip050)" d="M582.016 2077.35 L634.791 2077.35 L634.791 2088.67 L594.328 2088.67 L594.328 2113.02 Q597.256 2112.03 600.184 2111.56 Q603.113 2111.03 606.041 2111.03 Q622.678 2111.03 632.395 2120.15 Q642.111 2129.26 642.111 2144.84 Q642.111 2160.87 632.129 2169.79 Q622.146 2178.64 603.978 2178.64 Q597.722 2178.64 591.2 2177.58 Q584.745 2176.51 577.823 2174.38 L577.823 2160.87 Q583.813 2164.14 590.202 2165.73 Q596.591 2167.33 603.712 2167.33 Q615.225 2167.33 621.946 2161.27 Q628.668 2155.22 628.668 2144.84 Q628.668 2134.45 621.946 2128.4 Q615.225 2122.34 603.712 2122.34 Q598.321 2122.34 592.93 2123.54 Q587.606 2124.74 582.016 2127.27 L582.016 2077.35 Z" fill="#000000" fill-rule="nonzero" fill-opacity="1" /><path clip-path="url(#clip050)" d="M304.301 1424.69 Q293.919 1424.69 288.661 1434.94 Q283.47 1445.12 283.47 1465.62 Q283.47 1486.05 288.661 1496.3 Q293.919 1506.48 304.301 1506.48 Q314.749 1506.48 319.94 1496.3 Q325.197 1486.05 325.197 1465.62 Q325.197 1445.12 319.94 1434.94 Q314.749 1424.69 304.301 1424.69 M304.301 1414.04 Q321.005 1414.04 329.789 1427.28 Q338.641 1440.46 338.641 1465.62 Q338.641 1490.71 329.789 1503.95 Q321.005 1517.13 304.301 1517.13 Q287.596 1517.13 278.745 1503.95 Q269.96 1490.71 269.96 1465.62 Q269.96 1440.46 278.745 1427.28 Q287.596 1414.04 304.301 1414.04 Z" fill="#000000" fill-rule="nonzero" fill-opacity="1" /><path clip-path="url(#clip050)" d="M362.266 1498.29 L376.308 1498.29 L376.308 1515.2 L362.266 1515.2 L362.266 1498.29 Z" fill="#000000" fill-rule="nonzero" fill-opacity="1" /><path clip-path="url(#clip050)" d="M434.34 1424.69 Q423.958 1424.69 418.701 1434.94 Q413.51 1445.12 413.51 1465.62 Q413.51 1486.05 418.701 1496.3 Q423.958 1506.48 434.34 1506.48 Q444.789 1506.48 449.98 1496.3 Q455.237 1486.05 455.237 1465.62 Q455.237 1445.12 449.98 1434.94 Q444.789 1424.69 434.34 1424.69 M434.34 1414.04 Q451.045 1414.04 459.829 1427.28 Q468.68 1440.46 468.68 1465.62 Q468.68 1490.71 459.829 1503.95 Q451.045 1517.13 434.34 1517.13 Q417.636 1517.13 408.785 1503.95 Q400 1490.71 400 1465.62 Q400 1440.46 408.785 1427.28 Q417.636 1414.04 434.34 1414.04 Z" fill="#000000" fill-rule="nonzero" fill-opacity="1" /><path clip-path="url(#clip050)" d="M492.705 1513.13 L492.705 1500.89 Q497.763 1503.28 502.954 1504.55 Q508.145 1505.81 513.136 1505.81 Q526.446 1505.81 533.434 1496.89 Q540.489 1487.91 541.487 1469.68 Q537.627 1475.4 531.704 1478.46 Q525.781 1481.52 518.593 1481.52 Q503.686 1481.52 494.968 1472.54 Q486.316 1463.49 486.316 1447.85 Q486.316 1432.54 495.367 1423.29 Q504.418 1414.04 519.459 1414.04 Q536.695 1414.04 545.746 1427.28 Q554.863 1440.46 554.863 1465.62 Q554.863 1489.11 543.683 1503.15 Q532.569 1517.13 513.735 1517.13 Q508.677 1517.13 503.486 1516.13 Q498.295 1515.13 492.705 1513.13 M519.459 1471.01 Q528.509 1471.01 533.767 1464.82 Q539.091 1458.63 539.091 1447.85 Q539.091 1437.13 533.767 1430.94 Q528.509 1424.69 519.459 1424.69 Q510.408 1424.69 505.084 1430.94 Q499.826 1437.13 499.826 1447.85 Q499.826 1458.63 505.084 1464.82 Q510.408 1471.01 519.459 1471.01 Z" fill="#000000" fill-rule="nonzero" fill-opacity="1" /><path clip-path="url(#clip050)" d="M607.771 1424.69 Q597.389 1424.69 592.132 1434.94 Q586.941 1445.12 586.941 1465.62 Q586.941 1486.05 592.132 1496.3 Q597.389 1506.48 607.771 1506.48 Q618.22 1506.48 623.411 1496.3 Q628.668 1486.05 628.668 1465.62 Q628.668 1445.12 623.411 1434.94 Q618.22 1424.69 607.771 1424.69 M607.771 1414.04 Q624.475 1414.04 633.26 1427.28 Q642.111 1440.46 642.111 1465.62 Q642.111 1490.71 633.26 1503.95 Q624.475 1517.13 607.771 1517.13 Q591.067 1517.13 582.216 1503.95 Q573.431 1490.71 573.431 1465.62 Q573.431 1440.46 582.216 1427.28 Q591.067 1414.04 607.771 1414.04 Z" fill="#000000" fill-rule="nonzero" fill-opacity="1" /><path clip-path="url(#clip050)" d="M307.162 763.169 Q296.78 763.169 291.523 773.418 Q286.332 783.6 286.332 804.098 Q286.332 824.529 291.523 834.778 Q296.78 844.96 307.162 844.96 Q317.611 844.96 322.802 834.778 Q328.059 824.529 328.059 804.098 Q328.059 783.6 322.802 773.418 Q317.611 763.169 307.162 763.169 M307.162 752.521 Q323.866 752.521 332.651 765.765 Q341.502 778.942 341.502 804.098 Q341.502 829.187 332.651 842.431 Q323.866 855.608 307.162 855.608 Q290.458 855.608 281.607 842.431 Q272.822 829.187 272.822 804.098 Q272.822 778.942 281.607 765.765 Q290.458 752.521 307.162 752.521 Z" fill="#000000" fill-rule="nonzero" fill-opacity="1" /><path clip-path="url(#clip050)" d="M365.128 836.774 L379.17 836.774 L379.17 853.678 L365.128 853.678 L365.128 836.774 Z" fill="#000000" fill-rule="nonzero" fill-opacity="1" /><path clip-path="url(#clip050)" d="M437.202 763.169 Q426.82 763.169 421.563 773.418 Q416.372 783.6 416.372 804.098 Q416.372 824.529 421.563 834.778 Q426.82 844.96 437.202 844.96 Q447.65 844.96 452.841 834.778 Q458.099 824.529 458.099 804.098 Q458.099 783.6 452.841 773.418 Q447.65 763.169 437.202 763.169 M437.202 752.521 Q453.906 752.521 462.691 765.765 Q471.542 778.942 471.542 804.098 Q471.542 829.187 462.691 842.431 Q453.906 855.608 437.202 855.608 Q420.498 855.608 411.647 842.431 Q402.862 829.187 402.862 804.098 Q402.862 778.942 411.647 765.765 Q420.498 752.521 437.202 752.521 Z" fill="#000000" fill-rule="nonzero" fill-opacity="1" /><path clip-path="url(#clip050)" d="M495.567 851.615 L495.567 839.37 Q500.625 841.765 505.816 843.03 Q511.007 844.294 515.998 844.294 Q529.308 844.294 536.296 835.377 Q543.35 826.392 544.348 808.157 Q540.489 813.881 534.566 816.942 Q528.643 820.003 521.455 820.003 Q506.548 820.003 497.83 811.019 Q489.178 801.968 489.178 786.329 Q489.178 771.022 498.229 761.772 Q507.28 752.521 522.32 752.521 Q539.557 752.521 548.608 765.765 Q557.725 778.942 557.725 804.098 Q557.725 827.59 546.545 841.632 Q535.431 855.608 516.597 855.608 Q511.539 855.608 506.348 854.61 Q501.157 853.611 495.567 851.615 M522.32 809.488 Q531.371 809.488 536.629 803.299 Q541.953 797.11 541.953 786.329 Q541.953 775.614 536.629 769.425 Q531.371 763.169 522.32 763.169 Q513.269 763.169 507.945 769.425 Q502.688 775.614 502.688 786.329 Q502.688 797.11 507.945 803.299 Q513.269 809.488 522.32 809.488 Z" fill="#000000" fill-rule="nonzero" fill-opacity="1" /><path clip-path="url(#clip050)" d="M582.016 754.318 L634.791 754.318 L634.791 765.632 L594.328 765.632 L594.328 789.989 Q597.256 788.991 600.184 788.525 Q603.113 787.993 606.041 787.993 Q622.678 787.993 632.395 797.11 Q642.111 806.227 642.111 821.8 Q642.111 837.839 632.129 846.757 Q622.146 855.608 603.978 855.608 Q597.722 855.608 591.2 854.543 Q584.745 853.478 577.823 851.349 L577.823 837.839 Q583.813 841.1 590.202 842.697 Q596.591 844.294 603.712 844.294 Q615.225 844.294 621.946 838.238 Q628.668 832.182 628.668 821.8 Q628.668 811.418 621.946 805.362 Q615.225 799.306 603.712 799.306 Q598.321 799.306 592.93 800.504 Q587.606 801.702 582.016 804.231 L582.016 754.318 Z" fill="#000000" fill-rule="nonzero" fill-opacity="1" /><path clip-path="url(#clip050)" d="M304.301 101.651 Q293.919 101.651 288.661 111.9 Q283.47 122.082 283.47 142.58 Q283.47 163.011 288.661 173.26 Q293.919 183.442 304.301 183.442 Q314.749 183.442 319.94 173.26 Q325.197 163.011 325.197 142.58 Q325.197 122.082 319.94 111.9 Q314.749 101.651 304.301 101.651 M304.301 91.0033 Q321.005 91.0033 329.789 104.247 Q338.641 117.424 338.641 142.58 Q338.641 167.67 329.789 180.913 Q321.005 194.09 304.301 194.09 Q287.596 194.09 278.745 180.913 Q269.96 167.67 269.96 142.58 Q269.96 117.424 278.745 104.247 Q287.596 91.0033 304.301 91.0033 Z" fill="#000000" fill-rule="nonzero" fill-opacity="1" /><path clip-path="url(#clip050)" d="M362.266 175.256 L376.308 175.256 L376.308 192.16 L362.266 192.16 L362.266 175.256 Z" fill="#000000" fill-rule="nonzero" fill-opacity="1" /><path clip-path="url(#clip050)" d="M407.92 180.847 L429.881 180.847 L429.881 105.045 L405.99 109.837 L405.99 97.5918 L429.748 92.8001 L443.192 92.8001 L443.192 180.847 L465.153 180.847 L465.153 192.16 L407.92 192.16 L407.92 180.847 Z" fill="#000000" fill-rule="nonzero" fill-opacity="1" /><path clip-path="url(#clip050)" d="M521.056 101.651 Q510.674 101.651 505.416 111.9 Q500.225 122.082 500.225 142.58 Q500.225 163.011 505.416 173.26 Q510.674 183.442 521.056 183.442 Q531.504 183.442 536.695 173.26 Q541.953 163.011 541.953 142.58 Q541.953 122.082 536.695 111.9 Q531.504 101.651 521.056 101.651 M521.056 91.0033 Q537.76 91.0033 546.545 104.247 Q555.396 117.424 555.396 142.58 Q555.396 167.67 546.545 180.913 Q537.76 194.09 521.056 194.09 Q504.352 194.09 495.5 180.913 Q486.716 167.67 486.716 142.58 Q486.716 117.424 495.5 104.247 Q504.352 91.0033 521.056 91.0033 Z" fill="#000000" fill-rule="nonzero" fill-opacity="1" /><path clip-path="url(#clip050)" d="M607.771 101.651 Q597.389 101.651 592.132 111.9 Q586.941 122.082 586.941 142.58 Q586.941 163.011 592.132 173.26 Q597.389 183.442 607.771 183.442 Q618.22 183.442 623.411 173.26 Q628.668 163.011 628.668 142.58 Q628.668 122.082 623.411 111.9 Q618.22 101.651 607.771 101.651 M607.771 91.0033 Q624.475 91.0033 633.26 104.247 Q642.111 117.424 642.111 142.58 Q642.111 167.67 633.26 180.913 Q624.475 194.09 607.771 194.09 Q591.067 194.09 582.216 180.913 Q573.431 167.67 573.431 142.58 Q573.431 117.424 582.216 104.247 Q591.067 91.0033 607.771 91.0033 Z" fill="#000000" fill-rule="nonzero" fill-opacity="1" /><path clip-path="url(#clip050)" d="M89.9242 1810.85 Q81.6719 1806.25 77.7454 1799.87 Q73.8189 1793.48 73.8189 1784.83 Q73.8189 1773.18 82.0047 1766.86 Q90.1238 1760.53 105.164 1760.53 L150.152 1760.53 L150.152 1772.85 L105.564 1772.85 Q94.8489 1772.85 89.658 1776.64 Q84.467 1780.43 84.467 1788.22 Q84.467 1797.74 90.7893 1803.26 Q97.1116 1808.78 108.026 1808.78 L150.152 1808.78 L150.152 1821.1 L105.564 1821.1 Q94.7824 1821.1 89.658 1824.89 Q84.467 1828.68 84.467 1836.6 Q84.467 1845.99 90.8559 1851.51 Q97.1782 1857.03 108.026 1857.03 L150.152 1857.03 L150.152 1869.34 L75.6158 1869.34 L75.6158 1857.03 L87.1956 1857.03 Q80.3409 1852.84 77.0799 1846.98 Q73.8189 1841.13 73.8189 1833.07 Q73.8189 1824.96 77.9451 1819.3 Q82.0712 1813.58 89.9242 1810.85 Z" fill="#000000" fill-rule="nonzero" fill-opacity="1" /><path clip-path="url(#clip050)" d="M109.823 1672.36 L115.812 1672.36 L115.812 1728.66 Q128.457 1727.86 135.112 1721.07 Q141.701 1714.22 141.701 1702.04 Q141.701 1694.98 139.97 1688.39 Q138.24 1681.74 134.779 1675.22 L146.359 1675.22 Q149.154 1681.81 150.618 1688.73 Q152.082 1695.65 152.082 1702.77 Q152.082 1720.6 141.701 1731.05 Q131.319 1741.43 113.616 1741.43 Q95.3148 1741.43 84.6001 1731.59 Q73.8189 1721.67 73.8189 1704.9 Q73.8189 1689.86 83.5353 1681.14 Q93.1852 1672.36 109.823 1672.36 M106.229 1684.6 Q96.1799 1684.73 90.1904 1690.26 Q84.2008 1695.71 84.2008 1704.77 Q84.2008 1715.01 89.9907 1721.2 Q95.7806 1727.33 106.296 1728.26 L106.229 1684.6 Z" fill="#000000" fill-rule="nonzero" fill-opacity="1" /><path clip-path="url(#clip050)" d="M112.684 1618.38 Q112.684 1633.22 116.079 1638.95 Q119.473 1644.67 127.658 1644.67 Q134.18 1644.67 138.04 1640.41 Q141.834 1636.08 141.834 1628.7 Q141.834 1618.52 134.646 1612.39 Q127.392 1606.2 115.413 1606.2 L112.684 1606.2 L112.684 1618.38 M107.627 1593.96 L150.152 1593.96 L150.152 1606.2 L138.839 1606.2 Q145.627 1610.4 148.888 1616.65 Q152.082 1622.91 152.082 1631.96 Q152.082 1643.41 145.694 1650.19 Q139.238 1656.92 128.457 1656.92 Q115.879 1656.92 109.49 1648.53 Q103.101 1640.08 103.101 1623.37 L103.101 1606.2 L101.903 1606.2 Q93.4514 1606.2 88.8594 1611.79 Q84.2008 1617.32 84.2008 1627.37 Q84.2008 1633.76 85.7315 1639.81 Q87.2622 1645.87 90.3235 1651.46 L79.0099 1651.46 Q76.4144 1644.74 75.1499 1638.41 Q73.8189 1632.09 73.8189 1626.1 Q73.8189 1609.93 82.2043 1601.94 Q90.5897 1593.96 107.627 1593.96 Z" fill="#000000" fill-rule="nonzero" fill-opacity="1" /><path clip-path="url(#clip050)" d="M105.164 1506.78 L150.152 1506.78 L150.152 1519.02 L105.564 1519.02 Q94.982 1519.02 89.7245 1523.15 Q84.467 1527.27 84.467 1535.53 Q84.467 1545.44 90.7893 1551.17 Q97.1116 1556.89 108.026 1556.89 L150.152 1556.89 L150.152 1569.2 L75.6158 1569.2 L75.6158 1556.89 L87.1956 1556.89 Q80.474 1552.5 77.1465 1546.57 Q73.8189 1540.58 73.8189 1532.8 Q73.8189 1519.95 81.805 1513.37 Q89.7245 1506.78 105.164 1506.78 Z" fill="#000000" fill-rule="nonzero" fill-opacity="1" /><path clip-path="url(#clip050)" d="M50.7924 1438.5 L50.7924 1420.39 L133.914 1376.34 L50.7924 1376.34 L50.7924 1363.29 L150.152 1363.29 L150.152 1381.4 L67.0308 1425.45 L150.152 1425.45 L150.152 1438.5 L50.7924 1438.5 Z" fill="#000000" fill-rule="nonzero" fill-opacity="1" /><path clip-path="url(#clip050)" d="M50.7924 1336.54 L50.7924 1316.51 L118.408 1291.15 L50.7924 1265.66 L50.7924 1245.63 L150.152 1245.63 L150.152 1258.74 L62.9046 1258.74 L131.052 1284.37 L131.052 1297.87 L62.9046 1323.5 L150.152 1323.5 L150.152 1336.54 L50.7924 1336.54 Z" fill="#000000" fill-rule="nonzero" fill-opacity="1" /><path clip-path="url(#clip050)" d="M64.036 1185.74 L113.483 1203.97 L113.483 1167.44 L64.036 1185.74 M50.7924 1193.32 L50.7924 1178.08 L150.152 1140.22 L150.152 1154.19 L124.664 1163.24 L124.664 1208.03 L150.152 1217.08 L150.152 1231.26 L50.7924 1193.32 Z" fill="#000000" fill-rule="nonzero" fill-opacity="1" /><path clip-path="url(#clip050)" d="M50.7924 1125.71 L50.7924 1062.88 L62.106 1062.88 L62.106 1112.27 L91.5214 1112.27 L91.5214 1064.95 L102.835 1064.95 L102.835 1112.27 L138.839 1112.27 L138.839 1061.69 L150.152 1061.69 L150.152 1125.71 L50.7924 1125.71 Z" fill="#000000" fill-rule="nonzero" fill-opacity="1" /><path clip-path="url(#clip050)" d="M2270.7 19.872 L2284.15 19.872 L2284.15 61.8654 L2328.74 19.872 L2346.04 19.872 L2296.72 66.1912 L2349.57 119.232 L2331.86 119.232 L2284.15 71.3821 L2284.15 119.232 L2270.7 119.232 L2270.7 19.872 Z" fill="#000000" fill-rule="nonzero" fill-opacity="1" /><path clip-path="url(#clip050)" d="M2416.52 78.9024 L2416.52 84.8919 L2360.21 84.8919 Q2361.01 97.5365 2367.8 104.192 Q2374.66 110.78 2386.83 110.78 Q2393.89 110.78 2400.48 109.05 Q2407.13 107.319 2413.65 103.859 L2413.65 115.439 Q2407.07 118.234 2400.14 119.698 Q2393.22 121.162 2386.1 121.162 Q2368.27 121.162 2357.82 110.78 Q2347.44 100.398 2347.44 82.6957 Q2347.44 64.3943 2357.29 53.6797 Q2367.2 42.8985 2383.97 42.8985 Q2399.01 42.8985 2407.73 52.6149 Q2416.52 62.2647 2416.52 78.9024 M2404.27 75.3086 Q2404.14 65.2595 2398.61 59.2699 Q2393.16 53.2804 2384.11 53.2804 Q2373.86 53.2804 2367.67 59.0703 Q2361.54 64.8602 2360.61 75.3752 L2404.27 75.3086 Z" fill="#000000" fill-rule="nonzero" fill-opacity="1" /><path clip-path="url(#clip050)" d="M2448.46 108.052 L2448.46 147.583 L2436.15 147.583 L2436.15 44.6954 L2448.46 44.6954 L2448.46 56.009 Q2452.32 49.3539 2458.18 46.1595 Q2464.1 42.8985 2472.28 42.8985 Q2485.86 42.8985 2494.31 53.6797 Q2502.83 64.4609 2502.83 82.0302 Q2502.83 99.5996 2494.31 110.381 Q2485.86 121.162 2472.28 121.162 Q2464.1 121.162 2458.18 117.968 Q2452.32 114.707 2448.46 108.052 M2490.12 82.0302 Q2490.12 68.5205 2484.53 60.8672 Q2479.01 53.1473 2469.29 53.1473 Q2459.57 53.1473 2453.98 60.8672 Q2448.46 68.5205 2448.46 82.0302 Q2448.46 95.54 2453.98 103.26 Q2459.57 110.913 2469.29 110.913 Q2479.01 110.913 2484.53 103.26 Q2490.12 95.54 2490.12 82.0302 Z" fill="#000000" fill-rule="nonzero" fill-opacity="1" /><path clip-path="url(#clip050)" d="M2523.13 15.6793 L2535.37 15.6793 L2535.37 119.232 L2523.13 119.232 L2523.13 15.6793 Z" fill="#000000" fill-rule="nonzero" fill-opacity="1" /><path clip-path="url(#clip050)" d="M2624.75 78.9024 L2624.75 84.8919 L2568.45 84.8919 Q2569.25 97.5365 2576.04 104.192 Q2582.89 110.78 2595.07 110.78 Q2602.13 110.78 2608.71 109.05 Q2615.37 107.319 2621.89 103.859 L2621.89 115.439 Q2615.3 118.234 2608.38 119.698 Q2601.46 121.162 2594.34 121.162 Q2576.5 121.162 2566.05 110.78 Q2555.67 100.398 2555.67 82.6957 Q2555.67 64.3943 2565.52 53.6797 Q2575.44 42.8985 2592.21 42.8985 Q2607.25 42.8985 2615.97 52.6149 Q2624.75 62.2647 2624.75 78.9024 M2612.51 75.3086 Q2612.37 65.2595 2606.85 59.2699 Q2601.39 53.2804 2592.34 53.2804 Q2582.09 53.2804 2575.9 59.0703 Q2569.78 64.8602 2568.85 75.3752 L2612.51 75.3086 Z" fill="#000000" fill-rule="nonzero" fill-opacity="1" /><path clip-path="url(#clip050)" d="M2688.04 56.1421 Q2685.98 54.9442 2683.52 54.4117 Q2681.12 53.8128 2678.19 53.8128 Q2667.81 53.8128 2662.22 60.6009 Q2656.7 67.3226 2656.7 79.9672 L2656.7 119.232 L2644.38 119.232 L2644.38 44.6954 L2656.7 44.6954 L2656.7 56.2752 Q2660.56 49.487 2666.75 46.226 Q2672.93 42.8985 2681.79 42.8985 Q2683.05 42.8985 2684.58 43.0981 Q2686.11 43.2312 2687.98 43.564 L2688.04 56.1421 Z" fill="#000000" fill-rule="nonzero" fill-opacity="1" /><path clip-path="url(#clip050)" d="M2786.67 65.6588 Q2796.32 67.7219 2801.71 74.2438 Q2807.17 80.7658 2807.17 90.3491 Q2807.17 105.057 2797.05 113.109 Q2786.94 121.162 2768.3 121.162 Q2762.05 121.162 2755.39 119.898 Q2748.8 118.7 2741.75 116.237 L2741.75 103.26 Q2747.34 106.521 2753.99 108.185 Q2760.65 109.848 2767.9 109.848 Q2780.55 109.848 2787.14 104.857 Q2793.79 99.8658 2793.79 90.3491 Q2793.79 81.5644 2787.6 76.6396 Q2781.48 71.6483 2770.5 71.6483 L2758.92 71.6483 L2758.92 60.6009 L2771.03 60.6009 Q2780.95 60.6009 2786.2 56.6745 Q2791.46 52.6814 2791.46 45.2278 Q2791.46 37.5745 2786 33.5149 Q2780.61 29.3887 2770.5 29.3887 Q2764.97 29.3887 2758.65 30.5866 Q2752.33 31.7846 2744.74 34.3135 L2744.74 22.3344 Q2752.4 20.2048 2759.05 19.1399 Q2765.77 18.0751 2771.7 18.0751 Q2787 18.0751 2795.92 25.0629 Q2804.84 31.9842 2804.84 43.8302 Q2804.84 52.0825 2800.11 57.8058 Q2795.39 63.4626 2786.67 65.6588 Z" fill="#000000" fill-rule="nonzero" fill-opacity="1" /><path clip-path="url(#clip050)" d="M2861.41 28.7232 Q2851.02 28.7232 2845.77 38.972 Q2840.58 49.1543 2840.58 69.6518 Q2840.58 90.0829 2845.77 100.332 Q2851.02 110.514 2861.41 110.514 Q2871.85 110.514 2877.05 100.332 Q2882.3 90.0829 2882.3 69.6518 Q2882.3 49.1543 2877.05 38.972 Q2871.85 28.7232 2861.41 28.7232 M2861.41 18.0751 Q2878.11 18.0751 2886.89 31.3187 Q2895.75 44.4957 2895.75 69.6518 Q2895.75 94.7414 2886.89 107.985 Q2878.11 121.162 2861.41 121.162 Q2844.7 121.162 2835.85 107.985 Q2827.07 94.7414 2827.07 69.6518 Q2827.07 44.4957 2835.85 31.3187 Q2844.7 18.0751 2861.41 18.0751 Z" fill="#000000" fill-rule="nonzero" fill-opacity="1" /><path clip-path="url(#clip050)" d="M2911.45 76.44 L2947.32 76.44 L2947.32 87.3543 L2911.45 87.3543 L2911.45 76.44 Z" fill="#000000" fill-rule="nonzero" fill-opacity="1" /><path clip-path="url(#clip050)" d="M2967.35 19.872 L3024.45 19.872 L3024.45 31.1856 L2980.8 31.1856 L2980.8 60.4678 L3020.2 60.4678 L3020.2 71.7814 L2980.8 71.7814 L2980.8 119.232 L2967.35 119.232 L2967.35 19.872 Z" fill="#000000" fill-rule="nonzero" fill-opacity="1" /><path clip-path="url(#clip050)" d="M3069.24 53.2804 Q3059.39 53.2804 3053.67 61.0003 Q3047.95 68.6536 3047.95 82.0302 Q3047.95 95.4069 3053.6 103.127 Q3059.33 110.78 3069.24 110.78 Q3079.03 110.78 3084.75 103.06 Q3090.47 95.3403 3090.47 82.0302 Q3090.47 68.7867 3084.75 61.0668 Q3079.03 53.2804 3069.24 53.2804 M3069.24 42.8985 Q3085.22 42.8985 3094.33 53.2804 Q3103.45 63.6623 3103.45 82.0302 Q3103.45 100.332 3094.33 110.78 Q3085.22 121.162 3069.24 121.162 Q3053.2 121.162 3044.09 110.78 Q3035.04 100.332 3035.04 82.0302 Q3035.04 63.6623 3044.09 53.2804 Q3053.2 42.8985 3069.24 42.8985 Z" fill="#000000" fill-rule="nonzero" fill-opacity="1" /><path clip-path="url(#clip050)" d="M3123.75 15.6793 L3135.99 15.6793 L3135.99 119.232 L3123.75 119.232 L3123.75 15.6793 Z" fill="#000000" fill-rule="nonzero" fill-opacity="1" /><path clip-path="url(#clip050)" d="M3210.66 56.009 L3210.66 15.6793 L3222.91 15.6793 L3222.91 119.232 L3210.66 119.232 L3210.66 108.052 Q3206.8 114.707 3200.88 117.968 Q3195.02 121.162 3186.77 121.162 Q3173.26 121.162 3164.74 110.381 Q3156.29 99.5996 3156.29 82.0302 Q3156.29 64.4609 3164.74 53.6797 Q3173.26 42.8985 3186.77 42.8985 Q3195.02 42.8985 3200.88 46.1595 Q3206.8 49.3539 3210.66 56.009 M3168.94 82.0302 Q3168.94 95.54 3174.46 103.26 Q3180.05 110.913 3189.77 110.913 Q3199.48 110.913 3205.07 103.26 Q3210.66 95.54 3210.66 82.0302 Q3210.66 68.5205 3205.07 60.8672 Q3199.48 53.1473 3189.77 53.1473 Q3180.05 53.1473 3174.46 60.8672 Q3168.94 68.5205 3168.94 82.0302 Z" fill="#000000" fill-rule="nonzero" fill-opacity="1" /><path clip-path="url(#clip050)" d="M3291.99 19.872 L3312.02 19.872 L3337.38 87.4874 L3362.86 19.872 L3382.9 19.872 L3382.9 119.232 L3369.79 119.232 L3369.79 31.9842 L3344.16 100.132 L3330.65 100.132 L3305.03 31.9842 L3305.03 119.232 L3291.99 119.232 L3291.99 19.872 Z" fill="#000000" fill-rule="nonzero" fill-opacity="1" /><path clip-path="url(#clip050)" d="M3472.81 78.9024 L3472.81 84.8919 L3416.5 84.8919 Q3417.3 97.5365 3424.09 104.192 Q3430.95 110.78 3443.12 110.78 Q3450.18 110.78 3456.77 109.05 Q3463.42 107.319 3469.94 103.859 L3469.94 115.439 Q3463.36 118.234 3456.43 119.698 Q3449.51 121.162 3442.39 121.162 Q3424.56 121.162 3414.11 110.78 Q3403.73 100.398 3403.73 82.6957 Q3403.73 64.3943 3413.58 53.6797 Q3423.49 42.8985 3440.26 42.8985 Q3455.3 42.8985 3464.02 52.6149 Q3472.81 62.2647 3472.81 78.9024 M3460.56 75.3086 Q3460.43 65.2595 3454.9 59.2699 Q3449.45 53.2804 3440.4 53.2804 Q3430.15 53.2804 3423.96 59.0703 Q3417.84 64.8602 3416.9 75.3752 L3460.56 75.3086 Z" fill="#000000" fill-rule="nonzero" fill-opacity="1" /><path clip-path="url(#clip050)" d="M3526.78 81.764 Q3511.94 81.764 3506.21 85.1581 Q3500.49 88.5522 3500.49 96.7379 Q3500.49 103.26 3504.75 107.12 Q3509.08 110.913 3516.46 110.913 Q3526.65 110.913 3532.77 103.726 Q3538.96 96.4717 3538.96 84.4926 L3538.96 81.764 L3526.78 81.764 M3551.2 76.7062 L3551.2 119.232 L3538.96 119.232 L3538.96 107.918 Q3534.76 114.707 3528.51 117.968 Q3522.25 121.162 3513.2 121.162 Q3501.76 121.162 3494.97 114.773 Q3488.25 108.318 3488.25 97.5365 Q3488.25 84.9585 3496.63 78.5696 Q3505.08 72.1807 3521.79 72.1807 L3538.96 72.1807 L3538.96 70.9828 Q3538.96 62.5309 3533.37 57.9389 Q3527.84 53.2804 3517.79 53.2804 Q3511.41 53.2804 3505.35 54.811 Q3499.29 56.3417 3493.7 59.403 L3493.7 48.0894 Q3500.42 45.494 3506.75 44.2295 Q3513.07 42.8985 3519.06 42.8985 Q3535.23 42.8985 3543.22 51.2839 Q3551.2 59.6692 3551.2 76.7062 Z" fill="#000000" fill-rule="nonzero" fill-opacity="1" /><path clip-path="url(#clip050)" d="M3638.38 74.2438 L3638.38 119.232 L3626.14 119.232 L3626.14 74.6431 Q3626.14 64.0616 3622.01 58.8041 Q3617.89 53.5466 3609.63 53.5466 Q3599.72 53.5466 3593.99 59.8689 Q3588.27 66.1912 3588.27 77.1055 L3588.27 119.232 L3575.96 119.232 L3575.96 44.6954 L3588.27 44.6954 L3588.27 56.2752 Q3592.66 49.5536 3598.59 46.226 Q3604.58 42.8985 3612.36 42.8985 Q3625.21 42.8985 3631.8 50.8846 Q3638.38 58.8041 3638.38 74.2438 Z" fill="#000000" fill-rule="nonzero" fill-opacity="1" /><path clip-path="url(#clip050)" d="M3755.98 33.7811 L3755.98 70.8497 L3793.05 70.8497 L3793.05 82.1633 L3755.98 82.1633 L3755.98 119.232 L3744.8 119.232 L3744.8 82.1633 L3707.73 82.1633 L3707.73 70.8497 L3744.8 70.8497 L3744.8 33.7811 L3755.98 33.7811 Z" fill="#000000" fill-rule="nonzero" fill-opacity="1" /><path clip-path="url(#clip050)" d="M3842.1 19.872 L3853.41 19.872 L3818.8 131.877 L3807.49 131.877 L3842.1 19.872 Z" fill="#000000" fill-rule="nonzero" fill-opacity="1" /><path clip-path="url(#clip050)" d="M3860.06 76.44 L3895.93 76.44 L3895.93 87.3543 L3860.06 87.3543 L3860.06 76.44 Z" fill="#000000" fill-rule="nonzero" fill-opacity="1" /><path clip-path="url(#clip050)" d="M3960.89 117.169 L3960.89 104.924 Q3965.95 107.319 3971.14 108.584 Q3976.33 109.848 3981.32 109.848 Q3994.63 109.848 4001.62 100.931 Q4008.67 91.9463 4009.67 73.7114 Q4005.81 79.4348 3999.89 82.4961 Q3993.96 85.5574 3986.78 85.5574 Q3971.87 85.5574 3963.15 76.5731 Q3954.5 67.5222 3954.5 51.8828 Q3954.5 36.5762 3963.55 27.3257 Q3972.6 18.0751 3987.64 18.0751 Q4004.88 18.0751 4013.93 31.3187 Q4023.05 44.4957 4023.05 69.6518 Q4023.05 93.1442 4011.87 107.186 Q4000.75 121.162 3981.92 121.162 Q3976.86 121.162 3971.67 120.164 Q3966.48 119.165 3960.89 117.169 M3987.64 75.0424 Q3996.69 75.0424 4001.95 68.8532 Q4007.27 62.664 4007.27 51.8828 Q4007.27 41.1682 4001.95 34.979 Q3996.69 28.7232 3987.64 28.7232 Q3978.59 28.7232 3973.27 34.979 Q3968.01 41.1682 3968.01 51.8828 Q3968.01 62.664 3973.27 68.8532 Q3978.59 75.0424 3987.64 75.0424 Z" fill="#000000" fill-rule="nonzero" fill-opacity="1" /><path clip-path="url(#clip050)" d="M4047.34 19.872 L4100.11 19.872 L4100.11 31.1856 L4059.65 31.1856 L4059.65 55.5431 Q4062.58 54.5448 4065.51 54.079 Q4068.43 53.5466 4071.36 53.5466 Q4088 53.5466 4097.72 62.664 Q4107.43 71.7814 4107.43 87.3543 Q4107.43 103.393 4097.45 112.311 Q4087.47 121.162 4069.3 121.162 Q4063.04 121.162 4056.52 120.097 Q4050.07 119.032 4043.14 116.903 L4043.14 103.393 Q4049.13 106.654 4055.52 108.251 Q4061.91 109.848 4069.03 109.848 Q4080.55 109.848 4087.27 103.792 Q4093.99 97.7362 4093.99 87.3543 Q4093.99 76.9724 4087.27 70.9163 Q4080.55 64.8602 4069.03 64.8602 Q4063.64 64.8602 4058.25 66.0581 Q4052.93 67.256 4047.34 69.7849 L4047.34 19.872 Z" fill="#000000" fill-rule="nonzero" fill-opacity="1" /><path clip-path="url(#clip050)" d="M4218.44 75.5083 Q4212.65 75.5083 4209.32 80.433 Q4206.06 85.3578 4206.06 94.1424 Q4206.06 102.794 4209.32 107.785 Q4212.65 112.71 4218.44 112.71 Q4224.1 112.71 4227.36 107.785 Q4230.68 102.794 4230.68 94.1424 Q4230.68 85.4243 4227.36 80.4996 Q4224.1 75.5083 4218.44 75.5083 M4218.44 67.0564 Q4228.95 67.0564 4235.14 74.3769 Q4241.33 81.6975 4241.33 94.1424 Q4241.33 106.587 4235.08 113.908 Q4228.89 121.162 4218.44 121.162 Q4207.79 121.162 4201.6 113.908 Q4195.41 106.587 4195.41 94.1424 Q4195.41 81.6309 4201.6 74.3769 Q4207.86 67.0564 4218.44 67.0564 M4149.76 26.5271 Q4144.04 26.5271 4140.71 31.5183 Q4137.45 36.4431 4137.45 45.0947 Q4137.45 53.8793 4140.71 58.8041 Q4143.97 63.7288 4149.76 63.7288 Q4155.55 63.7288 4158.81 58.8041 Q4162.14 53.8793 4162.14 45.0947 Q4162.14 36.5096 4158.81 31.5183 Q4155.48 26.5271 4149.76 26.5271 M4209.85 18.0751 L4220.5 18.0751 L4158.34 121.162 L4147.7 121.162 L4209.85 18.0751 M4149.76 18.0751 Q4160.27 18.0751 4166.53 25.3957 Q4172.79 32.6497 4172.79 45.0947 Q4172.79 57.6727 4166.53 64.9267 Q4160.34 72.1807 4149.76 72.1807 Q4139.18 72.1807 4132.99 64.9267 Q4126.87 57.6062 4126.87 45.0947 Q4126.87 32.7163 4133.05 25.3957 Q4139.24 18.0751 4149.76 18.0751 Z" fill="#000000" fill-rule="nonzero" fill-opacity="1" /><path clip-path="url(#clip050)" d="M4379.96 27.5253 L4379.96 41.7006 Q4373.17 35.3783 4365.45 32.2504 Q4357.8 29.1225 4349.14 29.1225 Q4332.11 29.1225 4323.06 39.571 Q4314.01 49.9529 4314.01 69.6518 Q4314.01 89.2842 4323.06 99.7327 Q4332.11 110.115 4349.14 110.115 Q4357.8 110.115 4365.45 106.987 Q4373.17 103.859 4379.96 97.5365 L4379.96 111.579 Q4372.9 116.37 4364.98 118.766 Q4357.13 121.162 4348.35 121.162 Q4325.78 121.162 4312.81 107.386 Q4299.83 93.5435 4299.83 69.6518 Q4299.83 45.6936 4312.81 31.9177 Q4325.78 18.0751 4348.35 18.0751 Q4357.26 18.0751 4365.12 20.471 Q4373.04 22.8002 4379.96 27.5253 Z" fill="#000000" fill-rule="nonzero" fill-opacity="1" /><path clip-path="url(#clip050)" d="M4400.72 19.872 L4414.16 19.872 L4414.16 119.232 L4400.72 119.232 L4400.72 19.872 Z" fill="#000000" fill-rule="nonzero" fill-opacity="1" /><path clip-path="url(#clip052)" d="M5671.3 2272.24 L5671.3 13372.8 L5470.33 13372.8 L5470.33 2272.24 L5671.3 2272.24 L5671.3 2272.24  Z" fill="#d52628" fill-rule="evenodd" fill-opacity="1"/>
<polyline clip-path="url(#clip052)" style="stroke:#000000; stroke-linecap:round; stroke-linejoin:round; stroke-width:4; stroke-opacity:1; fill:none" points="5671.3,2272.24 5671.3,13372.8 5470.33,13372.8 5470.33,2272.24 5671.3,2272.24 "/>
<path clip-path="url(#clip052)" d="M5198.43 1838.72 L5198.43 13372.8 L4997.46 13372.8 L4997.46 1838.72 L5198.43 1838.72 L5198.43 1838.72  Z" fill="#d52628" fill-rule="evenodd" fill-opacity="1"/>
<polyline clip-path="url(#clip052)" style="stroke:#000000; stroke-linecap:round; stroke-linejoin:round; stroke-width:4; stroke-opacity:1; fill:none" points="5198.43,1838.72 5198.43,13372.8 4997.46,13372.8 4997.46,1838.72 5198.43,1838.72 "/>
<path clip-path="url(#clip052)" d="M4725.57 1690.98 L4725.57 13372.8 L4524.6 13372.8 L4524.6 1690.98 L4725.57 1690.98 L4725.57 1690.98  Z" fill="#d52628" fill-rule="evenodd" fill-opacity="1"/>
<polyline clip-path="url(#clip052)" style="stroke:#000000; stroke-linecap:round; stroke-linejoin:round; stroke-width:4; stroke-opacity:1; fill:none" points="4725.57,1690.98 4725.57,13372.8 4524.6,13372.8 4524.6,1690.98 4725.57,1690.98 "/>
<path clip-path="url(#clip052)" d="M4252.7 1631.44 L4252.7 13372.8 L4051.73 13372.8 L4051.73 1631.44 L4252.7 1631.44 L4252.7 1631.44  Z" fill="#d52628" fill-rule="evenodd" fill-opacity="1"/>
<polyline clip-path="url(#clip052)" style="stroke:#000000; stroke-linecap:round; stroke-linejoin:round; stroke-width:4; stroke-opacity:1; fill:none" points="4252.7,1631.44 4252.7,13372.8 4051.73,13372.8 4051.73,1631.44 4252.7,1631.44 "/>
<path clip-path="url(#clip052)" d="M3779.83 1506.19 L3779.83 13372.8 L3578.87 13372.8 L3578.87 1506.19 L3779.83 1506.19 L3779.83 1506.19  Z" fill="#d52628" fill-rule="evenodd" fill-opacity="1"/>
<polyline clip-path="url(#clip052)" style="stroke:#000000; stroke-linecap:round; stroke-linejoin:round; stroke-width:4; stroke-opacity:1; fill:none" points="3779.83,1506.19 3779.83,13372.8 3578.87,13372.8 3578.87,1506.19 3779.83,1506.19 "/>
<path clip-path="url(#clip052)" d="M3306.97 1471.49 L3306.97 13372.8 L3106 13372.8 L3106 1471.49 L3306.97 1471.49 L3306.97 1471.49  Z" fill="#d52628" fill-rule="evenodd" fill-opacity="1"/>
<polyline clip-path="url(#clip052)" style="stroke:#000000; stroke-linecap:round; stroke-linejoin:round; stroke-width:4; stroke-opacity:1; fill:none" points="3306.97,1471.49 3306.97,13372.8 3106,13372.8 3106,1471.49 3306.97,1471.49 "/>
<path clip-path="url(#clip052)" d="M2834.1 1374.36 L2834.1 13372.8 L2633.13 13372.8 L2633.13 1374.36 L2834.1 1374.36 L2834.1 1374.36  Z" fill="#d52628" fill-rule="evenodd" fill-opacity="1"/>
<polyline clip-path="url(#clip052)" style="stroke:#000000; stroke-linecap:round; stroke-linejoin:round; stroke-width:4; stroke-opacity:1; fill:none" points="2834.1,1374.36 2834.1,13372.8 2633.13,13372.8 2633.13,1374.36 2834.1,1374.36 "/>
<path clip-path="url(#clip052)" d="M2361.24 1212.58 L2361.24 13372.8 L2160.27 13372.8 L2160.27 1212.58 L2361.24 1212.58 L2361.24 1212.58  Z" fill="#d52628" fill-rule="evenodd" fill-opacity="1"/>
<polyline clip-path="url(#clip052)" style="stroke:#000000; stroke-linecap:round; stroke-linejoin:round; stroke-width:4; stroke-opacity:1; fill:none" points="2361.24,1212.58 2361.24,13372.8 2160.27,13372.8 2160.27,1212.58 2361.24,1212.58 "/>
<path clip-path="url(#clip052)" d="M1888.37 1103.24 L1888.37 13372.8 L1687.4 13372.8 L1687.4 1103.24 L1888.37 1103.24 L1888.37 1103.24  Z" fill="#d52628" fill-rule="evenodd" fill-opacity="1"/>
<polyline clip-path="url(#clip052)" style="stroke:#000000; stroke-linecap:round; stroke-linejoin:round; stroke-width:4; stroke-opacity:1; fill:none" points="1888.37,1103.24 1888.37,13372.8 1687.4,13372.8 1687.4,1103.24 1888.37,1103.24 "/>
<path clip-path="url(#clip052)" d="M1415.5 312.028 L1415.5 13372.8 L1214.54 13372.8 L1214.54 312.028 L1415.5 312.028 L1415.5 312.028  Z" fill="#d52628" fill-rule="evenodd" fill-opacity="1"/>
<polyline clip-path="url(#clip052)" style="stroke:#000000; stroke-linecap:round; stroke-linejoin:round; stroke-width:4; stroke-opacity:1; fill:none" points="1415.5,312.028 1415.5,13372.8 1214.54,13372.8 1214.54,312.028 1415.5,312.028 "/>
<circle clip-path="url(#clip052)" style="fill:#d52628; stroke:none; fill-opacity:0" cx="5570.81" cy="2272.24" r="2"/>
<circle clip-path="url(#clip052)" style="fill:#d52628; stroke:none; fill-opacity:0" cx="5097.95" cy="1838.72" r="2"/>
<circle clip-path="url(#clip052)" style="fill:#d52628; stroke:none; fill-opacity:0" cx="4625.08" cy="1690.98" r="2"/>
<circle clip-path="url(#clip052)" style="fill:#d52628; stroke:none; fill-opacity:0" cx="4152.22" cy="1631.44" r="2"/>
<circle clip-path="url(#clip052)" style="fill:#d52628; stroke:none; fill-opacity:0" cx="3679.35" cy="1506.19" r="2"/>
<circle clip-path="url(#clip052)" style="fill:#d52628; stroke:none; fill-opacity:0" cx="3206.48" cy="1471.49" r="2"/>
<circle clip-path="url(#clip052)" style="fill:#d52628; stroke:none; fill-opacity:0" cx="2733.62" cy="1374.36" r="2"/>
<circle clip-path="url(#clip052)" style="fill:#d52628; stroke:none; fill-opacity:0" cx="2260.75" cy="1212.58" r="2"/>
<circle clip-path="url(#clip052)" style="fill:#d52628; stroke:none; fill-opacity:0" cx="1787.89" cy="1103.24" r="2"/>
<circle clip-path="url(#clip052)" style="fill:#d52628; stroke:none; fill-opacity:0" cx="1315.02" cy="312.028" r="2"/>
<path clip-path="url(#clip052)" d="M5570.81 2357.7 L5570.81 2186.78 L5570.81 13372.8 L5570.81 13372.8  Z" fill="#d52628" fill-rule="evenodd" fill-opacity="1"/>
<polyline clip-path="url(#clip052)" style="stroke:#000000; stroke-linecap:round; stroke-linejoin:round; stroke-width:4; stroke-opacity:1; fill:none" points="5570.81,2357.7 5570.81,2186.78 "/>
<path clip-path="url(#clip052)" d="M5097.95 1911.38 L5097.95 1766.05 L5097.95 13372.8 L5097.95 13372.8  Z" fill="#d52628" fill-rule="evenodd" fill-opacity="1"/>
<polyline clip-path="url(#clip052)" style="stroke:#000000; stroke-linecap:round; stroke-linejoin:round; stroke-width:4; stroke-opacity:1; fill:none" points="5097.95,1911.38 5097.95,1766.05 "/>
<path clip-path="url(#clip052)" d="M4625.08 1765.38 L4625.08 1616.58 L4625.08 13372.8 L4625.08 13372.8  Z" fill="#d52628" fill-rule="evenodd" fill-opacity="1"/>
<polyline clip-path="url(#clip052)" style="stroke:#000000; stroke-linecap:round; stroke-linejoin:round; stroke-width:4; stroke-opacity:1; fill:none" points="4625.08,1765.38 4625.08,1616.58 "/>
<path clip-path="url(#clip052)" d="M4152.22 1707.42 L4152.22 1555.46 L4152.22 13372.8 L4152.22 13372.8  Z" fill="#d52628" fill-rule="evenodd" fill-opacity="1"/>
<polyline clip-path="url(#clip052)" style="stroke:#000000; stroke-linecap:round; stroke-linejoin:round; stroke-width:4; stroke-opacity:1; fill:none" points="4152.22,1707.42 4152.22,1555.46 "/>
<path clip-path="url(#clip052)" d="M3679.35 1586.22 L3679.35 1426.16 L3679.35 13372.8 L3679.35 13372.8  Z" fill="#d52628" fill-rule="evenodd" fill-opacity="1"/>
<polyline clip-path="url(#clip052)" style="stroke:#000000; stroke-linecap:round; stroke-linejoin:round; stroke-width:4; stroke-opacity:1; fill:none" points="3679.35,1586.22 3679.35,1426.16 "/>
<path clip-path="url(#clip052)" d="M3206.48 1545.94 L3206.48 1397.05 L3206.48 13372.8 L3206.48 13372.8  Z" fill="#d52628" fill-rule="evenodd" fill-opacity="1"/>
<polyline clip-path="url(#clip052)" style="stroke:#000000; stroke-linecap:round; stroke-linejoin:round; stroke-width:4; stroke-opacity:1; fill:none" points="3206.48,1545.94 3206.48,1397.05 "/>
<path clip-path="url(#clip052)" d="M2733.62 1456.18 L2733.62 1292.54 L2733.62 13372.8 L2733.62 13372.8  Z" fill="#d52628" fill-rule="evenodd" fill-opacity="1"/>
<polyline clip-path="url(#clip052)" style="stroke:#000000; stroke-linecap:round; stroke-linejoin:round; stroke-width:4; stroke-opacity:1; fill:none" points="2733.62,1456.18 2733.62,1292.54 "/>
<path clip-path="url(#clip052)" d="M2260.75 1292.75 L2260.75 1132.42 L2260.75 13372.8 L2260.75 13372.8  Z" fill="#d52628" fill-rule="evenodd" fill-opacity="1"/>
<polyline clip-path="url(#clip052)" style="stroke:#000000; stroke-linecap:round; stroke-linejoin:round; stroke-width:4; stroke-opacity:1; fill:none" points="2260.75,1292.75 2260.75,1132.42 "/>
<path clip-path="url(#clip052)" d="M1787.89 1182.03 L1787.89 1024.45 L1787.89 13372.8 L1787.89 13372.8  Z" fill="#d52628" fill-rule="evenodd" fill-opacity="1"/>
<polyline clip-path="url(#clip052)" style="stroke:#000000; stroke-linecap:round; stroke-linejoin:round; stroke-width:4; stroke-opacity:1; fill:none" points="1787.89,1182.03 1787.89,1024.45 "/>
<path clip-path="url(#clip052)" d="M1315.02 430.925 L1315.02 193.131 L1315.02 13372.8 L1315.02 13372.8  Z" fill="#d52628" fill-rule="evenodd" fill-opacity="1"/>
<polyline clip-path="url(#clip052)" style="stroke:#000000; stroke-linecap:round; stroke-linejoin:round; stroke-width:4; stroke-opacity:1; fill:none" points="1315.02,430.925 1315.02,193.131 "/>
<line clip-path="url(#clip052)" x1="5578.81" y1="2357.7" x2="5562.81" y2="2357.7" style="stroke:#000000; stroke-width:6.4; stroke-opacity:1"/>
<line clip-path="url(#clip052)" x1="5578.81" y1="2186.78" x2="5562.81" y2="2186.78" style="stroke:#000000; stroke-width:6.4; stroke-opacity:1"/>
<line clip-path="url(#clip052)" x1="5105.95" y1="1911.38" x2="5089.95" y2="1911.38" style="stroke:#000000; stroke-width:6.4; stroke-opacity:1"/>
<line clip-path="url(#clip052)" x1="5105.95" y1="1766.05" x2="5089.95" y2="1766.05" style="stroke:#000000; stroke-width:6.4; stroke-opacity:1"/>
<line clip-path="url(#clip052)" x1="4633.08" y1="1765.38" x2="4617.08" y2="1765.38" style="stroke:#000000; stroke-width:6.4; stroke-opacity:1"/>
<line clip-path="url(#clip052)" x1="4633.08" y1="1616.58" x2="4617.08" y2="1616.58" style="stroke:#000000; stroke-width:6.4; stroke-opacity:1"/>
<line clip-path="url(#clip052)" x1="4160.22" y1="1707.42" x2="4144.22" y2="1707.42" style="stroke:#000000; stroke-width:6.4; stroke-opacity:1"/>
<line clip-path="url(#clip052)" x1="4160.22" y1="1555.46" x2="4144.22" y2="1555.46" style="stroke:#000000; stroke-width:6.4; stroke-opacity:1"/>
<line clip-path="url(#clip052)" x1="3687.35" y1="1586.22" x2="3671.35" y2="1586.22" style="stroke:#000000; stroke-width:6.4; stroke-opacity:1"/>
<line clip-path="url(#clip052)" x1="3687.35" y1="1426.16" x2="3671.35" y2="1426.16" style="stroke:#000000; stroke-width:6.4; stroke-opacity:1"/>
<line clip-path="url(#clip052)" x1="3214.48" y1="1545.94" x2="3198.48" y2="1545.94" style="stroke:#000000; stroke-width:6.4; stroke-opacity:1"/>
<line clip-path="url(#clip052)" x1="3214.48" y1="1397.05" x2="3198.48" y2="1397.05" style="stroke:#000000; stroke-width:6.4; stroke-opacity:1"/>
<line clip-path="url(#clip052)" x1="2741.62" y1="1456.18" x2="2725.62" y2="1456.18" style="stroke:#000000; stroke-width:6.4; stroke-opacity:1"/>
<line clip-path="url(#clip052)" x1="2741.62" y1="1292.54" x2="2725.62" y2="1292.54" style="stroke:#000000; stroke-width:6.4; stroke-opacity:1"/>
<line clip-path="url(#clip052)" x1="2268.75" y1="1292.75" x2="2252.75" y2="1292.75" style="stroke:#000000; stroke-width:6.4; stroke-opacity:1"/>
<line clip-path="url(#clip052)" x1="2268.75" y1="1132.42" x2="2252.75" y2="1132.42" style="stroke:#000000; stroke-width:6.4; stroke-opacity:1"/>
<line clip-path="url(#clip052)" x1="1795.89" y1="1182.03" x2="1779.89" y2="1182.03" style="stroke:#000000; stroke-width:6.4; stroke-opacity:1"/>
<line clip-path="url(#clip052)" x1="1795.89" y1="1024.45" x2="1779.89" y2="1024.45" style="stroke:#000000; stroke-width:6.4; stroke-opacity:1"/>
<line clip-path="url(#clip052)" x1="1323.02" y1="430.925" x2="1307.02" y2="430.925" style="stroke:#000000; stroke-width:6.4; stroke-opacity:1"/>
<line clip-path="url(#clip052)" x1="1323.02" y1="193.131" x2="1307.02" y2="193.131" style="stroke:#000000; stroke-width:6.4; stroke-opacity:1"/>
<path clip-path="url(#clip052)" d="M5470.33 1814.35 L5470.33 13372.8 L5269.36 13372.8 L5269.36 1814.35 L5470.33 1814.35 L5470.33 1814.35  Z" fill="#ff7e0d" fill-rule="evenodd" fill-opacity="1"/>
<polyline clip-path="url(#clip052)" style="stroke:#000000; stroke-linecap:round; stroke-linejoin:round; stroke-width:4; stroke-opacity:1; fill:none" points="5470.33,1814.35 5470.33,13372.8 5269.36,13372.8 5269.36,1814.35 5470.33,1814.35 "/>
<path clip-path="url(#clip052)" d="M4997.46 1668.34 L4997.46 13372.8 L4796.5 13372.8 L4796.5 1668.34 L4997.46 1668.34 L4997.46 1668.34  Z" fill="#ff7e0d" fill-rule="evenodd" fill-opacity="1"/>
<polyline clip-path="url(#clip052)" style="stroke:#000000; stroke-linecap:round; stroke-linejoin:round; stroke-width:4; stroke-opacity:1; fill:none" points="4997.46,1668.34 4997.46,13372.8 4796.5,13372.8 4796.5,1668.34 4997.46,1668.34 "/>
<path clip-path="url(#clip052)" d="M4524.6 1646.08 L4524.6 13372.8 L4323.63 13372.8 L4323.63 1646.08 L4524.6 1646.08 L4524.6 1646.08  Z" fill="#ff7e0d" fill-rule="evenodd" fill-opacity="1"/>
<polyline clip-path="url(#clip052)" style="stroke:#000000; stroke-linecap:round; stroke-linejoin:round; stroke-width:4; stroke-opacity:1; fill:none" points="4524.6,1646.08 4524.6,13372.8 4323.63,13372.8 4323.63,1646.08 4524.6,1646.08 "/>
<path clip-path="url(#clip052)" d="M4051.73 1642.14 L4051.73 13372.8 L3850.76 13372.8 L3850.76 1642.14 L4051.73 1642.14 L4051.73 1642.14  Z" fill="#ff7e0d" fill-rule="evenodd" fill-opacity="1"/>
<polyline clip-path="url(#clip052)" style="stroke:#000000; stroke-linecap:round; stroke-linejoin:round; stroke-width:4; stroke-opacity:1; fill:none" points="4051.73,1642.14 4051.73,13372.8 3850.76,13372.8 3850.76,1642.14 4051.73,1642.14 "/>
<path clip-path="url(#clip052)" d="M3578.87 1625.84 L3578.87 13372.8 L3377.9 13372.8 L3377.9 1625.84 L3578.87 1625.84 L3578.87 1625.84  Z" fill="#ff7e0d" fill-rule="evenodd" fill-opacity="1"/>
<polyline clip-path="url(#clip052)" style="stroke:#000000; stroke-linecap:round; stroke-linejoin:round; stroke-width:4; stroke-opacity:1; fill:none" points="3578.87,1625.84 3578.87,13372.8 3377.9,13372.8 3377.9,1625.84 3578.87,1625.84 "/>
<path clip-path="url(#clip052)" d="M3106 1622.67 L3106 13372.8 L2905.03 13372.8 L2905.03 1622.67 L3106 1622.67 L3106 1622.67  Z" fill="#ff7e0d" fill-rule="evenodd" fill-opacity="1"/>
<polyline clip-path="url(#clip052)" style="stroke:#000000; stroke-linecap:round; stroke-linejoin:round; stroke-width:4; stroke-opacity:1; fill:none" points="3106,1622.67 3106,13372.8 2905.03,13372.8 2905.03,1622.67 3106,1622.67 "/>
<path clip-path="url(#clip052)" d="M2633.13 1628.32 L2633.13 13372.8 L2432.17 13372.8 L2432.17 1628.32 L2633.13 1628.32 L2633.13 1628.32  Z" fill="#ff7e0d" fill-rule="evenodd" fill-opacity="1"/>
<polyline clip-path="url(#clip052)" style="stroke:#000000; stroke-linecap:round; stroke-linejoin:round; stroke-width:4; stroke-opacity:1; fill:none" points="2633.13,1628.32 2633.13,13372.8 2432.17,13372.8 2432.17,1628.32 2633.13,1628.32 "/>
<path clip-path="url(#clip052)" d="M2160.27 1624.36 L2160.27 13372.8 L1959.3 13372.8 L1959.3 1624.36 L2160.27 1624.36 L2160.27 1624.36  Z" fill="#ff7e0d" fill-rule="evenodd" fill-opacity="1"/>
<polyline clip-path="url(#clip052)" style="stroke:#000000; stroke-linecap:round; stroke-linejoin:round; stroke-width:4; stroke-opacity:1; fill:none" points="2160.27,1624.36 2160.27,13372.8 1959.3,13372.8 1959.3,1624.36 2160.27,1624.36 "/>
<path clip-path="url(#clip052)" d="M1687.4 1580.78 L1687.4 13372.8 L1486.43 13372.8 L1486.43 1580.78 L1687.4 1580.78 L1687.4 1580.78  Z" fill="#ff7e0d" fill-rule="evenodd" fill-opacity="1"/>
<polyline clip-path="url(#clip052)" style="stroke:#000000; stroke-linecap:round; stroke-linejoin:round; stroke-width:4; stroke-opacity:1; fill:none" points="1687.4,1580.78 1687.4,13372.8 1486.43,13372.8 1486.43,1580.78 1687.4,1580.78 "/>
<path clip-path="url(#clip052)" d="M1214.54 1077.12 L1214.54 13372.8 L1013.57 13372.8 L1013.57 1077.12 L1214.54 1077.12 L1214.54 1077.12  Z" fill="#ff7e0d" fill-rule="evenodd" fill-opacity="1"/>
<polyline clip-path="url(#clip052)" style="stroke:#000000; stroke-linecap:round; stroke-linejoin:round; stroke-width:4; stroke-opacity:1; fill:none" points="1214.54,1077.12 1214.54,13372.8 1013.57,13372.8 1013.57,1077.12 1214.54,1077.12 "/>
<circle clip-path="url(#clip052)" style="fill:#ff7e0d; stroke:none; fill-opacity:0" cx="5369.85" cy="1814.35" r="2"/>
<circle clip-path="url(#clip052)" style="fill:#ff7e0d; stroke:none; fill-opacity:0" cx="4896.98" cy="1668.34" r="2"/>
<circle clip-path="url(#clip052)" style="fill:#ff7e0d; stroke:none; fill-opacity:0" cx="4424.11" cy="1646.08" r="2"/>
<circle clip-path="url(#clip052)" style="fill:#ff7e0d; stroke:none; fill-opacity:0" cx="3951.25" cy="1642.14" r="2"/>
<circle clip-path="url(#clip052)" style="fill:#ff7e0d; stroke:none; fill-opacity:0" cx="3478.38" cy="1625.84" r="2"/>
<circle clip-path="url(#clip052)" style="fill:#ff7e0d; stroke:none; fill-opacity:0" cx="3005.52" cy="1622.67" r="2"/>
<circle clip-path="url(#clip052)" style="fill:#ff7e0d; stroke:none; fill-opacity:0" cx="2532.65" cy="1628.32" r="2"/>
<circle clip-path="url(#clip052)" style="fill:#ff7e0d; stroke:none; fill-opacity:0" cx="2059.78" cy="1624.36" r="2"/>
<circle clip-path="url(#clip052)" style="fill:#ff7e0d; stroke:none; fill-opacity:0" cx="1586.92" cy="1580.78" r="2"/>
<circle clip-path="url(#clip052)" style="fill:#ff7e0d; stroke:none; fill-opacity:0" cx="1114.05" cy="1077.12" r="2"/>
<path clip-path="url(#clip052)" d="M5369.85 1906.08 L5369.85 1722.61 L5369.85 13372.8 L5369.85 13372.8  Z" fill="#ff7e0d" fill-rule="evenodd" fill-opacity="1"/>
<polyline clip-path="url(#clip052)" style="stroke:#000000; stroke-linecap:round; stroke-linejoin:round; stroke-width:4; stroke-opacity:1; fill:none" points="5369.85,1906.08 5369.85,1722.61 "/>
<path clip-path="url(#clip052)" d="M4896.98 1736.1 L4896.98 1600.58 L4896.98 13372.8 L4896.98 13372.8  Z" fill="#ff7e0d" fill-rule="evenodd" fill-opacity="1"/>
<polyline clip-path="url(#clip052)" style="stroke:#000000; stroke-linecap:round; stroke-linejoin:round; stroke-width:4; stroke-opacity:1; fill:none" points="4896.98,1736.1 4896.98,1600.58 "/>
<path clip-path="url(#clip052)" d="M4424.11 1712.05 L4424.11 1580.12 L4424.11 13372.8 L4424.11 13372.8  Z" fill="#ff7e0d" fill-rule="evenodd" fill-opacity="1"/>
<polyline clip-path="url(#clip052)" style="stroke:#000000; stroke-linecap:round; stroke-linejoin:round; stroke-width:4; stroke-opacity:1; fill:none" points="4424.11,1712.05 4424.11,1580.12 "/>
<path clip-path="url(#clip052)" d="M3951.25 1704.36 L3951.25 1579.92 L3951.25 13372.8 L3951.25 13372.8  Z" fill="#ff7e0d" fill-rule="evenodd" fill-opacity="1"/>
<polyline clip-path="url(#clip052)" style="stroke:#000000; stroke-linecap:round; stroke-linejoin:round; stroke-width:4; stroke-opacity:1; fill:none" points="3951.25,1704.36 3951.25,1579.92 "/>
<path clip-path="url(#clip052)" d="M3478.38 1686.84 L3478.38 1564.84 L3478.38 13372.8 L3478.38 13372.8  Z" fill="#ff7e0d" fill-rule="evenodd" fill-opacity="1"/>
<polyline clip-path="url(#clip052)" style="stroke:#000000; stroke-linecap:round; stroke-linejoin:round; stroke-width:4; stroke-opacity:1; fill:none" points="3478.38,1686.84 3478.38,1564.84 "/>
<path clip-path="url(#clip052)" d="M3005.52 1683.38 L3005.52 1561.96 L3005.52 13372.8 L3005.52 13372.8  Z" fill="#ff7e0d" fill-rule="evenodd" fill-opacity="1"/>
<polyline clip-path="url(#clip052)" style="stroke:#000000; stroke-linecap:round; stroke-linejoin:round; stroke-width:4; stroke-opacity:1; fill:none" points="3005.52,1683.38 3005.52,1561.96 "/>
<path clip-path="url(#clip052)" d="M2532.65 1691.15 L2532.65 1565.49 L2532.65 13372.8 L2532.65 13372.8  Z" fill="#ff7e0d" fill-rule="evenodd" fill-opacity="1"/>
<polyline clip-path="url(#clip052)" style="stroke:#000000; stroke-linecap:round; stroke-linejoin:round; stroke-width:4; stroke-opacity:1; fill:none" points="2532.65,1691.15 2532.65,1565.49 "/>
<path clip-path="url(#clip052)" d="M2059.78 1684.81 L2059.78 1563.9 L2059.78 13372.8 L2059.78 13372.8  Z" fill="#ff7e0d" fill-rule="evenodd" fill-opacity="1"/>
<polyline clip-path="url(#clip052)" style="stroke:#000000; stroke-linecap:round; stroke-linejoin:round; stroke-width:4; stroke-opacity:1; fill:none" points="2059.78,1684.81 2059.78,1563.9 "/>
<path clip-path="url(#clip052)" d="M1586.92 1635.34 L1586.92 1526.21 L1586.92 13372.8 L1586.92 13372.8  Z" fill="#ff7e0d" fill-rule="evenodd" fill-opacity="1"/>
<polyline clip-path="url(#clip052)" style="stroke:#000000; stroke-linecap:round; stroke-linejoin:round; stroke-width:4; stroke-opacity:1; fill:none" points="1586.92,1635.34 1586.92,1526.21 "/>
<path clip-path="url(#clip052)" d="M1114.05 1148.52 L1114.05 1005.72 L1114.05 13372.8 L1114.05 13372.8  Z" fill="#ff7e0d" fill-rule="evenodd" fill-opacity="1"/>
<polyline clip-path="url(#clip052)" style="stroke:#000000; stroke-linecap:round; stroke-linejoin:round; stroke-width:4; stroke-opacity:1; fill:none" points="1114.05,1148.52 1114.05,1005.72 "/>
<line clip-path="url(#clip052)" x1="5377.85" y1="1906.08" x2="5361.85" y2="1906.08" style="stroke:#000000; stroke-width:6.4; stroke-opacity:1"/>
<line clip-path="url(#clip052)" x1="5377.85" y1="1722.61" x2="5361.85" y2="1722.61" style="stroke:#000000; stroke-width:6.4; stroke-opacity:1"/>
<line clip-path="url(#clip052)" x1="4904.98" y1="1736.1" x2="4888.98" y2="1736.1" style="stroke:#000000; stroke-width:6.4; stroke-opacity:1"/>
<line clip-path="url(#clip052)" x1="4904.98" y1="1600.58" x2="4888.98" y2="1600.58" style="stroke:#000000; stroke-width:6.4; stroke-opacity:1"/>
<line clip-path="url(#clip052)" x1="4432.11" y1="1712.05" x2="4416.11" y2="1712.05" style="stroke:#000000; stroke-width:6.4; stroke-opacity:1"/>
<line clip-path="url(#clip052)" x1="4432.11" y1="1580.12" x2="4416.11" y2="1580.12" style="stroke:#000000; stroke-width:6.4; stroke-opacity:1"/>
<line clip-path="url(#clip052)" x1="3959.25" y1="1704.36" x2="3943.25" y2="1704.36" style="stroke:#000000; stroke-width:6.4; stroke-opacity:1"/>
<line clip-path="url(#clip052)" x1="3959.25" y1="1579.92" x2="3943.25" y2="1579.92" style="stroke:#000000; stroke-width:6.4; stroke-opacity:1"/>
<line clip-path="url(#clip052)" x1="3486.38" y1="1686.84" x2="3470.38" y2="1686.84" style="stroke:#000000; stroke-width:6.4; stroke-opacity:1"/>
<line clip-path="url(#clip052)" x1="3486.38" y1="1564.84" x2="3470.38" y2="1564.84" style="stroke:#000000; stroke-width:6.4; stroke-opacity:1"/>
<line clip-path="url(#clip052)" x1="3013.52" y1="1683.38" x2="2997.52" y2="1683.38" style="stroke:#000000; stroke-width:6.4; stroke-opacity:1"/>
<line clip-path="url(#clip052)" x1="3013.52" y1="1561.96" x2="2997.52" y2="1561.96" style="stroke:#000000; stroke-width:6.4; stroke-opacity:1"/>
<line clip-path="url(#clip052)" x1="2540.65" y1="1691.15" x2="2524.65" y2="1691.15" style="stroke:#000000; stroke-width:6.4; stroke-opacity:1"/>
<line clip-path="url(#clip052)" x1="2540.65" y1="1565.49" x2="2524.65" y2="1565.49" style="stroke:#000000; stroke-width:6.4; stroke-opacity:1"/>
<line clip-path="url(#clip052)" x1="2067.78" y1="1684.81" x2="2051.78" y2="1684.81" style="stroke:#000000; stroke-width:6.4; stroke-opacity:1"/>
<line clip-path="url(#clip052)" x1="2067.78" y1="1563.9" x2="2051.78" y2="1563.9" style="stroke:#000000; stroke-width:6.4; stroke-opacity:1"/>
<line clip-path="url(#clip052)" x1="1594.92" y1="1635.34" x2="1578.92" y2="1635.34" style="stroke:#000000; stroke-width:6.4; stroke-opacity:1"/>
<line clip-path="url(#clip052)" x1="1594.92" y1="1526.21" x2="1578.92" y2="1526.21" style="stroke:#000000; stroke-width:6.4; stroke-opacity:1"/>
<line clip-path="url(#clip052)" x1="1122.05" y1="1148.52" x2="1106.05" y2="1148.52" style="stroke:#000000; stroke-width:6.4; stroke-opacity:1"/>
<line clip-path="url(#clip052)" x1="1122.05" y1="1005.72" x2="1106.05" y2="1005.72" style="stroke:#000000; stroke-width:6.4; stroke-opacity:1"/>
</svg>
