<?xml version="1.0" encoding="UTF-8" standalone="no"?>
<svg
   width="700"
   height="500"
   viewBox="0 0 2800 2000"
   version="1.1"
   id="svg367"
   sodipodi:docname="legNew.svg"
   inkscape:version="1.2.1 (9c6d41e, 2022-07-14)"
   xmlns:inkscape="http://www.inkscape.org/namespaces/inkscape"
   xmlns:sodipodi="http://sodipodi.sourceforge.net/DTD/sodipodi-0.dtd"
   xmlns="http://www.w3.org/2000/svg"
   xmlns:svg="http://www.w3.org/2000/svg">
  <sodipodi:namedview
     id="namedview369"
     pagecolor="#ffffff"
     bordercolor="#000000"
     borderopacity="0.25"
     inkscape:showpageshadow="2"
     inkscape:pageopacity="0.0"
     inkscape:pagecheckerboard="0"
     inkscape:deskcolor="#d1d1d1"
     showgrid="false"
     inkscape:zoom="0.944"
     inkscape:cx="308.26271"
     inkscape:cy="208.15678"
     inkscape:window-width="1920"
     inkscape:window-height="1027"
     inkscape:window-x="0"
     inkscape:window-y="25"
     inkscape:window-maximized="1"
     inkscape:current-layer="svg367" />
  <defs
     id="defs135">
    <clipPath
       id="clip130">
      <rect
         x="0"
         y="0"
         width="2800"
         height="2000"
         id="rect132" />
    </clipPath>
  </defs>
  <path
     clip-path="url(#clip130)"
     d="M0 2000 L2800 2000 L2800 -4.44089e-14 L0 -4.44089e-14  Z"
     fill="#ffffff"
     fill-rule="evenodd"
     fill-opacity="1"
     id="path137" />
  <defs
     id="defs142">
    <clipPath
       id="clip131">
      <rect
         x="560"
         y="0"
         width="1961"
         height="1961"
         id="rect139" />
    </clipPath>
  </defs>
  <path
     clip-path="url(#clip130)"
     d="M529.663 1605.88 L2752.76 1605.88 L2752.76 127.792 L529.663 127.792  Z"
     fill="#ffffff"
     fill-rule="evenodd"
     fill-opacity="1"
     id="path144" />
  <defs
     id="defs149">
    <clipPath
       id="clip132">
      <rect
         x="529"
         y="127"
         width="2224"
         height="1479"
         id="rect146" />
    </clipPath>
  </defs>
  <polyline
     clip-path="url(#clip132)"
     style="stroke:#000000; stroke-linecap:round; stroke-linejoin:round; stroke-width:2; stroke-opacity:0.1; fill:none"
     points="592.581,1605.88 592.581,127.792 "
     id="polyline151" />
  <polyline
     clip-path="url(#clip132)"
     style="stroke:#000000; stroke-linecap:round; stroke-linejoin:round; stroke-width:2; stroke-opacity:0.1; fill:none"
     points="1116.9,1605.88 1116.9,127.792 "
     id="polyline153" />
  <polyline
     clip-path="url(#clip132)"
     style="stroke:#000000; stroke-linecap:round; stroke-linejoin:round; stroke-width:2; stroke-opacity:0.1; fill:none"
     points="1641.21,1605.88 1641.21,127.792 "
     id="polyline155" />
  <polyline
     clip-path="url(#clip132)"
     style="stroke:#000000; stroke-linecap:round; stroke-linejoin:round; stroke-width:2; stroke-opacity:0.1; fill:none"
     points="2165.52,1605.88 2165.52,127.792 "
     id="polyline157" />
  <polyline
     clip-path="url(#clip132)"
     style="stroke:#000000; stroke-linecap:round; stroke-linejoin:round; stroke-width:2; stroke-opacity:0.1; fill:none"
     points="2689.84,1605.88 2689.84,127.792 "
     id="polyline159" />
  <polyline
     clip-path="url(#clip132)"
     style="stroke:#000000; stroke-linecap:round; stroke-linejoin:round; stroke-width:2; stroke-opacity:0.1; fill:none"
     points="529.663,1425.85 2752.76,1425.85 "
     id="polyline161" />
  <polyline
     clip-path="url(#clip132)"
     style="stroke:#000000; stroke-linecap:round; stroke-linejoin:round; stroke-width:2; stroke-opacity:0.1; fill:none"
     points="529.663,1239.51 2752.76,1239.51 "
     id="polyline163" />
  <polyline
     clip-path="url(#clip132)"
     style="stroke:#000000; stroke-linecap:round; stroke-linejoin:round; stroke-width:2; stroke-opacity:0.1; fill:none"
     points="529.663,1053.17 2752.76,1053.17 "
     id="polyline165" />
  <polyline
     clip-path="url(#clip132)"
     style="stroke:#000000; stroke-linecap:round; stroke-linejoin:round; stroke-width:2; stroke-opacity:0.1; fill:none"
     points="529.663,866.836 2752.76,866.836 "
     id="polyline167" />
  <polyline
     clip-path="url(#clip132)"
     style="stroke:#000000; stroke-linecap:round; stroke-linejoin:round; stroke-width:2; stroke-opacity:0.1; fill:none"
     points="529.663,680.499 2752.76,680.499 "
     id="polyline169" />
  <polyline
     clip-path="url(#clip132)"
     style="stroke:#000000; stroke-linecap:round; stroke-linejoin:round; stroke-width:2; stroke-opacity:0.1; fill:none"
     points="529.663,494.161 2752.76,494.161 "
     id="polyline171" />
  <polyline
     clip-path="url(#clip132)"
     style="stroke:#000000; stroke-linecap:round; stroke-linejoin:round; stroke-width:2; stroke-opacity:0.1; fill:none"
     points="529.663,307.824 2752.76,307.824 "
     id="polyline173" />
  <polyline
     clip-path="url(#clip130)"
     style="stroke:#000000; stroke-linecap:round; stroke-linejoin:round; stroke-width:4; stroke-opacity:1; fill:none"
     points="529.663,1605.88 2752.76,1605.88 "
     id="polyline175" />
  <polyline
     clip-path="url(#clip130)"
     style="stroke:#000000; stroke-linecap:round; stroke-linejoin:round; stroke-width:4; stroke-opacity:1; fill:none"
     points="592.581,1605.88 592.581,1586.98 "
     id="polyline177" />
  <polyline
     clip-path="url(#clip130)"
     style="stroke:#000000; stroke-linecap:round; stroke-linejoin:round; stroke-width:4; stroke-opacity:1; fill:none"
     points="1116.9,1605.88 1116.9,1586.98 "
     id="polyline179" />
  <polyline
     clip-path="url(#clip130)"
     style="stroke:#000000; stroke-linecap:round; stroke-linejoin:round; stroke-width:4; stroke-opacity:1; fill:none"
     points="1641.21,1605.88 1641.21,1586.98 "
     id="polyline181" />
  <polyline
     clip-path="url(#clip130)"
     style="stroke:#000000; stroke-linecap:round; stroke-linejoin:round; stroke-width:4; stroke-opacity:1; fill:none"
     points="2165.52,1605.88 2165.52,1586.98 "
     id="polyline183" />
  <polyline
     clip-path="url(#clip130)"
     style="stroke:#000000; stroke-linecap:round; stroke-linejoin:round; stroke-width:4; stroke-opacity:1; fill:none"
     points="2689.84,1605.88 2689.84,1586.98 "
     id="polyline185" />
  <path
     clip-path="url(#clip130)"
     d="M458.901 1694.21 L533.091 1694.21 L533.091 1704.05 L458.901 1704.05 L458.901 1694.21 Z"
     fill="#000000"
     fill-rule="nonzero"
     fill-opacity="1"
     id="path187" />
  <path
     clip-path="url(#clip130)"
     d="M560.347 1726.44 L579.445 1726.44 L579.445 1660.53 L558.669 1664.7 L558.669 1654.05 L579.329 1649.88 L591.019 1649.88 L591.019 1726.44 L610.116 1726.44 L610.116 1736.28 L560.347 1736.28 L560.347 1726.44 Z"
     fill="#000000"
     fill-rule="nonzero"
     fill-opacity="1"
     id="path189" />
  <path
     clip-path="url(#clip130)"
     d="M633.727 1721.58 L645.937 1721.58 L645.937 1736.28 L633.727 1736.28 L633.727 1721.58 Z"
     fill="#000000"
     fill-rule="nonzero"
     fill-opacity="1"
     id="path191" />
  <path
     clip-path="url(#clip130)"
     d="M696.4 1657.58 Q687.372 1657.58 682.801 1666.49 Q678.287 1675.34 678.287 1693.17 Q678.287 1710.93 682.801 1719.85 Q687.372 1728.7 696.4 1728.7 Q705.486 1728.7 709.999 1719.85 Q714.571 1710.93 714.571 1693.17 Q714.571 1675.34 709.999 1666.49 Q705.486 1657.58 696.4 1657.58 M696.4 1648.32 Q710.925 1648.32 718.564 1659.83 Q726.261 1671.29 726.261 1693.17 Q726.261 1714.98 718.564 1726.5 Q710.925 1737.96 696.4 1737.96 Q681.875 1737.96 674.178 1726.5 Q666.539 1714.98 666.539 1693.17 Q666.539 1671.29 674.178 1659.83 Q681.875 1648.32 696.4 1648.32 Z"
     fill="#000000"
     fill-rule="nonzero"
     fill-opacity="1"
     id="path193" />
  <path
     clip-path="url(#clip130)"
     d="M984.46 1694.21 L1058.65 1694.21 L1058.65 1704.05 L984.46 1704.05 L984.46 1694.21 Z"
     fill="#000000"
     fill-rule="nonzero"
     fill-opacity="1"
     id="path195" />
  <path
     clip-path="url(#clip130)"
     d="M1108.88 1657.58 Q1099.85 1657.58 1095.28 1666.49 Q1090.77 1675.34 1090.77 1693.17 Q1090.77 1710.93 1095.28 1719.85 Q1099.85 1728.7 1108.88 1728.7 Q1117.97 1728.7 1122.48 1719.85 Q1127.05 1710.93 1127.05 1693.17 Q1127.05 1675.34 1122.48 1666.49 Q1117.97 1657.58 1108.88 1657.58 M1108.88 1648.32 Q1123.41 1648.32 1131.04 1659.83 Q1138.74 1671.29 1138.74 1693.17 Q1138.74 1714.98 1131.04 1726.5 Q1123.41 1737.96 1108.88 1737.96 Q1094.35 1737.96 1086.66 1726.5 Q1079.02 1714.98 1079.02 1693.17 Q1079.02 1671.29 1086.66 1659.83 Q1094.35 1648.32 1108.88 1648.32 Z"
     fill="#000000"
     fill-rule="nonzero"
     fill-opacity="1"
     id="path197" />
  <path
     clip-path="url(#clip130)"
     d="M1159.29 1721.58 L1171.5 1721.58 L1171.5 1736.28 L1159.29 1736.28 L1159.29 1721.58 Z"
     fill="#000000"
     fill-rule="nonzero"
     fill-opacity="1"
     id="path199" />
  <path
     clip-path="url(#clip130)"
     d="M1197.07 1649.88 L1242.97 1649.88 L1242.97 1659.72 L1207.78 1659.72 L1207.78 1680.9 Q1210.33 1680.03 1212.87 1679.63 Q1215.42 1679.16 1217.97 1679.16 Q1232.43 1679.16 1240.88 1687.09 Q1249.33 1695.02 1249.33 1708.56 Q1249.33 1722.51 1240.65 1730.26 Q1231.97 1737.96 1216.17 1737.96 Q1210.73 1737.96 1205.06 1737.03 Q1199.45 1736.11 1193.43 1734.26 L1193.43 1722.51 Q1198.64 1725.34 1204.19 1726.73 Q1209.75 1728.12 1215.94 1728.12 Q1225.95 1728.12 1231.8 1722.85 Q1237.64 1717.59 1237.64 1708.56 Q1237.64 1699.53 1231.8 1694.27 Q1225.95 1689 1215.94 1689 Q1211.25 1689 1206.57 1690.04 Q1201.94 1691.08 1197.07 1693.28 L1197.07 1649.88 Z"
     fill="#000000"
     fill-rule="nonzero"
     fill-opacity="1"
     id="path201" />
  <path
     clip-path="url(#clip130)"
     d="M1584.67 1657.58 Q1575.64 1657.58 1571.07 1666.49 Q1566.56 1675.34 1566.56 1693.17 Q1566.56 1710.93 1571.07 1719.85 Q1575.64 1728.7 1584.67 1728.7 Q1593.76 1728.7 1598.27 1719.85 Q1602.84 1710.93 1602.84 1693.17 Q1602.84 1675.34 1598.27 1666.49 Q1593.76 1657.58 1584.67 1657.58 M1584.67 1648.32 Q1599.2 1648.32 1606.83 1659.83 Q1614.53 1671.29 1614.53 1693.17 Q1614.53 1714.98 1606.83 1726.5 Q1599.2 1737.96 1584.67 1737.96 Q1570.15 1737.96 1562.45 1726.5 Q1554.81 1714.98 1554.81 1693.17 Q1554.81 1671.29 1562.45 1659.83 Q1570.15 1648.32 1584.67 1648.32 Z"
     fill="#000000"
     fill-rule="nonzero"
     fill-opacity="1"
     id="path203" />
  <path
     clip-path="url(#clip130)"
     d="M1635.08 1721.58 L1647.29 1721.58 L1647.29 1736.28 L1635.08 1736.28 L1635.08 1721.58 Z"
     fill="#000000"
     fill-rule="nonzero"
     fill-opacity="1"
     id="path205" />
  <path
     clip-path="url(#clip130)"
     d="M1697.75 1657.58 Q1688.72 1657.58 1684.15 1666.49 Q1679.64 1675.34 1679.64 1693.17 Q1679.64 1710.93 1684.15 1719.85 Q1688.72 1728.7 1697.75 1728.7 Q1706.83 1728.7 1711.35 1719.85 Q1715.92 1710.93 1715.92 1693.17 Q1715.92 1675.34 1711.35 1666.49 Q1706.83 1657.58 1697.75 1657.58 M1697.75 1648.32 Q1712.27 1648.32 1719.91 1659.83 Q1727.61 1671.29 1727.61 1693.17 Q1727.61 1714.98 1719.91 1726.5 Q1712.27 1737.96 1697.75 1737.96 Q1683.22 1737.96 1675.53 1726.5 Q1667.89 1714.98 1667.89 1693.17 Q1667.89 1671.29 1675.53 1659.83 Q1683.22 1648.32 1697.75 1648.32 Z"
     fill="#000000"
     fill-rule="nonzero"
     fill-opacity="1"
     id="path207" />
  <path
     clip-path="url(#clip130)"
     d="M2110.23 1657.58 Q2101.2 1657.58 2096.63 1666.49 Q2092.12 1675.34 2092.12 1693.17 Q2092.12 1710.93 2096.63 1719.85 Q2101.2 1728.7 2110.23 1728.7 Q2119.31 1728.7 2123.83 1719.85 Q2128.4 1710.93 2128.4 1693.17 Q2128.4 1675.34 2123.83 1666.49 Q2119.31 1657.58 2110.23 1657.58 M2110.23 1648.32 Q2124.75 1648.32 2132.39 1659.83 Q2140.09 1671.29 2140.09 1693.17 Q2140.09 1714.98 2132.39 1726.5 Q2124.75 1737.96 2110.23 1737.96 Q2095.7 1737.96 2088.01 1726.5 Q2080.37 1714.98 2080.37 1693.17 Q2080.37 1671.29 2088.01 1659.83 Q2095.7 1648.32 2110.23 1648.32 Z"
     fill="#000000"
     fill-rule="nonzero"
     fill-opacity="1"
     id="path209" />
  <path
     clip-path="url(#clip130)"
     d="M2160.63 1721.58 L2172.84 1721.58 L2172.84 1736.28 L2160.63 1736.28 L2160.63 1721.58 Z"
     fill="#000000"
     fill-rule="nonzero"
     fill-opacity="1"
     id="path211" />
  <path
     clip-path="url(#clip130)"
     d="M2198.42 1649.88 L2244.31 1649.88 L2244.31 1659.72 L2209.13 1659.72 L2209.13 1680.9 Q2211.68 1680.03 2214.22 1679.63 Q2216.77 1679.16 2219.31 1679.16 Q2233.78 1679.16 2242.23 1687.09 Q2250.68 1695.02 2250.68 1708.56 Q2250.68 1722.51 2242 1730.26 Q2233.32 1737.96 2217.52 1737.96 Q2212.08 1737.96 2206.41 1737.03 Q2200.8 1736.11 2194.78 1734.26 L2194.78 1722.51 Q2199.99 1725.34 2205.54 1726.73 Q2211.1 1728.12 2217.29 1728.12 Q2227.3 1728.12 2233.15 1722.85 Q2238.99 1717.59 2238.99 1708.56 Q2238.99 1699.53 2233.15 1694.27 Q2227.3 1689 2217.29 1689 Q2212.6 1689 2207.91 1690.04 Q2203.28 1691.08 2198.42 1693.28 L2198.42 1649.88 Z"
     fill="#000000"
     fill-rule="nonzero"
     fill-opacity="1"
     id="path213" />
  <path
     clip-path="url(#clip130)"
     d="M2607.72 1726.44 L2626.82 1726.44 L2626.82 1660.53 L2606.04 1664.7 L2606.04 1654.05 L2626.7 1649.88 L2638.39 1649.88 L2638.39 1726.44 L2657.49 1726.44 L2657.49 1736.28 L2607.72 1736.28 L2607.72 1726.44 Z"
     fill="#000000"
     fill-rule="nonzero"
     fill-opacity="1"
     id="path215" />
  <path
     clip-path="url(#clip130)"
     d="M2681.1 1721.58 L2693.31 1721.58 L2693.31 1736.28 L2681.1 1736.28 L2681.1 1721.58 Z"
     fill="#000000"
     fill-rule="nonzero"
     fill-opacity="1"
     id="path217" />
  <path
     clip-path="url(#clip130)"
     d="M2743.77 1657.58 Q2734.75 1657.58 2730.17 1666.49 Q2725.66 1675.34 2725.66 1693.17 Q2725.66 1710.93 2730.17 1719.85 Q2734.75 1728.7 2743.77 1728.7 Q2752.86 1728.7 2757.37 1719.85 Q2761.94 1710.93 2761.94 1693.17 Q2761.94 1675.34 2757.37 1666.49 Q2752.86 1657.58 2743.77 1657.58 M2743.77 1648.32 Q2758.3 1648.32 2765.94 1659.83 Q2773.63 1671.29 2773.63 1693.17 Q2773.63 1714.98 2765.94 1726.5 Q2758.3 1737.96 2743.77 1737.96 Q2729.25 1737.96 2721.55 1726.5 Q2713.91 1714.98 2713.91 1693.17 Q2713.91 1671.29 2721.55 1659.83 Q2729.25 1648.32 2743.77 1648.32 Z"
     fill="#000000"
     fill-rule="nonzero"
     fill-opacity="1"
     id="path219" />
  <path
     clip-path="url(#clip130)"
     d="M1671.42 1816.35 L1647.98 1847.89 L1672.63 1881.16 L1660.08 1881.16 L1641.21 1855.7 L1622.34 1881.16 L1609.79 1881.16 L1634.96 1847.25 L1611.93 1816.35 L1624.49 1816.35 L1641.67 1839.44 L1658.86 1816.35 L1671.42 1816.35 Z"
     fill="#000000"
     fill-rule="nonzero"
     fill-opacity="1"
     id="path221" />
  <polyline
     clip-path="url(#clip130)"
     style="stroke:#000000; stroke-linecap:round; stroke-linejoin:round; stroke-width:4; stroke-opacity:1; fill:none"
     points="529.663,1605.88 529.663,127.792 "
     id="polyline223" />
  <polyline
     clip-path="url(#clip130)"
     style="stroke:#000000; stroke-linecap:round; stroke-linejoin:round; stroke-width:4; stroke-opacity:1; fill:none"
     points="529.663,1425.85 548.561,1425.85 "
     id="polyline225" />
  <polyline
     clip-path="url(#clip130)"
     style="stroke:#000000; stroke-linecap:round; stroke-linejoin:round; stroke-width:4; stroke-opacity:1; fill:none"
     points="529.663,1239.51 548.561,1239.51 "
     id="polyline227" />
  <polyline
     clip-path="url(#clip130)"
     style="stroke:#000000; stroke-linecap:round; stroke-linejoin:round; stroke-width:4; stroke-opacity:1; fill:none"
     points="529.663,1053.17 548.561,1053.17 "
     id="polyline229" />
  <polyline
     clip-path="url(#clip130)"
     style="stroke:#000000; stroke-linecap:round; stroke-linejoin:round; stroke-width:4; stroke-opacity:1; fill:none"
     points="529.663,866.836 548.561,866.836 "
     id="polyline231" />
  <polyline
     clip-path="url(#clip130)"
     style="stroke:#000000; stroke-linecap:round; stroke-linejoin:round; stroke-width:4; stroke-opacity:1; fill:none"
     points="529.663,680.499 548.561,680.499 "
     id="polyline233" />
  <polyline
     clip-path="url(#clip130)"
     style="stroke:#000000; stroke-linecap:round; stroke-linejoin:round; stroke-width:4; stroke-opacity:1; fill:none"
     points="529.663,494.161 548.561,494.161 "
     id="polyline235" />
  <polyline
     clip-path="url(#clip130)"
     style="stroke:#000000; stroke-linecap:round; stroke-linejoin:round; stroke-width:4; stroke-opacity:1; fill:none"
     points="529.663,307.824 548.561,307.824 "
     id="polyline237" />
  <path
     clip-path="url(#clip130)"
     d="M222.792 1426.98 L296.982 1426.98 L296.982 1436.82 L222.792 1436.82 L222.792 1426.98 Z"
     fill="#000000"
     fill-rule="nonzero"
     fill-opacity="1"
     id="path239" />
  <path
     clip-path="url(#clip130)"
     d="M324.238 1459.21 L343.335 1459.21 L343.335 1393.3 L322.56 1397.46 L322.56 1386.82 L343.22 1382.65 L354.909 1382.65 L354.909 1459.21 L374.007 1459.21 L374.007 1469.05 L324.238 1469.05 L324.238 1459.21 Z"
     fill="#000000"
     fill-rule="nonzero"
     fill-opacity="1"
     id="path241" />
  <path
     clip-path="url(#clip130)"
     d="M397.618 1454.35 L409.828 1454.35 L409.828 1469.05 L397.618 1469.05 L397.618 1454.35 Z"
     fill="#000000"
     fill-rule="nonzero"
     fill-opacity="1"
     id="path243" />
  <path
     clip-path="url(#clip130)"
     d="M435.407 1382.65 L481.298 1382.65 L481.298 1392.49 L446.113 1392.49 L446.113 1413.67 Q448.659 1412.8 451.205 1412.39 Q453.752 1411.93 456.298 1411.93 Q470.765 1411.93 479.214 1419.86 Q487.663 1427.79 487.663 1441.33 Q487.663 1455.28 478.983 1463.03 Q470.302 1470.73 454.504 1470.73 Q449.064 1470.73 443.393 1469.8 Q437.779 1468.88 431.761 1467.02 L431.761 1455.28 Q436.969 1458.11 442.525 1459.5 Q448.08 1460.89 454.272 1460.89 Q464.284 1460.89 470.129 1455.62 Q475.974 1450.36 475.974 1441.33 Q475.974 1432.3 470.129 1427.04 Q464.284 1421.77 454.272 1421.77 Q449.585 1421.77 444.897 1422.81 Q440.268 1423.85 435.407 1426.05 L435.407 1382.65 Z"
     fill="#000000"
     fill-rule="nonzero"
     fill-opacity="1"
     id="path245" />
  <path
     clip-path="url(#clip130)"
     d="M220.304 1240.64 L294.493 1240.64 L294.493 1250.48 L220.304 1250.48 L220.304 1240.64 Z"
     fill="#000000"
     fill-rule="nonzero"
     fill-opacity="1"
     id="path247" />
  <path
     clip-path="url(#clip130)"
     d="M321.75 1272.87 L340.847 1272.87 L340.847 1206.96 L320.072 1211.13 L320.072 1200.48 L340.731 1196.31 L352.421 1196.31 L352.421 1272.87 L371.518 1272.87 L371.518 1282.71 L321.75 1282.71 L321.75 1272.87 Z"
     fill="#000000"
     fill-rule="nonzero"
     fill-opacity="1"
     id="path249" />
  <path
     clip-path="url(#clip130)"
     d="M395.129 1268.01 L407.34 1268.01 L407.34 1282.71 L395.129 1282.71 L395.129 1268.01 Z"
     fill="#000000"
     fill-rule="nonzero"
     fill-opacity="1"
     id="path251" />
  <path
     clip-path="url(#clip130)"
     d="M457.802 1204.01 Q448.775 1204.01 444.203 1212.92 Q439.689 1221.77 439.689 1239.6 Q439.689 1257.36 444.203 1266.28 Q448.775 1275.13 457.802 1275.13 Q466.888 1275.13 471.402 1266.28 Q475.974 1257.36 475.974 1239.6 Q475.974 1221.77 471.402 1212.92 Q466.888 1204.01 457.802 1204.01 M457.802 1194.75 Q472.328 1194.75 479.967 1206.27 Q487.663 1217.72 487.663 1239.6 Q487.663 1261.42 479.967 1272.93 Q472.328 1284.39 457.802 1284.39 Q443.277 1284.39 435.58 1272.93 Q427.941 1261.42 427.941 1239.6 Q427.941 1217.72 435.58 1206.27 Q443.277 1194.75 457.802 1194.75 Z"
     fill="#000000"
     fill-rule="nonzero"
     fill-opacity="1"
     id="path253" />
  <path
     clip-path="url(#clip130)"
     d="M222.792 1054.3 L296.982 1054.3 L296.982 1064.14 L222.792 1064.14 L222.792 1054.3 Z"
     fill="#000000"
     fill-rule="nonzero"
     fill-opacity="1"
     id="path255" />
  <path
     clip-path="url(#clip130)"
     d="M347.213 1017.67 Q338.185 1017.67 333.613 1026.58 Q329.099 1035.44 329.099 1053.26 Q329.099 1071.03 333.613 1079.94 Q338.185 1088.79 347.213 1088.79 Q356.298 1088.79 360.812 1079.94 Q365.384 1071.03 365.384 1053.26 Q365.384 1035.44 360.812 1026.58 Q356.298 1017.67 347.213 1017.67 M347.213 1008.41 Q361.738 1008.41 369.377 1019.93 Q377.074 1031.39 377.074 1053.26 Q377.074 1075.08 369.377 1086.59 Q361.738 1098.05 347.213 1098.05 Q332.687 1098.05 324.991 1086.59 Q317.352 1075.08 317.352 1053.26 Q317.352 1031.39 324.991 1019.93 Q332.687 1008.41 347.213 1008.41 Z"
     fill="#000000"
     fill-rule="nonzero"
     fill-opacity="1"
     id="path257" />
  <path
     clip-path="url(#clip130)"
     d="M397.618 1081.68 L409.828 1081.68 L409.828 1096.37 L397.618 1096.37 L397.618 1081.68 Z"
     fill="#000000"
     fill-rule="nonzero"
     fill-opacity="1"
     id="path259" />
  <path
     clip-path="url(#clip130)"
     d="M435.407 1009.97 L481.298 1009.97 L481.298 1019.81 L446.113 1019.81 L446.113 1040.99 Q448.659 1040.12 451.205 1039.72 Q453.752 1039.26 456.298 1039.26 Q470.765 1039.26 479.214 1047.18 Q487.663 1055.11 487.663 1068.65 Q487.663 1082.6 478.983 1090.36 Q470.302 1098.05 454.504 1098.05 Q449.064 1098.05 443.393 1097.13 Q437.779 1096.2 431.761 1094.35 L431.761 1082.6 Q436.969 1085.44 442.525 1086.83 Q448.08 1088.21 454.272 1088.21 Q464.284 1088.21 470.129 1082.95 Q475.974 1077.68 475.974 1068.65 Q475.974 1059.63 470.129 1054.36 Q464.284 1049.09 454.272 1049.09 Q449.585 1049.09 444.897 1050.14 Q440.268 1051.18 435.407 1053.38 L435.407 1009.97 Z"
     fill="#000000"
     fill-rule="nonzero"
     fill-opacity="1"
     id="path261" />
  <path
     clip-path="url(#clip130)"
     d="M344.724 831.333 Q335.697 831.333 331.125 840.245 Q326.611 849.099 326.611 866.923 Q326.611 884.689 331.125 893.601 Q335.697 902.455 344.724 902.455 Q353.81 902.455 358.324 893.601 Q362.896 884.689 362.896 866.923 Q362.896 849.099 358.324 840.245 Q353.81 831.333 344.724 831.333 M344.724 822.074 Q359.25 822.074 366.889 833.59 Q374.585 845.048 374.585 866.923 Q374.585 888.74 366.889 900.256 Q359.25 911.715 344.724 911.715 Q330.199 911.715 322.502 900.256 Q314.863 888.74 314.863 866.923 Q314.863 845.048 322.502 833.59 Q330.199 822.074 344.724 822.074 Z"
     fill="#000000"
     fill-rule="nonzero"
     fill-opacity="1"
     id="path263" />
  <path
     clip-path="url(#clip130)"
     d="M395.129 895.337 L407.34 895.337 L407.34 910.036 L395.129 910.036 L395.129 895.337 Z"
     fill="#000000"
     fill-rule="nonzero"
     fill-opacity="1"
     id="path265" />
  <path
     clip-path="url(#clip130)"
     d="M457.802 831.333 Q448.775 831.333 444.203 840.245 Q439.689 849.099 439.689 866.923 Q439.689 884.689 444.203 893.601 Q448.775 902.455 457.802 902.455 Q466.888 902.455 471.402 893.601 Q475.974 884.689 475.974 866.923 Q475.974 849.099 471.402 840.245 Q466.888 831.333 457.802 831.333 M457.802 822.074 Q472.328 822.074 479.967 833.59 Q487.663 845.048 487.663 866.923 Q487.663 888.74 479.967 900.256 Q472.328 911.715 457.802 911.715 Q443.277 911.715 435.58 900.256 Q427.941 888.74 427.941 866.923 Q427.941 845.048 435.58 833.59 Q443.277 822.074 457.802 822.074 Z"
     fill="#000000"
     fill-rule="nonzero"
     fill-opacity="1"
     id="path267" />
  <path
     clip-path="url(#clip130)"
     d="M347.213 644.996 Q338.185 644.996 333.613 653.908 Q329.099 662.762 329.099 680.586 Q329.099 698.352 333.613 707.264 Q338.185 716.118 347.213 716.118 Q356.298 716.118 360.812 707.264 Q365.384 698.352 365.384 680.586 Q365.384 662.762 360.812 653.908 Q356.298 644.996 347.213 644.996 M347.213 635.736 Q361.738 635.736 369.377 647.252 Q377.074 658.711 377.074 680.586 Q377.074 702.403 369.377 713.919 Q361.738 725.377 347.213 725.377 Q332.687 725.377 324.991 713.919 Q317.352 702.403 317.352 680.586 Q317.352 658.711 324.991 647.252 Q332.687 635.736 347.213 635.736 Z"
     fill="#000000"
     fill-rule="nonzero"
     fill-opacity="1"
     id="path269" />
  <path
     clip-path="url(#clip130)"
     d="M397.618 709 L409.828 709 L409.828 723.699 L397.618 723.699 L397.618 709 Z"
     fill="#000000"
     fill-rule="nonzero"
     fill-opacity="1"
     id="path271" />
  <path
     clip-path="url(#clip130)"
     d="M435.407 637.299 L481.298 637.299 L481.298 647.137 L446.113 647.137 L446.113 668.317 Q448.659 667.449 451.205 667.044 Q453.752 666.581 456.298 666.581 Q470.765 666.581 479.214 674.509 Q487.663 682.437 487.663 695.979 Q487.663 709.926 478.983 717.68 Q470.302 725.377 454.504 725.377 Q449.064 725.377 443.393 724.451 Q437.779 723.525 431.761 721.673 L431.761 709.926 Q436.969 712.761 442.525 714.15 Q448.08 715.539 454.272 715.539 Q464.284 715.539 470.129 710.273 Q475.974 705.007 475.974 695.979 Q475.974 686.951 470.129 681.685 Q464.284 676.419 454.272 676.419 Q449.585 676.419 444.897 677.461 Q440.268 678.502 435.407 680.701 L435.407 637.299 Z"
     fill="#000000"
     fill-rule="nonzero"
     fill-opacity="1"
     id="path273" />
  <path
     clip-path="url(#clip130)"
     d="M321.75 527.523 L340.847 527.523 L340.847 461.609 L320.072 465.776 L320.072 455.128 L340.731 450.961 L352.421 450.961 L352.421 527.523 L371.518 527.523 L371.518 537.361 L321.75 537.361 L321.75 527.523 Z"
     fill="#000000"
     fill-rule="nonzero"
     fill-opacity="1"
     id="path275" />
  <path
     clip-path="url(#clip130)"
     d="M395.129 522.662 L407.34 522.662 L407.34 537.361 L395.129 537.361 L395.129 522.662 Z"
     fill="#000000"
     fill-rule="nonzero"
     fill-opacity="1"
     id="path277" />
  <path
     clip-path="url(#clip130)"
     d="M457.802 458.658 Q448.775 458.658 444.203 467.57 Q439.689 476.424 439.689 494.248 Q439.689 512.014 444.203 520.926 Q448.775 529.78 457.802 529.78 Q466.888 529.78 471.402 520.926 Q475.974 512.014 475.974 494.248 Q475.974 476.424 471.402 467.57 Q466.888 458.658 457.802 458.658 M457.802 449.399 Q472.328 449.399 479.967 460.915 Q487.663 472.373 487.663 494.248 Q487.663 516.065 479.967 527.581 Q472.328 539.039 457.802 539.039 Q443.277 539.039 435.58 527.581 Q427.941 516.065 427.941 494.248 Q427.941 472.373 435.58 460.915 Q443.277 449.399 457.802 449.399 Z"
     fill="#000000"
     fill-rule="nonzero"
     fill-opacity="1"
     id="path279" />
  <path
     clip-path="url(#clip130)"
     d="M324.238 341.186 L343.335 341.186 L343.335 275.272 L322.56 279.438 L322.56 268.79 L343.22 264.624 L354.909 264.624 L354.909 341.186 L374.007 341.186 L374.007 351.024 L324.238 351.024 L324.238 341.186 Z"
     fill="#000000"
     fill-rule="nonzero"
     fill-opacity="1"
     id="path281" />
  <path
     clip-path="url(#clip130)"
     d="M397.618 336.325 L409.828 336.325 L409.828 351.024 L397.618 351.024 L397.618 336.325 Z"
     fill="#000000"
     fill-rule="nonzero"
     fill-opacity="1"
     id="path283" />
  <path
     clip-path="url(#clip130)"
     d="M435.407 264.624 L481.298 264.624 L481.298 274.461 L446.113 274.461 L446.113 295.642 Q448.659 294.774 451.205 294.369 Q453.752 293.906 456.298 293.906 Q470.765 293.906 479.214 301.834 Q487.663 309.762 487.663 323.304 Q487.663 337.25 478.983 345.005 Q470.302 352.702 454.504 352.702 Q449.064 352.702 443.393 351.776 Q437.779 350.85 431.761 348.998 L431.761 337.25 Q436.969 340.086 442.525 341.475 Q448.08 342.864 454.272 342.864 Q464.284 342.864 470.129 337.598 Q475.974 332.331 475.974 323.304 Q475.974 314.276 470.129 309.01 Q464.284 303.744 454.272 303.744 Q449.585 303.744 444.897 304.785 Q440.268 305.827 435.407 308.026 L435.407 264.624 Z"
     fill="#000000"
     fill-rule="nonzero"
     fill-opacity="1"
     id="path285" />
  <path
     clip-path="url(#clip130)"
     d="M158.402 863.769 Q169.976 868.283 173.506 872.566 Q177.036 876.848 177.036 884.024 L177.036 892.531 L168.124 892.531 L168.124 886.281 Q168.124 881.883 166.041 879.452 Q163.958 877.022 156.203 874.07 L151.342 872.16 L87.5692 898.376 L87.5692 887.091 L138.263 866.836 L87.5692 846.582 L87.5692 835.297 L158.402 863.769 Z"
     fill="#000000"
     fill-rule="nonzero"
     fill-opacity="1"
     id="path287" />
  <path
     clip-path="url(#clip130)"
     d="M1079.57 12.096 L1087.75 12.096 L1087.75 65.6895 L1117.2 65.6895 L1117.2 72.576 L1079.57 72.576 L1079.57 12.096 Z"
     fill="#000000"
     fill-rule="nonzero"
     fill-opacity="1"
     id="path289" />
  <path
     clip-path="url(#clip130)"
     d="M1162.82 48.0275 L1162.82 51.6733 L1128.55 51.6733 Q1129.03 59.3701 1133.17 63.421 Q1137.34 67.4314 1144.75 67.4314 Q1149.05 67.4314 1153.06 66.3781 Q1157.11 65.3249 1161.08 63.2184 L1161.08 70.267 Q1157.07 71.9684 1152.85 72.8596 Q1148.64 73.7508 1144.31 73.7508 Q1133.45 73.7508 1127.09 67.4314 Q1120.77 61.1119 1120.77 50.3365 Q1120.77 39.1965 1126.77 32.6746 Q1132.8 26.1121 1143.01 26.1121 Q1152.16 26.1121 1157.47 32.0264 Q1162.82 37.9003 1162.82 48.0275 M1155.36 45.84 Q1155.28 39.7232 1151.92 36.0774 Q1148.6 32.4315 1143.09 32.4315 Q1136.85 32.4315 1133.08 35.9558 Q1129.36 39.4801 1128.79 45.8805 L1155.36 45.84 Z"
     fill="#000000"
     fill-rule="nonzero"
     fill-opacity="1"
     id="path291" />
  <path
     clip-path="url(#clip130)"
     d="M1204.91 49.3643 Q1204.91 41.2625 1201.54 36.8065 Q1198.22 32.3505 1192.19 32.3505 Q1186.19 32.3505 1182.83 36.8065 Q1179.51 41.2625 1179.51 49.3643 Q1179.51 57.4256 1182.83 61.8816 Q1186.19 66.3376 1192.19 66.3376 Q1198.22 66.3376 1201.54 61.8816 Q1204.91 57.4256 1204.91 49.3643 M1212.36 66.9452 Q1212.36 78.5308 1207.22 84.1616 Q1202.07 89.8329 1191.46 89.8329 Q1187.53 89.8329 1184.04 89.2252 Q1180.56 88.6581 1177.28 87.4428 L1177.28 80.1917 Q1180.56 81.9741 1183.76 82.8248 Q1186.96 83.6755 1190.28 83.6755 Q1197.62 83.6755 1201.26 79.8271 Q1204.91 76.0193 1204.91 68.282 L1204.91 64.5957 Q1202.6 68.6061 1198.99 70.5911 Q1195.39 72.576 1190.36 72.576 Q1182.02 72.576 1176.92 66.2161 Q1171.81 59.8562 1171.81 49.3643 Q1171.81 38.832 1176.92 32.472 Q1182.02 26.1121 1190.36 26.1121 Q1195.39 26.1121 1198.99 28.0971 Q1202.6 30.082 1204.91 34.0924 L1204.91 27.2059 L1212.36 27.2059 L1212.36 66.9452 Z"
     fill="#000000"
     fill-rule="nonzero"
     fill-opacity="1"
     id="path293" />
  <path
     clip-path="url(#clip130)"
     d="M1266.52 48.0275 L1266.52 51.6733 L1232.25 51.6733 Q1232.74 59.3701 1236.87 63.421 Q1241.04 67.4314 1248.45 67.4314 Q1252.75 67.4314 1256.76 66.3781 Q1260.81 65.3249 1264.78 63.2184 L1264.78 70.267 Q1260.77 71.9684 1256.56 72.8596 Q1252.34 73.7508 1248.01 73.7508 Q1237.15 73.7508 1230.79 67.4314 Q1224.47 61.1119 1224.47 50.3365 Q1224.47 39.1965 1230.47 32.6746 Q1236.5 26.1121 1246.71 26.1121 Q1255.87 26.1121 1261.17 32.0264 Q1266.52 37.9003 1266.52 48.0275 M1259.07 45.84 Q1258.99 39.7232 1255.62 36.0774 Q1252.3 32.4315 1246.79 32.4315 Q1240.55 32.4315 1236.79 35.9558 Q1233.06 39.4801 1232.49 45.8805 L1259.07 45.84 Z"
     fill="#000000"
     fill-rule="nonzero"
     fill-opacity="1"
     id="path295" />
  <path
     clip-path="url(#clip130)"
     d="M1316.47 45.1919 L1316.47 72.576 L1309.02 72.576 L1309.02 45.4349 Q1309.02 38.994 1306.5 35.7938 Q1303.99 32.5936 1298.97 32.5936 Q1292.93 32.5936 1289.45 36.4419 Q1285.97 40.2903 1285.97 46.9338 L1285.97 72.576 L1278.47 72.576 L1278.47 27.2059 L1285.97 27.2059 L1285.97 34.2544 Q1288.64 30.163 1292.24 28.1376 Q1295.89 26.1121 1300.63 26.1121 Q1308.45 26.1121 1312.46 30.9732 Q1316.47 35.7938 1316.47 45.1919 Z"
     fill="#000000"
     fill-rule="nonzero"
     fill-opacity="1"
     id="path297" />
  <path
     clip-path="url(#clip130)"
     d="M1361.19 34.0924 L1361.19 9.54393 L1368.64 9.54393 L1368.64 72.576 L1361.19 72.576 L1361.19 65.7705 Q1358.84 69.8214 1355.24 71.8063 Q1351.67 73.7508 1346.65 73.7508 Q1338.42 73.7508 1333.24 67.1883 Q1328.1 60.6258 1328.1 49.9314 Q1328.1 39.2371 1333.24 32.6746 Q1338.42 26.1121 1346.65 26.1121 Q1351.67 26.1121 1355.24 28.0971 Q1358.84 30.0415 1361.19 34.0924 M1335.79 49.9314 Q1335.79 58.1548 1339.15 62.8538 Q1342.56 67.5124 1348.47 67.5124 Q1354.39 67.5124 1357.79 62.8538 Q1361.19 58.1548 1361.19 49.9314 Q1361.19 41.7081 1357.79 37.0496 Q1354.39 32.3505 1348.47 32.3505 Q1342.56 32.3505 1339.15 37.0496 Q1335.79 41.7081 1335.79 49.9314 Z"
     fill="#000000"
     fill-rule="nonzero"
     fill-opacity="1"
     id="path299" />
  <path
     clip-path="url(#clip130)"
     d="M1410.29 34.1734 Q1409.03 33.4443 1407.53 33.1202 Q1406.07 32.7556 1404.29 32.7556 Q1397.97 32.7556 1394.57 36.8875 Q1391.21 40.9789 1391.21 48.6757 L1391.21 72.576 L1383.71 72.576 L1383.71 27.2059 L1391.21 27.2059 L1391.21 34.2544 Q1393.56 30.1225 1397.32 28.1376 Q1401.09 26.1121 1406.48 26.1121 Q1407.25 26.1121 1408.18 26.2337 Q1409.11 26.3147 1410.25 26.5172 L1410.29 34.1734 Z"
     fill="#000000"
     fill-rule="nonzero"
     fill-opacity="1"
     id="path301" />
  <path
     clip-path="url(#clip130)"
     d="M1455.09 48.0275 L1455.09 51.6733 L1420.82 51.6733 Q1421.31 59.3701 1425.44 63.421 Q1429.61 67.4314 1437.02 67.4314 Q1441.32 67.4314 1445.33 66.3781 Q1449.38 65.3249 1453.35 63.2184 L1453.35 70.267 Q1449.34 71.9684 1445.13 72.8596 Q1440.91 73.7508 1436.58 73.7508 Q1425.72 73.7508 1419.36 67.4314 Q1413.04 61.1119 1413.04 50.3365 Q1413.04 39.1965 1419.04 32.6746 Q1425.07 26.1121 1435.28 26.1121 Q1444.44 26.1121 1449.74 32.0264 Q1455.09 37.9003 1455.09 48.0275 M1447.64 45.84 Q1447.56 39.7232 1444.19 36.0774 Q1440.87 32.4315 1435.36 32.4315 Q1429.12 32.4315 1425.36 35.9558 Q1421.63 39.4801 1421.06 45.8805 L1447.64 45.84 Z"
     fill="#000000"
     fill-rule="nonzero"
     fill-opacity="1"
     id="path303" />
  <path
     clip-path="url(#clip130)"
     d="M1532.5 48.0275 L1532.5 51.6733 L1498.23 51.6733 Q1498.72 59.3701 1502.85 63.421 Q1507.02 67.4314 1514.44 67.4314 Q1518.73 67.4314 1522.74 66.3781 Q1526.79 65.3249 1530.76 63.2184 L1530.76 70.267 Q1526.75 71.9684 1522.54 72.8596 Q1518.33 73.7508 1513.99 73.7508 Q1503.13 73.7508 1496.77 67.4314 Q1490.46 61.1119 1490.46 50.3365 Q1490.46 39.1965 1496.45 32.6746 Q1502.49 26.1121 1512.69 26.1121 Q1521.85 26.1121 1527.16 32.0264 Q1532.5 37.9003 1532.5 48.0275 M1525.05 45.84 Q1524.97 39.7232 1521.61 36.0774 Q1518.28 32.4315 1512.78 32.4315 Q1506.54 32.4315 1502.77 35.9558 Q1499.04 39.4801 1498.48 45.8805 L1525.05 45.84 Z"
     fill="#000000"
     fill-rule="nonzero"
     fill-opacity="1"
     id="path305" />
  <path
     clip-path="url(#clip130)"
     d="M1582.45 45.1919 L1582.45 72.576 L1575 72.576 L1575 45.4349 Q1575 38.994 1572.49 35.7938 Q1569.97 32.5936 1564.95 32.5936 Q1558.92 32.5936 1555.43 36.4419 Q1551.95 40.2903 1551.95 46.9338 L1551.95 72.576 L1544.45 72.576 L1544.45 27.2059 L1551.95 27.2059 L1551.95 34.2544 Q1554.62 30.163 1558.23 28.1376 Q1561.87 26.1121 1566.61 26.1121 Q1574.43 26.1121 1578.44 30.9732 Q1582.45 35.7938 1582.45 45.1919 Z"
     fill="#000000"
     fill-rule="nonzero"
     fill-opacity="1"
     id="path307" />
  <path
     clip-path="url(#clip130)"
     d="M1629.97 28.9478 L1629.97 35.9153 Q1626.81 34.1734 1623.61 33.3227 Q1620.45 32.4315 1617.21 32.4315 Q1609.96 32.4315 1605.95 37.0496 Q1601.94 41.6271 1601.94 49.9314 Q1601.94 58.2358 1605.95 62.8538 Q1609.96 67.4314 1617.21 67.4314 Q1620.45 67.4314 1623.61 66.5807 Q1626.81 65.6895 1629.97 63.9476 L1629.97 70.8341 Q1626.85 72.2924 1623.49 73.0216 Q1620.17 73.7508 1616.4 73.7508 Q1606.15 73.7508 1600.11 67.3098 Q1594.08 60.8689 1594.08 49.9314 Q1594.08 38.832 1600.15 32.472 Q1606.27 26.1121 1616.88 26.1121 Q1620.33 26.1121 1623.61 26.8413 Q1626.89 27.5299 1629.97 28.9478 Z"
     fill="#000000"
     fill-rule="nonzero"
     fill-opacity="1"
     id="path309" />
  <path
     clip-path="url(#clip130)"
     d="M1660.51 32.4315 Q1654.52 32.4315 1651.03 37.1306 Q1647.55 41.7891 1647.55 49.9314 Q1647.55 58.0738 1650.99 62.7728 Q1654.48 67.4314 1660.51 67.4314 Q1666.47 67.4314 1669.95 62.7323 Q1673.43 58.0333 1673.43 49.9314 Q1673.43 41.8701 1669.95 37.1711 Q1666.47 32.4315 1660.51 32.4315 M1660.51 26.1121 Q1670.23 26.1121 1675.78 32.4315 Q1681.33 38.7509 1681.33 49.9314 Q1681.33 61.0714 1675.78 67.4314 Q1670.23 73.7508 1660.51 73.7508 Q1650.75 73.7508 1645.2 67.4314 Q1639.69 61.0714 1639.69 49.9314 Q1639.69 38.7509 1645.2 32.4315 Q1650.75 26.1121 1660.51 26.1121 Z"
     fill="#000000"
     fill-rule="nonzero"
     fill-opacity="1"
     id="path311" />
  <path
     clip-path="url(#clip130)"
     d="M1723.54 34.0924 L1723.54 9.54393 L1731 9.54393 L1731 72.576 L1723.54 72.576 L1723.54 65.7705 Q1721.19 69.8214 1717.59 71.8063 Q1714.02 73.7508 1709 73.7508 Q1700.78 73.7508 1695.59 67.1883 Q1690.45 60.6258 1690.45 49.9314 Q1690.45 39.2371 1695.59 32.6746 Q1700.78 26.1121 1709 26.1121 Q1714.02 26.1121 1717.59 28.0971 Q1721.19 30.0415 1723.54 34.0924 M1698.15 49.9314 Q1698.15 58.1548 1701.51 62.8538 Q1704.91 67.5124 1710.82 67.5124 Q1716.74 67.5124 1720.14 62.8538 Q1723.54 58.1548 1723.54 49.9314 Q1723.54 41.7081 1720.14 37.0496 Q1716.74 32.3505 1710.82 32.3505 Q1704.91 32.3505 1701.51 37.0496 Q1698.15 41.7081 1698.15 49.9314 Z"
     fill="#000000"
     fill-rule="nonzero"
     fill-opacity="1"
     id="path313" />
  <path
     clip-path="url(#clip130)"
     d="M1746.35 27.2059 L1753.8 27.2059 L1753.8 72.576 L1746.35 72.576 L1746.35 27.2059 M1746.35 9.54393 L1753.8 9.54393 L1753.8 18.9825 L1746.35 18.9825 L1746.35 9.54393 Z"
     fill="#000000"
     fill-rule="nonzero"
     fill-opacity="1"
     id="path315" />
  <path
     clip-path="url(#clip130)"
     d="M1807.11 45.1919 L1807.11 72.576 L1799.66 72.576 L1799.66 45.4349 Q1799.66 38.994 1797.15 35.7938 Q1794.64 32.5936 1789.61 32.5936 Q1783.58 32.5936 1780.09 36.4419 Q1776.61 40.2903 1776.61 46.9338 L1776.61 72.576 L1769.12 72.576 L1769.12 27.2059 L1776.61 27.2059 L1776.61 34.2544 Q1779.28 30.163 1782.89 28.1376 Q1786.54 26.1121 1791.28 26.1121 Q1799.09 26.1121 1803.1 30.9732 Q1807.11 35.7938 1807.11 45.1919 Z"
     fill="#000000"
     fill-rule="nonzero"
     fill-opacity="1"
     id="path317" />
  <path
     clip-path="url(#clip130)"
     d="M1851.84 49.3643 Q1851.84 41.2625 1848.47 36.8065 Q1845.15 32.3505 1839.12 32.3505 Q1833.12 32.3505 1829.76 36.8065 Q1826.44 41.2625 1826.44 49.3643 Q1826.44 57.4256 1829.76 61.8816 Q1833.12 66.3376 1839.12 66.3376 Q1845.15 66.3376 1848.47 61.8816 Q1851.84 57.4256 1851.84 49.3643 M1859.29 66.9452 Q1859.29 78.5308 1854.15 84.1616 Q1849 89.8329 1838.39 89.8329 Q1834.46 89.8329 1830.97 89.2252 Q1827.49 88.6581 1824.21 87.4428 L1824.21 80.1917 Q1827.49 81.9741 1830.69 82.8248 Q1833.89 83.6755 1837.21 83.6755 Q1844.54 83.6755 1848.19 79.8271 Q1851.84 76.0193 1851.84 68.282 L1851.84 64.5957 Q1849.53 68.6061 1845.92 70.5911 Q1842.32 72.576 1837.29 72.576 Q1828.95 72.576 1823.84 66.2161 Q1818.74 59.8562 1818.74 49.3643 Q1818.74 38.832 1823.84 32.472 Q1828.95 26.1121 1837.29 26.1121 Q1842.32 26.1121 1845.92 28.0971 Q1849.53 30.082 1851.84 34.0924 L1851.84 27.2059 L1859.29 27.2059 L1859.29 66.9452 Z"
     fill="#000000"
     fill-rule="nonzero"
     fill-opacity="1"
     id="path319" />
  <path
     clip-path="url(#clip130)"
     d="M1921.63 49.7694 Q1912.6 49.7694 1909.12 51.8354 Q1905.63 53.9013 1905.63 58.8839 Q1905.63 62.8538 1908.22 65.2034 Q1910.86 67.5124 1915.35 67.5124 Q1921.55 67.5124 1925.28 63.1374 Q1929.05 58.7219 1929.05 51.4303 L1929.05 49.7694 L1921.63 49.7694 M1936.5 46.6907 L1936.5 72.576 L1929.05 72.576 L1929.05 65.6895 Q1926.49 69.8214 1922.69 71.8063 Q1918.88 73.7508 1913.37 73.7508 Q1906.4 73.7508 1902.27 69.8619 Q1898.18 65.9325 1898.18 59.3701 Q1898.18 51.7138 1903.28 47.825 Q1908.43 43.9361 1918.6 43.9361 L1929.05 43.9361 L1929.05 43.2069 Q1929.05 38.0623 1925.64 35.2672 Q1922.28 32.4315 1916.16 32.4315 Q1912.28 32.4315 1908.59 33.3632 Q1904.9 34.295 1901.5 36.1584 L1901.5 29.2718 Q1905.59 27.692 1909.44 26.9223 Q1913.29 26.1121 1916.93 26.1121 Q1926.78 26.1121 1931.64 31.2163 Q1936.5 36.3204 1936.5 46.6907 Z"
     fill="#000000"
     fill-rule="nonzero"
     fill-opacity="1"
     id="path321" />
  <path
     clip-path="url(#clip130)"
     d="M1959.23 14.324 L1959.23 27.2059 L1974.58 27.2059 L1974.58 32.9987 L1959.23 32.9987 L1959.23 57.6282 Q1959.23 63.1779 1960.72 64.7578 Q1962.26 66.3376 1966.92 66.3376 L1974.58 66.3376 L1974.58 72.576 L1966.92 72.576 Q1958.29 72.576 1955.01 69.3758 Q1951.73 66.1351 1951.73 57.6282 L1951.73 32.9987 L1946.26 32.9987 L1946.26 27.2059 L1951.73 27.2059 L1951.73 14.324 L1959.23 14.324 Z"
     fill="#000000"
     fill-rule="nonzero"
     fill-opacity="1"
     id="path323" />
  <path
     clip-path="url(#clip130)"
     d="M2018.13 14.324 L2018.13 27.2059 L2033.48 27.2059 L2033.48 32.9987 L2018.13 32.9987 L2018.13 57.6282 Q2018.13 63.1779 2019.62 64.7578 Q2021.16 66.3376 2025.82 66.3376 L2033.48 66.3376 L2033.48 72.576 L2025.82 72.576 Q2017.19 72.576 2013.91 69.3758 Q2010.63 66.1351 2010.63 57.6282 L2010.63 32.9987 L2005.16 32.9987 L2005.16 27.2059 L2010.63 27.2059 L2010.63 14.324 L2018.13 14.324 Z"
     fill="#000000"
     fill-rule="nonzero"
     fill-opacity="1"
     id="path325" />
  <path
     clip-path="url(#clip130)"
     d="M2070.63 34.9026 L2122.56 34.9026 L2122.56 41.7081 L2070.63 41.7081 L2070.63 34.9026 M2070.63 51.4303 L2122.56 51.4303 L2122.56 58.3168 L2070.63 58.3168 L2070.63 51.4303 Z"
     fill="#000000"
     fill-rule="nonzero"
     fill-opacity="1"
     id="path327" />
  <path
     clip-path="url(#clip130)"
     d="M2168.01 65.6895 L2181.38 65.6895 L2181.38 19.5497 L2166.83 22.4663 L2166.83 15.0127 L2181.3 12.096 L2189.48 12.096 L2189.48 65.6895 L2202.85 65.6895 L2202.85 72.576 L2168.01 72.576 L2168.01 65.6895 Z"
     fill="#000000"
     fill-rule="nonzero"
     fill-opacity="1"
     id="path329" />
  <polyline
     clip-path="url(#clip132)"
     style="stroke:#009af9;stroke-linecap:round;stroke-linejoin:round;stroke-width:16;stroke-opacity:1;fill:none;stroke-dasharray:none"
     points="592.581,603.315 596.784,603.315 600.987,603.315 605.19,603.315 609.393,603.315 613.596,603.315 617.799,603.315 622.002,603.315 626.204,603.315 630.407,603.315 634.61,603.315 638.813,603.315 643.016,603.315 647.219,603.315 651.422,603.315 655.625,603.315 659.828,603.315 664.031,603.315 668.234,603.315 672.437,603.315 676.64,603.315 680.842,603.315 685.045,603.315 689.248,603.315 693.451,603.315 697.654,603.315 701.857,603.315 706.06,603.315 710.263,603.315 714.466,603.315 718.669,603.315 722.872,603.315 727.075,603.315 731.277,603.315 735.48,603.315 739.683,603.315 743.886,603.315 748.089,603.315 752.292,603.315 756.495,603.315 760.698,603.315 764.901,603.315 769.104,603.315 773.307,603.315 777.51,603.315 781.713,603.315 785.915,603.315 790.118,603.315 794.321,603.315 798.524,603.315 802.727,603.315 806.93,603.315 811.133,603.315 815.336,603.315 819.539,603.315 823.742,603.315 827.945,603.315 832.148,603.315 836.35,603.315 840.553,603.315 844.756,603.315 848.959,603.315 853.162,603.315 857.365,603.315 861.568,603.315 865.771,603.315 869.974,603.315 874.177,603.315 878.38,603.315 882.583,603.315 886.786,603.315 890.988,603.315 895.191,603.315 899.394,603.315 903.597,603.315 907.8,603.315 912.003,603.315 916.206,603.315 920.409,603.315 924.612,603.315 928.815,603.315 933.018,603.315 937.221,603.315 941.423,603.315 945.626,603.315 949.829,603.315 954.032,603.315 958.235,603.315 962.438,603.315 966.641,603.315 970.844,603.315 975.047,603.315 979.25,603.315 983.453,603.315 987.656,603.315 991.859,603.315 996.061,603.315 1000.26,603.315 1004.47,603.315 1008.67,603.315 1012.87,603.315 1017.08,603.315 1021.28,603.315 1025.48,603.315 1029.68,603.315 1033.89,603.315 1038.09,603.315 1042.29,603.315 1046.5,603.315 1050.7,603.315 1054.9,603.315 1059.11,603.315 1063.31,603.315 1067.51,603.315 1071.71,603.315 1075.92,603.315 1080.12,603.315 1084.32,603.315 1088.53,603.315 1092.73,603.315 1096.93,603.315 1101.13,603.315 1105.34,603.315 1109.54,603.315 1113.74,603.315 1117.95,603.315 1122.15,603.315 1126.35,603.315 1130.55,603.315 1134.76,603.315 1138.96,603.315 1143.16,603.315 1147.37,603.315 1151.57,603.315 1155.77,603.315 1159.98,603.315 1164.18,603.315 1168.38,603.315 1172.58,603.315 1176.79,603.315 1180.99,603.315 1185.19,603.315 1189.4,603.315 1193.6,603.315 1197.8,603.315 1202,603.315 1206.21,603.315 1210.41,603.315 1214.61,603.315 1218.82,603.315 1223.02,603.315 1227.22,603.315 1231.42,603.315 1235.63,603.315 1239.83,603.315 1244.03,603.315 1248.24,603.315 1252.44,603.315 1256.64,603.315 1260.85,603.315 1265.05,603.315 1269.25,603.315 1273.45,603.315 1277.66,603.315 1281.86,603.315 1286.06,603.315 1290.27,603.315 1294.47,603.315 1298.67,603.315 1302.87,603.315 1307.08,603.315 1311.28,603.315 1315.48,603.315 1319.69,603.315 1323.89,603.315 1328.09,603.315 1332.3,603.315 1336.5,603.315 1340.7,603.315 1344.9,603.315 1349.11,603.315 1353.31,603.315 1357.51,603.315 1361.72,603.315 1365.92,603.315 1370.12,603.315 1374.32,603.315 1378.53,603.315 1382.73,603.315 1386.93,603.315 1391.14,603.315 1395.34,603.315 1399.54,603.315 1403.74,603.315 1407.95,603.315 1412.15,603.315 1416.35,603.315 1420.56,603.315 1424.76,603.315 1428.96,603.315 1433.17,603.315 1437.37,603.315 1441.57,603.315 1445.77,603.315 1449.98,603.315 1454.18,603.315 1458.38,603.315 1462.59,603.315 1466.79,603.315 1470.99,603.315 1475.19,603.315 1479.4,603.315 1483.6,603.315 1487.8,603.315 1492.01,603.315 1496.21,603.315 1500.41,603.315 1504.61,603.315 1508.82,603.315 1513.02,603.315 1517.22,603.315 1521.43,603.315 1525.63,603.315 1529.83,603.315 1534.04,603.315 1538.24,603.315 1542.44,603.315 1546.64,603.315 1550.85,603.315 1555.05,603.315 1559.25,603.315 1563.46,603.315 1567.66,603.315 1571.86,603.315 1576.06,603.315 1580.27,603.315 1584.47,603.315 1588.67,603.315 1592.88,603.315 1597.08,603.315 1601.28,603.315 1605.48,603.315 1609.69,603.315 1613.89,603.315 1618.09,603.315 1622.3,603.315 1626.5,603.315 1630.7,603.315 1634.91,603.315 1639.11,603.315 1643.31,603.315 1647.51,603.315 1651.72,603.315 1655.92,603.315 1660.12,603.315 1664.33,603.315 1668.53,603.315 1672.73,603.315 1676.93,603.315 1681.14,603.315 1685.34,603.315 1689.54,603.315 1693.75,603.315 1697.95,603.315 1702.15,603.315 1706.35,603.315 1710.56,603.315 1714.76,603.315 1718.96,603.315 1723.17,603.315 1727.37,603.315 1731.57,603.315 1735.78,603.315 1739.98,603.315 1744.18,603.315 1748.38,603.315 1752.59,603.315 1756.79,603.315 1760.99,603.315 1765.2,603.315 1769.4,603.315 1773.6,603.315 1777.8,603.315 1782.01,603.315 1786.21,603.315 1790.41,603.315 1794.62,603.315 1798.82,603.315 1803.02,603.315 1807.22,603.315 1811.43,603.315 1815.63,603.315 1819.83,603.315 1824.04,603.315 1828.24,603.315 1832.44,603.315 1836.65,603.315 1840.85,603.315 1845.05,603.315 1849.25,603.315 1853.46,603.315 1857.66,603.315 1861.86,603.315 1866.07,603.315 1870.27,603.315 1874.47,603.315 1878.67,603.315 1882.88,603.315 1887.08,603.315 1891.28,603.315 1895.49,603.315 1899.69,603.315 1903.89,603.315 1908.1,603.315 1912.3,603.315 1916.5,603.315 1920.7,603.315 1924.91,603.315 1929.11,603.315 1933.31,603.315 1937.52,603.315 1941.72,603.315 1945.92,603.315 1950.12,603.315 1954.33,603.315 1958.53,603.315 1962.73,603.315 1966.94,603.315 1971.14,603.315 1975.34,603.315 1979.54,603.315 1983.75,603.315 1987.95,603.315 1992.15,603.315 1996.36,603.315 2000.56,603.315 2004.76,603.315 2008.97,603.315 2013.17,603.315 2017.37,603.315 2021.57,603.315 2025.78,603.315 2029.98,603.315 2034.18,603.315 2038.39,603.315 2042.59,603.315 2046.79,603.315 2050.99,603.315 2055.2,603.315 2059.4,603.315 2063.6,603.315 2067.81,603.315 2072.01,603.315 2076.21,603.315 2080.41,603.315 2084.62,603.315 2088.82,603.315 2093.02,603.315 2097.23,603.315 2101.43,603.315 2105.63,603.315 2109.84,603.315 2114.04,603.315 2118.24,603.315 2122.44,603.315 2126.65,603.315 2130.85,603.315 2135.05,603.315 2139.26,603.315 2143.46,603.315 2147.66,603.315 2151.86,603.315 2156.07,603.315 2160.27,603.315 2164.47,603.315 2168.68,603.315 2172.88,603.315 2177.08,603.315 2181.28,603.315 2185.49,603.315 2189.69,603.315 2193.89,603.315 2198.1,603.315 2202.3,603.315 2206.5,603.315 2210.71,603.315 2214.91,603.315 2219.11,603.315 2223.31,603.315 2227.52,603.315 2231.72,603.315 2235.92,603.315 2240.13,603.315 2244.33,603.315 2248.53,603.315 2252.73,603.315 2256.94,603.315 2261.14,603.315 2265.34,603.315 2269.55,603.315 2273.75,603.315 2277.95,603.315 2282.15,603.315 2286.36,603.315 2290.56,603.315 2294.76,603.315 2298.97,603.315 2303.17,603.315 2307.37,603.315 2311.58,603.315 2315.78,603.315 2319.98,603.315 2324.18,603.315 2328.39,603.315 2332.59,603.315 2336.79,603.315 2341,603.315 2345.2,603.315 2349.4,603.315 2353.6,603.315 2357.81,603.315 2362.01,603.315 2366.21,603.315 2370.42,603.315 2374.62,603.315 2378.82,603.315 2383.03,603.315 2387.23,603.315 2391.43,603.315 2395.63,603.315 2399.84,603.315 2404.04,603.315 2408.24,603.315 2412.45,603.315 2416.65,603.315 2420.85,603.315 2425.05,603.315 2429.26,603.315 2433.46,603.315 2437.66,603.315 2441.87,603.315 2446.07,603.315 2450.27,603.315 2454.47,603.315 2458.68,603.315 2462.88,603.315 2467.08,603.315 2471.29,603.315 2475.49,603.315 2479.69,603.315 2483.9,603.315 2488.1,603.315 2492.3,603.315 2496.5,603.315 2500.71,603.315 2504.91,603.315 2509.11,603.315 2513.32,603.315 2517.52,603.315 2521.72,603.315 2525.92,603.315 2530.13,603.315 2534.33,603.315 2538.53,603.315 2542.74,603.315 2546.94,603.315 2551.14,603.315 2555.34,603.315 2559.55,603.315 2563.75,603.315 2567.95,603.315 2572.16,603.315 2576.36,603.315 2580.56,603.315 2584.77,603.315 2588.97,603.315 2593.17,603.315 2597.37,603.315 2601.58,603.315 2605.78,603.315 2609.98,603.315 2614.19,603.315 2618.39,603.315 2622.59,603.315 2626.79,603.315 2631,603.315 2635.2,603.315 2639.4,603.315 2643.61,603.315 2647.81,603.315 2652.01,603.315 2656.21,603.315 2660.42,603.315 2664.62,603.315 2668.82,603.315 2673.03,603.315 2677.23,603.315 2681.43,603.315 2685.64,603.315 2689.84,603.315 "
     id="polyline331" />
  <polyline
     clip-path="url(#clip132)"
     style="stroke:#e26f46;stroke-linecap:round;stroke-linejoin:round;stroke-width:16;stroke-opacity:1;fill:none;stroke-dasharray:none"
     points="592.581,1323.27 596.784,1321.44 600.987,1319.61 605.19,1317.78 609.393,1315.95 613.596,1314.12 617.799,1312.29 622.002,1310.46 626.204,1308.63 630.407,1306.8 634.61,1304.97 638.813,1303.15 643.016,1301.32 647.219,1299.49 651.422,1297.66 655.625,1295.83 659.828,1294 664.031,1292.17 668.234,1290.34 672.437,1288.51 676.64,1286.68 680.842,1284.85 685.045,1283.02 689.248,1281.19 693.451,1279.36 697.654,1277.53 701.857,1275.7 706.06,1273.88 710.263,1272.05 714.466,1270.22 718.669,1268.39 722.872,1266.56 727.075,1264.73 731.277,1262.9 735.48,1261.07 739.683,1259.24 743.886,1257.41 748.089,1255.58 752.292,1253.75 756.495,1251.92 760.698,1250.09 764.901,1248.26 769.104,1246.43 773.307,1244.6 777.51,1242.78 781.713,1240.95 785.915,1239.12 790.118,1237.29 794.321,1235.46 798.524,1233.63 802.727,1231.8 806.93,1229.97 811.133,1228.14 815.336,1226.31 819.539,1224.48 823.742,1222.65 827.945,1220.82 832.148,1218.99 836.35,1217.16 840.553,1215.33 844.756,1213.51 848.959,1211.68 853.162,1209.85 857.365,1208.02 861.568,1206.19 865.771,1204.36 869.974,1202.53 874.177,1200.7 878.38,1198.87 882.583,1197.04 886.786,1195.21 890.988,1193.38 895.191,1191.55 899.394,1189.72 903.597,1187.89 907.8,1186.06 912.003,1184.24 916.206,1182.41 920.409,1180.58 924.612,1178.75 928.815,1176.92 933.018,1175.09 937.221,1173.26 941.423,1171.43 945.626,1169.6 949.829,1167.77 954.032,1165.94 958.235,1164.11 962.438,1162.28 966.641,1160.45 970.844,1158.62 975.047,1156.79 979.25,1154.96 983.453,1153.14 987.656,1151.31 991.859,1149.48 996.061,1147.65 1000.26,1145.82 1004.47,1143.99 1008.67,1142.16 1012.87,1140.33 1017.08,1138.5 1021.28,1136.67 1025.48,1134.84 1029.68,1133.01 1033.89,1131.18 1038.09,1129.35 1042.29,1127.52 1046.5,1125.69 1050.7,1123.87 1054.9,1122.04 1059.11,1120.21 1063.31,1118.38 1067.51,1116.55 1071.71,1114.72 1075.92,1112.89 1080.12,1111.06 1084.32,1109.23 1088.53,1107.4 1092.73,1105.57 1096.93,1103.74 1101.13,1101.91 1105.34,1100.08 1109.54,1098.25 1113.74,1096.42 1117.95,1094.6 1122.15,1092.77 1126.35,1090.94 1130.55,1089.11 1134.76,1087.28 1138.96,1085.45 1143.16,1083.62 1147.37,1081.79 1151.57,1079.96 1155.77,1078.13 1159.98,1076.3 1164.18,1074.47 1168.38,1072.64 1172.58,1070.81 1176.79,1068.98 1180.99,1067.15 1185.19,1065.32 1189.4,1063.5 1193.6,1061.67 1197.8,1059.84 1202,1058.01 1206.21,1056.18 1210.41,1054.35 1214.61,1052.52 1218.82,1050.69 1223.02,1048.86 1227.22,1047.03 1231.42,1045.2 1235.63,1043.37 1239.83,1041.54 1244.03,1039.71 1248.24,1037.88 1252.44,1036.05 1256.64,1034.23 1260.85,1032.4 1265.05,1030.57 1269.25,1028.74 1273.45,1026.91 1277.66,1025.08 1281.86,1023.25 1286.06,1021.42 1290.27,1019.59 1294.47,1017.76 1298.67,1015.93 1302.87,1014.1 1307.08,1012.27 1311.28,1010.44 1315.48,1008.61 1319.69,1006.78 1323.89,1004.96 1328.09,1003.13 1332.3,1001.3 1336.5,999.467 1340.7,997.638 1344.9,995.808 1349.11,993.979 1353.31,992.149 1357.51,990.32 1361.72,988.491 1365.92,986.661 1370.12,984.832 1374.32,983.003 1378.53,981.173 1382.73,979.344 1386.93,977.514 1391.14,975.685 1395.34,973.856 1399.54,972.026 1403.74,970.197 1407.95,968.367 1412.15,966.538 1416.35,964.709 1420.56,962.879 1424.76,961.05 1428.96,959.221 1433.17,957.391 1437.37,955.562 1441.57,953.732 1445.77,951.903 1449.98,950.074 1454.18,948.244 1458.38,946.415 1462.59,944.585 1466.79,942.756 1470.99,940.927 1475.19,939.097 1479.4,937.268 1483.6,935.438 1487.8,933.609 1492.01,931.78 1496.21,929.95 1500.41,928.121 1504.61,926.292 1508.82,924.462 1513.02,922.633 1517.22,920.803 1521.43,918.974 1525.63,917.145 1529.83,915.315 1534.04,913.486 1538.24,911.656 1542.44,909.827 1546.64,907.998 1550.85,906.168 1555.05,904.339 1559.25,902.509 1563.46,900.68 1567.66,898.851 1571.86,897.021 1576.06,895.192 1580.27,893.363 1584.47,891.533 1588.67,889.704 1592.88,887.874 1597.08,886.045 1601.28,884.216 1605.48,882.386 1609.69,880.557 1613.89,878.727 1618.09,876.898 1622.3,875.069 1626.5,873.239 1630.7,871.41 1634.91,869.581 1639.11,867.751 1643.31,865.922 1647.51,864.092 1651.72,862.263 1655.92,860.434 1660.12,858.604 1664.33,856.775 1668.53,854.945 1672.73,853.116 1676.93,851.287 1681.14,849.457 1685.34,847.628 1689.54,845.798 1693.75,843.969 1697.95,842.14 1702.15,840.31 1706.35,838.481 1710.56,836.652 1714.76,834.822 1718.96,832.993 1723.17,831.163 1727.37,829.334 1731.57,827.505 1735.78,825.675 1739.98,823.846 1744.18,822.016 1748.38,820.187 1752.59,818.358 1756.79,816.528 1760.99,814.699 1765.2,812.87 1769.4,811.04 1773.6,809.211 1777.8,807.381 1782.01,805.552 1786.21,803.723 1790.41,801.893 1794.62,800.064 1798.82,798.234 1803.02,796.405 1807.22,794.576 1811.43,792.746 1815.63,790.917 1819.83,789.087 1824.04,787.258 1828.24,785.429 1832.44,783.599 1836.65,781.77 1840.85,779.941 1845.05,778.111 1849.25,776.282 1853.46,774.452 1857.66,772.623 1861.86,770.794 1866.07,768.964 1870.27,767.135 1874.47,765.305 1878.67,763.476 1882.88,761.647 1887.08,759.817 1891.28,757.988 1895.49,756.159 1899.69,754.329 1903.89,752.5 1908.1,750.67 1912.3,748.841 1916.5,747.012 1920.7,745.182 1924.91,743.353 1929.11,741.523 1933.31,739.694 1937.52,737.865 1941.72,736.035 1945.92,734.206 1950.12,732.376 1954.33,730.547 1958.53,728.718 1962.73,726.888 1966.94,725.059 1971.14,723.23 1975.34,721.4 1979.54,719.571 1983.75,717.741 1987.95,715.912 1992.15,714.083 1996.36,712.253 2000.56,710.424 2004.76,708.594 2008.97,706.765 2013.17,704.936 2017.37,703.106 2021.57,701.277 2025.78,699.448 2029.98,697.618 2034.18,695.789 2038.39,693.959 2042.59,692.13 2046.79,690.301 2050.99,688.471 2055.2,686.642 2059.4,684.812 2063.6,682.983 2067.81,681.154 2072.01,679.324 2076.21,677.495 2080.41,675.665 2084.62,673.836 2088.82,672.007 2093.02,670.177 2097.23,668.348 2101.43,666.519 2105.63,664.689 2109.84,662.86 2114.04,661.03 2118.24,659.201 2122.44,657.372 2126.65,655.542 2130.85,653.713 2135.05,651.883 2139.26,650.054 2143.46,648.225 2147.66,646.395 2151.86,644.566 2156.07,642.736 2160.27,640.907 2164.47,639.078 2168.68,637.248 2172.88,635.419 2177.08,633.59 2181.28,631.76 2185.49,629.931 2189.69,628.101 2193.89,626.272 2198.1,624.443 2202.3,622.613 2206.5,620.784 2210.71,618.954 2214.91,617.125 2219.11,615.296 2223.31,613.466 2227.52,611.637 2231.72,609.808 2235.92,607.978 2240.13,606.149 2244.33,604.319 2248.53,602.49 2252.73,600.661 2256.94,598.831 2261.14,597.002 2265.34,595.172 2269.55,593.343 2273.75,591.514 2277.95,589.684 2282.15,587.855 2286.36,586.025 2290.56,584.196 2294.76,582.367 2298.97,580.537 2303.17,578.708 2307.37,576.879 2311.58,575.049 2315.78,573.22 2319.98,571.39 2324.18,569.561 2328.39,567.732 2332.59,565.902 2336.79,564.073 2341,562.243 2345.2,560.414 2349.4,558.585 2353.6,556.755 2357.81,554.926 2362.01,553.097 2366.21,551.267 2370.42,549.438 2374.62,547.608 2378.82,545.779 2383.03,543.95 2387.23,542.12 2391.43,540.291 2395.63,538.461 2399.84,536.632 2404.04,534.803 2408.24,532.973 2412.45,531.144 2416.65,529.314 2420.85,527.485 2425.05,525.656 2429.26,523.826 2433.46,521.997 2437.66,520.168 2441.87,518.338 2446.07,516.509 2450.27,514.679 2454.47,512.85 2458.68,511.021 2462.88,509.191 2467.08,507.362 2471.29,505.532 2475.49,503.703 2479.69,501.874 2483.9,500.044 2488.1,498.215 2492.3,496.386 2496.5,494.556 2500.71,492.727 2504.91,490.897 2509.11,489.068 2513.32,487.239 2517.52,485.409 2521.72,483.58 2525.92,481.75 2530.13,479.921 2534.33,478.092 2538.53,476.262 2542.74,474.433 2546.94,472.603 2551.14,470.774 2555.34,468.945 2559.55,467.115 2563.75,465.286 2567.95,463.457 2572.16,461.627 2576.36,459.798 2580.56,457.968 2584.77,456.139 2588.97,454.31 2593.17,452.48 2597.37,450.651 2601.58,448.821 2605.78,446.992 2609.98,445.163 2614.19,443.333 2618.39,441.504 2622.59,439.674 2626.79,437.845 2631,436.016 2635.2,434.186 2639.4,432.357 2643.61,430.528 2647.81,428.698 2652.01,426.869 2656.21,425.039 2660.42,423.21 2664.62,421.381 2668.82,419.551 2673.03,417.722 2677.23,415.892 2681.43,414.063 2685.64,412.234 2689.84,410.404 "
     id="polyline333" />
  <polyline
     clip-path="url(#clip132)"
     style="stroke:#3da44d;stroke-linecap:round;stroke-linejoin:round;stroke-width:16;stroke-opacity:1;fill:none;stroke-dasharray:none"
     points="592.581,277.585 596.784,284.656 600.987,291.699 605.19,298.713 609.393,305.699 613.596,312.656 617.799,319.585 622.002,326.486 626.204,333.358 630.407,340.202 634.61,347.017 638.813,353.804 643.016,360.563 647.219,367.293 651.422,373.995 655.625,380.668 659.828,387.313 664.031,393.93 668.234,400.518 672.437,407.078 676.64,413.609 680.842,420.112 685.045,426.587 689.248,433.033 693.451,439.451 697.654,445.841 701.857,452.202 706.06,458.534 710.263,464.838 714.466,471.114 718.669,477.362 722.872,483.581 727.075,489.772 731.277,495.934 735.48,502.068 739.683,508.173 743.886,514.25 748.089,520.299 752.292,526.319 756.495,532.311 760.698,538.275 764.901,544.21 769.104,550.116 773.307,555.995 777.51,561.844 781.713,567.666 785.915,573.459 790.118,579.224 794.321,584.96 798.524,590.668 802.727,596.347 806.93,601.999 811.133,607.621 815.336,613.216 819.539,618.782 823.742,624.319 827.945,629.828 832.148,635.309 836.35,640.761 840.553,646.185 844.756,651.581 848.959,656.948 853.162,662.287 857.365,667.597 861.568,672.879 865.771,678.132 869.974,683.358 874.177,688.554 878.38,693.723 882.583,698.863 886.786,703.974 890.988,709.057 895.191,714.112 899.394,719.138 903.597,724.136 907.8,729.106 912.003,734.047 916.206,738.96 920.409,743.844 924.612,748.7 928.815,753.528 933.018,758.327 937.221,763.098 941.423,767.84 945.626,772.554 949.829,777.24 954.032,781.897 958.235,786.526 962.438,791.126 966.641,795.698 970.844,800.242 975.047,804.757 979.25,809.244 983.453,813.702 987.656,818.132 991.859,822.534 996.061,826.907 1000.26,831.252 1004.47,835.568 1008.67,839.856 1012.87,844.116 1017.08,848.347 1021.28,852.55 1025.48,856.725 1029.68,860.871 1033.89,864.988 1038.09,869.077 1042.29,873.138 1046.5,877.171 1050.7,881.175 1054.9,885.15 1059.11,889.098 1063.31,893.017 1067.51,896.907 1071.71,900.769 1075.92,904.603 1080.12,908.408 1084.32,912.185 1088.53,915.933 1092.73,919.654 1096.93,923.345 1101.13,927.008 1105.34,930.643 1109.54,934.25 1113.74,937.828 1117.95,941.378 1122.15,944.899 1126.35,948.392 1130.55,951.856 1134.76,955.292 1138.96,958.7 1143.16,962.079 1147.37,965.43 1151.57,968.753 1155.77,972.047 1159.98,975.313 1164.18,978.55 1168.38,981.759 1172.58,984.939 1176.79,988.092 1180.99,991.215 1185.19,994.311 1189.4,997.378 1193.6,1000.42 1197.8,1003.43 1202,1006.41 1206.21,1009.36 1210.41,1012.29 1214.61,1015.18 1218.82,1018.05 1223.02,1020.89 1227.22,1023.7 1231.42,1026.49 1235.63,1029.24 1239.83,1031.97 1244.03,1034.66 1248.24,1037.33 1252.44,1039.97 1256.64,1042.59 1260.85,1045.17 1265.05,1047.73 1269.25,1050.25 1273.45,1052.75 1277.66,1055.22 1281.86,1057.67 1286.06,1060.08 1290.27,1062.46 1294.47,1064.82 1298.67,1067.15 1302.87,1069.45 1307.08,1071.72 1311.28,1073.97 1315.48,1076.18 1319.69,1078.37 1323.89,1080.53 1328.09,1082.66 1332.3,1084.76 1336.5,1086.83 1340.7,1088.87 1344.9,1090.89 1349.11,1092.88 1353.31,1094.84 1357.51,1096.77 1361.72,1098.67 1365.92,1100.55 1370.12,1102.39 1374.32,1104.21 1378.53,1106 1382.73,1107.76 1386.93,1109.49 1391.14,1111.19 1395.34,1112.87 1399.54,1114.52 1403.74,1116.14 1407.95,1117.73 1412.15,1119.29 1416.35,1120.82 1420.56,1122.33 1424.76,1123.8 1428.96,1125.25 1433.17,1126.67 1437.37,1128.06 1441.57,1129.43 1445.77,1130.76 1449.98,1132.07 1454.18,1133.35 1458.38,1134.59 1462.59,1135.82 1466.79,1137.01 1470.99,1138.17 1475.19,1139.31 1479.4,1140.42 1483.6,1141.5 1487.8,1142.55 1492.01,1143.57 1496.21,1144.56 1500.41,1145.53 1504.61,1146.46 1508.82,1147.37 1513.02,1148.25 1517.22,1149.11 1521.43,1149.93 1525.63,1150.72 1529.83,1151.49 1534.04,1152.23 1538.24,1152.94 1542.44,1153.62 1546.64,1154.27 1550.85,1154.9 1555.05,1155.5 1559.25,1156.06 1563.46,1156.6 1567.66,1157.11 1571.86,1157.6 1576.06,1158.05 1580.27,1158.48 1584.47,1158.87 1588.67,1159.24 1592.88,1159.58 1597.08,1159.9 1601.28,1160.18 1605.48,1160.44 1609.69,1160.66 1613.89,1160.86 1618.09,1161.03 1622.3,1161.17 1626.5,1161.29 1630.7,1161.37 1634.91,1161.43 1639.11,1161.46 1643.31,1161.46 1647.51,1161.43 1651.72,1161.37 1655.92,1161.29 1660.12,1161.17 1664.33,1161.03 1668.53,1160.86 1672.73,1160.66 1676.93,1160.44 1681.14,1160.18 1685.34,1159.9 1689.54,1159.58 1693.75,1159.24 1697.95,1158.87 1702.15,1158.48 1706.35,1158.05 1710.56,1157.6 1714.76,1157.11 1718.96,1156.6 1723.17,1156.06 1727.37,1155.5 1731.57,1154.9 1735.78,1154.27 1739.98,1153.62 1744.18,1152.94 1748.38,1152.23 1752.59,1151.49 1756.79,1150.72 1760.99,1149.93 1765.2,1149.11 1769.4,1148.25 1773.6,1147.37 1777.8,1146.46 1782.01,1145.53 1786.21,1144.56 1790.41,1143.57 1794.62,1142.55 1798.82,1141.5 1803.02,1140.42 1807.22,1139.31 1811.43,1138.17 1815.63,1137.01 1819.83,1135.82 1824.04,1134.59 1828.24,1133.35 1832.44,1132.07 1836.65,1130.76 1840.85,1129.43 1845.05,1128.06 1849.25,1126.67 1853.46,1125.25 1857.66,1123.8 1861.86,1122.33 1866.07,1120.82 1870.27,1119.29 1874.47,1117.73 1878.67,1116.14 1882.88,1114.52 1887.08,1112.87 1891.28,1111.19 1895.49,1109.49 1899.69,1107.76 1903.89,1106 1908.1,1104.21 1912.3,1102.39 1916.5,1100.55 1920.7,1098.67 1924.91,1096.77 1929.11,1094.84 1933.31,1092.88 1937.52,1090.89 1941.72,1088.87 1945.92,1086.83 1950.12,1084.76 1954.33,1082.66 1958.53,1080.53 1962.73,1078.37 1966.94,1076.18 1971.14,1073.97 1975.34,1071.72 1979.54,1069.45 1983.75,1067.15 1987.95,1064.82 1992.15,1062.46 1996.36,1060.08 2000.56,1057.67 2004.76,1055.22 2008.97,1052.75 2013.17,1050.25 2017.37,1047.73 2021.57,1045.17 2025.78,1042.59 2029.98,1039.97 2034.18,1037.33 2038.39,1034.66 2042.59,1031.97 2046.79,1029.24 2050.99,1026.49 2055.2,1023.7 2059.4,1020.89 2063.6,1018.05 2067.81,1015.18 2072.01,1012.29 2076.21,1009.36 2080.41,1006.41 2084.62,1003.43 2088.82,1000.42 2093.02,997.378 2097.23,994.311 2101.43,991.215 2105.63,988.092 2109.84,984.939 2114.04,981.759 2118.24,978.55 2122.44,975.313 2126.65,972.047 2130.85,968.753 2135.05,965.43 2139.26,962.079 2143.46,958.7 2147.66,955.292 2151.86,951.856 2156.07,948.392 2160.27,944.899 2164.47,941.378 2168.68,937.828 2172.88,934.25 2177.08,930.643 2181.28,927.008 2185.49,923.345 2189.69,919.654 2193.89,915.933 2198.1,912.185 2202.3,908.408 2206.5,904.603 2210.71,900.769 2214.91,896.907 2219.11,893.017 2223.31,889.098 2227.52,885.15 2231.72,881.175 2235.92,877.171 2240.13,873.138 2244.33,869.077 2248.53,864.988 2252.73,860.871 2256.94,856.725 2261.14,852.55 2265.34,848.347 2269.55,844.116 2273.75,839.856 2277.95,835.568 2282.15,831.252 2286.36,826.907 2290.56,822.534 2294.76,818.132 2298.97,813.702 2303.17,809.244 2307.37,804.757 2311.58,800.242 2315.78,795.698 2319.98,791.126 2324.18,786.526 2328.39,781.897 2332.59,777.24 2336.79,772.554 2341,767.84 2345.2,763.098 2349.4,758.327 2353.6,753.528 2357.81,748.7 2362.01,743.844 2366.21,738.96 2370.42,734.047 2374.62,729.106 2378.82,724.136 2383.03,719.138 2387.23,714.112 2391.43,709.057 2395.63,703.974 2399.84,698.863 2404.04,693.723 2408.24,688.554 2412.45,683.358 2416.65,678.132 2420.85,672.879 2425.05,667.597 2429.26,662.287 2433.46,656.948 2437.66,651.581 2441.87,646.185 2446.07,640.761 2450.27,635.309 2454.47,629.828 2458.68,624.319 2462.88,618.782 2467.08,613.216 2471.29,607.621 2475.49,601.999 2479.69,596.347 2483.9,590.668 2488.1,584.96 2492.3,579.224 2496.5,573.459 2500.71,567.666 2504.91,561.844 2509.11,555.995 2513.32,550.116 2517.52,544.21 2521.72,538.275 2525.92,532.311 2530.13,526.319 2534.33,520.299 2538.53,514.25 2542.74,508.173 2546.94,502.068 2551.14,495.934 2555.34,489.772 2559.55,483.581 2563.75,477.362 2567.95,471.114 2572.16,464.838 2576.36,458.534 2580.56,452.202 2584.77,445.841 2588.97,439.451 2593.17,433.033 2597.37,426.587 2601.58,420.112 2605.78,413.609 2609.98,407.078 2614.19,400.518 2618.39,393.93 2622.59,387.313 2626.79,380.668 2631,373.995 2635.2,367.293 2639.4,360.563 2643.61,353.804 2647.81,347.017 2652.01,340.202 2656.21,333.358 2660.42,326.486 2664.62,319.585 2668.82,312.656 2673.03,305.699 2677.23,298.713 2681.43,291.699 2685.64,284.656 2689.84,277.585 "
     id="polyline335" />
  <polyline
     clip-path="url(#clip132)"
     style="stroke:#c271d2;stroke-linecap:round;stroke-linejoin:round;stroke-width:16;stroke-opacity:1;fill:none;stroke-dasharray:none"
     points="592.581,1564.05 596.784,1547.37 600.987,1530.85 605.19,1514.5 609.393,1498.32 613.596,1482.3 617.799,1466.45 622.002,1450.76 626.204,1435.23 630.407,1419.87 634.61,1404.67 638.813,1389.63 643.016,1374.75 647.219,1360.03 651.422,1345.47 655.625,1331.07 659.828,1316.83 664.031,1302.74 668.234,1288.81 672.437,1275.04 676.64,1261.42 680.842,1247.95 685.045,1234.64 689.248,1221.49 693.451,1208.48 697.654,1195.63 701.857,1182.93 706.06,1170.38 710.263,1157.98 714.466,1145.72 718.669,1133.62 722.872,1121.66 727.075,1109.86 731.277,1098.19 735.48,1086.68 739.683,1075.31 743.886,1064.08 748.089,1053 752.292,1042.06 756.495,1031.26 760.698,1020.6 764.901,1010.09 769.104,999.714 773.307,989.479 777.51,979.383 781.713,969.426 785.915,959.607 790.118,949.924 794.321,940.378 798.524,930.967 802.727,921.692 806.93,912.551 811.133,903.543 815.336,894.669 819.539,885.927 823.742,877.316 827.945,868.836 832.148,860.487 836.35,852.268 840.553,844.177 844.756,836.214 848.959,828.38 853.162,820.672 857.365,813.09 861.568,805.634 865.771,798.303 869.974,791.096 874.177,784.012 878.38,777.052 882.583,770.214 886.786,763.497 890.988,756.901 895.191,750.425 899.394,744.069 903.597,737.832 907.8,731.713 912.003,725.711 916.206,719.826 920.409,714.058 924.612,708.405 928.815,702.866 933.018,697.442 937.221,692.131 941.423,686.933 945.626,681.847 949.829,676.873 954.032,672.009 958.235,667.256 962.438,662.612 966.641,658.076 970.844,653.649 975.047,649.329 979.25,645.116 983.453,641.009 987.656,637.007 991.859,633.11 996.061,629.317 1000.26,625.627 1004.47,622.04 1008.67,618.555 1012.87,615.172 1017.08,611.889 1021.28,608.706 1025.48,605.622 1029.68,602.637 1033.89,599.75 1038.09,596.96 1042.29,594.267 1046.5,591.67 1050.7,589.168 1054.9,586.761 1059.11,584.448 1063.31,582.228 1067.51,580.1 1071.71,578.065 1075.92,576.12 1080.12,574.266 1084.32,572.503 1088.53,570.828 1092.73,569.242 1096.93,567.744 1101.13,566.333 1105.34,565.008 1109.54,563.769 1113.74,562.616 1117.95,561.547 1122.15,560.562 1126.35,559.66 1130.55,558.84 1134.76,558.103 1138.96,557.446 1143.16,556.87 1147.37,556.374 1151.57,555.957 1155.77,555.618 1159.98,555.357 1164.18,555.173 1168.38,555.066 1172.58,555.034 1176.79,555.078 1180.99,555.195 1185.19,555.387 1189.4,555.652 1193.6,555.989 1197.8,556.397 1202,556.877 1206.21,557.427 1210.41,558.047 1214.61,558.736 1218.82,559.493 1223.02,560.318 1227.22,561.21 1231.42,562.168 1235.63,563.192 1239.83,564.281 1244.03,565.434 1248.24,566.65 1252.44,567.93 1256.64,569.272 1260.85,570.676 1265.05,572.14 1269.25,573.665 1273.45,575.249 1277.66,576.893 1281.86,578.594 1286.06,580.353 1290.27,582.169 1294.47,584.042 1298.67,585.969 1302.87,587.952 1307.08,589.989 1311.28,592.079 1315.48,594.223 1319.69,596.418 1323.89,598.665 1328.09,600.963 1332.3,603.311 1336.5,605.708 1340.7,608.155 1344.9,610.649 1349.11,613.191 1353.31,615.78 1357.51,618.415 1361.72,621.095 1365.92,623.82 1370.12,626.589 1374.32,629.402 1378.53,632.257 1382.73,635.154 1386.93,638.093 1391.14,641.073 1395.34,644.093 1399.54,647.152 1403.74,650.249 1407.95,653.385 1412.15,656.558 1416.35,659.768 1420.56,663.014 1424.76,666.295 1428.96,669.611 1433.17,672.961 1437.37,676.344 1441.57,679.76 1445.77,683.208 1449.98,686.688 1454.18,690.197 1458.38,693.737 1462.59,697.306 1466.79,700.904 1470.99,704.53 1475.19,708.183 1479.4,711.862 1483.6,715.568 1487.8,719.298 1492.01,723.054 1496.21,726.833 1500.41,730.635 1504.61,734.46 1508.82,738.307 1513.02,742.175 1517.22,746.064 1521.43,749.972 1525.63,753.9 1529.83,757.846 1534.04,761.81 1538.24,765.791 1542.44,769.789 1546.64,773.803 1550.85,777.831 1555.05,781.874 1559.25,785.931 1563.46,790.001 1567.66,794.084 1571.86,798.178 1576.06,802.284 1580.27,806.4 1584.47,810.525 1588.67,814.66 1592.88,818.803 1597.08,822.954 1601.28,827.112 1605.48,831.276 1609.69,835.446 1613.89,839.622 1618.09,843.801 1622.3,847.984 1626.5,852.17 1630.7,856.359 1634.91,860.549 1639.11,864.741 1643.31,868.932 1647.51,873.124 1651.72,877.314 1655.92,881.502 1660.12,885.689 1664.33,889.872 1668.53,894.051 1672.73,898.226 1676.93,902.397 1681.14,906.561 1685.34,910.719 1689.54,914.87 1693.75,919.013 1697.95,923.148 1702.15,927.273 1706.35,931.389 1710.56,935.495 1714.76,939.589 1718.96,943.671 1723.17,947.742 1727.37,951.798 1731.57,955.842 1735.78,959.87 1739.98,963.884 1744.18,967.882 1748.38,971.863 1752.59,975.827 1756.79,979.773 1760.99,983.701 1765.2,987.609 1769.4,991.498 1773.6,995.366 1777.8,999.213 1782.01,1003.04 1786.21,1006.84 1790.41,1010.62 1794.62,1014.37 1798.82,1018.11 1803.02,1021.81 1807.22,1025.49 1811.43,1029.14 1815.63,1032.77 1819.83,1036.37 1824.04,1039.94 1828.24,1043.48 1832.44,1046.99 1836.65,1050.46 1840.85,1053.91 1845.05,1057.33 1849.25,1060.71 1853.46,1064.06 1857.66,1067.38 1861.86,1070.66 1866.07,1073.9 1870.27,1077.11 1874.47,1080.29 1878.67,1083.42 1882.88,1086.52 1887.08,1089.58 1891.28,1092.6 1895.49,1095.58 1899.69,1098.52 1903.89,1101.42 1908.1,1104.27 1912.3,1107.08 1916.5,1109.85 1920.7,1112.58 1924.91,1115.26 1929.11,1117.89 1933.31,1120.48 1937.52,1123.02 1941.72,1125.52 1945.92,1127.96 1950.12,1130.36 1954.33,1132.71 1958.53,1135.01 1962.73,1137.25 1966.94,1139.45 1971.14,1141.59 1975.34,1143.68 1979.54,1145.72 1983.75,1147.7 1987.95,1149.63 1992.15,1151.5 1996.36,1153.32 2000.56,1155.08 2004.76,1156.78 2008.97,1158.42 2013.17,1160.01 2017.37,1161.53 2021.57,1163 2025.78,1164.4 2029.98,1165.74 2034.18,1167.02 2038.39,1168.24 2042.59,1169.39 2046.79,1170.48 2050.99,1171.51 2055.2,1172.46 2059.4,1173.36 2063.6,1174.18 2067.81,1174.94 2072.01,1175.63 2076.21,1176.25 2080.41,1176.8 2084.62,1177.28 2088.82,1177.68 2093.02,1178.02 2097.23,1178.29 2101.43,1178.48 2105.63,1178.6 2109.84,1178.64 2114.04,1178.61 2118.24,1178.5 2122.44,1178.32 2126.65,1178.05 2130.85,1177.72 2135.05,1177.3 2139.26,1176.8 2143.46,1176.23 2147.66,1175.57 2151.86,1174.83 2156.07,1174.01 2160.27,1173.11 2164.47,1172.13 2168.68,1171.06 2172.88,1169.9 2177.08,1168.66 2181.28,1167.34 2185.49,1165.93 2189.69,1164.43 2193.89,1162.84 2198.1,1161.17 2202.3,1159.41 2206.5,1157.55 2210.71,1155.61 2214.91,1153.57 2219.11,1151.45 2223.31,1149.23 2227.52,1146.91 2231.72,1144.5 2235.92,1142 2240.13,1139.41 2244.33,1136.71 2248.53,1133.92 2252.73,1131.04 2256.94,1128.05 2261.14,1124.97 2265.34,1121.78 2269.55,1118.5 2273.75,1115.12 2277.95,1111.63 2282.15,1108.05 2286.36,1104.36 2290.56,1100.56 2294.76,1096.67 2298.97,1092.66 2303.17,1088.56 2307.37,1084.34 2311.58,1080.02 2315.78,1075.6 2319.98,1071.06 2324.18,1066.42 2328.39,1061.66 2332.59,1056.8 2336.79,1051.83 2341,1046.74 2345.2,1041.54 2349.4,1036.23 2353.6,1030.81 2357.81,1025.27 2362.01,1019.62 2366.21,1013.85 2370.42,1007.96 2374.62,1001.96 2378.82,995.841 2383.03,989.604 2387.23,983.247 2391.43,976.772 2395.63,970.176 2399.84,963.459 2404.04,956.621 2408.24,949.66 2412.45,942.577 2416.65,935.37 2420.85,928.039 2425.05,920.583 2429.26,913.001 2433.46,905.293 2437.66,897.459 2441.87,889.496 2446.07,881.405 2450.27,873.186 2454.47,864.836 2458.68,856.357 2462.88,847.746 2467.08,839.004 2471.29,830.13 2475.49,821.122 2479.69,811.981 2483.9,802.706 2488.1,793.295 2492.3,783.749 2496.5,774.066 2500.71,764.247 2504.91,754.29 2509.11,744.194 2513.32,733.959 2517.52,723.585 2521.72,713.07 2525.92,702.414 2530.13,691.617 2534.33,680.677 2538.53,669.593 2542.74,658.367 2546.94,646.995 2551.14,635.479 2555.34,623.817 2559.55,612.008 2563.75,600.052 2567.95,587.949 2572.16,575.697 2576.36,563.296 2580.56,550.745 2584.77,538.043 2588.97,525.19 2593.17,512.186 2597.37,499.029 2601.58,485.719 2605.78,472.254 2609.98,458.636 2614.19,444.862 2618.39,430.932 2622.59,416.846 2626.79,402.603 2631,388.201 2635.2,373.641 2639.4,358.922 2643.61,344.043 2647.81,329.003 2652.01,313.802 2656.21,298.439 2660.42,282.914 2664.62,267.225 2668.82,251.372 2673.03,235.354 2677.23,219.172 2681.43,202.823 2685.64,186.308 2689.84,169.625 "
     id="polyline337" />
  <polyline
     clip-path="url(#clip130)"
     style="fill:none;stroke:#009af9;stroke-width:16;stroke-linecap:round;stroke-linejoin:round;stroke-dasharray:none;stroke-opacity:1"
     points="2370.16,1038.21 2518.36,1038.21 "
     id="polyline343"
     transform="translate(92.35,39.717622)" />
  <path
     clip-path="url(#clip130)"
     d="m 2587.22,1028.29 q 0,8.44 -4.28,16.69 -4.21,8.2 -11.01,13.35 -6.73,5.16 -13.64,5.16 -6.73,0 -11.01,-5.16 -4.22,-5.21 -4.22,-13.7 0,-2.99 0.36,-5.09 0.35,-2.11 1.58,-7.03 l 9.83,-39.116 q 1.7,-7.32 1.7,-7.378 0,-0.703 -0.29,-1.054 -0.23,-0.41 -1.64,-0.703 -1.4,-0.293 -4.1,-0.293 -1.11,0 -1.64,-0.058 -0.47,-0.059 -0.88,-0.352 -0.35,-0.351 -0.35,-1.054 0,-0.995 0.41,-1.522 0.47,-0.586 0.82,-0.703 0.35,-0.117 1.06,-0.175 0.99,-0.059 4.33,-0.352 3.34,-0.351 6.21,-0.585 2.87,-0.234 4.09,-0.234 0.71,0 1.06,0.351 0.41,0.293 0.41,0.644 l 0.06,0.293 -8.84,36.131 q 6.96,-7.2 14.05,-7.2 7.08,0 11.48,5.44 4.45,5.45 4.45,13.7 m -8.67,-5.27 q 0,-5.56 -2.11,-8.37 -2.05,-2.87 -5.44,-2.87 -2.87,0 -6.62,2.17 -3.75,2.16 -7.73,7.43 -0.76,1 -1.05,1.58 -0.24,0.59 -0.77,2.58 l -2.63,11.07 q -1.93,7.55 -1.93,12.12 0,6.21 2.28,9.13 2.28,2.93 5.74,2.93 3.63,0 7.44,-3.22 3.8,-3.22 6.73,-9.07 1.82,-3.87 3.92,-12.18 2.17,-8.38 2.17,-13.3 z"
     fill="#000000"
     fill-rule="nonzero"
     fill-opacity="1"
     id="path345"
     transform="translate(92.35,39.717622)" />
  <path
     clip-path="url(#clip130)"
     d="m 2599.58,1048.78 v -2.62 q 10.08,0 15.29,-5.37 1.43,0 1.68,0.33 0.24,0.32 0.24,1.84 v 47.1 q 0,2.5 1.23,3.28 1.23,0.78 6.6,0.78 h 2.67 v 2.58 q -2.95,-0.25 -13.61,-0.25 -10.66,0 -13.57,0.25 v -2.58 h 2.67 q 5.28,0 6.55,-0.74 1.27,-0.78 1.27,-3.32 v -43.49 q -4.38,2.21 -11.02,2.21 z"
     fill="#000000"
     fill-rule="nonzero"
     fill-opacity="1"
     id="path347"
     transform="translate(92.35,39.717622)" />
  <polyline
     clip-path="url(#clip130)"
     style="fill:none;stroke:#e26f46;stroke-width:16;stroke-linecap:round;stroke-linejoin:round;stroke-dasharray:none;stroke-opacity:1"
     points="2370.16,1167.81 2518.36,1167.81 "
     id="polyline349"
     transform="translate(92.35,39.717622)" />
  <path
     clip-path="url(#clip130)"
     d="m 2587.22,1157.89 q 0,8.44 -4.28,16.69 -4.21,8.2 -11.01,13.35 -6.73,5.16 -13.64,5.16 -6.73,0 -11.01,-5.16 -4.22,-5.21 -4.22,-13.7 0,-2.99 0.36,-5.09 0.35,-2.11 1.58,-7.03 l 9.83,-39.12 q 1.7,-7.32 1.7,-7.37 0,-0.71 -0.29,-1.06 -0.23,-0.41 -1.64,-0.7 -1.4,-0.29 -4.1,-0.29 -1.11,0 -1.64,-0.06 -0.47,-0.06 -0.88,-0.35 -0.35,-0.35 -0.35,-1.06 0,-0.99 0.41,-1.52 0.47,-0.59 0.82,-0.7 0.35,-0.12 1.06,-0.18 0.99,-0.06 4.33,-0.35 3.34,-0.35 6.21,-0.59 2.87,-0.23 4.09,-0.23 0.71,0 1.06,0.35 0.41,0.29 0.41,0.65 l 0.06,0.29 -8.84,36.13 q 6.96,-7.2 14.05,-7.2 7.08,0 11.48,5.44 4.45,5.45 4.45,13.7 m -8.67,-5.27 q 0,-5.56 -2.11,-8.37 -2.05,-2.87 -5.44,-2.87 -2.87,0 -6.62,2.17 -3.75,2.16 -7.73,7.43 -0.76,1 -1.05,1.58 -0.24,0.59 -0.77,2.58 l -2.63,11.07 q -1.93,7.55 -1.93,12.12 0,6.21 2.28,9.13 2.28,2.93 5.74,2.93 3.63,0 7.44,-3.22 3.8,-3.22 6.73,-9.07 1.82,-3.87 3.92,-12.18 2.17,-8.38 2.17,-13.3 z"
     fill="#000000"
     fill-rule="nonzero"
     fill-opacity="1"
     id="path351"
     transform="translate(92.35,39.717622)" />
  <path
     clip-path="url(#clip130)"
     d="m 2599.58,1226.3 q 0,-1.52 0.12,-1.97 0.17,-0.45 0.82,-1.15 l 16.11,-17.95 q 8.81,-9.92 8.81,-18.57 0,-5.61 -2.95,-9.63 -2.91,-4.02 -8.28,-4.02 -3.69,0 -6.8,2.26 -3.12,2.25 -4.55,6.27 0.24,-0.08 1.1,-0.08 2.09,0 3.24,1.31 1.19,1.31 1.19,3.07 0,2.26 -1.47,3.36 -1.44,1.07 -2.87,1.07 -0.58,0 -1.36,-0.12 -0.73,-0.13 -1.92,-1.28 -1.19,-1.18 -1.19,-3.27 0,-5.87 4.43,-10.54 4.46,-4.67 11.27,-4.67 7.7,0 12.74,4.59 5.09,4.55 5.09,11.68 0,2.5 -0.78,4.8 -0.74,2.25 -1.76,4.01 -0.99,1.77 -3.69,4.59 -2.71,2.83 -4.88,4.84 -2.17,2.01 -7.05,6.27 l -8.9,8.65 h 15.13 q 7.38,0 7.95,-0.65 0.82,-1.19 1.85,-7.46 h 2.13 l -2.38,14.59 z"
     fill="#000000"
     fill-rule="nonzero"
     fill-opacity="1"
     id="path353"
     transform="translate(92.35,39.717622)" />
  <polyline
     clip-path="url(#clip130)"
     style="fill:none;stroke:#3da44d;stroke-width:16;stroke-linecap:round;stroke-linejoin:round;stroke-dasharray:none;stroke-opacity:1"
     points="2370.16,1297.41 2518.36,1297.41 "
     id="polyline355"
     transform="translate(92.35,39.717622)" />
  <path
     clip-path="url(#clip130)"
     d="m 2587.22,1286.58 q 0,8.43 -4.28,16.69 -4.21,8.2 -11.01,13.35 -6.73,5.15 -13.64,5.15 -6.73,0 -11.01,-5.15 -4.22,-5.21 -4.22,-13.7 0,-2.99 0.36,-5.1 0.35,-2.1 1.58,-7.02 l 9.83,-39.12 q 1.7,-7.32 1.7,-7.38 0,-0.7 -0.29,-1.05 -0.23,-0.41 -1.64,-0.7 -1.4,-0.3 -4.1,-0.3 -1.11,0 -1.64,-0.05 -0.47,-0.06 -0.88,-0.36 -0.35,-0.35 -0.35,-1.05 0,-1 0.41,-1.52 0.47,-0.59 0.82,-0.71 0.35,-0.11 1.06,-0.17 0.99,-0.06 4.33,-0.35 3.34,-0.35 6.21,-0.59 2.87,-0.23 4.09,-0.23 0.71,0 1.06,0.35 0.41,0.29 0.41,0.64 l 0.06,0.3 -8.84,36.13 q 6.96,-7.21 14.05,-7.21 7.08,0 11.48,5.45 4.45,5.44 4.45,13.7 m -8.67,-5.27 q 0,-5.56 -2.11,-8.37 -2.05,-2.87 -5.44,-2.87 -2.87,0 -6.62,2.16 -3.75,2.17 -7.73,7.44 -0.76,1 -1.05,1.58 -0.24,0.59 -0.77,2.58 l -2.63,11.07 q -1.93,7.55 -1.93,12.12 0,6.2 2.28,9.13 2.28,2.93 5.74,2.93 3.63,0 7.44,-3.22 3.8,-3.22 6.73,-9.08 1.82,-3.86 3.92,-12.18 2.17,-8.37 2.17,-13.29 z"
     fill="#000000"
     fill-rule="nonzero"
     fill-opacity="1"
     id="path357"
     transform="translate(92.35,39.717622)" />
  <path
     clip-path="url(#clip130)"
     d="m 2599.58,1343.67 q 0,-2.5 1.43,-3.69 1.44,-1.19 3.28,-1.19 1.93,0 3.28,1.28 1.39,1.22 1.39,3.4 0,2.33 -1.63,3.65 -1.6,1.31 -3.9,0.98 2.01,3.36 5.7,4.88 3.73,1.51 7.17,1.51 3.61,0 6.52,-3.11 2.95,-3.12 2.95,-10.74 0,-6.48 -2.54,-10.21 -2.5,-3.73 -7.46,-3.73 h -3.69 q -1.27,0 -1.64,-0.12 -0.37,-0.12 -0.37,-0.82 0,-0.82 1.27,-0.98 1.27,0 3.28,-0.25 4.88,-0.16 7.46,-4.39 2.34,-3.93 2.34,-9.55 0,-5.12 -2.46,-7.25 -2.42,-2.17 -5.58,-2.17 -2.95,0 -6.19,1.23 -3.23,1.23 -5,3.97 5.21,0 5.21,4.22 0,1.85 -1.19,3.08 -1.15,1.19 -3.07,1.19 -1.85,0 -3.08,-1.15 -1.23,-1.19 -1.23,-3.2 0,-4.79 4.27,-8.11 4.3,-3.32 10.61,-3.32 6.23,0 10.82,3.27 4.63,3.28 4.63,8.33 0,4.96 -3.27,9.01 -3.28,4.06 -8.49,5.74 6.4,1.27 10.21,5.62 3.81,4.3 3.81,9.59 0,6.56 -5.17,11.39 -5.16,4.8 -12.7,4.8 -6.97,0 -11.97,-3.77 -5,-3.77 -5,-9.39 z"
     fill="#000000"
     fill-rule="nonzero"
     fill-opacity="1"
     id="path359"
     transform="translate(92.35,39.717622)" />
  <polyline
     clip-path="url(#clip130)"
     style="fill:none;stroke:#c271d2;stroke-width:16;stroke-linecap:round;stroke-linejoin:round;stroke-dasharray:none;stroke-opacity:1"
     points="2370.16,1427.01 2518.36,1427.01 "
     id="polyline361"
     transform="translate(92.35,39.717622)" />
  <path
     clip-path="url(#clip130)"
     d="m 2587.22,1416.81 q 0,8.44 -4.28,16.69 -4.21,8.2 -11.01,13.35 -6.73,5.16 -13.64,5.16 -6.73,0 -11.01,-5.16 -4.22,-5.21 -4.22,-13.7 0,-2.99 0.36,-5.09 0.35,-2.11 1.58,-7.03 l 9.83,-39.12 q 1.7,-7.32 1.7,-7.37 0,-0.71 -0.29,-1.06 -0.23,-0.41 -1.64,-0.7 -1.4,-0.29 -4.1,-0.29 -1.11,0 -1.64,-0.06 -0.47,-0.06 -0.88,-0.35 -0.35,-0.35 -0.35,-1.06 0,-0.99 0.41,-1.52 0.47,-0.59 0.82,-0.7 0.35,-0.12 1.06,-0.18 0.99,-0.06 4.33,-0.35 3.34,-0.35 6.21,-0.58 2.87,-0.24 4.09,-0.24 0.71,0 1.06,0.35 0.41,0.3 0.41,0.65 l 0.06,0.29 -8.84,36.13 q 6.96,-7.2 14.05,-7.2 7.08,0 11.48,5.44 4.45,5.45 4.45,13.7 m -8.67,-5.27 q 0,-5.56 -2.11,-8.37 -2.05,-2.87 -5.44,-2.87 -2.87,0 -6.62,2.17 -3.75,2.16 -7.73,7.43 -0.76,1 -1.05,1.59 -0.24,0.58 -0.77,2.57 l -2.63,11.07 q -1.93,7.55 -1.93,12.12 0,6.21 2.28,9.13 2.28,2.93 5.74,2.93 3.63,0 7.44,-3.22 3.8,-3.22 6.73,-9.07 1.82,-3.87 3.92,-12.18 2.17,-8.38 2.17,-13.3 z"
     fill="#000000"
     fill-rule="nonzero"
     fill-opacity="1"
     id="path363"
     transform="translate(92.35,39.717622)" />
  <path
     clip-path="url(#clip130)"
     d="m 2599.58,1471.92 v -2.58 l 25.78,-39.39 q 0.66,-1.03 1.68,-0.98 0.94,0 1.15,0.36 0.2,0.37 0.2,1.81 v 38.2 h 8.41 v 2.58 h -8.41 v 7.3 q 0,2.42 0.99,3.2 1.02,0.77 5.37,0.77 h 1.76 v 2.59 q -3.44,-0.25 -11.4,-0.25 -7.91,0 -11.35,0.25 v -2.59 h 1.76 q 4.35,0 5.37,-0.73 1.03,-0.78 1.03,-3.24 v -7.3 h -22.34 m 2.38,-2.58 h 20.45 v -31.32 z"
     fill="#000000"
     fill-rule="nonzero"
     fill-opacity="1"
     id="path365"
     transform="translate(92.35,39.717622)" />
  <rect
     style="fill:none;fill-rule:evenodd;stroke:#00000c;stroke-width:6.4;stroke-linecap:square;stroke-linejoin:round;stroke-dasharray:none;stroke-opacity:1"
     id="rect1371"
     width="336.33704"
     height="534.61432"
     x="2437.2927"
     y="1005.1657" />
</svg>
