<?xml version="1.0" encoding="utf-8"?>
<svg xmlns="http://www.w3.org/2000/svg" xmlns:xlink="http://www.w3.org/1999/xlink" width="1200" height="800" viewBox="0 0 4800 3200">
<defs>
  <clipPath id="clip840">
    <rect x="0" y="0" width="4800" height="3200"/>
  </clipPath>
</defs>
<path clip-path="url(#clip840)" d="M0 3200 L4800 3200 L4800 0 L0 0  Z" fill="#ffffff" fill-rule="evenodd" fill-opacity="1"/>
<defs>
  <clipPath id="clip841">
    <rect x="960" y="0" width="3361" height="3200"/>
  </clipPath>
</defs>
<path clip-path="url(#clip840)" d="M359.944 2928.44 L4752.76 2928.44 L4752.76 262.692 L359.944 262.692  Z" fill="#ffffff" fill-rule="evenodd" fill-opacity="1"/>
<defs>
  <clipPath id="clip842">
    <rect x="359" y="262" width="4394" height="2667"/>
  </clipPath>
</defs>
<polyline clip-path="url(#clip842)" style="stroke:#000000; stroke-linecap:round; stroke-linejoin:round; stroke-width:2; stroke-opacity:0.1; fill:none" points="484.269,2928.44 484.269,262.692 "/>
<polyline clip-path="url(#clip842)" style="stroke:#000000; stroke-linecap:round; stroke-linejoin:round; stroke-width:2; stroke-opacity:0.1; fill:none" points="1520.31,2928.44 1520.31,262.692 "/>
<polyline clip-path="url(#clip842)" style="stroke:#000000; stroke-linecap:round; stroke-linejoin:round; stroke-width:2; stroke-opacity:0.1; fill:none" points="2556.35,2928.44 2556.35,262.692 "/>
<polyline clip-path="url(#clip842)" style="stroke:#000000; stroke-linecap:round; stroke-linejoin:round; stroke-width:2; stroke-opacity:0.1; fill:none" points="3592.39,2928.44 3592.39,262.692 "/>
<polyline clip-path="url(#clip842)" style="stroke:#000000; stroke-linecap:round; stroke-linejoin:round; stroke-width:2; stroke-opacity:0.1; fill:none" points="4628.43,2928.44 4628.43,262.692 "/>
<polyline clip-path="url(#clip842)" style="stroke:#000000; stroke-linecap:round; stroke-linejoin:round; stroke-width:2; stroke-opacity:0.1; fill:none" points="359.944,2603.75 4752.76,2603.75 "/>
<polyline clip-path="url(#clip842)" style="stroke:#000000; stroke-linecap:round; stroke-linejoin:round; stroke-width:2; stroke-opacity:0.1; fill:none" points="359.944,2267.69 4752.76,2267.69 "/>
<polyline clip-path="url(#clip842)" style="stroke:#000000; stroke-linecap:round; stroke-linejoin:round; stroke-width:2; stroke-opacity:0.1; fill:none" points="359.944,1931.63 4752.76,1931.63 "/>
<polyline clip-path="url(#clip842)" style="stroke:#000000; stroke-linecap:round; stroke-linejoin:round; stroke-width:2; stroke-opacity:0.1; fill:none" points="359.944,1595.57 4752.76,1595.57 "/>
<polyline clip-path="url(#clip842)" style="stroke:#000000; stroke-linecap:round; stroke-linejoin:round; stroke-width:2; stroke-opacity:0.1; fill:none" points="359.944,1259.5 4752.76,1259.5 "/>
<polyline clip-path="url(#clip842)" style="stroke:#000000; stroke-linecap:round; stroke-linejoin:round; stroke-width:2; stroke-opacity:0.1; fill:none" points="359.944,923.442 4752.76,923.442 "/>
<polyline clip-path="url(#clip842)" style="stroke:#000000; stroke-linecap:round; stroke-linejoin:round; stroke-width:2; stroke-opacity:0.1; fill:none" points="359.944,587.381 4752.76,587.381 "/>
<polyline clip-path="url(#clip840)" style="stroke:#000000; stroke-linecap:round; stroke-linejoin:round; stroke-width:4; stroke-opacity:1; fill:none" points="359.944,2928.44 4752.76,2928.44 "/>
<polyline clip-path="url(#clip840)" style="stroke:#000000; stroke-linecap:round; stroke-linejoin:round; stroke-width:4; stroke-opacity:1; fill:none" points="484.269,2928.44 484.269,2909.54 "/>
<polyline clip-path="url(#clip840)" style="stroke:#000000; stroke-linecap:round; stroke-linejoin:round; stroke-width:4; stroke-opacity:1; fill:none" points="1520.31,2928.44 1520.31,2909.54 "/>
<polyline clip-path="url(#clip840)" style="stroke:#000000; stroke-linecap:round; stroke-linejoin:round; stroke-width:4; stroke-opacity:1; fill:none" points="2556.35,2928.44 2556.35,2909.54 "/>
<polyline clip-path="url(#clip840)" style="stroke:#000000; stroke-linecap:round; stroke-linejoin:round; stroke-width:4; stroke-opacity:1; fill:none" points="3592.39,2928.44 3592.39,2909.54 "/>
<polyline clip-path="url(#clip840)" style="stroke:#000000; stroke-linecap:round; stroke-linejoin:round; stroke-width:4; stroke-opacity:1; fill:none" points="4628.43,2928.44 4628.43,2909.54 "/>
<path clip-path="url(#clip840)" d="M430.797 2993.21 L460.473 2993.21 L460.473 2997.15 L430.797 2997.15 L430.797 2993.21 Z" fill="#000000" fill-rule="nonzero" fill-opacity="1" /><path clip-path="url(#clip840)" d="M471.376 3006.1 L479.014 3006.1 L479.014 2979.74 L470.704 2981.41 L470.704 2977.15 L478.968 2975.48 L483.644 2975.48 L483.644 3006.1 L491.283 3006.1 L491.283 3010.04 L471.376 3010.04 L471.376 3006.1 Z" fill="#000000" fill-rule="nonzero" fill-opacity="1" /><path clip-path="url(#clip840)" d="M500.727 3004.16 L505.612 3004.16 L505.612 3010.04 L500.727 3010.04 L500.727 3004.16 Z" fill="#000000" fill-rule="nonzero" fill-opacity="1" /><path clip-path="url(#clip840)" d="M525.797 2978.56 Q522.186 2978.56 520.357 2982.12 Q518.551 2985.66 518.551 2992.79 Q518.551 2999.9 520.357 3003.47 Q522.186 3007.01 525.797 3007.01 Q529.431 3007.01 531.236 3003.47 Q533.065 2999.9 533.065 2992.79 Q533.065 2985.66 531.236 2982.12 Q529.431 2978.56 525.797 2978.56 M525.797 2974.85 Q531.607 2974.85 534.662 2979.46 Q537.741 2984.04 537.741 2992.79 Q537.741 3001.52 534.662 3006.13 Q531.607 3010.71 525.797 3010.71 Q519.986 3010.71 516.908 3006.13 Q513.852 3001.52 513.852 2992.79 Q513.852 2984.04 516.908 2979.46 Q519.986 2974.85 525.797 2974.85 Z" fill="#000000" fill-rule="nonzero" fill-opacity="1" /><path clip-path="url(#clip840)" d="M1467.34 2993.21 L1497.01 2993.21 L1497.01 2997.15 L1467.34 2997.15 L1467.34 2993.21 Z" fill="#000000" fill-rule="nonzero" fill-opacity="1" /><path clip-path="url(#clip840)" d="M1517.1 2978.56 Q1513.49 2978.56 1511.66 2982.12 Q1509.86 2985.66 1509.86 2992.79 Q1509.86 2999.9 1511.66 3003.47 Q1513.49 3007.01 1517.1 3007.01 Q1520.74 3007.01 1522.54 3003.47 Q1524.37 2999.9 1524.37 2992.79 Q1524.37 2985.66 1522.54 2982.12 Q1520.74 2978.56 1517.1 2978.56 M1517.1 2974.85 Q1522.91 2974.85 1525.97 2979.46 Q1529.05 2984.04 1529.05 2992.79 Q1529.05 3001.52 1525.97 3006.13 Q1522.91 3010.71 1517.1 3010.71 Q1511.29 3010.71 1508.21 3006.13 Q1505.16 3001.52 1505.16 2992.79 Q1505.16 2984.04 1508.21 2979.46 Q1511.29 2974.85 1517.1 2974.85 Z" fill="#000000" fill-rule="nonzero" fill-opacity="1" /><path clip-path="url(#clip840)" d="M1537.27 3004.16 L1542.15 3004.16 L1542.15 3010.04 L1537.27 3010.04 L1537.27 3004.16 Z" fill="#000000" fill-rule="nonzero" fill-opacity="1" /><path clip-path="url(#clip840)" d="M1552.38 2975.48 L1570.74 2975.48 L1570.74 2979.41 L1556.66 2979.41 L1556.66 2987.89 Q1557.68 2987.54 1558.7 2987.38 Q1559.72 2987.19 1560.74 2987.19 Q1566.52 2987.19 1569.9 2990.36 Q1573.28 2993.54 1573.28 2998.95 Q1573.28 3004.53 1569.81 3007.63 Q1566.34 3010.71 1560.02 3010.71 Q1557.84 3010.71 1555.58 3010.34 Q1553.33 3009.97 1550.92 3009.23 L1550.92 3004.53 Q1553.01 3005.66 1555.23 3006.22 Q1557.45 3006.78 1559.93 3006.78 Q1563.93 3006.78 1566.27 3004.67 Q1568.61 3002.56 1568.61 2998.95 Q1568.61 2995.34 1566.27 2993.23 Q1563.93 2991.13 1559.93 2991.13 Q1558.05 2991.13 1556.18 2991.54 Q1554.33 2991.96 1552.38 2992.84 L1552.38 2975.48 Z" fill="#000000" fill-rule="nonzero" fill-opacity="1" /><path clip-path="url(#clip840)" d="M2533.73 2978.56 Q2530.12 2978.56 2528.29 2982.12 Q2526.49 2985.66 2526.49 2992.79 Q2526.49 2999.9 2528.29 3003.47 Q2530.12 3007.01 2533.73 3007.01 Q2537.37 3007.01 2539.17 3003.47 Q2541 2999.9 2541 2992.79 Q2541 2985.66 2539.17 2982.12 Q2537.37 2978.56 2533.73 2978.56 M2533.73 2974.85 Q2539.54 2974.85 2542.6 2979.46 Q2545.68 2984.04 2545.68 2992.79 Q2545.68 3001.52 2542.6 3006.13 Q2539.54 3010.71 2533.73 3010.71 Q2527.92 3010.71 2524.85 3006.13 Q2521.79 3001.52 2521.79 2992.79 Q2521.79 2984.04 2524.85 2979.46 Q2527.92 2974.85 2533.73 2974.85 Z" fill="#000000" fill-rule="nonzero" fill-opacity="1" /><path clip-path="url(#clip840)" d="M2553.9 3004.16 L2558.78 3004.16 L2558.78 3010.04 L2553.9 3010.04 L2553.9 3004.16 Z" fill="#000000" fill-rule="nonzero" fill-opacity="1" /><path clip-path="url(#clip840)" d="M2578.97 2978.56 Q2575.35 2978.56 2573.53 2982.12 Q2571.72 2985.66 2571.72 2992.79 Q2571.72 2999.9 2573.53 3003.47 Q2575.35 3007.01 2578.97 3007.01 Q2582.6 3007.01 2584.41 3003.47 Q2586.23 2999.9 2586.23 2992.79 Q2586.23 2985.66 2584.41 2982.12 Q2582.6 2978.56 2578.97 2978.56 M2578.97 2974.85 Q2584.78 2974.85 2587.83 2979.46 Q2590.91 2984.04 2590.91 2992.79 Q2590.91 3001.52 2587.83 3006.13 Q2584.78 3010.71 2578.97 3010.71 Q2573.16 3010.71 2570.08 3006.13 Q2567.02 3001.52 2567.02 2992.79 Q2567.02 2984.04 2570.08 2979.46 Q2573.16 2974.85 2578.97 2974.85 Z" fill="#000000" fill-rule="nonzero" fill-opacity="1" /><path clip-path="url(#clip840)" d="M3570.27 2978.56 Q3566.66 2978.56 3564.83 2982.12 Q3563.03 2985.66 3563.03 2992.79 Q3563.03 2999.9 3564.83 3003.47 Q3566.66 3007.01 3570.27 3007.01 Q3573.91 3007.01 3575.71 3003.47 Q3577.54 2999.9 3577.54 2992.79 Q3577.54 2985.66 3575.71 2982.12 Q3573.91 2978.56 3570.27 2978.56 M3570.27 2974.85 Q3576.08 2974.85 3579.14 2979.46 Q3582.22 2984.04 3582.22 2992.79 Q3582.22 3001.52 3579.14 3006.13 Q3576.08 3010.71 3570.27 3010.71 Q3564.46 3010.71 3561.38 3006.13 Q3558.33 3001.52 3558.33 2992.79 Q3558.33 2984.04 3561.38 2979.46 Q3564.46 2974.85 3570.27 2974.85 Z" fill="#000000" fill-rule="nonzero" fill-opacity="1" /><path clip-path="url(#clip840)" d="M3590.43 3004.16 L3595.32 3004.16 L3595.32 3010.04 L3590.43 3010.04 L3590.43 3004.16 Z" fill="#000000" fill-rule="nonzero" fill-opacity="1" /><path clip-path="url(#clip840)" d="M3605.55 2975.48 L3623.91 2975.48 L3623.91 2979.41 L3609.83 2979.41 L3609.83 2987.89 Q3610.85 2987.54 3611.87 2987.38 Q3612.89 2987.19 3613.91 2987.19 Q3619.69 2987.19 3623.07 2990.36 Q3626.45 2993.54 3626.45 2998.95 Q3626.45 3004.53 3622.98 3007.63 Q3619.51 3010.71 3613.19 3010.71 Q3611.01 3010.71 3608.74 3010.34 Q3606.5 3009.97 3604.09 3009.23 L3604.09 3004.53 Q3606.18 3005.66 3608.4 3006.22 Q3610.62 3006.78 3613.1 3006.78 Q3617.1 3006.78 3619.44 3004.67 Q3621.78 3002.56 3621.78 2998.95 Q3621.78 2995.34 3619.44 2993.23 Q3617.1 2991.13 3613.1 2991.13 Q3611.22 2991.13 3609.35 2991.54 Q3607.49 2991.96 3605.55 2992.84 L3605.55 2975.48 Z" fill="#000000" fill-rule="nonzero" fill-opacity="1" /><path clip-path="url(#clip840)" d="M4595.58 3006.1 L4603.22 3006.1 L4603.22 2979.74 L4594.91 2981.41 L4594.91 2977.15 L4603.18 2975.48 L4607.85 2975.48 L4607.85 3006.1 L4615.49 3006.1 L4615.49 3010.04 L4595.58 3010.04 L4595.58 3006.1 Z" fill="#000000" fill-rule="nonzero" fill-opacity="1" /><path clip-path="url(#clip840)" d="M4624.94 3004.16 L4629.82 3004.16 L4629.82 3010.04 L4624.94 3010.04 L4624.94 3004.16 Z" fill="#000000" fill-rule="nonzero" fill-opacity="1" /><path clip-path="url(#clip840)" d="M4650.01 2978.56 Q4646.39 2978.56 4644.57 2982.12 Q4642.76 2985.66 4642.76 2992.79 Q4642.76 2999.9 4644.57 3003.47 Q4646.39 3007.01 4650.01 3007.01 Q4653.64 3007.01 4655.44 3003.47 Q4657.27 2999.9 4657.27 2992.79 Q4657.27 2985.66 4655.44 2982.12 Q4653.64 2978.56 4650.01 2978.56 M4650.01 2974.85 Q4655.82 2974.85 4658.87 2979.46 Q4661.95 2984.04 4661.95 2992.79 Q4661.95 3001.52 4658.87 3006.13 Q4655.82 3010.71 4650.01 3010.71 Q4644.19 3010.71 4641.12 3006.13 Q4638.06 3001.52 4638.06 2992.79 Q4638.06 2984.04 4641.12 2979.46 Q4644.19 2974.85 4650.01 2974.85 Z" fill="#000000" fill-rule="nonzero" fill-opacity="1" /><path clip-path="url(#clip840)" d="M2572.96 3073.66 L2560.07 3091 L2573.63 3109.3 L2566.73 3109.3 L2556.35 3095.3 L2545.97 3109.3 L2539.07 3109.3 L2552.91 3090.65 L2540.24 3073.66 L2547.15 3073.66 L2556.6 3086.36 L2566.06 3073.66 L2572.96 3073.66 Z" fill="#000000" fill-rule="nonzero" fill-opacity="1" /><polyline clip-path="url(#clip840)" style="stroke:#000000; stroke-linecap:round; stroke-linejoin:round; stroke-width:4; stroke-opacity:1; fill:none" points="359.944,2928.44 359.944,262.692 "/>
<polyline clip-path="url(#clip840)" style="stroke:#000000; stroke-linecap:round; stroke-linejoin:round; stroke-width:4; stroke-opacity:1; fill:none" points="359.944,2603.75 378.842,2603.75 "/>
<polyline clip-path="url(#clip840)" style="stroke:#000000; stroke-linecap:round; stroke-linejoin:round; stroke-width:4; stroke-opacity:1; fill:none" points="359.944,2267.69 378.842,2267.69 "/>
<polyline clip-path="url(#clip840)" style="stroke:#000000; stroke-linecap:round; stroke-linejoin:round; stroke-width:4; stroke-opacity:1; fill:none" points="359.944,1931.63 378.842,1931.63 "/>
<polyline clip-path="url(#clip840)" style="stroke:#000000; stroke-linecap:round; stroke-linejoin:round; stroke-width:4; stroke-opacity:1; fill:none" points="359.944,1595.57 378.842,1595.57 "/>
<polyline clip-path="url(#clip840)" style="stroke:#000000; stroke-linecap:round; stroke-linejoin:round; stroke-width:4; stroke-opacity:1; fill:none" points="359.944,1259.5 378.842,1259.5 "/>
<polyline clip-path="url(#clip840)" style="stroke:#000000; stroke-linecap:round; stroke-linejoin:round; stroke-width:4; stroke-opacity:1; fill:none" points="359.944,923.442 378.842,923.442 "/>
<polyline clip-path="url(#clip840)" style="stroke:#000000; stroke-linecap:round; stroke-linejoin:round; stroke-width:4; stroke-opacity:1; fill:none" points="359.944,587.381 378.842,587.381 "/>
<path clip-path="url(#clip840)" d="M181.996 2604.2 L211.671 2604.2 L211.671 2608.14 L181.996 2608.14 L181.996 2604.2 Z" fill="#000000" fill-rule="nonzero" fill-opacity="1" /><path clip-path="url(#clip840)" d="M222.574 2617.1 L230.213 2617.1 L230.213 2590.73 L221.903 2592.4 L221.903 2588.14 L230.167 2586.47 L234.843 2586.47 L234.843 2617.1 L242.481 2617.1 L242.481 2621.03 L222.574 2621.03 L222.574 2617.1 Z" fill="#000000" fill-rule="nonzero" fill-opacity="1" /><path clip-path="url(#clip840)" d="M251.926 2615.15 L256.81 2615.15 L256.81 2621.03 L251.926 2621.03 L251.926 2615.15 Z" fill="#000000" fill-rule="nonzero" fill-opacity="1" /><path clip-path="url(#clip840)" d="M267.042 2586.47 L285.398 2586.47 L285.398 2590.41 L271.324 2590.41 L271.324 2598.88 Q272.342 2598.53 273.361 2598.37 Q274.379 2598.18 275.398 2598.18 Q281.185 2598.18 284.565 2601.36 Q287.944 2604.53 287.944 2609.94 Q287.944 2615.52 284.472 2618.62 Q281 2621.7 274.68 2621.7 Q272.504 2621.7 270.236 2621.33 Q267.991 2620.96 265.583 2620.22 L265.583 2615.52 Q267.667 2616.66 269.889 2617.21 Q272.111 2617.77 274.588 2617.77 Q278.592 2617.77 280.93 2615.66 Q283.268 2613.55 283.268 2609.94 Q283.268 2606.33 280.93 2604.23 Q278.592 2602.12 274.588 2602.12 Q272.713 2602.12 270.838 2602.54 Q268.986 2602.95 267.042 2603.83 L267.042 2586.47 Z" fill="#000000" fill-rule="nonzero" fill-opacity="1" /><path clip-path="url(#clip840)" d="M181 2268.14 L210.676 2268.14 L210.676 2272.08 L181 2272.08 L181 2268.14 Z" fill="#000000" fill-rule="nonzero" fill-opacity="1" /><path clip-path="url(#clip840)" d="M221.579 2281.03 L229.218 2281.03 L229.218 2254.67 L220.908 2256.34 L220.908 2252.08 L229.171 2250.41 L233.847 2250.41 L233.847 2281.03 L241.486 2281.03 L241.486 2284.97 L221.579 2284.97 L221.579 2281.03 Z" fill="#000000" fill-rule="nonzero" fill-opacity="1" /><path clip-path="url(#clip840)" d="M250.93 2279.09 L255.815 2279.09 L255.815 2284.97 L250.93 2284.97 L250.93 2279.09 Z" fill="#000000" fill-rule="nonzero" fill-opacity="1" /><path clip-path="url(#clip840)" d="M276 2253.49 Q272.389 2253.49 270.56 2257.05 Q268.754 2260.59 268.754 2267.72 Q268.754 2274.83 270.56 2278.4 Q272.389 2281.94 276 2281.94 Q279.634 2281.94 281.44 2278.4 Q283.268 2274.83 283.268 2267.72 Q283.268 2260.59 281.44 2257.05 Q279.634 2253.49 276 2253.49 M276 2249.78 Q281.81 2249.78 284.865 2254.39 Q287.944 2258.97 287.944 2267.72 Q287.944 2276.45 284.865 2281.06 Q281.81 2285.64 276 2285.64 Q270.19 2285.64 267.111 2281.06 Q264.055 2276.45 264.055 2267.72 Q264.055 2258.97 267.111 2254.39 Q270.19 2249.78 276 2249.78 Z" fill="#000000" fill-rule="nonzero" fill-opacity="1" /><path clip-path="url(#clip840)" d="M181.996 1932.08 L211.671 1932.08 L211.671 1936.01 L181.996 1936.01 L181.996 1932.08 Z" fill="#000000" fill-rule="nonzero" fill-opacity="1" /><path clip-path="url(#clip840)" d="M231.764 1917.43 Q228.153 1917.43 226.324 1920.99 Q224.519 1924.53 224.519 1931.66 Q224.519 1938.77 226.324 1942.33 Q228.153 1945.88 231.764 1945.88 Q235.398 1945.88 237.204 1942.33 Q239.032 1938.77 239.032 1931.66 Q239.032 1924.53 237.204 1920.99 Q235.398 1917.43 231.764 1917.43 M231.764 1913.72 Q237.574 1913.72 240.63 1918.33 Q243.708 1922.91 243.708 1931.66 Q243.708 1940.39 240.63 1945 Q237.574 1949.58 231.764 1949.58 Q225.954 1949.58 222.875 1945 Q219.82 1940.39 219.82 1931.66 Q219.82 1922.91 222.875 1918.33 Q225.954 1913.72 231.764 1913.72 Z" fill="#000000" fill-rule="nonzero" fill-opacity="1" /><path clip-path="url(#clip840)" d="M251.926 1943.03 L256.81 1943.03 L256.81 1948.91 L251.926 1948.91 L251.926 1943.03 Z" fill="#000000" fill-rule="nonzero" fill-opacity="1" /><path clip-path="url(#clip840)" d="M267.042 1914.35 L285.398 1914.35 L285.398 1918.28 L271.324 1918.28 L271.324 1926.76 Q272.342 1926.41 273.361 1926.25 Q274.379 1926.06 275.398 1926.06 Q281.185 1926.06 284.565 1929.23 Q287.944 1932.4 287.944 1937.82 Q287.944 1943.4 284.472 1946.5 Q281 1949.58 274.68 1949.58 Q272.504 1949.58 270.236 1949.21 Q267.991 1948.84 265.583 1948.1 L265.583 1943.4 Q267.667 1944.53 269.889 1945.09 Q272.111 1945.64 274.588 1945.64 Q278.592 1945.64 280.93 1943.54 Q283.268 1941.43 283.268 1937.82 Q283.268 1934.21 280.93 1932.1 Q278.592 1930 274.588 1930 Q272.713 1930 270.838 1930.41 Q268.986 1930.83 267.042 1931.71 L267.042 1914.35 Z" fill="#000000" fill-rule="nonzero" fill-opacity="1" /><path clip-path="url(#clip840)" d="M230.769 1581.36 Q227.157 1581.36 225.329 1584.93 Q223.523 1588.47 223.523 1595.6 Q223.523 1602.71 225.329 1606.27 Q227.157 1609.81 230.769 1609.81 Q234.403 1609.81 236.208 1606.27 Q238.037 1602.71 238.037 1595.6 Q238.037 1588.47 236.208 1584.93 Q234.403 1581.36 230.769 1581.36 M230.769 1577.66 Q236.579 1577.66 239.634 1582.27 Q242.713 1586.85 242.713 1595.6 Q242.713 1604.33 239.634 1608.93 Q236.579 1613.52 230.769 1613.52 Q224.958 1613.52 221.88 1608.93 Q218.824 1604.33 218.824 1595.6 Q218.824 1586.85 221.88 1582.27 Q224.958 1577.66 230.769 1577.66 Z" fill="#000000" fill-rule="nonzero" fill-opacity="1" /><path clip-path="url(#clip840)" d="M250.93 1606.97 L255.815 1606.97 L255.815 1612.85 L250.93 1612.85 L250.93 1606.97 Z" fill="#000000" fill-rule="nonzero" fill-opacity="1" /><path clip-path="url(#clip840)" d="M276 1581.36 Q272.389 1581.36 270.56 1584.93 Q268.754 1588.47 268.754 1595.6 Q268.754 1602.71 270.56 1606.27 Q272.389 1609.81 276 1609.81 Q279.634 1609.81 281.44 1606.27 Q283.268 1602.71 283.268 1595.6 Q283.268 1588.47 281.44 1584.93 Q279.634 1581.36 276 1581.36 M276 1577.66 Q281.81 1577.66 284.865 1582.27 Q287.944 1586.85 287.944 1595.6 Q287.944 1604.33 284.865 1608.93 Q281.81 1613.52 276 1613.52 Q270.19 1613.52 267.111 1608.93 Q264.055 1604.33 264.055 1595.6 Q264.055 1586.85 267.111 1582.27 Q270.19 1577.66 276 1577.66 Z" fill="#000000" fill-rule="nonzero" fill-opacity="1" /><path clip-path="url(#clip840)" d="M231.764 1245.3 Q228.153 1245.3 226.324 1248.87 Q224.519 1252.41 224.519 1259.54 Q224.519 1266.65 226.324 1270.21 Q228.153 1273.75 231.764 1273.75 Q235.398 1273.75 237.204 1270.21 Q239.032 1266.65 239.032 1259.54 Q239.032 1252.41 237.204 1248.87 Q235.398 1245.3 231.764 1245.3 M231.764 1241.6 Q237.574 1241.6 240.63 1246.21 Q243.708 1250.79 243.708 1259.54 Q243.708 1268.27 240.63 1272.87 Q237.574 1277.46 231.764 1277.46 Q225.954 1277.46 222.875 1272.87 Q219.82 1268.27 219.82 1259.54 Q219.82 1250.79 222.875 1246.21 Q225.954 1241.6 231.764 1241.6 Z" fill="#000000" fill-rule="nonzero" fill-opacity="1" /><path clip-path="url(#clip840)" d="M251.926 1270.9 L256.81 1270.9 L256.81 1276.78 L251.926 1276.78 L251.926 1270.9 Z" fill="#000000" fill-rule="nonzero" fill-opacity="1" /><path clip-path="url(#clip840)" d="M267.042 1242.22 L285.398 1242.22 L285.398 1246.16 L271.324 1246.16 L271.324 1254.63 Q272.342 1254.28 273.361 1254.12 Q274.379 1253.94 275.398 1253.94 Q281.185 1253.94 284.565 1257.11 Q287.944 1260.28 287.944 1265.7 Q287.944 1271.27 284.472 1274.38 Q281 1277.46 274.68 1277.46 Q272.504 1277.46 270.236 1277.09 Q267.991 1276.71 265.583 1275.97 L265.583 1271.27 Q267.667 1272.41 269.889 1272.96 Q272.111 1273.52 274.588 1273.52 Q278.592 1273.52 280.93 1271.41 Q283.268 1269.31 283.268 1265.7 Q283.268 1262.09 280.93 1259.98 Q278.592 1257.87 274.588 1257.87 Q272.713 1257.87 270.838 1258.29 Q268.986 1258.71 267.042 1259.59 L267.042 1242.22 Z" fill="#000000" fill-rule="nonzero" fill-opacity="1" /><path clip-path="url(#clip840)" d="M221.579 936.787 L229.218 936.787 L229.218 910.422 L220.908 912.088 L220.908 907.829 L229.171 906.162 L233.847 906.162 L233.847 936.787 L241.486 936.787 L241.486 940.722 L221.579 940.722 L221.579 936.787 Z" fill="#000000" fill-rule="nonzero" fill-opacity="1" /><path clip-path="url(#clip840)" d="M250.93 934.843 L255.815 934.843 L255.815 940.722 L250.93 940.722 L250.93 934.843 Z" fill="#000000" fill-rule="nonzero" fill-opacity="1" /><path clip-path="url(#clip840)" d="M276 909.241 Q272.389 909.241 270.56 912.806 Q268.754 916.348 268.754 923.477 Q268.754 930.584 270.56 934.148 Q272.389 937.69 276 937.69 Q279.634 937.69 281.44 934.148 Q283.268 930.584 283.268 923.477 Q283.268 916.348 281.44 912.806 Q279.634 909.241 276 909.241 M276 905.537 Q281.81 905.537 284.865 910.144 Q287.944 914.727 287.944 923.477 Q287.944 932.204 284.865 936.81 Q281.81 941.394 276 941.394 Q270.19 941.394 267.111 936.81 Q264.055 932.204 264.055 923.477 Q264.055 914.727 267.111 910.144 Q270.19 905.537 276 905.537 Z" fill="#000000" fill-rule="nonzero" fill-opacity="1" /><path clip-path="url(#clip840)" d="M222.574 600.725 L230.213 600.725 L230.213 574.36 L221.903 576.027 L221.903 571.767 L230.167 570.101 L234.843 570.101 L234.843 600.725 L242.481 600.725 L242.481 604.661 L222.574 604.661 L222.574 600.725 Z" fill="#000000" fill-rule="nonzero" fill-opacity="1" /><path clip-path="url(#clip840)" d="M251.926 598.781 L256.81 598.781 L256.81 604.661 L251.926 604.661 L251.926 598.781 Z" fill="#000000" fill-rule="nonzero" fill-opacity="1" /><path clip-path="url(#clip840)" d="M267.042 570.101 L285.398 570.101 L285.398 574.036 L271.324 574.036 L271.324 582.508 Q272.342 582.161 273.361 581.999 Q274.379 581.814 275.398 581.814 Q281.185 581.814 284.565 584.985 Q287.944 588.156 287.944 593.573 Q287.944 599.151 284.472 602.253 Q281 605.332 274.68 605.332 Q272.504 605.332 270.236 604.962 Q267.991 604.591 265.583 603.85 L265.583 599.151 Q267.667 600.286 269.889 600.841 Q272.111 601.397 274.588 601.397 Q278.592 601.397 280.93 599.29 Q283.268 597.184 283.268 593.573 Q283.268 589.962 280.93 587.855 Q278.592 585.749 274.588 585.749 Q272.713 585.749 270.838 586.165 Q268.986 586.582 267.042 587.462 L267.042 570.101 Z" fill="#000000" fill-rule="nonzero" fill-opacity="1" /><path clip-path="url(#clip840)" d="M98.0545 1593.88 Q104.42 1596.36 106.362 1598.72 Q108.303 1601.07 108.303 1605.02 L108.303 1609.7 L103.402 1609.7 L103.402 1606.26 Q103.402 1603.84 102.256 1602.5 Q101.11 1601.17 96.845 1599.54 L94.1714 1598.49 L59.0964 1612.91 L59.0964 1606.71 L86.9782 1595.57 L59.0964 1584.43 L59.0964 1578.22 L98.0545 1593.88 Z" fill="#000000" fill-rule="nonzero" fill-opacity="1" /><path clip-path="url(#clip840)" d="M2165.8 33.264 L2173.99 33.264 L2173.99 86.8575 L2203.44 86.8575 L2203.44 93.744 L2165.8 93.744 L2165.8 33.264 Z" fill="#000000" fill-rule="nonzero" fill-opacity="1" /><path clip-path="url(#clip840)" d="M2249.05 69.1955 L2249.05 72.8413 L2214.78 72.8413 Q2215.26 80.5381 2219.4 84.589 Q2223.57 88.5994 2230.98 88.5994 Q2235.28 88.5994 2239.29 87.5461 Q2243.34 86.4929 2247.31 84.3864 L2247.31 91.435 Q2243.3 93.1364 2239.08 94.0276 Q2234.87 94.9188 2230.54 94.9188 Q2219.68 94.9188 2213.32 88.5994 Q2207 82.2799 2207 71.5045 Q2207 60.3645 2213 53.8426 Q2219.03 47.2801 2229.24 47.2801 Q2238.39 47.2801 2243.7 53.1944 Q2249.05 59.0683 2249.05 69.1955 M2241.59 67.008 Q2241.51 60.8912 2238.15 57.2454 Q2234.83 53.5995 2229.32 53.5995 Q2223.08 53.5995 2219.31 57.1238 Q2215.59 60.6481 2215.02 67.0485 L2241.59 67.008 Z" fill="#000000" fill-rule="nonzero" fill-opacity="1" /><path clip-path="url(#clip840)" d="M2291.14 70.5323 Q2291.14 62.4305 2287.78 57.9745 Q2284.45 53.5185 2278.42 53.5185 Q2272.42 53.5185 2269.06 57.9745 Q2265.74 62.4305 2265.74 70.5323 Q2265.74 78.5936 2269.06 83.0496 Q2272.42 87.5056 2278.42 87.5056 Q2284.45 87.5056 2287.78 83.0496 Q2291.14 78.5936 2291.14 70.5323 M2298.59 88.1132 Q2298.59 99.6988 2293.45 105.33 Q2288.3 111.001 2277.69 111.001 Q2273.76 111.001 2270.28 110.393 Q2266.79 109.826 2263.51 108.611 L2263.51 101.36 Q2266.79 103.142 2269.99 103.993 Q2273.19 104.843 2276.51 104.843 Q2283.85 104.843 2287.49 100.995 Q2291.14 97.1873 2291.14 89.45 L2291.14 85.7637 Q2288.83 89.7741 2285.22 91.7591 Q2281.62 93.744 2276.59 93.744 Q2268.25 93.744 2263.15 87.3841 Q2258.04 81.0242 2258.04 70.5323 Q2258.04 60 2263.15 53.64 Q2268.25 47.2801 2276.59 47.2801 Q2281.62 47.2801 2285.22 49.2651 Q2288.83 51.25 2291.14 55.2604 L2291.14 48.3739 L2298.59 48.3739 L2298.59 88.1132 Z" fill="#000000" fill-rule="nonzero" fill-opacity="1" /><path clip-path="url(#clip840)" d="M2352.75 69.1955 L2352.75 72.8413 L2318.48 72.8413 Q2318.97 80.5381 2323.1 84.589 Q2327.27 88.5994 2334.68 88.5994 Q2338.98 88.5994 2342.99 87.5461 Q2347.04 86.4929 2351.01 84.3864 L2351.01 91.435 Q2347 93.1364 2342.79 94.0276 Q2338.57 94.9188 2334.24 94.9188 Q2323.38 94.9188 2317.02 88.5994 Q2310.7 82.2799 2310.7 71.5045 Q2310.7 60.3645 2316.7 53.8426 Q2322.73 47.2801 2332.94 47.2801 Q2342.1 47.2801 2347.4 53.1944 Q2352.75 59.0683 2352.75 69.1955 M2345.3 67.008 Q2345.22 60.8912 2341.85 57.2454 Q2338.53 53.5995 2333.02 53.5995 Q2326.79 53.5995 2323.02 57.1238 Q2319.29 60.6481 2318.72 67.0485 L2345.3 67.008 Z" fill="#000000" fill-rule="nonzero" fill-opacity="1" /><path clip-path="url(#clip840)" d="M2402.7 66.3599 L2402.7 93.744 L2395.25 93.744 L2395.25 66.6029 Q2395.25 60.162 2392.73 56.9618 Q2390.22 53.7616 2385.2 53.7616 Q2379.16 53.7616 2375.68 57.6099 Q2372.2 61.4583 2372.2 68.1018 L2372.2 93.744 L2364.7 93.744 L2364.7 48.3739 L2372.2 48.3739 L2372.2 55.4224 Q2374.87 51.331 2378.47 49.3056 Q2382.12 47.2801 2386.86 47.2801 Q2394.68 47.2801 2398.69 52.1412 Q2402.7 56.9618 2402.7 66.3599 Z" fill="#000000" fill-rule="nonzero" fill-opacity="1" /><path clip-path="url(#clip840)" d="M2447.42 55.2604 L2447.42 30.7119 L2454.87 30.7119 L2454.87 93.744 L2447.42 93.744 L2447.42 86.9385 Q2445.07 90.9894 2441.47 92.9743 Q2437.9 94.9188 2432.88 94.9188 Q2424.66 94.9188 2419.47 88.3563 Q2414.33 81.7938 2414.33 71.0994 Q2414.33 60.4051 2419.47 53.8426 Q2424.66 47.2801 2432.88 47.2801 Q2437.9 47.2801 2441.47 49.2651 Q2445.07 51.2095 2447.42 55.2604 M2422.02 71.0994 Q2422.02 79.3228 2425.38 84.0218 Q2428.79 88.6804 2434.7 88.6804 Q2440.62 88.6804 2444.02 84.0218 Q2447.42 79.3228 2447.42 71.0994 Q2447.42 62.8761 2444.02 58.2176 Q2440.62 53.5185 2434.7 53.5185 Q2428.79 53.5185 2425.38 58.2176 Q2422.02 62.8761 2422.02 71.0994 Z" fill="#000000" fill-rule="nonzero" fill-opacity="1" /><path clip-path="url(#clip840)" d="M2496.52 55.3414 Q2495.26 54.6123 2493.76 54.2882 Q2492.31 53.9236 2490.52 53.9236 Q2484.2 53.9236 2480.8 58.0555 Q2477.44 62.1469 2477.44 69.8437 L2477.44 93.744 L2469.94 93.744 L2469.94 48.3739 L2477.44 48.3739 L2477.44 55.4224 Q2479.79 51.2905 2483.56 49.3056 Q2487.32 47.2801 2492.71 47.2801 Q2493.48 47.2801 2494.41 47.4017 Q2495.34 47.4827 2496.48 47.6852 L2496.52 55.3414 Z" fill="#000000" fill-rule="nonzero" fill-opacity="1" /><path clip-path="url(#clip840)" d="M2541.32 69.1955 L2541.32 72.8413 L2507.05 72.8413 Q2507.54 80.5381 2511.67 84.589 Q2515.84 88.5994 2523.25 88.5994 Q2527.55 88.5994 2531.56 87.5461 Q2535.61 86.4929 2539.58 84.3864 L2539.58 91.435 Q2535.57 93.1364 2531.36 94.0276 Q2527.14 94.9188 2522.81 94.9188 Q2511.95 94.9188 2505.59 88.5994 Q2499.27 82.2799 2499.27 71.5045 Q2499.27 60.3645 2505.27 53.8426 Q2511.3 47.2801 2521.51 47.2801 Q2530.67 47.2801 2535.97 53.1944 Q2541.32 59.0683 2541.32 69.1955 M2533.87 67.008 Q2533.79 60.8912 2530.42 57.2454 Q2527.1 53.5995 2521.59 53.5995 Q2515.35 53.5995 2511.59 57.1238 Q2507.86 60.6481 2507.29 67.0485 L2533.87 67.008 Z" fill="#000000" fill-rule="nonzero" fill-opacity="1" /><path clip-path="url(#clip840)" d="M2580.25 33.264 L2618.49 33.264 L2618.49 40.1505 L2588.43 40.1505 L2588.43 58.0555 L2617.24 58.0555 L2617.24 64.9421 L2588.43 64.9421 L2588.43 86.8575 L2619.22 86.8575 L2619.22 93.744 L2580.25 93.744 L2580.25 33.264 Z" fill="#000000" fill-rule="nonzero" fill-opacity="1" /><path clip-path="url(#clip840)" d="M2670.06 66.3599 L2670.06 93.744 L2662.61 93.744 L2662.61 66.6029 Q2662.61 60.162 2660.09 56.9618 Q2657.58 53.7616 2652.56 53.7616 Q2646.52 53.7616 2643.04 57.6099 Q2639.56 61.4583 2639.56 68.1018 L2639.56 93.744 L2632.06 93.744 L2632.06 48.3739 L2639.56 48.3739 L2639.56 55.4224 Q2642.23 51.331 2645.83 49.3056 Q2649.48 47.2801 2654.22 47.2801 Q2662.04 47.2801 2666.05 52.1412 Q2670.06 56.9618 2670.06 66.3599 Z" fill="#000000" fill-rule="nonzero" fill-opacity="1" /><path clip-path="url(#clip840)" d="M2717.58 50.1158 L2717.58 57.0833 Q2714.42 55.3414 2711.22 54.4907 Q2708.06 53.5995 2704.82 53.5995 Q2697.56 53.5995 2693.55 58.2176 Q2689.54 62.7951 2689.54 71.0994 Q2689.54 79.4038 2693.55 84.0218 Q2697.56 88.5994 2704.82 88.5994 Q2708.06 88.5994 2711.22 87.7487 Q2714.42 86.8575 2717.58 85.1156 L2717.58 92.0021 Q2714.46 93.4604 2711.09 94.1896 Q2707.77 94.9188 2704.01 94.9188 Q2693.76 94.9188 2687.72 88.4778 Q2681.69 82.0369 2681.69 71.0994 Q2681.69 60 2687.76 53.64 Q2693.88 47.2801 2704.49 47.2801 Q2707.93 47.2801 2711.22 48.0093 Q2714.5 48.6979 2717.58 50.1158 Z" fill="#000000" fill-rule="nonzero" fill-opacity="1" /><path clip-path="url(#clip840)" d="M2748.12 53.5995 Q2742.12 53.5995 2738.64 58.2986 Q2735.16 62.9571 2735.16 71.0994 Q2735.16 79.2418 2738.6 83.9408 Q2742.08 88.5994 2748.12 88.5994 Q2754.07 88.5994 2757.56 83.9003 Q2761.04 79.2013 2761.04 71.0994 Q2761.04 63.0381 2757.56 58.3391 Q2754.07 53.5995 2748.12 53.5995 M2748.12 47.2801 Q2757.84 47.2801 2763.39 53.5995 Q2768.94 59.9189 2768.94 71.0994 Q2768.94 82.2394 2763.39 88.5994 Q2757.84 94.9188 2748.12 94.9188 Q2738.36 94.9188 2732.81 88.5994 Q2727.3 82.2394 2727.3 71.0994 Q2727.3 59.9189 2732.81 53.5995 Q2738.36 47.2801 2748.12 47.2801 Z" fill="#000000" fill-rule="nonzero" fill-opacity="1" /><path clip-path="url(#clip840)" d="M2811.15 55.2604 L2811.15 30.7119 L2818.61 30.7119 L2818.61 93.744 L2811.15 93.744 L2811.15 86.9385 Q2808.8 90.9894 2805.2 92.9743 Q2801.63 94.9188 2796.61 94.9188 Q2788.39 94.9188 2783.2 88.3563 Q2778.06 81.7938 2778.06 71.0994 Q2778.06 60.4051 2783.2 53.8426 Q2788.39 47.2801 2796.61 47.2801 Q2801.63 47.2801 2805.2 49.2651 Q2808.8 51.2095 2811.15 55.2604 M2785.75 71.0994 Q2785.75 79.3228 2789.12 84.0218 Q2792.52 88.6804 2798.43 88.6804 Q2804.35 88.6804 2807.75 84.0218 Q2811.15 79.3228 2811.15 71.0994 Q2811.15 62.8761 2807.75 58.2176 Q2804.35 53.5185 2798.43 53.5185 Q2792.52 53.5185 2789.12 58.2176 Q2785.75 62.8761 2785.75 71.0994 Z" fill="#000000" fill-rule="nonzero" fill-opacity="1" /><path clip-path="url(#clip840)" d="M2833.96 48.3739 L2841.41 48.3739 L2841.41 93.744 L2833.96 93.744 L2833.96 48.3739 M2833.96 30.7119 L2841.41 30.7119 L2841.41 40.1505 L2833.96 40.1505 L2833.96 30.7119 Z" fill="#000000" fill-rule="nonzero" fill-opacity="1" /><path clip-path="url(#clip840)" d="M2894.72 66.3599 L2894.72 93.744 L2887.27 93.744 L2887.27 66.6029 Q2887.27 60.162 2884.76 56.9618 Q2882.25 53.7616 2877.22 53.7616 Q2871.19 53.7616 2867.7 57.6099 Q2864.22 61.4583 2864.22 68.1018 L2864.22 93.744 L2856.72 93.744 L2856.72 48.3739 L2864.22 48.3739 L2864.22 55.4224 Q2866.89 51.331 2870.5 49.3056 Q2874.14 47.2801 2878.88 47.2801 Q2886.7 47.2801 2890.71 52.1412 Q2894.72 56.9618 2894.72 66.3599 Z" fill="#000000" fill-rule="nonzero" fill-opacity="1" /><path clip-path="url(#clip840)" d="M2939.44 70.5323 Q2939.44 62.4305 2936.08 57.9745 Q2932.76 53.5185 2926.72 53.5185 Q2920.73 53.5185 2917.37 57.9745 Q2914.04 62.4305 2914.04 70.5323 Q2914.04 78.5936 2917.37 83.0496 Q2920.73 87.5056 2926.72 87.5056 Q2932.76 87.5056 2936.08 83.0496 Q2939.44 78.5936 2939.44 70.5323 M2946.9 88.1132 Q2946.9 99.6988 2941.75 105.33 Q2936.61 111.001 2926 111.001 Q2922.07 111.001 2918.58 110.393 Q2915.1 109.826 2911.82 108.611 L2911.82 101.36 Q2915.1 103.142 2918.3 103.993 Q2921.5 104.843 2924.82 104.843 Q2932.15 104.843 2935.8 100.995 Q2939.44 97.1873 2939.44 89.45 L2939.44 85.7637 Q2937.14 89.7741 2933.53 91.7591 Q2929.92 93.744 2924.9 93.744 Q2916.56 93.744 2911.45 87.3841 Q2906.35 81.0242 2906.35 70.5323 Q2906.35 60 2911.45 53.64 Q2916.56 47.2801 2924.9 47.2801 Q2929.92 47.2801 2933.53 49.2651 Q2937.14 51.25 2939.44 55.2604 L2939.44 48.3739 L2946.9 48.3739 L2946.9 88.1132 Z" fill="#000000" fill-rule="nonzero" fill-opacity="1" /><path clip-path="url(#clip840)" d="M2453.84 161.657 Q2444.81 161.657 2441.32 163.723 Q2437.84 165.789 2437.84 170.772 Q2437.84 174.742 2440.43 177.091 Q2443.07 179.4 2447.56 179.4 Q2453.76 179.4 2457.49 175.025 Q2461.26 170.61 2461.26 163.318 L2461.26 161.657 L2453.84 161.657 M2468.71 158.579 L2468.71 184.464 L2461.26 184.464 L2461.26 177.577 Q2458.7 181.709 2454.9 183.694 Q2451.09 185.639 2445.58 185.639 Q2438.61 185.639 2434.48 181.75 Q2430.39 177.821 2430.39 171.258 Q2430.39 163.602 2435.49 159.713 Q2440.64 155.824 2450.8 155.824 L2461.26 155.824 L2461.26 155.095 Q2461.26 149.95 2457.85 147.155 Q2454.49 144.32 2448.37 144.32 Q2444.48 144.32 2440.8 145.251 Q2437.11 146.183 2433.71 148.046 L2433.71 141.16 Q2437.8 139.58 2441.65 138.81 Q2445.5 138 2449.14 138 Q2458.99 138 2463.85 143.104 Q2468.71 148.208 2468.71 158.579 Z" fill="#000000" fill-rule="nonzero" fill-opacity="1" /><path clip-path="url(#clip840)" d="M2491.43 126.212 L2491.43 139.094 L2506.79 139.094 L2506.79 144.887 L2491.43 144.887 L2491.43 169.516 Q2491.43 175.066 2492.93 176.646 Q2494.47 178.226 2499.13 178.226 L2506.79 178.226 L2506.79 184.464 L2499.13 184.464 Q2490.5 184.464 2487.22 181.264 Q2483.94 178.023 2483.94 169.516 L2483.94 144.887 L2478.47 144.887 L2478.47 139.094 L2483.94 139.094 L2483.94 126.212 L2491.43 126.212 Z" fill="#000000" fill-rule="nonzero" fill-opacity="1" /><path clip-path="url(#clip840)" d="M2550.33 126.212 L2550.33 139.094 L2565.69 139.094 L2565.69 144.887 L2550.33 144.887 L2550.33 169.516 Q2550.33 175.066 2551.83 176.646 Q2553.37 178.226 2558.03 178.226 L2565.69 178.226 L2565.69 184.464 L2558.03 184.464 Q2549.4 184.464 2546.12 181.264 Q2542.84 178.023 2542.84 169.516 L2542.84 144.887 L2537.37 144.887 L2537.37 139.094 L2542.84 139.094 L2542.84 126.212 L2550.33 126.212 Z" fill="#000000" fill-rule="nonzero" fill-opacity="1" /><path clip-path="url(#clip840)" d="M2576.46 146.791 L2628.4 146.791 L2628.4 153.596 L2576.46 153.596 L2576.46 146.791 M2576.46 163.318 L2628.4 163.318 L2628.4 170.205 L2576.46 170.205 L2576.46 163.318 Z" fill="#000000" fill-rule="nonzero" fill-opacity="1" /><path clip-path="url(#clip840)" d="M2647.48 177.577 L2660.84 177.577 L2660.84 131.438 L2646.3 134.354 L2646.3 126.901 L2660.76 123.984 L2668.94 123.984 L2668.94 177.577 L2682.31 177.577 L2682.31 184.464 L2647.48 184.464 L2647.48 177.577 Z" fill="#000000" fill-rule="nonzero" fill-opacity="1" /><polyline clip-path="url(#clip842)" style="stroke:#009af9; stroke-linecap:round; stroke-linejoin:round; stroke-width:4; stroke-opacity:1; fill:none" points="484.269,1120.3 492.574,1120.3 500.879,1120.3 509.184,1120.3 517.489,1120.3 525.794,1120.3 534.099,1120.3 542.404,1120.3 550.709,1120.3 559.013,1120.3 567.318,1120.3 575.623,1120.3 583.928,1120.3 592.233,1120.3 600.538,1120.3 608.843,1120.3 617.148,1120.3 625.453,1120.3 633.758,1120.3 642.063,1120.3 650.368,1120.3 658.673,1120.3 666.978,1120.3 675.283,1120.3 683.587,1120.3 691.892,1120.3 700.197,1120.3 708.502,1120.3 716.807,1120.3 725.112,1120.3 733.417,1120.3 741.722,1120.3 750.027,1120.3 758.332,1120.3 766.637,1120.3 774.942,1120.3 783.247,1120.3 791.552,1120.3 799.857,1120.3 808.161,1120.3 816.466,1120.3 824.771,1120.3 833.076,1120.3 841.381,1120.3 849.686,1120.3 857.991,1120.3 866.296,1120.3 874.601,1120.3 882.906,1120.3 891.211,1120.3 899.516,1120.3 907.821,1120.3 916.126,1120.3 924.431,1120.3 932.735,1120.3 941.04,1120.3 949.345,1120.3 957.65,1120.3 965.955,1120.3 974.26,1120.3 982.565,1120.3 990.87,1120.3 999.175,1120.3 1007.48,1120.3 1015.78,1120.3 1024.09,1120.3 1032.39,1120.3 1040.7,1120.3 1049,1120.3 1057.31,1120.3 1065.61,1120.3 1073.92,1120.3 1082.22,1120.3 1090.53,1120.3 1098.83,1120.3 1107.14,1120.3 1115.44,1120.3 1123.75,1120.3 1132.05,1120.3 1140.36,1120.3 1148.66,1120.3 1156.97,1120.3 1165.27,1120.3 1173.58,1120.3 1181.88,1120.3 1190.19,1120.3 1198.49,1120.3 1206.8,1120.3 1215.1,1120.3 1223.41,1120.3 1231.71,1120.3 1240.02,1120.3 1248.32,1120.3 1256.63,1120.3 1264.93,1120.3 1273.24,1120.3 1281.54,1120.3 1289.85,1120.3 1298.15,1120.3 1306.46,1120.3 1314.76,1120.3 1323.07,1120.3 1331.37,1120.3 1339.68,1120.3 1347.98,1120.3 1356.29,1120.3 1364.59,1120.3 1372.9,1120.3 1381.2,1120.3 1389.51,1120.3 1397.81,1120.3 1406.12,1120.3 1414.42,1120.3 1422.73,1120.3 1431.03,1120.3 1439.34,1120.3 1447.64,1120.3 1455.95,1120.3 1464.25,1120.3 1472.56,1120.3 1480.86,1120.3 1489.17,1120.3 1497.47,1120.3 1505.78,1120.3 1514.08,1120.3 1522.39,1120.3 1530.69,1120.3 1539,1120.3 1547.3,1120.3 1555.61,1120.3 1563.91,1120.3 1572.22,1120.3 1580.52,1120.3 1588.83,1120.3 1597.13,1120.3 1605.44,1120.3 1613.74,1120.3 1622.04,1120.3 1630.35,1120.3 1638.65,1120.3 1646.96,1120.3 1655.26,1120.3 1663.57,1120.3 1671.87,1120.3 1680.18,1120.3 1688.48,1120.3 1696.79,1120.3 1705.09,1120.3 1713.4,1120.3 1721.7,1120.3 1730.01,1120.3 1738.31,1120.3 1746.62,1120.3 1754.92,1120.3 1763.23,1120.3 1771.53,1120.3 1779.84,1120.3 1788.14,1120.3 1796.45,1120.3 1804.75,1120.3 1813.06,1120.3 1821.36,1120.3 1829.67,1120.3 1837.97,1120.3 1846.28,1120.3 1854.58,1120.3 1862.89,1120.3 1871.19,1120.3 1879.5,1120.3 1887.8,1120.3 1896.11,1120.3 1904.41,1120.3 1912.72,1120.3 1921.02,1120.3 1929.33,1120.3 1937.63,1120.3 1945.94,1120.3 1954.24,1120.3 1962.55,1120.3 1970.85,1120.3 1979.16,1120.3 1987.46,1120.3 1995.77,1120.3 2004.07,1120.3 2012.38,1120.3 2020.68,1120.3 2028.99,1120.3 2037.29,1120.3 2045.6,1120.3 2053.9,1120.3 2062.21,1120.3 2070.51,1120.3 2078.82,1120.3 2087.12,1120.3 2095.43,1120.3 2103.73,1120.3 2112.04,1120.3 2120.34,1120.3 2128.65,1120.3 2136.95,1120.3 2145.26,1120.3 2153.56,1120.3 2161.87,1120.3 2170.17,1120.3 2178.48,1120.3 2186.78,1120.3 2195.09,1120.3 2203.39,1120.3 2211.7,1120.3 2220,1120.3 2228.31,1120.3 2236.61,1120.3 2244.92,1120.3 2253.22,1120.3 2261.52,1120.3 2269.83,1120.3 2278.13,1120.3 2286.44,1120.3 2294.74,1120.3 2303.05,1120.3 2311.35,1120.3 2319.66,1120.3 2327.96,1120.3 2336.27,1120.3 2344.57,1120.3 2352.88,1120.3 2361.18,1120.3 2369.49,1120.3 2377.79,1120.3 2386.1,1120.3 2394.4,1120.3 2402.71,1120.3 2411.01,1120.3 2419.32,1120.3 2427.62,1120.3 2435.93,1120.3 2444.23,1120.3 2452.54,1120.3 2460.84,1120.3 2469.15,1120.3 2477.45,1120.3 2485.76,1120.3 2494.06,1120.3 2502.37,1120.3 2510.67,1120.3 2518.98,1120.3 2527.28,1120.3 2535.59,1120.3 2543.89,1120.3 2552.2,1120.3 2560.5,1120.3 2568.81,1120.3 2577.11,1120.3 2585.42,1120.3 2593.72,1120.3 2602.03,1120.3 2610.33,1120.3 2618.64,1120.3 2626.94,1120.3 2635.25,1120.3 2643.55,1120.3 2651.86,1120.3 2660.16,1120.3 2668.47,1120.3 2676.77,1120.3 2685.08,1120.3 2693.38,1120.3 2701.69,1120.3 2709.99,1120.3 2718.3,1120.3 2726.6,1120.3 2734.91,1120.3 2743.21,1120.3 2751.52,1120.3 2759.82,1120.3 2768.13,1120.3 2776.43,1120.3 2784.74,1120.3 2793.04,1120.3 2801.35,1120.3 2809.65,1120.3 2817.96,1120.3 2826.26,1120.3 2834.57,1120.3 2842.87,1120.3 2851.18,1120.3 2859.48,1120.3 2867.79,1120.3 2876.09,1120.3 2884.39,1120.3 2892.7,1120.3 2901,1120.3 2909.31,1120.3 2917.61,1120.3 2925.92,1120.3 2934.22,1120.3 2942.53,1120.3 2950.83,1120.3 2959.14,1120.3 2967.44,1120.3 2975.75,1120.3 2984.05,1120.3 2992.36,1120.3 3000.66,1120.3 3008.97,1120.3 3017.27,1120.3 3025.58,1120.3 3033.88,1120.3 3042.19,1120.3 3050.49,1120.3 3058.8,1120.3 3067.1,1120.3 3075.41,1120.3 3083.71,1120.3 3092.02,1120.3 3100.32,1120.3 3108.63,1120.3 3116.93,1120.3 3125.24,1120.3 3133.54,1120.3 3141.85,1120.3 3150.15,1120.3 3158.46,1120.3 3166.76,1120.3 3175.07,1120.3 3183.37,1120.3 3191.68,1120.3 3199.98,1120.3 3208.29,1120.3 3216.59,1120.3 3224.9,1120.3 3233.2,1120.3 3241.51,1120.3 3249.81,1120.3 3258.12,1120.3 3266.42,1120.3 3274.73,1120.3 3283.03,1120.3 3291.34,1120.3 3299.64,1120.3 3307.95,1120.3 3316.25,1120.3 3324.56,1120.3 3332.86,1120.3 3341.17,1120.3 3349.47,1120.3 3357.78,1120.3 3366.08,1120.3 3374.39,1120.3 3382.69,1120.3 3391,1120.3 3399.3,1120.3 3407.61,1120.3 3415.91,1120.3 3424.22,1120.3 3432.52,1120.3 3440.83,1120.3 3449.13,1120.3 3457.44,1120.3 3465.74,1120.3 3474.05,1120.3 3482.35,1120.3 3490.66,1120.3 3498.96,1120.3 3507.26,1120.3 3515.57,1120.3 3523.87,1120.3 3532.18,1120.3 3540.48,1120.3 3548.79,1120.3 3557.09,1120.3 3565.4,1120.3 3573.7,1120.3 3582.01,1120.3 3590.31,1120.3 3598.62,1120.3 3606.92,1120.3 3615.23,1120.3 3623.53,1120.3 3631.84,1120.3 3640.14,1120.3 3648.45,1120.3 3656.75,1120.3 3665.06,1120.3 3673.36,1120.3 3681.67,1120.3 3689.97,1120.3 3698.28,1120.3 3706.58,1120.3 3714.89,1120.3 3723.19,1120.3 3731.5,1120.3 3739.8,1120.3 3748.11,1120.3 3756.41,1120.3 3764.72,1120.3 3773.02,1120.3 3781.33,1120.3 3789.63,1120.3 3797.94,1120.3 3806.24,1120.3 3814.55,1120.3 3822.85,1120.3 3831.16,1120.3 3839.46,1120.3 3847.77,1120.3 3856.07,1120.3 3864.38,1120.3 3872.68,1120.3 3880.99,1120.3 3889.29,1120.3 3897.6,1120.3 3905.9,1120.3 3914.21,1120.3 3922.51,1120.3 3930.82,1120.3 3939.12,1120.3 3947.43,1120.3 3955.73,1120.3 3964.04,1120.3 3972.34,1120.3 3980.65,1120.3 3988.95,1120.3 3997.26,1120.3 4005.56,1120.3 4013.87,1120.3 4022.17,1120.3 4030.48,1120.3 4038.78,1120.3 4047.09,1120.3 4055.39,1120.3 4063.7,1120.3 4072,1120.3 4080.31,1120.3 4088.61,1120.3 4096.92,1120.3 4105.22,1120.3 4113.53,1120.3 4121.83,1120.3 4130.14,1120.3 4138.44,1120.3 4146.74,1120.3 4155.05,1120.3 4163.35,1120.3 4171.66,1120.3 4179.96,1120.3 4188.27,1120.3 4196.57,1120.3 4204.88,1120.3 4213.18,1120.3 4221.49,1120.3 4229.79,1120.3 4238.1,1120.3 4246.4,1120.3 4254.71,1120.3 4263.01,1120.3 4271.32,1120.3 4279.62,1120.3 4287.93,1120.3 4296.23,1120.3 4304.54,1120.3 4312.84,1120.3 4321.15,1120.3 4329.45,1120.3 4337.76,1120.3 4346.06,1120.3 4354.37,1120.3 4362.67,1120.3 4370.98,1120.3 4379.28,1120.3 4387.59,1120.3 4395.89,1120.3 4404.2,1120.3 4412.5,1120.3 4420.81,1120.3 4429.11,1120.3 4437.42,1120.3 4445.72,1120.3 4454.03,1120.3 4462.33,1120.3 4470.64,1120.3 4478.94,1120.3 4487.25,1120.3 4495.55,1120.3 4503.86,1120.3 4512.16,1120.3 4520.47,1120.3 4528.77,1120.3 4537.08,1120.3 4545.38,1120.3 4553.69,1120.3 4561.99,1120.3 4570.3,1120.3 4578.6,1120.3 4586.91,1120.3 4595.21,1120.3 4603.52,1120.3 4611.82,1120.3 4620.13,1120.3 4628.43,1120.3 "/>
<polyline clip-path="url(#clip842)" style="stroke:#e26f46; stroke-linecap:round; stroke-linejoin:round; stroke-width:4; stroke-opacity:1; fill:none" points="484.269,2418.75 492.574,2415.45 500.879,2412.15 509.184,2408.85 517.489,2405.55 525.794,2402.25 534.099,2398.95 542.404,2395.65 550.709,2392.35 559.013,2389.05 567.318,2385.75 575.623,2382.45 583.928,2379.15 592.233,2375.85 600.538,2372.56 608.843,2369.26 617.148,2365.96 625.453,2362.66 633.758,2359.36 642.063,2356.06 650.368,2352.76 658.673,2349.46 666.978,2346.16 675.283,2342.86 683.587,2339.56 691.892,2336.26 700.197,2332.96 708.502,2329.66 716.807,2326.36 725.112,2323.07 733.417,2319.77 741.722,2316.47 750.027,2313.17 758.332,2309.87 766.637,2306.57 774.942,2303.27 783.247,2299.97 791.552,2296.67 799.857,2293.37 808.161,2290.07 816.466,2286.77 824.771,2283.47 833.076,2280.17 841.381,2276.88 849.686,2273.58 857.991,2270.28 866.296,2266.98 874.601,2263.68 882.906,2260.38 891.211,2257.08 899.516,2253.78 907.821,2250.48 916.126,2247.18 924.431,2243.88 932.735,2240.58 941.04,2237.28 949.345,2233.98 957.65,2230.68 965.955,2227.39 974.26,2224.09 982.565,2220.79 990.87,2217.49 999.175,2214.19 1007.48,2210.89 1015.78,2207.59 1024.09,2204.29 1032.39,2200.99 1040.7,2197.69 1049,2194.39 1057.31,2191.09 1065.61,2187.79 1073.92,2184.49 1082.22,2181.19 1090.53,2177.9 1098.83,2174.6 1107.14,2171.3 1115.44,2168 1123.75,2164.7 1132.05,2161.4 1140.36,2158.1 1148.66,2154.8 1156.97,2151.5 1165.27,2148.2 1173.58,2144.9 1181.88,2141.6 1190.19,2138.3 1198.49,2135 1206.8,2131.71 1215.1,2128.41 1223.41,2125.11 1231.71,2121.81 1240.02,2118.51 1248.32,2115.21 1256.63,2111.91 1264.93,2108.61 1273.24,2105.31 1281.54,2102.01 1289.85,2098.71 1298.15,2095.41 1306.46,2092.11 1314.76,2088.81 1323.07,2085.51 1331.37,2082.22 1339.68,2078.92 1347.98,2075.62 1356.29,2072.32 1364.59,2069.02 1372.9,2065.72 1381.2,2062.42 1389.51,2059.12 1397.81,2055.82 1406.12,2052.52 1414.42,2049.22 1422.73,2045.92 1431.03,2042.62 1439.34,2039.32 1447.64,2036.02 1455.95,2032.73 1464.25,2029.43 1472.56,2026.13 1480.86,2022.83 1489.17,2019.53 1497.47,2016.23 1505.78,2012.93 1514.08,2009.63 1522.39,2006.33 1530.69,2003.03 1539,1999.73 1547.3,1996.43 1555.61,1993.13 1563.91,1989.83 1572.22,1986.54 1580.52,1983.24 1588.83,1979.94 1597.13,1976.64 1605.44,1973.34 1613.74,1970.04 1622.04,1966.74 1630.35,1963.44 1638.65,1960.14 1646.96,1956.84 1655.26,1953.54 1663.57,1950.24 1671.87,1946.94 1680.18,1943.64 1688.48,1940.34 1696.79,1937.05 1705.09,1933.75 1713.4,1930.45 1721.7,1927.15 1730.01,1923.85 1738.31,1920.55 1746.62,1917.25 1754.92,1913.95 1763.23,1910.65 1771.53,1907.35 1779.84,1904.05 1788.14,1900.75 1796.45,1897.45 1804.75,1894.15 1813.06,1890.85 1821.36,1887.56 1829.67,1884.26 1837.97,1880.96 1846.28,1877.66 1854.58,1874.36 1862.89,1871.06 1871.19,1867.76 1879.5,1864.46 1887.8,1861.16 1896.11,1857.86 1904.41,1854.56 1912.72,1851.26 1921.02,1847.96 1929.33,1844.66 1937.63,1841.37 1945.94,1838.07 1954.24,1834.77 1962.55,1831.47 1970.85,1828.17 1979.16,1824.87 1987.46,1821.57 1995.77,1818.27 2004.07,1814.97 2012.38,1811.67 2020.68,1808.37 2028.99,1805.07 2037.29,1801.77 2045.6,1798.47 2053.9,1795.17 2062.21,1791.88 2070.51,1788.58 2078.82,1785.28 2087.12,1781.98 2095.43,1778.68 2103.73,1775.38 2112.04,1772.08 2120.34,1768.78 2128.65,1765.48 2136.95,1762.18 2145.26,1758.88 2153.56,1755.58 2161.87,1752.28 2170.17,1748.98 2178.48,1745.68 2186.78,1742.39 2195.09,1739.09 2203.39,1735.79 2211.7,1732.49 2220,1729.19 2228.31,1725.89 2236.61,1722.59 2244.92,1719.29 2253.22,1715.99 2261.52,1712.69 2269.83,1709.39 2278.13,1706.09 2286.44,1702.79 2294.74,1699.49 2303.05,1696.2 2311.35,1692.9 2319.66,1689.6 2327.96,1686.3 2336.27,1683 2344.57,1679.7 2352.88,1676.4 2361.18,1673.1 2369.49,1669.8 2377.79,1666.5 2386.1,1663.2 2394.4,1659.9 2402.71,1656.6 2411.01,1653.3 2419.32,1650 2427.62,1646.71 2435.93,1643.41 2444.23,1640.11 2452.54,1636.81 2460.84,1633.51 2469.15,1630.21 2477.45,1626.91 2485.76,1623.61 2494.06,1620.31 2502.37,1617.01 2510.67,1613.71 2518.98,1610.41 2527.28,1607.11 2535.59,1603.81 2543.89,1600.51 2552.2,1597.22 2560.5,1593.92 2568.81,1590.62 2577.11,1587.32 2585.42,1584.02 2593.72,1580.72 2602.03,1577.42 2610.33,1574.12 2618.64,1570.82 2626.94,1567.52 2635.25,1564.22 2643.55,1560.92 2651.86,1557.62 2660.16,1554.32 2668.47,1551.03 2676.77,1547.73 2685.08,1544.43 2693.38,1541.13 2701.69,1537.83 2709.99,1534.53 2718.3,1531.23 2726.6,1527.93 2734.91,1524.63 2743.21,1521.33 2751.52,1518.03 2759.82,1514.73 2768.13,1511.43 2776.43,1508.13 2784.74,1504.83 2793.04,1501.54 2801.35,1498.24 2809.65,1494.94 2817.96,1491.64 2826.26,1488.34 2834.57,1485.04 2842.87,1481.74 2851.18,1478.44 2859.48,1475.14 2867.79,1471.84 2876.09,1468.54 2884.39,1465.24 2892.7,1461.94 2901,1458.64 2909.31,1455.34 2917.61,1452.05 2925.92,1448.75 2934.22,1445.45 2942.53,1442.15 2950.83,1438.85 2959.14,1435.55 2967.44,1432.25 2975.75,1428.95 2984.05,1425.65 2992.36,1422.35 3000.66,1419.05 3008.97,1415.75 3017.27,1412.45 3025.58,1409.15 3033.88,1405.86 3042.19,1402.56 3050.49,1399.26 3058.8,1395.96 3067.1,1392.66 3075.41,1389.36 3083.71,1386.06 3092.02,1382.76 3100.32,1379.46 3108.63,1376.16 3116.93,1372.86 3125.24,1369.56 3133.54,1366.26 3141.85,1362.96 3150.15,1359.66 3158.46,1356.37 3166.76,1353.07 3175.07,1349.77 3183.37,1346.47 3191.68,1343.17 3199.98,1339.87 3208.29,1336.57 3216.59,1333.27 3224.9,1329.97 3233.2,1326.67 3241.51,1323.37 3249.81,1320.07 3258.12,1316.77 3266.42,1313.47 3274.73,1310.17 3283.03,1306.88 3291.34,1303.58 3299.64,1300.28 3307.95,1296.98 3316.25,1293.68 3324.56,1290.38 3332.86,1287.08 3341.17,1283.78 3349.47,1280.48 3357.78,1277.18 3366.08,1273.88 3374.39,1270.58 3382.69,1267.28 3391,1263.98 3399.3,1260.69 3407.61,1257.39 3415.91,1254.09 3424.22,1250.79 3432.52,1247.49 3440.83,1244.19 3449.13,1240.89 3457.44,1237.59 3465.74,1234.29 3474.05,1230.99 3482.35,1227.69 3490.66,1224.39 3498.96,1221.09 3507.26,1217.79 3515.57,1214.49 3523.87,1211.2 3532.18,1207.9 3540.48,1204.6 3548.79,1201.3 3557.09,1198 3565.4,1194.7 3573.7,1191.4 3582.01,1188.1 3590.31,1184.8 3598.62,1181.5 3606.92,1178.2 3615.23,1174.9 3623.53,1171.6 3631.84,1168.3 3640.14,1165 3648.45,1161.71 3656.75,1158.41 3665.06,1155.11 3673.36,1151.81 3681.67,1148.51 3689.97,1145.21 3698.28,1141.91 3706.58,1138.61 3714.89,1135.31 3723.19,1132.01 3731.5,1128.71 3739.8,1125.41 3748.11,1122.11 3756.41,1118.81 3764.72,1115.52 3773.02,1112.22 3781.33,1108.92 3789.63,1105.62 3797.94,1102.32 3806.24,1099.02 3814.55,1095.72 3822.85,1092.42 3831.16,1089.12 3839.46,1085.82 3847.77,1082.52 3856.07,1079.22 3864.38,1075.92 3872.68,1072.62 3880.99,1069.32 3889.29,1066.03 3897.6,1062.73 3905.9,1059.43 3914.21,1056.13 3922.51,1052.83 3930.82,1049.53 3939.12,1046.23 3947.43,1042.93 3955.73,1039.63 3964.04,1036.33 3972.34,1033.03 3980.65,1029.73 3988.95,1026.43 3997.26,1023.13 4005.56,1019.83 4013.87,1016.54 4022.17,1013.24 4030.48,1009.94 4038.78,1006.64 4047.09,1003.34 4055.39,1000.04 4063.7,996.74 4072,993.44 4080.31,990.141 4088.61,986.842 4096.92,983.542 4105.22,980.243 4113.53,976.944 4121.83,973.645 4130.14,970.345 4138.44,967.046 4146.74,963.747 4155.05,960.447 4163.35,957.148 4171.66,953.849 4179.96,950.549 4188.27,947.25 4196.57,943.951 4204.88,940.651 4213.18,937.352 4221.49,934.053 4229.79,930.753 4238.1,927.454 4246.4,924.155 4254.71,920.855 4263.01,917.556 4271.32,914.257 4279.62,910.957 4287.93,907.658 4296.23,904.359 4304.54,901.06 4312.84,897.76 4321.15,894.461 4329.45,891.162 4337.76,887.862 4346.06,884.563 4354.37,881.264 4362.67,877.964 4370.98,874.665 4379.28,871.366 4387.59,868.066 4395.89,864.767 4404.2,861.468 4412.5,858.168 4420.81,854.869 4429.11,851.57 4437.42,848.27 4445.72,844.971 4454.03,841.672 4462.33,838.372 4470.64,835.073 4478.94,831.774 4487.25,828.475 4495.55,825.175 4503.86,821.876 4512.16,818.577 4520.47,815.277 4528.77,811.978 4537.08,808.679 4545.38,805.379 4553.69,802.08 4561.99,798.781 4570.3,795.481 4578.6,792.182 4586.91,788.883 4595.21,785.583 4603.52,782.284 4611.82,778.985 4620.13,775.685 4628.43,772.386 "/>
<polyline clip-path="url(#clip842)" style="stroke:#3da44d; stroke-linecap:round; stroke-linejoin:round; stroke-width:4; stroke-opacity:1; fill:none" points="484.269,532.845 492.574,545.598 500.879,558.299 509.184,570.949 517.489,583.548 525.794,596.096 534.099,608.593 542.404,621.038 550.709,633.432 559.013,645.775 567.318,658.067 575.623,670.307 583.928,682.496 592.233,694.634 600.538,706.721 608.843,718.757 617.148,730.741 625.453,742.674 633.758,754.556 642.063,766.387 650.368,778.166 658.673,789.895 666.978,801.572 675.283,813.198 683.587,824.772 691.892,836.296 700.197,847.768 708.502,859.189 716.807,870.559 725.112,881.877 733.417,893.145 741.722,904.361 750.027,915.526 758.332,926.639 766.637,937.702 774.942,948.713 783.247,959.673 791.552,970.582 799.857,981.44 808.161,992.246 816.466,1003 824.771,1013.71 833.076,1024.36 841.381,1034.96 849.686,1045.51 857.991,1056.01 866.296,1066.46 874.601,1076.85 882.906,1087.2 891.211,1097.49 899.516,1107.74 907.821,1117.93 916.126,1128.07 924.431,1138.16 932.735,1148.2 941.04,1158.18 949.345,1168.12 957.65,1178 965.955,1187.84 974.26,1197.62 982.565,1207.35 990.87,1217.03 999.175,1226.66 1007.48,1236.24 1015.78,1245.76 1024.09,1255.24 1032.39,1264.66 1040.7,1274.03 1049,1283.35 1057.31,1292.62 1065.61,1301.84 1073.92,1311.01 1082.22,1320.13 1090.53,1329.19 1098.83,1338.21 1107.14,1347.17 1115.44,1356.08 1123.75,1364.94 1132.05,1373.75 1140.36,1382.51 1148.66,1391.21 1156.97,1399.87 1165.27,1408.47 1173.58,1417.03 1181.88,1425.53 1190.19,1433.98 1198.49,1442.38 1206.8,1450.72 1215.1,1459.02 1223.41,1467.27 1231.71,1475.46 1240.02,1483.61 1248.32,1491.7 1256.63,1499.74 1264.93,1507.73 1273.24,1515.67 1281.54,1523.55 1289.85,1531.39 1298.15,1539.17 1306.46,1546.91 1314.76,1554.59 1323.07,1562.22 1331.37,1569.8 1339.68,1577.33 1347.98,1584.81 1356.29,1592.23 1364.59,1599.61 1372.9,1606.93 1381.2,1614.2 1389.51,1621.43 1397.81,1628.6 1406.12,1635.71 1414.42,1642.78 1422.73,1649.8 1431.03,1656.76 1439.34,1663.68 1447.64,1670.54 1455.95,1677.35 1464.25,1684.11 1472.56,1690.82 1480.86,1697.48 1489.17,1704.09 1497.47,1710.64 1505.78,1717.15 1514.08,1723.6 1522.39,1730 1530.69,1736.35 1539,1742.65 1547.3,1748.9 1555.61,1755.1 1563.91,1761.24 1572.22,1767.34 1580.52,1773.38 1588.83,1779.37 1597.13,1785.31 1605.44,1791.2 1613.74,1797.04 1622.04,1802.83 1630.35,1808.57 1638.65,1814.25 1646.96,1819.88 1655.26,1825.47 1663.57,1831 1671.87,1836.48 1680.18,1841.91 1688.48,1847.28 1696.79,1852.61 1705.09,1857.89 1713.4,1863.11 1721.7,1868.28 1730.01,1873.4 1738.31,1878.47 1746.62,1883.49 1754.92,1888.46 1763.23,1893.38 1771.53,1898.24 1779.84,1903.06 1788.14,1907.82 1796.45,1912.53 1804.75,1917.19 1813.06,1921.8 1821.36,1926.36 1829.67,1930.87 1837.97,1935.32 1846.28,1939.73 1854.58,1944.08 1862.89,1948.38 1871.19,1952.63 1879.5,1956.83 1887.8,1960.98 1896.11,1965.08 1904.41,1969.13 1912.72,1973.12 1921.02,1977.06 1929.33,1980.96 1937.63,1984.8 1945.94,1988.59 1954.24,1992.33 1962.55,1996.01 1970.85,1999.65 1979.16,2003.24 1987.46,2006.77 1995.77,2010.25 2004.07,2013.68 2012.38,2017.06 2020.68,2020.39 2028.99,2023.67 2037.29,2026.9 2045.6,2030.07 2053.9,2033.2 2062.21,2036.27 2070.51,2039.29 2078.82,2042.26 2087.12,2045.18 2095.43,2048.05 2103.73,2050.87 2112.04,2053.63 2120.34,2056.35 2128.65,2059.01 2136.95,2061.62 2145.26,2064.18 2153.56,2066.69 2161.87,2069.15 2170.17,2071.56 2178.48,2073.91 2186.78,2076.22 2195.09,2078.47 2203.39,2080.67 2211.7,2082.82 2220,2084.92 2228.31,2086.97 2236.61,2088.97 2244.92,2090.92 2253.22,2092.81 2261.52,2094.65 2269.83,2096.45 2278.13,2098.19 2286.44,2099.88 2294.74,2101.52 2303.05,2103.1 2311.35,2104.64 2319.66,2106.13 2327.96,2107.56 2336.27,2108.94 2344.57,2110.27 2352.88,2111.56 2361.18,2112.78 2369.49,2113.96 2377.79,2115.09 2386.1,2116.16 2394.4,2117.19 2402.71,2118.16 2411.01,2119.08 2419.32,2119.95 2427.62,2120.77 2435.93,2121.54 2444.23,2122.26 2452.54,2122.93 2460.84,2123.54 2469.15,2124.1 2477.45,2124.62 2485.76,2125.08 2494.06,2125.49 2502.37,2125.84 2510.67,2126.15 2518.98,2126.41 2527.28,2126.61 2535.59,2126.77 2543.89,2126.87 2552.2,2126.92 2560.5,2126.92 2568.81,2126.87 2577.11,2126.77 2585.42,2126.61 2593.72,2126.41 2602.03,2126.15 2610.33,2125.84 2618.64,2125.49 2626.94,2125.08 2635.25,2124.62 2643.55,2124.1 2651.86,2123.54 2660.16,2122.93 2668.47,2122.26 2676.77,2121.54 2685.08,2120.77 2693.38,2119.95 2701.69,2119.08 2709.99,2118.16 2718.3,2117.19 2726.6,2116.16 2734.91,2115.09 2743.21,2113.96 2751.52,2112.78 2759.82,2111.56 2768.13,2110.27 2776.43,2108.94 2784.74,2107.56 2793.04,2106.13 2801.35,2104.64 2809.65,2103.1 2817.96,2101.52 2826.26,2099.88 2834.57,2098.19 2842.87,2096.45 2851.18,2094.65 2859.48,2092.81 2867.79,2090.92 2876.09,2088.97 2884.39,2086.97 2892.7,2084.92 2901,2082.82 2909.31,2080.67 2917.61,2078.47 2925.92,2076.22 2934.22,2073.91 2942.53,2071.56 2950.83,2069.15 2959.14,2066.69 2967.44,2064.18 2975.75,2061.62 2984.05,2059.01 2992.36,2056.35 3000.66,2053.63 3008.97,2050.87 3017.27,2048.05 3025.58,2045.18 3033.88,2042.26 3042.19,2039.29 3050.49,2036.27 3058.8,2033.2 3067.1,2030.07 3075.41,2026.9 3083.71,2023.67 3092.02,2020.39 3100.32,2017.06 3108.63,2013.68 3116.93,2010.25 3125.24,2006.77 3133.54,2003.24 3141.85,1999.65 3150.15,1996.01 3158.46,1992.33 3166.76,1988.59 3175.07,1984.8 3183.37,1980.96 3191.68,1977.06 3199.98,1973.12 3208.29,1969.13 3216.59,1965.08 3224.9,1960.98 3233.2,1956.83 3241.51,1952.63 3249.81,1948.38 3258.12,1944.08 3266.42,1939.73 3274.73,1935.32 3283.03,1930.87 3291.34,1926.36 3299.64,1921.8 3307.95,1917.19 3316.25,1912.53 3324.56,1907.82 3332.86,1903.06 3341.17,1898.24 3349.47,1893.38 3357.78,1888.46 3366.08,1883.49 3374.39,1878.47 3382.69,1873.4 3391,1868.28 3399.3,1863.11 3407.61,1857.89 3415.91,1852.61 3424.22,1847.28 3432.52,1841.91 3440.83,1836.48 3449.13,1831 3457.44,1825.47 3465.74,1819.88 3474.05,1814.25 3482.35,1808.57 3490.66,1802.83 3498.96,1797.04 3507.26,1791.2 3515.57,1785.31 3523.87,1779.37 3532.18,1773.38 3540.48,1767.34 3548.79,1761.24 3557.09,1755.1 3565.4,1748.9 3573.7,1742.65 3582.01,1736.35 3590.31,1730 3598.62,1723.6 3606.92,1717.15 3615.23,1710.64 3623.53,1704.09 3631.84,1697.48 3640.14,1690.82 3648.45,1684.11 3656.75,1677.35 3665.06,1670.54 3673.36,1663.68 3681.67,1656.76 3689.97,1649.8 3698.28,1642.78 3706.58,1635.71 3714.89,1628.6 3723.19,1621.43 3731.5,1614.2 3739.8,1606.93 3748.11,1599.61 3756.41,1592.23 3764.72,1584.81 3773.02,1577.33 3781.33,1569.8 3789.63,1562.22 3797.94,1554.59 3806.24,1546.91 3814.55,1539.17 3822.85,1531.39 3831.16,1523.55 3839.46,1515.67 3847.77,1507.73 3856.07,1499.74 3864.38,1491.7 3872.68,1483.61 3880.99,1475.46 3889.29,1467.27 3897.6,1459.02 3905.9,1450.72 3914.21,1442.38 3922.51,1433.98 3930.82,1425.53 3939.12,1417.03 3947.43,1408.47 3955.73,1399.87 3964.04,1391.21 3972.34,1382.51 3980.65,1373.75 3988.95,1364.94 3997.26,1356.08 4005.56,1347.17 4013.87,1338.21 4022.17,1329.19 4030.48,1320.13 4038.78,1311.01 4047.09,1301.84 4055.39,1292.62 4063.7,1283.35 4072,1274.03 4080.31,1264.66 4088.61,1255.24 4096.92,1245.76 4105.22,1236.24 4113.53,1226.66 4121.83,1217.03 4130.14,1207.35 4138.44,1197.62 4146.74,1187.84 4155.05,1178 4163.35,1168.12 4171.66,1158.18 4179.96,1148.2 4188.27,1138.16 4196.57,1128.07 4204.88,1117.93 4213.18,1107.74 4221.49,1097.49 4229.79,1087.2 4238.1,1076.85 4246.4,1066.46 4254.71,1056.01 4263.01,1045.51 4271.32,1034.96 4279.62,1024.36 4287.93,1013.71 4296.23,1003 4304.54,992.246 4312.84,981.44 4321.15,970.582 4329.45,959.673 4337.76,948.713 4346.06,937.702 4354.37,926.639 4362.67,915.526 4370.98,904.361 4379.28,893.145 4387.59,881.877 4395.89,870.559 4404.2,859.189 4412.5,847.768 4420.81,836.296 4429.11,824.772 4437.42,813.198 4445.72,801.572 4454.03,789.895 4462.33,778.166 4470.64,766.387 4478.94,754.556 4487.25,742.674 4495.55,730.741 4503.86,718.757 4512.16,706.721 4520.47,694.634 4528.77,682.496 4537.08,670.307 4545.38,658.067 4553.69,645.775 4561.99,633.432 4570.3,621.038 4578.6,608.593 4586.91,596.096 4595.21,583.548 4603.52,570.949 4611.82,558.299 4620.13,545.598 4628.43,532.845 "/>
<polyline clip-path="url(#clip842)" style="stroke:#c271d2; stroke-linecap:round; stroke-linejoin:round; stroke-width:4; stroke-opacity:1; fill:none" points="484.269,2852.99 492.574,2822.91 500.879,2793.12 509.184,2763.64 517.489,2734.45 525.794,2705.56 534.099,2676.97 542.404,2648.68 550.709,2620.68 559.013,2592.97 567.318,2565.55 575.623,2538.43 583.928,2511.59 592.233,2485.05 600.538,2458.79 608.843,2432.82 617.148,2407.13 625.453,2381.72 633.758,2356.6 642.063,2331.76 650.368,2307.2 658.673,2282.92 666.978,2258.91 675.283,2235.18 683.587,2211.73 691.892,2188.55 700.197,2165.64 708.502,2143.01 716.807,2120.64 725.112,2098.54 733.417,2076.71 741.722,2055.15 750.027,2033.85 758.332,2012.82 766.637,1992.05 774.942,1971.54 783.247,1951.3 791.552,1931.31 799.857,1911.58 808.161,1892.1 816.466,1872.89 824.771,1853.92 833.076,1835.21 841.381,1816.75 849.686,1798.55 857.991,1780.59 866.296,1762.88 874.601,1745.42 882.906,1728.2 891.211,1711.23 899.516,1694.5 907.821,1678.01 916.126,1661.77 924.431,1645.76 932.735,1630 941.04,1614.47 949.345,1599.17 957.65,1584.12 965.955,1569.29 974.26,1554.7 982.565,1540.34 990.87,1526.21 999.175,1512.31 1007.48,1498.63 1015.78,1485.19 1024.09,1471.96 1032.39,1458.97 1040.7,1446.19 1049,1433.64 1057.31,1421.31 1065.61,1409.19 1073.92,1397.3 1082.22,1385.62 1090.53,1374.15 1098.83,1362.91 1107.14,1351.87 1115.44,1341.05 1123.75,1330.43 1132.05,1320.03 1140.36,1309.83 1148.66,1299.84 1156.97,1290.06 1165.27,1280.48 1173.58,1271.11 1181.88,1261.94 1190.19,1252.97 1198.49,1244.19 1206.8,1235.62 1215.1,1227.24 1223.41,1219.06 1231.71,1211.08 1240.02,1203.29 1248.32,1195.69 1256.63,1188.28 1264.93,1181.07 1273.24,1174.04 1281.54,1167.2 1289.85,1160.54 1298.15,1154.07 1306.46,1147.79 1314.76,1141.69 1323.07,1135.77 1331.37,1130.02 1339.68,1124.46 1347.98,1119.08 1356.29,1113.87 1364.59,1108.84 1372.9,1103.98 1381.2,1099.3 1389.51,1094.79 1397.81,1090.45 1406.12,1086.27 1414.42,1082.27 1422.73,1078.43 1431.03,1074.76 1439.34,1071.26 1447.64,1067.91 1455.95,1064.73 1464.25,1061.71 1472.56,1058.85 1480.86,1056.15 1489.17,1053.6 1497.47,1051.22 1505.78,1048.98 1514.08,1046.9 1522.39,1044.97 1530.69,1043.2 1539,1041.57 1547.3,1040.09 1555.61,1038.76 1563.91,1037.58 1572.22,1036.54 1580.52,1035.64 1588.83,1034.89 1597.13,1034.28 1605.44,1033.81 1613.74,1033.48 1622.04,1033.28 1630.35,1033.23 1638.65,1033.31 1646.96,1033.52 1655.26,1033.86 1663.57,1034.34 1671.87,1034.95 1680.18,1035.69 1688.48,1036.55 1696.79,1037.54 1705.09,1038.66 1713.4,1039.9 1721.7,1041.27 1730.01,1042.76 1738.31,1044.37 1746.62,1046.09 1754.92,1047.94 1763.23,1049.9 1771.53,1051.98 1779.84,1054.18 1788.14,1056.49 1796.45,1058.91 1804.75,1061.44 1813.06,1064.08 1821.36,1066.83 1829.67,1069.69 1837.97,1072.65 1846.28,1075.72 1854.58,1078.89 1862.89,1082.17 1871.19,1085.54 1879.5,1089.02 1887.8,1092.6 1896.11,1096.27 1904.41,1100.04 1912.72,1103.9 1921.02,1107.86 1929.33,1111.92 1937.63,1116.06 1945.94,1120.3 1954.24,1124.62 1962.55,1129.03 1970.85,1133.53 1979.16,1138.11 1987.46,1142.78 1995.77,1147.53 2004.07,1152.37 2012.38,1157.28 2020.68,1162.28 2028.99,1167.35 2037.29,1172.5 2045.6,1177.73 2053.9,1183.03 2062.21,1188.4 2070.51,1193.85 2078.82,1199.36 2087.12,1204.95 2095.43,1210.6 2103.73,1216.33 2112.04,1222.12 2120.34,1227.97 2128.65,1233.89 2136.95,1239.87 2145.26,1245.91 2153.56,1252.01 2161.87,1258.17 2170.17,1264.39 2178.48,1270.67 2186.78,1277 2195.09,1283.38 2203.39,1289.82 2211.7,1296.31 2220,1302.84 2228.31,1309.43 2236.61,1316.07 2244.92,1322.75 2253.22,1329.48 2261.52,1336.25 2269.83,1343.07 2278.13,1349.93 2286.44,1356.82 2294.74,1363.76 2303.05,1370.74 2311.35,1377.75 2319.66,1384.8 2327.96,1391.88 2336.27,1399 2344.57,1406.15 2352.88,1413.33 2361.18,1420.54 2369.49,1427.78 2377.79,1435.04 2386.1,1442.34 2394.4,1449.65 2402.71,1456.99 2411.01,1464.36 2419.32,1471.74 2427.62,1479.14 2435.93,1486.57 2444.23,1494.01 2452.54,1501.47 2460.84,1508.94 2469.15,1516.42 2477.45,1523.92 2485.76,1531.43 2494.06,1538.95 2502.37,1546.48 2510.67,1554.02 2518.98,1561.57 2527.28,1569.12 2535.59,1576.67 2543.89,1584.23 2552.2,1591.79 2560.5,1599.35 2568.81,1606.9 2577.11,1614.46 2585.42,1622.02 2593.72,1629.57 2602.03,1637.11 2610.33,1644.65 2618.64,1652.18 2626.94,1659.7 2635.25,1667.21 2643.55,1674.71 2651.86,1682.19 2660.16,1689.67 2668.47,1697.12 2676.77,1704.56 2685.08,1711.99 2693.38,1719.39 2701.69,1726.78 2709.99,1734.14 2718.3,1741.48 2726.6,1748.8 2734.91,1756.09 2743.21,1763.35 2751.52,1770.59 2759.82,1777.8 2768.13,1784.98 2776.43,1792.13 2784.74,1799.25 2793.04,1806.33 2801.35,1813.38 2809.65,1820.39 2817.96,1827.37 2826.26,1834.31 2834.57,1841.21 2842.87,1848.06 2851.18,1854.88 2859.48,1861.65 2867.79,1868.38 2876.09,1875.06 2884.39,1881.7 2892.7,1888.29 2901,1894.83 2909.31,1901.32 2917.61,1907.75 2925.92,1914.14 2934.22,1920.47 2942.53,1926.74 2950.83,1932.96 2959.14,1939.12 2967.44,1945.22 2975.75,1951.26 2984.05,1957.24 2992.36,1963.16 3000.66,1969.02 3008.97,1974.8 3017.27,1980.53 3025.58,1986.18 3033.88,1991.77 3042.19,1997.29 3050.49,2002.73 3058.8,2008.11 3067.1,2013.41 3075.41,2018.63 3083.71,2023.78 3092.02,2028.85 3100.32,2033.85 3108.63,2038.76 3116.93,2043.6 3125.24,2048.35 3133.54,2053.02 3141.85,2057.6 3150.15,2062.1 3158.46,2066.51 3166.76,2070.84 3175.07,2075.07 3183.37,2079.22 3191.68,2083.27 3199.98,2087.23 3208.29,2091.09 3216.59,2094.86 3224.9,2098.54 3233.2,2102.11 3241.51,2105.59 3249.81,2108.97 3258.12,2112.24 3266.42,2115.41 3274.73,2118.48 3283.03,2121.45 3291.34,2124.3 3299.64,2127.05 3307.95,2129.69 3316.25,2132.23 3324.56,2134.65 3332.86,2136.95 3341.17,2139.15 3349.47,2141.23 3357.78,2143.19 3366.08,2145.04 3374.39,2146.77 3382.69,2148.38 3391,2149.86 3399.3,2151.23 3407.61,2152.47 3415.91,2153.59 3424.22,2154.58 3432.52,2155.45 3440.83,2156.18 3449.13,2156.79 3457.44,2157.27 3465.74,2157.61 3474.05,2157.83 3482.35,2157.9 3490.66,2157.85 3498.96,2157.65 3507.26,2157.32 3515.57,2156.85 3523.87,2156.24 3532.18,2155.49 3540.48,2154.59 3548.79,2153.55 3557.09,2152.37 3565.4,2151.04 3573.7,2149.56 3582.01,2147.94 3590.31,2146.16 3598.62,2144.23 3606.92,2142.15 3615.23,2139.92 3623.53,2137.53 3631.84,2134.98 3640.14,2132.28 3648.45,2129.42 3656.75,2126.4 3665.06,2123.22 3673.36,2119.88 3681.67,2116.37 3689.97,2112.7 3698.28,2108.86 3706.58,2104.86 3714.89,2100.68 3723.19,2096.34 3731.5,2091.83 3739.8,2087.15 3748.11,2082.29 3756.41,2077.26 3764.72,2072.05 3773.02,2066.67 3781.33,2061.11 3789.63,2055.37 3797.94,2049.45 3806.24,2043.34 3814.55,2037.06 3822.85,2030.59 3831.16,2023.93 3839.46,2017.09 3847.77,2010.07 3856.07,2002.85 3864.38,1995.44 3872.68,1987.84 3880.99,1980.05 3889.29,1972.07 3897.6,1963.89 3905.9,1955.51 3914.21,1946.94 3922.51,1938.17 3930.82,1929.2 3939.12,1920.02 3947.43,1910.65 3955.73,1901.07 3964.04,1891.29 3972.34,1881.3 3980.65,1871.1 3988.95,1860.7 3997.26,1850.09 4005.56,1839.26 4013.87,1828.23 4022.17,1816.98 4030.48,1805.51 4038.78,1793.84 4047.09,1781.94 4055.39,1769.83 4063.7,1757.49 4072,1744.94 4080.31,1732.16 4088.61,1719.17 4096.92,1705.95 4105.22,1692.5 4113.53,1678.82 4121.83,1664.92 4130.14,1650.79 4138.44,1636.43 4146.74,1621.84 4155.05,1607.02 4163.35,1591.96 4171.66,1576.67 4179.96,1561.14 4188.27,1545.37 4196.57,1529.36 4204.88,1513.12 4213.18,1496.63 4221.49,1479.91 4229.79,1462.93 4238.1,1445.72 4246.4,1428.25 4254.71,1410.54 4263.01,1392.59 4271.32,1374.38 4279.62,1355.92 4287.93,1337.21 4296.23,1318.25 4304.54,1299.03 4312.84,1279.56 4321.15,1259.82 4329.45,1239.84 4337.76,1219.59 4346.06,1199.08 4354.37,1178.31 4362.67,1157.28 4370.98,1135.98 4379.28,1114.42 4387.59,1092.59 4395.89,1070.49 4404.2,1048.13 4412.5,1025.49 4420.81,1002.58 4429.11,979.404 4437.42,955.95 4445.72,932.221 4454.03,908.216 4462.33,883.933 4470.64,859.372 4478.94,834.531 4487.25,809.409 4495.55,784.004 4503.86,758.316 4512.16,732.342 4520.47,706.083 4528.77,679.537 4537.08,652.703 4545.38,625.578 4553.69,598.163 4561.99,570.456 4570.3,542.455 4578.6,514.16 4586.91,485.57 4595.21,456.682 4603.52,427.496 4611.82,398.011 4620.13,368.225 4628.43,338.138 "/>
<path clip-path="url(#clip840)" d="M4122.71 2839.58 L4606.33 2839.58 L4606.33 2580.38 L4122.71 2580.38  Z" fill="#ffffff" fill-rule="evenodd" fill-opacity="1"/>
<polyline clip-path="url(#clip840)" style="stroke:#000000; stroke-linecap:round; stroke-linejoin:round; stroke-width:4; stroke-opacity:1; fill:none" points="4122.71,2839.58 4606.33,2839.58 4606.33,2580.38 4122.71,2580.38 4122.71,2839.58 "/>
<polyline clip-path="url(#clip840)" style="stroke:#009af9; stroke-linecap:round; stroke-linejoin:round; stroke-width:4; stroke-opacity:1; fill:none" points="4171.52,2632.22 4464.38,2632.22 "/>
<path clip-path="url(#clip840)" d="M4530.85 2628.26 Q4530.85 2631.63 4529.14 2634.94 Q4527.45 2638.22 4524.73 2640.28 Q4522.04 2642.34 4519.28 2642.34 Q4516.58 2642.34 4514.87 2640.28 Q4513.19 2638.19 4513.19 2634.8 Q4513.19 2633.6 4513.33 2632.76 Q4513.47 2631.91 4513.96 2629.95 L4517.89 2614.3 Q4518.57 2611.37 4518.57 2611.35 Q4518.57 2611.07 4518.46 2610.93 Q4518.36 2610.76 4517.8 2610.65 Q4517.24 2610.53 4516.16 2610.53 Q4515.72 2610.53 4515.5 2610.51 Q4515.32 2610.48 4515.15 2610.37 Q4515.01 2610.23 4515.01 2609.94 Q4515.01 2609.55 4515.18 2609.34 Q4515.36 2609.1 4515.5 2609.05 Q4515.65 2609.01 4515.93 2608.98 Q4516.32 2608.96 4517.66 2608.84 Q4518.99 2608.7 4520.14 2608.61 Q4521.29 2608.52 4521.78 2608.52 Q4522.06 2608.52 4522.2 2608.66 Q4522.37 2608.77 4522.37 2608.91 L4522.39 2609.03 L4518.85 2623.48 Q4521.64 2620.6 4524.48 2620.6 Q4527.31 2620.6 4529.07 2622.78 Q4530.85 2624.96 4530.85 2628.26 M4527.38 2626.15 Q4527.38 2623.93 4526.54 2622.8 Q4525.72 2621.66 4524.36 2621.66 Q4523.21 2621.66 4521.71 2622.52 Q4520.21 2623.39 4518.62 2625.5 Q4518.32 2625.9 4518.2 2626.13 Q4518.1 2626.36 4517.89 2627.16 L4516.84 2631.59 Q4516.07 2634.61 4516.07 2636.44 Q4516.07 2638.92 4516.98 2640.09 Q4517.89 2641.26 4519.28 2641.26 Q4520.73 2641.26 4522.25 2639.97 Q4523.77 2638.68 4524.94 2636.34 Q4525.67 2634.8 4526.51 2631.47 Q4527.38 2628.12 4527.38 2626.15 Z" fill="#000000" fill-rule="nonzero" fill-opacity="1" /><path clip-path="url(#clip840)" d="M4535.77 2636.45 L4535.77 2635.4 Q4539.81 2635.4 4541.89 2633.25 Q4542.46 2633.25 4542.56 2633.38 Q4542.66 2633.51 4542.66 2634.12 L4542.66 2652.96 Q4542.66 2653.96 4543.15 2654.27 Q4543.64 2654.58 4545.79 2654.58 L4546.86 2654.58 L4546.86 2655.61 Q4545.68 2655.51 4541.41 2655.51 Q4537.15 2655.51 4535.99 2655.61 L4535.99 2654.58 L4537.05 2654.58 Q4539.17 2654.58 4539.68 2654.28 Q4540.19 2653.97 4540.19 2652.96 L4540.19 2635.56 Q4538.43 2636.45 4535.77 2636.45 Z" fill="#000000" fill-rule="nonzero" fill-opacity="1" /><polyline clip-path="url(#clip840)" style="stroke:#e26f46; stroke-linecap:round; stroke-linejoin:round; stroke-width:4; stroke-opacity:1; fill:none" points="4171.52,2684.06 4464.38,2684.06 "/>
<path clip-path="url(#clip840)" d="M4530.85 2680.1 Q4530.85 2683.47 4529.14 2686.78 Q4527.45 2690.06 4524.73 2692.12 Q4522.04 2694.18 4519.28 2694.18 Q4516.58 2694.18 4514.87 2692.12 Q4513.19 2690.03 4513.19 2686.64 Q4513.19 2685.44 4513.33 2684.6 Q4513.47 2683.75 4513.96 2681.79 L4517.89 2666.14 Q4518.57 2663.21 4518.57 2663.19 Q4518.57 2662.91 4518.46 2662.77 Q4518.36 2662.6 4517.8 2662.49 Q4517.24 2662.37 4516.16 2662.37 Q4515.72 2662.37 4515.5 2662.35 Q4515.32 2662.32 4515.15 2662.21 Q4515.01 2662.07 4515.01 2661.78 Q4515.01 2661.39 4515.18 2661.18 Q4515.36 2660.94 4515.5 2660.89 Q4515.65 2660.85 4515.93 2660.82 Q4516.32 2660.8 4517.66 2660.68 Q4518.99 2660.54 4520.14 2660.45 Q4521.29 2660.36 4521.78 2660.36 Q4522.06 2660.36 4522.2 2660.5 Q4522.37 2660.61 4522.37 2660.75 L4522.39 2660.87 L4518.85 2675.32 Q4521.64 2672.44 4524.48 2672.44 Q4527.31 2672.44 4529.07 2674.62 Q4530.85 2676.8 4530.85 2680.1 M4527.38 2677.99 Q4527.38 2675.77 4526.54 2674.64 Q4525.72 2673.5 4524.36 2673.5 Q4523.21 2673.5 4521.71 2674.36 Q4520.21 2675.23 4518.62 2677.34 Q4518.32 2677.74 4518.2 2677.97 Q4518.1 2678.2 4517.89 2679 L4516.84 2683.43 Q4516.07 2686.45 4516.07 2688.28 Q4516.07 2690.76 4516.98 2691.93 Q4517.89 2693.1 4519.28 2693.1 Q4520.73 2693.1 4522.25 2691.81 Q4523.77 2690.52 4524.94 2688.18 Q4525.67 2686.64 4526.51 2683.31 Q4527.38 2679.96 4527.38 2677.99 Z" fill="#000000" fill-rule="nonzero" fill-opacity="1" /><path clip-path="url(#clip840)" d="M4535.77 2707.45 Q4535.77 2706.85 4535.82 2706.67 Q4535.89 2706.49 4536.15 2706.21 L4542.6 2699.03 Q4546.12 2695.06 4546.12 2691.6 Q4546.12 2689.35 4544.94 2687.75 Q4543.78 2686.14 4541.63 2686.14 Q4540.15 2686.14 4538.91 2687.04 Q4537.66 2687.94 4537.09 2689.55 Q4537.18 2689.52 4537.53 2689.52 Q4538.37 2689.52 4538.82 2690.04 Q4539.3 2690.57 4539.3 2691.27 Q4539.3 2692.17 4538.71 2692.61 Q4538.14 2693.04 4537.56 2693.04 Q4537.33 2693.04 4537.02 2692.99 Q4536.73 2692.94 4536.25 2692.48 Q4535.77 2692.01 4535.77 2691.17 Q4535.77 2688.83 4537.55 2686.96 Q4539.33 2685.09 4542.05 2685.09 Q4545.14 2685.09 4547.15 2686.93 Q4549.19 2688.75 4549.19 2691.6 Q4549.19 2692.6 4548.88 2693.52 Q4548.58 2694.42 4548.17 2695.12 Q4547.78 2695.83 4546.69 2696.96 Q4545.61 2698.09 4544.74 2698.89 Q4543.87 2699.7 4541.92 2701.4 L4538.37 2704.86 L4544.42 2704.86 Q4547.37 2704.86 4547.6 2704.6 Q4547.92 2704.12 4548.33 2701.62 L4549.19 2701.62 L4548.24 2707.45 L4535.77 2707.45 Z" fill="#000000" fill-rule="nonzero" fill-opacity="1" /><polyline clip-path="url(#clip840)" style="stroke:#3da44d; stroke-linecap:round; stroke-linejoin:round; stroke-width:4; stroke-opacity:1; fill:none" points="4171.52,2735.9 4464.38,2735.9 "/>
<path clip-path="url(#clip840)" d="M4530.85 2731.58 Q4530.85 2734.95 4529.14 2738.26 Q4527.45 2741.53 4524.73 2743.6 Q4522.04 2745.66 4519.28 2745.66 Q4516.58 2745.66 4514.87 2743.6 Q4513.19 2741.51 4513.19 2738.11 Q4513.19 2736.92 4513.33 2736.08 Q4513.47 2735.23 4513.96 2733.27 L4517.89 2717.62 Q4518.57 2714.69 4518.57 2714.67 Q4518.57 2714.39 4518.46 2714.25 Q4518.36 2714.08 4517.8 2713.97 Q4517.24 2713.85 4516.16 2713.85 Q4515.72 2713.85 4515.5 2713.83 Q4515.32 2713.8 4515.15 2713.69 Q4515.01 2713.54 4515.01 2713.26 Q4515.01 2712.87 4515.18 2712.65 Q4515.36 2712.42 4515.5 2712.37 Q4515.65 2712.33 4515.93 2712.3 Q4516.32 2712.28 4517.66 2712.16 Q4518.99 2712.02 4520.14 2711.93 Q4521.29 2711.83 4521.78 2711.83 Q4522.06 2711.83 4522.2 2711.98 Q4522.37 2712.09 4522.37 2712.23 L4522.39 2712.35 L4518.85 2726.8 Q4521.64 2723.92 4524.48 2723.92 Q4527.31 2723.92 4529.07 2726.1 Q4530.85 2728.28 4530.85 2731.58 M4527.38 2729.47 Q4527.38 2727.25 4526.54 2726.12 Q4525.72 2724.97 4524.36 2724.97 Q4523.21 2724.97 4521.71 2725.84 Q4520.21 2726.71 4518.62 2728.82 Q4518.32 2729.21 4518.2 2729.45 Q4518.1 2729.68 4517.89 2730.48 L4516.84 2734.91 Q4516.07 2737.93 4516.07 2739.75 Q4516.07 2742.24 4516.98 2743.41 Q4517.89 2744.58 4519.28 2744.58 Q4520.73 2744.58 4522.25 2743.29 Q4523.77 2742 4524.94 2739.66 Q4525.67 2738.11 4526.51 2734.79 Q4527.38 2731.44 4527.38 2729.47 Z" fill="#000000" fill-rule="nonzero" fill-opacity="1" /><path clip-path="url(#clip840)" d="M4535.77 2754.41 Q4535.77 2753.41 4536.35 2752.93 Q4536.92 2752.46 4537.66 2752.46 Q4538.43 2752.46 4538.97 2752.96 Q4539.53 2753.46 4539.53 2754.32 Q4539.53 2755.26 4538.87 2755.78 Q4538.23 2756.31 4537.32 2756.18 Q4538.12 2757.52 4539.6 2758.13 Q4541.09 2758.74 4542.46 2758.74 Q4543.91 2758.74 4545.07 2757.49 Q4546.25 2756.24 4546.25 2753.19 Q4546.25 2750.6 4545.24 2749.11 Q4544.24 2747.62 4542.25 2747.62 L4540.78 2747.62 Q4540.27 2747.62 4540.12 2747.57 Q4539.97 2747.52 4539.97 2747.24 Q4539.97 2746.91 4540.48 2746.85 Q4540.99 2746.85 4541.79 2746.75 Q4543.74 2746.68 4544.78 2745 Q4545.71 2743.42 4545.71 2741.18 Q4545.71 2739.13 4544.73 2738.27 Q4543.76 2737.4 4542.5 2737.4 Q4541.32 2737.4 4540.02 2737.9 Q4538.73 2738.39 4538.02 2739.49 Q4540.1 2739.49 4540.1 2741.18 Q4540.1 2741.91 4539.63 2742.4 Q4539.17 2742.88 4538.4 2742.88 Q4537.66 2742.88 4537.17 2742.42 Q4536.68 2741.95 4536.68 2741.14 Q4536.68 2739.22 4538.38 2737.9 Q4540.1 2736.57 4542.63 2736.57 Q4545.12 2736.57 4546.96 2737.88 Q4548.81 2739.19 4548.81 2741.21 Q4548.81 2743.19 4547.5 2744.82 Q4546.19 2746.44 4544.1 2747.11 Q4546.66 2747.62 4548.19 2749.36 Q4549.71 2751.08 4549.71 2753.19 Q4549.71 2755.82 4547.65 2757.75 Q4545.58 2759.67 4542.56 2759.67 Q4539.78 2759.67 4537.78 2758.16 Q4535.77 2756.65 4535.77 2754.41 Z" fill="#000000" fill-rule="nonzero" fill-opacity="1" /><polyline clip-path="url(#clip840)" style="stroke:#c271d2; stroke-linecap:round; stroke-linejoin:round; stroke-width:4; stroke-opacity:1; fill:none" points="4171.52,2787.74 4464.38,2787.74 "/>
<path clip-path="url(#clip840)" d="M4530.85 2783.67 Q4530.85 2787.04 4529.14 2790.34 Q4527.45 2793.62 4524.73 2795.68 Q4522.04 2797.75 4519.28 2797.75 Q4516.58 2797.75 4514.87 2795.68 Q4513.19 2793.6 4513.19 2790.2 Q4513.19 2789.01 4513.33 2788.17 Q4513.47 2787.32 4513.96 2785.36 L4517.89 2769.71 Q4518.57 2766.78 4518.57 2766.76 Q4518.57 2766.48 4518.46 2766.34 Q4518.36 2766.17 4517.8 2766.06 Q4517.24 2765.94 4516.16 2765.94 Q4515.72 2765.94 4515.5 2765.91 Q4515.32 2765.89 4515.15 2765.77 Q4515.01 2765.63 4515.01 2765.35 Q4515.01 2764.95 4515.18 2764.74 Q4515.36 2764.51 4515.5 2764.46 Q4515.65 2764.42 4515.93 2764.39 Q4516.32 2764.37 4517.66 2764.25 Q4518.99 2764.11 4520.14 2764.02 Q4521.29 2763.92 4521.78 2763.92 Q4522.06 2763.92 4522.2 2764.06 Q4522.37 2764.18 4522.37 2764.32 L4522.39 2764.44 L4518.85 2778.89 Q4521.64 2776.01 4524.48 2776.01 Q4527.31 2776.01 4529.07 2778.19 Q4530.85 2780.37 4530.85 2783.67 M4527.38 2781.56 Q4527.38 2779.34 4526.54 2778.21 Q4525.72 2777.06 4524.36 2777.06 Q4523.21 2777.06 4521.71 2777.93 Q4520.21 2778.8 4518.62 2780.91 Q4518.32 2781.3 4518.2 2781.54 Q4518.1 2781.77 4517.89 2782.57 L4516.84 2787 Q4516.07 2790.02 4516.07 2791.84 Q4516.07 2794.33 4516.98 2795.5 Q4517.89 2796.67 4519.28 2796.67 Q4520.73 2796.67 4522.25 2795.38 Q4523.77 2794.09 4524.94 2791.75 Q4525.67 2790.2 4526.51 2786.88 Q4527.38 2783.53 4527.38 2781.56 Z" fill="#000000" fill-rule="nonzero" fill-opacity="1" /><path clip-path="url(#clip840)" d="M4535.77 2805.7 L4535.77 2804.67 L4546.09 2788.91 Q4546.35 2788.5 4546.76 2788.52 Q4547.14 2788.52 4547.22 2788.67 Q4547.3 2788.81 4547.3 2789.39 L4547.3 2804.67 L4550.66 2804.67 L4550.66 2805.7 L4547.3 2805.7 L4547.3 2808.62 Q4547.3 2809.59 4547.69 2809.9 Q4548.1 2810.21 4549.84 2810.21 L4550.55 2810.21 L4550.55 2811.24 Q4549.17 2811.15 4545.99 2811.15 Q4542.82 2811.15 4541.45 2811.24 L4541.45 2810.21 L4542.15 2810.21 Q4543.89 2810.21 4544.3 2809.92 Q4544.71 2809.6 4544.71 2808.62 L4544.71 2805.7 L4535.77 2805.7 M4536.73 2804.67 L4544.91 2804.67 L4544.91 2792.14 L4536.73 2804.67 Z" fill="#000000" fill-rule="nonzero" fill-opacity="1" /></svg>
