<?xml version="1.0" encoding="utf-8"?>
<svg xmlns="http://www.w3.org/2000/svg" xmlns:xlink="http://www.w3.org/1999/xlink" width="1200" height="300" viewBox="0 0 4800 1200">
<defs>
  <clipPath id="clip690">
    <rect x="0" y="0" width="4800" height="1200"/>
  </clipPath>
</defs>
<path clip-path="url(#clip690)" d="M0 1200 L4800 1200 L4800 0 L0 0  Z" fill="#ffffff" fill-rule="evenodd" fill-opacity="1"/>
<defs>
  <clipPath id="clip691">
    <rect x="960" y="0" width="3361" height="1200"/>
  </clipPath>
</defs>
<path clip-path="url(#clip690)" d="M415.364 915.688 L2353.13 915.688 L2353.13 85.6721 L415.364 85.6721  Z" fill="#ffffff" fill-rule="evenodd" fill-opacity="1"/>
<defs>
  <clipPath id="clip692">
    <rect x="415" y="85" width="1939" height="831"/>
  </clipPath>
</defs>
<polyline clip-path="url(#clip692)" style="stroke:#000000; stroke-linecap:round; stroke-linejoin:round; stroke-width:2; stroke-opacity:0.1; fill:none" points="451.741,915.688 451.741,85.6721 "/>
<polyline clip-path="url(#clip692)" style="stroke:#000000; stroke-linecap:round; stroke-linejoin:round; stroke-width:2; stroke-opacity:0.1; fill:none" points="913.377,915.688 913.377,85.6721 "/>
<polyline clip-path="url(#clip692)" style="stroke:#000000; stroke-linecap:round; stroke-linejoin:round; stroke-width:2; stroke-opacity:0.1; fill:none" points="1375.01,915.688 1375.01,85.6721 "/>
<polyline clip-path="url(#clip692)" style="stroke:#000000; stroke-linecap:round; stroke-linejoin:round; stroke-width:2; stroke-opacity:0.1; fill:none" points="1836.65,915.688 1836.65,85.6721 "/>
<polyline clip-path="url(#clip692)" style="stroke:#000000; stroke-linecap:round; stroke-linejoin:round; stroke-width:2; stroke-opacity:0.1; fill:none" points="2298.28,915.688 2298.28,85.6721 "/>
<polyline clip-path="url(#clip692)" style="stroke:#000000; stroke-linecap:round; stroke-linejoin:round; stroke-width:2; stroke-opacity:0.1; fill:none" points="415.364,878.811 2353.13,878.811 "/>
<polyline clip-path="url(#clip692)" style="stroke:#000000; stroke-linecap:round; stroke-linejoin:round; stroke-width:2; stroke-opacity:0.1; fill:none" points="415.364,724.934 2353.13,724.934 "/>
<polyline clip-path="url(#clip692)" style="stroke:#000000; stroke-linecap:round; stroke-linejoin:round; stroke-width:2; stroke-opacity:0.1; fill:none" points="415.364,571.056 2353.13,571.056 "/>
<polyline clip-path="url(#clip692)" style="stroke:#000000; stroke-linecap:round; stroke-linejoin:round; stroke-width:2; stroke-opacity:0.1; fill:none" points="415.364,417.179 2353.13,417.179 "/>
<polyline clip-path="url(#clip692)" style="stroke:#000000; stroke-linecap:round; stroke-linejoin:round; stroke-width:2; stroke-opacity:0.1; fill:none" points="415.364,263.301 2353.13,263.301 "/>
<polyline clip-path="url(#clip692)" style="stroke:#000000; stroke-linecap:round; stroke-linejoin:round; stroke-width:2; stroke-opacity:0.1; fill:none" points="415.364,109.424 2353.13,109.424 "/>
<polyline clip-path="url(#clip690)" style="stroke:#000000; stroke-linecap:round; stroke-linejoin:round; stroke-width:4; stroke-opacity:1; fill:none" points="415.364,915.688 2353.13,915.688 "/>
<polyline clip-path="url(#clip690)" style="stroke:#000000; stroke-linecap:round; stroke-linejoin:round; stroke-width:4; stroke-opacity:1; fill:none" points="451.741,915.688 451.741,896.79 "/>
<polyline clip-path="url(#clip690)" style="stroke:#000000; stroke-linecap:round; stroke-linejoin:round; stroke-width:4; stroke-opacity:1; fill:none" points="913.377,915.688 913.377,896.79 "/>
<polyline clip-path="url(#clip690)" style="stroke:#000000; stroke-linecap:round; stroke-linejoin:round; stroke-width:4; stroke-opacity:1; fill:none" points="1375.01,915.688 1375.01,896.79 "/>
<polyline clip-path="url(#clip690)" style="stroke:#000000; stroke-linecap:round; stroke-linejoin:round; stroke-width:4; stroke-opacity:1; fill:none" points="1836.65,915.688 1836.65,896.79 "/>
<polyline clip-path="url(#clip690)" style="stroke:#000000; stroke-linecap:round; stroke-linejoin:round; stroke-width:4; stroke-opacity:1; fill:none" points="2298.28,915.688 2298.28,896.79 "/>
<path clip-path="url(#clip690)" d="M451.741 977.525 Q444.519 977.525 440.861 984.655 Q437.25 991.738 437.25 1006 Q437.25 1020.21 440.861 1027.34 Q444.519 1034.42 451.741 1034.42 Q459.009 1034.42 462.62 1027.34 Q466.278 1020.21 466.278 1006 Q466.278 991.738 462.62 984.655 Q459.009 977.525 451.741 977.525 M451.741 970.118 Q463.361 970.118 469.472 979.33 Q475.63 988.497 475.63 1006 Q475.63 1023.45 469.472 1032.66 Q463.361 1041.83 451.741 1041.83 Q440.121 1041.83 433.963 1032.66 Q427.852 1023.45 427.852 1006 Q427.852 988.497 433.963 979.33 Q440.121 970.118 451.741 970.118 Z" fill="#000000" fill-rule="nonzero" fill-opacity="1" /><path clip-path="url(#clip690)" d="M871.919 1032.62 L904.557 1032.62 L904.557 1040.49 L860.669 1040.49 L860.669 1032.62 Q865.993 1027.11 875.159 1017.85 Q884.372 1008.54 886.733 1005.86 Q891.224 1000.81 892.983 997.34 Q894.789 993.821 894.789 990.442 Q894.789 984.932 890.9 981.46 Q887.057 977.988 880.854 977.988 Q876.456 977.988 871.548 979.516 Q866.687 981.043 861.132 984.145 L861.132 974.701 Q866.78 972.432 871.687 971.275 Q876.594 970.118 880.669 970.118 Q891.409 970.118 897.798 975.488 Q904.187 980.858 904.187 989.84 Q904.187 994.099 902.567 997.941 Q900.992 1001.74 896.78 1006.92 Q895.622 1008.27 889.418 1014.7 Q883.215 1021.09 871.919 1032.62 Z" fill="#000000" fill-rule="nonzero" fill-opacity="1" /><path clip-path="url(#clip690)" d="M924.279 971.368 L960.992 971.368 L960.992 979.238 L932.844 979.238 L932.844 996.182 Q934.881 995.488 936.918 995.164 Q938.955 994.793 940.992 994.793 Q952.566 994.793 959.325 1001.14 Q966.085 1007.48 966.085 1018.31 Q966.085 1029.47 959.14 1035.67 Q952.196 1041.83 939.557 1041.83 Q935.205 1041.83 930.668 1041.09 Q926.178 1040.35 921.363 1038.87 L921.363 1029.47 Q925.529 1031.74 929.974 1032.85 Q934.418 1033.96 939.372 1033.96 Q947.381 1033.96 952.057 1029.75 Q956.733 1025.53 956.733 1018.31 Q956.733 1011.09 952.057 1006.88 Q947.381 1002.66 939.372 1002.66 Q935.622 1002.66 931.872 1003.5 Q928.168 1004.33 924.279 1006.09 L924.279 971.368 Z" fill="#000000" fill-rule="nonzero" fill-opacity="1" /><path clip-path="url(#clip690)" d="M1324.41 971.368 L1361.12 971.368 L1361.12 979.238 L1332.98 979.238 L1332.98 996.182 Q1335.01 995.488 1337.05 995.164 Q1339.09 994.793 1341.12 994.793 Q1352.7 994.793 1359.46 1001.14 Q1366.22 1007.48 1366.22 1018.31 Q1366.22 1029.47 1359.27 1035.67 Q1352.33 1041.83 1339.69 1041.83 Q1335.34 1041.83 1330.8 1041.09 Q1326.31 1040.35 1321.49 1038.87 L1321.49 1029.47 Q1325.66 1031.74 1330.11 1032.85 Q1334.55 1033.96 1339.5 1033.96 Q1347.51 1033.96 1352.19 1029.75 Q1356.86 1025.53 1356.86 1018.31 Q1356.86 1011.09 1352.19 1006.88 Q1347.51 1002.66 1339.5 1002.66 Q1335.75 1002.66 1332 1003.5 Q1328.3 1004.33 1324.41 1006.09 L1324.41 971.368 Z" fill="#000000" fill-rule="nonzero" fill-opacity="1" /><path clip-path="url(#clip690)" d="M1404.64 977.525 Q1397.42 977.525 1393.76 984.655 Q1390.15 991.738 1390.15 1006 Q1390.15 1020.21 1393.76 1027.34 Q1397.42 1034.42 1404.64 1034.42 Q1411.91 1034.42 1415.52 1027.34 Q1419.18 1020.21 1419.18 1006 Q1419.18 991.738 1415.52 984.655 Q1411.91 977.525 1404.64 977.525 M1404.64 970.118 Q1416.26 970.118 1422.37 979.33 Q1428.53 988.497 1428.53 1006 Q1428.53 1023.45 1422.37 1032.66 Q1416.26 1041.83 1404.64 1041.83 Q1393.02 1041.83 1386.86 1032.66 Q1380.75 1023.45 1380.75 1006 Q1380.75 988.497 1386.86 979.33 Q1393.02 970.118 1404.64 970.118 Z" fill="#000000" fill-rule="nonzero" fill-opacity="1" /><path clip-path="url(#clip690)" d="M1784.36 971.368 L1828.8 971.368 L1828.8 975.349 L1803.71 1040.49 L1793.94 1040.49 L1817.55 979.238 L1784.36 979.238 L1784.36 971.368 Z" fill="#000000" fill-rule="nonzero" fill-opacity="1" /><path clip-path="url(#clip690)" d="M1847.13 971.368 L1883.85 971.368 L1883.85 979.238 L1855.7 979.238 L1855.7 996.182 Q1857.74 995.488 1859.77 995.164 Q1861.81 994.793 1863.85 994.793 Q1875.42 994.793 1882.18 1001.14 Q1888.94 1007.48 1888.94 1018.31 Q1888.94 1029.47 1882 1035.67 Q1875.05 1041.83 1862.41 1041.83 Q1858.06 1041.83 1853.52 1041.09 Q1849.03 1040.35 1844.22 1038.87 L1844.22 1029.47 Q1848.38 1031.74 1852.83 1032.85 Q1857.27 1033.96 1862.23 1033.96 Q1870.24 1033.96 1874.91 1029.75 Q1879.59 1025.53 1879.59 1018.31 Q1879.59 1011.09 1874.91 1006.88 Q1870.24 1002.66 1862.23 1002.66 Q1858.48 1002.66 1854.73 1003.5 Q1851.02 1004.33 1847.13 1006.09 L1847.13 971.368 Z" fill="#000000" fill-rule="nonzero" fill-opacity="1" /><path clip-path="url(#clip690)" d="M2217.5 1032.62 L2232.78 1032.62 L2232.78 979.886 L2216.15 983.219 L2216.15 974.701 L2232.68 971.368 L2242.03 971.368 L2242.03 1032.62 L2257.31 1032.62 L2257.31 1040.49 L2217.5 1040.49 L2217.5 1032.62 Z" fill="#000000" fill-rule="nonzero" fill-opacity="1" /><path clip-path="url(#clip690)" d="M2296.2 977.525 Q2288.98 977.525 2285.32 984.655 Q2281.71 991.738 2281.71 1006 Q2281.71 1020.21 2285.32 1027.34 Q2288.98 1034.42 2296.2 1034.42 Q2303.47 1034.42 2307.08 1027.34 Q2310.74 1020.21 2310.74 1006 Q2310.74 991.738 2307.08 984.655 Q2303.47 977.525 2296.2 977.525 M2296.2 970.118 Q2307.82 970.118 2313.93 979.33 Q2320.09 988.497 2320.09 1006 Q2320.09 1023.45 2313.93 1032.66 Q2307.82 1041.83 2296.2 1041.83 Q2284.58 1041.83 2278.42 1032.66 Q2272.31 1023.45 2272.31 1006 Q2272.31 988.497 2278.42 979.33 Q2284.58 970.118 2296.2 970.118 Z" fill="#000000" fill-rule="nonzero" fill-opacity="1" /><path clip-path="url(#clip690)" d="M2356.52 977.525 Q2349.3 977.525 2345.64 984.655 Q2342.03 991.738 2342.03 1006 Q2342.03 1020.21 2345.64 1027.34 Q2349.3 1034.42 2356.52 1034.42 Q2363.79 1034.42 2367.4 1027.34 Q2371.06 1020.21 2371.06 1006 Q2371.06 991.738 2367.4 984.655 Q2363.79 977.525 2356.52 977.525 M2356.52 970.118 Q2368.14 970.118 2374.26 979.33 Q2380.41 988.497 2380.41 1006 Q2380.41 1023.45 2374.26 1032.66 Q2368.14 1041.83 2356.52 1041.83 Q2344.9 1041.83 2338.75 1032.66 Q2332.64 1023.45 2332.64 1006 Q2332.64 988.497 2338.75 979.33 Q2344.9 970.118 2356.52 970.118 Z" fill="#000000" fill-rule="nonzero" fill-opacity="1" /><path clip-path="url(#clip690)" d="M1382.88 1107.74 L1382.88 1122.46 L1400.43 1122.46 L1400.43 1129.08 L1382.88 1129.08 L1382.88 1157.23 Q1382.88 1163.57 1384.59 1165.38 Q1386.35 1167.18 1391.68 1167.18 L1400.43 1167.18 L1400.43 1174.31 L1391.68 1174.31 Q1381.81 1174.31 1378.06 1170.65 Q1374.31 1166.95 1374.31 1157.23 L1374.31 1129.08 L1368.06 1129.08 L1368.06 1122.46 L1374.31 1122.46 L1374.31 1107.74 L1382.88 1107.74 Z" fill="#000000" fill-rule="nonzero" fill-opacity="1" /><polyline clip-path="url(#clip690)" style="stroke:#000000; stroke-linecap:round; stroke-linejoin:round; stroke-width:4; stroke-opacity:1; fill:none" points="415.364,915.688 415.364,85.6721 "/>
<polyline clip-path="url(#clip690)" style="stroke:#000000; stroke-linecap:round; stroke-linejoin:round; stroke-width:4; stroke-opacity:1; fill:none" points="415.364,878.811 434.262,878.811 "/>
<polyline clip-path="url(#clip690)" style="stroke:#000000; stroke-linecap:round; stroke-linejoin:round; stroke-width:4; stroke-opacity:1; fill:none" points="415.364,724.934 434.262,724.934 "/>
<polyline clip-path="url(#clip690)" style="stroke:#000000; stroke-linecap:round; stroke-linejoin:round; stroke-width:4; stroke-opacity:1; fill:none" points="415.364,571.056 434.262,571.056 "/>
<polyline clip-path="url(#clip690)" style="stroke:#000000; stroke-linecap:round; stroke-linejoin:round; stroke-width:4; stroke-opacity:1; fill:none" points="415.364,417.179 434.262,417.179 "/>
<polyline clip-path="url(#clip690)" style="stroke:#000000; stroke-linecap:round; stroke-linejoin:round; stroke-width:4; stroke-opacity:1; fill:none" points="415.364,263.301 434.262,263.301 "/>
<polyline clip-path="url(#clip690)" style="stroke:#000000; stroke-linecap:round; stroke-linejoin:round; stroke-width:4; stroke-opacity:1; fill:none" points="415.364,109.424 434.262,109.424 "/>
<path clip-path="url(#clip690)" d="M222.392 879.714 L281.744 879.714 L281.744 887.585 L222.392 887.585 L222.392 879.714 Z" fill="#000000" fill-rule="nonzero" fill-opacity="1" /><path clip-path="url(#clip690)" d="M303.549 905.501 L318.827 905.501 L318.827 852.77 L302.207 856.103 L302.207 847.585 L318.735 844.251 L328.086 844.251 L328.086 905.501 L343.364 905.501 L343.364 913.371 L303.549 913.371 L303.549 905.501 Z" fill="#000000" fill-rule="nonzero" fill-opacity="1" /><path clip-path="url(#clip690)" d="M319.475 696.531 Q312.253 696.531 308.596 703.661 Q304.985 710.744 304.985 725.003 Q304.985 739.216 308.596 746.346 Q312.253 753.429 319.475 753.429 Q326.744 753.429 330.355 746.346 Q334.012 739.216 334.012 725.003 Q334.012 710.744 330.355 703.661 Q326.744 696.531 319.475 696.531 M319.475 689.124 Q331.096 689.124 337.207 698.337 Q343.364 707.503 343.364 725.003 Q343.364 742.457 337.207 751.67 Q331.096 760.836 319.475 760.836 Q307.855 760.836 301.698 751.67 Q295.586 742.457 295.586 725.003 Q295.586 707.503 301.698 698.337 Q307.855 689.124 319.475 689.124 Z" fill="#000000" fill-rule="nonzero" fill-opacity="1" /><path clip-path="url(#clip690)" d="M303.549 597.746 L318.827 597.746 L318.827 545.015 L302.207 548.348 L302.207 539.83 L318.735 536.496 L328.086 536.496 L328.086 597.746 L343.364 597.746 L343.364 605.616 L303.549 605.616 L303.549 597.746 Z" fill="#000000" fill-rule="nonzero" fill-opacity="1" /><path clip-path="url(#clip690)" d="M310.725 443.868 L343.364 443.868 L343.364 451.739 L299.475 451.739 L299.475 443.868 Q304.799 438.359 313.966 429.1 Q323.179 419.794 325.54 417.109 Q330.031 412.063 331.79 408.591 Q333.596 405.072 333.596 401.693 Q333.596 396.183 329.707 392.711 Q325.864 389.239 319.66 389.239 Q315.262 389.239 310.355 390.767 Q305.494 392.295 299.938 395.396 L299.938 385.952 Q305.586 383.684 310.494 382.526 Q315.401 381.369 319.475 381.369 Q330.216 381.369 336.605 386.739 Q342.994 392.109 342.994 401.091 Q342.994 405.35 341.373 409.193 Q339.799 412.989 335.586 418.174 Q334.429 419.517 328.225 425.952 Q322.022 432.341 310.725 443.868 Z" fill="#000000" fill-rule="nonzero" fill-opacity="1" /><path clip-path="url(#clip690)" d="M329.105 260.593 Q335.818 262.028 339.568 266.565 Q343.364 271.102 343.364 277.769 Q343.364 288 336.327 293.602 Q329.29 299.204 316.327 299.204 Q311.975 299.204 307.346 298.324 Q302.762 297.491 297.855 295.778 L297.855 286.75 Q301.744 289.019 306.373 290.176 Q311.003 291.333 316.049 291.333 Q324.846 291.333 329.429 287.861 Q334.059 284.389 334.059 277.769 Q334.059 271.658 329.753 268.232 Q325.494 264.76 317.855 264.76 L309.799 264.76 L309.799 257.074 L318.225 257.074 Q325.123 257.074 328.781 254.343 Q332.438 251.565 332.438 246.38 Q332.438 241.056 328.642 238.232 Q324.892 235.362 317.855 235.362 Q314.012 235.362 309.614 236.195 Q305.216 237.028 299.938 238.787 L299.938 230.454 Q305.262 228.973 309.892 228.232 Q314.568 227.491 318.688 227.491 Q329.336 227.491 335.54 232.352 Q341.744 237.167 341.744 245.408 Q341.744 251.148 338.457 255.13 Q335.17 259.065 329.105 260.593 Z" fill="#000000" fill-rule="nonzero" fill-opacity="1" /><path clip-path="url(#clip690)" d="M324.197 83.0117 L300.586 119.91 L324.197 119.91 L324.197 83.0117 M321.744 74.8636 L333.503 74.8636 L333.503 119.91 L343.364 119.91 L343.364 127.687 L333.503 127.687 L333.503 143.984 L324.197 143.984 L324.197 127.687 L292.994 127.687 L292.994 118.66 L321.744 74.8636 Z" fill="#000000" fill-rule="nonzero" fill-opacity="1" /><path clip-path="url(#clip690)" d="M77.8049 476.513 L103.036 495.263 L129.656 475.541 L129.656 485.587 L109.286 500.68 L129.656 515.772 L129.656 525.819 L102.527 505.68 L77.8049 524.106 L77.8049 514.059 L96.277 500.309 L77.8049 486.56 L77.8049 476.513 Z" fill="#000000" fill-rule="nonzero" fill-opacity="1" /><path clip-path="url(#clip690)" d="M1283.7 28.9478 L1283.7 35.9153 Q1280.54 34.1734 1277.34 33.3227 Q1274.18 32.4315 1270.94 32.4315 Q1263.69 32.4315 1259.68 37.0496 Q1255.67 41.6271 1255.67 49.9314 Q1255.67 58.2358 1259.68 62.8538 Q1263.69 67.4314 1270.94 67.4314 Q1274.18 67.4314 1277.34 66.5807 Q1280.54 65.6895 1283.7 63.9476 L1283.7 70.8341 Q1280.58 72.2924 1277.22 73.0216 Q1273.9 73.7508 1270.13 73.7508 Q1259.88 73.7508 1253.85 67.3098 Q1247.81 60.8689 1247.81 49.9314 Q1247.81 38.832 1253.89 32.472 Q1260 26.1121 1270.62 26.1121 Q1274.06 26.1121 1277.34 26.8413 Q1280.62 27.5299 1283.7 28.9478 Z" fill="#000000" fill-rule="nonzero" fill-opacity="1" /><path clip-path="url(#clip690)" d="M1296.66 9.54393 L1304.12 9.54393 L1304.12 72.576 L1296.66 72.576 L1296.66 9.54393 Z" fill="#000000" fill-rule="nonzero" fill-opacity="1" /><path clip-path="url(#clip690)" d="M1340.33 49.7694 Q1331.3 49.7694 1327.82 51.8354 Q1324.33 53.9013 1324.33 58.8839 Q1324.33 62.8538 1326.92 65.2034 Q1329.56 67.5124 1334.05 67.5124 Q1340.25 67.5124 1343.98 63.1374 Q1347.75 58.7219 1347.75 51.4303 L1347.75 49.7694 L1340.33 49.7694 M1355.2 46.6907 L1355.2 72.576 L1347.75 72.576 L1347.75 65.6895 Q1345.19 69.8214 1341.39 71.8063 Q1337.58 73.7508 1332.07 73.7508 Q1325.1 73.7508 1320.97 69.8619 Q1316.88 65.9325 1316.88 59.3701 Q1316.88 51.7138 1321.98 47.825 Q1327.13 43.9361 1337.3 43.9361 L1347.75 43.9361 L1347.75 43.2069 Q1347.75 38.0623 1344.34 35.2672 Q1340.98 32.4315 1334.86 32.4315 Q1330.98 32.4315 1327.29 33.3632 Q1323.6 34.295 1320.2 36.1584 L1320.2 29.2718 Q1324.29 27.692 1328.14 26.9223 Q1331.99 26.1121 1335.63 26.1121 Q1345.48 26.1121 1350.34 31.2163 Q1355.2 36.3204 1355.2 46.6907 Z" fill="#000000" fill-rule="nonzero" fill-opacity="1" /><path clip-path="url(#clip690)" d="M1399.48 28.5427 L1399.48 35.5912 Q1396.32 33.9709 1392.91 33.1607 Q1389.51 32.3505 1385.87 32.3505 Q1380.32 32.3505 1377.52 34.0519 Q1374.77 35.7533 1374.77 39.156 Q1374.77 41.7486 1376.75 43.2475 Q1378.74 44.7058 1384.73 46.0426 L1387.28 46.6097 Q1395.22 48.3111 1398.54 51.4303 Q1401.91 54.509 1401.91 60.0587 Q1401.91 66.3781 1396.88 70.0644 Q1391.9 73.7508 1383.15 73.7508 Q1379.51 73.7508 1375.54 73.0216 Q1371.61 72.3329 1367.23 70.9151 L1367.23 63.2184 Q1371.36 65.3654 1375.37 66.4591 Q1379.38 67.5124 1383.31 67.5124 Q1388.58 67.5124 1391.42 65.73 Q1394.25 63.9071 1394.25 60.6258 Q1394.25 57.5877 1392.18 55.9673 Q1390.16 54.3469 1383.23 52.8481 L1380.64 52.2405 Q1373.71 50.7821 1370.63 47.7845 Q1367.56 44.7463 1367.56 39.4801 Q1367.56 33.0797 1372.09 29.5959 Q1376.63 26.1121 1384.97 26.1121 Q1389.11 26.1121 1392.75 26.7198 Q1396.4 27.3274 1399.48 28.5427 Z" fill="#000000" fill-rule="nonzero" fill-opacity="1" /><path clip-path="url(#clip690)" d="M1442.7 28.5427 L1442.7 35.5912 Q1439.54 33.9709 1436.14 33.1607 Q1432.73 32.3505 1429.09 32.3505 Q1423.54 32.3505 1420.74 34.0519 Q1417.99 35.7533 1417.99 39.156 Q1417.99 41.7486 1419.97 43.2475 Q1421.96 44.7058 1427.95 46.0426 L1430.51 46.6097 Q1438.45 48.3111 1441.77 51.4303 Q1445.13 54.509 1445.13 60.0587 Q1445.13 66.3781 1440.11 70.0644 Q1435.12 73.7508 1426.37 73.7508 Q1422.73 73.7508 1418.76 73.0216 Q1414.83 72.3329 1410.45 70.9151 L1410.45 63.2184 Q1414.59 65.3654 1418.6 66.4591 Q1422.61 67.5124 1426.54 67.5124 Q1431.8 67.5124 1434.64 65.73 Q1437.47 63.9071 1437.47 60.6258 Q1437.47 57.5877 1435.41 55.9673 Q1433.38 54.3469 1426.46 52.8481 L1423.86 52.2405 Q1416.94 50.7821 1413.86 47.7845 Q1410.78 44.7463 1410.78 39.4801 Q1410.78 33.0797 1415.32 29.5959 Q1419.85 26.1121 1428.2 26.1121 Q1432.33 26.1121 1435.98 26.7198 Q1439.62 27.3274 1442.7 28.5427 Z" fill="#000000" fill-rule="nonzero" fill-opacity="1" /><path clip-path="url(#clip690)" d="M1485.84 65.6895 L1499.21 65.6895 L1499.21 19.5497 L1484.67 22.4663 L1484.67 15.0127 L1499.13 12.096 L1507.31 12.096 L1507.31 65.6895 L1520.68 65.6895 L1520.68 72.576 L1485.84 72.576 L1485.84 65.6895 Z" fill="#000000" fill-rule="nonzero" fill-opacity="1" /><polyline clip-path="url(#clip692)" style="stroke:#9466bd; stroke-linecap:round; stroke-linejoin:round; stroke-width:4; stroke-opacity:0.5; fill:none" points="470.206,835.06 488.672,864.558 507.137,863.41 525.603,880.242 544.068,835.494 562.533,794.135 580.999,743.653 599.464,690.332 617.93,632.014 636.395,593.563 654.861,540.629 673.326,531.475 691.792,510.041 710.257,498.467 728.722,520.452 747.188,580.402 765.653,603.938 784.119,636.216 802.584,658.671 821.05,677.428 839.515,731.179 857.98,764.327 876.446,762.841 894.911,752.449 913.377,787.019 931.842,731.532 950.308,678.98 968.773,608.119 987.238,531.431 1005.7,503.26 1024.17,467.168 1042.63,458.514 1061.1,421.648 1079.57,410.1 1098.03,433.238 1116.5,443.08 1134.96,503.429 1153.43,539.215 1171.89,594.266 1190.36,617.543 1208.82,661.789 1227.29,681.949 1245.75,691.311 1264.22,668.276 1282.69,672.766 1301.15,594.592 1319.62,555.445 1338.08,512.114 1356.55,444.156 1375.01,401.057 1393.48,376.46 1411.94,328.8 1430.41,337.604 1448.87,339.483 1467.34,369.209 1485.81,360.704 1504.27,397.242 1522.74,444.811 1541.2,480.607 1559.67,538.812 1578.13,543.626 1596.6,597.183 1615.06,583.453 1633.53,602.731 1651.99,545.835 1670.46,502.476 1688.92,482.581 1707.39,425.203 1725.86,365.289 1744.32,329.785 1762.79,287.883 1781.25,222.29 1799.72,236.857 1818.18,218.248 1836.65,240.771 1855.11,276.877 1873.58,323.707 1892.04,338.253 1910.51,391.343 1928.98,437.842 1947.44,476.634 1965.91,475.273 1984.37,506.266 2002.84,475.042 2021.3,468.305 2039.77,440.858 2058.23,394.231 2076.7,357.254 2095.16,284.52 2113.63,220.861 2132.1,177.779 2150.56,128.117 2169.03,160.668 2187.49,166.516 2205.96,140.086 2224.42,168.836 2242.89,205.808 2261.35,266.088 2279.82,288.832 2298.28,333.726 "/>
<polyline clip-path="url(#clip692)" style="stroke:#9466bd; stroke-linecap:round; stroke-linejoin:round; stroke-width:4; stroke-opacity:0.5; fill:none" points="470.206,873.301 488.672,837.238 507.137,826.394 525.603,782.529 544.068,731.132 562.533,679.542 580.999,637.117 599.464,606.009 617.93,564.41 636.395,532.509 654.861,494.247 673.326,504.304 691.792,536.457 710.257,594.858 728.722,623.216 747.188,654.798 765.653,689.46 784.119,729.452 802.584,750.207 821.05,763.408 839.515,789.117 857.98,791.744 876.446,749.103 894.911,703.384 913.377,673.8 931.842,581.178 950.308,538.722 968.773,497.53 987.238,482.289 1005.7,449.348 1024.17,411.307 1042.63,429.382 1061.1,428.221 1079.57,483.194 1098.03,505.469 1116.5,578.219 1134.96,595.536 1153.43,654.858 1171.89,665.838 1190.36,678.067 1208.82,678.458 1227.29,691.744 1245.75,649.928 1264.22,625.178 1282.69,544.255 1301.15,522.184 1319.62,459.019 1338.08,409.398 1356.55,363.112 1375.01,338.832 1393.48,325.781 1411.94,317.058 1430.41,349.265 1448.87,388.922 1467.34,427.279 1485.81,457.864 1504.27,535.202 1522.74,575.854 1541.2,598.286 1559.67,597.25 1578.13,609.634 1596.6,602.605 1615.06,538.356 1633.53,484.118 1651.99,481.929 1670.46,416.259 1688.92,374.505 1707.39,314.667 1725.86,260.024 1744.32,249.616 1762.79,233.832 1781.25,254.488 1799.72,267.193 1818.18,274.882 1836.65,337.922 1855.11,393.802 1873.58,437.699 1892.04,446.325 1910.51,486.452 1928.98,498.288 1947.44,491.466 1965.91,485.636 1984.37,462.684 2002.84,435.994 2021.3,354.28 2039.77,326.784 2058.23,261.503 2076.7,213.796 2095.16,173.833 2113.63,178.633 2132.1,160.307 2150.56,135.295 2169.03,201.505 2187.49,193.256 2205.96,268.947 2224.42,280.648 2242.89,328.787 2261.35,382.626 2279.82,386.912 2298.28,418.214 "/>
<polyline clip-path="url(#clip692)" style="stroke:#9466bd; stroke-linecap:round; stroke-linejoin:round; stroke-width:4; stroke-opacity:0.5; fill:none" points="470.206,636.455 488.672,634.517 507.137,706.634 525.603,750.176 544.068,817.615 562.533,839.196 580.999,845.926 599.464,856.248 617.93,846.066 636.395,798.355 654.861,783.98 673.326,732.105 691.792,674.809 710.257,630.768 728.722,538.364 747.188,552.687 765.653,513.335 784.119,485.244 802.584,470.572 821.05,479.505 839.515,549.569 857.98,562.184 876.446,624.801 894.911,652.174 913.377,695.181 931.842,719.747 950.308,763.539 968.773,746.606 987.238,756.586 1005.7,735.641 1024.17,676.543 1042.63,615.605 1061.1,588.601 1079.57,512.078 1098.03,470.964 1116.5,444.442 1134.96,386.686 1153.43,386.259 1171.89,414.691 1190.36,402.413 1208.82,448.102 1227.29,480.738 1245.75,523.711 1264.22,574.804 1282.69,593.342 1301.15,633.088 1319.62,665.199 1338.08,654.722 1356.55,642.174 1375.01,591.801 1393.48,567.089 1411.94,553.475 1430.41,481.054 1448.87,416.797 1467.34,370.746 1485.81,347.351 1504.27,315.692 1522.74,311.812 1541.2,311.806 1559.67,304.592 1578.13,366.097 1596.6,380.179 1615.06,415.335 1633.53,462.443 1651.99,500.212 1670.46,552.298 1688.92,588.866 1707.39,528.638 1725.86,574.169 1744.32,545.195 1762.79,476.575 1781.25,455.15 1799.72,400.967 1818.18,335.778 1836.65,301.177 1855.11,238.235 1873.58,232.084 1892.04,208.342 1910.51,208.582 1928.98,232.275 1947.44,251.675 1965.91,275.24 1984.37,336.974 2002.84,366.989 2021.3,412.678 2039.77,459.186 2058.23,456.766 2076.7,488.88 2095.16,448.787 2113.63,442.663 2132.1,430.673 2150.56,348.206 2169.03,300.084 2187.49,212.257 2205.96,194.003 2224.42,184.31 2242.89,172.7 2261.35,140.4 2279.82,129.1 2298.28,157.918 "/>
<polyline clip-path="url(#clip692)" style="stroke:#9466bd; stroke-linecap:round; stroke-linejoin:round; stroke-width:4; stroke-opacity:0.5; fill:none" points="470.206,703.18 488.672,667.723 507.137,606.973 525.603,541.559 544.068,531.325 562.533,555.841 580.999,583.703 599.464,613.38 617.93,608.144 636.395,672.96 654.861,704.971 673.326,750.059 691.792,767.753 710.257,788.696 728.722,804.76 747.188,789.862 765.653,805.117 784.119,749.828 802.584,713.344 821.05,658.747 839.515,616.652 857.98,548.405 876.446,482.165 894.911,502.5 913.377,466.035 931.842,456.014 950.308,481.001 968.773,468.076 987.238,518.612 1005.7,574.734 1024.17,645.003 1042.63,649.347 1061.1,671.964 1079.57,720.478 1098.03,727.392 1116.5,706.415 1134.96,680.122 1153.43,657.641 1171.89,612.757 1190.36,528.829 1208.82,512.46 1227.29,493.386 1245.75,396.421 1264.22,350.143 1282.69,358.912 1301.15,363.688 1319.62,388.308 1338.08,369.688 1356.55,407.828 1375.01,475.007 1393.48,501.758 1411.94,537.241 1430.41,588.82 1448.87,656.295 1467.34,642.293 1485.81,590.799 1504.27,602.001 1522.74,589.767 1541.2,497.316 1559.67,471.743 1578.13,417.159 1596.6,376.997 1615.06,328.991 1633.53,307.713 1651.99,255.854 1670.46,262.984 1688.92,288.465 1707.39,320.254 1725.86,336.869 1744.32,372.843 1762.79,415.396 1781.25,428.339 1799.72,502.167 1818.18,512.999 1836.65,529.607 1855.11,534.89 1873.58,527.563 1892.04,463.431 1910.51,437.782 1928.98,351.749 1947.44,327.242 1965.91,255.591 1984.37,261.471 2002.84,205.313 2021.3,157.975 2039.77,189.171 2058.23,188.557 2076.7,223.416 2095.16,228.473 2113.63,284.557 2132.1,346.32 2150.56,405.666 2169.03,404.519 2187.49,436.761 2205.96,457.579 2224.42,434.744 2242.89,406.008 2261.35,360.373 2279.82,331.388 2298.28,274.994 "/>
<polyline clip-path="url(#clip692)" style="stroke:#9466bd; stroke-linecap:round; stroke-linejoin:round; stroke-width:4; stroke-opacity:0.5; fill:none" points="470.206,863.335 488.672,889.473 507.137,835.555 525.603,797.018 544.068,735.568 562.533,661.062 580.999,645.539 599.464,610.846 617.93,568.544 636.395,532.835 654.861,519.736 673.326,545.628 691.792,555.578 710.257,619.536 728.722,629.388 747.188,661.608 765.653,723.424 784.119,756.971 802.584,748.832 821.05,781.193 839.515,765.846 857.98,754.388 876.446,765.377 894.911,701.697 913.377,643.053 931.842,572.579 950.308,536.514 968.773,477.848 987.238,448.8 1005.7,420.127 1024.17,406.463 1042.63,450.242 1061.1,459.375 1079.57,500.68 1098.03,538.189 1116.5,555.943 1134.96,593.764 1153.43,677.871 1171.89,675.655 1190.36,665.992 1208.82,687.759 1227.29,679.287 1245.75,661.751 1264.22,593.993 1282.69,551.189 1301.15,506.042 1319.62,459.789 1338.08,431.984 1356.55,353.037 1375.01,334.027 1393.48,322.465 1411.94,356.261 1430.41,387.895 1448.87,428.607 1467.34,445.468 1485.81,481.519 1504.27,551.15 1522.74,555.091 1541.2,590.931 1559.67,607.526 1578.13,548.249 1596.6,591.33 1615.06,537.061 1633.53,506.158 1651.99,463.439 1670.46,411.046 1688.92,350.848 1707.39,325.247 1725.86,258.708 1744.32,235.191 1762.79,246.555 1781.25,244.337 1799.72,282.309 1818.18,291.283 1836.65,340.484 1855.11,390.526 1873.58,436.547 1892.04,460.609 1910.51,463.23 1928.98,497.259 1947.44,489.523 1965.91,489.845 1984.37,439.823 2002.84,402.394 2021.3,362.048 2039.77,328.888 2058.23,273.708 2076.7,183.013 2095.16,176.933 2113.63,143.884 2132.1,150.193 2150.56,152.066 2169.03,178.268 2187.49,233.588 2205.96,273.058 2224.42,284.044 2242.89,348.177 2261.35,358.123 2279.82,395.383 2298.28,423.26 "/>
<polyline clip-path="url(#clip692)" style="stroke:#9466bd; stroke-linecap:round; stroke-linejoin:round; stroke-width:4; stroke-opacity:0.5; fill:none" points="470.206,822.648 488.672,798.187 507.137,756.543 525.603,698.17 544.068,660.374 562.533,628.349 580.999,552.119 599.464,557.571 617.93,522.514 636.395,534.65 654.861,553.993 673.326,594.794 691.792,619.538 710.257,656.395 728.722,709.345 747.188,719.319 765.653,790.699 784.119,781.746 802.584,803.07 821.05,777.137 839.515,733.38 857.98,729.23 876.446,693.466 894.911,632.622 913.377,535.663 931.842,535.295 950.308,478.395 968.773,435.713 987.238,422.078 1005.7,413.566 1024.17,457.829 1042.63,488.874 1061.1,562.914 1079.57,567.049 1098.03,605.904 1116.5,681.745 1134.96,689.219 1153.43,714.104 1171.89,686.744 1190.36,699.58 1208.82,651.088 1227.29,600.826 1245.75,557.057 1264.22,462.706 1282.69,448.786 1301.15,410.512 1319.62,370.506 1338.08,345.696 1356.55,332.361 1375.01,338.047 1393.48,354.896 1411.94,412.022 1430.41,463.976 1448.87,476.475 1467.34,503.862 1485.81,560.314 1504.27,586.197 1522.74,620.51 1541.2,599.81 1559.67,606.731 1578.13,565.04 1596.6,512.794 1615.06,477.699 1633.53,433.687 1651.99,378.552 1670.46,359.323 1688.92,304.687 1707.39,276.647 1725.86,260.656 1744.32,279.942 1762.79,266.189 1781.25,305.754 1799.72,365.654 1818.18,383.783 1836.65,448.342 1855.11,463.679 1873.58,491.027 1892.04,526.398 1910.51,525.171 1928.98,503.655 1947.44,464.318 1965.91,430.439 1984.37,371.015 2002.84,308.449 2021.3,277.342 2039.77,221.062 2058.23,195.134 2076.7,140.965 2095.16,166.227 2113.63,178.507 2132.1,196.508 2150.56,195.556 2169.03,255.685 2187.49,298.191 2205.96,337.013 2224.42,363.643 2242.89,387.806 2261.35,418.931 2279.82,416.285 2298.28,398.258 "/>
<polyline clip-path="url(#clip692)" style="stroke:#9466bd; stroke-linecap:round; stroke-linejoin:round; stroke-width:4; stroke-opacity:0.5; fill:none" points="470.206,892.197 488.672,854.302 507.137,883.011 525.603,833.902 544.068,820.361 562.533,759.176 580.999,711.572 599.464,661.928 617.93,596.733 636.395,620.724 654.861,526.122 673.326,521.001 691.792,522.065 710.257,519.056 728.722,512.285 747.188,543.795 765.653,606.181 784.119,675.541 802.584,711.349 821.05,731.419 839.515,734.851 857.98,784.786 876.446,770.666 894.911,764.668 913.377,688.58 931.842,691.044 950.308,620.626 968.773,539.899 987.238,490.869 1005.7,471.327 1024.17,446.467 1042.63,413.126 1061.1,417.875 1079.57,430.795 1098.03,453.939 1116.5,457.68 1134.96,547.207 1153.43,562.772 1171.89,628.539 1190.36,651.186 1208.82,651.441 1227.29,687.023 1245.75,682.986 1264.22,650.745 1282.69,620.095 1301.15,599.011 1319.62,578.855 1338.08,483.196 1356.55,421.513 1375.01,383.843 1393.48,368.242 1411.94,312.99 1430.41,320.527 1448.87,348.677 1467.34,351.182 1485.81,383.699 1504.27,457.447 1522.74,466.524 1541.2,522.986 1559.67,555.928 1578.13,595.142 1596.6,605.517 1615.06,587.347 1633.53,562.267 1651.99,528.796 1670.46,509.242 1688.92,433.605 1707.39,371.662 1725.86,337.914 1744.32,285.519 1762.79,252.175 1781.25,219.58 1799.72,243.881 1818.18,264.874 1836.65,282.488 1855.11,270.431 1873.58,319.578 1892.04,370.617 1910.51,428.996 1928.98,467.561 1947.44,468.842 1965.91,511.717 1984.37,474.186 2002.84,484.702 2021.3,452.659 2039.77,376.259 2058.23,347.324 2076.7,292.032 2095.16,254.945 2113.63,172.792 2132.1,161.437 2150.56,177.832 2169.03,143.224 2187.49,161.627 2205.96,183.772 2224.42,233.749 2242.89,253.926 2261.35,320.322 2279.82,333.83 2298.28,346.79 "/>
<polyline clip-path="url(#clip692)" style="stroke:#9466bd; stroke-linecap:round; stroke-linejoin:round; stroke-width:4; stroke-opacity:0.5; fill:none" points="470.206,870.56 488.672,828.35 507.137,803.567 525.603,773.641 544.068,708.154 562.533,642.657 580.999,618.914 599.464,553.341 617.93,555.97 636.395,523.829 654.861,538.626 673.326,574.003 691.792,567.983 710.257,566.804 728.722,662.158 747.188,683.869 765.653,747.346 784.119,773.3 802.584,794.118 821.05,770.71 839.515,781.29 857.98,779.153 876.446,704.7 894.911,663.072 913.377,624.799 931.842,571.77 950.308,519.783 968.773,481.67 987.238,438.808 1005.7,412.92 1024.17,418.387 1042.63,453.44 1061.1,481.427 1079.57,488.914 1098.03,556.304 1116.5,592.535 1134.96,624.735 1153.43,661.735 1171.89,686.61 1190.36,692.929 1208.82,680.144 1227.29,661.549 1245.75,595.904 1264.22,565.788 1282.69,520.782 1301.15,480.987 1319.62,414.099 1338.08,374.787 1356.55,348.886 1375.01,315.359 1393.48,353.08 1411.94,348.14 1430.41,395.763 1448.87,443.162 1467.34,497.575 1485.81,541.565 1504.27,548.78 1522.74,587.441 1541.2,628.523 1559.67,599.957 1578.13,600.794 1596.6,577.494 1615.06,537.555 1633.53,472.055 1651.99,442.74 1670.46,379.21 1688.92,298.743 1707.39,271.607 1725.86,264.128 1744.32,228.035 1762.79,250.433 1781.25,261.809 1799.72,301.055 1818.18,320.442 1836.65,379.67 1855.11,431.279 1873.58,444.287 1892.04,495.552 1910.51,528.553 1928.98,509.987 1947.44,520.138 1965.91,473.123 1984.37,450.016 2002.84,416.057 2021.3,319.048 2039.77,272.214 2058.23,254.487 2076.7,214.922 2095.16,143.345 2113.63,149.327 2132.1,131.329 2150.56,169.605 2169.03,191.866 2187.49,205.393 2205.96,292.935 2224.42,301.993 2242.89,367.984 2261.35,379.898 2279.82,420.011 2298.28,399.187 "/>
<polyline clip-path="url(#clip692)" style="stroke:#9466bd; stroke-linecap:round; stroke-linejoin:round; stroke-width:4; stroke-opacity:0.5; fill:none" points="470.206,823.65 488.672,837.236 507.137,818.415 525.603,870.746 544.068,862.923 562.533,798.531 580.999,780.56 599.464,740.207 617.93,686.251 636.395,627.308 654.861,574.9 673.326,553.45 691.792,515.977 710.257,510.295 728.722,476.746 747.188,525.434 765.653,527.234 784.119,582.726 802.584,642.279 821.05,702.837 839.515,728.366 857.98,739.318 876.446,774.236 894.911,760.151 913.377,748.17 931.842,749.072 950.308,671.292 968.773,620.741 987.238,628.774 1005.7,552.203 1024.17,479.628 1042.63,439.847 1061.1,443.745 1079.57,428.035 1098.03,442.622 1116.5,428.199 1134.96,472.565 1153.43,521.959 1171.89,542.541 1190.36,559.803 1208.82,646.859 1227.29,638.479 1245.75,641.889 1264.22,682.04 1282.69,667.189 1301.15,638.81 1319.62,586.989 1338.08,568.849 1356.55,465.553 1375.01,444.79 1393.48,402.543 1411.94,341.425 1430.41,332.946 1448.87,319.92 1467.34,327.576 1485.81,349.189 1504.27,365.976 1522.74,389.526 1541.2,459.882 1559.67,487.243 1578.13,524.101 1596.6,566.581 1615.06,573.35 1633.53,586.966 1651.99,576.015 1670.46,512.981 1688.92,517.775 1707.39,470.466 1725.86,387.541 1744.32,353.134 1762.79,298.515 1781.25,270.98 1799.72,230.837 1818.18,261.331 1836.65,225.235 1855.11,238.932 1873.58,278.709 1892.04,330.523 1910.51,366.178 1928.98,397.107 1947.44,433.708 1965.91,458.423 1984.37,505.804 2002.84,511.491 2021.3,472.697 2039.77,473.314 2058.23,400.078 2076.7,381.303 2095.16,329.504 2113.63,295.405 2132.1,208.768 2150.56,184.004 2169.03,144.127 2187.49,132.211 2205.96,135.282 2224.42,153.336 2242.89,187.042 2261.35,236.808 2279.82,248.227 2298.28,314.861 "/>
<polyline clip-path="url(#clip692)" style="stroke:#9466bd; stroke-linecap:round; stroke-linejoin:round; stroke-width:4; stroke-opacity:0.5; fill:none" points="470.206,689.766 488.672,644.568 507.137,614.958 525.603,579.663 544.068,559.037 562.533,565.921 580.999,582.587 599.464,567.118 617.93,597.007 636.395,661.044 654.861,707.841 673.326,699.715 691.792,790.896 710.257,823.976 728.722,816.709 747.188,799.167 765.653,778.012 784.119,781.504 802.584,685.25 821.05,681.137 839.515,602.925 857.98,559.848 876.446,513.923 894.911,497.024 913.377,434.067 931.842,446.869 950.308,446.591 968.773,514.716 987.238,536.065 1005.7,596.419 1024.17,605.181 1042.63,629.314 1061.1,664.075 1079.57,710.22 1098.03,708.245 1116.5,721.427 1134.96,700.378 1153.43,669.889 1171.89,604.482 1190.36,574.806 1208.82,541.629 1227.29,441.216 1245.75,416.647 1264.22,382.831 1282.69,352.495 1301.15,366.576 1319.62,353.48 1338.08,398.598 1356.55,419.845 1375.01,470.321 1393.48,517.182 1411.94,529.031 1430.41,608.848 1448.87,617.61 1467.34,609.581 1485.81,629.09 1504.27,599.508 1522.74,567 1541.2,500.466 1559.67,465.273 1578.13,428.761 1596.6,374.825 1615.06,302.536 1633.53,290.792 1651.99,246.467 1670.46,263.429 1688.92,285.855 1707.39,308.436 1725.86,342.216 1744.32,378.523 1762.79,427.804 1781.25,479.501 1799.72,482.425 1818.18,539.618 1836.65,540.32 1855.11,530.794 1873.58,511.372 1892.04,488.411 1910.51,428.216 1928.98,393.069 1947.44,301.209 1965.91,281.277 1984.37,230.996 2002.84,213.755 2021.3,191.654 2039.77,166.587 2058.23,174.818 2076.7,189.412 2095.16,219.197 2113.63,282.966 2132.1,337.976 2150.56,367.65 2169.03,420.864 2187.49,422.26 2205.96,450.24 2224.42,457.979 2242.89,413.562 2261.35,386.917 2279.82,357.537 2298.28,298.222 "/>
<polyline clip-path="url(#clip692)" style="stroke:#9466bd; stroke-linecap:round; stroke-linejoin:round; stroke-width:4; stroke-opacity:0.5; fill:none" points="470.206,642.654 488.672,580.092 507.137,608.256 525.603,538.275 544.068,547.285 562.533,579.349 580.999,621.245 599.464,658.376 617.93,705.258 636.395,754.336 654.861,805.683 673.326,803.452 691.792,815.678 710.257,803.074 728.722,774.913 747.188,741.022 765.653,694.467 784.119,657.555 802.584,601.252 821.05,568.364 839.515,510.384 857.98,506.506 876.446,485.502 894.911,465.057 913.377,470.545 931.842,514.254 950.308,559.371 968.773,568.186 987.238,646.685 1005.7,689.419 1024.17,681.044 1042.63,705.732 1061.1,735.148 1079.57,750.666 1098.03,711.616 1116.5,668.108 1134.96,610.391 1153.43,550.826 1171.89,548.335 1190.36,480.96 1208.82,409.22 1227.29,420.452 1245.75,371.576 1264.22,403.942 1282.69,389.725 1301.15,414.937 1319.62,422.874 1338.08,485.672 1356.55,518.164 1375.01,559.373 1393.48,587.205 1411.94,618.918 1430.41,610.463 1448.87,605.032 1467.34,636.509 1485.81,565.554 1504.27,525.971 1522.74,505.911 1541.2,435.941 1559.67,381.224 1578.13,315.729 1596.6,302.169 1615.06,307.944 1633.53,277.894 1651.99,290.51 1670.46,306.426 1688.92,338.943 1707.39,381.029 1725.86,438.007 1744.32,487.41 1762.79,500.687 1781.25,552.33 1799.72,542.729 1818.18,518.832 1836.65,525.487 1855.11,480.111 1873.58,424.951 1892.04,375.467 1910.51,336.506 1928.98,255.575 1947.44,235.951 1965.91,196.452 1984.37,187.321 2002.84,192.243 2021.3,221.473 2039.77,221.923 2058.23,237.495 2076.7,293.556 2095.16,337.075 2113.63,357.151 2132.1,418.979 2150.56,416.608 2169.03,439.626 2187.49,447.25 2205.96,425.41 2224.42,378.902 2242.89,348.743 2261.35,288.324 2279.82,232.087 2298.28,202.17 "/>
<polyline clip-path="url(#clip692)" style="stroke:#9466bd; stroke-linecap:round; stroke-linejoin:round; stroke-width:4; stroke-opacity:0.5; fill:none" points="470.206,859.125 488.672,875.6 507.137,881.868 525.603,836.012 544.068,801.313 562.533,779.042 580.999,760.292 599.464,671.81 617.93,614.812 636.395,567.599 654.861,545.03 673.326,514.458 691.792,477.949 710.257,518.708 728.722,523 747.188,554.644 765.653,597.582 784.119,659.559 802.584,684.726 821.05,730.615 839.515,764.339 857.98,776.874 876.446,789.269 894.911,775.781 913.377,769.401 931.842,694.347 950.308,605.594 968.773,589.978 987.238,559.298 1005.7,481.311 1024.17,448.575 1042.63,417.848 1061.1,438.916 1079.57,407.671 1098.03,427.368 1116.5,480.758 1134.96,497.623 1153.43,541.709 1171.89,589.186 1190.36,631.442 1208.82,697.13 1227.29,688.174 1245.75,661.08 1264.22,688.484 1282.69,613.883 1301.15,628.877 1319.62,565.113 1338.08,494.211 1356.55,476.675 1375.01,392.667 1393.48,369.694 1411.94,333.728 1430.41,317.087 1448.87,341.131 1467.34,333.126 1485.81,367.838 1504.27,417.83 1522.74,453.38 1541.2,520.713 1559.67,543.461 1578.13,554.575 1596.6,570.627 1615.06,589.317 1633.53,587.013 1651.99,540.806 1670.46,508.402 1688.92,458.555 1707.39,404.416 1725.86,357.541 1744.32,306.75 1762.79,267.967 1781.25,229.676 1799.72,217.24 1818.18,259.894 1836.65,264.007 1855.11,296.915 1873.58,327.36 1892.04,366.746 1910.51,422.566 1928.98,430.03 1947.44,456.125 1965.91,494.017 1984.37,502.729 2002.84,493.038 2021.3,483.896 2039.77,404.271 2058.23,371.61 2076.7,323.318 2095.16,267.126 2113.63,256.572 2132.1,193.154 2150.56,136.593 2169.03,142.901 2187.49,111.307 2205.96,194.034 2224.42,217.516 2242.89,175.865 2261.35,293.04 2279.82,312.268 2298.28,355.59 "/>
<polyline clip-path="url(#clip692)" style="stroke:#9466bd; stroke-linecap:round; stroke-linejoin:round; stroke-width:4; stroke-opacity:0.5; fill:none" points="470.206,552.318 488.672,583.309 507.137,555.759 525.603,588.475 544.068,596.719 562.533,630.613 580.999,685.323 599.464,698.09 617.93,757 636.395,784.194 654.861,811.25 673.326,798.684 691.792,809.272 710.257,787.536 728.722,740.698 747.188,728.23 765.653,636.532 784.119,606.911 802.584,563.888 821.05,509.933 839.515,483.338 857.98,481.247 876.446,480.948 894.911,510.688 913.377,520.437 931.842,536.037 950.308,612.654 968.773,652.639 987.238,678.052 1005.7,709.937 1024.17,705.933 1042.63,721.36 1061.1,681.346 1079.57,708.626 1098.03,646.11 1116.5,592.228 1134.96,559.907 1153.43,486.216 1171.89,466.889 1190.36,410.123 1208.82,403.751 1227.29,384.229 1245.75,374.825 1264.22,396.58 1282.69,419.69 1301.15,429.67 1319.62,498.171 1338.08,558.479 1356.55,571.081 1375.01,616.29 1393.48,653.032 1411.94,682.229 1430.41,669.912 1448.87,606.618 1467.34,597.818 1485.81,511.932 1504.27,464.777 1522.74,442.165 1541.2,373.116 1559.67,349.158 1578.13,295.949 1596.6,277.375 1615.06,260.18 1633.53,284.394 1651.99,324.036 1670.46,335.931 1688.92,400.886 1707.39,455.024 1725.86,499.578 1744.32,514.899 1762.79,532.66 1781.25,554.939 1799.72,522.941 1818.18,507.626 1836.65,476.725 1855.11,420.776 1873.58,384.808 1892.04,315.376 1910.51,282.827 1928.98,239.893 1947.44,194.457 1965.91,194.921 1984.37,192.306 2002.84,214.377 2021.3,231.742 2039.77,277.474 2058.23,310.499 2076.7,328.889 2095.16,394.857 2113.63,443.919 2132.1,454.847 2150.56,448.594 2169.03,424.36 2187.49,424.745 2205.96,392.306 2224.42,335.681 2242.89,274.193 2261.35,248.425 2279.82,178.972 2298.28,148.187 "/>
<polyline clip-path="url(#clip692)" style="stroke:#9466bd; stroke-linecap:round; stroke-linejoin:round; stroke-width:4; stroke-opacity:0.5; fill:none" points="470.206,733.347 488.672,701.494 507.137,657.587 525.603,611.845 544.068,573.791 562.533,560.853 580.999,564.162 599.464,556.713 617.93,578.675 636.395,616.077 654.861,632.148 673.326,671.394 691.792,728.386 710.257,779.787 728.722,796.977 747.188,792.16 765.653,810.339 784.119,784.758 802.584,752.043 821.05,714.614 839.515,659.178 857.98,612.941 876.446,550.987 894.911,537.296 913.377,453.161 931.842,457.228 950.308,472.619 968.773,465.448 987.238,502.539 1005.7,506.82 1024.17,567.09 1042.63,592.858 1061.1,640.6 1079.57,678.466 1098.03,699.599 1116.5,693.417 1134.96,702.511 1153.43,648.213 1171.89,635.654 1190.36,629.048 1208.82,566.395 1227.29,509.625 1245.75,465.27 1264.22,435.914 1282.69,386.626 1301.15,329.922 1319.62,387.147 1338.08,373.765 1356.55,381.886 1375.01,410.943 1393.48,473.062 1411.94,515.286 1430.41,559.139 1448.87,559.143 1467.34,578.445 1485.81,624.362 1504.27,602.73 1522.74,597.814 1541.2,571.704 1559.67,534.194 1578.13,475.265 1596.6,417.361 1615.06,361.324 1633.53,331.878 1651.99,298.753 1670.46,279.097 1688.92,287.764 1707.39,277.838 1725.86,294.816 1744.32,336.351 1762.79,357.783 1781.25,418.604 1799.72,454.677 1818.18,469.687 1836.65,496.978 1855.11,522.269 1873.58,534.28 1892.04,506.553 1910.51,479.949 1928.98,456.921 1947.44,377.232 1965.91,332.782 1984.37,268.355 2002.84,222.741 2021.3,191.439 2039.77,168.105 2058.23,215.139 2076.7,174.458 2095.16,192.49 2113.63,238.023 2132.1,268.571 2150.56,349.745 2169.03,375.811 2187.49,437.482 2205.96,409.748 2224.42,437.314 2242.89,421.14 2261.35,406.974 2279.82,369.749 2298.28,315.328 "/>
<polyline clip-path="url(#clip692)" style="stroke:#9466bd; stroke-linecap:round; stroke-linejoin:round; stroke-width:4; stroke-opacity:0.5; fill:none" points="470.206,604.26 488.672,591.155 507.137,606.727 525.603,629.754 544.068,699.71 562.533,754.321 580.999,813.087 599.464,811.392 617.93,838.968 636.395,825.56 654.861,820.989 673.326,819.648 691.792,774.149 710.257,702.374 728.722,640.104 747.188,581.585 765.653,564.87 784.119,523.176 802.584,495.263 821.05,458.644 839.515,497.79 857.98,519.587 876.446,525.248 894.911,588.782 913.377,582.027 931.842,636.368 950.308,713.924 968.773,726.47 987.238,727.108 1005.7,734.659 1024.17,747.589 1042.63,696.257 1061.1,650.12 1079.57,614.992 1098.03,543.997 1116.5,509.207 1134.96,462.471 1153.43,418.877 1171.89,389.719 1190.36,386.637 1208.82,396.259 1227.29,425.809 1245.75,430.179 1264.22,475.287 1282.69,523.117 1301.15,556.837 1319.62,594.302 1338.08,601.151 1356.55,650.276 1375.01,642.584 1393.48,640.675 1411.94,613.396 1430.41,534.09 1448.87,492.103 1467.34,486.086 1485.81,392.398 1504.27,362.083 1522.74,309.284 1541.2,297.634 1559.67,317.091 1578.13,291.92 1596.6,324.687 1615.06,360.446 1633.53,399.943 1651.99,425.58 1670.46,471.254 1688.92,488.668 1707.39,541.792 1725.86,553.507 1744.32,527.973 1762.79,549.658 1781.25,523.609 1799.72,497.665 1818.18,451.463 1836.65,380.148 1855.11,333.547 1873.58,265.103 1892.04,216.067 1910.51,217.236 1928.98,208.12 1947.44,208.49 1965.91,225.614 1984.37,241.749 2002.84,289.453 2021.3,359.453 2039.77,370.34 2058.23,425.822 2076.7,440.917 2095.16,454.783 2113.63,495.695 2132.1,441.375 2150.56,422.294 2169.03,392.452 2187.49,363.714 2205.96,284.547 2224.42,244.179 2242.89,211.976 2261.35,162.925 2279.82,111.865 2298.28,116.483 "/>
<polyline clip-path="url(#clip692)" style="stroke:#9466bd; stroke-linecap:round; stroke-linejoin:round; stroke-width:4; stroke-opacity:0.5; fill:none" points="470.206,697.105 488.672,717.614 507.137,768.155 525.603,784.074 544.068,832.525 562.533,858.189 580.999,858.592 599.464,824.134 617.93,806.308 636.395,792.191 654.861,725.422 673.326,668.392 691.792,604.386 710.257,543.508 728.722,526.44 747.188,471.539 765.653,507.834 784.119,507.695 802.584,510.381 821.05,557.08 839.515,583.455 857.98,629.342 876.446,681.155 894.911,713.121 913.377,735.768 931.842,741.009 950.308,772.14 968.773,735.968 987.238,754.599 1005.7,665.387 1024.17,647.617 1042.63,542.927 1061.1,515.895 1079.57,481.573 1098.03,411.61 1116.5,413.152 1134.96,396.133 1153.43,385.302 1171.89,447.666 1190.36,438.038 1208.82,478.71 1227.29,524.399 1245.75,583.108 1264.22,611.126 1282.69,648.717 1301.15,660.015 1319.62,680.738 1338.08,665.589 1356.55,620.601 1375.01,564.621 1393.48,528.578 1411.94,447.334 1430.41,424.401 1448.87,351.42 1467.34,349.184 1485.81,337.804 1504.27,300.323 1522.74,321.231 1541.2,319.867 1559.67,373.639 1578.13,406.002 1596.6,464.916 1615.06,502.332 1633.53,526.871 1651.99,540.74 1670.46,552.258 1688.92,578.976 1707.39,590.905 1725.86,532.015 1744.32,487.885 1762.79,424.128 1781.25,346.112 1799.72,347.979 1818.18,281.314 1836.65,263.247 1855.11,205.913 1873.58,209.453 1892.04,234.916 1910.51,258.295 1928.98,250.684 1947.44,308.949 1965.91,376.548 1984.37,404.888 2002.84,422.159 2021.3,479.249 2039.77,449.21 2058.23,465.61 2076.7,459.405 2095.16,429.751 2113.63,368.975 2132.1,321.93 2150.56,277.6 2169.03,252.795 2187.49,188.196 2205.96,185.257 2224.42,133.22 2242.89,109.163 2261.35,139.016 2279.82,148.309 2298.28,182.476 "/>
<polyline clip-path="url(#clip692)" style="stroke:#9466bd; stroke-linecap:round; stroke-linejoin:round; stroke-width:4; stroke-opacity:0.5; fill:none" points="470.206,776.508 488.672,793.151 507.137,676.744 525.603,629.164 544.068,584.366 562.533,558.801 580.999,536.317 599.464,528.054 617.93,552.658 636.395,562.767 654.861,539.246 673.326,640.433 691.792,680.918 710.257,690.891 728.722,739.401 747.188,784.235 765.653,805.632 784.119,758.712 802.584,818.918 821.05,732.468 839.515,696.227 857.98,660.511 876.446,629.702 894.911,575.059 913.377,523.181 931.842,457.849 950.308,438.062 968.773,434.616 987.238,442.55 1005.7,463.766 1024.17,479.326 1042.63,534.919 1061.1,589.543 1079.57,647.937 1098.03,688.117 1116.5,687.904 1134.96,690.804 1153.43,714.547 1171.89,675.526 1190.36,658.61 1208.82,641.146 1227.29,586.076 1245.75,522.859 1264.22,476.653 1282.69,427.875 1301.15,379.903 1319.62,370.913 1338.08,369.34 1356.55,359.807 1375.01,352.571 1393.48,405.913 1411.94,445.399 1430.41,464.393 1448.87,525.828 1467.34,590.379 1485.81,590.541 1504.27,626.031 1522.74,617.336 1541.2,596.467 1559.67,586.237 1578.13,517.443 1596.6,457.508 1615.06,437.958 1633.53,387.686 1651.99,309.578 1670.46,258.94 1688.92,253.7 1707.39,309.135 1725.86,258.886 1744.32,278.94 1762.79,310.633 1781.25,370.732 1799.72,408.456 1818.18,437.401 1836.65,489.203 1855.11,496.269 1873.58,474.911 1892.04,484.936 1910.51,516.834 1928.98,472.852 1947.44,436.932 1965.91,398.572 1984.37,307.246 2002.84,274.517 2021.3,268.314 2039.77,225.609 2058.23,179.386 2076.7,176.564 2095.16,159.283 2113.63,170.123 2132.1,214.843 2150.56,267.955 2169.03,333.206 2187.49,352.084 2205.96,383.797 2224.42,386.528 2242.89,409.174 2261.35,427.165 2279.82,421.377 2298.28,387.888 "/>
<polyline clip-path="url(#clip692)" style="stroke:#9466bd; stroke-linecap:round; stroke-linejoin:round; stroke-width:4; stroke-opacity:0.5; fill:none" points="470.206,636.594 488.672,582.068 507.137,562.883 525.603,560.895 544.068,545.759 562.533,575.697 580.999,624.953 599.464,640.021 617.93,674.997 636.395,715.198 654.861,766.123 673.326,791.74 691.792,851.437 710.257,817.891 728.722,808.311 747.188,792.39 765.653,730.311 784.119,702.682 802.584,662.204 821.05,598.851 839.515,569.73 857.98,479.138 876.446,465.914 894.911,451.052 913.377,439.147 931.842,476.825 950.308,503.405 968.773,525.419 987.238,557.153 1005.7,622.505 1024.17,666.628 1042.63,691.384 1061.1,720.511 1079.57,736.382 1098.03,720.633 1116.5,702.656 1134.96,656.609 1153.43,592.686 1171.89,543.791 1190.36,474.271 1208.82,458.628 1227.29,389.831 1245.75,367.711 1264.22,384.229 1282.69,354.237 1301.15,366.354 1319.62,417.017 1338.08,442.625 1356.55,472.584 1375.01,536.089 1393.48,579.371 1411.94,598.046 1430.41,614.285 1448.87,627.573 1467.34,620.758 1485.81,608.042 1504.27,535.111 1522.74,495.066 1541.2,463.842 1559.67,404.966 1578.13,370.653 1596.6,341.409 1615.06,309.943 1633.53,281.689 1651.99,258.851 1670.46,287.943 1688.92,319.103 1707.39,344.456 1725.86,399.365 1744.32,406.932 1762.79,466.705 1781.25,493.272 1799.72,546.91 1818.18,543.243 1836.65,538.86 1855.11,494.108 1873.58,476.374 1892.04,427.779 1910.51,382.11 1928.98,332.015 1947.44,252.911 1965.91,208.642 1984.37,205.176 2002.84,181.54 2021.3,192.066 2039.77,197.961 2058.23,223.484 2076.7,271.358 2095.16,309.124 2113.63,336.225 2132.1,357.045 2150.56,439.202 2169.03,435.974 2187.49,433.183 2205.96,444.34 2224.42,421.793 2242.89,379.924 2261.35,332.078 2279.82,291.513 2298.28,208.272 "/>
<polyline clip-path="url(#clip692)" style="stroke:#9466bd; stroke-linecap:round; stroke-linejoin:round; stroke-width:4; stroke-opacity:0.5; fill:none" points="470.206,796.023 488.672,837.298 507.137,830.434 525.603,832.593 544.068,858.738 562.533,839.252 580.999,804.998 599.464,742.287 617.93,691.949 636.395,623.969 654.861,614.777 673.326,561.266 691.792,525.828 710.257,520.498 728.722,500.63 747.188,527.175 765.653,536.378 784.119,608.964 802.584,639.643 821.05,689.896 839.515,693.507 857.98,725.942 876.446,753.556 894.911,788.956 913.377,765.53 931.842,736.616 950.308,726.051 968.773,634.086 987.238,577.903 1005.7,549.081 1024.17,493.479 1042.63,474.88 1061.1,457.557 1079.57,420.921 1098.03,443.626 1116.5,424.641 1134.96,469.947 1153.43,495.235 1171.89,531.412 1190.36,590.094 1208.82,613.547 1227.29,653.042 1245.75,687.345 1264.22,667.17 1282.69,660.781 1301.15,649.672 1319.62,601.733 1338.08,561.516 1356.55,509.981 1375.01,420.542 1393.48,428.322 1411.94,395.887 1430.41,354.723 1448.87,308.694 1467.34,345.441 1485.81,343.819 1504.27,340.355 1522.74,424.887 1541.2,441.249 1559.67,454.394 1578.13,530.519 1596.6,550.573 1615.06,582.783 1633.53,601.145 1651.99,551.48 1670.46,545.164 1688.92,514.792 1707.39,472.3 1725.86,439.398 1744.32,377.686 1762.79,287.914 1781.25,268.069 1799.72,260.223 1818.18,222.237 1836.65,226.108 1855.11,244.164 1873.58,274.247 1892.04,289.272 1910.51,332.221 1928.98,400.064 1947.44,425.648 1965.91,488.733 1984.37,492.216 2002.84,491.129 2021.3,483.015 2039.77,458.811 2058.23,431.262 2076.7,399.082 2095.16,320.64 2113.63,276.472 2132.1,224.751 2150.56,175.26 2169.03,165.892 2187.49,120.707 2205.96,148.23 2224.42,146.023 2242.89,180.652 2261.35,194.528 2279.82,223.441 2298.28,278.934 "/>
<polyline clip-path="url(#clip692)" style="stroke:#9466bd; stroke-linecap:round; stroke-linejoin:round; stroke-width:4; stroke-opacity:0.5; fill:none" points="470.206,851.635 488.672,801.588 507.137,781.32 525.603,708.039 544.068,681.543 562.533,630.226 580.999,583.848 599.464,525.984 617.93,546.543 636.395,538.352 654.861,552.835 673.326,562.537 691.792,587.066 710.257,660.438 728.722,684.529 747.188,718.521 765.653,755.053 784.119,798.909 802.584,771.415 821.05,765.229 839.515,764.145 857.98,734.065 876.446,678.782 894.911,643.395 913.377,582.564 931.842,505.442 950.308,514.192 968.773,429.129 987.238,434.679 1005.7,413.389 1024.17,472.915 1042.63,475.941 1061.1,491.701 1079.57,541.049 1098.03,609.968 1116.5,631.241 1134.96,633.059 1153.43,683.603 1171.89,713.306 1190.36,675.903 1208.82,663.494 1227.29,610.941 1245.75,589.072 1264.22,559.17 1282.69,488.57 1301.15,417.3 1319.62,391.884 1338.08,386.604 1356.55,339.559 1375.01,354.28 1393.48,354.567 1411.94,388.054 1430.41,421.462 1448.87,458.522 1467.34,503.721 1485.81,531.242 1504.27,549.651 1522.74,586.963 1541.2,616.11 1559.67,574.815 1578.13,573.481 1596.6,545.046 1615.06,489.659 1633.53,483.862 1651.99,391.368 1670.46,367.9 1688.92,312.59 1707.39,245.321 1725.86,252.232 1744.32,247.746 1762.79,251.596 1781.25,291.85 1799.72,308.354 1818.18,366.517 1836.65,400.437 1855.11,451.051 1873.58,475.017 1892.04,519.384 1910.51,491.278 1928.98,486.682 1947.44,488.515 1965.91,452.373 1984.37,403.329 2002.84,360.538 2021.3,293.32 2039.77,241.689 2058.23,215.795 2076.7,156.395 2095.16,178.815 2113.63,163.604 2132.1,188.503 2150.56,181.291 2169.03,226.575 2187.49,298.027 2205.96,301.817 2224.42,362.618 2242.89,382.062 2261.35,390.809 2279.82,432.791 2298.28,428.688 "/>
<path clip-path="url(#clip690)" d="M2814.99 915.688 L4752.76 915.688 L4752.76 85.6721 L2814.99 85.6721  Z" fill="#ffffff" fill-rule="evenodd" fill-opacity="1"/>
<defs>
  <clipPath id="clip693">
    <rect x="2814" y="85" width="1939" height="831"/>
  </clipPath>
</defs>
<polyline clip-path="url(#clip693)" style="stroke:#000000; stroke-linecap:round; stroke-linejoin:round; stroke-width:2; stroke-opacity:0.1; fill:none" points="2851.37,915.688 2851.37,85.6721 "/>
<polyline clip-path="url(#clip693)" style="stroke:#000000; stroke-linecap:round; stroke-linejoin:round; stroke-width:2; stroke-opacity:0.1; fill:none" points="3313.01,915.688 3313.01,85.6721 "/>
<polyline clip-path="url(#clip693)" style="stroke:#000000; stroke-linecap:round; stroke-linejoin:round; stroke-width:2; stroke-opacity:0.1; fill:none" points="3774.64,915.688 3774.64,85.6721 "/>
<polyline clip-path="url(#clip693)" style="stroke:#000000; stroke-linecap:round; stroke-linejoin:round; stroke-width:2; stroke-opacity:0.1; fill:none" points="4236.28,915.688 4236.28,85.6721 "/>
<polyline clip-path="url(#clip693)" style="stroke:#000000; stroke-linecap:round; stroke-linejoin:round; stroke-width:2; stroke-opacity:0.1; fill:none" points="4697.91,915.688 4697.91,85.6721 "/>
<polyline clip-path="url(#clip693)" style="stroke:#000000; stroke-linecap:round; stroke-linejoin:round; stroke-width:2; stroke-opacity:0.1; fill:none" points="2814.99,872.997 4752.76,872.997 "/>
<polyline clip-path="url(#clip693)" style="stroke:#000000; stroke-linecap:round; stroke-linejoin:round; stroke-width:2; stroke-opacity:0.1; fill:none" points="2814.99,672.932 4752.76,672.932 "/>
<polyline clip-path="url(#clip693)" style="stroke:#000000; stroke-linecap:round; stroke-linejoin:round; stroke-width:2; stroke-opacity:0.1; fill:none" points="2814.99,472.868 4752.76,472.868 "/>
<polyline clip-path="url(#clip693)" style="stroke:#000000; stroke-linecap:round; stroke-linejoin:round; stroke-width:2; stroke-opacity:0.1; fill:none" points="2814.99,272.804 4752.76,272.804 "/>
<polyline clip-path="url(#clip690)" style="stroke:#000000; stroke-linecap:round; stroke-linejoin:round; stroke-width:4; stroke-opacity:1; fill:none" points="2814.99,915.688 4752.76,915.688 "/>
<polyline clip-path="url(#clip690)" style="stroke:#000000; stroke-linecap:round; stroke-linejoin:round; stroke-width:4; stroke-opacity:1; fill:none" points="2851.37,915.688 2851.37,896.79 "/>
<polyline clip-path="url(#clip690)" style="stroke:#000000; stroke-linecap:round; stroke-linejoin:round; stroke-width:4; stroke-opacity:1; fill:none" points="3313.01,915.688 3313.01,896.79 "/>
<polyline clip-path="url(#clip690)" style="stroke:#000000; stroke-linecap:round; stroke-linejoin:round; stroke-width:4; stroke-opacity:1; fill:none" points="3774.64,915.688 3774.64,896.79 "/>
<polyline clip-path="url(#clip690)" style="stroke:#000000; stroke-linecap:round; stroke-linejoin:round; stroke-width:4; stroke-opacity:1; fill:none" points="4236.28,915.688 4236.28,896.79 "/>
<polyline clip-path="url(#clip690)" style="stroke:#000000; stroke-linecap:round; stroke-linejoin:round; stroke-width:4; stroke-opacity:1; fill:none" points="4697.91,915.688 4697.91,896.79 "/>
<path clip-path="url(#clip690)" d="M2851.37 977.525 Q2844.15 977.525 2840.49 984.655 Q2836.88 991.738 2836.88 1006 Q2836.88 1020.21 2840.49 1027.34 Q2844.15 1034.42 2851.37 1034.42 Q2858.64 1034.42 2862.25 1027.34 Q2865.91 1020.21 2865.91 1006 Q2865.91 991.738 2862.25 984.655 Q2858.64 977.525 2851.37 977.525 M2851.37 970.118 Q2862.99 970.118 2869.1 979.33 Q2875.26 988.497 2875.26 1006 Q2875.26 1023.45 2869.1 1032.66 Q2862.99 1041.83 2851.37 1041.83 Q2839.75 1041.83 2833.59 1032.66 Q2827.48 1023.45 2827.48 1006 Q2827.48 988.497 2833.59 979.33 Q2839.75 970.118 2851.37 970.118 Z" fill="#000000" fill-rule="nonzero" fill-opacity="1" /><path clip-path="url(#clip690)" d="M3271.55 1032.62 L3304.19 1032.62 L3304.19 1040.49 L3260.3 1040.49 L3260.3 1032.62 Q3265.62 1027.11 3274.79 1017.85 Q3284 1008.54 3286.36 1005.86 Q3290.85 1000.81 3292.61 997.34 Q3294.42 993.821 3294.42 990.442 Q3294.42 984.932 3290.53 981.46 Q3286.69 977.988 3280.48 977.988 Q3276.09 977.988 3271.18 979.516 Q3266.32 981.043 3260.76 984.145 L3260.76 974.701 Q3266.41 972.432 3271.32 971.275 Q3276.22 970.118 3280.3 970.118 Q3291.04 970.118 3297.43 975.488 Q3303.82 980.858 3303.82 989.84 Q3303.82 994.099 3302.2 997.941 Q3300.62 1001.74 3296.41 1006.92 Q3295.25 1008.27 3289.05 1014.7 Q3282.84 1021.09 3271.55 1032.62 Z" fill="#000000" fill-rule="nonzero" fill-opacity="1" /><path clip-path="url(#clip690)" d="M3323.91 971.368 L3360.62 971.368 L3360.62 979.238 L3332.47 979.238 L3332.47 996.182 Q3334.51 995.488 3336.55 995.164 Q3338.58 994.793 3340.62 994.793 Q3352.2 994.793 3358.96 1001.14 Q3365.71 1007.48 3365.71 1018.31 Q3365.71 1029.47 3358.77 1035.67 Q3351.83 1041.83 3339.19 1041.83 Q3334.83 1041.83 3330.3 1041.09 Q3325.81 1040.35 3320.99 1038.87 L3320.99 1029.47 Q3325.16 1031.74 3329.6 1032.85 Q3334.05 1033.96 3339 1033.96 Q3347.01 1033.96 3351.69 1029.75 Q3356.36 1025.53 3356.36 1018.31 Q3356.36 1011.09 3351.69 1006.88 Q3347.01 1002.66 3339 1002.66 Q3335.25 1002.66 3331.5 1003.5 Q3327.8 1004.33 3323.91 1006.09 L3323.91 971.368 Z" fill="#000000" fill-rule="nonzero" fill-opacity="1" /><path clip-path="url(#clip690)" d="M3724.04 971.368 L3760.75 971.368 L3760.75 979.238 L3732.61 979.238 L3732.61 996.182 Q3734.64 995.488 3736.68 995.164 Q3738.72 994.793 3740.75 994.793 Q3752.33 994.793 3759.09 1001.14 Q3765.85 1007.48 3765.85 1018.31 Q3765.85 1029.47 3758.9 1035.67 Q3751.96 1041.83 3739.32 1041.83 Q3734.97 1041.83 3730.43 1041.09 Q3725.94 1040.35 3721.12 1038.87 L3721.12 1029.47 Q3725.29 1031.74 3729.73 1032.85 Q3734.18 1033.96 3739.13 1033.96 Q3747.14 1033.96 3751.82 1029.75 Q3756.49 1025.53 3756.49 1018.31 Q3756.49 1011.09 3751.82 1006.88 Q3747.14 1002.66 3739.13 1002.66 Q3735.38 1002.66 3731.63 1003.5 Q3727.93 1004.33 3724.04 1006.09 L3724.04 971.368 Z" fill="#000000" fill-rule="nonzero" fill-opacity="1" /><path clip-path="url(#clip690)" d="M3804.27 977.525 Q3797.05 977.525 3793.39 984.655 Q3789.78 991.738 3789.78 1006 Q3789.78 1020.21 3793.39 1027.34 Q3797.05 1034.42 3804.27 1034.42 Q3811.54 1034.42 3815.15 1027.34 Q3818.81 1020.21 3818.81 1006 Q3818.81 991.738 3815.15 984.655 Q3811.54 977.525 3804.27 977.525 M3804.27 970.118 Q3815.89 970.118 3822 979.33 Q3828.16 988.497 3828.16 1006 Q3828.16 1023.45 3822 1032.66 Q3815.89 1041.83 3804.27 1041.83 Q3792.65 1041.83 3786.49 1032.66 Q3780.38 1023.45 3780.38 1006 Q3780.38 988.497 3786.49 979.33 Q3792.65 970.118 3804.27 970.118 Z" fill="#000000" fill-rule="nonzero" fill-opacity="1" /><path clip-path="url(#clip690)" d="M4183.99 971.368 L4228.43 971.368 L4228.43 975.349 L4203.34 1040.49 L4193.57 1040.49 L4217.18 979.238 L4183.99 979.238 L4183.99 971.368 Z" fill="#000000" fill-rule="nonzero" fill-opacity="1" /><path clip-path="url(#clip690)" d="M4246.76 971.368 L4283.48 971.368 L4283.48 979.238 L4255.33 979.238 L4255.33 996.182 Q4257.37 995.488 4259.4 995.164 Q4261.44 994.793 4263.48 994.793 Q4275.05 994.793 4281.81 1001.14 Q4288.57 1007.48 4288.57 1018.31 Q4288.57 1029.47 4281.62 1035.67 Q4274.68 1041.83 4262.04 1041.83 Q4257.69 1041.83 4253.15 1041.09 Q4248.66 1040.35 4243.85 1038.87 L4243.85 1029.47 Q4248.01 1031.74 4252.46 1032.85 Q4256.9 1033.96 4261.86 1033.96 Q4269.87 1033.96 4274.54 1029.75 Q4279.22 1025.53 4279.22 1018.31 Q4279.22 1011.09 4274.54 1006.88 Q4269.87 1002.66 4261.86 1002.66 Q4258.11 1002.66 4254.36 1003.5 Q4250.65 1004.33 4246.76 1006.09 L4246.76 971.368 Z" fill="#000000" fill-rule="nonzero" fill-opacity="1" /><path clip-path="url(#clip690)" d="M4617.13 1032.62 L4632.4 1032.62 L4632.4 979.886 L4615.78 983.219 L4615.78 974.701 L4632.31 971.368 L4641.66 971.368 L4641.66 1032.62 L4656.94 1032.62 L4656.94 1040.49 L4617.13 1040.49 L4617.13 1032.62 Z" fill="#000000" fill-rule="nonzero" fill-opacity="1" /><path clip-path="url(#clip690)" d="M4695.83 977.525 Q4688.61 977.525 4684.95 984.655 Q4681.34 991.738 4681.34 1006 Q4681.34 1020.21 4684.95 1027.34 Q4688.61 1034.42 4695.83 1034.42 Q4703.1 1034.42 4706.71 1027.34 Q4710.37 1020.21 4710.37 1006 Q4710.37 991.738 4706.71 984.655 Q4703.1 977.525 4695.83 977.525 M4695.83 970.118 Q4707.45 970.118 4713.56 979.33 Q4719.72 988.497 4719.72 1006 Q4719.72 1023.45 4713.56 1032.66 Q4707.45 1041.83 4695.83 1041.83 Q4684.21 1041.83 4678.05 1032.66 Q4671.94 1023.45 4671.94 1006 Q4671.94 988.497 4678.05 979.33 Q4684.21 970.118 4695.83 970.118 Z" fill="#000000" fill-rule="nonzero" fill-opacity="1" /><path clip-path="url(#clip690)" d="M4756.15 977.525 Q4748.93 977.525 4745.27 984.655 Q4741.66 991.738 4741.66 1006 Q4741.66 1020.21 4745.27 1027.34 Q4748.93 1034.42 4756.15 1034.42 Q4763.42 1034.42 4767.03 1027.34 Q4770.69 1020.21 4770.69 1006 Q4770.69 991.738 4767.03 984.655 Q4763.42 977.525 4756.15 977.525 M4756.15 970.118 Q4767.77 970.118 4773.89 979.33 Q4780.04 988.497 4780.04 1006 Q4780.04 1023.45 4773.89 1032.66 Q4767.77 1041.83 4756.15 1041.83 Q4744.53 1041.83 4738.38 1032.66 Q4732.27 1023.45 4732.27 1006 Q4732.27 988.497 4738.38 979.33 Q4744.53 970.118 4756.15 970.118 Z" fill="#000000" fill-rule="nonzero" fill-opacity="1" /><path clip-path="url(#clip690)" d="M3782.51 1107.74 L3782.51 1122.46 L3800.06 1122.46 L3800.06 1129.08 L3782.51 1129.08 L3782.51 1157.23 Q3782.51 1163.57 3784.22 1165.38 Q3785.98 1167.18 3791.31 1167.18 L3800.06 1167.18 L3800.06 1174.31 L3791.31 1174.31 Q3781.44 1174.31 3777.69 1170.65 Q3773.94 1166.95 3773.94 1157.23 L3773.94 1129.08 L3767.69 1129.08 L3767.69 1122.46 L3773.94 1122.46 L3773.94 1107.74 L3782.51 1107.74 Z" fill="#000000" fill-rule="nonzero" fill-opacity="1" /><polyline clip-path="url(#clip690)" style="stroke:#000000; stroke-linecap:round; stroke-linejoin:round; stroke-width:4; stroke-opacity:1; fill:none" points="2814.99,915.688 2814.99,85.6721 "/>
<polyline clip-path="url(#clip690)" style="stroke:#000000; stroke-linecap:round; stroke-linejoin:round; stroke-width:4; stroke-opacity:1; fill:none" points="2814.99,872.997 2833.89,872.997 "/>
<polyline clip-path="url(#clip690)" style="stroke:#000000; stroke-linecap:round; stroke-linejoin:round; stroke-width:4; stroke-opacity:1; fill:none" points="2814.99,672.932 2833.89,672.932 "/>
<polyline clip-path="url(#clip690)" style="stroke:#000000; stroke-linecap:round; stroke-linejoin:round; stroke-width:4; stroke-opacity:1; fill:none" points="2814.99,472.868 2833.89,472.868 "/>
<polyline clip-path="url(#clip690)" style="stroke:#000000; stroke-linecap:round; stroke-linejoin:round; stroke-width:4; stroke-opacity:1; fill:none" points="2814.99,272.804 2833.89,272.804 "/>
<path clip-path="url(#clip690)" d="M2622.76 873.899 L2682.11 873.899 L2682.11 881.77 L2622.76 881.77 L2622.76 873.899 Z" fill="#000000" fill-rule="nonzero" fill-opacity="1" /><path clip-path="url(#clip690)" d="M2710.35 899.686 L2742.99 899.686 L2742.99 907.557 L2699.1 907.557 L2699.1 899.686 Q2704.43 894.177 2713.6 884.918 Q2722.81 875.612 2725.17 872.927 Q2729.66 867.881 2731.42 864.409 Q2733.23 860.89 2733.23 857.511 Q2733.23 852.001 2729.34 848.529 Q2725.49 845.057 2719.29 845.057 Q2714.89 845.057 2709.98 846.585 Q2705.12 848.113 2699.57 851.214 L2699.57 841.77 Q2705.22 839.501 2710.12 838.344 Q2715.03 837.187 2719.1 837.187 Q2729.85 837.187 2736.23 842.557 Q2742.62 847.927 2742.62 856.909 Q2742.62 861.168 2741 865.011 Q2739.43 868.807 2735.22 873.992 Q2734.06 875.335 2727.85 881.77 Q2721.65 888.159 2710.35 899.686 Z" fill="#000000" fill-rule="nonzero" fill-opacity="1" /><path clip-path="url(#clip690)" d="M2719.1 644.53 Q2711.88 644.53 2708.23 651.659 Q2704.61 658.743 2704.61 673.002 Q2704.61 687.215 2708.23 694.344 Q2711.88 701.428 2719.1 701.428 Q2726.37 701.428 2729.98 694.344 Q2733.64 687.215 2733.64 673.002 Q2733.64 658.743 2729.98 651.659 Q2726.37 644.53 2719.1 644.53 M2719.1 637.122 Q2730.73 637.122 2736.84 646.335 Q2742.99 655.502 2742.99 673.002 Q2742.99 690.455 2736.84 699.668 Q2730.73 708.835 2719.1 708.835 Q2707.48 708.835 2701.33 699.668 Q2695.22 690.455 2695.22 673.002 Q2695.22 655.502 2701.33 646.335 Q2707.48 637.122 2719.1 637.122 Z" fill="#000000" fill-rule="nonzero" fill-opacity="1" /><path clip-path="url(#clip690)" d="M2710.35 499.558 L2742.99 499.558 L2742.99 507.428 L2699.1 507.428 L2699.1 499.558 Q2704.43 494.049 2713.6 484.789 Q2722.81 475.484 2725.17 472.799 Q2729.66 467.752 2731.42 464.28 Q2733.23 460.762 2733.23 457.382 Q2733.23 451.873 2729.34 448.401 Q2725.49 444.929 2719.29 444.929 Q2714.89 444.929 2709.98 446.456 Q2705.12 447.984 2699.57 451.086 L2699.57 441.642 Q2705.22 439.373 2710.12 438.216 Q2715.03 437.058 2719.1 437.058 Q2729.85 437.058 2736.23 442.429 Q2742.62 447.799 2742.62 456.78 Q2742.62 461.04 2741 464.882 Q2739.43 468.678 2735.22 473.864 Q2734.06 475.206 2727.85 481.641 Q2721.65 488.03 2710.35 499.558 Z" fill="#000000" fill-rule="nonzero" fill-opacity="1" /><path clip-path="url(#clip690)" d="M2723.83 246.392 L2700.22 283.29 L2723.83 283.29 L2723.83 246.392 M2721.37 238.244 L2733.13 238.244 L2733.13 283.29 L2742.99 283.29 L2742.99 291.068 L2733.13 291.068 L2733.13 307.364 L2723.83 307.364 L2723.83 291.068 L2692.62 291.068 L2692.62 282.04 L2721.37 238.244 Z" fill="#000000" fill-rule="nonzero" fill-opacity="1" /><path clip-path="url(#clip690)" d="M2478.18 476.513 L2503.41 495.263 L2530.03 475.541 L2530.03 485.587 L2509.66 500.68 L2530.03 515.772 L2530.03 525.819 L2502.9 505.68 L2478.18 524.106 L2478.18 514.059 L2496.65 500.309 L2478.18 486.56 L2478.18 476.513 Z" fill="#000000" fill-rule="nonzero" fill-opacity="1" /><path clip-path="url(#clip690)" d="M3683.66 28.9478 L3683.66 35.9153 Q3680.5 34.1734 3677.3 33.3227 Q3674.14 32.4315 3670.9 32.4315 Q3663.64 32.4315 3659.63 37.0496 Q3655.62 41.6271 3655.62 49.9314 Q3655.62 58.2358 3659.63 62.8538 Q3663.64 67.4314 3670.9 67.4314 Q3674.14 67.4314 3677.3 66.5807 Q3680.5 65.6895 3683.66 63.9476 L3683.66 70.8341 Q3680.54 72.2924 3677.17 73.0216 Q3673.85 73.7508 3670.08 73.7508 Q3659.84 73.7508 3653.8 67.3098 Q3647.76 60.8689 3647.76 49.9314 Q3647.76 38.832 3653.84 32.472 Q3659.96 26.1121 3670.57 26.1121 Q3674.01 26.1121 3677.3 26.8413 Q3680.58 27.5299 3683.66 28.9478 Z" fill="#000000" fill-rule="nonzero" fill-opacity="1" /><path clip-path="url(#clip690)" d="M3696.62 9.54393 L3704.07 9.54393 L3704.07 72.576 L3696.62 72.576 L3696.62 9.54393 Z" fill="#000000" fill-rule="nonzero" fill-opacity="1" /><path clip-path="url(#clip690)" d="M3740.29 49.7694 Q3731.25 49.7694 3727.77 51.8354 Q3724.29 53.9013 3724.29 58.8839 Q3724.29 62.8538 3726.88 65.2034 Q3729.51 67.5124 3734.01 67.5124 Q3740.21 67.5124 3743.93 63.1374 Q3747.7 58.7219 3747.7 51.4303 L3747.7 49.7694 L3740.29 49.7694 M3755.15 46.6907 L3755.15 72.576 L3747.7 72.576 L3747.7 65.6895 Q3745.15 69.8214 3741.34 71.8063 Q3737.53 73.7508 3732.02 73.7508 Q3725.06 73.7508 3720.92 69.8619 Q3716.83 65.9325 3716.83 59.3701 Q3716.83 51.7138 3721.94 47.825 Q3727.08 43.9361 3737.25 43.9361 L3747.7 43.9361 L3747.7 43.2069 Q3747.7 38.0623 3744.3 35.2672 Q3740.94 32.4315 3734.82 32.4315 Q3730.93 32.4315 3727.24 33.3632 Q3723.56 34.295 3720.15 36.1584 L3720.15 29.2718 Q3724.25 27.692 3728.09 26.9223 Q3731.94 26.1121 3735.59 26.1121 Q3745.43 26.1121 3750.29 31.2163 Q3755.15 36.3204 3755.15 46.6907 Z" fill="#000000" fill-rule="nonzero" fill-opacity="1" /><path clip-path="url(#clip690)" d="M3799.43 28.5427 L3799.43 35.5912 Q3796.27 33.9709 3792.87 33.1607 Q3789.47 32.3505 3785.82 32.3505 Q3780.27 32.3505 3777.47 34.0519 Q3774.72 35.7533 3774.72 39.156 Q3774.72 41.7486 3776.7 43.2475 Q3778.69 44.7058 3784.68 46.0426 L3787.24 46.6097 Q3795.18 48.3111 3798.5 51.4303 Q3801.86 54.509 3801.86 60.0587 Q3801.86 66.3781 3796.84 70.0644 Q3791.86 73.7508 3783.11 73.7508 Q3779.46 73.7508 3775.49 73.0216 Q3771.56 72.3329 3767.19 70.9151 L3767.19 63.2184 Q3771.32 65.3654 3775.33 66.4591 Q3779.34 67.5124 3783.27 67.5124 Q3788.53 67.5124 3791.37 65.73 Q3794.2 63.9071 3794.2 60.6258 Q3794.2 57.5877 3792.14 55.9673 Q3790.11 54.3469 3783.19 52.8481 L3780.59 52.2405 Q3773.67 50.7821 3770.59 47.7845 Q3767.51 44.7463 3767.51 39.4801 Q3767.51 33.0797 3772.05 29.5959 Q3776.58 26.1121 3784.93 26.1121 Q3789.06 26.1121 3792.71 26.7198 Q3796.35 27.3274 3799.43 28.5427 Z" fill="#000000" fill-rule="nonzero" fill-opacity="1" /><path clip-path="url(#clip690)" d="M3842.65 28.5427 L3842.65 35.5912 Q3839.49 33.9709 3836.09 33.1607 Q3832.69 32.3505 3829.04 32.3505 Q3823.49 32.3505 3820.7 34.0519 Q3817.94 35.7533 3817.94 39.156 Q3817.94 41.7486 3819.93 43.2475 Q3821.91 44.7058 3827.91 46.0426 L3830.46 46.6097 Q3838.4 48.3111 3841.72 51.4303 Q3845.08 54.509 3845.08 60.0587 Q3845.08 66.3781 3840.06 70.0644 Q3835.08 73.7508 3826.33 73.7508 Q3822.68 73.7508 3818.71 73.0216 Q3814.78 72.3329 3810.41 70.9151 L3810.41 63.2184 Q3814.54 65.3654 3818.55 66.4591 Q3822.56 67.5124 3826.49 67.5124 Q3831.76 67.5124 3834.59 65.73 Q3837.43 63.9071 3837.43 60.6258 Q3837.43 57.5877 3835.36 55.9673 Q3833.34 54.3469 3826.41 52.8481 L3823.82 52.2405 Q3816.89 50.7821 3813.81 47.7845 Q3810.73 44.7463 3810.73 39.4801 Q3810.73 33.0797 3815.27 29.5959 Q3819.81 26.1121 3828.15 26.1121 Q3832.28 26.1121 3835.93 26.7198 Q3839.57 27.3274 3842.65 28.5427 Z" fill="#000000" fill-rule="nonzero" fill-opacity="1" /><path clip-path="url(#clip690)" d="M3891.43 65.6895 L3919.99 65.6895 L3919.99 72.576 L3881.58 72.576 L3881.58 65.6895 Q3886.24 60.8689 3894.26 52.7671 Q3902.32 44.6248 3904.39 42.2752 Q3908.32 37.8598 3909.86 34.8216 Q3911.44 31.7429 3911.44 28.7857 Q3911.44 23.9651 3908.03 20.927 Q3904.67 17.8888 3899.24 17.8888 Q3895.4 17.8888 3891.1 19.2256 Q3886.85 20.5624 3881.99 23.2765 L3881.99 15.0127 Q3886.93 13.0277 3891.22 12.015 Q3895.52 11.0023 3899.08 11.0023 Q3908.48 11.0023 3914.07 15.7013 Q3919.66 20.4004 3919.66 28.2591 Q3919.66 31.9859 3918.24 35.3482 Q3916.87 38.6699 3913.18 43.2069 Q3912.17 44.3817 3906.74 50.0125 Q3901.31 55.6027 3891.43 65.6895 Z" fill="#000000" fill-rule="nonzero" fill-opacity="1" /><polyline clip-path="url(#clip693)" style="stroke:#8b564a; stroke-linecap:round; stroke-linejoin:round; stroke-width:4; stroke-opacity:0.5; fill:none" points="2869.84,556.473 2888.3,646.192 2906.77,631.587 2925.23,575.27 2943.7,485.328 2962.16,709.177 2980.63,666.244 2999.09,709.38 3017.56,337.918 3036.02,683.93 3054.49,745.818 3072.96,647.579 3091.42,581.17 3109.89,740.437 3128.35,724.375 3146.82,641.299 3165.28,570.611 3183.75,507.08 3202.21,361.881 3220.68,664.12 3239.14,486.662 3257.61,571.43 3276.08,512.091 3294.54,519.627 3313.01,632.731 3331.47,493.673 3349.94,586.662 3368.4,714.114 3386.87,777.77 3405.33,725.759 3423.8,751.951 3442.26,658.007 3460.73,710.486 3479.2,703.807 3497.66,644.716 3516.13,671.629 3534.59,481.127 3553.06,543.462 3571.52,393.303 3589.99,561.621 3608.45,454.4 3626.92,436.894 3645.38,475.551 3663.85,391.59 3682.31,449.738 3700.78,580.558 3719.25,488.312 3737.71,454.792 3756.18,547.963 3774.64,656.718 3793.11,570.057 3811.57,592.909 3830.04,507.954 3848.5,550.904 3866.97,459.466 3885.43,534.695 3903.9,368.315 3922.37,336.843 3940.83,577.744 3959.3,372.337 3977.76,367.233 3996.23,540.78 4014.69,298.99 4033.16,408.548 4051.62,634.758 4070.09,401.871 4088.55,369.547 4107.02,513.146 4125.49,472.911 4143.95,468.614 4162.42,522.291 4180.88,561.274 4199.35,597.02 4217.81,548.771 4236.28,412.256 4254.74,558 4273.21,420.236 4291.67,195.059 4310.14,413.306 4328.6,480.208 4347.07,331.104 4365.54,309.687 4384,333.914 4402.47,531.521 4420.93,409.6 4439.4,465.612 4457.86,534.631 4476.33,542.905 4494.79,535.64 4513.26,430.365 4531.72,607.244 4550.19,497.212 4568.66,651.19 4587.12,481.559 4605.59,661.978 4624.05,520.986 4642.52,292.674 4660.98,350.455 4679.45,373.293 4697.91,231.68 "/>
<polyline clip-path="url(#clip693)" style="stroke:#8b564a; stroke-linecap:round; stroke-linejoin:round; stroke-width:4; stroke-opacity:0.5; fill:none" points="2869.84,844.845 2888.3,507.622 2906.77,717.384 2925.23,476.525 2943.7,578.689 2962.16,575.475 2980.63,736.818 2999.09,644.019 3017.56,610.675 3036.02,830.595 3054.49,495.396 3072.96,602.634 3091.42,835.157 3109.89,753.223 3128.35,737.019 3146.82,756.445 3165.28,713.086 3183.75,781.711 3202.21,703.245 3220.68,682.111 3239.14,697.897 3257.61,455.391 3276.08,646.027 3294.54,408.057 3313.01,734.003 3331.47,451.395 3349.94,480.713 3368.4,655.974 3386.87,452.676 3405.33,763.181 3423.8,637.605 3442.26,532.673 3460.73,603.428 3479.2,679.985 3497.66,620.254 3516.13,647.648 3534.59,767.963 3553.06,741.232 3571.52,503.679 3589.99,790.813 3608.45,611.72 3626.92,554.624 3645.38,549.133 3663.85,311.665 3682.31,414.995 3700.78,390.956 3719.25,422.758 3737.71,460.823 3756.18,443.032 3774.64,591.017 3793.11,558.842 3811.57,543.652 3830.04,551.287 3848.5,614.435 3866.97,745.638 3885.43,575.323 3903.9,669.41 3922.37,668.808 3940.83,578.04 3959.3,467.495 3977.76,451.721 3996.23,455.091 4014.69,478.601 4033.16,212.621 4051.62,421.558 4070.09,325.44 4088.55,428.519 4107.02,490.017 4125.49,343.492 4143.95,465.126 4162.42,417.72 4180.88,554.879 4199.35,519.754 4217.81,504.658 4236.28,540.288 4254.74,595.87 4273.21,391.997 4291.67,607.171 4310.14,602.969 4328.6,427.376 4347.07,350.88 4365.54,395.762 4384,377.686 4402.47,260.733 4420.93,211.204 4439.4,158.786 4457.86,158.767 4476.33,391.339 4494.79,456.387 4513.26,375.34 4531.72,329.423 4550.19,589.467 4568.66,509.886 4587.12,563.963 4605.59,323.475 4624.05,561.592 4642.52,495.081 4660.98,467.603 4679.45,426.273 4697.91,447.13 "/>
<polyline clip-path="url(#clip693)" style="stroke:#8b564a; stroke-linecap:round; stroke-linejoin:round; stroke-width:4; stroke-opacity:0.5; fill:none" points="2869.84,858.293 2888.3,733.352 2906.77,747.78 2925.23,667.588 2943.7,739.924 2962.16,742.352 2980.63,426.812 2999.09,780.104 3017.56,583.725 3036.02,388.578 3054.49,765.695 3072.96,395.557 3091.42,553.56 3109.89,813.607 3128.35,568.588 3146.82,832.891 3165.28,648.813 3183.75,578.523 3202.21,796.047 3220.68,720.536 3239.14,630.354 3257.61,764.323 3276.08,601.342 3294.54,563.912 3313.01,594.086 3331.47,463.836 3349.94,529.333 3368.4,396.616 3386.87,474.7 3405.33,510.766 3423.8,565.975 3442.26,575.001 3460.73,520.411 3479.2,561.674 3497.66,537.596 3516.13,547.871 3534.59,774.531 3553.06,703.047 3571.52,642.167 3589.99,649.483 3608.45,571.898 3626.92,483.369 3645.38,614.174 3663.85,430.103 3682.31,322.029 3700.78,278.3 3719.25,507.229 3737.71,550.883 3756.18,469.395 3774.64,444.562 3793.11,511.918 3811.57,520.79 3830.04,501.051 3848.5,430.937 3866.97,578.213 3885.43,599.728 3903.9,402.132 3922.37,545.686 3940.83,605.957 3959.3,596.686 3977.76,547.626 3996.23,703.371 4014.69,737.149 4033.16,415.359 4051.62,407.576 4070.09,428.041 4088.55,320.771 4107.02,280.86 4125.49,466.288 4143.95,109.163 4162.42,385.882 4180.88,374.471 4199.35,510.978 4217.81,538.159 4236.28,521.555 4254.74,331.75 4273.21,594.801 4291.67,605.803 4310.14,606.399 4328.6,472.932 4347.07,434.96 4365.54,347.532 4384,363.933 4402.47,433.346 4420.93,382.37 4439.4,365.391 4457.86,267.841 4476.33,359.548 4494.79,388.78 4513.26,249.813 4531.72,391.746 4550.19,340.733 4568.66,240.271 4587.12,296.621 4605.59,369.254 4624.05,617.324 4642.52,461.56 4660.98,451.238 4679.45,505.206 4697.91,481.213 "/>
<polyline clip-path="url(#clip693)" style="stroke:#8b564a; stroke-linecap:round; stroke-linejoin:round; stroke-width:4; stroke-opacity:0.5; fill:none" points="2869.84,735.654 2888.3,618.724 2906.77,744.298 2925.23,734.079 2943.7,555.504 2962.16,606.622 2980.63,641.271 2999.09,506.589 3017.56,586.237 3036.02,620.573 3054.49,599.997 3072.96,554.43 3091.42,595.114 3109.89,458.24 3128.35,646.775 3146.82,728.89 3165.28,759.069 3183.75,615.394 3202.21,679.922 3220.68,659.155 3239.14,860.782 3257.61,618.625 3276.08,637.9 3294.54,584.964 3313.01,584.876 3331.47,559.987 3349.94,443.567 3368.4,503.901 3386.87,548.586 3405.33,392.248 3423.8,509.359 3442.26,554.992 3460.73,465.095 3479.2,548.172 3497.66,474.974 3516.13,737.93 3534.59,601.123 3553.06,664.4 3571.52,511.918 3589.99,694.943 3608.45,711.235 3626.92,565.351 3645.38,718.954 3663.85,639.865 3682.31,612.809 3700.78,521.619 3719.25,353.139 3737.71,418.354 3756.18,506.29 3774.64,344.964 3793.11,384.126 3811.57,475.158 3830.04,467.959 3848.5,573.387 3866.97,473.131 3885.43,528.375 3903.9,672.296 3922.37,520.717 3940.83,642.001 3959.3,626.675 3977.76,503.242 3996.23,574.941 4014.69,597.171 4033.16,465.764 4051.62,573.913 4070.09,345.67 4088.55,402.445 4107.02,311.929 4125.49,369.009 4143.95,424.9 4162.42,422.654 4180.88,441.277 4199.35,321.55 4217.81,286.704 4236.28,577.844 4254.74,566.279 4273.21,630.107 4291.67,399.109 4310.14,519.654 4328.6,641.488 4347.07,298.427 4365.54,373.255 4384,458.223 4402.47,361.899 4420.93,611.827 4439.4,461.331 4457.86,407.033 4476.33,359.898 4494.79,394.476 4513.26,364.618 4531.72,325.549 4550.19,287.556 4568.66,338.876 4587.12,276.527 4605.59,433.905 4624.05,346.988 4642.52,438.545 4660.98,433.923 4679.45,456.233 4697.91,482.172 "/>
<polyline clip-path="url(#clip693)" style="stroke:#8b564a; stroke-linecap:round; stroke-linejoin:round; stroke-width:4; stroke-opacity:0.5; fill:none" points="2869.84,724.795 2888.3,547.199 2906.77,653.98 2925.23,776.169 2943.7,538.087 2962.16,504.746 2980.63,730.554 2999.09,627.94 3017.56,746.391 3036.02,613.236 3054.49,645.477 3072.96,682.889 3091.42,603.352 3109.89,789.332 3128.35,693.471 3146.82,736.333 3165.28,584.953 3183.75,669.856 3202.21,818.553 3220.68,667.776 3239.14,589.977 3257.61,650.895 3276.08,484.052 3294.54,440.471 3313.01,579.076 3331.47,482.944 3349.94,636.32 3368.4,486.563 3386.87,675.865 3405.33,650.631 3423.8,626.173 3442.26,713.332 3460.73,607.102 3479.2,892.197 3497.66,783.671 3516.13,714.083 3534.59,686.244 3553.06,540.075 3571.52,619.107 3589.99,457.586 3608.45,503.761 3626.92,498.086 3645.38,414.022 3663.85,434.519 3682.31,448.124 3700.78,379.06 3719.25,456.582 3737.71,495.076 3756.18,584.679 3774.64,554.945 3793.11,731.255 3811.57,703.321 3830.04,573.426 3848.5,684.031 3866.97,584.904 3885.43,534.696 3903.9,486.763 3922.37,517.429 3940.83,526.824 3959.3,509.137 3977.76,426.687 3996.23,310.153 4014.69,587.874 4033.16,379.378 4051.62,410.721 4070.09,408.008 4088.55,646.346 4107.02,289.454 4125.49,618.231 4143.95,498.556 4162.42,504.44 4180.88,484.497 4199.35,648.066 4217.81,650.562 4236.28,623.698 4254.74,502.265 4273.21,659.92 4291.67,432.315 4310.14,252.463 4328.6,341.614 4347.07,283.481 4365.54,271.399 4384,316.18 4402.47,469.194 4420.93,488.98 4439.4,282.756 4457.86,387.897 4476.33,213.154 4494.79,339.559 4513.26,462.318 4531.72,488.833 4550.19,426.912 4568.66,452.518 4587.12,395.333 4605.59,516.945 4624.05,501.618 4642.52,522.869 4660.98,422.998 4679.45,180.814 4697.91,351.508 "/>
<polyline clip-path="url(#clip693)" style="stroke:#8b564a; stroke-linecap:round; stroke-linejoin:round; stroke-width:4; stroke-opacity:0.5; fill:none" points="2869.84,558.99 2888.3,683.162 2906.77,681.041 2925.23,610.404 2943.7,569.417 2962.16,645.171 2980.63,588.944 2999.09,693.028 3017.56,597.895 3036.02,705.165 3054.49,771.59 3072.96,650.71 3091.42,729.708 3109.89,710.93 3128.35,631.307 3146.82,589.883 3165.28,514.602 3183.75,587.124 3202.21,670.024 3220.68,673.609 3239.14,538.052 3257.61,474.686 3276.08,473.339 3294.54,592.591 3313.01,536.488 3331.47,519.76 3349.94,578.627 3368.4,767.408 3386.87,563.331 3405.33,557.33 3423.8,771.482 3442.26,611.936 3460.73,851.453 3479.2,732.195 3497.66,653.198 3516.13,550.527 3534.59,715.118 3553.06,524.291 3571.52,453.434 3589.99,312.368 3608.45,335.183 3626.92,484.954 3645.38,463.441 3663.85,527.083 3682.31,305.982 3700.78,448.627 3719.25,378.156 3737.71,403.628 3756.18,459.053 3774.64,518.337 3793.11,436.946 3811.57,550.483 3830.04,632.734 3848.5,418.127 3866.97,374.664 3885.43,491.573 3903.9,410.472 3922.37,530.283 3940.83,456.156 3959.3,582.517 3977.76,420.064 3996.23,445.858 4014.69,365.882 4033.16,579.381 4051.62,328.619 4070.09,369.574 4088.55,695.459 4107.02,423.619 4125.49,442.933 4143.95,535.928 4162.42,777.495 4180.88,637.569 4199.35,460.698 4217.81,567.229 4236.28,680.144 4254.74,533.404 4273.21,499.452 4291.67,462.163 4310.14,595.712 4328.6,403.776 4347.07,310.914 4365.54,390.036 4384,402.14 4402.47,410.414 4420.93,346.344 4439.4,452.33 4457.86,312.148 4476.33,308.949 4494.79,515.148 4513.26,388.756 4531.72,505.208 4550.19,654.996 4568.66,350.14 4587.12,586.47 4605.59,424.207 4624.05,465.181 4642.52,349.521 4660.98,338.609 4679.45,370.106 4697.91,408.144 "/>
<polyline clip-path="url(#clip693)" style="stroke:#8b564a; stroke-linecap:round; stroke-linejoin:round; stroke-width:4; stroke-opacity:0.5; fill:none" points="2869.84,851.827 2888.3,754.353 2906.77,760.139 2925.23,593.803 2943.7,743.3 2962.16,569.683 2980.63,658.392 2999.09,616.927 3017.56,607.934 3036.02,472.701 3054.49,482.724 3072.96,585.006 3091.42,470.336 3109.89,539.51 3128.35,766.432 3146.82,743.972 3165.28,705.105 3183.75,776.083 3202.21,818.864 3220.68,646.209 3239.14,658.089 3257.61,680.231 3276.08,879.466 3294.54,596.635 3313.01,627.841 3331.47,473.361 3349.94,487.824 3368.4,438.299 3386.87,604.761 3405.33,455.166 3423.8,537.339 3442.26,410.322 3460.73,472.528 3479.2,548.033 3497.66,371.235 3516.13,857.404 3534.59,640.028 3553.06,631.798 3571.52,700.96 3589.99,848.698 3608.45,675.511 3626.92,706.641 3645.38,551.807 3663.85,524.942 3682.31,570.333 3700.78,396.227 3719.25,594.84 3737.71,498.37 3756.18,581.126 3774.64,482.033 3793.11,312.862 3811.57,319.433 3830.04,451.49 3848.5,355.055 3866.97,647.836 3885.43,517.52 3903.9,428.923 3922.37,690.936 3940.83,556.278 3959.3,776.038 3977.76,648.286 3996.23,430.407 4014.69,454.677 4033.16,502.558 4051.62,492.486 4070.09,502.103 4088.55,337.493 4107.02,401.285 4125.49,344.909 4143.95,273.332 4162.42,432.542 4180.88,470.198 4199.35,556.917 4217.81,449.775 4236.28,589.938 4254.74,567.471 4273.21,595.717 4291.67,565.003 4310.14,392.111 4328.6,509.417 4347.07,492.848 4365.54,337.876 4384,366.494 4402.47,436.582 4420.93,402.155 4439.4,366.874 4457.86,352.769 4476.33,384.407 4494.79,218.676 4513.26,343.433 4531.72,240.38 4550.19,252.244 4568.66,299.822 4587.12,385.59 4605.59,460.66 4624.05,396.632 4642.52,414.987 4660.98,591.121 4679.45,574.129 4697.91,363.815 "/>
<polyline clip-path="url(#clip693)" style="stroke:#8b564a; stroke-linecap:round; stroke-linejoin:round; stroke-width:4; stroke-opacity:0.5; fill:none" points="2869.84,885.999 2888.3,519.216 2906.77,726.751 2925.23,699.737 2943.7,598.491 2962.16,696.345 2980.63,653.791 2999.09,545.317 3017.56,546.375 3036.02,430.776 3054.49,524.192 3072.96,523.536 3091.42,608.895 3109.89,631.582 3128.35,666.872 3146.82,683.384 3165.28,625.917 3183.75,737.127 3202.21,666.804 3220.68,655.343 3239.14,671.821 3257.61,691.265 3276.08,675.654 3294.54,803.722 3313.01,565.525 3331.47,533.755 3349.94,644.865 3368.4,462.959 3386.87,538.66 3405.33,477.189 3423.8,371.936 3442.26,477.233 3460.73,436.335 3479.2,527.536 3497.66,584.803 3516.13,485.479 3534.59,466.222 3553.06,586.245 3571.52,736.37 3589.99,509.168 3608.45,555.475 3626.92,575.172 3645.38,689.176 3663.85,538.639 3682.31,580.483 3700.78,437.654 3719.25,447.977 3737.71,423.319 3756.18,535.78 3774.64,452.149 3793.11,367.3 3811.57,369.066 3830.04,590.056 3848.5,571.812 3866.97,434.936 3885.43,512.373 3903.9,531.861 3922.37,534.502 3940.83,485.94 3959.3,689.923 3977.76,642.697 3996.23,470.785 4014.69,526.49 4033.16,580.192 4051.62,408.366 4070.09,370.106 4088.55,364.962 4107.02,271.22 4125.49,410.798 4143.95,499.224 4162.42,332.373 4180.88,353.439 4199.35,348.382 4217.81,513.711 4236.28,458.037 4254.74,403.347 4273.21,425.677 4291.67,535.185 4310.14,542.157 4328.6,623.114 4347.07,517.1 4365.54,485.001 4384,414.127 4402.47,416.632 4420.93,369.157 4439.4,445.353 4457.86,431.343 4476.33,345.806 4494.79,394.681 4513.26,353.462 4531.72,309.652 4550.19,252.688 4568.66,439.794 4587.12,329.745 4605.59,504.938 4624.05,513.749 4642.52,498.733 4660.98,344.657 4679.45,452.283 4697.91,556.128 "/>
<polyline clip-path="url(#clip693)" style="stroke:#8b564a; stroke-linecap:round; stroke-linejoin:round; stroke-width:4; stroke-opacity:0.5; fill:none" points="2869.84,421.538 2888.3,466.884 2906.77,640.821 2925.23,508.763 2943.7,879.293 2962.16,851.181 2980.63,746.609 2999.09,810.538 3017.56,723.396 3036.02,625.83 3054.49,611.372 3072.96,593.762 3091.42,662.082 3109.89,603.297 3128.35,762.647 3146.82,631.766 3165.28,701.319 3183.75,433.837 3202.21,412.291 3220.68,675.651 3239.14,408.365 3257.61,627.19 3276.08,736.788 3294.54,643.435 3313.01,559.028 3331.47,779.008 3349.94,637.56 3368.4,567.111 3386.87,859.466 3405.33,651.753 3423.8,601.329 3442.26,755.716 3460.73,492.481 3479.2,516.234 3497.66,603.938 3516.13,599.352 3534.59,347.243 3553.06,488.011 3571.52,331.474 3589.99,459.541 3608.45,482.911 3626.92,501.761 3645.38,503.535 3663.85,479.08 3682.31,402.53 3700.78,428.231 3719.25,583.898 3737.71,632.584 3756.18,738.079 3774.64,675.379 3793.11,586.577 3811.57,576.884 3830.04,585.741 3848.5,385.834 3866.97,408.804 3885.43,454.236 3903.9,390.361 3922.37,523.318 3940.83,297.626 3959.3,400.619 3977.76,463.265 3996.23,383.132 4014.69,422.066 4033.16,396.213 4051.62,479.486 4070.09,446.602 4088.55,555.044 4107.02,580.995 4125.49,414.374 4143.95,524.885 4162.42,543.541 4180.88,453.927 4199.35,616.917 4217.81,491.073 4236.28,549.685 4254.74,365.769 4273.21,230.966 4291.67,220.101 4310.14,378.736 4328.6,334.286 4347.07,403.141 4365.54,351.674 4384,386.585 4402.47,540.22 4420.93,349.116 4439.4,460.772 4457.86,603.66 4476.33,479.542 4494.79,263.676 4513.26,412.102 4531.72,363.7 4550.19,367.989 4568.66,369.891 4587.12,367.931 4605.59,460.482 4624.05,220.292 4642.52,236.674 4660.98,408.319 4679.45,453.685 4697.91,114.822 "/>
<polyline clip-path="url(#clip693)" style="stroke:#8b564a; stroke-linecap:round; stroke-linejoin:round; stroke-width:4; stroke-opacity:0.5; fill:none" points="2869.84,479.052 2888.3,519.714 2906.77,590.87 2925.23,576.457 2943.7,626.297 2962.16,623.86 2980.63,669.829 2999.09,727.79 3017.56,647.704 3036.02,562.856 3054.49,792.123 3072.96,635.433 3091.42,624.656 3109.89,713.073 3128.35,726.275 3146.82,469.304 3165.28,609.417 3183.75,507.391 3202.21,455.517 3220.68,481.171 3239.14,715.452 3257.61,551.808 3276.08,591.575 3294.54,350.61 3313.01,475.071 3331.47,541.144 3349.94,624.167 3368.4,579.276 3386.87,601.642 3405.33,625.731 3423.8,617.776 3442.26,689.961 3460.73,655.904 3479.2,555.321 3497.66,661.837 3516.13,478.758 3534.59,610.516 3553.06,568.837 3571.52,497.961 3589.99,336.246 3608.45,502.834 3626.92,551.312 3645.38,532.111 3663.85,342.83 3682.31,560.536 3700.78,342.742 3719.25,616.176 3737.71,495.525 3756.18,526.964 3774.64,717.392 3793.11,486.907 3811.57,607.316 3830.04,575.515 3848.5,514.389 3866.97,490.918 3885.43,479.78 3903.9,485.812 3922.37,496.99 3940.83,552.401 3959.3,243.241 3977.76,520.195 3996.23,305.533 4014.69,449.079 4033.16,548.728 4051.62,394.546 4070.09,347.197 4088.55,357.524 4107.02,446.064 4125.49,474.217 4143.95,502.3 4162.42,435.076 4180.88,526.534 4199.35,454.711 4217.81,545.641 4236.28,463.722 4254.74,485.754 4273.21,411.003 4291.67,507.978 4310.14,326.686 4328.6,223.796 4347.07,242.153 4365.54,372.138 4384,265.129 4402.47,528.419 4420.93,445.445 4439.4,521.432 4457.86,385.357 4476.33,606.098 4494.79,628.024 4513.26,560.756 4531.72,431.308 4550.19,554.521 4568.66,526.256 4587.12,372.86 4605.59,456.206 4624.05,427.178 4642.52,369.467 4660.98,288.61 4679.45,378.51 4697.91,153.529 "/>
</svg>
