<?xml version="1.0" encoding="UTF-8" standalone="no"?>
<svg
   width="772.24579"
   height="497.88135"
   viewBox="0 0 3088.9832 1991.5254"
   version="1.1"
   id="svg8278"
   sodipodi:docname="median_impute.svg"
   inkscape:version="1.2.1 (9c6d41e, 2022-07-14)"
   inkscape:export-filename="median_impute.svg"
   inkscape:export-xdpi="96"
   inkscape:export-ydpi="96"
   xmlns:inkscape="http://www.inkscape.org/namespaces/inkscape"
   xmlns:sodipodi="http://sodipodi.sourceforge.net/DTD/sodipodi-0.dtd"
   xmlns="http://www.w3.org/2000/svg"
   xmlns:svg="http://www.w3.org/2000/svg">
  <sodipodi:namedview
     id="namedview8280"
     pagecolor="#ffffff"
     bordercolor="#000000"
     borderopacity="0.25"
     inkscape:showpageshadow="2"
     inkscape:pageopacity="0.0"
     inkscape:pagecheckerboard="0"
     inkscape:deskcolor="#d1d1d1"
     showgrid="false"
     inkscape:zoom="0.6675088"
     inkscape:cx="496.62267"
     inkscape:cy="424.7135"
     inkscape:window-width="1920"
     inkscape:window-height="1027"
     inkscape:window-x="0"
     inkscape:window-y="25"
     inkscape:window-maximized="1"
     inkscape:current-layer="svg8278" />
  <defs
     id="defs7970">
    <clipPath
       id="clip750">
      <rect
         x="0"
         y="0"
         width="4000"
         height="2000"
         id="rect7967" />
    </clipPath>
  </defs>
  <defs
     id="defs7977">
    <clipPath
       id="clip751">
      <rect
         x="800"
         y="0"
         width="2801"
         height="2000"
         id="rect7974" />
    </clipPath>
  </defs>
  <rect
     style="fill:#ffffff;fill-rule:evenodd;stroke-width:6.4;stroke-linecap:square;stroke-linejoin:round"
     id="rect8623"
     width="3088.9832"
     height="1991.5254"
     x="0"
     y="0" />
  <path
     clip-path="url(#clip750)"
     d="M 241.261,1776.71 H 2980.02 V 216.704 H 241.261 Z"
     fill="#ffffff"
     fill-rule="evenodd"
     fill-opacity="1"
     id="path7979" />
  <defs
     id="defs7984">
    <clipPath
       id="clip752">
      <rect
         x="241"
         y="216"
         width="2740"
         height="1561"
         id="rect7981" />
    </clipPath>
  </defs>
  <polyline
     clip-path="url(#clip752)"
     style="fill:none;stroke:#000000;stroke-width:2;stroke-linecap:round;stroke-linejoin:round;stroke-opacity:0.1"
     points="292.675,1776.71 292.675,216.704 "
     id="polyline7986" />
  <polyline
     clip-path="url(#clip752)"
     style="fill:none;stroke:#000000;stroke-width:2;stroke-linecap:round;stroke-linejoin:round;stroke-opacity:0.1"
     points="945.134,1776.71 945.134,216.704 "
     id="polyline7988" />
  <polyline
     clip-path="url(#clip752)"
     style="fill:none;stroke:#000000;stroke-width:2;stroke-linecap:round;stroke-linejoin:round;stroke-opacity:0.1"
     points="1597.59,1776.71 1597.59,216.704 "
     id="polyline7990" />
  <polyline
     clip-path="url(#clip752)"
     style="fill:none;stroke:#000000;stroke-width:2;stroke-linecap:round;stroke-linejoin:round;stroke-opacity:0.1"
     points="2250.05,1776.71 2250.05,216.704 "
     id="polyline7992" />
  <polyline
     clip-path="url(#clip752)"
     style="fill:none;stroke:#000000;stroke-width:2;stroke-linecap:round;stroke-linejoin:round;stroke-opacity:0.1"
     points="2902.51,1776.71 2902.51,216.704 "
     id="polyline7994" />
  <polyline
     clip-path="url(#clip752)"
     style="fill:none;stroke:#000000;stroke-width:2;stroke-linecap:round;stroke-linejoin:round;stroke-opacity:0.1"
     points="241.261,1490.48 2980.02,1490.48 "
     id="polyline7996" />
  <polyline
     clip-path="url(#clip752)"
     style="fill:none;stroke:#000000;stroke-width:2;stroke-linecap:round;stroke-linejoin:round;stroke-opacity:0.1"
     points="241.261,1170.5 2980.02,1170.5 "
     id="polyline7998" />
  <polyline
     clip-path="url(#clip752)"
     style="fill:none;stroke:#000000;stroke-width:2;stroke-linecap:round;stroke-linejoin:round;stroke-opacity:0.1"
     points="241.261,850.521 2980.02,850.521 "
     id="polyline8000" />
  <polyline
     clip-path="url(#clip752)"
     style="fill:none;stroke:#000000;stroke-width:2;stroke-linecap:round;stroke-linejoin:round;stroke-opacity:0.1"
     points="241.261,530.541 2980.02,530.541 "
     id="polyline8002" />
  <polyline
     clip-path="url(#clip750)"
     style="fill:none;stroke:#000000;stroke-width:4;stroke-linecap:round;stroke-linejoin:round;stroke-opacity:1"
     points="241.261,1776.71 2980.02,1776.71 "
     id="polyline8004" />
  <polyline
     clip-path="url(#clip750)"
     style="fill:none;stroke:#000000;stroke-width:4;stroke-linecap:round;stroke-linejoin:round;stroke-opacity:1"
     points="292.675,1776.71 292.675,1757.81 "
     id="polyline8006" />
  <polyline
     clip-path="url(#clip750)"
     style="fill:none;stroke:#000000;stroke-width:4;stroke-linecap:round;stroke-linejoin:round;stroke-opacity:1"
     points="945.134,1776.71 945.134,1757.81 "
     id="polyline8008" />
  <polyline
     clip-path="url(#clip750)"
     style="fill:none;stroke:#000000;stroke-width:4;stroke-linecap:round;stroke-linejoin:round;stroke-opacity:1"
     points="1597.59,1776.71 1597.59,1757.81 "
     id="polyline8010" />
  <polyline
     clip-path="url(#clip750)"
     style="fill:none;stroke:#000000;stroke-width:4;stroke-linecap:round;stroke-linejoin:round;stroke-opacity:1"
     points="2250.05,1776.71 2250.05,1757.81 "
     id="polyline8012" />
  <polyline
     clip-path="url(#clip750)"
     style="fill:none;stroke:#000000;stroke-width:4;stroke-linecap:round;stroke-linejoin:round;stroke-opacity:1"
     points="2902.51,1776.71 2902.51,1757.81 "
     id="polyline8014" />
  <path
     clip-path="url(#clip750)"
     d="m 292.675,1820.43 q -3.611,0 -5.44,3.56 -1.806,3.54 -1.806,10.67 0,7.11 1.806,10.67 1.829,3.55 5.44,3.55 3.634,0 5.44,-3.55 1.828,-3.56 1.828,-10.67 0,-7.13 -1.828,-10.67 -1.806,-3.56 -5.44,-3.56 m 0,-3.71 q 5.81,0 8.865,4.61 3.079,4.58 3.079,13.33 0,8.73 -3.079,13.34 -3.055,4.58 -8.865,4.58 -5.81,0 -8.889,-4.58 -3.056,-4.61 -3.056,-13.34 0,-8.75 3.056,-13.33 3.079,-4.61 8.889,-4.61 z"
     fill="#000000"
     fill-rule="nonzero"
     fill-opacity="1"
     id="path8016" />
  <path
     clip-path="url(#clip750)"
     d="m 924.405,1847.97 h 16.319 v 3.94 H 918.78 v -3.94 q 2.662,-2.75 7.245,-7.38 4.606,-4.65 5.787,-6 2.245,-2.52 3.125,-4.26 0.903,-1.76 0.903,-3.45 0,-2.75 -1.945,-4.49 -1.921,-1.73 -5.023,-1.73 -2.199,0 -4.653,0.76 -2.43,0.77 -5.208,2.32 v -4.73 q 2.824,-1.13 5.278,-1.71 2.453,-0.58 4.491,-0.58 5.37,0 8.564,2.69 3.195,2.68 3.195,7.17 0,2.13 -0.81,4.05 -0.787,1.9 -2.894,4.5 -0.579,0.67 -3.681,3.88 -3.101,3.2 -8.749,8.96 z"
     fill="#000000"
     fill-rule="nonzero"
     fill-opacity="1"
     id="path8018" />
  <path
     clip-path="url(#clip750)"
     d="m 950.585,1817.35 h 18.356 v 3.93 h -14.074 v 8.48 q 1.019,-0.35 2.037,-0.51 1.019,-0.19 2.037,-0.19 5.787,0 9.167,3.17 3.38,3.17 3.38,8.59 0,5.58 -3.473,8.68 -3.472,3.08 -9.791,3.08 -2.176,0 -4.445,-0.37 -2.245,-0.37 -4.652,-1.11 v -4.7 q 2.083,1.13 4.305,1.69 2.222,0.55 4.699,0.55 4.005,0 6.343,-2.1 2.338,-2.11 2.338,-5.72 0,-3.61 -2.338,-5.72 -2.338,-2.1 -6.343,-2.1 -1.875,0 -3.75,0.41 -1.852,0.42 -3.796,1.3 z"
     fill="#000000"
     fill-rule="nonzero"
     fill-opacity="1"
     id="path8020" />
  <path
     clip-path="url(#clip750)"
     d="m 1572.29,1817.35 h 18.36 v 3.93 h -14.08 v 8.48 q 1.02,-0.35 2.04,-0.51 1.02,-0.19 2.04,-0.19 5.79,0 9.16,3.17 3.38,3.17 3.38,8.59 0,5.58 -3.47,8.68 -3.47,3.08 -9.79,3.08 -2.18,0 -4.44,-0.37 -2.25,-0.37 -4.66,-1.11 v -4.7 q 2.09,1.13 4.31,1.69 2.22,0.55 4.7,0.55 4,0 6.34,-2.1 2.34,-2.11 2.34,-5.72 0,-3.61 -2.34,-5.72 -2.34,-2.1 -6.34,-2.1 -1.88,0 -3.75,0.41 -1.85,0.42 -3.8,1.3 z"
     fill="#000000"
     fill-rule="nonzero"
     fill-opacity="1"
     id="path8022" />
  <path
     clip-path="url(#clip750)"
     d="m 1612.41,1820.43 q -3.61,0 -5.44,3.56 -1.81,3.54 -1.81,10.67 0,7.11 1.81,10.67 1.83,3.55 5.44,3.55 3.63,0 5.44,-3.55 1.83,-3.56 1.83,-10.67 0,-7.13 -1.83,-10.67 -1.81,-3.56 -5.44,-3.56 m 0,-3.71 q 5.81,0 8.86,4.61 3.08,4.58 3.08,13.33 0,8.73 -3.08,13.34 -3.05,4.58 -8.86,4.58 -5.81,0 -8.89,-4.58 -3.06,-4.61 -3.06,-13.34 0,-8.75 3.06,-13.33 3.08,-4.61 8.89,-4.61 z"
     fill="#000000"
     fill-rule="nonzero"
     fill-opacity="1"
     id="path8024" />
  <path
     clip-path="url(#clip750)"
     d="m 2223.91,1817.35 h 22.22 v 1.99 l -12.55,32.57 h -4.88 l 11.8,-30.63 h -16.59 z"
     fill="#000000"
     fill-rule="nonzero"
     fill-opacity="1"
     id="path8026" />
  <path
     clip-path="url(#clip750)"
     d="m 2255.29,1817.35 h 18.36 v 3.93 h -14.07 v 8.48 q 1.02,-0.35 2.03,-0.51 1.02,-0.19 2.04,-0.19 5.79,0 9.17,3.17 3.38,3.17 3.38,8.59 0,5.58 -3.48,8.68 -3.47,3.08 -9.79,3.08 -2.17,0 -4.44,-0.37 -2.25,-0.37 -4.65,-1.11 v -4.7 q 2.08,1.13 4.3,1.69 2.22,0.55 4.7,0.55 4.01,0 6.34,-2.1 2.34,-2.11 2.34,-5.72 0,-3.61 -2.34,-5.72 -2.33,-2.1 -6.34,-2.1 -1.87,0 -3.75,0.41 -1.85,0.42 -3.8,1.3 z"
     fill="#000000"
     fill-rule="nonzero"
     fill-opacity="1"
     id="path8028" />
  <path
     clip-path="url(#clip750)"
     d="m 2862.12,1847.97 h 7.64 v -26.36 l -8.31,1.66 v -4.26 l 8.26,-1.66 h 4.68 v 30.62 h 7.63 v 3.94 h -19.9 z"
     fill="#000000"
     fill-rule="nonzero"
     fill-opacity="1"
     id="path8030" />
  <path
     clip-path="url(#clip750)"
     d="m 2901.47,1820.43 q -3.61,0 -5.44,3.56 -1.81,3.54 -1.81,10.67 0,7.11 1.81,10.67 1.83,3.55 5.44,3.55 3.63,0 5.44,-3.55 1.83,-3.56 1.83,-10.67 0,-7.13 -1.83,-10.67 -1.81,-3.56 -5.44,-3.56 m 0,-3.71 q 5.81,0 8.86,4.61 3.08,4.58 3.08,13.33 0,8.73 -3.08,13.34 -3.05,4.58 -8.86,4.58 -5.81,0 -8.89,-4.58 -3.06,-4.61 -3.06,-13.34 0,-8.75 3.06,-13.33 3.08,-4.61 8.89,-4.61 z"
     fill="#000000"
     fill-rule="nonzero"
     fill-opacity="1"
     id="path8032" />
  <path
     clip-path="url(#clip750)"
     d="m 2931.63,1820.43 q -3.61,0 -5.44,3.56 -1.81,3.54 -1.81,10.67 0,7.11 1.81,10.67 1.83,3.55 5.44,3.55 3.63,0 5.44,-3.55 1.83,-3.56 1.83,-10.67 0,-7.13 -1.83,-10.67 -1.81,-3.56 -5.44,-3.56 m 0,-3.71 q 5.81,0 8.87,4.61 3.07,4.58 3.07,13.33 0,8.73 -3.07,13.34 -3.06,4.58 -8.87,4.58 -5.81,0 -8.89,-4.58 -3.05,-4.61 -3.05,-13.34 0,-8.75 3.05,-13.33 3.08,-4.61 8.89,-4.61 z"
     fill="#000000"
     fill-rule="nonzero"
     fill-opacity="1"
     id="path8034" />
  <path
     clip-path="url(#clip750)"
     d="m 1549.8,1899.8 v 10.12 h 12.06 v 4.56 h -12.06 v 19.35 q 0,4.36 1.18,5.6 1.21,1.24 4.87,1.24 h 6.01 v 4.9 h -6.01 q -6.78,0 -9.36,-2.51 -2.58,-2.55 -2.58,-9.23 v -19.35 h -4.29 v -4.56 h 4.29 v -10.12 z"
     fill="#000000"
     fill-rule="nonzero"
     fill-opacity="1"
     id="path8036" />
  <path
     clip-path="url(#clip750)"
     d="m 1569.57,1909.92 h 5.85 v 35.65 h -5.85 v -35.65 m 0,-13.87 h 5.85 v 7.41 h -5.85 z"
     fill="#000000"
     fill-rule="nonzero"
     fill-opacity="1"
     id="path8038" />
  <path
     clip-path="url(#clip750)"
     d="m 1615.43,1916.77 q 2.2,-3.95 5.25,-5.83 3.06,-1.88 7.2,-1.88 5.57,0 8.59,3.92 3.02,3.88 3.02,11.08 v 21.51 h -5.88 v -21.32 q 0,-5.13 -1.82,-7.61 -1.81,-2.48 -5.54,-2.48 -4.55,0 -7.19,3.02 -2.64,3.02 -2.64,8.24 v 20.15 h -5.89 v -21.32 q 0,-5.16 -1.81,-7.61 -1.82,-2.48 -5.61,-2.48 -4.48,0 -7.13,3.05 -2.64,3.03 -2.64,8.21 v 20.15 h -5.89 v -35.65 h 5.89 v 5.54 q 2.01,-3.28 4.81,-4.84 2.8,-1.56 6.65,-1.56 3.88,0 6.59,1.98 2.74,1.97 4.04,5.73 z"
     fill="#000000"
     fill-rule="nonzero"
     fill-opacity="1"
     id="path8040" />
  <path
     clip-path="url(#clip750)"
     d="m 1681.67,1926.28 v 2.87 h -26.93 q 0.38,6.05 3.63,9.23 3.28,3.15 9.1,3.15 3.38,0 6.53,-0.83 3.18,-0.83 6.3,-2.48 v 5.54 q -3.15,1.33 -6.46,2.03 -3.31,0.7 -6.72,0.7 -8.53,0 -13.53,-4.96 -4.96,-4.97 -4.96,-13.43 0,-8.75 4.71,-13.88 4.74,-5.16 12.76,-5.16 7.2,0 11.37,4.65 4.2,4.62 4.2,12.57 m -5.86,-1.72 q -0.06,-4.8 -2.7,-7.67 -2.61,-2.86 -6.94,-2.86 -4.91,0 -7.87,2.77 -2.92,2.77 -3.37,7.8 z"
     fill="#000000"
     fill-rule="nonzero"
     fill-opacity="1"
     id="path8042" />
  <polyline
     clip-path="url(#clip750)"
     style="fill:none;stroke:#000000;stroke-width:4;stroke-linecap:round;stroke-linejoin:round;stroke-opacity:1"
     points="241.261,1776.71 241.261,216.704 "
     id="polyline8044" />
  <polyline
     clip-path="url(#clip750)"
     style="fill:none;stroke:#000000;stroke-width:4;stroke-linecap:round;stroke-linejoin:round;stroke-opacity:1"
     points="241.261,1490.48 255.206,1490.48 "
     id="polyline8046" />
  <polyline
     clip-path="url(#clip750)"
     style="fill:none;stroke:#000000;stroke-width:4;stroke-linecap:round;stroke-linejoin:round;stroke-opacity:1"
     points="241.261,1170.5 255.206,1170.5 "
     id="polyline8048" />
  <polyline
     clip-path="url(#clip750)"
     style="fill:none;stroke:#000000;stroke-width:4;stroke-linecap:round;stroke-linejoin:round;stroke-opacity:1"
     points="241.261,850.521 255.206,850.521 "
     id="polyline8050" />
  <polyline
     clip-path="url(#clip750)"
     style="fill:none;stroke:#000000;stroke-width:4;stroke-linecap:round;stroke-linejoin:round;stroke-opacity:1"
     points="241.261,530.541 255.206,530.541 "
     id="polyline8052" />
  <path
     clip-path="url(#clip750)"
     d="m 169.317,1476.28 q -3.611,0 -5.44,3.57 -1.806,3.54 -1.806,10.67 0,7.1 1.806,10.67 1.829,3.54 5.44,3.54 3.634,0 5.439,-3.54 1.829,-3.57 1.829,-10.67 0,-7.13 -1.829,-10.67 -1.805,-3.57 -5.439,-3.57 m 0,-3.7 q 5.81,0 8.865,4.6 3.079,4.59 3.079,13.34 0,8.72 -3.079,13.33 -3.055,4.58 -8.865,4.58 -5.81,0 -8.889,-4.58 -3.056,-4.61 -3.056,-13.33 0,-8.75 3.056,-13.34 3.079,-4.6 8.889,-4.6 z"
     fill="#000000"
     fill-rule="nonzero"
     fill-opacity="1"
     id="path8054" />
  <path
     clip-path="url(#clip750)"
     d="m 161.354,1183.85 h 7.639 v -26.37 l -8.311,1.67 v -4.26 l 8.264,-1.67 h 4.676 v 30.63 h 7.639 v 3.93 h -19.907 z"
     fill="#000000"
     fill-rule="nonzero"
     fill-opacity="1"
     id="path8056" />
  <path
     clip-path="url(#clip750)"
     d="m 164.942,863.866 h 16.319 v 3.935 h -21.944 v -3.935 q 2.662,-2.754 7.245,-7.384 4.607,-4.653 5.787,-5.995 2.245,-2.523 3.125,-4.259 0.903,-1.76 0.903,-3.45 0,-2.754 -1.945,-4.49 -1.921,-1.736 -5.023,-1.736 -2.199,0 -4.652,0.764 -2.431,0.763 -5.209,2.314 v -4.722 q 2.824,-1.134 5.278,-1.713 2.454,-0.579 4.491,-0.579 5.37,0 8.564,2.686 3.195,2.685 3.195,7.176 0,2.129 -0.81,4.05 -0.787,1.899 -2.894,4.491 -0.579,0.671 -3.68,3.889 -3.102,3.194 -8.75,8.958 z"
     fill="#000000"
     fill-rule="nonzero"
     fill-opacity="1"
     id="path8058" />
  <path
     clip-path="url(#clip750)"
     d="m 174.131,529.187 q 3.357,0.717 5.232,2.986 1.898,2.268 1.898,5.602 0,5.115 -3.518,7.916 -3.519,2.801 -10,2.801 -2.176,0 -4.491,-0.44 -2.292,-0.416 -4.745,-1.273 v -4.514 q 1.944,1.135 4.259,1.713 2.315,0.579 4.838,0.579 4.398,0 6.689,-1.736 2.315,-1.736 2.315,-5.046 0,-3.056 -2.152,-4.769 -2.13,-1.736 -5.95,-1.736 h -4.027 v -3.842 h 4.213 q 3.449,0 5.277,-1.366 1.829,-1.389 1.829,-3.982 0,-2.662 -1.898,-4.074 -1.875,-1.435 -5.394,-1.435 -1.921,0 -4.12,0.417 -2.199,0.416 -4.838,1.296 v -4.167 q 2.662,-0.74 4.977,-1.111 2.338,-0.37 4.398,-0.37 5.324,0 8.426,2.43 3.102,2.408 3.102,6.528 0,2.871 -1.644,4.861 -1.643,1.968 -4.676,2.732 z"
     fill="#000000"
     fill-rule="nonzero"
     fill-opacity="1"
     id="path8060" />
  <path
     clip-path="url(#clip750)"
     d="m 47.4683,980.091 17.3466,12.891 18.3014,-13.559 v 6.907 l -14.0046,10.376 14.0046,10.374 v 6.91 l -18.6515,-13.85 -16.9965,12.67 v -6.91 l 12.6996,-9.449 -12.6996,-9.453 z"
     fill="#000000"
     fill-rule="nonzero"
     fill-opacity="1"
     id="path8062" />
  <g
     id="g8433"
     transform="translate(3.187)">
    <path
       clip-path="url(#clip750)"
       d="m 820.715,35.2489 v 7.9803 q -4.658,-2.228 -8.79,-3.3217 -4.132,-1.0938 -7.98,-1.0938 -6.684,0 -10.33,2.5926 -3.606,2.5926 -3.606,7.3727 0,4.0104 2.39,6.0763 2.431,2.0255 9.155,3.2813 l 4.943,1.0127 q 9.155,1.7419 13.489,6.1574 4.375,4.3749 4.375,11.7476 0,8.7904 -5.914,13.3274 -5.874,4.5371 -17.257,4.5371 -4.294,0 -9.155,-0.9723 -4.821,-0.9722 -10.006,-2.8761 v -8.4259 q 4.983,2.7951 9.763,4.213 4.78,1.4178 9.398,1.4178 7.008,0 10.816,-2.7546 3.808,-2.7547 3.808,-7.8588 0,-4.456 -2.755,-6.9675 -2.714,-2.5116 -8.952,-3.7674 l -4.983,-0.9722 q -9.155,-1.8229 -13.247,-5.7118 -4.091,-3.8888 -4.091,-10.8159 0,-8.0208 5.631,-12.6388 5.671,-4.618 15.596,-4.618 4.253,0 8.669,0.7696 4.415,0.7697 9.033,2.309 z"
       fill="#000000"
       fill-rule="nonzero"
       fill-opacity="1"
       id="path8064" />
    <path
       clip-path="url(#clip750)"
       d="m 857.416,70.9374 q -9.033,0 -12.517,2.066 -3.484,2.0659 -3.484,7.0485 0,3.9699 2.593,6.3195 2.633,2.309 7.13,2.309 6.197,0 9.924,-4.375 3.768,-4.4155 3.768,-11.7071 v -1.6609 h -7.414 m 14.867,-3.0787 V 93.744 h -7.453 v -6.8865 q -2.552,4.1319 -6.36,6.1168 -3.808,1.9445 -9.317,1.9445 -6.968,0 -11.1,-3.8889 -4.091,-3.9294 -4.091,-10.4918 0,-7.6563 5.104,-11.5451 5.145,-3.8889 15.312,-3.8889 h 10.452 v -0.7292 q 0,-5.1446 -3.403,-7.9397 -3.362,-2.8357 -9.479,-2.8357 -3.889,0 -7.575,0.9317 -3.687,0.9318 -7.09,2.7952 v -6.8866 q 4.092,-1.5798 7.94,-2.3495 3.849,-0.8102 7.494,-0.8102 9.844,0 14.705,5.1042 4.861,5.1041 4.861,15.4744 z"
       fill="#000000"
       fill-rule="nonzero"
       fill-opacity="1"
       id="path8066" />
    <path
       clip-path="url(#clip750)"
       d="m 922.96,57.0833 q 2.795,-5.0231 6.684,-7.4131 3.889,-2.3901 9.155,-2.3901 7.089,0 10.938,4.9826 3.848,4.9421 3.848,14.0972 V 93.744 h -7.494 V 66.6029 q 0,-6.5219 -2.309,-9.6816 -2.309,-3.1597 -7.049,-3.1597 -5.793,0 -9.155,3.8483 -3.362,3.8484 -3.362,10.4919 V 93.744 h -7.494 V 66.6029 q 0,-6.5624 -2.309,-9.6816 -2.309,-3.1597 -7.13,-3.1597 -5.712,0 -9.074,3.8888 -3.362,3.8484 -3.362,10.4514 V 93.744 h -7.494 V 48.3739 h 7.494 v 7.0485 q 2.552,-4.1724 6.117,-6.1573 3.564,-1.985 8.466,-1.985 4.942,0 8.385,2.5116 3.484,2.5115 5.145,7.2916 z"
       fill="#000000"
       fill-rule="nonzero"
       fill-opacity="1"
       id="path8068" />
    <path
       clip-path="url(#clip750)"
       d="m 975.662,86.9385 v 24.0625 h -7.494 V 48.3739 h 7.494 v 6.8865 q 2.35,-4.0509 5.915,-5.9953 3.605,-1.985 8.588,-1.985 8.263,0 13.405,6.5625 5.19,6.5625 5.19,17.2568 0,10.6944 -5.19,17.2569 -5.142,6.5625 -13.405,6.5625 -4.983,0 -8.588,-1.9445 -3.565,-1.9849 -5.915,-6.0358 m 25.358,-15.8391 q 0,-8.2233 -3.402,-12.8818 -3.362,-4.6991 -9.276,-4.6991 -5.915,0 -9.317,4.6991 -3.363,4.6585 -3.363,12.8818 0,8.2234 3.363,12.9224 3.402,4.6586 9.317,4.6586 5.914,0 9.276,-4.6586 3.402,-4.699 3.402,-12.9224 z"
       fill="#000000"
       fill-rule="nonzero"
       fill-opacity="1"
       id="path8070" />
    <path
       clip-path="url(#clip750)"
       d="m 1021.11,30.7119 h 7.46 V 93.744 h -7.46 z"
       fill="#000000"
       fill-rule="nonzero"
       fill-opacity="1"
       id="path8072" />
    <path
       clip-path="url(#clip750)"
       d="m 1082.97,69.1955 v 3.6458 h -34.27 q 0.49,7.6968 4.62,11.7477 4.17,4.0104 11.58,4.0104 4.3,0 8.31,-1.0533 4.05,-1.0532 8.02,-3.1597 v 7.0486 q -4.01,1.7014 -8.22,2.5926 -4.22,0.8912 -8.55,0.8912 -10.86,0 -17.22,-6.3194 -6.32,-6.3195 -6.32,-17.0949 0,-11.14 6,-17.6619 6.03,-6.5625 16.24,-6.5625 9.16,0 14.46,5.9143 5.35,5.8739 5.35,16.0011 m -7.45,-2.1875 q -0.08,-6.1168 -3.45,-9.7626 -3.32,-3.6459 -8.83,-3.6459 -6.24,0 -10,3.5243 -3.73,3.5243 -4.3,9.9247 z"
       fill="#000000"
       fill-rule="nonzero"
       fill-opacity="1"
       id="path8074" />
    <path
       clip-path="url(#clip750)"
       d="m 1122.71,33.264 h 32.12 v 6.8865 h -24.63 v 14.8263 q 1.79,-0.6076 3.57,-0.8912 1.78,-0.324 3.56,-0.324 10.13,0 16.05,5.5497 5.91,5.5498 5.91,15.0289 0,9.7626 -6.08,15.1909 -6.07,5.3877 -17.13,5.3877 -3.81,0 -7.78,-0.6482 -3.93,-0.6481 -8.14,-1.9444 v -8.2234 q 3.64,1.985 7.53,2.9572 3.89,0.9722 8.23,0.9722 7,0 11.1,-3.6863 4.09,-3.6863 4.09,-10.0057 0,-6.3194 -4.09,-10.0058 -4.1,-3.6863 -11.1,-3.6863 -3.29,0 -6.57,0.7292 -3.24,0.7291 -6.64,2.2685 z"
       fill="#000000"
       fill-rule="nonzero"
       fill-opacity="1"
       id="path8076" />
    <path
       clip-path="url(#clip750)"
       d="m 1175.66,92.4882 v -7.4536 q 3.07,1.4583 6.23,2.228 3.16,0.7696 6.2,0.7696 8.1,0 12.36,-5.4282 4.29,-5.4687 4.9,-16.5682 -2.35,3.4838 -5.96,5.3472 -3.6,1.8634 -7.98,1.8634 -9.07,0 -14.38,-5.4687 -5.26,-5.5092 -5.26,-15.0289 0,-9.317 5.51,-14.9478 5.51,-5.6307 14.66,-5.6307 10.49,0 16,8.0613 5.55,8.0207 5.55,23.3332 0,14.2997 -6.8,22.8471 -6.77,8.5069 -18.23,8.5069 -3.08,0 -6.24,-0.6077 -3.16,-0.6076 -6.56,-1.8229 m 16.28,-25.6422 q 5.51,0 8.71,-3.7673 3.24,-3.7674 3.24,-10.3299 0,-6.5219 -3.24,-10.2892 -3.2,-3.8079 -8.71,-3.8079 -5.51,0 -8.75,3.8079 -3.2,3.7673 -3.2,10.2892 0,6.5625 3.2,10.3299 3.24,3.7673 8.75,3.7673 z"
       fill="#000000"
       fill-rule="nonzero"
       fill-opacity="1"
       id="path8078" />
    <path
       clip-path="url(#clip750)"
       d="m 1229.05,83.4547 h 8.54 v 6.9676 l -6.64,12.9627 h -5.23 l 3.33,-12.9627 z"
       fill="#000000"
       fill-rule="nonzero"
       fill-opacity="1"
       id="path8080" />
    <path
       clip-path="url(#clip750)"
       d="m 1325.5,37.9225 v 8.6285 q -4.13,-3.8484 -8.83,-5.7523 -4.66,-1.9039 -9.93,-1.9039 -10.37,0 -15.88,6.3599 -5.51,6.3194 -5.51,18.3101 0,11.9501 5.51,18.3101 5.51,6.3194 15.88,6.3194 5.27,0 9.93,-1.904 4.7,-1.9039 8.83,-5.7522 v 8.5474 q -4.3,2.9166 -9.12,4.3749 -4.78,1.4584 -10.12,1.4584 -13.74,0 -21.64,-8.3854 -7.89,-8.4259 -7.89,-22.9686 0,-14.5833 7.89,-22.9687 7.9,-8.4258 21.64,-8.4258 5.42,0 10.2,1.4583 4.83,1.4178 9.04,4.2939 z"
       fill="#000000"
       fill-rule="nonzero"
       fill-opacity="1"
       id="path8082" />
    <path
       clip-path="url(#clip750)"
       d="m 1337.81,30.7119 h 7.46 V 93.744 h -7.46 z"
       fill="#000000"
       fill-rule="nonzero"
       fill-opacity="1"
       id="path8084" />
    <path
       clip-path="url(#clip750)"
       d="m 1381.48,70.9374 q -9.03,0 -12.52,2.066 -3.48,2.0659 -3.48,7.0485 0,3.9699 2.59,6.3195 2.64,2.309 7.13,2.309 6.2,0 9.93,-4.375 3.77,-4.4155 3.77,-11.7071 v -1.6609 h -7.42 m 14.87,-3.0787 V 93.744 h -7.45 v -6.8865 q -2.56,4.1319 -6.36,6.1168 -3.81,1.9445 -9.32,1.9445 -6.97,0 -11.1,-3.8889 -4.09,-3.9294 -4.09,-10.4918 0,-7.6563 5.1,-11.5451 5.15,-3.8889 15.31,-3.8889 h 10.46 v -0.7292 q 0,-5.1446 -3.41,-7.9397 -3.36,-2.8357 -9.48,-2.8357 -3.89,0 -7.57,0.9317 -3.69,0.9318 -7.09,2.7952 v -6.8866 q 4.09,-1.5798 7.94,-2.3495 3.85,-0.8102 7.49,-0.8102 9.85,0 14.71,5.1042 4.86,5.1041 4.86,15.4744 z"
       fill="#000000"
       fill-rule="nonzero"
       fill-opacity="1"
       id="path8086" />
    <path
       clip-path="url(#clip750)"
       d="m 1440.63,49.7107 v 7.0485 q -3.16,-1.6203 -6.57,-2.4305 -3.4,-0.8102 -7.05,-0.8102 -5.55,0 -8.34,1.7014 -2.76,1.7014 -2.76,5.1041 0,2.5926 1.99,4.0915 1.98,1.4583 7.98,2.7951 l 2.55,0.5671 q 7.94,1.7014 11.26,4.8206 3.37,3.0787 3.37,8.6284 0,6.3194 -5.03,10.0057 -4.98,3.6864 -13.73,3.6864 -3.65,0 -7.62,-0.7292 -3.93,-0.6887 -8.3,-2.1065 v -7.6967 q 4.13,2.147 8.14,3.2407 4.01,1.0533 7.94,1.0533 5.27,0 8.1,-1.7824 2.84,-1.8229 2.84,-5.1042 0,-3.0381 -2.07,-4.6585 -2.02,-1.6204 -8.95,-3.1192 l -2.59,-0.6076 q -6.93,-1.4584 -10.01,-4.456 -3.08,-3.0382 -3.08,-8.3044 0,-6.4004 4.54,-9.8842 4.54,-3.4838 12.88,-3.4838 4.13,0 7.78,0.6077 3.65,0.6076 6.73,1.8229 z"
       fill="#000000"
       fill-rule="nonzero"
       fill-opacity="1"
       id="path8088" />
    <path
       clip-path="url(#clip750)"
       d="m 1483.85,49.7107 v 7.0485 q -3.16,-1.6203 -6.56,-2.4305 -3.41,-0.8102 -7.05,-0.8102 -5.55,0 -8.35,1.7014 -2.75,1.7014 -2.75,5.1041 0,2.5926 1.98,4.0915 1.99,1.4583 7.98,2.7951 l 2.56,0.5671 q 7.93,1.7014 11.26,4.8206 3.36,3.0787 3.36,8.6284 0,6.3194 -5.02,10.0057 -4.99,3.6864 -13.74,3.6864 -3.64,0 -7.61,-0.7292 -3.93,-0.6887 -8.31,-2.1065 v -7.6967 q 4.14,2.147 8.15,3.2407 4.01,1.0533 7.94,1.0533 5.26,0 8.1,-1.7824 2.83,-1.8229 2.83,-5.1042 0,-3.0381 -2.06,-4.6585 -2.03,-1.6204 -8.96,-3.1192 l -2.59,-0.6076 q -6.93,-1.4584 -10,-4.456 -3.08,-3.0382 -3.08,-8.3044 0,-6.4004 4.53,-9.8842 4.54,-3.4838 12.89,-3.4838 4.13,0 7.77,0.6077 3.65,0.6076 6.73,1.8229 z"
       fill="#000000"
       fill-rule="nonzero"
       fill-opacity="1"
       id="path8090" />
    <path
       clip-path="url(#clip750)"
       d="m 1543.07,38.6517 q -6.32,0 -9.52,6.2384 -3.16,6.1979 -3.16,18.6747 0,12.4362 3.16,18.6746 3.2,6.1979 9.52,6.1979 6.36,0 9.52,-6.1979 3.2,-6.2384 3.2,-18.6746 0,-12.4768 -3.2,-18.6747 -3.16,-6.2384 -9.52,-6.2384 m 0,-6.4814 q 10.17,0 15.52,8.0613 5.39,8.0207 5.39,23.3332 0,15.2719 -5.39,23.3332 -5.35,8.0208 -15.52,8.0208 -10.17,0 -15.55,-8.0208 -5.35,-8.0613 -5.35,-23.3332 0,-15.3125 5.35,-23.3332 5.38,-8.0613 15.55,-8.0613 z"
       fill="#000000"
       fill-rule="nonzero"
       fill-opacity="1"
       id="path8092" />
    <path
       clip-path="url(#clip750)"
       d="m 1579.21,83.4547 h 8.54 v 6.9676 l -6.64,12.9627 h -5.23 l 3.33,-12.9627 z"
       fill="#000000"
       fill-rule="nonzero"
       fill-opacity="1"
       id="path8094" />
    <path
       clip-path="url(#clip750)"
       d="m 1648.6,65.0231 q -5.83,0 -9.2,3.1192 -3.32,3.1192 -3.32,8.5879 0,5.4687 3.32,8.5879 3.37,3.1192 9.2,3.1192 5.83,0 9.19,-3.1192 3.37,-3.1597 3.37,-8.5879 0,-5.4687 -3.37,-8.5879 -3.32,-3.1192 -9.19,-3.1192 m -8.18,-3.4838 q -5.27,-1.2963 -8.23,-4.9016 -2.91,-3.6053 -2.91,-8.7904 0,-7.2512 5.14,-11.4641 5.19,-4.2129 14.18,-4.2129 9.03,0 14.18,4.2129 5.14,4.2129 5.14,11.4641 0,5.1851 -2.96,8.7904 -2.91,3.6053 -8.14,4.9016 5.92,1.3773 9.2,5.3877 3.32,4.0104 3.32,9.8032 0,8.7905 -5.39,13.4895 -5.35,4.6991 -15.35,4.6991 -10.01,0 -15.39,-4.6991 -5.35,-4.699 -5.35,-13.4895 0,-5.7928 3.32,-9.8032 3.32,-4.0104 9.24,-5.3877 m -3,-12.9224 q 0,4.6991 2.91,7.3322 2.96,2.6331 8.27,2.6331 5.26,0 8.22,-2.6331 3,-2.6331 3,-7.3322 0,-4.699 -3,-7.3321 -2.96,-2.6331 -8.22,-2.6331 -5.31,0 -8.27,2.6331 -2.91,2.6331 -2.91,7.3321 z"
       fill="#000000"
       fill-rule="nonzero"
       fill-opacity="1"
       id="path8096" />
    <path
       clip-path="url(#clip750)"
       d="m 1685.3,86.8575 h 13.37 V 40.7177 l -14.55,2.9166 v -7.4536 l 14.47,-2.9167 h 8.18 v 53.5935 h 13.37 v 6.8865 h -34.84 z"
       fill="#000000"
       fill-rule="nonzero"
       fill-opacity="1"
       id="path8098" />
    <path
       clip-path="url(#clip750)"
       d="m 1731.84,67.6967 h 21.84 v 6.6435 h -21.84 z"
       fill="#000000"
       fill-rule="nonzero"
       fill-opacity="1"
       id="path8100" />
    <path
       clip-path="url(#clip750)"
       d="m 1794.47,49.7107 v 7.0485 q -3.16,-1.6203 -6.56,-2.4305 -3.4,-0.8102 -7.05,-0.8102 -5.55,0 -8.34,1.7014 -2.76,1.7014 -2.76,5.1041 0,2.5926 1.99,4.0915 1.98,1.4583 7.98,2.7951 l 2.55,0.5671 q 7.94,1.7014 11.26,4.8206 3.36,3.0787 3.36,8.6284 0,6.3194 -5.02,10.0057 -4.98,3.6864 -13.73,3.6864 -3.65,0 -7.62,-0.7292 -3.93,-0.6887 -8.3,-2.1065 v -7.6967 q 4.13,2.147 8.14,3.2407 4.01,1.0533 7.94,1.0533 5.26,0 8.1,-1.7824 2.84,-1.8229 2.84,-5.1042 0,-3.0381 -2.07,-4.6585 -2.03,-1.6204 -8.95,-3.1192 l -2.6,-0.6076 q -6.92,-1.4584 -10,-4.456 -3.08,-3.0382 -3.08,-8.3044 0,-6.4004 4.54,-9.8842 4.53,-3.4838 12.88,-3.4838 4.13,0 7.78,0.6077 3.64,0.6076 6.72,1.8229 z"
       fill="#000000"
       fill-rule="nonzero"
       fill-opacity="1"
       id="path8102" />
    <path
       clip-path="url(#clip750)"
       d="m 1808.77,48.3739 h 7.45 V 93.744 h -7.45 V 48.3739 m 0,-17.662 h 7.45 v 9.4386 h -7.45 z"
       fill="#000000"
       fill-rule="nonzero"
       fill-opacity="1"
       id="path8104" />
    <path
       clip-path="url(#clip750)"
       d="m 1839.19,35.492 v 12.8819 h 15.36 v 5.7928 h -15.36 v 24.6295 q 0,5.5497 1.5,7.1296 1.54,1.5798 6.2,1.5798 h 7.66 v 6.2384 h -7.66 q -8.63,0 -11.91,-3.2002 -3.28,-3.2407 -3.28,-11.7476 V 54.1667 h -5.47 v -5.7928 h 5.47 V 35.492 Z"
       fill="#000000"
       fill-rule="nonzero"
       fill-opacity="1"
       id="path8106" />
    <path
       clip-path="url(#clip750)"
       d="m 1903.16,69.1955 v 3.6458 h -34.27 q 0.48,7.6968 4.61,11.7477 4.18,4.0104 11.59,4.0104 4.29,0 8.3,-1.0533 4.06,-1.0532 8.03,-3.1597 v 7.0486 q -4.01,1.7014 -8.23,2.5926 -4.21,0.8912 -8.55,0.8912 -10.85,0 -17.21,-6.3194 -6.32,-6.3195 -6.32,-17.0949 0,-11.14 5.99,-17.6619 6.04,-6.5625 16.25,-6.5625 9.15,0 14.46,5.9143 5.35,5.8739 5.35,16.0011 m -7.46,-2.1875 q -0.08,-6.1168 -3.44,-9.7626 -3.32,-3.6459 -8.83,-3.6459 -6.24,0 -10.01,3.5243 -3.72,3.5243 -4.29,9.9247 z"
       fill="#000000"
       fill-rule="nonzero"
       fill-opacity="1"
       id="path8108" />
    <path
       clip-path="url(#clip750)"
       d="m 1942.09,33.264 h 8.18 v 60.48 h -8.18 z"
       fill="#000000"
       fill-rule="nonzero"
       fill-opacity="1"
       id="path8110" />
    <path
       clip-path="url(#clip750)"
       d="m 2001.55,57.0833 q 2.8,-5.0231 6.69,-7.4131 3.89,-2.3901 9.15,-2.3901 7.09,0 10.94,4.9826 3.85,4.9421 3.85,14.0972 V 93.744 h -7.5 V 66.6029 q 0,-6.5219 -2.3,-9.6816 -2.31,-3.1597 -7.05,-3.1597 -5.8,0 -9.16,3.8483 -3.36,3.8484 -3.36,10.4919 V 93.744 h -7.49 V 66.6029 q 0,-6.5624 -2.31,-9.6816 -2.31,-3.1597 -7.13,-3.1597 -5.71,0 -9.08,3.8888 -3.36,3.8484 -3.36,10.4514 V 93.744 h -7.49 V 48.3739 h 7.49 v 7.0485 q 2.55,-4.1724 6.12,-6.1573 3.56,-1.985 8.46,-1.985 4.95,0 8.39,2.5116 3.48,2.5115 5.14,7.2916 z"
       fill="#000000"
       fill-rule="nonzero"
       fill-opacity="1"
       id="path8112" />
    <path
       clip-path="url(#clip750)"
       d="m 2054.26,86.9385 v 24.0625 h -7.5 V 48.3739 h 7.5 v 6.8865 q 2.35,-4.0509 5.91,-5.9953 3.61,-1.985 8.59,-1.985 8.26,0 13.41,6.5625 5.18,6.5625 5.18,17.2568 0,10.6944 -5.18,17.2569 -5.15,6.5625 -13.41,6.5625 -4.98,0 -8.59,-1.9445 -3.56,-1.9849 -5.91,-6.0358 m 25.35,-15.8391 q 0,-8.2233 -3.4,-12.8818 -3.36,-4.6991 -9.27,-4.6991 -5.92,0 -9.32,4.6991 -3.36,4.6585 -3.36,12.8818 0,8.2234 3.36,12.9224 3.4,4.6586 9.32,4.6586 5.91,0 9.27,-4.6586 3.4,-4.699 3.4,-12.9224 z"
       fill="#000000"
       fill-rule="nonzero"
       fill-opacity="1"
       id="path8114" />
    <path
       clip-path="url(#clip750)"
       d="M 2098.94,75.839 V 48.3739 h 7.45 v 27.1815 q 0,6.441 2.51,9.6817 2.51,3.2002 7.54,3.2002 6.03,0 9.52,-3.8483 3.52,-3.8484 3.52,-10.4919 V 48.3739 h 7.46 V 93.744 h -7.46 v -6.9676 q -2.71,4.132 -6.32,6.1574 -3.56,1.985 -8.3,1.985 -7.82,0 -11.87,-4.8611 -4.05,-4.8611 -4.05,-14.2187 m 18.75,-28.5589 z"
       fill="#000000"
       fill-rule="nonzero"
       fill-opacity="1"
       id="path8116" />
    <path
       clip-path="url(#clip750)"
       d="m 2159.66,35.492 v 12.8819 h 15.35 v 5.7928 h -15.35 v 24.6295 q 0,5.5497 1.5,7.1296 1.54,1.5798 6.2,1.5798 h 7.65 v 6.2384 h -7.65 q -8.63,0 -11.91,-3.2002 -3.28,-3.2407 -3.28,-11.7476 V 54.1667 h -5.47 v -5.7928 h 5.47 V 35.492 Z"
       fill="#000000"
       fill-rule="nonzero"
       fill-opacity="1"
       id="path8118" />
    <path
       clip-path="url(#clip750)"
       d="m 2205.44,70.9374 q -9.04,0 -12.52,2.066 -3.49,2.0659 -3.49,7.0485 0,3.9699 2.6,6.3195 2.63,2.309 7.13,2.309 6.19,0 9.92,-4.375 3.77,-4.4155 3.77,-11.7071 v -1.6609 h -7.41 m 14.86,-3.0787 V 93.744 h -7.45 v -6.8865 q -2.55,4.1319 -6.36,6.1168 -3.81,1.9445 -9.32,1.9445 -6.97,0 -11.1,-3.8889 -4.09,-3.9294 -4.09,-10.4918 0,-7.6563 5.11,-11.5451 5.14,-3.8889 15.31,-3.8889 h 10.45 v -0.7292 q 0,-5.1446 -3.4,-7.9397 -3.37,-2.8357 -9.48,-2.8357 -3.89,0 -7.58,0.9317 -3.68,0.9318 -7.09,2.7952 v -6.8866 q 4.09,-1.5798 7.94,-2.3495 3.85,-0.8102 7.5,-0.8102 9.84,0 14.7,5.1042 4.86,5.1041 4.86,15.4744 z"
       fill="#000000"
       fill-rule="nonzero"
       fill-opacity="1"
       id="path8120" />
    <path
       clip-path="url(#clip750)"
       d="m 2243.03,35.492 v 12.8819 h 15.35 v 5.7928 h -15.35 v 24.6295 q 0,5.5497 1.5,7.1296 1.54,1.5798 6.19,1.5798 h 7.66 v 6.2384 h -7.66 q -8.62,0 -11.9,-3.2002 -3.29,-3.2407 -3.29,-11.7476 V 54.1667 h -5.46 v -5.7928 h 5.46 V 35.492 Z"
       fill="#000000"
       fill-rule="nonzero"
       fill-opacity="1"
       id="path8122" />
    <path
       clip-path="url(#clip750)"
       d="m 2268.18,48.3739 h 7.46 V 93.744 h -7.46 V 48.3739 m 0,-17.662 h 7.46 v 9.4386 h -7.46 z"
       fill="#000000"
       fill-rule="nonzero"
       fill-opacity="1"
       id="path8124" />
    <path
       clip-path="url(#clip750)"
       d="m 2308.81,53.5995 q -5.99,0 -9.47,4.6991 -3.49,4.6585 -3.49,12.8008 0,8.1424 3.45,12.8414 3.48,4.6586 9.51,4.6586 5.96,0 9.44,-4.6991 3.49,-4.699 3.49,-12.8009 0,-8.0613 -3.49,-12.7603 -3.48,-4.7396 -9.44,-4.7396 m 0,-6.3194 q 9.73,0 15.28,6.3194 5.55,6.3194 5.55,17.4999 0,11.14 -5.55,17.5 -5.55,6.3194 -15.28,6.3194 -9.76,0 -15.31,-6.3194 -5.51,-6.36 -5.51,-17.5 0,-11.1805 5.51,-17.4999 5.55,-6.3194 15.31,-6.3194 z"
       fill="#000000"
       fill-rule="nonzero"
       fill-opacity="1"
       id="path8126" />
    <path
       clip-path="url(#clip750)"
       d="M 2379.71,66.3599 V 93.744 h -7.46 V 66.6029 q 0,-6.4409 -2.51,-9.6411 -2.51,-3.2002 -7.53,-3.2002 -6.04,0 -9.52,3.8483 -3.49,3.8484 -3.49,10.4919 V 93.744 h -7.49 V 48.3739 h 7.49 v 7.0485 q 2.68,-4.0914 6.28,-6.1168 3.65,-2.0255 8.39,-2.0255 7.81,0 11.83,4.8611 4.01,4.8206 4.01,14.2187 z"
       fill="#000000"
       fill-rule="nonzero"
       fill-opacity="1"
       id="path8128" />
    <path
       clip-path="url(#clip750)"
       d="m 2396.48,83.4547 h 8.54 v 6.9676 l -6.64,12.9627 h -5.23 l 3.33,-12.9627 z"
       fill="#000000"
       fill-rule="nonzero"
       fill-opacity="1"
       id="path8130" />
  </g>
  <g
     id="g8461"
     transform="translate(-174.57)">
    <path
       clip-path="url(#clip750)"
       d="m 1081.76,145.98 v -24.548 h 7.45 v 63.032 h -7.45 v -6.806 q -2.35,4.051 -5.96,6.036 -3.56,1.945 -8.59,1.945 -8.22,0 -13.41,-6.563 -5.14,-6.562 -5.14,-17.257 0,-10.694 5.14,-17.256 5.19,-6.563 13.41,-6.563 5.03,0 8.59,1.985 3.61,1.945 5.96,5.995 m -25.4,15.839 q 0,8.224 3.36,12.923 3.4,4.658 9.32,4.658 5.91,0 9.31,-4.658 3.41,-4.699 3.41,-12.923 0,-8.223 -3.41,-12.881 -3.4,-4.699 -9.31,-4.699 -5.92,0 -9.32,4.699 -3.36,4.658 -3.36,12.881 z"
       fill="#000000"
       fill-rule="nonzero"
       fill-opacity="1"
       id="path8132" />
    <path
       clip-path="url(#clip750)"
       d="m 1131.91,146.791 h 51.93 v 6.805 h -51.93 v -6.805 m 0,16.527 h 51.93 v 6.887 h -51.93 z"
       fill="#000000"
       fill-rule="nonzero"
       fill-opacity="1"
       id="path8134" />
    <path
       clip-path="url(#clip750)"
       d="m 1229.29,177.577 h 13.37 v -46.139 l -14.55,2.916 v -7.453 l 14.47,-2.917 h 8.18 v 53.593 h 13.37 v 6.887 h -34.84 z"
       fill="#000000"
       fill-rule="nonzero"
       fill-opacity="1"
       id="path8136" />
    <path
       clip-path="url(#clip750)"
       d="m 1298.15,129.372 q -6.31,0 -9.51,6.238 -3.16,6.198 -3.16,18.675 0,12.436 3.16,18.674 3.2,6.198 9.51,6.198 6.36,0 9.52,-6.198 3.2,-6.238 3.2,-18.674 0,-12.477 -3.2,-18.675 -3.16,-6.238 -9.52,-6.238 m 0,-6.482 q 10.17,0 15.52,8.062 5.39,8.02 5.39,23.333 0,15.272 -5.39,23.333 -5.35,8.021 -15.52,8.021 -10.16,0 -15.55,-8.021 -5.35,-8.061 -5.35,-23.333 0,-15.313 5.35,-23.333 5.39,-8.062 15.55,-8.062 z"
       fill="#000000"
       fill-rule="nonzero"
       fill-opacity="1"
       id="path8138" />
    <path
       clip-path="url(#clip750)"
       d="m 1334.29,174.175 h 8.55 v 6.967 l -6.65,12.963 h -5.22 l 3.32,-12.963 z"
       fill="#000000"
       fill-rule="nonzero"
       fill-opacity="1"
       id="path8140" />
    <path
       clip-path="url(#clip750)"
       d="m 1406.96,194.591 -6.03,-15.515 -12.44,22.685 h -8.79 l 17.58,-32.083 -7.37,-19.08 q -1.99,-5.104 -8.23,-5.104 h -1.98 v -6.4 l 2.84,0.081 q 10.45,0.283 13.08,7.048 l 5.99,15.515 12.44,-22.685 h 8.79 l -17.58,32.084 7.37,19.079 q 1.99,5.104 8.23,5.104 h 1.98 v 6.401 l -2.83,-0.081 q -10.46,-0.284 -13.05,-7.049 z"
       fill="#000000"
       fill-rule="nonzero"
       fill-opacity="1"
       id="path8142" />
    <path
       clip-path="url(#clip750)"
       d="m 1460.39,146.791 h 51.94 v 6.805 h -51.94 v -6.805 m 0,16.527 h 51.94 v 6.887 h -51.94 z"
       fill="#000000"
       fill-rule="nonzero"
       fill-opacity="1"
       id="path8144" />
    <path
       clip-path="url(#clip750)"
       d="m 1578.84,131.114 -20.66,32.285 h 20.66 v -32.285 m -2.14,-7.13 h 10.28 v 39.415 h 8.63 v 6.806 h -8.63 v 14.259 h -8.14 v -14.259 h -27.3 v -7.899 z"
       fill="#000000"
       fill-rule="nonzero"
       fill-opacity="1"
       id="path8146" />
    <path
       clip-path="url(#clip750)"
       d="m 1626.64,129.372 q -6.32,0 -9.52,6.238 -3.16,6.198 -3.16,18.675 0,12.436 3.16,18.674 3.2,6.198 9.52,6.198 6.36,0 9.52,-6.198 3.2,-6.238 3.2,-18.674 0,-12.477 -3.2,-18.675 -3.16,-6.238 -9.52,-6.238 m 0,-6.482 q 10.17,0 15.52,8.062 5.39,8.02 5.39,23.333 0,15.272 -5.39,23.333 -5.35,8.021 -15.52,8.021 -10.17,0 -15.55,-8.021 -5.35,-8.061 -5.35,-23.333 0,-15.313 5.35,-23.333 5.38,-8.062 15.55,-8.062 z"
       fill="#000000"
       fill-rule="nonzero"
       fill-opacity="1"
       id="path8148" />
    <path
       clip-path="url(#clip750)"
       d="m 1662.78,174.175 h 8.54 v 6.967 l -6.64,12.963 h -5.23 l 3.33,-12.963 z"
       fill="#000000"
       fill-rule="nonzero"
       fill-opacity="1"
       id="path8150" />
    <path
       clip-path="url(#clip750)"
       d="m 1713.94,123.984 h 8.18 v 53.593 h 29.45 v 6.887 h -37.63 z"
       fill="#000000"
       fill-rule="nonzero"
       fill-opacity="1"
       id="path8152" />
    <path
       clip-path="url(#clip750)"
       d="m 1797.19,159.916 v 3.645 h -34.27 q 0.48,7.697 4.61,11.748 4.18,4.01 11.59,4.01 4.29,0 8.3,-1.053 4.05,-1.053 8.02,-3.16 v 7.049 q -4.01,1.701 -8.22,2.593 -4.21,0.891 -8.55,0.891 -10.85,0 -17.21,-6.32 -6.32,-6.319 -6.32,-17.094 0,-11.14 5.99,-17.662 6.04,-6.563 16.25,-6.563 9.15,0 14.46,5.914 5.35,5.874 5.35,16.002 m -7.46,-2.188 q -0.08,-6.117 -3.44,-9.763 -3.32,-3.645 -8.83,-3.645 -6.24,0 -10.01,3.524 -3.72,3.524 -4.29,9.925 z"
       fill="#000000"
       fill-rule="nonzero"
       fill-opacity="1"
       id="path8154" />
    <path
       clip-path="url(#clip750)"
       d="m 1839.27,161.252 q 0,-8.101 -3.36,-12.557 -3.32,-4.456 -9.36,-4.456 -5.99,0 -9.35,4.456 -3.32,4.456 -3.32,12.557 0,8.062 3.32,12.518 3.36,4.456 9.35,4.456 6.04,0 9.36,-4.456 3.36,-4.456 3.36,-12.518 m 7.46,17.581 q 0,11.586 -5.15,17.217 -5.14,5.671 -15.75,5.671 -3.93,0 -7.42,-0.608 -3.48,-0.567 -6.76,-1.782 v -7.251 q 3.28,1.782 6.48,2.633 3.2,0.85 6.52,0.85 7.33,0 10.98,-3.848 3.64,-3.808 3.64,-11.545 v -3.686 q -2.3,4.01 -5.91,5.995 -3.61,1.985 -8.63,1.985 -8.34,0 -13.45,-6.36 -5.1,-6.36 -5.1,-16.852 0,-10.532 5.1,-16.892 5.11,-6.36 13.45,-6.36 5.02,0 8.63,1.985 3.61,1.985 5.91,5.995 v -6.886 h 7.46 z"
       fill="#000000"
       fill-rule="nonzero"
       fill-opacity="1"
       id="path8156" />
    <path
       clip-path="url(#clip750)"
       d="m 1900.89,159.916 v 3.645 h -34.27 q 0.48,7.697 4.62,11.748 4.17,4.01 11.58,4.01 4.3,0 8.31,-1.053 4.05,-1.053 8.02,-3.16 v 7.049 q -4.01,1.701 -8.23,2.593 -4.21,0.891 -8.54,0.891 -10.86,0 -17.22,-6.32 -6.32,-6.319 -6.32,-17.094 0,-11.14 6,-17.662 6.03,-6.563 16.24,-6.563 9.15,0 14.46,5.914 5.35,5.874 5.35,16.002 m -7.45,-2.188 q -0.09,-6.117 -3.45,-9.763 -3.32,-3.645 -8.83,-3.645 -6.24,0 -10,3.524 -3.73,3.524 -4.3,9.925 z"
       fill="#000000"
       fill-rule="nonzero"
       fill-opacity="1"
       id="path8158" />
    <path
       clip-path="url(#clip750)"
       d="m 1950.84,157.08 v 27.384 h -7.46 v -27.141 q 0,-6.441 -2.51,-9.641 -2.51,-3.2 -7.53,-3.2 -6.04,0 -9.52,3.848 -3.49,3.848 -3.49,10.492 v 25.642 h -7.49 v -45.37 h 7.49 v 7.048 q 2.68,-4.091 6.28,-6.116 3.65,-2.026 8.39,-2.026 7.82,0 11.83,4.861 4.01,4.821 4.01,14.219 z"
       fill="#000000"
       fill-rule="nonzero"
       fill-opacity="1"
       id="path8160" />
    <path
       clip-path="url(#clip750)"
       d="m 1995.56,145.98 v -24.548 h 7.45 v 63.032 h -7.45 v -6.806 q -2.35,4.051 -5.96,6.036 -3.56,1.945 -8.58,1.945 -8.23,0 -13.41,-6.563 -5.15,-6.562 -5.15,-17.257 0,-10.694 5.15,-17.256 5.18,-6.563 13.41,-6.563 5.02,0 8.58,1.985 3.61,1.945 5.96,5.995 m -25.4,15.839 q 0,8.224 3.36,12.923 3.4,4.658 9.32,4.658 5.91,0 9.32,-4.658 3.4,-4.699 3.4,-12.923 0,-8.223 -3.4,-12.881 -3.41,-4.699 -9.32,-4.699 -5.92,0 -9.32,4.699 -3.36,4.658 -3.36,12.881 z"
       fill="#000000"
       fill-rule="nonzero"
       fill-opacity="1"
       id="path8162" />
    <path
       clip-path="url(#clip750)"
       d="m 2044.66,146.061 q -1.26,-0.729 -2.76,-1.053 -1.46,-0.364 -3.24,-0.364 -6.32,0 -9.72,4.132 -3.36,4.091 -3.36,11.788 v 23.9 h -7.5 v -45.37 h 7.5 v 7.048 q 2.35,-4.131 6.11,-6.116 3.77,-2.026 9.16,-2.026 0.77,0 1.7,0.122 0.93,0.081 2.06,0.283 z"
       fill="#000000"
       fill-rule="nonzero"
       fill-opacity="1"
       id="path8164" />
    <path
       clip-path="url(#clip750)"
       d="m 2089.46,159.916 v 3.645 h -34.27 q 0.48,7.697 4.62,11.748 4.17,4.01 11.58,4.01 4.3,0 8.31,-1.053 4.05,-1.053 8.02,-3.16 v 7.049 q -4.01,1.701 -8.23,2.593 -4.21,0.891 -8.54,0.891 -10.86,0 -17.22,-6.32 -6.32,-6.319 -6.32,-17.094 0,-11.14 6,-17.662 6.03,-6.563 16.24,-6.563 9.15,0 14.46,5.914 5.35,5.874 5.35,16.002 m -7.46,-2.188 q -0.08,-6.117 -3.44,-9.763 -3.32,-3.645 -8.83,-3.645 -6.24,0 -10.01,3.524 -3.72,3.524 -4.29,9.925 z"
       fill="#000000"
       fill-rule="nonzero"
       fill-opacity="1"
       id="path8166" />
    <path
       clip-path="url(#clip750)"
       d="m 2166.87,159.916 v 3.645 h -34.27 q 0.49,7.697 4.62,11.748 4.17,4.01 11.58,4.01 4.3,0 8.31,-1.053 4.05,-1.053 8.02,-3.16 v 7.049 q -4.01,1.701 -8.22,2.593 -4.22,0.891 -8.55,0.891 -10.86,0 -17.22,-6.32 -6.32,-6.319 -6.32,-17.094 0,-11.14 6,-17.662 6.03,-6.563 16.24,-6.563 9.16,0 14.46,5.914 5.35,5.874 5.35,16.002 m -7.45,-2.188 q -0.08,-6.117 -3.45,-9.763 -3.32,-3.645 -8.83,-3.645 -6.24,0 -10,3.524 -3.73,3.524 -4.3,9.925 z"
       fill="#000000"
       fill-rule="nonzero"
       fill-opacity="1"
       id="path8168" />
    <path
       clip-path="url(#clip750)"
       d="m 2216.82,157.08 v 27.384 h -7.45 v -27.141 q 0,-6.441 -2.52,-9.641 -2.51,-3.2 -7.53,-3.2 -6.04,0 -9.52,3.848 -3.48,3.848 -3.48,10.492 v 25.642 h -7.5 v -45.37 h 7.5 v 7.048 q 2.67,-4.091 6.27,-6.116 3.65,-2.026 8.39,-2.026 7.82,0 11.83,4.861 4.01,4.821 4.01,14.219 z"
       fill="#000000"
       fill-rule="nonzero"
       fill-opacity="1"
       id="path8170" />
    <path
       clip-path="url(#clip750)"
       d="m 2264.34,140.836 v 6.967 q -3.16,-1.742 -6.36,-2.592 -3.16,-0.891 -6.4,-0.891 -7.26,0 -11.27,4.618 -4.01,4.577 -4.01,12.881 0,8.305 4.01,12.923 4.01,4.577 11.27,4.577 3.24,0 6.4,-0.85 3.2,-0.892 6.36,-2.633 v 6.886 q -3.12,1.458 -6.49,2.188 -3.32,0.729 -7.08,0.729 -10.25,0 -16.29,-6.441 -6.04,-6.441 -6.04,-17.379 0,-11.099 6.08,-17.459 6.12,-6.36 16.73,-6.36 3.44,0 6.73,0.729 3.28,0.689 6.36,2.107 z"
       fill="#000000"
       fill-rule="nonzero"
       fill-opacity="1"
       id="path8172" />
    <path
       clip-path="url(#clip750)"
       d="m 2294.88,144.32 q -6,0 -9.48,4.699 -3.48,4.658 -3.48,12.8 0,8.143 3.44,12.842 3.48,4.658 9.52,4.658 5.95,0 9.44,-4.699 3.48,-4.699 3.48,-12.801 0,-8.061 -3.48,-12.76 -3.49,-4.739 -9.44,-4.739 m 0,-6.32 q 9.72,0 15.27,6.32 5.55,6.319 5.55,17.499 0,11.14 -5.55,17.5 -5.55,6.32 -15.27,6.32 -9.76,0 -15.31,-6.32 -5.51,-6.36 -5.51,-17.5 0,-11.18 5.51,-17.499 5.55,-6.32 15.31,-6.32 z"
       fill="#000000"
       fill-rule="nonzero"
       fill-opacity="1"
       id="path8174" />
    <path
       clip-path="url(#clip750)"
       d="m 2357.91,145.98 v -24.548 h 7.46 v 63.032 h -7.46 v -6.806 q -2.35,4.051 -5.95,6.036 -3.57,1.945 -8.59,1.945 -8.22,0 -13.41,-6.563 -5.14,-6.562 -5.14,-17.257 0,-10.694 5.14,-17.256 5.19,-6.563 13.41,-6.563 5.02,0 8.59,1.985 3.6,1.945 5.95,5.995 m -25.4,15.839 q 0,8.224 3.36,12.923 3.41,4.658 9.32,4.658 5.92,0 9.32,-4.658 3.4,-4.699 3.4,-12.923 0,-8.223 -3.4,-12.881 -3.4,-4.699 -9.32,-4.699 -5.91,0 -9.32,4.699 -3.36,4.658 -3.36,12.881 z"
       fill="#000000"
       fill-rule="nonzero"
       fill-opacity="1"
       id="path8176" />
    <path
       clip-path="url(#clip750)"
       d="m 2380.72,139.094 h 7.45 v 45.37 h -7.45 v -45.37 m 0,-17.662 h 7.45 v 9.439 h -7.45 z"
       fill="#000000"
       fill-rule="nonzero"
       fill-opacity="1"
       id="path8178" />
    <path
       clip-path="url(#clip750)"
       d="m 2441.48,157.08 v 27.384 h -7.45 v -27.141 q 0,-6.441 -2.51,-9.641 -2.51,-3.2 -7.54,-3.2 -6.03,0 -9.52,3.848 -3.48,3.848 -3.48,10.492 v 25.642 h -7.5 v -45.37 h 7.5 v 7.048 q 2.67,-4.091 6.28,-6.116 3.64,-2.026 8.38,-2.026 7.82,0 11.83,4.861 4.01,4.821 4.01,14.219 z"
       fill="#000000"
       fill-rule="nonzero"
       fill-opacity="1"
       id="path8180" />
    <path
       clip-path="url(#clip750)"
       d="m 2486.2,161.252 q 0,-8.101 -3.36,-12.557 -3.32,-4.456 -9.36,-4.456 -5.99,0 -9.35,4.456 -3.33,4.456 -3.33,12.557 0,8.062 3.33,12.518 3.36,4.456 9.35,4.456 6.04,0 9.36,-4.456 3.36,-4.456 3.36,-12.518 m 7.46,17.581 q 0,11.586 -5.15,17.217 -5.14,5.671 -15.75,5.671 -3.93,0 -7.42,-0.608 -3.48,-0.567 -6.76,-1.782 v -7.251 q 3.28,1.782 6.48,2.633 3.2,0.85 6.52,0.85 7.33,0 10.98,-3.848 3.64,-3.808 3.64,-11.545 v -3.686 q -2.3,4.01 -5.91,5.995 -3.61,1.985 -8.63,1.985 -8.34,0 -13.45,-6.36 -5.1,-6.36 -5.1,-16.852 0,-10.532 5.1,-16.892 5.11,-6.36 13.45,-6.36 5.02,0 8.63,1.985 3.61,1.985 5.91,5.995 v -6.886 h 7.46 z"
       fill="#000000"
       fill-rule="nonzero"
       fill-opacity="1"
       id="path8182" />
  </g>
  <path
     clip-path="url(#clip752)"
     d="m 318.773,1183.04 26.099,34.88 26.098,-66.55 26.098,64.68 26.099,-1.22 26.098,219.99 26.098,53.16 26.099,-3.19 26.098,134.95 26.098,73.83 26.099,38.99 26.098,-5.07 26.098,-25.05 26.099,-39.85 26.098,-76.82 26.098,-107.46 26.099,-65.9 26.098,-138.41 26.098,-74.7 26.099,-67.87 26.098,-73.49 26.099,-11.92 26.098,-17.38 26.098,57.22 26.099,69.57 26.098,57.02 26.098,73.75 26.1,104.54 26.1,77.09 26.1,45.78 26.09,29.77 26.1,22.03 26.1,-37.24 26.1,-49.03 26.1,-51.16 26.1,-132.63 26.09,-88.36 26.1,-101.1 26.1,-110.783 26.1,-67.626 26.1,-42.637 26.1,-32.838 26.09,-1.427 26.1,49.369 26.1,46.349 26.1,55.063 26.1,147.16 26.1,64.99 26.09,56.28 26.1,78.84 26.1,34.14 26.1,-7.85 26.1,-25.94 26.1,-66.68 26.09,-65.77 26.1,-76.38 26.1,-140.842 26.1,-84.687 26.1,-117.727 26.1,-92.448 26.09,-31.406 26.1,-12.774 26.1,-6.411 26.1,28.746 26.1,35.492 26.1,128.921 26.09,69.419 26.1,72.015 26.1,101.032 26.1,69.48 26.1,34.11 26.1,-2.37 26.09,-25.35 26.1,-60.93 26.1,-91.25 26.1,-71.555 26.1,-115.455 26.1,-118.808 26.09,-68.146 26.1,-141.375 26.1,-29.777 26.1,-26.152 26.1,0.363 26.1,19.616 26.09,101.631 26.1,79.837 26.1,79.319 26.1,133.229 26.1,63.524 26.1,43.959 26.09,4.743 26.1,-70.072 26.1,-5.571 26.1,-85.42 26.1,-61.889 26.1,-147.795 26.09,-79.496 26.1,-80.406 26.1,-108.141 26.1,-49.276 v 0 l -26.1,49.276 -26.1,108.141 -26.1,80.406 -26.09,79.496 -26.1,147.795 -26.1,61.889 -26.1,85.42 -26.1,5.571 -26.1,70.072 -26.09,-143.517 -26.1,-44.077 -26.1,-71.464 -26.1,-118.969 -26.1,-72.241 -26.1,-80.528 -26.09,-74.268 -26.1,-16.461 -26.1,-0.155 -26.1,21.319 -26.1,20.11 -26.1,125.494 -26.09,66.498 -26.1,97.14 -26.1,126.384 -26.1,61.532 -26.1,85.52 -26.1,69.22 -26.09,30.75 -26.1,2.64 -26.1,-40.99 -26.1,-77.582 -26.1,-89.196 -26.1,-70.224 -26.09,-77.308 -26.1,-111.193 -26.1,-28.894 -26.1,-28.564 -26.1,7.571 -26.1,12.601 -26.09,27.975 -26.1,74.13 -26.1,122.905 -26.1,78.957 -26.1,135.178 -26.1,88.984 -26.09,60.24 -26.1,64.34 -26.1,28.61 -26.1,9.07 -26.1,-38.37 -26.1,-74.26 -26.09,-52.3 -26.1,-75.871 -26.1,-144.223 -26.1,-47.643 -26.1,-49.974 -26.1,-54.03 -26.09,1.853 -26.1,35.692 -26.1,48.679 -26.1,60.63 -26.1,100.85 -26.1,115.717 -26.09,81.66 -26.1,147.71 -26.1,58.28 -26.1,46.08 -26.1,36.47 -26.1,-21.64 -26.09,-29.96 -26.1,-43.63 -26.1,-94.16 -26.1,-111.75 -26.098,-62.62 -26.098,-65.88 -26.099,-75.432 -26.098,-52.39 -26.098,14.892 -26.099,10.873 -26.098,74.79 -26.099,79.717 -26.098,68.91 -26.098,144.52 -26.099,78.07 -26.098,105.73 -26.098,105.46 -26.099,42.14 -26.098,25.36 -26.098,5.46 -26.099,-39.03 -26.098,23.7 -26.098,-134.95 -26.099,3.19 -26.098,-53.16 -26.098,-219.99 -26.099,1.22 -26.098,-64.68 -26.098,66.55 z"
     fill="#009af9"
     fill-rule="evenodd"
     fill-opacity="0.5"
     id="path8184" />
  <polyline
     clip-path="url(#clip752)"
     style="fill:none;stroke:#009af9;stroke-width:8;stroke-linecap:round;stroke-linejoin:round;stroke-opacity:0.8"
     stroke-dasharray="4, 8"
     points="318.773,1183.04 344.872,1217.92 370.97,1151.37 397.068,1216.05 423.167,1214.83 449.265,1434.82 475.363,1487.98 501.462,1484.79 527.56,1619.74 553.658,1644.8 579.757,1683.81 605.855,1678.55 631.953,1653.35 658.052,1612.35 684.15,1521.21 710.248,1414.61 736.347,1342.63 762.445,1201.17 788.543,1129.36 814.642,1055.56 840.74,981.425 866.839,970.032 892.937,953.892 919.035,1008.7 945.134,1081.2 971.232,1142.65 997.33,1210.84 1023.43,1318.98 1049.53,1404.6 1075.63,1449.31 1101.72,1479.17 1127.82,1501.01 1153.92,1464.16 1180.02,1416.6 1206.12,1361.88 1232.22,1221.71 1258.31,1136.7 1284.41,1028.29 1310.51,922.475 1336.61,858.347 1362.71,812.689 1388.81,778.424 1414.9,776.784 1441,828.484 1467.1,876.645 1493.2,927.999 1519.3,1073.69 1545.4,1144.12 1571.49,1198.41 1597.59,1274.96 1623.69,1311.21 1649.79,1302.76 1675.89,1275.48 1701.99,1209.97 1728.08,1146.97 1754.18,1064.28 1780.28,926.273 1806.38,844.451 1832.48,724.135 1858.58,640.846 1884.67,611.156 1910.77,598.468 1936.87,591.477 1962.97,620.132 1989.07,652.325 2015.17,772.382 2041.26,845.746 2067.36,916.865 2093.46,1011.98 2119.56,1085.51 2145.66,1123.06 2171.76,1120.56 2197.85,1092.51 2223.95,1027.43 2250.05,939.047 2276.15,872.502 2302.25,751.582 2328.35,643.608 2354.44,576.286 2380.54,442.851 2406.64,417.908 2432.74,394.173 2458.84,394.431 2484.94,412.47 2511.03,500.42 2537.13,580.602 2563.23,656.382 2589.33,782.481 2615.43,849.975 2641.53,893.993 2667.62,968.123 2693.72,898.051 2719.82,892.48 2745.92,807.06 2772.02,745.171 2798.12,597.376 2824.21,517.88 2850.31,437.474 2876.41,329.333 2902.51,280.057 "
     id="polyline8186" />
  <polyline
     clip-path="url(#clip752)"
     style="fill:none;stroke:#ffa500;stroke-width:8;stroke-linecap:round;stroke-linejoin:round;stroke-opacity:0.7"
     points="318.773,1183.04 344.872,1217.92 370.97,1151.37 397.068,1216.05 423.167,1214.83 449.265,1434.82 475.363,1487.98 501.462,1484.79 527.56,1619.74 553.658,1658.07 579.757,1706.32 605.855,1656.46 631.953,1660.01 658.052,1588.66 684.15,1540.15 710.248,1438.72 736.347,1349.42 762.445,1246.51 788.543,1090.67 814.642,1033.27 840.74,1009.66 866.839,944.985 892.937,970.485 919.035,1063.63 945.134,1090.04 971.232,1136.52 997.33,1188.86 1023.43,1382.8 1049.53,1398.46 1075.63,1533.14 1101.72,1503.05 1127.82,1524.49 1153.92,1467.49 1180.02,1415.71 1206.12,1398.37 1232.22,1201.05 1258.31,1185.46 1284.41,1010.63 1310.51,890.85 1336.61,832.714 1362.71,779.717 1388.81,798.809 1414.9,794.457 1441,842.808 1467.1,894.167 1493.2,1023.5 1519.3,1056.69 1545.4,1139.62 1571.49,1262.49 1597.59,1296.41 1623.69,1330.82 1649.79,1327.69 1675.89,1286.05 1701.99,1210.85 1728.08,1131.85 1754.18,1035.75 1780.28,934.573 1806.38,850.98 1832.48,664.26 1858.58,613.572 1884.67,626.525 1910.77,544.773 1936.87,620.229 1962.97,600.361 1989.07,708.706 2015.17,764.977 2041.26,857.403 2067.36,960.302 2093.46,1036.94 2119.56,1047.75 2145.66,1143.26 2171.76,1130.39 2197.85,1068.62 2223.95,1007.85 2250.05,944.637 2276.15,851.33 2302.25,743.049 2328.35,690.739 2354.44,489.961 2380.54,413.456 2406.64,406.688 2432.74,435.196 2458.84,380.907 2484.94,431.823 2511.03,555.183 2537.13,652.455 2563.23,644.57 2589.33,802.093 2615.43,854.397 2641.53,893.724 2667.62,968.123 2693.72,898.051 2719.82,892.48 2745.92,807.06 2772.02,745.171 2798.12,597.376 2824.21,517.88 2850.31,437.474 2876.41,329.333 2902.51,280.057 "
     id="polyline8188" />
  <polyline
     clip-path="url(#clip752)"
     style="fill:none;stroke:#ff0000;stroke-width:8;stroke-linecap:round;stroke-linejoin:round;stroke-opacity:0.7"
     stroke-dasharray="4, 8"
     points="318.773,1173.03 344.872,1184.17 370.97,1136.08 397.068,1198.21 423.167,1279.6 449.265,1372.93 475.363,1486.23 501.462,1536.81 527.56,1646.82 553.658,1680.77 579.757,1604.66 605.855,1702.16 631.953,1679.69 658.052,1625.85 684.15,1506.18 710.248,1389.28 736.347,1242.07 762.445,1241.07 788.543,1134.75 814.642,1087.92 840.74,975.351 866.839,1025.73 892.937,945.126 919.035,998.544 945.134,1036 971.232,1164.75 997.33,1271.73 1023.43,1332.84 1049.53,1430.15 1075.63,1506.89 1101.72,1523.64 1127.82,1533.33 1153.92,1478.19 1180.02,1388.29 1206.12,1356.48 1232.22,1191.95 1258.31,1104.37 1284.41,997.213 1310.51,923.192 1336.61,849.144 1362.71,824.1 1388.81,764.86 1414.9,818.662 1441,795.652 1467.1,852.573 1493.2,964.243 1519.3,1080.09 1545.4,1221.98 1571.49,1173.77 1597.59,1341.52 1623.69,1259.78 1649.79,1313.37 1675.89,1265.64 1701.99,1230.73 1728.08,1192.89 1754.18,1034.37 1780.28,897.618 1806.38,810.519 1832.48,720.486 1858.58,621.346 1884.67,597.166 1910.77,602.261 1936.87,598.198 1962.97,625.531 1989.07,680.002 2015.17,810.674 2041.26,891.659 2067.36,949.019 2093.46,1035.72 2119.56,1134.69 2145.66,1121.51 2171.76,1027.71 2197.85,1117.6 2223.95,983.007 2250.05,925.885 2276.15,844.801 2302.25,757.079 2328.35,628.751 2354.44,573.261 2380.54,518.277 2406.64,413.186 2432.74,386.941 2458.84,373.955 2484.94,408.042 2511.03,519.313 2537.13,568.258 2563.23,681.484 2589.33,743.873 2615.43,898.986 2641.53,856.251 2667.62,968.071 2693.72,894.855 2719.82,899.722 2745.92,855.298 2772.02,734.127 2798.12,633.73 2824.21,527.885 2850.31,387.177 2876.41,378.869 2902.51,260.855 "
     id="polyline8190" />
  <path
     clip-path="url(#clip750)"
     d="m 3103.74,476.064 h 849.02 v -207.36 h -849.02 z"
     fill="#ffffff"
     fill-rule="evenodd"
     fill-opacity="1"
     id="path8192"
     transform="translate(-2807.684)" />
  <polyline
     clip-path="url(#clip750)"
     style="fill:none;stroke:#000000;stroke-width:4;stroke-linecap:round;stroke-linejoin:round;stroke-opacity:1"
     points="3103.74,476.064 3952.76,476.064 3952.76,268.704 3103.74,268.704 3103.74,476.064 "
     id="polyline8194"
     transform="translate(-2807.684)" />
  <polyline
     clip-path="url(#clip750)"
     style="fill:none;stroke:#009af9;stroke-width:8;stroke-linecap:round;stroke-linejoin:round;stroke-opacity:0.8"
     stroke-dasharray="4, 8"
     points="3144.98,320.544 3392.41,320.544 "
     id="polyline8196"
     transform="translate(-2807.684)" />
  <path
     clip-path="url(#clip750)"
     d="m 3433.65,303.264 h 6.97 l 8.82,23.519 8.86,-23.519 h 6.97 v 34.56 h -4.56 v -30.347 l -8.91,23.704 h -4.7 l -8.91,-23.704 v 30.347 h -4.54 z"
     fill="#000000"
     fill-rule="nonzero"
     fill-opacity="1"
     id="path8198"
     transform="translate(-2807.684)" />
  <path
     clip-path="url(#clip750)"
     d="m 3479.23,307.107 v 12.986 h 5.88 q 3.26,0 5.04,-1.69 1.79,-1.69 1.79,-4.815 0,-3.101 -1.79,-4.791 -1.78,-1.69 -5.04,-1.69 h -5.88 m -4.68,-3.843 h 10.56 q 5.81,0 8.77,2.639 2.99,2.616 2.99,7.685 0,5.116 -2.99,7.732 -2.96,2.616 -8.77,2.616 h -5.88 v 13.888 h -4.68 z"
     fill="#000000"
     fill-rule="nonzero"
     fill-opacity="1"
     id="path8200"
     transform="translate(-2807.684)" />
  <path
     clip-path="url(#clip750)"
     d="m 3523.86,304.399 v 4.56 q -2.66,-1.273 -5.03,-1.898 -2.36,-0.625 -4.56,-0.625 -3.82,0 -5.9,1.481 -2.06,1.482 -2.06,4.213 0,2.292 1.37,3.472 1.39,1.158 5.23,1.875 l 2.82,0.579 q 5.23,0.995 7.71,3.518 2.5,2.5 2.5,6.713 0,5.024 -3.38,7.616 -3.36,2.593 -9.86,2.593 -2.45,0 -5.23,-0.556 -2.76,-0.555 -5.72,-1.643 v -4.815 q 2.85,1.597 5.58,2.407 2.73,0.81 5.37,0.81 4,0 6.18,-1.574 2.18,-1.574 2.18,-4.49 0,-2.547 -1.58,-3.982 -1.55,-1.435 -5.11,-2.153 l -2.85,-0.555 q -5.23,-1.042 -7.57,-3.264 -2.34,-2.222 -2.34,-6.181 0,-4.583 3.22,-7.222 3.24,-2.639 8.91,-2.639 2.43,0 4.96,0.44 2.52,0.44 5.16,1.32 z"
     fill="#000000"
     fill-rule="nonzero"
     fill-opacity="1"
     id="path8202"
     transform="translate(-2807.684)" />
  <path
     clip-path="url(#clip750)"
     d="m 3548.12,311.899 h 4.26 v 25.925 h -4.26 v -25.925 m 0,-10.093 h 4.26 v 5.394 h -4.26 z"
     fill="#000000"
     fill-rule="nonzero"
     fill-opacity="1"
     id="path8204"
     transform="translate(-2807.684)" />
  <path
     clip-path="url(#clip750)"
     d="m 3581.47,316.875 q 1.6,-2.87 3.82,-4.236 2.22,-1.365 5.23,-1.365 4.05,0 6.25,2.847 2.2,2.824 2.2,8.055 v 15.648 h -4.28 v -15.509 q 0,-3.727 -1.32,-5.532 -1.32,-1.806 -4.03,-1.806 -3.31,0 -5.23,2.199 -1.92,2.199 -1.92,5.996 v 14.652 h -4.28 v -15.509 q 0,-3.75 -1.32,-5.532 -1.32,-1.806 -4.08,-1.806 -3.26,0 -5.18,2.222 -1.92,2.2 -1.92,5.973 v 14.652 h -4.28 v -25.925 h 4.28 v 4.027 q 1.46,-2.384 3.49,-3.518 2.04,-1.134 4.84,-1.134 2.83,0 4.79,1.435 1.99,1.435 2.94,4.166 z"
     fill="#000000"
     fill-rule="nonzero"
     fill-opacity="1"
     id="path8206"
     transform="translate(-2807.684)" />
  <path
     clip-path="url(#clip750)"
     d="m 3611.59,333.935 v 13.75 h -4.28 v -35.786 h 4.28 v 3.935 q 1.34,-2.315 3.38,-3.426 2.06,-1.134 4.91,-1.134 4.72,0 7.66,3.75 2.96,3.75 2.96,9.861 0,6.111 -2.96,9.861 -2.94,3.75 -7.66,3.75 -2.85,0 -4.91,-1.111 -2.04,-1.135 -3.38,-3.45 m 14.49,-9.05 q 0,-4.699 -1.95,-7.361 -1.92,-2.686 -5.3,-2.686 -3.38,0 -5.32,2.686 -1.92,2.662 -1.92,7.361 0,4.699 1.92,7.384 1.94,2.662 5.32,2.662 3.38,0 5.3,-2.662 1.95,-2.685 1.95,-7.384 z"
     fill="#000000"
     fill-rule="nonzero"
     fill-opacity="1"
     id="path8208"
     transform="translate(-2807.684)" />
  <path
     clip-path="url(#clip750)"
     d="m 3637.12,327.593 v -15.694 h 4.26 v 15.532 q 0,3.68 1.43,5.532 1.44,1.829 4.31,1.829 3.45,0 5.44,-2.199 2.01,-2.199 2.01,-5.995 v -14.699 h 4.26 v 25.925 h -4.26 v -3.981 q -1.55,2.361 -3.61,3.518 -2.03,1.135 -4.74,1.135 -4.47,0 -6.78,-2.778 -2.32,-2.778 -2.32,-8.125 m 10.72,-16.319 z"
     fill="#000000"
     fill-rule="nonzero"
     fill-opacity="1"
     id="path8210"
     transform="translate(-2807.684)" />
  <path
     clip-path="url(#clip750)"
     d="m 3671.82,304.538 v 7.361 h 8.77 v 3.31 h -8.77 v 14.074 q 0,3.171 0.86,4.074 0.88,0.903 3.54,0.903 h 4.37 v 3.564 h -4.37 q -4.93,0 -6.81,-1.828 -1.87,-1.852 -1.87,-6.713 v -14.074 h -3.13 v -3.31 h 3.13 v -7.361 z"
     fill="#000000"
     fill-rule="nonzero"
     fill-opacity="1"
     id="path8212"
     transform="translate(-2807.684)" />
  <path
     clip-path="url(#clip750)"
     d="m 3708.37,323.797 v 2.083 h -19.58 q 0.27,4.398 2.64,6.713 2.38,2.292 6.62,2.292 2.45,0 4.74,-0.602 2.32,-0.602 4.58,-1.806 v 4.028 q -2.29,0.972 -4.69,1.481 -2.41,0.51 -4.89,0.51 -6.2,0 -9.84,-3.611 -3.61,-3.612 -3.61,-9.769 0,-6.366 3.43,-10.092 3.45,-3.75 9.28,-3.75 5.23,0 8.26,3.379 3.06,3.357 3.06,9.144 m -4.26,-1.25 q -0.05,-3.496 -1.97,-5.579 -1.89,-2.083 -5.04,-2.083 -3.57,0 -5.72,2.014 -2.13,2.013 -2.45,5.671 z"
     fill="#000000"
     fill-rule="nonzero"
     fill-opacity="1"
     id="path8214"
     transform="translate(-2807.684)" />
  <path
     clip-path="url(#clip750)"
     d="m 3732.42,315.834 v -14.028 h 4.26 v 36.018 h -4.26 v -3.889 q -1.34,2.315 -3.4,3.45 -2.04,1.111 -4.91,1.111 -4.7,0 -7.66,-3.75 -2.94,-3.75 -2.94,-9.861 0,-6.111 2.94,-9.861 2.96,-3.75 7.66,-3.75 2.87,0 4.91,1.134 2.06,1.111 3.4,3.426 m -14.51,9.051 q 0,4.699 1.92,7.384 1.94,2.662 5.32,2.662 3.38,0 5.33,-2.662 1.94,-2.685 1.94,-7.384 0,-4.699 -1.94,-7.361 -1.95,-2.686 -5.33,-2.686 -3.38,0 -5.32,2.686 -1.92,2.662 -1.92,7.361 z"
     fill="#000000"
     fill-rule="nonzero"
     fill-opacity="1"
     id="path8216"
     transform="translate(-2807.684)" />
  <polyline
     clip-path="url(#clip750)"
     style="fill:none;stroke:#ffa500;stroke-width:8;stroke-linecap:round;stroke-linejoin:round;stroke-opacity:0.7"
     points="3144.98,372.384 3392.41,372.384 "
     id="polyline8218"
     transform="translate(-2807.684)" />
  <path
     clip-path="url(#clip750)"
     d="m 3459.2,384.734 v -9.283 h -7.63 v -3.842 h 12.26 v 14.838 q -2.7,1.921 -5.97,2.916 -3.26,0.973 -6.97,0.973 -8.1,0 -12.68,-4.723 -4.56,-4.745 -4.56,-13.194 0,-8.472 4.56,-13.194 4.58,-4.746 12.68,-4.746 3.38,0 6.42,0.834 3.05,0.833 5.62,2.453 v 4.977 q -2.59,-2.199 -5.51,-3.31 -2.91,-1.111 -6.13,-1.111 -6.34,0 -9.54,3.542 -3.17,3.541 -3.17,10.555 0,6.991 3.17,10.532 3.2,3.542 9.54,3.542 2.47,0 4.42,-0.417 1.94,-0.439 3.49,-1.342 z"
     fill="#000000"
     fill-rule="nonzero"
     fill-opacity="1"
     id="path8220"
     transform="translate(-2807.684)" />
  <path
     clip-path="url(#clip750)"
     d="m 3487.21,367.72 q -0.71,-0.417 -1.57,-0.602 -0.83,-0.208 -1.85,-0.208 -3.61,0 -5.56,2.361 -1.92,2.338 -1.92,6.736 v 13.657 h -4.28 v -25.925 h 4.28 v 4.027 q 1.34,-2.361 3.5,-3.495 2.15,-1.157 5.23,-1.157 0.44,0 0.97,0.069 0.53,0.046 1.18,0.162 z"
     fill="#000000"
     fill-rule="nonzero"
     fill-opacity="1"
     id="path8222"
     transform="translate(-2807.684)" />
  <path
     clip-path="url(#clip750)"
     d="m 3500.69,366.725 q -3.43,0 -5.42,2.685 -1.99,2.662 -1.99,7.315 0,4.652 1.97,7.338 1.99,2.662 5.44,2.662 3.4,0 5.39,-2.686 1.99,-2.685 1.99,-7.314 0,-4.607 -1.99,-7.292 -1.99,-2.708 -5.39,-2.708 m 0,-3.611 q 5.55,0 8.72,3.611 3.17,3.611 3.17,10 0,6.365 -3.17,10 -3.17,3.611 -8.72,3.611 -5.58,0 -8.75,-3.611 -3.15,-3.635 -3.15,-10 0,-6.389 3.15,-10 3.17,-3.611 8.75,-3.611 z"
     fill="#000000"
     fill-rule="nonzero"
     fill-opacity="1"
     id="path8224"
     transform="translate(-2807.684)" />
  <path
     clip-path="url(#clip750)"
     d="m 3519.2,379.433 v -15.694 h 4.26 v 15.532 q 0,3.68 1.44,5.532 1.43,1.829 4.3,1.829 3.45,0 5.44,-2.199 2.02,-2.199 2.02,-5.995 v -14.699 h 4.26 v 25.925 h -4.26 v -3.981 q -1.55,2.361 -3.61,3.518 -2.04,1.135 -4.75,1.135 -4.47,0 -6.78,-2.778 -2.32,-2.778 -2.32,-8.125 m 10.72,-16.319 z"
     fill="#000000"
     fill-rule="nonzero"
     fill-opacity="1"
     id="path8226"
     transform="translate(-2807.684)" />
  <path
     clip-path="url(#clip750)"
     d="m 3571.24,374.016 v 15.648 h -4.26 v -15.509 q 0,-3.68 -1.43,-5.509 -1.44,-1.829 -4.31,-1.829 -3.45,0 -5.44,2.199 -1.99,2.199 -1.99,5.996 v 14.652 h -4.28 v -25.925 h 4.28 v 4.027 q 1.53,-2.338 3.59,-3.495 2.08,-1.157 4.79,-1.157 4.47,0 6.76,2.777 2.29,2.755 2.29,8.125 z"
     fill="#000000"
     fill-rule="nonzero"
     fill-opacity="1"
     id="path8228"
     transform="translate(-2807.684)" />
  <path
     clip-path="url(#clip750)"
     d="m 3596.8,367.674 v -14.028 h 4.26 v 36.018 h -4.26 v -3.889 q -1.35,2.315 -3.41,3.45 -2.03,1.111 -4.9,1.111 -4.7,0 -7.67,-3.75 -2.94,-3.75 -2.94,-9.861 0,-6.111 2.94,-9.861 2.97,-3.75 7.67,-3.75 2.87,0 4.9,1.134 2.06,1.111 3.41,3.426 m -14.52,9.051 q 0,4.699 1.92,7.384 1.95,2.662 5.33,2.662 3.38,0 5.32,-2.662 1.95,-2.685 1.95,-7.384 0,-4.699 -1.95,-7.361 -1.94,-2.686 -5.32,-2.686 -3.38,0 -5.33,2.686 -1.92,2.662 -1.92,7.361 z"
     fill="#000000"
     fill-rule="nonzero"
     fill-opacity="1"
     id="path8230"
     transform="translate(-2807.684)" />
  <path
     clip-path="url(#clip750)"
     d="m 3620.29,355.104 h 29.24 v 3.936 h -12.27 v 30.624 h -4.7 V 359.04 h -12.27 z"
     fill="#000000"
     fill-rule="nonzero"
     fill-opacity="1"
     id="path8232"
     transform="translate(-2807.684)" />
  <path
     clip-path="url(#clip750)"
     d="m 3661.91,367.72 q -0.72,-0.417 -1.57,-0.602 -0.84,-0.208 -1.85,-0.208 -3.62,0 -5.56,2.361 -1.92,2.338 -1.92,6.736 v 13.657 h -4.28 v -25.925 h 4.28 v 4.027 q 1.34,-2.361 3.49,-3.495 2.16,-1.157 5.24,-1.157 0.44,0 0.97,0.069 0.53,0.046 1.18,0.162 z"
     fill="#000000"
     fill-rule="nonzero"
     fill-opacity="1"
     id="path8234"
     transform="translate(-2807.684)" />
  <path
     clip-path="url(#clip750)"
     d="m 3665.94,379.433 v -15.694 h 4.26 v 15.532 q 0,3.68 1.43,5.532 1.44,1.829 4.31,1.829 3.45,0 5.44,-2.199 2.01,-2.199 2.01,-5.995 v -14.699 h 4.26 v 25.925 h -4.26 v -3.981 q -1.55,2.361 -3.61,3.518 -2.03,1.135 -4.74,1.135 -4.47,0 -6.79,-2.778 -2.31,-2.778 -2.31,-8.125 m 10.72,-16.319 z"
     fill="#000000"
     fill-rule="nonzero"
     fill-opacity="1"
     id="path8236"
     transform="translate(-2807.684)" />
  <path
     clip-path="url(#clip750)"
     d="m 3700.64,356.378 v 7.361 h 8.77 v 3.31 h -8.77 v 14.074 q 0,3.171 0.86,4.074 0.87,0.903 3.54,0.903 h 4.37 v 3.564 h -4.37 q -4.93,0 -6.81,-1.828 -1.87,-1.852 -1.87,-6.713 v -14.074 h -3.13 v -3.31 h 3.13 v -7.361 z"
     fill="#000000"
     fill-rule="nonzero"
     fill-opacity="1"
     id="path8238"
     transform="translate(-2807.684)" />
  <path
     clip-path="url(#clip750)"
     d="m 3736.56,374.016 v 15.648 h -4.25 v -15.509 q 0,-3.68 -1.44,-5.509 -1.44,-1.829 -4.31,-1.829 -3.44,0 -5.44,2.199 -1.99,2.199 -1.99,5.996 v 14.652 h -4.28 v -36.018 h 4.28 v 14.12 q 1.53,-2.338 3.59,-3.495 2.09,-1.157 4.79,-1.157 4.47,0 6.76,2.777 2.29,2.755 2.29,8.125 z"
     fill="#000000"
     fill-rule="nonzero"
     fill-opacity="1"
     id="path8240"
     transform="translate(-2807.684)" />
  <polyline
     clip-path="url(#clip750)"
     style="fill:none;stroke:#ff0000;stroke-width:8;stroke-linecap:round;stroke-linejoin:round;stroke-opacity:0.7"
     stroke-dasharray="4, 8"
     points="3144.98,424.224 3392.41,424.224 "
     id="polyline8242"
     transform="translate(-2807.684)" />
  <path
     clip-path="url(#clip750)"
     d="m 3433.65,406.944 h 6.3 l 15.32,28.912 v -28.912 h 4.54 v 34.56 h -6.3 l -15.32,-28.912 v 28.912 h -4.54 z"
     fill="#000000"
     fill-rule="nonzero"
     fill-opacity="1"
     id="path8244"
     transform="translate(-2807.684)" />
  <path
     clip-path="url(#clip750)"
     d="m 3491.1,427.477 v 2.083 h -19.58 q 0.28,4.398 2.64,6.713 2.38,2.292 6.62,2.292 2.45,0 4.74,-0.602 2.32,-0.602 4.59,-1.806 v 4.028 q -2.29,0.972 -4.7,1.481 -2.41,0.51 -4.89,0.51 -6.2,0 -9.83,-3.611 -3.61,-3.612 -3.61,-9.769 0,-6.366 3.42,-10.092 3.45,-3.75 9.28,-3.75 5.23,0 8.27,3.379 3.05,3.357 3.05,9.144 m -4.26,-1.25 q -0.04,-3.496 -1.96,-5.579 -1.9,-2.083 -5.05,-2.083 -3.57,0 -5.72,2.014 -2.13,2.013 -2.45,5.671 z"
     fill="#000000"
     fill-rule="nonzero"
     fill-opacity="1"
     id="path8246"
     transform="translate(-2807.684)" />
  <path
     clip-path="url(#clip750)"
     d="m 3509.88,428.472 q -5.17,0 -7.16,1.181 -1.99,1.18 -1.99,4.027 0,2.269 1.48,3.611 1.51,1.32 4.08,1.32 3.54,0 5.67,-2.5 2.15,-2.523 2.15,-6.69 v -0.949 h -4.23 m 8.49,-1.759 v 14.791 h -4.26 v -3.935 q -1.46,2.361 -3.63,3.496 -2.18,1.111 -5.33,1.111 -3.98,0 -6.34,-2.223 -2.34,-2.245 -2.34,-5.995 0,-4.375 2.92,-6.597 2.94,-2.222 8.75,-2.222 h 5.97 v -0.417 q 0,-2.94 -1.94,-4.537 -1.92,-1.62 -5.42,-1.62 -2.22,0 -4.33,0.532 -2.1,0.532 -4.05,1.597 v -3.935 q 2.34,-0.903 4.54,-1.342 2.2,-0.463 4.28,-0.463 5.63,0 8.4,2.916 2.78,2.917 2.78,8.843 z"
     fill="#000000"
     fill-rule="nonzero"
     fill-opacity="1"
     id="path8248"
     transform="translate(-2807.684)" />
  <path
     clip-path="url(#clip750)"
     d="m 3542.17,419.56 q -0.72,-0.417 -1.58,-0.602 -0.83,-0.208 -1.85,-0.208 -3.61,0 -5.55,2.361 -1.93,2.338 -1.93,6.736 v 13.657 h -4.28 v -25.925 h 4.28 v 4.027 q 1.35,-2.361 3.5,-3.495 2.15,-1.157 5.23,-1.157 0.44,0 0.97,0.069 0.54,0.046 1.18,0.162 z"
     fill="#000000"
     fill-rule="nonzero"
     fill-opacity="1"
     id="path8250"
     transform="translate(-2807.684)" />
  <path
     clip-path="url(#clip750)"
     d="m 3567.77,427.477 v 2.083 h -19.58 q 0.27,4.398 2.63,6.713 2.39,2.292 6.62,2.292 2.46,0 4.75,-0.602 2.32,-0.602 4.58,-1.806 v 4.028 q -2.29,0.972 -4.7,1.481 -2.4,0.51 -4.88,0.51 -6.2,0 -9.84,-3.611 -3.61,-3.612 -3.61,-9.769 0,-6.366 3.43,-10.092 3.45,-3.75 9.28,-3.75 5.23,0 8.26,3.379 3.06,3.357 3.06,9.144 m -4.26,-1.25 q -0.05,-3.496 -1.97,-5.579 -1.9,-2.083 -5.04,-2.083 -3.57,0 -5.72,2.014 -2.13,2.013 -2.46,5.671 z"
     fill="#000000"
     fill-rule="nonzero"
     fill-opacity="1"
     id="path8252"
     transform="translate(-2807.684)" />
  <path
     clip-path="url(#clip750)"
     d="m 3591.29,416.342 v 4.028 q -1.81,-0.926 -3.75,-1.389 -1.95,-0.463 -4.03,-0.463 -3.17,0 -4.77,0.973 -1.57,0.972 -1.57,2.916 0,1.482 1.13,2.338 1.14,0.834 4.56,1.597 l 1.46,0.324 q 4.54,0.973 6.43,2.755 1.93,1.759 1.93,4.931 0,3.611 -2.87,5.717 -2.85,2.107 -7.85,2.107 -2.08,0 -4.35,-0.417 -2.25,-0.394 -4.75,-1.204 v -4.398 q 2.36,1.227 4.65,1.852 2.3,0.602 4.54,0.602 3.01,0 4.63,-1.019 1.62,-1.041 1.62,-2.916 0,-1.736 -1.18,-2.662 -1.16,-0.926 -5.12,-1.783 l -1.48,-0.347 q -3.95,-0.833 -5.71,-2.546 -1.76,-1.736 -1.76,-4.746 0,-3.657 2.59,-5.648 2.59,-1.99 7.36,-1.99 2.36,0 4.44,0.347 2.09,0.347 3.85,1.041 z"
     fill="#000000"
     fill-rule="nonzero"
     fill-opacity="1"
     id="path8254"
     transform="translate(-2807.684)" />
  <path
     clip-path="url(#clip750)"
     d="m 3603.67,408.218 v 7.361 h 8.77 v 3.31 h -8.77 v 14.074 q 0,3.171 0.86,4.074 0.88,0.903 3.54,0.903 h 4.37 v 3.564 h -4.37 q -4.93,0 -6.81,-1.828 -1.87,-1.852 -1.87,-6.713 v -14.074 h -3.13 v -3.31 h 3.13 v -7.361 z"
     fill="#000000"
     fill-rule="nonzero"
     fill-opacity="1"
     id="path8256"
     transform="translate(-2807.684)" />
  <path
     clip-path="url(#clip750)"
     d="m 3628.51,406.944 h 29.24 v 3.936 h -12.27 v 30.624 h -4.7 V 410.88 h -12.27 z"
     fill="#000000"
     fill-rule="nonzero"
     fill-opacity="1"
     id="path8258"
     transform="translate(-2807.684)" />
  <path
     clip-path="url(#clip750)"
     d="m 3670.13,419.56 q -0.72,-0.417 -1.57,-0.602 -0.84,-0.208 -1.86,-0.208 -3.61,0 -5.55,2.361 -1.92,2.338 -1.92,6.736 v 13.657 h -4.29 v -25.925 h 4.29 v 4.027 q 1.34,-2.361 3.49,-3.495 2.15,-1.157 5.23,-1.157 0.44,0 0.98,0.069 0.53,0.046 1.18,0.162 z"
     fill="#000000"
     fill-rule="nonzero"
     fill-opacity="1"
     id="path8260"
     transform="translate(-2807.684)" />
  <path
     clip-path="url(#clip750)"
     d="m 3686.38,428.472 q -5.16,0 -7.15,1.181 -1.99,1.18 -1.99,4.027 0,2.269 1.48,3.611 1.5,1.32 4.07,1.32 3.54,0 5.67,-2.5 2.16,-2.523 2.16,-6.69 v -0.949 h -4.24 m 8.49,-1.759 v 14.791 h -4.25 v -3.935 q -1.46,2.361 -3.64,3.496 -2.17,1.111 -5.32,1.111 -3.98,0 -6.35,-2.223 -2.33,-2.245 -2.33,-5.995 0,-4.375 2.91,-6.597 2.94,-2.222 8.75,-2.222 h 5.98 v -0.417 q 0,-2.94 -1.95,-4.537 -1.92,-1.62 -5.42,-1.62 -2.22,0 -4.32,0.532 -2.11,0.532 -4.06,1.597 v -3.935 q 2.34,-0.903 4.54,-1.342 2.2,-0.463 4.28,-0.463 5.63,0 8.41,2.916 2.77,2.917 2.77,8.843 z"
     fill="#000000"
     fill-rule="nonzero"
     fill-opacity="1"
     id="path8262"
     transform="translate(-2807.684)" />
  <path
     clip-path="url(#clip750)"
     d="m 3703.65,415.579 h 4.26 v 25.925 h -4.26 v -25.925 m 0,-10.093 h 4.26 v 5.394 h -4.26 z"
     fill="#000000"
     fill-rule="nonzero"
     fill-opacity="1"
     id="path8264"
     transform="translate(-2807.684)" />
  <path
     clip-path="url(#clip750)"
     d="m 3738.37,425.856 v 15.648 h -4.26 v -15.509 q 0,-3.68 -1.43,-5.509 -1.44,-1.829 -4.31,-1.829 -3.45,0 -5.44,2.199 -1.99,2.199 -1.99,5.996 v 14.652 h -4.28 v -25.925 h 4.28 v 4.027 q 1.53,-2.338 3.59,-3.495 2.08,-1.157 4.79,-1.157 4.47,0 6.76,2.777 2.29,2.755 2.29,8.125 z"
     fill="#000000"
     fill-rule="nonzero"
     fill-opacity="1"
     id="path8266"
     transform="translate(-2807.684)" />
  <path
     clip-path="url(#clip750)"
     d="m 3766.8,410.787 v 26.875 h 5.64 q 7.16,0 10.47,-3.241 3.33,-3.241 3.33,-10.231 0,-6.945 -3.33,-10.162 -3.31,-3.241 -10.47,-3.241 h -5.64 m -4.68,-3.843 h 9.61 q 10.04,0 14.74,4.19 4.7,4.167 4.7,13.056 0,8.935 -4.72,13.125 -4.72,4.189 -14.72,4.189 h -9.61 z"
     fill="#000000"
     fill-rule="nonzero"
     fill-opacity="1"
     id="path8268"
     transform="translate(-2807.684)" />
  <path
     clip-path="url(#clip750)"
     d="m 3810.22,428.472 q -5.16,0 -7.15,1.181 -1.99,1.18 -1.99,4.027 0,2.269 1.48,3.611 1.5,1.32 4.07,1.32 3.55,0 5.67,-2.5 2.16,-2.523 2.16,-6.69 v -0.949 h -4.24 m 8.5,-1.759 v 14.791 h -4.26 v -3.935 q -1.46,2.361 -3.64,3.496 -2.17,1.111 -5.32,1.111 -3.98,0 -6.34,-2.223 -2.34,-2.245 -2.34,-5.995 0,-4.375 2.92,-6.597 2.94,-2.222 8.75,-2.222 h 5.97 v -0.417 q 0,-2.94 -1.95,-4.537 -1.92,-1.62 -5.41,-1.62 -2.23,0 -4.33,0.532 -2.11,0.532 -4.05,1.597 v -3.935 q 2.33,-0.903 4.53,-1.342 2.2,-0.463 4.29,-0.463 5.62,0 8.4,2.916 2.78,2.917 2.78,8.843 z"
     fill="#000000"
     fill-rule="nonzero"
     fill-opacity="1"
     id="path8270"
     transform="translate(-2807.684)" />
  <path
     clip-path="url(#clip750)"
     d="m 3831.7,408.218 v 7.361 h 8.78 v 3.31 h -8.78 v 14.074 q 0,3.171 0.86,4.074 0.88,0.903 3.54,0.903 h 4.38 v 3.564 h -4.38 q -4.93,0 -6.8,-1.828 -1.88,-1.852 -1.88,-6.713 v -14.074 h -3.12 v -3.31 h 3.12 v -7.361 z"
     fill="#000000"
     fill-rule="nonzero"
     fill-opacity="1"
     id="path8272"
     transform="translate(-2807.684)" />
  <path
     clip-path="url(#clip750)"
     d="m 3857.86,428.472 q -5.16,0 -7.15,1.181 -1.99,1.18 -1.99,4.027 0,2.269 1.48,3.611 1.5,1.32 4.07,1.32 3.54,0 5.67,-2.5 2.16,-2.523 2.16,-6.69 v -0.949 h -4.24 m 8.5,-1.759 v 14.791 h -4.26 v -3.935 q -1.46,2.361 -3.64,3.496 -2.17,1.111 -5.32,1.111 -3.98,0 -6.34,-2.223 -2.34,-2.245 -2.34,-5.995 0,-4.375 2.91,-6.597 2.94,-2.222 8.75,-2.222 h 5.98 v -0.417 q 0,-2.94 -1.95,-4.537 -1.92,-1.62 -5.42,-1.62 -2.22,0 -4.32,0.532 -2.11,0.532 -4.05,1.597 v -3.935 q 2.33,-0.903 4.53,-1.342 2.2,-0.463 4.28,-0.463 5.63,0 8.41,2.916 2.78,2.917 2.78,8.843 z"
     fill="#000000"
     fill-rule="nonzero"
     fill-opacity="1"
     id="path8274"
     transform="translate(-2807.684)" />
  <path
     clip-path="url(#clip750)"
     d="m 3891.61,437.569 h 7.64 v -26.365 l -8.31,1.666 v -4.259 l 8.26,-1.667 h 4.68 v 30.625 h 7.64 v 3.935 h -19.91 z"
     fill="#000000"
     fill-rule="nonzero"
     fill-opacity="1"
     id="path8276"
     transform="translate(-2807.684)" />
</svg>
