<?xml version="1.0" encoding="utf-8"?>
<svg xmlns="http://www.w3.org/2000/svg" xmlns:xlink="http://www.w3.org/1999/xlink" width="1000" height="500" viewBox="0 0 4000 2000">
<defs>
  <clipPath id="clip750">
    <rect x="0" y="0" width="4000" height="2000"/>
  </clipPath>
</defs>
<path clip-path="url(#clip750)" d="M0 2000 L4000 2000 L4000 0 L0 0  Z" fill="#ffffff" fill-rule="evenodd" fill-opacity="1"/>
<defs>
  <clipPath id="clip751">
    <rect x="800" y="0" width="2801" height="2000"/>
  </clipPath>
</defs>
<path clip-path="url(#clip750)" d="M241.261 1776.71 L2980.02 1776.71 L2980.02 216.704 L241.261 216.704  Z" fill="#ffffff" fill-rule="evenodd" fill-opacity="1"/>
<defs>
  <clipPath id="clip752">
    <rect x="241" y="216" width="2740" height="1561"/>
  </clipPath>
</defs>
<polyline clip-path="url(#clip752)" style="stroke:#000000; stroke-linecap:round; stroke-linejoin:round; stroke-width:2; stroke-opacity:0.1; fill:none" points="292.675,1776.71 292.675,216.704 "/>
<polyline clip-path="url(#clip752)" style="stroke:#000000; stroke-linecap:round; stroke-linejoin:round; stroke-width:2; stroke-opacity:0.1; fill:none" points="945.134,1776.71 945.134,216.704 "/>
<polyline clip-path="url(#clip752)" style="stroke:#000000; stroke-linecap:round; stroke-linejoin:round; stroke-width:2; stroke-opacity:0.1; fill:none" points="1597.59,1776.71 1597.59,216.704 "/>
<polyline clip-path="url(#clip752)" style="stroke:#000000; stroke-linecap:round; stroke-linejoin:round; stroke-width:2; stroke-opacity:0.1; fill:none" points="2250.05,1776.71 2250.05,216.704 "/>
<polyline clip-path="url(#clip752)" style="stroke:#000000; stroke-linecap:round; stroke-linejoin:round; stroke-width:2; stroke-opacity:0.1; fill:none" points="2902.51,1776.71 2902.51,216.704 "/>
<polyline clip-path="url(#clip752)" style="stroke:#000000; stroke-linecap:round; stroke-linejoin:round; stroke-width:2; stroke-opacity:0.1; fill:none" points="241.261,1490.48 2980.02,1490.48 "/>
<polyline clip-path="url(#clip752)" style="stroke:#000000; stroke-linecap:round; stroke-linejoin:round; stroke-width:2; stroke-opacity:0.1; fill:none" points="241.261,1170.5 2980.02,1170.5 "/>
<polyline clip-path="url(#clip752)" style="stroke:#000000; stroke-linecap:round; stroke-linejoin:round; stroke-width:2; stroke-opacity:0.1; fill:none" points="241.261,850.521 2980.02,850.521 "/>
<polyline clip-path="url(#clip752)" style="stroke:#000000; stroke-linecap:round; stroke-linejoin:round; stroke-width:2; stroke-opacity:0.1; fill:none" points="241.261,530.541 2980.02,530.541 "/>
<polyline clip-path="url(#clip750)" style="stroke:#000000; stroke-linecap:round; stroke-linejoin:round; stroke-width:4; stroke-opacity:1; fill:none" points="241.261,1776.71 2980.02,1776.71 "/>
<polyline clip-path="url(#clip750)" style="stroke:#000000; stroke-linecap:round; stroke-linejoin:round; stroke-width:4; stroke-opacity:1; fill:none" points="292.675,1776.71 292.675,1757.81 "/>
<polyline clip-path="url(#clip750)" style="stroke:#000000; stroke-linecap:round; stroke-linejoin:round; stroke-width:4; stroke-opacity:1; fill:none" points="945.134,1776.71 945.134,1757.81 "/>
<polyline clip-path="url(#clip750)" style="stroke:#000000; stroke-linecap:round; stroke-linejoin:round; stroke-width:4; stroke-opacity:1; fill:none" points="1597.59,1776.71 1597.59,1757.81 "/>
<polyline clip-path="url(#clip750)" style="stroke:#000000; stroke-linecap:round; stroke-linejoin:round; stroke-width:4; stroke-opacity:1; fill:none" points="2250.05,1776.71 2250.05,1757.81 "/>
<polyline clip-path="url(#clip750)" style="stroke:#000000; stroke-linecap:round; stroke-linejoin:round; stroke-width:4; stroke-opacity:1; fill:none" points="2902.51,1776.71 2902.51,1757.81 "/>
<path clip-path="url(#clip750)" d="M292.675 1820.43 Q289.064 1820.43 287.235 1823.99 Q285.429 1827.53 285.429 1834.66 Q285.429 1841.77 287.235 1845.33 Q289.064 1848.88 292.675 1848.88 Q296.309 1848.88 298.115 1845.33 Q299.943 1841.77 299.943 1834.66 Q299.943 1827.53 298.115 1823.99 Q296.309 1820.43 292.675 1820.43 M292.675 1816.72 Q298.485 1816.72 301.54 1821.33 Q304.619 1825.91 304.619 1834.66 Q304.619 1843.39 301.54 1848 Q298.485 1852.58 292.675 1852.58 Q286.865 1852.58 283.786 1848 Q280.73 1843.39 280.73 1834.66 Q280.73 1825.91 283.786 1821.33 Q286.865 1816.72 292.675 1816.72 Z" fill="#000000" fill-rule="nonzero" fill-opacity="1" /><path clip-path="url(#clip750)" d="M924.405 1847.97 L940.724 1847.97 L940.724 1851.91 L918.78 1851.91 L918.78 1847.97 Q921.442 1845.22 926.025 1840.59 Q930.631 1835.94 931.812 1834.59 Q934.057 1832.07 934.937 1830.33 Q935.84 1828.57 935.84 1826.88 Q935.84 1824.13 933.895 1822.39 Q931.974 1820.66 928.872 1820.66 Q926.673 1820.66 924.219 1821.42 Q921.789 1822.19 919.011 1823.74 L919.011 1819.01 Q921.835 1817.88 924.289 1817.3 Q926.742 1816.72 928.78 1816.72 Q934.15 1816.72 937.344 1819.41 Q940.539 1822.09 940.539 1826.58 Q940.539 1828.71 939.729 1830.63 Q938.942 1832.53 936.835 1835.13 Q936.256 1835.8 933.154 1839.01 Q930.053 1842.21 924.405 1847.97 Z" fill="#000000" fill-rule="nonzero" fill-opacity="1" /><path clip-path="url(#clip750)" d="M950.585 1817.35 L968.941 1817.35 L968.941 1821.28 L954.867 1821.28 L954.867 1829.76 Q955.886 1829.41 956.904 1829.25 Q957.923 1829.06 958.941 1829.06 Q964.728 1829.06 968.108 1832.23 Q971.488 1835.4 971.488 1840.82 Q971.488 1846.4 968.015 1849.5 Q964.543 1852.58 958.224 1852.58 Q956.048 1852.58 953.779 1852.21 Q951.534 1851.84 949.127 1851.1 L949.127 1846.4 Q951.21 1847.53 953.432 1848.09 Q955.654 1848.64 958.131 1848.64 Q962.136 1848.64 964.474 1846.54 Q966.812 1844.43 966.812 1840.82 Q966.812 1837.21 964.474 1835.1 Q962.136 1833 958.131 1833 Q956.256 1833 954.381 1833.41 Q952.529 1833.83 950.585 1834.71 L950.585 1817.35 Z" fill="#000000" fill-rule="nonzero" fill-opacity="1" /><path clip-path="url(#clip750)" d="M1572.29 1817.35 L1590.65 1817.35 L1590.65 1821.28 L1576.57 1821.28 L1576.57 1829.76 Q1577.59 1829.41 1578.61 1829.25 Q1579.63 1829.06 1580.65 1829.06 Q1586.44 1829.06 1589.81 1832.23 Q1593.19 1835.4 1593.19 1840.82 Q1593.19 1846.4 1589.72 1849.5 Q1586.25 1852.58 1579.93 1852.58 Q1577.75 1852.58 1575.49 1852.21 Q1573.24 1851.84 1570.83 1851.1 L1570.83 1846.4 Q1572.92 1847.53 1575.14 1848.09 Q1577.36 1848.64 1579.84 1848.64 Q1583.84 1848.64 1586.18 1846.54 Q1588.52 1844.43 1588.52 1840.82 Q1588.52 1837.21 1586.18 1835.1 Q1583.84 1833 1579.84 1833 Q1577.96 1833 1576.09 1833.41 Q1574.24 1833.83 1572.29 1834.71 L1572.29 1817.35 Z" fill="#000000" fill-rule="nonzero" fill-opacity="1" /><path clip-path="url(#clip750)" d="M1612.41 1820.43 Q1608.8 1820.43 1606.97 1823.99 Q1605.16 1827.53 1605.16 1834.66 Q1605.16 1841.77 1606.97 1845.33 Q1608.8 1848.88 1612.41 1848.88 Q1616.04 1848.88 1617.85 1845.33 Q1619.68 1841.77 1619.68 1834.66 Q1619.68 1827.53 1617.85 1823.99 Q1616.04 1820.43 1612.41 1820.43 M1612.41 1816.72 Q1618.22 1816.72 1621.27 1821.33 Q1624.35 1825.91 1624.35 1834.66 Q1624.35 1843.39 1621.27 1848 Q1618.22 1852.58 1612.41 1852.58 Q1606.6 1852.58 1603.52 1848 Q1600.46 1843.39 1600.46 1834.66 Q1600.46 1825.91 1603.52 1821.33 Q1606.6 1816.72 1612.41 1816.72 Z" fill="#000000" fill-rule="nonzero" fill-opacity="1" /><path clip-path="url(#clip750)" d="M2223.91 1817.35 L2246.13 1817.35 L2246.13 1819.34 L2233.58 1851.91 L2228.7 1851.91 L2240.5 1821.28 L2223.91 1821.28 L2223.91 1817.35 Z" fill="#000000" fill-rule="nonzero" fill-opacity="1" /><path clip-path="url(#clip750)" d="M2255.29 1817.35 L2273.65 1817.35 L2273.65 1821.28 L2259.58 1821.28 L2259.58 1829.76 Q2260.6 1829.41 2261.61 1829.25 Q2262.63 1829.06 2263.65 1829.06 Q2269.44 1829.06 2272.82 1832.23 Q2276.2 1835.4 2276.2 1840.82 Q2276.2 1846.4 2272.72 1849.5 Q2269.25 1852.58 2262.93 1852.58 Q2260.76 1852.58 2258.49 1852.21 Q2256.24 1851.84 2253.84 1851.1 L2253.84 1846.4 Q2255.92 1847.53 2258.14 1848.09 Q2260.36 1848.64 2262.84 1848.64 Q2266.85 1848.64 2269.18 1846.54 Q2271.52 1844.43 2271.52 1840.82 Q2271.52 1837.21 2269.18 1835.1 Q2266.85 1833 2262.84 1833 Q2260.97 1833 2259.09 1833.41 Q2257.24 1833.83 2255.29 1834.71 L2255.29 1817.35 Z" fill="#000000" fill-rule="nonzero" fill-opacity="1" /><path clip-path="url(#clip750)" d="M2862.12 1847.97 L2869.76 1847.97 L2869.76 1821.61 L2861.45 1823.27 L2861.45 1819.01 L2869.71 1817.35 L2874.39 1817.35 L2874.39 1847.97 L2882.02 1847.97 L2882.02 1851.91 L2862.12 1851.91 L2862.12 1847.97 Z" fill="#000000" fill-rule="nonzero" fill-opacity="1" /><path clip-path="url(#clip750)" d="M2901.47 1820.43 Q2897.86 1820.43 2896.03 1823.99 Q2894.22 1827.53 2894.22 1834.66 Q2894.22 1841.77 2896.03 1845.33 Q2897.86 1848.88 2901.47 1848.88 Q2905.1 1848.88 2906.91 1845.33 Q2908.74 1841.77 2908.74 1834.66 Q2908.74 1827.53 2906.91 1823.99 Q2905.1 1820.43 2901.47 1820.43 M2901.47 1816.72 Q2907.28 1816.72 2910.33 1821.33 Q2913.41 1825.91 2913.41 1834.66 Q2913.41 1843.39 2910.33 1848 Q2907.28 1852.58 2901.47 1852.58 Q2895.66 1852.58 2892.58 1848 Q2889.52 1843.39 2889.52 1834.66 Q2889.52 1825.91 2892.58 1821.33 Q2895.66 1816.72 2901.47 1816.72 Z" fill="#000000" fill-rule="nonzero" fill-opacity="1" /><path clip-path="url(#clip750)" d="M2931.63 1820.43 Q2928.02 1820.43 2926.19 1823.99 Q2924.38 1827.53 2924.38 1834.66 Q2924.38 1841.77 2926.19 1845.33 Q2928.02 1848.88 2931.63 1848.88 Q2935.26 1848.88 2937.07 1845.33 Q2938.9 1841.77 2938.9 1834.66 Q2938.9 1827.53 2937.07 1823.99 Q2935.26 1820.43 2931.63 1820.43 M2931.63 1816.72 Q2937.44 1816.72 2940.5 1821.33 Q2943.57 1825.91 2943.57 1834.66 Q2943.57 1843.39 2940.5 1848 Q2937.44 1852.58 2931.63 1852.58 Q2925.82 1852.58 2922.74 1848 Q2919.69 1843.39 2919.69 1834.66 Q2919.69 1825.91 2922.74 1821.33 Q2925.82 1816.72 2931.63 1816.72 Z" fill="#000000" fill-rule="nonzero" fill-opacity="1" /><path clip-path="url(#clip750)" d="M1549.8 1899.8 L1549.8 1909.92 L1561.86 1909.92 L1561.86 1914.48 L1549.8 1914.48 L1549.8 1933.83 Q1549.8 1938.19 1550.98 1939.43 Q1552.19 1940.67 1555.85 1940.67 L1561.86 1940.67 L1561.86 1945.57 L1555.85 1945.57 Q1549.07 1945.57 1546.49 1943.06 Q1543.91 1940.51 1543.91 1933.83 L1543.91 1914.48 L1539.62 1914.48 L1539.62 1909.92 L1543.91 1909.92 L1543.91 1899.8 L1549.8 1899.8 Z" fill="#000000" fill-rule="nonzero" fill-opacity="1" /><path clip-path="url(#clip750)" d="M1569.57 1909.92 L1575.42 1909.92 L1575.42 1945.57 L1569.57 1945.57 L1569.57 1909.92 M1569.57 1896.05 L1575.42 1896.05 L1575.42 1903.46 L1569.57 1903.46 L1569.57 1896.05 Z" fill="#000000" fill-rule="nonzero" fill-opacity="1" /><path clip-path="url(#clip750)" d="M1615.43 1916.77 Q1617.63 1912.82 1620.68 1910.94 Q1623.74 1909.06 1627.88 1909.06 Q1633.45 1909.06 1636.47 1912.98 Q1639.49 1916.86 1639.49 1924.06 L1639.49 1945.57 L1633.61 1945.57 L1633.61 1924.25 Q1633.61 1919.12 1631.79 1916.64 Q1629.98 1914.16 1626.25 1914.16 Q1621.7 1914.16 1619.06 1917.18 Q1616.42 1920.2 1616.42 1925.42 L1616.42 1945.57 L1610.53 1945.57 L1610.53 1924.25 Q1610.53 1919.09 1608.72 1916.64 Q1606.9 1914.16 1603.11 1914.16 Q1598.63 1914.16 1595.98 1917.21 Q1593.34 1920.24 1593.34 1925.42 L1593.34 1945.57 L1587.45 1945.57 L1587.45 1909.92 L1593.34 1909.92 L1593.34 1915.46 Q1595.35 1912.18 1598.15 1910.62 Q1600.95 1909.06 1604.8 1909.06 Q1608.68 1909.06 1611.39 1911.04 Q1614.13 1913.01 1615.43 1916.77 Z" fill="#000000" fill-rule="nonzero" fill-opacity="1" /><path clip-path="url(#clip750)" d="M1681.67 1926.28 L1681.67 1929.15 L1654.74 1929.15 Q1655.12 1935.2 1658.37 1938.38 Q1661.65 1941.53 1667.47 1941.53 Q1670.85 1941.53 1674 1940.7 Q1677.18 1939.87 1680.3 1938.22 L1680.3 1943.76 Q1677.15 1945.09 1673.84 1945.79 Q1670.53 1946.49 1667.12 1946.49 Q1658.59 1946.49 1653.59 1941.53 Q1648.63 1936.56 1648.63 1928.1 Q1648.63 1919.35 1653.34 1914.22 Q1658.08 1909.06 1666.1 1909.06 Q1673.3 1909.06 1677.47 1913.71 Q1681.67 1918.33 1681.67 1926.28 M1675.81 1924.56 Q1675.75 1919.76 1673.11 1916.89 Q1670.5 1914.03 1666.17 1914.03 Q1661.26 1914.03 1658.3 1916.8 Q1655.38 1919.57 1654.93 1924.6 L1675.81 1924.56 Z" fill="#000000" fill-rule="nonzero" fill-opacity="1" /><polyline clip-path="url(#clip750)" style="stroke:#000000; stroke-linecap:round; stroke-linejoin:round; stroke-width:4; stroke-opacity:1; fill:none" points="241.261,1776.71 241.261,216.704 "/>
<polyline clip-path="url(#clip750)" style="stroke:#000000; stroke-linecap:round; stroke-linejoin:round; stroke-width:4; stroke-opacity:1; fill:none" points="241.261,1490.48 255.206,1490.48 "/>
<polyline clip-path="url(#clip750)" style="stroke:#000000; stroke-linecap:round; stroke-linejoin:round; stroke-width:4; stroke-opacity:1; fill:none" points="241.261,1170.5 255.206,1170.5 "/>
<polyline clip-path="url(#clip750)" style="stroke:#000000; stroke-linecap:round; stroke-linejoin:round; stroke-width:4; stroke-opacity:1; fill:none" points="241.261,850.521 255.206,850.521 "/>
<polyline clip-path="url(#clip750)" style="stroke:#000000; stroke-linecap:round; stroke-linejoin:round; stroke-width:4; stroke-opacity:1; fill:none" points="241.261,530.541 255.206,530.541 "/>
<path clip-path="url(#clip750)" d="M169.317 1476.28 Q165.706 1476.28 163.877 1479.85 Q162.071 1483.39 162.071 1490.52 Q162.071 1497.62 163.877 1501.19 Q165.706 1504.73 169.317 1504.73 Q172.951 1504.73 174.756 1501.19 Q176.585 1497.62 176.585 1490.52 Q176.585 1483.39 174.756 1479.85 Q172.951 1476.28 169.317 1476.28 M169.317 1472.58 Q175.127 1472.58 178.182 1477.18 Q181.261 1481.77 181.261 1490.52 Q181.261 1499.24 178.182 1503.85 Q175.127 1508.43 169.317 1508.43 Q163.507 1508.43 160.428 1503.85 Q157.372 1499.24 157.372 1490.52 Q157.372 1481.77 160.428 1477.18 Q163.507 1472.58 169.317 1472.58 Z" fill="#000000" fill-rule="nonzero" fill-opacity="1" /><path clip-path="url(#clip750)" d="M161.354 1183.85 L168.993 1183.85 L168.993 1157.48 L160.682 1159.15 L160.682 1154.89 L168.946 1153.22 L173.622 1153.22 L173.622 1183.85 L181.261 1183.85 L181.261 1187.78 L161.354 1187.78 L161.354 1183.85 Z" fill="#000000" fill-rule="nonzero" fill-opacity="1" /><path clip-path="url(#clip750)" d="M164.942 863.866 L181.261 863.866 L181.261 867.801 L159.317 867.801 L159.317 863.866 Q161.979 861.112 166.562 856.482 Q171.169 851.829 172.349 850.487 Q174.594 847.964 175.474 846.228 Q176.377 844.468 176.377 842.778 Q176.377 840.024 174.432 838.288 Q172.511 836.552 169.409 836.552 Q167.21 836.552 164.757 837.316 Q162.326 838.079 159.548 839.63 L159.548 834.908 Q162.372 833.774 164.826 833.195 Q167.28 832.616 169.317 832.616 Q174.687 832.616 177.881 835.302 Q181.076 837.987 181.076 842.478 Q181.076 844.607 180.266 846.528 Q179.479 848.427 177.372 851.019 Q176.793 851.69 173.692 854.908 Q170.59 858.102 164.942 863.866 Z" fill="#000000" fill-rule="nonzero" fill-opacity="1" /><path clip-path="url(#clip750)" d="M174.131 529.187 Q177.488 529.904 179.363 532.173 Q181.261 534.441 181.261 537.775 Q181.261 542.89 177.743 545.691 Q174.224 548.492 167.743 548.492 Q165.567 548.492 163.252 548.052 Q160.96 547.636 158.507 546.779 L158.507 542.265 Q160.451 543.4 162.766 543.978 Q165.081 544.557 167.604 544.557 Q172.002 544.557 174.293 542.821 Q176.608 541.085 176.608 537.775 Q176.608 534.719 174.456 533.006 Q172.326 531.27 168.506 531.27 L164.479 531.27 L164.479 527.428 L168.692 527.428 Q172.141 527.428 173.969 526.062 Q175.798 524.673 175.798 522.08 Q175.798 519.418 173.9 518.006 Q172.025 516.571 168.506 516.571 Q166.585 516.571 164.386 516.988 Q162.187 517.404 159.548 518.284 L159.548 514.117 Q162.21 513.377 164.525 513.006 Q166.863 512.636 168.923 512.636 Q174.247 512.636 177.349 515.066 Q180.451 517.474 180.451 521.594 Q180.451 524.465 178.807 526.455 Q177.164 528.423 174.131 529.187 Z" fill="#000000" fill-rule="nonzero" fill-opacity="1" /><path clip-path="url(#clip750)" d="M47.4683 980.091 L64.8149 992.982 L83.1163 979.423 L83.1163 986.33 L69.1117 996.706 L83.1163 1007.08 L83.1163 1013.99 L64.4648 1000.14 L47.4683 1012.81 L47.4683 1005.9 L60.1679 996.451 L47.4683 986.998 L47.4683 980.091 Z" fill="#000000" fill-rule="nonzero" fill-opacity="1" /><path clip-path="url(#clip750)" d="M820.715 35.2489 L820.715 43.2292 Q816.057 41.0012 811.925 39.9075 Q807.793 38.8137 803.945 38.8137 Q797.261 38.8137 793.615 41.4063 Q790.009 43.9989 790.009 48.779 Q790.009 52.7894 792.399 54.8553 Q794.83 56.8808 801.554 58.1366 L806.497 59.1493 Q815.652 60.8912 819.986 65.3067 Q824.361 69.6816 824.361 77.0543 Q824.361 85.8447 818.447 90.3817 Q812.573 94.9188 801.19 94.9188 Q796.896 94.9188 792.035 93.9465 Q787.214 92.9743 782.029 91.0704 L782.029 82.6445 Q787.012 85.4396 791.792 86.8575 Q796.572 88.2753 801.19 88.2753 Q808.198 88.2753 812.006 85.5207 Q815.814 82.766 815.814 77.6619 Q815.814 73.2059 813.059 70.6944 Q810.345 68.1828 804.107 66.927 L799.124 65.9548 Q789.969 64.1319 785.877 60.243 Q781.786 56.3542 781.786 49.4271 Q781.786 41.4063 787.417 36.7883 Q793.088 32.1703 803.013 32.1703 Q807.266 32.1703 811.682 32.9399 Q816.097 33.7096 820.715 35.2489 Z" fill="#000000" fill-rule="nonzero" fill-opacity="1" /><path clip-path="url(#clip750)" d="M857.416 70.9374 Q848.383 70.9374 844.899 73.0034 Q841.415 75.0693 841.415 80.0519 Q841.415 84.0218 844.008 86.3714 Q846.641 88.6804 851.138 88.6804 Q857.335 88.6804 861.062 84.3054 Q864.83 79.8899 864.83 72.5983 L864.83 70.9374 L857.416 70.9374 M872.283 67.8587 L872.283 93.744 L864.83 93.744 L864.83 86.8575 Q862.278 90.9894 858.47 92.9743 Q854.662 94.9188 849.153 94.9188 Q842.185 94.9188 838.053 91.0299 Q833.962 87.1005 833.962 80.5381 Q833.962 72.8818 839.066 68.993 Q844.211 65.1041 854.378 65.1041 L864.83 65.1041 L864.83 64.3749 Q864.83 59.2303 861.427 56.4352 Q858.065 53.5995 851.948 53.5995 Q848.059 53.5995 844.373 54.5312 Q840.686 55.463 837.283 57.3264 L837.283 50.4398 Q841.375 48.86 845.223 48.0903 Q849.072 47.2801 852.717 47.2801 Q862.561 47.2801 867.422 52.3843 Q872.283 57.4884 872.283 67.8587 Z" fill="#000000" fill-rule="nonzero" fill-opacity="1" /><path clip-path="url(#clip750)" d="M922.96 57.0833 Q925.755 52.0602 929.644 49.6702 Q933.533 47.2801 938.799 47.2801 Q945.888 47.2801 949.737 52.2627 Q953.585 57.2048 953.585 66.3599 L953.585 93.744 L946.091 93.744 L946.091 66.6029 Q946.091 60.081 943.782 56.9213 Q941.473 53.7616 936.733 53.7616 Q930.94 53.7616 927.578 57.6099 Q924.216 61.4583 924.216 68.1018 L924.216 93.744 L916.722 93.744 L916.722 66.6029 Q916.722 60.0405 914.413 56.9213 Q912.104 53.7616 907.283 53.7616 Q901.571 53.7616 898.209 57.6504 Q894.847 61.4988 894.847 68.1018 L894.847 93.744 L887.353 93.744 L887.353 48.3739 L894.847 48.3739 L894.847 55.4224 Q897.399 51.25 900.964 49.2651 Q904.528 47.2801 909.43 47.2801 Q914.372 47.2801 917.815 49.7917 Q921.299 52.3032 922.96 57.0833 Z" fill="#000000" fill-rule="nonzero" fill-opacity="1" /><path clip-path="url(#clip750)" d="M975.662 86.9385 L975.662 111.001 L968.168 111.001 L968.168 48.3739 L975.662 48.3739 L975.662 55.2604 Q978.012 51.2095 981.577 49.2651 Q985.182 47.2801 990.165 47.2801 Q998.428 47.2801 1003.57 53.8426 Q1008.76 60.4051 1008.76 71.0994 Q1008.76 81.7938 1003.57 88.3563 Q998.428 94.9188 990.165 94.9188 Q985.182 94.9188 981.577 92.9743 Q978.012 90.9894 975.662 86.9385 M1001.02 71.0994 Q1001.02 62.8761 997.618 58.2176 Q994.256 53.5185 988.342 53.5185 Q982.427 53.5185 979.025 58.2176 Q975.662 62.8761 975.662 71.0994 Q975.662 79.3228 979.025 84.0218 Q982.427 88.6804 988.342 88.6804 Q994.256 88.6804 997.618 84.0218 Q1001.02 79.3228 1001.02 71.0994 Z" fill="#000000" fill-rule="nonzero" fill-opacity="1" /><path clip-path="url(#clip750)" d="M1021.11 30.7119 L1028.57 30.7119 L1028.57 93.744 L1021.11 93.744 L1021.11 30.7119 Z" fill="#000000" fill-rule="nonzero" fill-opacity="1" /><path clip-path="url(#clip750)" d="M1082.97 69.1955 L1082.97 72.8413 L1048.7 72.8413 Q1049.19 80.5381 1053.32 84.589 Q1057.49 88.5994 1064.9 88.5994 Q1069.2 88.5994 1073.21 87.5461 Q1077.26 86.4929 1081.23 84.3864 L1081.23 91.435 Q1077.22 93.1364 1073.01 94.0276 Q1068.79 94.9188 1064.46 94.9188 Q1053.6 94.9188 1047.24 88.5994 Q1040.92 82.2799 1040.92 71.5045 Q1040.92 60.3645 1046.92 53.8426 Q1052.95 47.2801 1063.16 47.2801 Q1072.32 47.2801 1077.62 53.1944 Q1082.97 59.0683 1082.97 69.1955 M1075.52 67.008 Q1075.44 60.8912 1072.07 57.2454 Q1068.75 53.5995 1063.24 53.5995 Q1057 53.5995 1053.24 57.1238 Q1049.51 60.6481 1048.94 67.0485 L1075.52 67.008 Z" fill="#000000" fill-rule="nonzero" fill-opacity="1" /><path clip-path="url(#clip750)" d="M1122.71 33.264 L1154.83 33.264 L1154.83 40.1505 L1130.2 40.1505 L1130.2 54.9768 Q1131.99 54.3692 1133.77 54.0856 Q1135.55 53.7616 1137.33 53.7616 Q1147.46 53.7616 1153.38 59.3113 Q1159.29 64.8611 1159.29 74.3402 Q1159.29 84.1028 1153.21 89.5311 Q1147.14 94.9188 1136.08 94.9188 Q1132.27 94.9188 1128.3 94.2706 Q1124.37 93.6225 1120.16 92.3262 L1120.16 84.1028 Q1123.8 86.0878 1127.69 87.06 Q1131.58 88.0322 1135.92 88.0322 Q1142.92 88.0322 1147.02 84.3459 Q1151.11 80.6596 1151.11 74.3402 Q1151.11 68.0208 1147.02 64.3344 Q1142.92 60.6481 1135.92 60.6481 Q1132.63 60.6481 1129.35 61.3773 Q1126.11 62.1064 1122.71 63.6458 L1122.71 33.264 Z" fill="#000000" fill-rule="nonzero" fill-opacity="1" /><path clip-path="url(#clip750)" d="M1175.66 92.4882 L1175.66 85.0346 Q1178.73 86.4929 1181.89 87.2626 Q1185.05 88.0322 1188.09 88.0322 Q1196.19 88.0322 1200.45 82.604 Q1204.74 77.1353 1205.35 66.0358 Q1203 69.5196 1199.39 71.383 Q1195.79 73.2464 1191.41 73.2464 Q1182.34 73.2464 1177.03 67.7777 Q1171.77 62.2685 1171.77 52.7488 Q1171.77 43.4318 1177.28 37.801 Q1182.79 32.1703 1191.94 32.1703 Q1202.43 32.1703 1207.94 40.2316 Q1213.49 48.2523 1213.49 63.5648 Q1213.49 77.8645 1206.69 86.4119 Q1199.92 94.9188 1188.46 94.9188 Q1185.38 94.9188 1182.22 94.3111 Q1179.06 93.7035 1175.66 92.4882 M1191.94 66.846 Q1197.45 66.846 1200.65 63.0787 Q1203.89 59.3113 1203.89 52.7488 Q1203.89 46.2269 1200.65 42.4596 Q1197.45 38.6517 1191.94 38.6517 Q1186.43 38.6517 1183.19 42.4596 Q1179.99 46.2269 1179.99 52.7488 Q1179.99 59.3113 1183.19 63.0787 Q1186.43 66.846 1191.94 66.846 Z" fill="#000000" fill-rule="nonzero" fill-opacity="1" /><path clip-path="url(#clip750)" d="M1229.05 83.4547 L1237.59 83.4547 L1237.59 90.4223 L1230.95 103.385 L1225.72 103.385 L1229.05 90.4223 L1229.05 83.4547 Z" fill="#000000" fill-rule="nonzero" fill-opacity="1" /><path clip-path="url(#clip750)" d="M1325.5 37.9225 L1325.5 46.551 Q1321.37 42.7026 1316.67 40.7987 Q1312.01 38.8948 1306.74 38.8948 Q1296.37 38.8948 1290.86 45.2547 Q1285.35 51.5741 1285.35 63.5648 Q1285.35 75.5149 1290.86 81.8749 Q1296.37 88.1943 1306.74 88.1943 Q1312.01 88.1943 1316.67 86.2903 Q1321.37 84.3864 1325.5 80.5381 L1325.5 89.0855 Q1321.2 92.0021 1316.38 93.4604 Q1311.6 94.9188 1306.26 94.9188 Q1292.52 94.9188 1284.62 86.5334 Q1276.73 78.1075 1276.73 63.5648 Q1276.73 48.9815 1284.62 40.5961 Q1292.52 32.1703 1306.26 32.1703 Q1311.68 32.1703 1316.46 33.6286 Q1321.29 35.0464 1325.5 37.9225 Z" fill="#000000" fill-rule="nonzero" fill-opacity="1" /><path clip-path="url(#clip750)" d="M1337.81 30.7119 L1345.27 30.7119 L1345.27 93.744 L1337.81 93.744 L1337.81 30.7119 Z" fill="#000000" fill-rule="nonzero" fill-opacity="1" /><path clip-path="url(#clip750)" d="M1381.48 70.9374 Q1372.45 70.9374 1368.96 73.0034 Q1365.48 75.0693 1365.48 80.0519 Q1365.48 84.0218 1368.07 86.3714 Q1370.71 88.6804 1375.2 88.6804 Q1381.4 88.6804 1385.13 84.3054 Q1388.9 79.8899 1388.9 72.5983 L1388.9 70.9374 L1381.48 70.9374 M1396.35 67.8587 L1396.35 93.744 L1388.9 93.744 L1388.9 86.8575 Q1386.34 90.9894 1382.54 92.9743 Q1378.73 94.9188 1373.22 94.9188 Q1366.25 94.9188 1362.12 91.0299 Q1358.03 87.1005 1358.03 80.5381 Q1358.03 72.8818 1363.13 68.993 Q1368.28 65.1041 1378.44 65.1041 L1388.9 65.1041 L1388.9 64.3749 Q1388.9 59.2303 1385.49 56.4352 Q1382.13 53.5995 1376.01 53.5995 Q1372.12 53.5995 1368.44 54.5312 Q1364.75 55.463 1361.35 57.3264 L1361.35 50.4398 Q1365.44 48.86 1369.29 48.0903 Q1373.14 47.2801 1376.78 47.2801 Q1386.63 47.2801 1391.49 52.3843 Q1396.35 57.4884 1396.35 67.8587 Z" fill="#000000" fill-rule="nonzero" fill-opacity="1" /><path clip-path="url(#clip750)" d="M1440.63 49.7107 L1440.63 56.7592 Q1437.47 55.1389 1434.06 54.3287 Q1430.66 53.5185 1427.01 53.5185 Q1421.46 53.5185 1418.67 55.2199 Q1415.91 56.9213 1415.91 60.324 Q1415.91 62.9166 1417.9 64.4155 Q1419.88 65.8738 1425.88 67.2106 L1428.43 67.7777 Q1436.37 69.4791 1439.69 72.5983 Q1443.06 75.677 1443.06 81.2267 Q1443.06 87.5461 1438.03 91.2324 Q1433.05 94.9188 1424.3 94.9188 Q1420.65 94.9188 1416.68 94.1896 Q1412.75 93.5009 1408.38 92.0831 L1408.38 84.3864 Q1412.51 86.5334 1416.52 87.6271 Q1420.53 88.6804 1424.46 88.6804 Q1429.73 88.6804 1432.56 86.898 Q1435.4 85.0751 1435.4 81.7938 Q1435.4 78.7557 1433.33 77.1353 Q1431.31 75.5149 1424.38 74.0161 L1421.79 73.4085 Q1414.86 71.9501 1411.78 68.9525 Q1408.7 65.9143 1408.7 60.6481 Q1408.7 54.2477 1413.24 50.7639 Q1417.78 47.2801 1426.12 47.2801 Q1430.25 47.2801 1433.9 47.8878 Q1437.55 48.4954 1440.63 49.7107 Z" fill="#000000" fill-rule="nonzero" fill-opacity="1" /><path clip-path="url(#clip750)" d="M1483.85 49.7107 L1483.85 56.7592 Q1480.69 55.1389 1477.29 54.3287 Q1473.88 53.5185 1470.24 53.5185 Q1464.69 53.5185 1461.89 55.2199 Q1459.14 56.9213 1459.14 60.324 Q1459.14 62.9166 1461.12 64.4155 Q1463.11 65.8738 1469.1 67.2106 L1471.66 67.7777 Q1479.59 69.4791 1482.92 72.5983 Q1486.28 75.677 1486.28 81.2267 Q1486.28 87.5461 1481.26 91.2324 Q1476.27 94.9188 1467.52 94.9188 Q1463.88 94.9188 1459.91 94.1896 Q1455.98 93.5009 1451.6 92.0831 L1451.6 84.3864 Q1455.74 86.5334 1459.75 87.6271 Q1463.76 88.6804 1467.69 88.6804 Q1472.95 88.6804 1475.79 86.898 Q1478.62 85.0751 1478.62 81.7938 Q1478.62 78.7557 1476.56 77.1353 Q1474.53 75.5149 1467.6 74.0161 L1465.01 73.4085 Q1458.08 71.9501 1455.01 68.9525 Q1451.93 65.9143 1451.93 60.6481 Q1451.93 54.2477 1456.46 50.7639 Q1461 47.2801 1469.35 47.2801 Q1473.48 47.2801 1477.12 47.8878 Q1480.77 48.4954 1483.85 49.7107 Z" fill="#000000" fill-rule="nonzero" fill-opacity="1" /><path clip-path="url(#clip750)" d="M1543.07 38.6517 Q1536.75 38.6517 1533.55 44.8901 Q1530.39 51.088 1530.39 63.5648 Q1530.39 76.001 1533.55 82.2394 Q1536.75 88.4373 1543.07 88.4373 Q1549.43 88.4373 1552.59 82.2394 Q1555.79 76.001 1555.79 63.5648 Q1555.79 51.088 1552.59 44.8901 Q1549.43 38.6517 1543.07 38.6517 M1543.07 32.1703 Q1553.24 32.1703 1558.59 40.2316 Q1563.98 48.2523 1563.98 63.5648 Q1563.98 78.8367 1558.59 86.898 Q1553.24 94.9188 1543.07 94.9188 Q1532.9 94.9188 1527.52 86.898 Q1522.17 78.8367 1522.17 63.5648 Q1522.17 48.2523 1527.52 40.2316 Q1532.9 32.1703 1543.07 32.1703 Z" fill="#000000" fill-rule="nonzero" fill-opacity="1" /><path clip-path="url(#clip750)" d="M1579.21 83.4547 L1587.75 83.4547 L1587.75 90.4223 L1581.11 103.385 L1575.88 103.385 L1579.21 90.4223 L1579.21 83.4547 Z" fill="#000000" fill-rule="nonzero" fill-opacity="1" /><path clip-path="url(#clip750)" d="M1648.6 65.0231 Q1642.77 65.0231 1639.4 68.1423 Q1636.08 71.2615 1636.08 76.7302 Q1636.08 82.1989 1639.4 85.3181 Q1642.77 88.4373 1648.6 88.4373 Q1654.43 88.4373 1657.79 85.3181 Q1661.16 82.1584 1661.16 76.7302 Q1661.16 71.2615 1657.79 68.1423 Q1654.47 65.0231 1648.6 65.0231 M1640.42 61.5393 Q1635.15 60.243 1632.19 56.6377 Q1629.28 53.0324 1629.28 47.8473 Q1629.28 40.5961 1634.42 36.3832 Q1639.61 32.1703 1648.6 32.1703 Q1657.63 32.1703 1662.78 36.3832 Q1667.92 40.5961 1667.92 47.8473 Q1667.92 53.0324 1664.96 56.6377 Q1662.05 60.243 1656.82 61.5393 Q1662.74 62.9166 1666.02 66.927 Q1669.34 70.9374 1669.34 76.7302 Q1669.34 85.5207 1663.95 90.2197 Q1658.6 94.9188 1648.6 94.9188 Q1638.59 94.9188 1633.21 90.2197 Q1627.86 85.5207 1627.86 76.7302 Q1627.86 70.9374 1631.18 66.927 Q1634.5 62.9166 1640.42 61.5393 M1637.42 48.6169 Q1637.42 53.316 1640.33 55.9491 Q1643.29 58.5822 1648.6 58.5822 Q1653.86 58.5822 1656.82 55.9491 Q1659.82 53.316 1659.82 48.6169 Q1659.82 43.9179 1656.82 41.2848 Q1653.86 38.6517 1648.6 38.6517 Q1643.29 38.6517 1640.33 41.2848 Q1637.42 43.9179 1637.42 48.6169 Z" fill="#000000" fill-rule="nonzero" fill-opacity="1" /><path clip-path="url(#clip750)" d="M1685.3 86.8575 L1698.67 86.8575 L1698.67 40.7177 L1684.12 43.6343 L1684.12 36.1807 L1698.59 33.264 L1706.77 33.264 L1706.77 86.8575 L1720.14 86.8575 L1720.14 93.744 L1685.3 93.744 L1685.3 86.8575 Z" fill="#000000" fill-rule="nonzero" fill-opacity="1" /><path clip-path="url(#clip750)" d="M1731.84 67.6967 L1753.68 67.6967 L1753.68 74.3402 L1731.84 74.3402 L1731.84 67.6967 Z" fill="#000000" fill-rule="nonzero" fill-opacity="1" /><path clip-path="url(#clip750)" d="M1794.47 49.7107 L1794.47 56.7592 Q1791.31 55.1389 1787.91 54.3287 Q1784.51 53.5185 1780.86 53.5185 Q1775.31 53.5185 1772.52 55.2199 Q1769.76 56.9213 1769.76 60.324 Q1769.76 62.9166 1771.75 64.4155 Q1773.73 65.8738 1779.73 67.2106 L1782.28 67.7777 Q1790.22 69.4791 1793.54 72.5983 Q1796.9 75.677 1796.9 81.2267 Q1796.9 87.5461 1791.88 91.2324 Q1786.9 94.9188 1778.15 94.9188 Q1774.5 94.9188 1770.53 94.1896 Q1766.6 93.5009 1762.23 92.0831 L1762.23 84.3864 Q1766.36 86.5334 1770.37 87.6271 Q1774.38 88.6804 1778.31 88.6804 Q1783.57 88.6804 1786.41 86.898 Q1789.25 85.0751 1789.25 81.7938 Q1789.25 78.7557 1787.18 77.1353 Q1785.15 75.5149 1778.23 74.0161 L1775.63 73.4085 Q1768.71 71.9501 1765.63 68.9525 Q1762.55 65.9143 1762.55 60.6481 Q1762.55 54.2477 1767.09 50.7639 Q1771.62 47.2801 1779.97 47.2801 Q1784.1 47.2801 1787.75 47.8878 Q1791.39 48.4954 1794.47 49.7107 Z" fill="#000000" fill-rule="nonzero" fill-opacity="1" /><path clip-path="url(#clip750)" d="M1808.77 48.3739 L1816.22 48.3739 L1816.22 93.744 L1808.77 93.744 L1808.77 48.3739 M1808.77 30.7119 L1816.22 30.7119 L1816.22 40.1505 L1808.77 40.1505 L1808.77 30.7119 Z" fill="#000000" fill-rule="nonzero" fill-opacity="1" /><path clip-path="url(#clip750)" d="M1839.19 35.492 L1839.19 48.3739 L1854.55 48.3739 L1854.55 54.1667 L1839.19 54.1667 L1839.19 78.7962 Q1839.19 84.3459 1840.69 85.9258 Q1842.23 87.5056 1846.89 87.5056 L1854.55 87.5056 L1854.55 93.744 L1846.89 93.744 Q1838.26 93.744 1834.98 90.5438 Q1831.7 87.3031 1831.7 78.7962 L1831.7 54.1667 L1826.23 54.1667 L1826.23 48.3739 L1831.7 48.3739 L1831.7 35.492 L1839.19 35.492 Z" fill="#000000" fill-rule="nonzero" fill-opacity="1" /><path clip-path="url(#clip750)" d="M1903.16 69.1955 L1903.16 72.8413 L1868.89 72.8413 Q1869.37 80.5381 1873.5 84.589 Q1877.68 88.5994 1885.09 88.5994 Q1889.38 88.5994 1893.39 87.5461 Q1897.45 86.4929 1901.42 84.3864 L1901.42 91.435 Q1897.41 93.1364 1893.19 94.0276 Q1888.98 94.9188 1884.64 94.9188 Q1873.79 94.9188 1867.43 88.5994 Q1861.11 82.2799 1861.11 71.5045 Q1861.11 60.3645 1867.1 53.8426 Q1873.14 47.2801 1883.35 47.2801 Q1892.5 47.2801 1897.81 53.1944 Q1903.16 59.0683 1903.16 69.1955 M1895.7 67.008 Q1895.62 60.8912 1892.26 57.2454 Q1888.94 53.5995 1883.43 53.5995 Q1877.19 53.5995 1873.42 57.1238 Q1869.7 60.6481 1869.13 67.0485 L1895.7 67.008 Z" fill="#000000" fill-rule="nonzero" fill-opacity="1" /><path clip-path="url(#clip750)" d="M1942.09 33.264 L1950.27 33.264 L1950.27 93.744 L1942.09 93.744 L1942.09 33.264 Z" fill="#000000" fill-rule="nonzero" fill-opacity="1" /><path clip-path="url(#clip750)" d="M2001.55 57.0833 Q2004.35 52.0602 2008.24 49.6702 Q2012.13 47.2801 2017.39 47.2801 Q2024.48 47.2801 2028.33 52.2627 Q2032.18 57.2048 2032.18 66.3599 L2032.18 93.744 L2024.68 93.744 L2024.68 66.6029 Q2024.68 60.081 2022.38 56.9213 Q2020.07 53.7616 2015.33 53.7616 Q2009.53 53.7616 2006.17 57.6099 Q2002.81 61.4583 2002.81 68.1018 L2002.81 93.744 L1995.32 93.744 L1995.32 66.6029 Q1995.32 60.0405 1993.01 56.9213 Q1990.7 53.7616 1985.88 53.7616 Q1980.17 53.7616 1976.8 57.6504 Q1973.44 61.4988 1973.44 68.1018 L1973.44 93.744 L1965.95 93.744 L1965.95 48.3739 L1973.44 48.3739 L1973.44 55.4224 Q1975.99 51.25 1979.56 49.2651 Q1983.12 47.2801 1988.02 47.2801 Q1992.97 47.2801 1996.41 49.7917 Q1999.89 52.3032 2001.55 57.0833 Z" fill="#000000" fill-rule="nonzero" fill-opacity="1" /><path clip-path="url(#clip750)" d="M2054.26 86.9385 L2054.26 111.001 L2046.76 111.001 L2046.76 48.3739 L2054.26 48.3739 L2054.26 55.2604 Q2056.61 51.2095 2060.17 49.2651 Q2063.78 47.2801 2068.76 47.2801 Q2077.02 47.2801 2082.17 53.8426 Q2087.35 60.4051 2087.35 71.0994 Q2087.35 81.7938 2082.17 88.3563 Q2077.02 94.9188 2068.76 94.9188 Q2063.78 94.9188 2060.17 92.9743 Q2056.61 90.9894 2054.26 86.9385 M2079.61 71.0994 Q2079.61 62.8761 2076.21 58.2176 Q2072.85 53.5185 2066.94 53.5185 Q2061.02 53.5185 2057.62 58.2176 Q2054.26 62.8761 2054.26 71.0994 Q2054.26 79.3228 2057.62 84.0218 Q2061.02 88.6804 2066.94 88.6804 Q2072.85 88.6804 2076.21 84.0218 Q2079.61 79.3228 2079.61 71.0994 Z" fill="#000000" fill-rule="nonzero" fill-opacity="1" /><path clip-path="url(#clip750)" d="M2098.94 75.839 L2098.94 48.3739 L2106.39 48.3739 L2106.39 75.5554 Q2106.39 81.9964 2108.9 85.2371 Q2111.41 88.4373 2116.44 88.4373 Q2122.47 88.4373 2125.96 84.589 Q2129.48 80.7406 2129.48 74.0971 L2129.48 48.3739 L2136.94 48.3739 L2136.94 93.744 L2129.48 93.744 L2129.48 86.7764 Q2126.77 90.9084 2123.16 92.9338 Q2119.6 94.9188 2114.86 94.9188 Q2107.04 94.9188 2102.99 90.0577 Q2098.94 85.1966 2098.94 75.839 M2117.69 47.2801 L2117.69 47.2801 Z" fill="#000000" fill-rule="nonzero" fill-opacity="1" /><path clip-path="url(#clip750)" d="M2159.66 35.492 L2159.66 48.3739 L2175.01 48.3739 L2175.01 54.1667 L2159.66 54.1667 L2159.66 78.7962 Q2159.66 84.3459 2161.16 85.9258 Q2162.7 87.5056 2167.36 87.5056 L2175.01 87.5056 L2175.01 93.744 L2167.36 93.744 Q2158.73 93.744 2155.45 90.5438 Q2152.17 87.3031 2152.17 78.7962 L2152.17 54.1667 L2146.7 54.1667 L2146.7 48.3739 L2152.17 48.3739 L2152.17 35.492 L2159.66 35.492 Z" fill="#000000" fill-rule="nonzero" fill-opacity="1" /><path clip-path="url(#clip750)" d="M2205.44 70.9374 Q2196.4 70.9374 2192.92 73.0034 Q2189.43 75.0693 2189.43 80.0519 Q2189.43 84.0218 2192.03 86.3714 Q2194.66 88.6804 2199.16 88.6804 Q2205.35 88.6804 2209.08 84.3054 Q2212.85 79.8899 2212.85 72.5983 L2212.85 70.9374 L2205.44 70.9374 M2220.3 67.8587 L2220.3 93.744 L2212.85 93.744 L2212.85 86.8575 Q2210.3 90.9894 2206.49 92.9743 Q2202.68 94.9188 2197.17 94.9188 Q2190.2 94.9188 2186.07 91.0299 Q2181.98 87.1005 2181.98 80.5381 Q2181.98 72.8818 2187.09 68.993 Q2192.23 65.1041 2202.4 65.1041 L2212.85 65.1041 L2212.85 64.3749 Q2212.85 59.2303 2209.45 56.4352 Q2206.08 53.5995 2199.97 53.5995 Q2196.08 53.5995 2192.39 54.5312 Q2188.71 55.463 2185.3 57.3264 L2185.3 50.4398 Q2189.39 48.86 2193.24 48.0903 Q2197.09 47.2801 2200.74 47.2801 Q2210.58 47.2801 2215.44 52.3843 Q2220.3 57.4884 2220.3 67.8587 Z" fill="#000000" fill-rule="nonzero" fill-opacity="1" /><path clip-path="url(#clip750)" d="M2243.03 35.492 L2243.03 48.3739 L2258.38 48.3739 L2258.38 54.1667 L2243.03 54.1667 L2243.03 78.7962 Q2243.03 84.3459 2244.53 85.9258 Q2246.07 87.5056 2250.72 87.5056 L2258.38 87.5056 L2258.38 93.744 L2250.72 93.744 Q2242.1 93.744 2238.82 90.5438 Q2235.53 87.3031 2235.53 78.7962 L2235.53 54.1667 L2230.07 54.1667 L2230.07 48.3739 L2235.53 48.3739 L2235.53 35.492 L2243.03 35.492 Z" fill="#000000" fill-rule="nonzero" fill-opacity="1" /><path clip-path="url(#clip750)" d="M2268.18 48.3739 L2275.64 48.3739 L2275.64 93.744 L2268.18 93.744 L2268.18 48.3739 M2268.18 30.7119 L2275.64 30.7119 L2275.64 40.1505 L2268.18 40.1505 L2268.18 30.7119 Z" fill="#000000" fill-rule="nonzero" fill-opacity="1" /><path clip-path="url(#clip750)" d="M2308.81 53.5995 Q2302.82 53.5995 2299.34 58.2986 Q2295.85 62.9571 2295.85 71.0994 Q2295.85 79.2418 2299.3 83.9408 Q2302.78 88.5994 2308.81 88.5994 Q2314.77 88.5994 2318.25 83.9003 Q2321.74 79.2013 2321.74 71.0994 Q2321.74 63.0381 2318.25 58.3391 Q2314.77 53.5995 2308.81 53.5995 M2308.81 47.2801 Q2318.54 47.2801 2324.09 53.5995 Q2329.64 59.9189 2329.64 71.0994 Q2329.64 82.2394 2324.09 88.5994 Q2318.54 94.9188 2308.81 94.9188 Q2299.05 94.9188 2293.5 88.5994 Q2287.99 82.2394 2287.99 71.0994 Q2287.99 59.9189 2293.5 53.5995 Q2299.05 47.2801 2308.81 47.2801 Z" fill="#000000" fill-rule="nonzero" fill-opacity="1" /><path clip-path="url(#clip750)" d="M2379.71 66.3599 L2379.71 93.744 L2372.25 93.744 L2372.25 66.6029 Q2372.25 60.162 2369.74 56.9618 Q2367.23 53.7616 2362.21 53.7616 Q2356.17 53.7616 2352.69 57.6099 Q2349.2 61.4583 2349.2 68.1018 L2349.2 93.744 L2341.71 93.744 L2341.71 48.3739 L2349.2 48.3739 L2349.2 55.4224 Q2351.88 51.331 2355.48 49.3056 Q2359.13 47.2801 2363.87 47.2801 Q2371.68 47.2801 2375.7 52.1412 Q2379.71 56.9618 2379.71 66.3599 Z" fill="#000000" fill-rule="nonzero" fill-opacity="1" /><path clip-path="url(#clip750)" d="M2396.48 83.4547 L2405.02 83.4547 L2405.02 90.4223 L2398.38 103.385 L2393.15 103.385 L2396.48 90.4223 L2396.48 83.4547 Z" fill="#000000" fill-rule="nonzero" fill-opacity="1" /><path clip-path="url(#clip750)" d="M1081.76 145.98 L1081.76 121.432 L1089.21 121.432 L1089.21 184.464 L1081.76 184.464 L1081.76 177.658 Q1079.41 181.709 1075.8 183.694 Q1072.24 185.639 1067.21 185.639 Q1058.99 185.639 1053.8 179.076 Q1048.66 172.514 1048.66 161.819 Q1048.66 151.125 1053.8 144.563 Q1058.99 138 1067.21 138 Q1072.24 138 1075.8 139.985 Q1079.41 141.93 1081.76 145.98 M1056.36 161.819 Q1056.36 170.043 1059.72 174.742 Q1063.12 179.4 1069.04 179.4 Q1074.95 179.4 1078.35 174.742 Q1081.76 170.043 1081.76 161.819 Q1081.76 153.596 1078.35 148.938 Q1074.95 144.239 1069.04 144.239 Q1063.12 144.239 1059.72 148.938 Q1056.36 153.596 1056.36 161.819 Z" fill="#000000" fill-rule="nonzero" fill-opacity="1" /><path clip-path="url(#clip750)" d="M1131.91 146.791 L1183.84 146.791 L1183.84 153.596 L1131.91 153.596 L1131.91 146.791 M1131.91 163.318 L1183.84 163.318 L1183.84 170.205 L1131.91 170.205 L1131.91 163.318 Z" fill="#000000" fill-rule="nonzero" fill-opacity="1" /><path clip-path="url(#clip750)" d="M1229.29 177.577 L1242.66 177.577 L1242.66 131.438 L1228.11 134.354 L1228.11 126.901 L1242.58 123.984 L1250.76 123.984 L1250.76 177.577 L1264.13 177.577 L1264.13 184.464 L1229.29 184.464 L1229.29 177.577 Z" fill="#000000" fill-rule="nonzero" fill-opacity="1" /><path clip-path="url(#clip750)" d="M1298.15 129.372 Q1291.84 129.372 1288.64 135.61 Q1285.48 141.808 1285.48 154.285 Q1285.48 166.721 1288.64 172.959 Q1291.84 179.157 1298.15 179.157 Q1304.51 179.157 1307.67 172.959 Q1310.87 166.721 1310.87 154.285 Q1310.87 141.808 1307.67 135.61 Q1304.51 129.372 1298.15 129.372 M1298.15 122.89 Q1308.32 122.89 1313.67 130.952 Q1319.06 138.972 1319.06 154.285 Q1319.06 169.557 1313.67 177.618 Q1308.32 185.639 1298.15 185.639 Q1287.99 185.639 1282.6 177.618 Q1277.25 169.557 1277.25 154.285 Q1277.25 138.972 1282.6 130.952 Q1287.99 122.89 1298.15 122.89 Z" fill="#000000" fill-rule="nonzero" fill-opacity="1" /><path clip-path="url(#clip750)" d="M1334.29 174.175 L1342.84 174.175 L1342.84 181.142 L1336.19 194.105 L1330.97 194.105 L1334.29 181.142 L1334.29 174.175 Z" fill="#000000" fill-rule="nonzero" fill-opacity="1" /><path clip-path="url(#clip750)" d="M1406.96 194.591 L1400.93 179.076 L1388.49 201.761 L1379.7 201.761 L1397.28 169.678 L1389.91 150.598 Q1387.92 145.494 1381.68 145.494 L1379.7 145.494 L1379.7 139.094 L1382.54 139.175 Q1392.99 139.458 1395.62 146.223 L1401.61 161.738 L1414.05 139.053 L1422.84 139.053 L1405.26 171.137 L1412.63 190.216 Q1414.62 195.32 1420.86 195.32 L1422.84 195.32 L1422.84 201.721 L1420.01 201.64 Q1409.55 201.356 1406.96 194.591 Z" fill="#000000" fill-rule="nonzero" fill-opacity="1" /><path clip-path="url(#clip750)" d="M1460.39 146.791 L1512.33 146.791 L1512.33 153.596 L1460.39 153.596 L1460.39 146.791 M1460.39 163.318 L1512.33 163.318 L1512.33 170.205 L1460.39 170.205 L1460.39 163.318 Z" fill="#000000" fill-rule="nonzero" fill-opacity="1" /><path clip-path="url(#clip750)" d="M1578.84 131.114 L1558.18 163.399 L1578.84 163.399 L1578.84 131.114 M1576.7 123.984 L1586.98 123.984 L1586.98 163.399 L1595.61 163.399 L1595.61 170.205 L1586.98 170.205 L1586.98 184.464 L1578.84 184.464 L1578.84 170.205 L1551.54 170.205 L1551.54 162.306 L1576.7 123.984 Z" fill="#000000" fill-rule="nonzero" fill-opacity="1" /><path clip-path="url(#clip750)" d="M1626.64 129.372 Q1620.32 129.372 1617.12 135.61 Q1613.96 141.808 1613.96 154.285 Q1613.96 166.721 1617.12 172.959 Q1620.32 179.157 1626.64 179.157 Q1633 179.157 1636.16 172.959 Q1639.36 166.721 1639.36 154.285 Q1639.36 141.808 1636.16 135.61 Q1633 129.372 1626.64 129.372 M1626.64 122.89 Q1636.81 122.89 1642.16 130.952 Q1647.55 138.972 1647.55 154.285 Q1647.55 169.557 1642.16 177.618 Q1636.81 185.639 1626.64 185.639 Q1616.47 185.639 1611.09 177.618 Q1605.74 169.557 1605.74 154.285 Q1605.74 138.972 1611.09 130.952 Q1616.47 122.89 1626.64 122.89 Z" fill="#000000" fill-rule="nonzero" fill-opacity="1" /><path clip-path="url(#clip750)" d="M1662.78 174.175 L1671.32 174.175 L1671.32 181.142 L1664.68 194.105 L1659.45 194.105 L1662.78 181.142 L1662.78 174.175 Z" fill="#000000" fill-rule="nonzero" fill-opacity="1" /><path clip-path="url(#clip750)" d="M1713.94 123.984 L1722.12 123.984 L1722.12 177.577 L1751.57 177.577 L1751.57 184.464 L1713.94 184.464 L1713.94 123.984 Z" fill="#000000" fill-rule="nonzero" fill-opacity="1" /><path clip-path="url(#clip750)" d="M1797.19 159.916 L1797.19 163.561 L1762.92 163.561 Q1763.4 171.258 1767.53 175.309 Q1771.71 179.319 1779.12 179.319 Q1783.41 179.319 1787.42 178.266 Q1791.47 177.213 1795.44 175.106 L1795.44 182.155 Q1791.43 183.856 1787.22 184.748 Q1783.01 185.639 1778.67 185.639 Q1767.82 185.639 1761.46 179.319 Q1755.14 173 1755.14 162.225 Q1755.14 151.085 1761.13 144.563 Q1767.17 138 1777.38 138 Q1786.53 138 1791.84 143.914 Q1797.19 149.788 1797.19 159.916 M1789.73 157.728 Q1789.65 151.611 1786.29 147.965 Q1782.97 144.32 1777.46 144.32 Q1771.22 144.32 1767.45 147.844 Q1763.73 151.368 1763.16 157.769 L1789.73 157.728 Z" fill="#000000" fill-rule="nonzero" fill-opacity="1" /><path clip-path="url(#clip750)" d="M1839.27 161.252 Q1839.27 153.151 1835.91 148.695 Q1832.59 144.239 1826.55 144.239 Q1820.56 144.239 1817.2 148.695 Q1813.88 153.151 1813.88 161.252 Q1813.88 169.314 1817.2 173.77 Q1820.56 178.226 1826.55 178.226 Q1832.59 178.226 1835.91 173.77 Q1839.27 169.314 1839.27 161.252 M1846.73 178.833 Q1846.73 190.419 1841.58 196.05 Q1836.44 201.721 1825.83 201.721 Q1821.9 201.721 1818.41 201.113 Q1814.93 200.546 1811.65 199.331 L1811.65 192.08 Q1814.93 193.862 1818.13 194.713 Q1821.33 195.563 1824.65 195.563 Q1831.98 195.563 1835.63 191.715 Q1839.27 187.907 1839.27 180.17 L1839.27 176.484 Q1836.97 180.494 1833.36 182.479 Q1829.75 184.464 1824.73 184.464 Q1816.39 184.464 1811.28 178.104 Q1806.18 171.744 1806.18 161.252 Q1806.18 150.72 1811.28 144.36 Q1816.39 138 1824.73 138 Q1829.75 138 1833.36 139.985 Q1836.97 141.97 1839.27 145.98 L1839.27 139.094 L1846.73 139.094 L1846.73 178.833 Z" fill="#000000" fill-rule="nonzero" fill-opacity="1" /><path clip-path="url(#clip750)" d="M1900.89 159.916 L1900.89 163.561 L1866.62 163.561 Q1867.1 171.258 1871.24 175.309 Q1875.41 179.319 1882.82 179.319 Q1887.12 179.319 1891.13 178.266 Q1895.18 177.213 1899.15 175.106 L1899.15 182.155 Q1895.14 183.856 1890.92 184.748 Q1886.71 185.639 1882.38 185.639 Q1871.52 185.639 1865.16 179.319 Q1858.84 173 1858.84 162.225 Q1858.84 151.085 1864.84 144.563 Q1870.87 138 1881.08 138 Q1890.23 138 1895.54 143.914 Q1900.89 149.788 1900.89 159.916 M1893.44 157.728 Q1893.35 151.611 1889.99 147.965 Q1886.67 144.32 1881.16 144.32 Q1874.92 144.32 1871.16 147.844 Q1867.43 151.368 1866.86 157.769 L1893.44 157.728 Z" fill="#000000" fill-rule="nonzero" fill-opacity="1" /><path clip-path="url(#clip750)" d="M1950.84 157.08 L1950.84 184.464 L1943.38 184.464 L1943.38 157.323 Q1943.38 150.882 1940.87 147.682 Q1938.36 144.482 1933.34 144.482 Q1927.3 144.482 1923.82 148.33 Q1920.33 152.178 1920.33 158.822 L1920.33 184.464 L1912.84 184.464 L1912.84 139.094 L1920.33 139.094 L1920.33 146.142 Q1923.01 142.051 1926.61 140.026 Q1930.26 138 1935 138 Q1942.82 138 1946.83 142.861 Q1950.84 147.682 1950.84 157.08 Z" fill="#000000" fill-rule="nonzero" fill-opacity="1" /><path clip-path="url(#clip750)" d="M1995.56 145.98 L1995.56 121.432 L2003.01 121.432 L2003.01 184.464 L1995.56 184.464 L1995.56 177.658 Q1993.21 181.709 1989.6 183.694 Q1986.04 185.639 1981.02 185.639 Q1972.79 185.639 1967.61 179.076 Q1962.46 172.514 1962.46 161.819 Q1962.46 151.125 1967.61 144.563 Q1972.79 138 1981.02 138 Q1986.04 138 1989.6 139.985 Q1993.21 141.93 1995.56 145.98 M1970.16 161.819 Q1970.16 170.043 1973.52 174.742 Q1976.92 179.4 1982.84 179.4 Q1988.75 179.4 1992.16 174.742 Q1995.56 170.043 1995.56 161.819 Q1995.56 153.596 1992.16 148.938 Q1988.75 144.239 1982.84 144.239 Q1976.92 144.239 1973.52 148.938 Q1970.16 153.596 1970.16 161.819 Z" fill="#000000" fill-rule="nonzero" fill-opacity="1" /><path clip-path="url(#clip750)" d="M2044.66 146.061 Q2043.4 145.332 2041.9 145.008 Q2040.44 144.644 2038.66 144.644 Q2032.34 144.644 2028.94 148.776 Q2025.58 152.867 2025.58 160.564 L2025.58 184.464 L2018.08 184.464 L2018.08 139.094 L2025.58 139.094 L2025.58 146.142 Q2027.93 142.011 2031.69 140.026 Q2035.46 138 2040.85 138 Q2041.62 138 2042.55 138.122 Q2043.48 138.203 2044.61 138.405 L2044.66 146.061 Z" fill="#000000" fill-rule="nonzero" fill-opacity="1" /><path clip-path="url(#clip750)" d="M2089.46 159.916 L2089.46 163.561 L2055.19 163.561 Q2055.67 171.258 2059.81 175.309 Q2063.98 179.319 2071.39 179.319 Q2075.69 179.319 2079.7 178.266 Q2083.75 177.213 2087.72 175.106 L2087.72 182.155 Q2083.71 183.856 2079.49 184.748 Q2075.28 185.639 2070.95 185.639 Q2060.09 185.639 2053.73 179.319 Q2047.41 173 2047.41 162.225 Q2047.41 151.085 2053.41 144.563 Q2059.44 138 2069.65 138 Q2078.8 138 2084.11 143.914 Q2089.46 149.788 2089.46 159.916 M2082 157.728 Q2081.92 151.611 2078.56 147.965 Q2075.24 144.32 2069.73 144.32 Q2063.49 144.32 2059.72 147.844 Q2056 151.368 2055.43 157.769 L2082 157.728 Z" fill="#000000" fill-rule="nonzero" fill-opacity="1" /><path clip-path="url(#clip750)" d="M2166.87 159.916 L2166.87 163.561 L2132.6 163.561 Q2133.09 171.258 2137.22 175.309 Q2141.39 179.319 2148.8 179.319 Q2153.1 179.319 2157.11 178.266 Q2161.16 177.213 2165.13 175.106 L2165.13 182.155 Q2161.12 183.856 2156.91 184.748 Q2152.69 185.639 2148.36 185.639 Q2137.5 185.639 2131.14 179.319 Q2124.82 173 2124.82 162.225 Q2124.82 151.085 2130.82 144.563 Q2136.85 138 2147.06 138 Q2156.22 138 2161.52 143.914 Q2166.87 149.788 2166.87 159.916 M2159.42 157.728 Q2159.34 151.611 2155.97 147.965 Q2152.65 144.32 2147.14 144.32 Q2140.9 144.32 2137.14 147.844 Q2133.41 151.368 2132.84 157.769 L2159.42 157.728 Z" fill="#000000" fill-rule="nonzero" fill-opacity="1" /><path clip-path="url(#clip750)" d="M2216.82 157.08 L2216.82 184.464 L2209.37 184.464 L2209.37 157.323 Q2209.37 150.882 2206.85 147.682 Q2204.34 144.482 2199.32 144.482 Q2193.28 144.482 2189.8 148.33 Q2186.32 152.178 2186.32 158.822 L2186.32 184.464 L2178.82 184.464 L2178.82 139.094 L2186.32 139.094 L2186.32 146.142 Q2188.99 142.051 2192.59 140.026 Q2196.24 138 2200.98 138 Q2208.8 138 2212.81 142.861 Q2216.82 147.682 2216.82 157.08 Z" fill="#000000" fill-rule="nonzero" fill-opacity="1" /><path clip-path="url(#clip750)" d="M2264.34 140.836 L2264.34 147.803 Q2261.18 146.061 2257.98 145.211 Q2254.82 144.32 2251.58 144.32 Q2244.32 144.32 2240.31 148.938 Q2236.3 153.515 2236.3 161.819 Q2236.3 170.124 2240.31 174.742 Q2244.32 179.319 2251.58 179.319 Q2254.82 179.319 2257.98 178.469 Q2261.18 177.577 2264.34 175.836 L2264.34 182.722 Q2261.22 184.18 2257.85 184.91 Q2254.53 185.639 2250.77 185.639 Q2240.52 185.639 2234.48 179.198 Q2228.44 172.757 2228.44 161.819 Q2228.44 150.72 2234.52 144.36 Q2240.64 138 2251.25 138 Q2254.69 138 2257.98 138.729 Q2261.26 139.418 2264.34 140.836 Z" fill="#000000" fill-rule="nonzero" fill-opacity="1" /><path clip-path="url(#clip750)" d="M2294.88 144.32 Q2288.88 144.32 2285.4 149.019 Q2281.92 153.677 2281.92 161.819 Q2281.92 169.962 2285.36 174.661 Q2288.84 179.319 2294.88 179.319 Q2300.83 179.319 2304.32 174.62 Q2307.8 169.921 2307.8 161.819 Q2307.8 153.758 2304.32 149.059 Q2300.83 144.32 2294.88 144.32 M2294.88 138 Q2304.6 138 2310.15 144.32 Q2315.7 150.639 2315.7 161.819 Q2315.7 172.959 2310.15 179.319 Q2304.6 185.639 2294.88 185.639 Q2285.12 185.639 2279.57 179.319 Q2274.06 172.959 2274.06 161.819 Q2274.06 150.639 2279.57 144.32 Q2285.12 138 2294.88 138 Z" fill="#000000" fill-rule="nonzero" fill-opacity="1" /><path clip-path="url(#clip750)" d="M2357.91 145.98 L2357.91 121.432 L2365.37 121.432 L2365.37 184.464 L2357.91 184.464 L2357.91 177.658 Q2355.56 181.709 2351.96 183.694 Q2348.39 185.639 2343.37 185.639 Q2335.15 185.639 2329.96 179.076 Q2324.82 172.514 2324.82 161.819 Q2324.82 151.125 2329.96 144.563 Q2335.15 138 2343.37 138 Q2348.39 138 2351.96 139.985 Q2355.56 141.93 2357.91 145.98 M2332.51 161.819 Q2332.51 170.043 2335.87 174.742 Q2339.28 179.4 2345.19 179.4 Q2351.11 179.4 2354.51 174.742 Q2357.91 170.043 2357.91 161.819 Q2357.91 153.596 2354.51 148.938 Q2351.11 144.239 2345.19 144.239 Q2339.28 144.239 2335.87 148.938 Q2332.51 153.596 2332.51 161.819 Z" fill="#000000" fill-rule="nonzero" fill-opacity="1" /><path clip-path="url(#clip750)" d="M2380.72 139.094 L2388.17 139.094 L2388.17 184.464 L2380.72 184.464 L2380.72 139.094 M2380.72 121.432 L2388.17 121.432 L2388.17 130.871 L2380.72 130.871 L2380.72 121.432 Z" fill="#000000" fill-rule="nonzero" fill-opacity="1" /><path clip-path="url(#clip750)" d="M2441.48 157.08 L2441.48 184.464 L2434.03 184.464 L2434.03 157.323 Q2434.03 150.882 2431.52 147.682 Q2429.01 144.482 2423.98 144.482 Q2417.95 144.482 2414.46 148.33 Q2410.98 152.178 2410.98 158.822 L2410.98 184.464 L2403.48 184.464 L2403.48 139.094 L2410.98 139.094 L2410.98 146.142 Q2413.65 142.051 2417.26 140.026 Q2420.9 138 2425.64 138 Q2433.46 138 2437.47 142.861 Q2441.48 147.682 2441.48 157.08 Z" fill="#000000" fill-rule="nonzero" fill-opacity="1" /><path clip-path="url(#clip750)" d="M2486.2 161.252 Q2486.2 153.151 2482.84 148.695 Q2479.52 144.239 2473.48 144.239 Q2467.49 144.239 2464.13 148.695 Q2460.8 153.151 2460.8 161.252 Q2460.8 169.314 2464.13 173.77 Q2467.49 178.226 2473.48 178.226 Q2479.52 178.226 2482.84 173.77 Q2486.2 169.314 2486.2 161.252 M2493.66 178.833 Q2493.66 190.419 2488.51 196.05 Q2483.37 201.721 2472.76 201.721 Q2468.83 201.721 2465.34 201.113 Q2461.86 200.546 2458.58 199.331 L2458.58 192.08 Q2461.86 193.862 2465.06 194.713 Q2468.26 195.563 2471.58 195.563 Q2478.91 195.563 2482.56 191.715 Q2486.2 187.907 2486.2 180.17 L2486.2 176.484 Q2483.9 180.494 2480.29 182.479 Q2476.68 184.464 2471.66 184.464 Q2463.32 184.464 2458.21 178.104 Q2453.11 171.744 2453.11 161.252 Q2453.11 150.72 2458.21 144.36 Q2463.32 138 2471.66 138 Q2476.68 138 2480.29 139.985 Q2483.9 141.97 2486.2 145.98 L2486.2 139.094 L2493.66 139.094 L2493.66 178.833 Z" fill="#000000" fill-rule="nonzero" fill-opacity="1" /><path clip-path="url(#clip752)" d="M318.773 1183.04 L344.872 1217.92 L370.97 1151.37 L397.068 1216.05 L423.167 1214.83 L449.265 1434.82 L475.363 1487.98 L501.462 1484.79 L527.56 1619.74 L553.658 1693.57 L579.757 1732.56 L605.855 1727.49 L631.953 1702.44 L658.052 1662.59 L684.15 1585.77 L710.248 1478.31 L736.347 1412.41 L762.445 1274 L788.543 1199.3 L814.642 1131.43 L840.74 1057.94 L866.839 1046.02 L892.937 1028.64 L919.035 1085.86 L945.134 1155.43 L971.232 1212.45 L997.33 1286.2 L1023.43 1390.74 L1049.53 1467.83 L1075.63 1513.61 L1101.72 1543.38 L1127.82 1565.41 L1153.92 1528.17 L1180.02 1479.14 L1206.12 1427.98 L1232.22 1295.35 L1258.31 1206.99 L1284.41 1105.89 L1310.51 995.107 L1336.61 927.481 L1362.71 884.844 L1388.81 852.006 L1414.9 850.579 L1441 899.948 L1467.1 946.297 L1493.2 1001.36 L1519.3 1148.52 L1545.4 1213.51 L1571.49 1269.79 L1597.59 1348.63 L1623.69 1382.77 L1649.79 1374.92 L1675.89 1348.98 L1701.99 1282.3 L1728.08 1216.53 L1754.18 1140.15 L1780.28 999.308 L1806.38 914.621 L1832.48 796.894 L1858.58 704.446 L1884.67 673.04 L1910.77 660.266 L1936.87 653.855 L1962.97 682.601 L1989.07 718.093 L2015.17 847.014 L2041.26 916.433 L2067.36 988.448 L2093.46 1089.48 L2119.56 1158.96 L2145.66 1193.07 L2171.76 1190.7 L2197.85 1165.35 L2223.95 1104.42 L2250.05 1013.17 L2276.15 941.615 L2302.25 826.16 L2328.35 707.352 L2354.44 639.206 L2380.54 497.831 L2406.64 468.054 L2432.74 441.902 L2458.84 442.265 L2484.94 461.881 L2511.03 563.512 L2537.13 643.349 L2563.23 722.668 L2589.33 855.897 L2615.43 919.421 L2641.53 963.38 L2667.62 968.123 L2693.72 898.051 L2719.82 892.48 L2745.92 807.06 L2772.02 745.171 L2798.12 597.376 L2824.21 517.88 L2850.31 437.474 L2876.41 329.333 L2902.51 280.057 L2902.51 280.057 L2876.41 329.333 L2850.31 437.474 L2824.21 517.88 L2798.12 597.376 L2772.02 745.171 L2745.92 807.06 L2719.82 892.48 L2693.72 898.051 L2667.62 968.123 L2641.53 824.606 L2615.43 780.529 L2589.33 709.065 L2563.23 590.096 L2537.13 517.855 L2511.03 437.327 L2484.94 363.059 L2458.84 346.598 L2432.74 346.443 L2406.64 367.762 L2380.54 387.872 L2354.44 513.366 L2328.35 579.864 L2302.25 677.004 L2276.15 803.388 L2250.05 864.92 L2223.95 950.44 L2197.85 1019.66 L2171.76 1050.41 L2145.66 1053.05 L2119.56 1012.06 L2093.46 934.478 L2067.36 845.282 L2041.26 775.058 L2015.17 697.75 L1989.07 586.557 L1962.97 557.663 L1936.87 529.099 L1910.77 536.67 L1884.67 549.271 L1858.58 577.246 L1832.48 651.376 L1806.38 774.281 L1780.28 853.238 L1754.18 988.416 L1728.08 1077.4 L1701.99 1137.64 L1675.89 1201.98 L1649.79 1230.59 L1623.69 1239.66 L1597.59 1201.29 L1571.49 1127.03 L1545.4 1074.73 L1519.3 998.859 L1493.2 854.636 L1467.1 806.993 L1441 757.019 L1414.9 702.989 L1388.81 704.842 L1362.71 740.534 L1336.61 789.213 L1310.51 849.843 L1284.41 950.693 L1258.31 1066.41 L1232.22 1148.07 L1206.12 1295.78 L1180.02 1354.06 L1153.92 1400.14 L1127.82 1436.61 L1101.72 1414.97 L1075.63 1385.01 L1049.53 1341.38 L1023.43 1247.22 L997.33 1135.47 L971.232 1072.85 L945.134 1006.97 L919.035 931.538 L892.937 879.148 L866.839 894.04 L840.74 904.913 L814.642 979.703 L788.543 1059.42 L762.445 1128.33 L736.347 1272.85 L710.248 1350.92 L684.15 1456.65 L658.052 1562.11 L631.953 1604.25 L605.855 1629.61 L579.757 1635.07 L553.658 1596.04 L527.56 1619.74 L501.462 1484.79 L475.363 1487.98 L449.265 1434.82 L423.167 1214.83 L397.068 1216.05 L370.97 1151.37 L344.872 1217.92 L318.773 1183.04  Z" fill="#009af9" fill-rule="evenodd" fill-opacity="0.5"/>
<polyline clip-path="url(#clip752)" style="stroke:#009af9; stroke-linecap:round; stroke-linejoin:round; stroke-width:8; stroke-opacity:0.8; fill:none" stroke-dasharray="4, 8" points="318.773,1183.04 344.872,1217.92 370.97,1151.37 397.068,1216.05 423.167,1214.83 449.265,1434.82 475.363,1487.98 501.462,1484.79 527.56,1619.74 553.658,1644.8 579.757,1683.81 605.855,1678.55 631.953,1653.35 658.052,1612.35 684.15,1521.21 710.248,1414.61 736.347,1342.63 762.445,1201.17 788.543,1129.36 814.642,1055.56 840.74,981.425 866.839,970.032 892.937,953.892 919.035,1008.7 945.134,1081.2 971.232,1142.65 997.33,1210.84 1023.43,1318.98 1049.53,1404.6 1075.63,1449.31 1101.72,1479.17 1127.82,1501.01 1153.92,1464.16 1180.02,1416.6 1206.12,1361.88 1232.22,1221.71 1258.31,1136.7 1284.41,1028.29 1310.51,922.475 1336.61,858.347 1362.71,812.689 1388.81,778.424 1414.9,776.784 1441,828.484 1467.1,876.645 1493.2,927.999 1519.3,1073.69 1545.4,1144.12 1571.49,1198.41 1597.59,1274.96 1623.69,1311.21 1649.79,1302.76 1675.89,1275.48 1701.99,1209.97 1728.08,1146.97 1754.18,1064.28 1780.28,926.273 1806.38,844.451 1832.48,724.135 1858.58,640.846 1884.67,611.156 1910.77,598.468 1936.87,591.477 1962.97,620.132 1989.07,652.325 2015.17,772.382 2041.26,845.746 2067.36,916.865 2093.46,1011.98 2119.56,1085.51 2145.66,1123.06 2171.76,1120.56 2197.85,1092.51 2223.95,1027.43 2250.05,939.047 2276.15,872.502 2302.25,751.582 2328.35,643.608 2354.44,576.286 2380.54,442.851 2406.64,417.908 2432.74,394.173 2458.84,394.431 2484.94,412.47 2511.03,500.42 2537.13,580.602 2563.23,656.382 2589.33,782.481 2615.43,849.975 2641.53,893.993 2667.62,968.123 2693.72,898.051 2719.82,892.48 2745.92,807.06 2772.02,745.171 2798.12,597.376 2824.21,517.88 2850.31,437.474 2876.41,329.333 2902.51,280.057 "/>
<polyline clip-path="url(#clip752)" style="stroke:#ffa500; stroke-linecap:round; stroke-linejoin:round; stroke-width:8; stroke-opacity:0.7; fill:none" points="318.773,1183.04 344.872,1217.92 370.97,1151.37 397.068,1216.05 423.167,1214.83 449.265,1434.82 475.363,1487.98 501.462,1484.79 527.56,1619.74 553.658,1658.07 579.757,1706.32 605.855,1656.46 631.953,1660.01 658.052,1588.66 684.15,1540.15 710.248,1438.72 736.347,1349.42 762.445,1246.51 788.543,1090.67 814.642,1033.27 840.74,1009.66 866.839,944.985 892.937,970.485 919.035,1063.63 945.134,1090.04 971.232,1136.52 997.33,1188.86 1023.43,1382.8 1049.53,1398.46 1075.63,1533.14 1101.72,1503.05 1127.82,1524.49 1153.92,1467.49 1180.02,1415.71 1206.12,1398.37 1232.22,1201.05 1258.31,1185.46 1284.41,1010.63 1310.51,890.85 1336.61,832.714 1362.71,779.717 1388.81,798.809 1414.9,794.457 1441,842.808 1467.1,894.167 1493.2,1023.5 1519.3,1056.69 1545.4,1139.62 1571.49,1262.49 1597.59,1296.41 1623.69,1330.82 1649.79,1327.69 1675.89,1286.05 1701.99,1210.85 1728.08,1131.85 1754.18,1035.75 1780.28,934.573 1806.38,850.98 1832.48,664.26 1858.58,613.572 1884.67,626.525 1910.77,544.773 1936.87,620.229 1962.97,600.361 1989.07,708.706 2015.17,764.977 2041.26,857.403 2067.36,960.302 2093.46,1036.94 2119.56,1047.75 2145.66,1143.26 2171.76,1130.39 2197.85,1068.62 2223.95,1007.85 2250.05,944.637 2276.15,851.33 2302.25,743.049 2328.35,690.739 2354.44,489.961 2380.54,413.456 2406.64,406.688 2432.74,435.196 2458.84,380.907 2484.94,431.823 2511.03,555.183 2537.13,652.455 2563.23,644.57 2589.33,802.093 2615.43,854.397 2641.53,893.724 2667.62,968.123 2693.72,898.051 2719.82,892.48 2745.92,807.06 2772.02,745.171 2798.12,597.376 2824.21,517.88 2850.31,437.474 2876.41,329.333 2902.51,280.057 "/>
<polyline clip-path="url(#clip752)" style="stroke:#ff0000; stroke-linecap:round; stroke-linejoin:round; stroke-width:8; stroke-opacity:0.7; fill:none" stroke-dasharray="4, 8" points="318.773,1173.03 344.872,1184.17 370.97,1136.08 397.068,1198.21 423.167,1279.6 449.265,1372.93 475.363,1486.23 501.462,1536.81 527.56,1646.82 553.658,1680.77 579.757,1604.66 605.855,1702.16 631.953,1679.69 658.052,1625.85 684.15,1506.18 710.248,1389.28 736.347,1242.07 762.445,1241.07 788.543,1134.75 814.642,1087.92 840.74,975.351 866.839,1025.73 892.937,945.126 919.035,998.544 945.134,1036 971.232,1164.75 997.33,1271.73 1023.43,1332.84 1049.53,1430.15 1075.63,1506.89 1101.72,1523.64 1127.82,1533.33 1153.92,1478.19 1180.02,1388.29 1206.12,1356.48 1232.22,1191.95 1258.31,1104.37 1284.41,997.213 1310.51,923.192 1336.61,849.144 1362.71,824.1 1388.81,764.86 1414.9,818.662 1441,795.652 1467.1,852.573 1493.2,964.243 1519.3,1080.09 1545.4,1221.98 1571.49,1173.77 1597.59,1341.52 1623.69,1259.78 1649.79,1313.37 1675.89,1265.64 1701.99,1230.73 1728.08,1192.89 1754.18,1034.37 1780.28,897.618 1806.38,810.519 1832.48,720.486 1858.58,621.346 1884.67,597.166 1910.77,602.261 1936.87,598.198 1962.97,625.531 1989.07,680.002 2015.17,810.674 2041.26,891.659 2067.36,949.019 2093.46,1035.72 2119.56,1134.69 2145.66,1121.51 2171.76,1027.71 2197.85,1117.6 2223.95,983.007 2250.05,925.885 2276.15,844.801 2302.25,757.079 2328.35,628.751 2354.44,573.261 2380.54,518.277 2406.64,413.186 2432.74,386.941 2458.84,373.955 2484.94,408.042 2511.03,519.313 2537.13,568.258 2563.23,681.484 2589.33,743.873 2615.43,898.986 2641.53,856.251 2667.62,968.071 2693.72,894.855 2719.82,899.722 2745.92,855.298 2772.02,734.127 2798.12,633.73 2824.21,527.885 2850.31,387.177 2876.41,378.869 2902.51,260.855 "/>
<path clip-path="url(#clip750)" d="M3103.74 476.064 L3952.76 476.064 L3952.76 268.704 L3103.74 268.704  Z" fill="#ffffff" fill-rule="evenodd" fill-opacity="1"/>
<polyline clip-path="url(#clip750)" style="stroke:#000000; stroke-linecap:round; stroke-linejoin:round; stroke-width:4; stroke-opacity:1; fill:none" points="3103.74,476.064 3952.76,476.064 3952.76,268.704 3103.74,268.704 3103.74,476.064 "/>
<polyline clip-path="url(#clip750)" style="stroke:#009af9; stroke-linecap:round; stroke-linejoin:round; stroke-width:8; stroke-opacity:0.8; fill:none" stroke-dasharray="4, 8" points="3144.98,320.544 3392.41,320.544 "/>
<path clip-path="url(#clip750)" d="M3433.65 303.264 L3440.62 303.264 L3449.44 326.783 L3458.3 303.264 L3465.27 303.264 L3465.27 337.824 L3460.71 337.824 L3460.71 307.477 L3451.8 331.181 L3447.1 331.181 L3438.19 307.477 L3438.19 337.824 L3433.65 337.824 L3433.65 303.264 Z" fill="#000000" fill-rule="nonzero" fill-opacity="1" /><path clip-path="url(#clip750)" d="M3479.23 307.107 L3479.23 320.093 L3485.11 320.093 Q3488.37 320.093 3490.15 318.403 Q3491.94 316.713 3491.94 313.588 Q3491.94 310.487 3490.15 308.797 Q3488.37 307.107 3485.11 307.107 L3479.23 307.107 M3474.55 303.264 L3485.11 303.264 Q3490.92 303.264 3493.88 305.903 Q3496.87 308.519 3496.87 313.588 Q3496.87 318.704 3493.88 321.32 Q3490.92 323.936 3485.11 323.936 L3479.23 323.936 L3479.23 337.824 L3474.55 337.824 L3474.55 303.264 Z" fill="#000000" fill-rule="nonzero" fill-opacity="1" /><path clip-path="url(#clip750)" d="M3523.86 304.399 L3523.86 308.959 Q3521.2 307.686 3518.83 307.061 Q3516.47 306.436 3514.27 306.436 Q3510.45 306.436 3508.37 307.917 Q3506.31 309.399 3506.31 312.13 Q3506.31 314.422 3507.68 315.602 Q3509.07 316.76 3512.91 317.477 L3515.73 318.056 Q3520.96 319.051 3523.44 321.574 Q3525.94 324.074 3525.94 328.287 Q3525.94 333.311 3522.56 335.903 Q3519.2 338.496 3512.7 338.496 Q3510.25 338.496 3507.47 337.94 Q3504.71 337.385 3501.75 336.297 L3501.75 331.482 Q3504.6 333.079 3507.33 333.889 Q3510.06 334.699 3512.7 334.699 Q3516.7 334.699 3518.88 333.125 Q3521.06 331.551 3521.06 328.635 Q3521.06 326.088 3519.48 324.653 Q3517.93 323.218 3514.37 322.5 L3511.52 321.945 Q3506.29 320.903 3503.95 318.681 Q3501.61 316.459 3501.61 312.5 Q3501.61 307.917 3504.83 305.278 Q3508.07 302.639 3513.74 302.639 Q3516.17 302.639 3518.7 303.079 Q3521.22 303.519 3523.86 304.399 Z" fill="#000000" fill-rule="nonzero" fill-opacity="1" /><path clip-path="url(#clip750)" d="M3548.12 311.899 L3552.38 311.899 L3552.38 337.824 L3548.12 337.824 L3548.12 311.899 M3548.12 301.806 L3552.38 301.806 L3552.38 307.2 L3548.12 307.2 L3548.12 301.806 Z" fill="#000000" fill-rule="nonzero" fill-opacity="1" /><path clip-path="url(#clip750)" d="M3581.47 316.875 Q3583.07 314.005 3585.29 312.639 Q3587.51 311.274 3590.52 311.274 Q3594.57 311.274 3596.77 314.121 Q3598.97 316.945 3598.97 322.176 L3598.97 337.824 L3594.69 337.824 L3594.69 322.315 Q3594.69 318.588 3593.37 316.783 Q3592.05 314.977 3589.34 314.977 Q3586.03 314.977 3584.11 317.176 Q3582.19 319.375 3582.19 323.172 L3582.19 337.824 L3577.91 337.824 L3577.91 322.315 Q3577.91 318.565 3576.59 316.783 Q3575.27 314.977 3572.51 314.977 Q3569.25 314.977 3567.33 317.199 Q3565.41 319.399 3565.41 323.172 L3565.41 337.824 L3561.13 337.824 L3561.13 311.899 L3565.41 311.899 L3565.41 315.926 Q3566.87 313.542 3568.9 312.408 Q3570.94 311.274 3573.74 311.274 Q3576.57 311.274 3578.53 312.709 Q3580.52 314.144 3581.47 316.875 Z" fill="#000000" fill-rule="nonzero" fill-opacity="1" /><path clip-path="url(#clip750)" d="M3611.59 333.935 L3611.59 347.685 L3607.31 347.685 L3607.31 311.899 L3611.59 311.899 L3611.59 315.834 Q3612.93 313.519 3614.97 312.408 Q3617.03 311.274 3619.88 311.274 Q3624.6 311.274 3627.54 315.024 Q3630.5 318.774 3630.5 324.885 Q3630.5 330.996 3627.54 334.746 Q3624.6 338.496 3619.88 338.496 Q3617.03 338.496 3614.97 337.385 Q3612.93 336.25 3611.59 333.935 M3626.08 324.885 Q3626.08 320.186 3624.13 317.524 Q3622.21 314.838 3618.83 314.838 Q3615.45 314.838 3613.51 317.524 Q3611.59 320.186 3611.59 324.885 Q3611.59 329.584 3613.51 332.269 Q3615.45 334.931 3618.83 334.931 Q3622.21 334.931 3624.13 332.269 Q3626.08 329.584 3626.08 324.885 Z" fill="#000000" fill-rule="nonzero" fill-opacity="1" /><path clip-path="url(#clip750)" d="M3637.12 327.593 L3637.12 311.899 L3641.38 311.899 L3641.38 327.431 Q3641.38 331.111 3642.81 332.963 Q3644.25 334.792 3647.12 334.792 Q3650.57 334.792 3652.56 332.593 Q3654.57 330.394 3654.57 326.598 L3654.57 311.899 L3658.83 311.899 L3658.83 337.824 L3654.57 337.824 L3654.57 333.843 Q3653.02 336.204 3650.96 337.361 Q3648.93 338.496 3646.22 338.496 Q3641.75 338.496 3639.44 335.718 Q3637.12 332.94 3637.12 327.593 M3647.84 311.274 L3647.84 311.274 Z" fill="#000000" fill-rule="nonzero" fill-opacity="1" /><path clip-path="url(#clip750)" d="M3671.82 304.538 L3671.82 311.899 L3680.59 311.899 L3680.59 315.209 L3671.82 315.209 L3671.82 329.283 Q3671.82 332.454 3672.68 333.357 Q3673.56 334.26 3676.22 334.26 L3680.59 334.26 L3680.59 337.824 L3676.22 337.824 Q3671.29 337.824 3669.41 335.996 Q3667.54 334.144 3667.54 329.283 L3667.54 315.209 L3664.41 315.209 L3664.41 311.899 L3667.54 311.899 L3667.54 304.538 L3671.82 304.538 Z" fill="#000000" fill-rule="nonzero" fill-opacity="1" /><path clip-path="url(#clip750)" d="M3708.37 323.797 L3708.37 325.88 L3688.79 325.88 Q3689.06 330.278 3691.43 332.593 Q3693.81 334.885 3698.05 334.885 Q3700.5 334.885 3702.79 334.283 Q3705.11 333.681 3707.37 332.477 L3707.37 336.505 Q3705.08 337.477 3702.68 337.986 Q3700.27 338.496 3697.79 338.496 Q3691.59 338.496 3687.95 334.885 Q3684.34 331.273 3684.34 325.116 Q3684.34 318.75 3687.77 315.024 Q3691.22 311.274 3697.05 311.274 Q3702.28 311.274 3705.31 314.653 Q3708.37 318.01 3708.37 323.797 M3704.11 322.547 Q3704.06 319.051 3702.14 316.968 Q3700.25 314.885 3697.1 314.885 Q3693.53 314.885 3691.38 316.899 Q3689.25 318.912 3688.93 322.57 L3704.11 322.547 Z" fill="#000000" fill-rule="nonzero" fill-opacity="1" /><path clip-path="url(#clip750)" d="M3732.42 315.834 L3732.42 301.806 L3736.68 301.806 L3736.68 337.824 L3732.42 337.824 L3732.42 333.935 Q3731.08 336.25 3729.02 337.385 Q3726.98 338.496 3724.11 338.496 Q3719.41 338.496 3716.45 334.746 Q3713.51 330.996 3713.51 324.885 Q3713.51 318.774 3716.45 315.024 Q3719.41 311.274 3724.11 311.274 Q3726.98 311.274 3729.02 312.408 Q3731.08 313.519 3732.42 315.834 M3717.91 324.885 Q3717.91 329.584 3719.83 332.269 Q3721.77 334.931 3725.15 334.931 Q3728.53 334.931 3730.48 332.269 Q3732.42 329.584 3732.42 324.885 Q3732.42 320.186 3730.48 317.524 Q3728.53 314.838 3725.15 314.838 Q3721.77 314.838 3719.83 317.524 Q3717.91 320.186 3717.91 324.885 Z" fill="#000000" fill-rule="nonzero" fill-opacity="1" /><polyline clip-path="url(#clip750)" style="stroke:#ffa500; stroke-linecap:round; stroke-linejoin:round; stroke-width:8; stroke-opacity:0.7; fill:none" points="3144.98,372.384 3392.41,372.384 "/>
<path clip-path="url(#clip750)" d="M3459.2 384.734 L3459.2 375.451 L3451.57 375.451 L3451.57 371.609 L3463.83 371.609 L3463.83 386.447 Q3461.13 388.368 3457.86 389.363 Q3454.6 390.336 3450.89 390.336 Q3442.79 390.336 3438.21 385.613 Q3433.65 380.868 3433.65 372.419 Q3433.65 363.947 3438.21 359.225 Q3442.79 354.479 3450.89 354.479 Q3454.27 354.479 3457.31 355.313 Q3460.36 356.146 3462.93 357.766 L3462.93 362.743 Q3460.34 360.544 3457.42 359.433 Q3454.51 358.322 3451.29 358.322 Q3444.95 358.322 3441.75 361.864 Q3438.58 365.405 3438.58 372.419 Q3438.58 379.41 3441.75 382.951 Q3444.95 386.493 3451.29 386.493 Q3453.76 386.493 3455.71 386.076 Q3457.65 385.637 3459.2 384.734 Z" fill="#000000" fill-rule="nonzero" fill-opacity="1" /><path clip-path="url(#clip750)" d="M3487.21 367.72 Q3486.5 367.303 3485.64 367.118 Q3484.81 366.91 3483.79 366.91 Q3480.18 366.91 3478.23 369.271 Q3476.31 371.609 3476.31 376.007 L3476.31 389.664 L3472.03 389.664 L3472.03 363.739 L3476.31 363.739 L3476.31 367.766 Q3477.65 365.405 3479.81 364.271 Q3481.96 363.114 3485.04 363.114 Q3485.48 363.114 3486.01 363.183 Q3486.54 363.229 3487.19 363.345 L3487.21 367.72 Z" fill="#000000" fill-rule="nonzero" fill-opacity="1" /><path clip-path="url(#clip750)" d="M3500.69 366.725 Q3497.26 366.725 3495.27 369.41 Q3493.28 372.072 3493.28 376.725 Q3493.28 381.377 3495.25 384.063 Q3497.24 386.725 3500.69 386.725 Q3504.09 386.725 3506.08 384.039 Q3508.07 381.354 3508.07 376.725 Q3508.07 372.118 3506.08 369.433 Q3504.09 366.725 3500.69 366.725 M3500.69 363.114 Q3506.24 363.114 3509.41 366.725 Q3512.58 370.336 3512.58 376.725 Q3512.58 383.09 3509.41 386.725 Q3506.24 390.336 3500.69 390.336 Q3495.11 390.336 3491.94 386.725 Q3488.79 383.09 3488.79 376.725 Q3488.79 370.336 3491.94 366.725 Q3495.11 363.114 3500.69 363.114 Z" fill="#000000" fill-rule="nonzero" fill-opacity="1" /><path clip-path="url(#clip750)" d="M3519.2 379.433 L3519.2 363.739 L3523.46 363.739 L3523.46 379.271 Q3523.46 382.951 3524.9 384.803 Q3526.33 386.632 3529.2 386.632 Q3532.65 386.632 3534.64 384.433 Q3536.66 382.234 3536.66 378.438 L3536.66 363.739 L3540.92 363.739 L3540.92 389.664 L3536.66 389.664 L3536.66 385.683 Q3535.11 388.044 3533.05 389.201 Q3531.01 390.336 3528.3 390.336 Q3523.83 390.336 3521.52 387.558 Q3519.2 384.78 3519.2 379.433 M3529.92 363.114 L3529.92 363.114 Z" fill="#000000" fill-rule="nonzero" fill-opacity="1" /><path clip-path="url(#clip750)" d="M3571.24 374.016 L3571.24 389.664 L3566.98 389.664 L3566.98 374.155 Q3566.98 370.475 3565.55 368.646 Q3564.11 366.817 3561.24 366.817 Q3557.79 366.817 3555.8 369.016 Q3553.81 371.215 3553.81 375.012 L3553.81 389.664 L3549.53 389.664 L3549.53 363.739 L3553.81 363.739 L3553.81 367.766 Q3555.34 365.428 3557.4 364.271 Q3559.48 363.114 3562.19 363.114 Q3566.66 363.114 3568.95 365.891 Q3571.24 368.646 3571.24 374.016 Z" fill="#000000" fill-rule="nonzero" fill-opacity="1" /><path clip-path="url(#clip750)" d="M3596.8 367.674 L3596.8 353.646 L3601.06 353.646 L3601.06 389.664 L3596.8 389.664 L3596.8 385.775 Q3595.45 388.09 3593.39 389.225 Q3591.36 390.336 3588.49 390.336 Q3583.79 390.336 3580.82 386.586 Q3577.88 382.836 3577.88 376.725 Q3577.88 370.614 3580.82 366.864 Q3583.79 363.114 3588.49 363.114 Q3591.36 363.114 3593.39 364.248 Q3595.45 365.359 3596.8 367.674 M3582.28 376.725 Q3582.28 381.424 3584.2 384.109 Q3586.15 386.771 3589.53 386.771 Q3592.91 386.771 3594.85 384.109 Q3596.8 381.424 3596.8 376.725 Q3596.8 372.026 3594.85 369.364 Q3592.91 366.678 3589.53 366.678 Q3586.15 366.678 3584.2 369.364 Q3582.28 372.026 3582.28 376.725 Z" fill="#000000" fill-rule="nonzero" fill-opacity="1" /><path clip-path="url(#clip750)" d="M3620.29 355.104 L3649.53 355.104 L3649.53 359.04 L3637.26 359.04 L3637.26 389.664 L3632.56 389.664 L3632.56 359.04 L3620.29 359.04 L3620.29 355.104 Z" fill="#000000" fill-rule="nonzero" fill-opacity="1" /><path clip-path="url(#clip750)" d="M3661.91 367.72 Q3661.19 367.303 3660.34 367.118 Q3659.5 366.91 3658.49 366.91 Q3654.87 366.91 3652.93 369.271 Q3651.01 371.609 3651.01 376.007 L3651.01 389.664 L3646.73 389.664 L3646.73 363.739 L3651.01 363.739 L3651.01 367.766 Q3652.35 365.405 3654.5 364.271 Q3656.66 363.114 3659.74 363.114 Q3660.18 363.114 3660.71 363.183 Q3661.24 363.229 3661.89 363.345 L3661.91 367.72 Z" fill="#000000" fill-rule="nonzero" fill-opacity="1" /><path clip-path="url(#clip750)" d="M3665.94 379.433 L3665.94 363.739 L3670.2 363.739 L3670.2 379.271 Q3670.2 382.951 3671.63 384.803 Q3673.07 386.632 3675.94 386.632 Q3679.39 386.632 3681.38 384.433 Q3683.39 382.234 3683.39 378.438 L3683.39 363.739 L3687.65 363.739 L3687.65 389.664 L3683.39 389.664 L3683.39 385.683 Q3681.84 388.044 3679.78 389.201 Q3677.75 390.336 3675.04 390.336 Q3670.57 390.336 3668.25 387.558 Q3665.94 384.78 3665.94 379.433 M3676.66 363.114 L3676.66 363.114 Z" fill="#000000" fill-rule="nonzero" fill-opacity="1" /><path clip-path="url(#clip750)" d="M3700.64 356.378 L3700.64 363.739 L3709.41 363.739 L3709.41 367.049 L3700.64 367.049 L3700.64 381.123 Q3700.64 384.294 3701.5 385.197 Q3702.37 386.1 3705.04 386.1 L3709.41 386.1 L3709.41 389.664 L3705.04 389.664 Q3700.11 389.664 3698.23 387.836 Q3696.36 385.984 3696.36 381.123 L3696.36 367.049 L3693.23 367.049 L3693.23 363.739 L3696.36 363.739 L3696.36 356.378 L3700.64 356.378 Z" fill="#000000" fill-rule="nonzero" fill-opacity="1" /><path clip-path="url(#clip750)" d="M3736.56 374.016 L3736.56 389.664 L3732.31 389.664 L3732.31 374.155 Q3732.31 370.475 3730.87 368.646 Q3729.43 366.817 3726.56 366.817 Q3723.12 366.817 3721.12 369.016 Q3719.13 371.215 3719.13 375.012 L3719.13 389.664 L3714.85 389.664 L3714.85 353.646 L3719.13 353.646 L3719.13 367.766 Q3720.66 365.428 3722.72 364.271 Q3724.81 363.114 3727.51 363.114 Q3731.98 363.114 3734.27 365.891 Q3736.56 368.646 3736.56 374.016 Z" fill="#000000" fill-rule="nonzero" fill-opacity="1" /><polyline clip-path="url(#clip750)" style="stroke:#ff0000; stroke-linecap:round; stroke-linejoin:round; stroke-width:8; stroke-opacity:0.7; fill:none" stroke-dasharray="4, 8" points="3144.98,424.224 3392.41,424.224 "/>
<path clip-path="url(#clip750)" d="M3433.65 406.944 L3439.95 406.944 L3455.27 435.856 L3455.27 406.944 L3459.81 406.944 L3459.81 441.504 L3453.51 441.504 L3438.19 412.592 L3438.19 441.504 L3433.65 441.504 L3433.65 406.944 Z" fill="#000000" fill-rule="nonzero" fill-opacity="1" /><path clip-path="url(#clip750)" d="M3491.1 427.477 L3491.1 429.56 L3471.52 429.56 Q3471.8 433.958 3474.16 436.273 Q3476.54 438.565 3480.78 438.565 Q3483.23 438.565 3485.52 437.963 Q3487.84 437.361 3490.11 436.157 L3490.11 440.185 Q3487.82 441.157 3485.41 441.666 Q3483 442.176 3480.52 442.176 Q3474.32 442.176 3470.69 438.565 Q3467.08 434.953 3467.08 428.796 Q3467.08 422.43 3470.5 418.704 Q3473.95 414.954 3479.78 414.954 Q3485.01 414.954 3488.05 418.333 Q3491.1 421.69 3491.1 427.477 M3486.84 426.227 Q3486.8 422.731 3484.88 420.648 Q3482.98 418.565 3479.83 418.565 Q3476.26 418.565 3474.11 420.579 Q3471.98 422.592 3471.66 426.25 L3486.84 426.227 Z" fill="#000000" fill-rule="nonzero" fill-opacity="1" /><path clip-path="url(#clip750)" d="M3509.88 428.472 Q3504.71 428.472 3502.72 429.653 Q3500.73 430.833 3500.73 433.68 Q3500.73 435.949 3502.21 437.291 Q3503.72 438.611 3506.29 438.611 Q3509.83 438.611 3511.96 436.111 Q3514.11 433.588 3514.11 429.421 L3514.11 428.472 L3509.88 428.472 M3518.37 426.713 L3518.37 441.504 L3514.11 441.504 L3514.11 437.569 Q3512.65 439.93 3510.48 441.065 Q3508.3 442.176 3505.15 442.176 Q3501.17 442.176 3498.81 439.953 Q3496.47 437.708 3496.47 433.958 Q3496.47 429.583 3499.39 427.361 Q3502.33 425.139 3508.14 425.139 L3514.11 425.139 L3514.11 424.722 Q3514.11 421.782 3512.17 420.185 Q3510.25 418.565 3506.75 418.565 Q3504.53 418.565 3502.42 419.097 Q3500.32 419.629 3498.37 420.694 L3498.37 416.759 Q3500.71 415.856 3502.91 415.417 Q3505.11 414.954 3507.19 414.954 Q3512.82 414.954 3515.59 417.87 Q3518.37 420.787 3518.37 426.713 Z" fill="#000000" fill-rule="nonzero" fill-opacity="1" /><path clip-path="url(#clip750)" d="M3542.17 419.56 Q3541.45 419.143 3540.59 418.958 Q3539.76 418.75 3538.74 418.75 Q3535.13 418.75 3533.19 421.111 Q3531.26 423.449 3531.26 427.847 L3531.26 441.504 L3526.98 441.504 L3526.98 415.579 L3531.26 415.579 L3531.26 419.606 Q3532.61 417.245 3534.76 416.111 Q3536.91 414.954 3539.99 414.954 Q3540.43 414.954 3540.96 415.023 Q3541.5 415.069 3542.14 415.185 L3542.17 419.56 Z" fill="#000000" fill-rule="nonzero" fill-opacity="1" /><path clip-path="url(#clip750)" d="M3567.77 427.477 L3567.77 429.56 L3548.19 429.56 Q3548.46 433.958 3550.82 436.273 Q3553.21 438.565 3557.44 438.565 Q3559.9 438.565 3562.19 437.963 Q3564.51 437.361 3566.77 436.157 L3566.77 440.185 Q3564.48 441.157 3562.07 441.666 Q3559.67 442.176 3557.19 442.176 Q3550.99 442.176 3547.35 438.565 Q3543.74 434.953 3543.74 428.796 Q3543.74 422.43 3547.17 418.704 Q3550.62 414.954 3556.45 414.954 Q3561.68 414.954 3564.71 418.333 Q3567.77 421.69 3567.77 427.477 M3563.51 426.227 Q3563.46 422.731 3561.54 420.648 Q3559.64 418.565 3556.5 418.565 Q3552.93 418.565 3550.78 420.579 Q3548.65 422.592 3548.32 426.25 L3563.51 426.227 Z" fill="#000000" fill-rule="nonzero" fill-opacity="1" /><path clip-path="url(#clip750)" d="M3591.29 416.342 L3591.29 420.37 Q3589.48 419.444 3587.54 418.981 Q3585.59 418.518 3583.51 418.518 Q3580.34 418.518 3578.74 419.491 Q3577.17 420.463 3577.17 422.407 Q3577.17 423.889 3578.3 424.745 Q3579.44 425.579 3582.86 426.342 L3584.32 426.666 Q3588.86 427.639 3590.75 429.421 Q3592.68 431.18 3592.68 434.352 Q3592.68 437.963 3589.81 440.069 Q3586.96 442.176 3581.96 442.176 Q3579.88 442.176 3577.61 441.759 Q3575.36 441.365 3572.86 440.555 L3572.86 436.157 Q3575.22 437.384 3577.51 438.009 Q3579.81 438.611 3582.05 438.611 Q3585.06 438.611 3586.68 437.592 Q3588.3 436.551 3588.3 434.676 Q3588.3 432.94 3587.12 432.014 Q3585.96 431.088 3582 430.231 L3580.52 429.884 Q3576.57 429.051 3574.81 427.338 Q3573.05 425.602 3573.05 422.592 Q3573.05 418.935 3575.64 416.944 Q3578.23 414.954 3583 414.954 Q3585.36 414.954 3587.44 415.301 Q3589.53 415.648 3591.29 416.342 Z" fill="#000000" fill-rule="nonzero" fill-opacity="1" /><path clip-path="url(#clip750)" d="M3603.67 408.218 L3603.67 415.579 L3612.44 415.579 L3612.44 418.889 L3603.67 418.889 L3603.67 432.963 Q3603.67 436.134 3604.53 437.037 Q3605.41 437.94 3608.07 437.94 L3612.44 437.94 L3612.44 441.504 L3608.07 441.504 Q3603.14 441.504 3601.26 439.676 Q3599.39 437.824 3599.39 432.963 L3599.39 418.889 L3596.26 418.889 L3596.26 415.579 L3599.39 415.579 L3599.39 408.218 L3603.67 408.218 Z" fill="#000000" fill-rule="nonzero" fill-opacity="1" /><path clip-path="url(#clip750)" d="M3628.51 406.944 L3657.75 406.944 L3657.75 410.88 L3645.48 410.88 L3645.48 441.504 L3640.78 441.504 L3640.78 410.88 L3628.51 410.88 L3628.51 406.944 Z" fill="#000000" fill-rule="nonzero" fill-opacity="1" /><path clip-path="url(#clip750)" d="M3670.13 419.56 Q3669.41 419.143 3668.56 418.958 Q3667.72 418.75 3666.7 418.75 Q3663.09 418.75 3661.15 421.111 Q3659.23 423.449 3659.23 427.847 L3659.23 441.504 L3654.94 441.504 L3654.94 415.579 L3659.23 415.579 L3659.23 419.606 Q3660.57 417.245 3662.72 416.111 Q3664.87 414.954 3667.95 414.954 Q3668.39 414.954 3668.93 415.023 Q3669.46 415.069 3670.11 415.185 L3670.13 419.56 Z" fill="#000000" fill-rule="nonzero" fill-opacity="1" /><path clip-path="url(#clip750)" d="M3686.38 428.472 Q3681.22 428.472 3679.23 429.653 Q3677.24 430.833 3677.24 433.68 Q3677.24 435.949 3678.72 437.291 Q3680.22 438.611 3682.79 438.611 Q3686.33 438.611 3688.46 436.111 Q3690.62 433.588 3690.62 429.421 L3690.62 428.472 L3686.38 428.472 M3694.87 426.713 L3694.87 441.504 L3690.62 441.504 L3690.62 437.569 Q3689.16 439.93 3686.98 441.065 Q3684.81 442.176 3681.66 442.176 Q3677.68 442.176 3675.31 439.953 Q3672.98 437.708 3672.98 433.958 Q3672.98 429.583 3675.89 427.361 Q3678.83 425.139 3684.64 425.139 L3690.62 425.139 L3690.62 424.722 Q3690.62 421.782 3688.67 420.185 Q3686.75 418.565 3683.25 418.565 Q3681.03 418.565 3678.93 419.097 Q3676.82 419.629 3674.87 420.694 L3674.87 416.759 Q3677.21 415.856 3679.41 415.417 Q3681.61 414.954 3683.69 414.954 Q3689.32 414.954 3692.1 417.87 Q3694.87 420.787 3694.87 426.713 Z" fill="#000000" fill-rule="nonzero" fill-opacity="1" /><path clip-path="url(#clip750)" d="M3703.65 415.579 L3707.91 415.579 L3707.91 441.504 L3703.65 441.504 L3703.65 415.579 M3703.65 405.486 L3707.91 405.486 L3707.91 410.88 L3703.65 410.88 L3703.65 405.486 Z" fill="#000000" fill-rule="nonzero" fill-opacity="1" /><path clip-path="url(#clip750)" d="M3738.37 425.856 L3738.37 441.504 L3734.11 441.504 L3734.11 425.995 Q3734.11 422.315 3732.68 420.486 Q3731.24 418.657 3728.37 418.657 Q3724.92 418.657 3722.93 420.856 Q3720.94 423.055 3720.94 426.852 L3720.94 441.504 L3716.66 441.504 L3716.66 415.579 L3720.94 415.579 L3720.94 419.606 Q3722.47 417.268 3724.53 416.111 Q3726.61 414.954 3729.32 414.954 Q3733.79 414.954 3736.08 417.731 Q3738.37 420.486 3738.37 425.856 Z" fill="#000000" fill-rule="nonzero" fill-opacity="1" /><path clip-path="url(#clip750)" d="M3766.8 410.787 L3766.8 437.662 L3772.44 437.662 Q3779.6 437.662 3782.91 434.421 Q3786.24 431.18 3786.24 424.19 Q3786.24 417.245 3782.91 414.028 Q3779.6 410.787 3772.44 410.787 L3766.8 410.787 M3762.12 406.944 L3771.73 406.944 Q3781.77 406.944 3786.47 411.134 Q3791.17 415.301 3791.17 424.19 Q3791.17 433.125 3786.45 437.315 Q3781.73 441.504 3771.73 441.504 L3762.12 441.504 L3762.12 406.944 Z" fill="#000000" fill-rule="nonzero" fill-opacity="1" /><path clip-path="url(#clip750)" d="M3810.22 428.472 Q3805.06 428.472 3803.07 429.653 Q3801.08 430.833 3801.08 433.68 Q3801.08 435.949 3802.56 437.291 Q3804.06 438.611 3806.63 438.611 Q3810.18 438.611 3812.3 436.111 Q3814.46 433.588 3814.46 429.421 L3814.46 428.472 L3810.22 428.472 M3818.72 426.713 L3818.72 441.504 L3814.46 441.504 L3814.46 437.569 Q3813 439.93 3810.82 441.065 Q3808.65 442.176 3805.5 442.176 Q3801.52 442.176 3799.16 439.953 Q3796.82 437.708 3796.82 433.958 Q3796.82 429.583 3799.74 427.361 Q3802.68 425.139 3808.49 425.139 L3814.46 425.139 L3814.46 424.722 Q3814.46 421.782 3812.51 420.185 Q3810.59 418.565 3807.1 418.565 Q3804.87 418.565 3802.77 419.097 Q3800.66 419.629 3798.72 420.694 L3798.72 416.759 Q3801.05 415.856 3803.25 415.417 Q3805.45 414.954 3807.54 414.954 Q3813.16 414.954 3815.94 417.87 Q3818.72 420.787 3818.72 426.713 Z" fill="#000000" fill-rule="nonzero" fill-opacity="1" /><path clip-path="url(#clip750)" d="M3831.7 408.218 L3831.7 415.579 L3840.48 415.579 L3840.48 418.889 L3831.7 418.889 L3831.7 432.963 Q3831.7 436.134 3832.56 437.037 Q3833.44 437.94 3836.1 437.94 L3840.48 437.94 L3840.48 441.504 L3836.1 441.504 Q3831.17 441.504 3829.3 439.676 Q3827.42 437.824 3827.42 432.963 L3827.42 418.889 L3824.3 418.889 L3824.3 415.579 L3827.42 415.579 L3827.42 408.218 L3831.7 408.218 Z" fill="#000000" fill-rule="nonzero" fill-opacity="1" /><path clip-path="url(#clip750)" d="M3857.86 428.472 Q3852.7 428.472 3850.71 429.653 Q3848.72 430.833 3848.72 433.68 Q3848.72 435.949 3850.2 437.291 Q3851.7 438.611 3854.27 438.611 Q3857.81 438.611 3859.94 436.111 Q3862.1 433.588 3862.1 429.421 L3862.1 428.472 L3857.86 428.472 M3866.36 426.713 L3866.36 441.504 L3862.1 441.504 L3862.1 437.569 Q3860.64 439.93 3858.46 441.065 Q3856.29 442.176 3853.14 442.176 Q3849.16 442.176 3846.8 439.953 Q3844.46 437.708 3844.46 433.958 Q3844.46 429.583 3847.37 427.361 Q3850.31 425.139 3856.12 425.139 L3862.1 425.139 L3862.1 424.722 Q3862.1 421.782 3860.15 420.185 Q3858.23 418.565 3854.73 418.565 Q3852.51 418.565 3850.41 419.097 Q3848.3 419.629 3846.36 420.694 L3846.36 416.759 Q3848.69 415.856 3850.89 415.417 Q3853.09 414.954 3855.17 414.954 Q3860.8 414.954 3863.58 417.87 Q3866.36 420.787 3866.36 426.713 Z" fill="#000000" fill-rule="nonzero" fill-opacity="1" /><path clip-path="url(#clip750)" d="M3891.61 437.569 L3899.25 437.569 L3899.25 411.204 L3890.94 412.87 L3890.94 408.611 L3899.2 406.944 L3903.88 406.944 L3903.88 437.569 L3911.52 437.569 L3911.52 441.504 L3891.61 441.504 L3891.61 437.569 Z" fill="#000000" fill-rule="nonzero" fill-opacity="1" /></svg>
