<?xml version="1.0" encoding="UTF-8" standalone="no"?>
<svg
   width="764.83051"
   height="500"
   viewBox="0 0 3059.322 2000"
   version="1.1"
   id="svg4016"
   sodipodi:docname="median_impute_nblocks.svg"
   inkscape:version="1.2.1 (9c6d41e, 2022-07-14)"
   inkscape:export-filename="../../../../median_impute_nblocks.svg"
   inkscape:export-xdpi="96"
   inkscape:export-ydpi="96"
   xmlns:inkscape="http://www.inkscape.org/namespaces/inkscape"
   xmlns:sodipodi="http://sodipodi.sourceforge.net/DTD/sodipodi-0.dtd"
   xmlns="http://www.w3.org/2000/svg"
   xmlns:svg="http://www.w3.org/2000/svg">
  <sodipodi:namedview
     id="namedview4018"
     pagecolor="#ffffff"
     bordercolor="#000000"
     borderopacity="0.25"
     inkscape:showpageshadow="2"
     inkscape:pageopacity="0.0"
     inkscape:pagecheckerboard="0"
     inkscape:deskcolor="#d1d1d1"
     showgrid="false"
     inkscape:zoom="0.6675088"
     inkscape:cx="225.46519"
     inkscape:cy="253.92924"
     inkscape:window-width="1920"
     inkscape:window-height="1027"
     inkscape:window-x="57"
     inkscape:window-y="106"
     inkscape:window-maximized="0"
     inkscape:current-layer="svg4016" />
  <defs
     id="defs3694">
    <clipPath
       id="clip160">
      <rect
         x="0"
         y="0"
         width="4000"
         height="2000"
         id="rect3691" />
    </clipPath>
  </defs>
  <defs
     id="defs3701">
    <clipPath
       id="clip161">
      <rect
         x="800"
         y="0"
         width="2801"
         height="2000"
         id="rect3698" />
    </clipPath>
  </defs>
  <defs
     id="defs3708">
    <clipPath
       id="clip162">
      <rect
         x="277"
         y="216"
         width="2708"
         height="1561"
         id="rect3705" />
    </clipPath>
  </defs>
  <rect
     style="fill:#ffffff;fill-rule:evenodd;stroke:none;stroke-width:6.4;stroke-linecap:square;stroke-linejoin:round;fill-opacity:1"
     id="rect5280"
     width="3059.322"
     height="2000"
     x="0"
     y="0" />
  <polyline
     clip-path="url(#clip162)"
     style="fill:none;stroke:#000000;stroke-width:2;stroke-linecap:round;stroke-linejoin:round;stroke-opacity:0.1"
     points="328.676,1776.71 328.676,216.704 "
     id="polyline3710" />
  <polyline
     clip-path="url(#clip162)"
     style="fill:none;stroke:#000000;stroke-width:2;stroke-linecap:round;stroke-linejoin:round;stroke-opacity:0.1"
     points="973.579,1776.71 973.579,216.704 "
     id="polyline3712" />
  <polyline
     clip-path="url(#clip162)"
     style="fill:none;stroke:#000000;stroke-width:2;stroke-linecap:round;stroke-linejoin:round;stroke-opacity:0.1"
     points="1618.48,1776.71 1618.48,216.704 "
     id="polyline3714" />
  <polyline
     clip-path="url(#clip162)"
     style="fill:none;stroke:#000000;stroke-width:2;stroke-linecap:round;stroke-linejoin:round;stroke-opacity:0.1"
     points="2263.38,1776.71 2263.38,216.704 "
     id="polyline3716" />
  <polyline
     clip-path="url(#clip162)"
     style="fill:none;stroke:#000000;stroke-width:2;stroke-linecap:round;stroke-linejoin:round;stroke-opacity:0.1"
     points="2908.29,1776.71 2908.29,216.704 "
     id="polyline3718" />
  <polyline
     clip-path="url(#clip162)"
     style="fill:none;stroke:#000000;stroke-width:2;stroke-linecap:round;stroke-linejoin:round;stroke-opacity:0.1"
     points="277.858,1751.17 2984.9,1751.17 "
     id="polyline3720" />
  <polyline
     clip-path="url(#clip162)"
     style="fill:none;stroke:#000000;stroke-width:2;stroke-linecap:round;stroke-linejoin:round;stroke-opacity:0.1"
     points="277.858,1444.44 2984.9,1444.44 "
     id="polyline3722" />
  <polyline
     clip-path="url(#clip162)"
     style="fill:none;stroke:#000000;stroke-width:2;stroke-linecap:round;stroke-linejoin:round;stroke-opacity:0.1"
     points="277.858,1137.71 2984.9,1137.71 "
     id="polyline3724" />
  <polyline
     clip-path="url(#clip162)"
     style="fill:none;stroke:#000000;stroke-width:2;stroke-linecap:round;stroke-linejoin:round;stroke-opacity:0.1"
     points="277.858,830.976 2984.9,830.976 "
     id="polyline3726" />
  <polyline
     clip-path="url(#clip162)"
     style="fill:none;stroke:#000000;stroke-width:2;stroke-linecap:round;stroke-linejoin:round;stroke-opacity:0.1"
     points="277.858,524.243 2984.9,524.243 "
     id="polyline3728" />
  <polyline
     clip-path="url(#clip162)"
     style="fill:none;stroke:#000000;stroke-width:2;stroke-linecap:round;stroke-linejoin:round;stroke-opacity:0.1"
     points="277.858,217.51 2984.9,217.51 "
     id="polyline3730" />
  <polyline
     clip-path="url(#clip160)"
     style="fill:none;stroke:#000000;stroke-width:4;stroke-linecap:round;stroke-linejoin:round;stroke-opacity:1"
     points="277.858,1776.71 2984.9,1776.71 "
     id="polyline3732" />
  <polyline
     clip-path="url(#clip160)"
     style="fill:none;stroke:#000000;stroke-width:4;stroke-linecap:round;stroke-linejoin:round;stroke-opacity:1"
     points="328.676,1776.71 328.676,1757.81 "
     id="polyline3734" />
  <polyline
     clip-path="url(#clip160)"
     style="fill:none;stroke:#000000;stroke-width:4;stroke-linecap:round;stroke-linejoin:round;stroke-opacity:1"
     points="973.579,1776.71 973.579,1757.81 "
     id="polyline3736" />
  <polyline
     clip-path="url(#clip160)"
     style="fill:none;stroke:#000000;stroke-width:4;stroke-linecap:round;stroke-linejoin:round;stroke-opacity:1"
     points="1618.48,1776.71 1618.48,1757.81 "
     id="polyline3738" />
  <polyline
     clip-path="url(#clip160)"
     style="fill:none;stroke:#000000;stroke-width:4;stroke-linecap:round;stroke-linejoin:round;stroke-opacity:1"
     points="2263.38,1776.71 2263.38,1757.81 "
     id="polyline3740" />
  <polyline
     clip-path="url(#clip160)"
     style="fill:none;stroke:#000000;stroke-width:4;stroke-linecap:round;stroke-linejoin:round;stroke-opacity:1"
     points="2908.29,1776.71 2908.29,1757.81 "
     id="polyline3742" />
  <path
     clip-path="url(#clip160)"
     d="m 328.676,1820.43 q -3.611,0 -5.439,3.56 -1.806,3.54 -1.806,10.67 0,7.11 1.806,10.67 1.828,3.55 5.439,3.55 3.635,0 5.44,-3.55 1.829,-3.56 1.829,-10.67 0,-7.13 -1.829,-10.67 -1.805,-3.56 -5.44,-3.56 m 0,-3.71 q 5.811,0 8.866,4.61 3.079,4.58 3.079,13.33 0,8.73 -3.079,13.34 -3.055,4.58 -8.866,4.58 -5.81,0 -8.888,-4.58 -3.056,-4.61 -3.056,-13.34 0,-8.75 3.056,-13.33 3.078,-4.61 8.888,-4.61 z"
     fill="#000000"
     fill-rule="nonzero"
     fill-opacity="1"
     id="path3744" />
  <path
     clip-path="url(#clip160)"
     d="m 952.85,1847.97 h 16.319 v 3.94 h -21.944 v -3.94 q 2.662,-2.75 7.245,-7.38 4.607,-4.65 5.787,-6 2.246,-2.52 3.125,-4.26 0.903,-1.76 0.903,-3.45 0,-2.75 -1.944,-4.49 -1.922,-1.73 -5.023,-1.73 -2.199,0 -4.653,0.76 -2.431,0.77 -5.208,2.32 v -4.73 q 2.824,-1.13 5.277,-1.71 2.454,-0.58 4.491,-0.58 5.37,0 8.565,2.69 3.194,2.68 3.194,7.17 0,2.13 -0.81,4.05 -0.787,1.9 -2.893,4.5 -0.579,0.67 -3.681,3.88 -3.102,3.2 -8.75,8.96 z"
     fill="#000000"
     fill-rule="nonzero"
     fill-opacity="1"
     id="path3746" />
  <path
     clip-path="url(#clip160)"
     d="m 979.03,1817.35 h 18.357 v 3.93 h -14.074 v 8.48 q 1.018,-0.35 2.037,-0.51 1.018,-0.19 2.037,-0.19 5.787,0 9.167,3.17 3.379,3.17 3.379,8.59 0,5.58 -3.472,8.68 -3.472,3.08 -9.792,3.08 -2.176,0 -4.444,-0.37 -2.245,-0.37 -4.653,-1.11 v -4.7 q 2.083,1.13 4.306,1.69 2.222,0.55 4.699,0.55 4.004,0 6.342,-2.1 2.338,-2.11 2.338,-5.72 0,-3.61 -2.338,-5.72 -2.338,-2.1 -6.342,-2.1 -1.875,0 -3.75,0.41 -1.852,0.42 -3.797,1.3 z"
     fill="#000000"
     fill-rule="nonzero"
     fill-opacity="1"
     id="path3748" />
  <path
     clip-path="url(#clip160)"
     d="m 1593.18,1817.35 h 18.36 v 3.93 h -14.08 v 8.48 q 1.02,-0.35 2.04,-0.51 1.02,-0.19 2.04,-0.19 5.78,0 9.16,3.17 3.38,3.17 3.38,8.59 0,5.58 -3.47,8.68 -3.47,3.08 -9.79,3.08 -2.18,0 -4.44,-0.37 -2.25,-0.37 -4.66,-1.11 v -4.7 q 2.09,1.13 4.31,1.69 2.22,0.55 4.7,0.55 4,0 6.34,-2.1 2.34,-2.11 2.34,-5.72 0,-3.61 -2.34,-5.72 -2.34,-2.1 -6.34,-2.1 -1.88,0 -3.75,0.41 -1.85,0.42 -3.8,1.3 z"
     fill="#000000"
     fill-rule="nonzero"
     fill-opacity="1"
     id="path3750" />
  <path
     clip-path="url(#clip160)"
     d="m 1633.3,1820.43 q -3.61,0 -5.44,3.56 -1.81,3.54 -1.81,10.67 0,7.11 1.81,10.67 1.83,3.55 5.44,3.55 3.63,0 5.44,-3.55 1.83,-3.56 1.83,-10.67 0,-7.13 -1.83,-10.67 -1.81,-3.56 -5.44,-3.56 m 0,-3.71 q 5.81,0 8.86,4.61 3.08,4.58 3.08,13.33 0,8.73 -3.08,13.34 -3.05,4.58 -8.86,4.58 -5.81,0 -8.89,-4.58 -3.06,-4.61 -3.06,-13.34 0,-8.75 3.06,-13.33 3.08,-4.61 8.89,-4.61 z"
     fill="#000000"
     fill-rule="nonzero"
     fill-opacity="1"
     id="path3752" />
  <path
     clip-path="url(#clip160)"
     d="m 2237.24,1817.35 h 22.22 v 1.99 l -12.55,32.57 h -4.88 l 11.81,-30.63 h -16.6 z"
     fill="#000000"
     fill-rule="nonzero"
     fill-opacity="1"
     id="path3754" />
  <path
     clip-path="url(#clip160)"
     d="m 2268.63,1817.35 h 18.35 v 3.93 h -14.07 v 8.48 q 1.02,-0.35 2.04,-0.51 1.02,-0.19 2.03,-0.19 5.79,0 9.17,3.17 3.38,3.17 3.38,8.59 0,5.58 -3.47,8.68 -3.47,3.08 -9.79,3.08 -2.18,0 -4.45,-0.37 -2.24,-0.37 -4.65,-1.11 v -4.7 q 2.08,1.13 4.3,1.69 2.23,0.55 4.7,0.55 4.01,0 6.35,-2.1 2.33,-2.11 2.33,-5.72 0,-3.61 -2.33,-5.72 -2.34,-2.1 -6.35,-2.1 -1.87,0 -3.75,0.41 -1.85,0.42 -3.79,1.3 z"
     fill="#000000"
     fill-rule="nonzero"
     fill-opacity="1"
     id="path3756" />
  <path
     clip-path="url(#clip160)"
     d="m 2867.89,1847.97 h 7.64 v -26.36 l -8.31,1.66 v -4.26 l 8.27,-1.66 h 4.67 v 30.62 h 7.64 v 3.94 h -19.91 z"
     fill="#000000"
     fill-rule="nonzero"
     fill-opacity="1"
     id="path3758" />
  <path
     clip-path="url(#clip160)"
     d="m 2907.25,1820.43 q -3.62,0 -5.44,3.56 -1.81,3.54 -1.81,10.67 0,7.11 1.81,10.67 1.82,3.55 5.44,3.55 3.63,0 5.44,-3.55 1.82,-3.56 1.82,-10.67 0,-7.13 -1.82,-10.67 -1.81,-3.56 -5.44,-3.56 m 0,-3.71 q 5.81,0 8.86,4.61 3.08,4.58 3.08,13.33 0,8.73 -3.08,13.34 -3.05,4.58 -8.86,4.58 -5.81,0 -8.89,-4.58 -3.06,-4.61 -3.06,-13.34 0,-8.75 3.06,-13.33 3.08,-4.61 8.89,-4.61 z"
     fill="#000000"
     fill-rule="nonzero"
     fill-opacity="1"
     id="path3760" />
  <path
     clip-path="url(#clip160)"
     d="m 2937.41,1820.43 q -3.61,0 -5.44,3.56 -1.81,3.54 -1.81,10.67 0,7.11 1.81,10.67 1.83,3.55 5.44,3.55 3.63,0 5.44,-3.55 1.83,-3.56 1.83,-10.67 0,-7.13 -1.83,-10.67 -1.81,-3.56 -5.44,-3.56 m 0,-3.71 q 5.81,0 8.86,4.61 3.08,4.58 3.08,13.33 0,8.73 -3.08,13.34 -3.05,4.58 -8.86,4.58 -5.81,0 -8.89,-4.58 -3.06,-4.61 -3.06,-13.34 0,-8.75 3.06,-13.33 3.08,-4.61 8.89,-4.61 z"
     fill="#000000"
     fill-rule="nonzero"
     fill-opacity="1"
     id="path3762" />
  <path
     clip-path="url(#clip160)"
     d="m 1570.54,1899.8 v 10.12 h 12.06 v 4.56 h -12.06 v 19.35 q 0,4.36 1.18,5.6 1.21,1.24 4.87,1.24 h 6.01 v 4.9 h -6.01 q -6.78,0 -9.36,-2.51 -2.58,-2.55 -2.58,-9.23 v -19.35 h -4.3 v -4.56 h 4.3 v -10.12 z"
     fill="#000000"
     fill-rule="nonzero"
     fill-opacity="1"
     id="path3764" />
  <path
     clip-path="url(#clip160)"
     d="m 1590.31,1909.92 h 5.85 v 35.65 h -5.85 v -35.65 m 0,-13.87 h 5.85 v 7.41 h -5.85 z"
     fill="#000000"
     fill-rule="nonzero"
     fill-opacity="1"
     id="path3766" />
  <path
     clip-path="url(#clip160)"
     d="m 1636.17,1916.77 q 2.2,-3.95 5.25,-5.83 3.06,-1.88 7.2,-1.88 5.57,0 8.59,3.92 3.02,3.88 3.02,11.08 v 21.51 h -5.89 v -21.32 q 0,-5.13 -1.81,-7.61 -1.81,-2.48 -5.54,-2.48 -4.55,0 -7.19,3.02 -2.64,3.02 -2.64,8.24 v 20.15 h -5.89 v -21.32 q 0,-5.16 -1.82,-7.61 -1.81,-2.48 -5.6,-2.48 -4.49,0 -7.13,3.05 -2.64,3.03 -2.64,8.21 v 20.15 h -5.89 v -35.65 h 5.89 v 5.54 q 2.01,-3.28 4.81,-4.84 2.8,-1.56 6.65,-1.56 3.88,0 6.59,1.98 2.74,1.97 4.04,5.73 z"
     fill="#000000"
     fill-rule="nonzero"
     fill-opacity="1"
     id="path3768" />
  <path
     clip-path="url(#clip160)"
     d="m 1702.41,1926.28 v 2.87 h -26.93 q 0.38,6.05 3.63,9.23 3.28,3.15 9.1,3.15 3.37,0 6.52,-0.83 3.19,-0.83 6.31,-2.48 v 5.54 q -3.15,1.33 -6.46,2.03 -3.31,0.7 -6.72,0.7 -8.53,0 -13.53,-4.96 -4.96,-4.97 -4.96,-13.43 0,-8.75 4.71,-13.88 4.74,-5.16 12.76,-5.16 7.19,0 11.36,4.65 4.21,4.62 4.21,12.57 m -5.86,-1.72 q -0.06,-4.8 -2.71,-7.67 -2.61,-2.86 -6.94,-2.86 -4.9,0 -7.86,2.77 -2.93,2.77 -3.37,7.8 z"
     fill="#000000"
     fill-rule="nonzero"
     fill-opacity="1"
     id="path3770" />
  <polyline
     clip-path="url(#clip160)"
     style="fill:none;stroke:#000000;stroke-width:4;stroke-linecap:round;stroke-linejoin:round;stroke-opacity:1"
     points="277.858,1776.71 277.858,216.704 "
     id="polyline3772" />
  <polyline
     clip-path="url(#clip160)"
     style="fill:none;stroke:#000000;stroke-width:4;stroke-linecap:round;stroke-linejoin:round;stroke-opacity:1"
     points="277.858,1751.17 291.779,1751.17 "
     id="polyline3774" />
  <polyline
     clip-path="url(#clip160)"
     style="fill:none;stroke:#000000;stroke-width:4;stroke-linecap:round;stroke-linejoin:round;stroke-opacity:1"
     points="277.858,1444.44 291.779,1444.44 "
     id="polyline3776" />
  <polyline
     clip-path="url(#clip160)"
     style="fill:none;stroke:#000000;stroke-width:4;stroke-linecap:round;stroke-linejoin:round;stroke-opacity:1"
     points="277.858,1137.71 291.779,1137.71 "
     id="polyline3778" />
  <polyline
     clip-path="url(#clip160)"
     style="fill:none;stroke:#000000;stroke-width:4;stroke-linecap:round;stroke-linejoin:round;stroke-opacity:1"
     points="277.858,830.976 291.779,830.976 "
     id="polyline3780" />
  <polyline
     clip-path="url(#clip160)"
     style="fill:none;stroke:#000000;stroke-width:4;stroke-linecap:round;stroke-linejoin:round;stroke-opacity:1"
     points="277.858,524.243 291.779,524.243 "
     id="polyline3782" />
  <polyline
     clip-path="url(#clip160)"
     style="fill:none;stroke:#000000;stroke-width:4;stroke-linecap:round;stroke-linejoin:round;stroke-opacity:1"
     points="277.858,217.51 291.779,217.51 "
     id="polyline3784" />
  <path
     clip-path="url(#clip160)"
     d="m 157.372,1751.63 h 29.676 v 3.93 h -29.676 z"
     fill="#000000"
     fill-rule="nonzero"
     fill-opacity="1"
     id="path3786" />
  <path
     clip-path="url(#clip160)"
     d="m 197.951,1764.52 h 7.639 v -26.37 l -8.311,1.67 v -4.26 l 8.264,-1.67 h 4.676 v 30.63 h 7.639 v 3.93 h -19.907 z"
     fill="#000000"
     fill-rule="nonzero"
     fill-opacity="1"
     id="path3788" />
  <path
     clip-path="url(#clip160)"
     d="m 205.914,1430.24 q -3.611,0 -5.44,3.57 -1.806,3.54 -1.806,10.67 0,7.1 1.806,10.67 1.829,3.54 5.44,3.54 3.634,0 5.439,-3.54 1.829,-3.57 1.829,-10.67 0,-7.13 -1.829,-10.67 -1.805,-3.57 -5.439,-3.57 m 0,-3.7 q 5.81,0 8.865,4.6 3.079,4.59 3.079,13.34 0,8.72 -3.079,13.33 -3.055,4.58 -8.865,4.58 -5.81,0 -8.889,-4.58 -3.056,-4.61 -3.056,-13.33 0,-8.75 3.056,-13.34 3.079,-4.6 8.889,-4.6 z"
     fill="#000000"
     fill-rule="nonzero"
     fill-opacity="1"
     id="path3790" />
  <path
     clip-path="url(#clip160)"
     d="m 197.951,1151.05 h 7.639 v -26.36 l -8.311,1.66 v -4.25 l 8.264,-1.67 h 4.676 v 30.62 h 7.639 v 3.94 h -19.907 z"
     fill="#000000"
     fill-rule="nonzero"
     fill-opacity="1"
     id="path3792" />
  <path
     clip-path="url(#clip160)"
     d="m 201.539,844.321 h 16.319 v 3.935 h -21.944 v -3.935 q 2.662,-2.755 7.245,-7.384 4.607,-4.653 5.787,-5.996 2.245,-2.523 3.125,-4.259 0.903,-1.759 0.903,-3.449 0,-2.755 -1.945,-4.491 -1.921,-1.736 -5.023,-1.736 -2.199,0 -4.652,0.764 -2.431,0.764 -5.209,2.315 v -4.722 q 2.824,-1.135 5.278,-1.713 2.454,-0.579 4.491,-0.579 5.37,0 8.564,2.685 3.195,2.685 3.195,7.176 0,2.13 -0.81,4.051 -0.787,1.898 -2.894,4.491 -0.578,0.671 -3.68,3.889 -3.102,3.194 -8.75,8.958 z"
     fill="#000000"
     fill-rule="nonzero"
     fill-opacity="1"
     id="path3794" />
  <path
     clip-path="url(#clip160)"
     d="m 210.728,522.889 q 3.357,0.717 5.232,2.986 1.898,2.268 1.898,5.602 0,5.115 -3.518,7.916 -3.519,2.801 -10,2.801 -2.176,0 -4.491,-0.44 -2.292,-0.416 -4.745,-1.273 v -4.514 q 1.944,1.135 4.259,1.713 2.315,0.579 4.838,0.579 4.398,0 6.69,-1.736 2.314,-1.736 2.314,-5.046 0,-3.056 -2.152,-4.769 -2.13,-1.736 -5.949,-1.736 h -4.028 v -3.842 h 4.213 q 3.449,0 5.277,-1.366 1.829,-1.389 1.829,-3.982 0,-2.662 -1.898,-4.074 -1.875,-1.435 -5.393,-1.435 -1.922,0 -4.121,0.417 -2.199,0.417 -4.838,1.296 v -4.167 q 2.662,-0.74 4.977,-1.111 2.338,-0.37 4.398,-0.37 5.324,0 8.426,2.431 3.102,2.407 3.102,6.527 0,2.871 -1.644,4.861 -1.643,1.968 -4.676,2.732 z"
     fill="#000000"
     fill-rule="nonzero"
     fill-opacity="1"
     id="path3796" />
  <path
     clip-path="url(#clip160)"
     d="m 208.275,204.304 -11.806,18.449 h 11.806 v -18.449 m -1.227,-4.074 h 5.88 v 22.523 h 4.93 v 3.889 h -4.93 v 8.148 h -4.653 v -8.148 h -15.602 v -4.514 z"
     fill="#000000"
     fill-rule="nonzero"
     fill-opacity="1"
     id="path3798" />
  <path
     clip-path="url(#clip160)"
     d="m 47.4683,980.091 17.3466,12.891 18.3014,-13.559 v 6.907 l -14.0046,10.376 14.0046,10.374 v 6.91 l -18.6515,-13.85 -16.9965,12.67 v -6.91 l 12.6996,-9.449 -12.6996,-9.453 z"
     fill="#000000"
     fill-rule="nonzero"
     fill-opacity="1"
     id="path3800" />
  <g
     id="g4246">
    <path
       clip-path="url(#clip160)"
       d="m 841.454,35.2489 v 7.9803 q -4.659,-2.228 -8.791,-3.3217 -4.132,-1.0938 -7.98,-1.0938 -6.684,0 -10.33,2.5926 -3.605,2.5926 -3.605,7.3727 0,4.0104 2.39,6.0763 2.43,2.0255 9.155,3.2813 l 4.942,1.0127 q 9.155,1.7419 13.489,6.1574 4.375,4.3749 4.375,11.7476 0,8.7904 -5.914,13.3274 -5.874,4.5371 -17.257,4.5371 -4.294,0 -9.155,-0.9723 -4.82,-0.9722 -10.006,-2.8761 v -8.4259 q 4.983,2.7951 9.763,4.213 4.78,1.4178 9.398,1.4178 7.008,0 10.816,-2.7546 3.808,-2.7547 3.808,-7.8588 0,-4.456 -2.755,-6.9675 -2.714,-2.5116 -8.952,-3.7674 l -4.983,-0.9722 q -9.155,-1.8229 -13.246,-5.7118 -4.092,-3.8888 -4.092,-10.8159 0,-8.0208 5.631,-12.6388 5.671,-4.618 15.596,-4.618 4.254,0 8.669,0.7696 4.416,0.7697 9.034,2.309 z"
       fill="#000000"
       fill-rule="nonzero"
       fill-opacity="1"
       id="path3802" />
    <path
       clip-path="url(#clip160)"
       d="m 878.155,70.9374 q -9.034,0 -12.518,2.066 -3.483,2.0659 -3.483,7.0485 0,3.9699 2.592,6.3195 2.633,2.309 7.13,2.309 6.198,0 9.925,-4.375 3.767,-4.4155 3.767,-11.7071 v -1.6609 h -7.413 m 14.867,-3.0787 V 93.744 h -7.454 v -6.8865 q -2.552,4.1319 -6.36,6.1168 -3.808,1.9445 -9.317,1.9445 -6.968,0 -11.1,-3.8889 -4.091,-3.9294 -4.091,-10.4918 0,-7.6563 5.104,-11.5451 5.145,-3.8889 15.313,-3.8889 h 10.451 v -0.7292 q 0,-5.1446 -3.403,-7.9397 -3.362,-2.8357 -9.479,-2.8357 -3.889,0 -7.575,0.9317 -3.686,0.9318 -7.089,2.7952 v -6.8866 q 4.091,-1.5798 7.94,-2.3495 3.848,-0.8102 7.494,-0.8102 9.843,0 14.704,5.1042 4.862,5.1041 4.862,15.4744 z"
       fill="#000000"
       fill-rule="nonzero"
       fill-opacity="1"
       id="path3804" />
    <path
       clip-path="url(#clip160)"
       d="m 943.698,57.0833 q 2.796,-5.0231 6.684,-7.4131 3.889,-2.3901 9.155,-2.3901 7.09,0 10.938,4.9826 3.848,4.9421 3.848,14.0972 V 93.744 h -7.494 V 66.6029 q 0,-6.5219 -2.309,-9.6816 -2.309,-3.1597 -7.049,-3.1597 -5.792,0 -9.155,3.8483 -3.362,3.8484 -3.362,10.4919 V 93.744 H 937.46 V 66.6029 q 0,-6.5624 -2.309,-9.6816 -2.309,-3.1597 -7.13,-3.1597 -5.711,0 -9.074,3.8888 -3.362,3.8484 -3.362,10.4514 V 93.744 h -7.494 V 48.3739 h 7.494 v 7.0485 q 2.552,-4.1724 6.117,-6.1573 3.565,-1.985 8.466,-1.985 4.942,0 8.386,2.5116 3.484,2.5115 5.144,7.2916 z"
       fill="#000000"
       fill-rule="nonzero"
       fill-opacity="1"
       id="path3806" />
    <path
       clip-path="url(#clip160)"
       d="m 996.401,86.9385 v 24.0625 h -7.495 V 48.3739 h 7.495 v 6.8865 q 2.349,-4.0509 5.909,-5.9953 3.61,-1.985 8.59,-1.985 8.27,0 13.41,6.5625 5.19,6.5625 5.19,17.2568 0,10.6944 -5.19,17.2569 -5.14,6.5625 -13.41,6.5625 -4.98,0 -8.59,-1.9445 -3.56,-1.9849 -5.909,-6.0358 m 25.359,-15.8391 q 0,-8.2233 -3.4,-12.8818 -3.37,-4.6991 -9.28,-4.6991 -5.91,0 -9.317,4.6991 -3.362,4.6585 -3.362,12.8818 0,8.2234 3.362,12.9224 3.407,4.6586 9.317,4.6586 5.91,0 9.28,-4.6586 3.4,-4.699 3.4,-12.9224 z"
       fill="#000000"
       fill-rule="nonzero"
       fill-opacity="1"
       id="path3808" />
    <path
       clip-path="url(#clip160)"
       d="m 1041.85,30.7119 h 7.46 V 93.744 h -7.46 z"
       fill="#000000"
       fill-rule="nonzero"
       fill-opacity="1"
       id="path3810" />
    <path
       clip-path="url(#clip160)"
       d="m 1103.71,69.1955 v 3.6458 h -34.27 q 0.48,7.6968 4.62,11.7477 4.17,4.0104 11.58,4.0104 4.3,0 8.31,-1.0533 4.05,-1.0532 8.02,-3.1597 v 7.0486 q -4.01,1.7014 -8.23,2.5926 -4.21,0.8912 -8.54,0.8912 -10.86,0 -17.22,-6.3194 -6.32,-6.3195 -6.32,-17.0949 0,-11.14 6,-17.6619 6.03,-6.5625 16.24,-6.5625 9.16,0 14.46,5.9143 5.35,5.8739 5.35,16.0011 m -7.45,-2.1875 q -0.09,-6.1168 -3.45,-9.7626 -3.32,-3.6459 -8.83,-3.6459 -6.24,0 -10,3.5243 -3.73,3.5243 -4.3,9.9247 z"
       fill="#000000"
       fill-rule="nonzero"
       fill-opacity="1"
       id="path3812" />
    <path
       clip-path="url(#clip160)"
       d="m 1168.16,61.1342 q 5.87,1.2558 9.15,5.2257 3.33,3.9699 3.33,9.8032 0,8.9525 -6.16,13.8541 -6.16,4.9016 -17.5,4.9016 -3.81,0 -7.86,-0.7697 -4.01,-0.7292 -8.3,-2.228 v -7.8993 q 3.4,1.985 7.45,2.9977 4.05,1.0127 8.47,1.0127 7.69,0 11.7,-3.0382 4.05,-3.0381 4.05,-8.8309 0,-5.3472 -3.76,-8.3449 Q 1165,64.78 1158.32,64.78 h -7.05 v -6.7245 h 7.37 q 6.04,0 9.24,-2.39 3.2,-2.4305 3.2,-6.9676 0,-4.6585 -3.33,-7.1295 -3.28,-2.5116 -9.43,-2.5116 -3.37,0 -7.22,0.7292 -3.84,0.7291 -8.46,2.2685 v -7.2917 q 4.66,-1.2963 8.71,-1.9444 4.09,-0.6481 7.69,-0.6481 9.32,0 14.75,4.2534 5.43,4.2129 5.43,11.4236 0,5.0231 -2.88,8.5069 -2.87,3.4432 -8.18,4.78 z"
       fill="#000000"
       fill-rule="nonzero"
       fill-opacity="1"
       id="path3814" />
    <path
       clip-path="url(#clip160)"
       d="m 1203.2,86.8575 h 28.56 v 6.8865 h -38.4 v -6.8865 q 4.65,-4.8206 12.67,-12.9224 8.07,-8.1423 10.13,-10.4919 3.93,-4.4154 5.47,-7.4536 1.58,-3.0787 1.58,-6.0359 0,-4.8206 -3.4,-7.8587 -3.36,-3.0382 -8.79,-3.0382 -3.85,0 -8.14,1.3368 -4.26,1.3368 -9.12,4.0509 v -8.2638 q 4.94,-1.985 9.24,-2.9977 4.29,-1.0127 7.86,-1.0127 9.39,0 14.98,4.699 5.59,4.6991 5.59,12.5578 0,3.7268 -1.41,7.0891 -1.38,3.3217 -5.07,7.8587 -1.01,1.1748 -6.44,6.8056 -5.43,5.5902 -15.31,15.677 z"
       fill="#000000"
       fill-rule="nonzero"
       fill-opacity="1"
       id="path3816" />
    <path
       clip-path="url(#clip160)"
       d="m 1249.78,83.4547 h 8.55 v 6.9676 l -6.64,12.9627 h -5.23 l 3.32,-12.9627 z"
       fill="#000000"
       fill-rule="nonzero"
       fill-opacity="1"
       id="path3818" />
    <path
       clip-path="url(#clip160)"
       d="m 1346.24,37.9225 v 8.6285 q -4.14,-3.8484 -8.83,-5.7523 -4.66,-1.9039 -9.93,-1.9039 -10.37,0 -15.88,6.3599 -5.51,6.3194 -5.51,18.3101 0,11.9501 5.51,18.3101 5.51,6.3194 15.88,6.3194 5.27,0 9.93,-1.904 4.69,-1.9039 8.83,-5.7522 v 8.5474 q -4.3,2.9166 -9.12,4.3749 -4.78,1.4584 -10.13,1.4584 -13.73,0 -21.63,-8.3854 -7.9,-8.4259 -7.9,-22.9686 0,-14.5833 7.9,-22.9687 7.9,-8.4258 21.63,-8.4258 5.43,0 10.21,1.4583 4.82,1.4178 9.04,4.2939 z"
       fill="#000000"
       fill-rule="nonzero"
       fill-opacity="1"
       id="path3820" />
    <path
       clip-path="url(#clip160)"
       d="m 1358.55,30.7119 h 7.46 V 93.744 h -7.46 z"
       fill="#000000"
       fill-rule="nonzero"
       fill-opacity="1"
       id="path3822" />
    <path
       clip-path="url(#clip160)"
       d="m 1402.22,70.9374 q -9.03,0 -12.52,2.066 -3.48,2.0659 -3.48,7.0485 0,3.9699 2.59,6.3195 2.63,2.309 7.13,2.309 6.2,0 9.93,-4.375 3.76,-4.4155 3.76,-11.7071 v -1.6609 h -7.41 m 14.87,-3.0787 V 93.744 h -7.46 v -6.8865 q -2.55,4.1319 -6.36,6.1168 -3.8,1.9445 -9.31,1.9445 -6.97,0 -11.1,-3.8889 -4.09,-3.9294 -4.09,-10.4918 0,-7.6563 5.1,-11.5451 5.14,-3.8889 15.31,-3.8889 h 10.45 v -0.7292 q 0,-5.1446 -3.4,-7.9397 -3.36,-2.8357 -9.48,-2.8357 -3.89,0 -7.57,0.9317 -3.69,0.9318 -7.09,2.7952 v -6.8866 q 4.09,-1.5798 7.94,-2.3495 3.85,-0.8102 7.49,-0.8102 9.84,0 14.71,5.1042 4.86,5.1041 4.86,15.4744 z"
       fill="#000000"
       fill-rule="nonzero"
       fill-opacity="1"
       id="path3824" />
    <path
       clip-path="url(#clip160)"
       d="m 1461.36,49.7107 v 7.0485 q -3.16,-1.6203 -6.56,-2.4305 -3.4,-0.8102 -7.05,-0.8102 -5.55,0 -8.34,1.7014 -2.76,1.7014 -2.76,5.1041 0,2.5926 1.99,4.0915 1.98,1.4583 7.98,2.7951 l 2.55,0.5671 q 7.94,1.7014 11.26,4.8206 3.36,3.0787 3.36,8.6284 0,6.3194 -5.02,10.0057 -4.98,3.6864 -13.73,3.6864 -3.65,0 -7.62,-0.7292 -3.93,-0.6887 -8.3,-2.1065 v -7.6967 q 4.13,2.147 8.14,3.2407 4.01,1.0533 7.94,1.0533 5.27,0 8.1,-1.7824 2.84,-1.8229 2.84,-5.1042 0,-3.0381 -2.07,-4.6585 -2.02,-1.6204 -8.95,-3.1192 l -2.59,-0.6076 q -6.93,-1.4584 -10.01,-4.456 -3.08,-3.0382 -3.08,-8.3044 0,-6.4004 4.54,-9.8842 4.54,-3.4838 12.88,-3.4838 4.13,0 7.78,0.6077 3.64,0.6076 6.72,1.8229 z"
       fill="#000000"
       fill-rule="nonzero"
       fill-opacity="1"
       id="path3826" />
    <path
       clip-path="url(#clip160)"
       d="m 1504.59,49.7107 v 7.0485 q -3.16,-1.6203 -6.57,-2.4305 -3.4,-0.8102 -7.04,-0.8102 -5.55,0 -8.35,1.7014 -2.75,1.7014 -2.75,5.1041 0,2.5926 1.98,4.0915 1.99,1.4583 7.98,2.7951 l 2.55,0.5671 q 7.94,1.7014 11.26,4.8206 3.37,3.0787 3.37,8.6284 0,6.3194 -5.03,10.0057 -4.98,3.6864 -13.73,3.6864 -3.64,0 -7.61,-0.7292 -3.93,-0.6887 -8.31,-2.1065 v -7.6967 q 4.13,2.147 8.14,3.2407 4.01,1.0533 7.94,1.0533 5.27,0 8.11,-1.7824 2.83,-1.8229 2.83,-5.1042 0,-3.0381 -2.07,-4.6585 -2.02,-1.6204 -8.95,-3.1192 l -2.59,-0.6076 q -6.93,-1.4584 -10.01,-4.456 -3.07,-3.0382 -3.07,-8.3044 0,-6.4004 4.53,-9.8842 4.54,-3.4838 12.88,-3.4838 4.14,0 7.78,0.6077 3.65,0.6076 6.73,1.8229 z"
       fill="#000000"
       fill-rule="nonzero"
       fill-opacity="1"
       id="path3828" />
    <path
       clip-path="url(#clip160)"
       d="m 1563.81,38.6517 q -6.32,0 -9.52,6.2384 -3.16,6.1979 -3.16,18.6747 0,12.4362 3.16,18.6746 3.2,6.1979 9.52,6.1979 6.36,0 9.52,-6.1979 3.2,-6.2384 3.2,-18.6746 0,-12.4768 -3.2,-18.6747 -3.16,-6.2384 -9.52,-6.2384 m 0,-6.4814 q 10.17,0 15.52,8.0613 5.38,8.0207 5.38,23.3332 0,15.2719 -5.38,23.3332 -5.35,8.0208 -15.52,8.0208 -10.17,0 -15.55,-8.0208 -5.35,-8.0613 -5.35,-23.3332 0,-15.3125 5.35,-23.3332 5.38,-8.0613 15.55,-8.0613 z"
       fill="#000000"
       fill-rule="nonzero"
       fill-opacity="1"
       id="path3830" />
    <path
       clip-path="url(#clip160)"
       d="m 1599.94,83.4547 h 8.55 v 6.9676 l -6.64,12.9627 h -5.23 l 3.32,-12.9627 z"
       fill="#000000"
       fill-rule="nonzero"
       fill-opacity="1"
       id="path3832" />
    <path
       clip-path="url(#clip160)"
       d="m 1651.92,33.264 h 32.12 v 6.8865 h -24.63 v 14.8263 q 1.78,-0.6076 3.57,-0.8912 1.78,-0.324 3.56,-0.324 10.13,0 16.04,5.5497 5.92,5.5498 5.92,15.0289 0,9.7626 -6.08,15.1909 -6.08,5.3877 -17.13,5.3877 -3.81,0 -7.78,-0.6482 -3.93,-0.6481 -8.14,-1.9444 v -8.2234 q 3.64,1.985 7.53,2.9572 3.89,0.9722 8.22,0.9722 7.01,0 11.1,-3.6863 4.09,-3.6863 4.09,-10.0057 0,-6.3194 -4.09,-10.0058 -4.09,-3.6863 -11.1,-3.6863 -3.28,0 -6.56,0.7292 -3.24,0.7291 -6.64,2.2685 z"
       fill="#000000"
       fill-rule="nonzero"
       fill-opacity="1"
       id="path3834" />
    <path
       clip-path="url(#clip160)"
       d="m 1729.41,61.1342 q 5.88,1.2558 9.16,5.2257 3.32,3.9699 3.32,9.8032 0,8.9525 -6.16,13.8541 -6.16,4.9016 -17.5,4.9016 -3.81,0 -7.86,-0.7697 -4.01,-0.7292 -8.3,-2.228 v -7.8993 q 3.4,1.985 7.45,2.9977 4.05,1.0127 8.47,1.0127 7.69,0 11.71,-3.0382 4.05,-3.0381 4.05,-8.8309 0,-5.3472 -3.77,-8.3449 -3.73,-3.0382 -10.41,-3.0382 h -7.05 v -6.7245 h 7.37 q 6.04,0 9.24,-2.39 3.2,-2.4305 3.2,-6.9676 0,-4.6585 -3.32,-7.1295 -3.28,-2.5116 -9.44,-2.5116 -3.36,0 -7.21,0.7292 -3.85,0.7291 -8.47,2.2685 v -7.2917 q 4.66,-1.2963 8.71,-1.9444 4.09,-0.6481 7.7,-0.6481 9.31,0 14.74,4.2534 5.43,4.2129 5.43,11.4236 0,5.0231 -2.88,8.5069 -2.87,3.4432 -8.18,4.78 z"
       fill="#000000"
       fill-rule="nonzero"
       fill-opacity="1"
       id="path3836" />
    <path
       clip-path="url(#clip160)"
       d="m 1752.58,67.6967 h 21.84 v 6.6435 h -21.84 z"
       fill="#000000"
       fill-rule="nonzero"
       fill-opacity="1"
       id="path3838" />
    <path
       clip-path="url(#clip160)"
       d="m 1815.21,49.7107 v 7.0485 q -3.16,-1.6203 -6.56,-2.4305 -3.41,-0.8102 -7.05,-0.8102 -5.55,0 -8.35,1.7014 -2.75,1.7014 -2.75,5.1041 0,2.5926 1.98,4.0915 1.99,1.4583 7.98,2.7951 l 2.56,0.5671 q 7.94,1.7014 11.26,4.8206 3.36,3.0787 3.36,8.6284 0,6.3194 -5.02,10.0057 -4.99,3.6864 -13.74,3.6864 -3.64,0 -7.61,-0.7292 -3.93,-0.6887 -8.31,-2.1065 v -7.6967 q 4.14,2.147 8.15,3.2407 4.01,1.0533 7.94,1.0533 5.26,0 8.1,-1.7824 2.83,-1.8229 2.83,-5.1042 0,-3.0381 -2.06,-4.6585 -2.03,-1.6204 -8.95,-3.1192 l -2.6,-0.6076 q -6.92,-1.4584 -10,-4.456 -3.08,-3.0382 -3.08,-8.3044 0,-6.4004 4.54,-9.8842 4.53,-3.4838 12.88,-3.4838 4.13,0 7.78,0.6077 3.64,0.6076 6.72,1.8229 z"
       fill="#000000"
       fill-rule="nonzero"
       fill-opacity="1"
       id="path3840" />
    <path
       clip-path="url(#clip160)"
       d="m 1829.51,48.3739 h 7.45 V 93.744 h -7.45 V 48.3739 m 0,-17.662 h 7.45 v 9.4386 h -7.45 z"
       fill="#000000"
       fill-rule="nonzero"
       fill-opacity="1"
       id="path3842" />
    <path
       clip-path="url(#clip160)"
       d="m 1859.93,35.492 v 12.8819 h 15.35 v 5.7928 h -15.35 v 24.6295 q 0,5.5497 1.5,7.1296 1.54,1.5798 6.2,1.5798 h 7.65 v 6.2384 h -7.65 q -8.63,0 -11.91,-3.2002 -3.28,-3.2407 -3.28,-11.7476 V 54.1667 h -5.47 v -5.7928 h 5.47 V 35.492 Z"
       fill="#000000"
       fill-rule="nonzero"
       fill-opacity="1"
       id="path3844" />
    <path
       clip-path="url(#clip160)"
       d="m 1923.9,69.1955 v 3.6458 h -34.27 q 0.48,7.6968 4.61,11.7477 4.18,4.0104 11.59,4.0104 4.29,0 8.3,-1.0533 4.05,-1.0532 8.02,-3.1597 v 7.0486 q -4.01,1.7014 -8.22,2.5926 -4.21,0.8912 -8.55,0.8912 -10.85,0 -17.21,-6.3194 -6.32,-6.3195 -6.32,-17.0949 0,-11.14 5.99,-17.6619 6.04,-6.5625 16.25,-6.5625 9.15,0 14.46,5.9143 5.35,5.8739 5.35,16.0011 m -7.46,-2.1875 q -0.08,-6.1168 -3.44,-9.7626 -3.32,-3.6459 -8.83,-3.6459 -6.24,0 -10.01,3.5243 -3.72,3.5243 -4.29,9.9247 z"
       fill="#000000"
       fill-rule="nonzero"
       fill-opacity="1"
       id="path3846" />
    <path
       clip-path="url(#clip160)"
       d="m 1962.82,33.264 h 8.19 v 60.48 h -8.19 z"
       fill="#000000"
       fill-rule="nonzero"
       fill-opacity="1"
       id="path3848" />
    <path
       clip-path="url(#clip160)"
       d="m 2022.29,57.0833 q 2.8,-5.0231 6.69,-7.4131 3.89,-2.3901 9.15,-2.3901 7.09,0 10.94,4.9826 3.85,4.9421 3.85,14.0972 V 93.744 h -7.5 V 66.6029 q 0,-6.5219 -2.31,-9.6816 -2.31,-3.1597 -7.04,-3.1597 -5.8,0 -9.16,3.8483 -3.36,3.8484 -3.36,10.4919 V 93.744 h -7.5 V 66.6029 q 0,-6.5624 -2.31,-9.6816 -2.3,-3.1597 -7.12,-3.1597 -5.72,0 -9.08,3.8888 -3.36,3.8484 -3.36,10.4514 V 93.744 h -7.5 V 48.3739 h 7.5 v 7.0485 q 2.55,-4.1724 6.12,-6.1573 3.56,-1.985 8.46,-1.985 4.94,0 8.39,2.5116 3.48,2.5115 5.14,7.2916 z"
       fill="#000000"
       fill-rule="nonzero"
       fill-opacity="1"
       id="path3850" />
    <path
       clip-path="url(#clip160)"
       d="m 2074.99,86.9385 v 24.0625 h -7.49 V 48.3739 h 7.49 v 6.8865 q 2.35,-4.0509 5.92,-5.9953 3.6,-1.985 8.59,-1.985 8.26,0 13.41,6.5625 5.18,6.5625 5.18,17.2568 0,10.6944 -5.18,17.2569 -5.15,6.5625 -13.41,6.5625 -4.99,0 -8.59,-1.9445 -3.57,-1.9849 -5.92,-6.0358 m 25.36,-15.8391 q 0,-8.2233 -3.4,-12.8818 -3.36,-4.6991 -9.28,-4.6991 -5.91,0 -9.31,4.6991 -3.37,4.6585 -3.37,12.8818 0,8.2234 3.37,12.9224 3.4,4.6586 9.31,4.6586 5.92,0 9.28,-4.6586 3.4,-4.699 3.4,-12.9224 z"
       fill="#000000"
       fill-rule="nonzero"
       fill-opacity="1"
       id="path3852" />
    <path
       clip-path="url(#clip160)"
       d="M 2119.68,75.839 V 48.3739 h 7.45 v 27.1815 q 0,6.441 2.51,9.6817 2.51,3.2002 7.54,3.2002 6.03,0 9.52,-3.8483 3.52,-3.8484 3.52,-10.4919 V 48.3739 h 7.45 V 93.744 h -7.45 v -6.9676 q -2.71,4.132 -6.32,6.1574 -3.56,1.985 -8.3,1.985 -7.82,0 -11.87,-4.8611 -4.05,-4.8611 -4.05,-14.2187 m 18.75,-28.5589 z"
       fill="#000000"
       fill-rule="nonzero"
       fill-opacity="1"
       id="path3854" />
    <path
       clip-path="url(#clip160)"
       d="m 2180.4,35.492 v 12.8819 h 15.35 v 5.7928 h -15.35 v 24.6295 q 0,5.5497 1.5,7.1296 1.54,1.5798 6.2,1.5798 h 7.65 v 6.2384 h -7.65 q -8.63,0 -11.91,-3.2002 -3.29,-3.2407 -3.29,-11.7476 V 54.1667 h -5.46 v -5.7928 h 5.46 V 35.492 Z"
       fill="#000000"
       fill-rule="nonzero"
       fill-opacity="1"
       id="path3856" />
    <path
       clip-path="url(#clip160)"
       d="m 2226.17,70.9374 q -9.03,0 -12.51,2.066 -3.49,2.0659 -3.49,7.0485 0,3.9699 2.6,6.3195 2.63,2.309 7.13,2.309 6.19,0 9.92,-4.375 3.77,-4.4155 3.77,-11.7071 v -1.6609 h -7.42 m 14.87,-3.0787 V 93.744 h -7.45 v -6.8865 q -2.55,4.1319 -6.36,6.1168 -3.81,1.9445 -9.32,1.9445 -6.97,0 -11.1,-3.8889 -4.09,-3.9294 -4.09,-10.4918 0,-7.6563 5.1,-11.5451 5.15,-3.8889 15.32,-3.8889 h 10.45 v -0.7292 q 0,-5.1446 -3.41,-7.9397 -3.36,-2.8357 -9.47,-2.8357 -3.89,0 -7.58,0.9317 -3.69,0.9318 -7.09,2.7952 v -6.8866 q 4.09,-1.5798 7.94,-2.3495 3.85,-0.8102 7.5,-0.8102 9.84,0 14.7,5.1042 4.86,5.1041 4.86,15.4744 z"
       fill="#000000"
       fill-rule="nonzero"
       fill-opacity="1"
       id="path3858" />
    <path
       clip-path="url(#clip160)"
       d="m 2263.77,35.492 v 12.8819 h 15.35 v 5.7928 h -15.35 v 24.6295 q 0,5.5497 1.5,7.1296 1.53,1.5798 6.19,1.5798 h 7.66 v 6.2384 h -7.66 q -8.63,0 -11.91,-3.2002 -3.28,-3.2407 -3.28,-11.7476 V 54.1667 h -5.47 v -5.7928 h 5.47 V 35.492 Z"
       fill="#000000"
       fill-rule="nonzero"
       fill-opacity="1"
       id="path3860" />
    <path
       clip-path="url(#clip160)"
       d="m 2288.92,48.3739 h 7.46 V 93.744 h -7.46 V 48.3739 m 0,-17.662 h 7.46 v 9.4386 h -7.46 z"
       fill="#000000"
       fill-rule="nonzero"
       fill-opacity="1"
       id="path3862" />
    <path
       clip-path="url(#clip160)"
       d="m 2329.55,53.5995 q -5.99,0 -9.48,4.6991 -3.48,4.6585 -3.48,12.8008 0,8.1424 3.44,12.8414 3.49,4.6586 9.52,4.6586 5.96,0 9.44,-4.6991 3.49,-4.699 3.49,-12.8009 0,-8.0613 -3.49,-12.7603 -3.48,-4.7396 -9.44,-4.7396 m 0,-6.3194 q 9.73,0 15.28,6.3194 5.54,6.3194 5.54,17.4999 0,11.14 -5.54,17.5 -5.55,6.3194 -15.28,6.3194 -9.76,0 -15.31,-6.3194 -5.51,-6.36 -5.51,-17.5 0,-11.1805 5.51,-17.4999 5.55,-6.3194 15.31,-6.3194 z"
       fill="#000000"
       fill-rule="nonzero"
       fill-opacity="1"
       id="path3864" />
    <path
       clip-path="url(#clip160)"
       d="M 2400.44,66.3599 V 93.744 h -7.45 V 66.6029 q 0,-6.4409 -2.51,-9.6411 -2.51,-3.2002 -7.54,-3.2002 -6.03,0 -9.52,3.8483 -3.48,3.8484 -3.48,10.4919 V 93.744 h -7.49 V 48.3739 h 7.49 v 7.0485 q 2.67,-4.0914 6.28,-6.1168 3.65,-2.0255 8.39,-2.0255 7.81,0 11.82,4.8611 4.01,4.8206 4.01,14.2187 z"
       fill="#000000"
       fill-rule="nonzero"
       fill-opacity="1"
       id="path3866" />
    <path
       clip-path="url(#clip160)"
       d="m 2417.21,83.4547 h 8.55 v 6.9676 l -6.64,12.9627 h -5.23 l 3.32,-12.9627 z"
       fill="#000000"
       fill-rule="nonzero"
       fill-opacity="1"
       id="path3868" />
  </g>
  <g
     id="g4210"
     transform="translate(-47.233)">
    <path
       clip-path="url(#clip160)"
       d="m 1102.49,145.98 v -24.548 h 7.46 v 63.032 h -7.46 v -6.806 q -2.35,4.051 -5.95,6.036 -3.57,1.945 -8.59,1.945 -8.22,0 -13.41,-6.563 -5.14,-6.562 -5.14,-17.257 0,-10.694 5.14,-17.256 5.19,-6.563 13.41,-6.563 5.02,0 8.59,1.985 3.6,1.945 5.95,5.995 m -25.4,15.839 q 0,8.224 3.37,12.923 3.4,4.658 9.31,4.658 5.92,0 9.32,-4.658 3.4,-4.699 3.4,-12.923 0,-8.223 -3.4,-12.881 -3.4,-4.699 -9.32,-4.699 -5.91,0 -9.31,4.699 -3.37,4.658 -3.37,12.881 z"
       fill="#000000"
       fill-rule="nonzero"
       fill-opacity="1"
       id="path3870"
       transform="translate(-130.525)" />
    <path
       clip-path="url(#clip160)"
       d="m 1152.64,146.791 h 51.94 v 6.805 h -51.94 v -6.805 m 0,16.527 h 51.94 v 6.887 h -51.94 z"
       fill="#000000"
       fill-rule="nonzero"
       fill-opacity="1"
       id="path3872"
       transform="translate(-130.525)" />
    <path
       clip-path="url(#clip160)"
       d="m 1250.03,177.577 h 13.37 v -46.139 l -14.55,2.916 v -7.453 l 14.46,-2.917 h 8.19 v 53.593 h 13.37 v 6.887 h -34.84 z"
       fill="#000000"
       fill-rule="nonzero"
       fill-opacity="1"
       id="path3874"
       transform="translate(-130.525)" />
    <path
       clip-path="url(#clip160)"
       d="m 1318.89,129.372 q -6.32,0 -9.52,6.238 -3.16,6.198 -3.16,18.675 0,12.436 3.16,18.674 3.2,6.198 9.52,6.198 6.36,0 9.52,-6.198 3.2,-6.238 3.2,-18.674 0,-12.477 -3.2,-18.675 -3.16,-6.238 -9.52,-6.238 m 0,-6.482 q 10.17,0 15.52,8.062 5.39,8.02 5.39,23.333 0,15.272 -5.39,23.333 -5.35,8.021 -15.52,8.021 -10.16,0 -15.55,-8.021 -5.35,-8.061 -5.35,-23.333 0,-15.313 5.35,-23.333 5.39,-8.062 15.55,-8.062 z"
       fill="#000000"
       fill-rule="nonzero"
       fill-opacity="1"
       id="path3876"
       transform="translate(-130.525)" />
    <path
       clip-path="url(#clip160)"
       d="m 1355.03,174.175 h 8.54 v 6.967 l -6.64,12.963 h -5.22 l 3.32,-12.963 z"
       fill="#000000"
       fill-rule="nonzero"
       fill-opacity="1"
       id="path3878"
       transform="translate(-130.525)" />
    <path
       clip-path="url(#clip160)"
       d="m 1427.7,194.591 -6.04,-15.515 -12.43,22.685 h -8.79 l 17.58,-32.083 -7.37,-19.08 q -1.99,-5.104 -8.23,-5.104 h -1.98 v -6.4 l 2.83,0.081 q 10.45,0.283 13.09,7.048 l 5.99,15.515 12.44,-22.685 h 8.79 l -17.58,32.084 7.37,19.079 q 1.99,5.104 8.23,5.104 h 1.98 v 6.401 l -2.84,-0.081 q -10.45,-0.284 -13.04,-7.049 z"
       fill="#000000"
       fill-rule="nonzero"
       fill-opacity="1"
       id="path3880"
       transform="translate(-130.525)" />
    <path
       clip-path="url(#clip160)"
       d="m 1481.13,146.791 h 51.93 v 6.805 h -51.93 v -6.805 m 0,16.527 h 51.93 v 6.887 h -51.93 z"
       fill="#000000"
       fill-rule="nonzero"
       fill-opacity="1"
       id="path3882"
       transform="translate(-130.525)" />
    <path
       clip-path="url(#clip160)"
       d="m 1599.58,131.114 -20.66,32.285 h 20.66 v -32.285 m -2.15,-7.13 h 10.29 v 39.415 h 8.63 v 6.806 h -8.63 v 14.259 h -8.14 v -14.259 h -27.3 v -7.899 z"
       fill="#000000"
       fill-rule="nonzero"
       fill-opacity="1"
       id="path3884"
       transform="translate(-130.525)" />
    <path
       clip-path="url(#clip160)"
       d="m 1647.38,129.372 q -6.32,0 -9.52,6.238 -3.16,6.198 -3.16,18.675 0,12.436 3.16,18.674 3.2,6.198 9.52,6.198 6.36,0 9.52,-6.198 3.2,-6.238 3.2,-18.674 0,-12.477 -3.2,-18.675 -3.16,-6.238 -9.52,-6.238 m 0,-6.482 q 10.17,0 15.52,8.062 5.38,8.02 5.38,23.333 0,15.272 -5.38,23.333 -5.35,8.021 -15.52,8.021 -10.17,0 -15.55,-8.021 -5.35,-8.061 -5.35,-23.333 0,-15.313 5.35,-23.333 5.38,-8.062 15.55,-8.062 z"
       fill="#000000"
       fill-rule="nonzero"
       fill-opacity="1"
       id="path3886"
       transform="translate(-130.525)" />
    <path
       clip-path="url(#clip160)"
       d="m 1683.52,174.175 h 8.54 v 6.967 l -6.64,12.963 h -5.23 l 3.33,-12.963 z"
       fill="#000000"
       fill-rule="nonzero"
       fill-opacity="1"
       id="path3888"
       transform="translate(-130.525)" />
    <path
       clip-path="url(#clip160)"
       d="m 1734.68,123.984 h 8.18 v 53.593 h 29.45 v 6.887 h -37.63 z"
       fill="#000000"
       fill-rule="nonzero"
       fill-opacity="1"
       id="path3890"
       transform="translate(-130.525)" />
    <path
       clip-path="url(#clip160)"
       d="m 1817.92,159.916 v 3.645 h -34.27 q 0.49,7.697 4.62,11.748 4.17,4.01 11.59,4.01 4.29,0 8.3,-1.053 4.05,-1.053 8.02,-3.16 v 7.049 q -4.01,1.701 -8.22,2.593 -4.21,0.891 -8.55,0.891 -10.86,0 -17.21,-6.32 -6.32,-6.319 -6.32,-17.094 0,-11.14 5.99,-17.662 6.04,-6.563 16.25,-6.563 9.15,0 14.46,5.914 5.34,5.874 5.34,16.002 m -7.45,-2.188 q -0.08,-6.117 -3.44,-9.763 -3.32,-3.645 -8.83,-3.645 -6.24,0 -10.01,3.524 -3.73,3.524 -4.29,9.925 z"
       fill="#000000"
       fill-rule="nonzero"
       fill-opacity="1"
       id="path3892"
       transform="translate(-130.525)" />
    <path
       clip-path="url(#clip160)"
       d="m 1860.01,161.252 q 0,-8.101 -3.36,-12.557 -3.32,-4.456 -9.36,-4.456 -5.99,0 -9.35,4.456 -3.33,4.456 -3.33,12.557 0,8.062 3.33,12.518 3.36,4.456 9.35,4.456 6.04,0 9.36,-4.456 3.36,-4.456 3.36,-12.518 m 7.46,17.581 q 0,11.586 -5.15,17.217 -5.14,5.671 -15.76,5.671 -3.93,0 -7.41,-0.608 -3.48,-0.567 -6.76,-1.782 v -7.251 q 3.28,1.782 6.48,2.633 3.2,0.85 6.52,0.85 7.33,0 10.98,-3.848 3.64,-3.808 3.64,-11.545 v -3.686 q -2.31,4.01 -5.91,5.995 -3.61,1.985 -8.63,1.985 -8.34,0 -13.45,-6.36 -5.1,-6.36 -5.1,-16.852 0,-10.532 5.1,-16.892 5.11,-6.36 13.45,-6.36 5.02,0 8.63,1.985 3.6,1.985 5.91,5.995 v -6.886 h 7.46 z"
       fill="#000000"
       fill-rule="nonzero"
       fill-opacity="1"
       id="path3894"
       transform="translate(-130.525)" />
    <path
       clip-path="url(#clip160)"
       d="m 1921.63,159.916 v 3.645 h -34.27 q 0.48,7.697 4.61,11.748 4.18,4.01 11.59,4.01 4.29,0 8.3,-1.053 4.06,-1.053 8.03,-3.16 v 7.049 q -4.02,1.701 -8.23,2.593 -4.21,0.891 -8.55,0.891 -10.85,0 -17.21,-6.32 -6.32,-6.319 -6.32,-17.094 0,-11.14 5.99,-17.662 6.04,-6.563 16.25,-6.563 9.15,0 14.46,5.914 5.35,5.874 5.35,16.002 m -7.46,-2.188 q -0.08,-6.117 -3.44,-9.763 -3.32,-3.645 -8.83,-3.645 -6.24,0 -10.01,3.524 -3.72,3.524 -4.29,9.925 z"
       fill="#000000"
       fill-rule="nonzero"
       fill-opacity="1"
       id="path3896"
       transform="translate(-130.525)" />
    <path
       clip-path="url(#clip160)"
       d="m 1971.57,157.08 v 27.384 h -7.45 v -27.141 q 0,-6.441 -2.51,-9.641 -2.51,-3.2 -7.54,-3.2 -6.03,0 -9.51,3.848 -3.49,3.848 -3.49,10.492 v 25.642 h -7.49 v -45.37 h 7.49 v 7.048 q 2.68,-4.091 6.28,-6.116 3.65,-2.026 8.39,-2.026 7.81,0 11.82,4.861 4.01,4.821 4.01,14.219 z"
       fill="#000000"
       fill-rule="nonzero"
       fill-opacity="1"
       id="path3898"
       transform="translate(-130.525)" />
    <path
       clip-path="url(#clip160)"
       d="m 2016.3,145.98 v -24.548 h 7.45 v 63.032 h -7.45 v -6.806 q -2.35,4.051 -5.96,6.036 -3.56,1.945 -8.59,1.945 -8.22,0 -13.4,-6.563 -5.15,-6.562 -5.15,-17.257 0,-10.694 5.15,-17.256 5.18,-6.563 13.4,-6.563 5.03,0 8.59,1.985 3.61,1.945 5.96,5.995 m -25.4,15.839 q 0,8.224 3.36,12.923 3.4,4.658 9.32,4.658 5.91,0 9.31,-4.658 3.41,-4.699 3.41,-12.923 0,-8.223 -3.41,-12.881 -3.4,-4.699 -9.31,-4.699 -5.92,0 -9.32,4.699 -3.36,4.658 -3.36,12.881 z"
       fill="#000000"
       fill-rule="nonzero"
       fill-opacity="1"
       id="path3900"
       transform="translate(-130.525)" />
    <path
       clip-path="url(#clip160)"
       d="m 2065.39,146.061 q -1.25,-0.729 -2.75,-1.053 -1.46,-0.364 -3.24,-0.364 -6.32,0 -9.72,4.132 -3.37,4.091 -3.37,11.788 v 23.9 h -7.49 v -45.37 h 7.49 v 7.048 q 2.35,-4.131 6.12,-6.116 3.77,-2.026 9.16,-2.026 0.77,0 1.7,0.122 0.93,0.081 2.06,0.283 z"
       fill="#000000"
       fill-rule="nonzero"
       fill-opacity="1"
       id="path3902"
       transform="translate(-130.525)" />
    <path
       clip-path="url(#clip160)"
       d="m 2110.2,159.916 v 3.645 h -34.27 q 0.48,7.697 4.61,11.748 4.18,4.01 11.59,4.01 4.29,0 8.3,-1.053 4.05,-1.053 8.02,-3.16 v 7.049 q -4.01,1.701 -8.22,2.593 -4.21,0.891 -8.55,0.891 -10.85,0 -17.21,-6.32 -6.32,-6.319 -6.32,-17.094 0,-11.14 5.99,-17.662 6.04,-6.563 16.25,-6.563 9.15,0 14.46,5.914 5.35,5.874 5.35,16.002 m -7.46,-2.188 q -0.08,-6.117 -3.44,-9.763 -3.32,-3.645 -8.83,-3.645 -6.24,0 -10.01,3.524 -3.72,3.524 -4.29,9.925 z"
       fill="#000000"
       fill-rule="nonzero"
       fill-opacity="1"
       id="path3904"
       transform="translate(-130.525)" />
    <path
       clip-path="url(#clip160)"
       d="m 2187.61,159.916 v 3.645 h -34.27 q 0.49,7.697 4.62,11.748 4.17,4.01 11.58,4.01 4.3,0 8.31,-1.053 4.05,-1.053 8.02,-3.16 v 7.049 q -4.01,1.701 -8.23,2.593 -4.21,0.891 -8.54,0.891 -10.86,0 -17.22,-6.32 -6.32,-6.319 -6.32,-17.094 0,-11.14 6,-17.662 6.03,-6.563 16.24,-6.563 9.16,0 14.46,5.914 5.35,5.874 5.35,16.002 m -7.45,-2.188 q -0.09,-6.117 -3.45,-9.763 -3.32,-3.645 -8.83,-3.645 -6.24,0 -10,3.524 -3.73,3.524 -4.3,9.925 z"
       fill="#000000"
       fill-rule="nonzero"
       fill-opacity="1"
       id="path3906"
       transform="translate(-130.525)" />
    <path
       clip-path="url(#clip160)"
       d="m 2237.56,157.08 v 27.384 h -7.46 v -27.141 q 0,-6.441 -2.51,-9.641 -2.51,-3.2 -7.53,-3.2 -6.04,0 -9.52,3.848 -3.49,3.848 -3.49,10.492 v 25.642 h -7.49 v -45.37 h 7.49 v 7.048 q 2.68,-4.091 6.28,-6.116 3.65,-2.026 8.39,-2.026 7.82,0 11.83,4.861 4.01,4.821 4.01,14.219 z"
       fill="#000000"
       fill-rule="nonzero"
       fill-opacity="1"
       id="path3908"
       transform="translate(-130.525)" />
    <path
       clip-path="url(#clip160)"
       d="m 2285.07,140.836 v 6.967 q -3.16,-1.742 -6.36,-2.592 -3.16,-0.891 -6.4,-0.891 -7.25,0 -11.26,4.618 -4.01,4.577 -4.01,12.881 0,8.305 4.01,12.923 4.01,4.577 11.26,4.577 3.24,0 6.4,-0.85 3.2,-0.892 6.36,-2.633 v 6.886 q -3.11,1.458 -6.48,2.188 -3.32,0.729 -7.09,0.729 -10.25,0 -16.28,-6.441 -6.04,-6.441 -6.04,-17.379 0,-11.099 6.08,-17.459 6.12,-6.36 16.73,-6.36 3.44,0 6.72,0.729 3.29,0.689 6.36,2.107 z"
       fill="#000000"
       fill-rule="nonzero"
       fill-opacity="1"
       id="path3910"
       transform="translate(-130.525)" />
    <path
       clip-path="url(#clip160)"
       d="m 2315.62,144.32 q -6,0 -9.48,4.699 -3.48,4.658 -3.48,12.8 0,8.143 3.44,12.842 3.48,4.658 9.52,4.658 5.95,0 9.44,-4.699 3.48,-4.699 3.48,-12.801 0,-8.061 -3.48,-12.76 -3.49,-4.739 -9.44,-4.739 m 0,-6.32 q 9.72,0 15.27,6.32 5.55,6.319 5.55,17.499 0,11.14 -5.55,17.5 -5.55,6.32 -15.27,6.32 -9.76,0 -15.31,-6.32 -5.51,-6.36 -5.51,-17.5 0,-11.18 5.51,-17.499 5.55,-6.32 15.31,-6.32 z"
       fill="#000000"
       fill-rule="nonzero"
       fill-opacity="1"
       id="path3912"
       transform="translate(-130.525)" />
    <path
       clip-path="url(#clip160)"
       d="m 2378.65,145.98 v -24.548 h 7.45 v 63.032 h -7.45 v -6.806 q -2.35,4.051 -5.95,6.036 -3.57,1.945 -8.59,1.945 -8.23,0 -13.41,-6.563 -5.15,-6.562 -5.15,-17.257 0,-10.694 5.15,-17.256 5.18,-6.563 13.41,-6.563 5.02,0 8.59,1.985 3.6,1.945 5.95,5.995 m -25.4,15.839 q 0,8.224 3.36,12.923 3.41,4.658 9.32,4.658 5.91,0 9.32,-4.658 3.4,-4.699 3.4,-12.923 0,-8.223 -3.4,-12.881 -3.41,-4.699 -9.32,-4.699 -5.91,0 -9.32,4.699 -3.36,4.658 -3.36,12.881 z"
       fill="#000000"
       fill-rule="nonzero"
       fill-opacity="1"
       id="path3914"
       transform="translate(-130.525)" />
    <path
       clip-path="url(#clip160)"
       d="m 2401.46,139.094 h 7.45 v 45.37 h -7.45 v -45.37 m 0,-17.662 h 7.45 v 9.439 h -7.45 z"
       fill="#000000"
       fill-rule="nonzero"
       fill-opacity="1"
       id="path3916"
       transform="translate(-130.525)" />
    <path
       clip-path="url(#clip160)"
       d="m 2462.22,157.08 v 27.384 h -7.45 v -27.141 q 0,-6.441 -2.51,-9.641 -2.52,-3.2 -7.54,-3.2 -6.04,0 -9.52,3.848 -3.48,3.848 -3.48,10.492 v 25.642 h -7.5 v -45.37 h 7.5 v 7.048 q 2.67,-4.091 6.28,-6.116 3.64,-2.026 8.38,-2.026 7.82,0 11.83,4.861 4.01,4.821 4.01,14.219 z"
       fill="#000000"
       fill-rule="nonzero"
       fill-opacity="1"
       id="path3918"
       transform="translate(-130.525)" />
    <path
       clip-path="url(#clip160)"
       d="m 2506.94,161.252 q 0,-8.101 -3.36,-12.557 -3.32,-4.456 -9.36,-4.456 -5.99,0 -9.36,4.456 -3.32,4.456 -3.32,12.557 0,8.062 3.32,12.518 3.37,4.456 9.36,4.456 6.04,0 9.36,-4.456 3.36,-4.456 3.36,-12.518 m 7.46,17.581 q 0,11.586 -5.15,17.217 -5.14,5.671 -15.76,5.671 -3.93,0 -7.41,-0.608 -3.48,-0.567 -6.76,-1.782 v -7.251 q 3.28,1.782 6.48,2.633 3.2,0.85 6.52,0.85 7.33,0 10.98,-3.848 3.64,-3.808 3.64,-11.545 v -3.686 q -2.31,4.01 -5.91,5.995 -3.61,1.985 -8.63,1.985 -8.35,0 -13.45,-6.36 -5.1,-6.36 -5.1,-16.852 0,-10.532 5.1,-16.892 5.1,-6.36 13.45,-6.36 5.02,0 8.63,1.985 3.6,1.985 5.91,5.995 v -6.886 h 7.46 z"
       fill="#000000"
       fill-rule="nonzero"
       fill-opacity="1"
       id="path3920"
       transform="translate(-130.525)" />
  </g>
  <path
     clip-path="url(#clip162)"
     d="m 354.473,1732.56 25.796,-90.49 25.796,-21.37 25.796,-89.17 25.796,-154.6 25.796,-121.71 25.796,-80.96 25.796,-94.56 25.796,-20.58 25.796,70.92 25.797,14.03 25.796,34.24 25.796,41 25.796,49.86 25.796,128.36 25.796,44.76 25.796,89.43 25.796,60.82 25.796,24.98 25.797,-10.23 25.796,-0.27 25.796,-63.71 25.796,-99.86 25.796,-66.38 25.796,-133.43 25.796,-131.14 25.795,-88.91 25.8,-126.872 25.79,-20.21 25.8,-21.89 25.8,6.672 25.79,40.49 25.8,140.67 25.79,79.16 25.8,33.2 25.8,70.48 25.79,90.98 25.8,58.86 25.79,-44.66 25.8,97.28 25.8,-3.67 25.79,-53.55 25.8,-83.42 25.8,-99.93 25.79,-73.69 25.8,-141.149 25.79,-84.767 25.8,-60.266 25.8,-55.296 25.79,-53.089 25.8,31.907 25.79,18.364 25.8,76.518 25.8,82.121 25.79,65.61 25.8,122.227 25.79,43.1 25.8,54.59 25.8,34.13 25.79,-7.58 25.8,-58.17 25.8,-102.48 25.79,-72.97 25.8,-83.756 25.79,-60.124 25.8,-174.853 25.8,-75.357 25.79,-87.254 25.8,17.546 25.79,-34.916 25.8,52.86 25.8,-30.306 25.79,78.736 25.8,106.624 25.79,141.52 25.8,59.819 25.8,46.167 25.79,84.364 25.8,23.22 25.8,22.91 25.79,-19.63 25.8,-84.802 25.79,-71.154 25.8,-81.587 25.8,-135.182 25.79,-77.276 25.8,-99.69 25.79,-86.054 25.8,-63.025 25.8,-29.601 25.79,-34.285 25.8,55.167 25.79,50.29 25.8,126.949 25.8,78.162 25.79,6.866 25.8,135.058 25.8,51.774 25.79,-0.43 25.8,50.431 v 0 l -25.8,-50.431 -25.79,0.43 -25.8,-51.774 -25.8,-135.058 -25.79,-6.866 -25.8,-78.162 -25.8,-126.949 -25.79,-50.29 -25.8,-55.167 -25.79,-50.349 -25.8,22.689 -25.8,63.065 -25.79,63.369 -25.8,92.258 -25.79,73.305 -25.8,117.495 -25.8,91.994 -25.79,61.887 -25.8,79.677 -25.79,21.246 -25.8,-24.913 -25.8,-23.11 -25.79,-74.164 -25.8,-41.037 -25.8,-67.099 -25.79,-2.027 -25.8,-106.624 -25.79,-78.736 -25.8,30.306 -25.8,-52.86 -25.79,34.916 -25.8,-17.546 -25.79,87.254 -25.8,75.357 -25.8,174.853 -25.79,60.124 -25.8,83.756 -25.79,72.97 -25.8,102.48 -25.8,-79.17 -25.79,6.66 -25.8,-29.74 -25.8,-54.63 -25.79,-51.876 -25.8,-122.013 -25.79,-55.682 -25.8,-89.971 -25.8,-73.566 -25.79,-15.558 -25.8,-25.347 -25.79,43.382 -25.8,51.765 -25.8,67.149 -25.79,79.878 -25.8,136.347 -25.79,84.502 -25.8,90.53 -25.8,94.63 -25.79,66.09 -25.8,4.77 -25.8,20.58 -25.79,44.66 -25.8,-58.86 -25.79,-90.98 -25.8,-70.48 -25.8,-33.2 -25.79,-79.16 -25.8,-140.67 -25.79,-40.49 -25.8,-6.672 -25.8,21.89 -25.79,20.21 -25.8,126.872 -25.795,88.91 -25.796,-6.54 -25.796,142.75 -25.796,76.26 -25.796,99.86 -25.796,87.7 -25.796,0.39 -25.797,12.44 -25.796,-33.6 -25.796,-80.49 -25.796,-87.46 -25.796,-49.07 -25.796,-145.99 -25.796,-44.63 -25.796,-38.26 -25.796,-38.9 -25.797,-16.909 -25.796,69.069 -25.796,20.58 -25.796,94.56 -25.796,80.96 -25.796,121.71 -25.796,154.6 -25.796,89.17 -25.796,21.37 z"
     fill="#009af9"
     fill-rule="evenodd"
     fill-opacity="0.5"
     id="path3922" />
  <polyline
     clip-path="url(#clip162)"
     style="fill:none;stroke:#009af9;stroke-width:8;stroke-linecap:round;stroke-linejoin:round;stroke-opacity:0.8"
     stroke-dasharray="4, 8"
     points="354.473,1732.56 380.269,1642.07 406.065,1620.7 431.861,1531.53 457.657,1376.93 483.453,1255.22 509.249,1174.26 535.045,1079.7 560.841,1059.12 586.637,1060.05 612.434,1075.52 638.23,1112.09 664.026,1151.72 689.822,1198.96 715.618,1336.14 741.414,1383.05 767.21,1471.49 793.006,1542.15 818.802,1571.44 844.599,1560.11 870.395,1559.77 896.191,1484.07 921.987,1384.21 947.783,1312.89 973.579,1174.8 999.375,1112.5 1025.17,1023.59 1050.97,896.718 1076.76,876.508 1102.56,854.618 1128.36,861.29 1154.15,901.78 1179.95,1042.45 1205.74,1121.61 1231.54,1154.81 1257.34,1225.29 1283.13,1316.27 1308.93,1375.13 1334.72,1330.47 1360.52,1368.82 1386.32,1364.6 1412.11,1304.78 1437.91,1215.76 1463.71,1120.53 1489.5,1041.43 1515.3,902.681 1541.09,820.358 1566.89,756.651 1592.69,703.12 1618.48,654.885 1644.28,683.512 1670.07,700.473 1695.87,775.515 1721.67,861.561 1747.46,922.207 1773.26,1044.33 1799.05,1091.82 1824.85,1146.42 1850.65,1178.36 1876.44,1171.24 1902.24,1181.74 1928.04,1079.26 1953.83,1006.29 1979.63,922.534 2005.42,862.41 2031.22,687.557 2057.02,612.2 2082.81,524.946 2108.61,542.492 2134.4,507.576 2160.2,560.436 2186,530.13 2211.79,608.866 2237.59,715.49 2263.38,787.264 2289.18,850.722 2314.98,894.325 2340.77,973.586 2366.57,996.752 2392.37,1020.66 2418.16,1000.23 2443.96,917.987 2469.75,851.467 2495.55,764.676 2521.35,638.338 2547.14,563.048 2572.94,467.073 2598.73,392.362 2624.53,329.317 2650.33,303.172 2676.12,311.204 2701.92,366.371 2727.71,416.661 2753.51,543.61 2779.31,621.772 2805.1,628.638 2830.9,763.696 2856.7,815.47 2882.49,815.04 2908.29,865.471 "
     id="polyline3924" />
  <polyline
     clip-path="url(#clip162)"
     style="fill:none;stroke:#ffa500;stroke-width:8;stroke-linecap:round;stroke-linejoin:round;stroke-opacity:0.7"
     points="354.473,1732.56 380.269,1642.07 406.065,1620.7 431.861,1531.53 457.657,1376.93 483.453,1255.22 509.249,1174.26 535.045,1079.7 560.841,1059.12 586.637,1037.72 612.434,983.111 638.23,1137.75 664.026,1158.85 689.822,1285.18 715.618,1341.77 741.414,1445.16 767.21,1490.5 793.006,1522.54 818.802,1618.29 844.599,1559.94 870.395,1506.56 896.191,1503.37 921.987,1425.91 947.783,1308.55 973.579,1262.65 999.375,1112.5 1025.17,1023.59 1050.97,896.718 1076.76,876.508 1102.56,854.618 1128.36,861.29 1154.15,901.78 1179.95,1042.45 1205.74,1121.61 1231.54,1154.81 1257.34,1225.29 1283.13,1316.27 1308.93,1375.13 1334.72,1330.47 1360.52,1371.08 1386.32,1358.9 1412.11,1337.65 1437.91,1278.69 1463.71,1066.27 1489.5,894.243 1515.3,847.345 1541.09,766.74 1566.89,683.786 1592.69,657.826 1618.48,636.469 1644.28,666.454 1670.07,711.718 1695.87,785.211 1721.67,880.154 1747.46,1009.85 1773.26,1014.78 1799.05,1102.35 1824.85,1166.86 1850.65,1149.82 1876.44,1184.12 1902.24,1181.74 1928.04,1079.26 1953.83,1006.29 1979.63,922.534 2005.42,862.41 2031.22,687.557 2057.02,612.2 2082.81,524.946 2108.61,542.492 2134.4,507.576 2160.2,560.436 2186,530.13 2211.79,608.866 2237.59,715.49 2263.38,790.283 2289.18,827.511 2314.98,922.732 2340.77,1042.47 2366.57,961.762 2392.37,1004.97 2418.16,1012.71 2443.96,892.509 2469.75,863.154 2495.55,716.77 2521.35,596.364 2547.14,503.459 2572.94,467.924 2598.73,379.965 2624.53,305.457 2650.33,325.656 2676.12,311.204 2701.92,366.371 2727.71,416.661 2753.51,543.61 2779.31,621.772 2805.1,628.638 2830.9,763.696 2856.7,815.47 2882.49,815.04 2908.29,865.471 "
     id="polyline3926" />
  <polyline
     clip-path="url(#clip162)"
     style="fill:none;stroke:#ff0000;stroke-width:8;stroke-linecap:round;stroke-linejoin:round;stroke-opacity:0.7"
     stroke-dasharray="4, 8"
     points="354.473,1703.09 380.269,1646.22 406.065,1542.6 431.861,1542.05 457.657,1346.97 483.453,1262.05 509.249,1111.41 535.045,1108.71 560.841,1021.59 586.637,1098.18 612.434,1062.17 638.23,1125.22 664.026,1118.18 689.822,1258.49 715.618,1328.04 741.414,1453.43 767.21,1503.94 793.006,1492.02 818.802,1563.74 844.599,1548.58 870.395,1548.99 896.191,1437.1 921.987,1347.6 947.783,1269.36 973.579,1215.37 999.375,1098.59 1025.17,984.857 1050.97,928.281 1076.76,899.892 1102.56,842.479 1128.36,865.013 1154.15,940.195 1179.95,1001.66 1205.74,1076.48 1231.54,1155.68 1257.34,1239.19 1283.13,1319.68 1308.93,1377.9 1334.72,1417.51 1360.52,1393.91 1386.32,1360.03 1412.11,1300.01 1437.91,1199.35 1463.71,1099.08 1489.5,950.292 1515.3,849.215 1541.09,844.52 1566.89,670.738 1592.69,680.496 1618.48,712.49 1644.28,728.062 1670.07,730.483 1695.87,775.765 1721.67,902.671 1747.46,969.13 1773.26,1032.03 1799.05,1131.33 1824.85,1165.21 1850.65,1205.44 1876.44,1186.29 1902.24,1122.69 1928.04,1085.61 1953.83,1044.71 1979.63,935.296 2005.42,829.067 2031.22,684.03 2057.02,630.547 2082.81,541.765 2108.61,524.914 2134.4,482.331 2160.2,567.123 2186,542.071 2211.79,590.473 2237.59,703.766 2263.38,775.107 2289.18,886.752 2314.98,944.459 2340.77,1046.28 2366.57,1034.47 2392.37,991.117 2418.16,1019.46 2443.96,927.985 2469.75,834.546 2495.55,710.084 2521.35,559.84 2547.14,484.891 2572.94,467.408 2598.73,408.652 2624.53,320.102 2650.33,319.253 2676.12,307.582 2701.92,375.586 2727.71,459.924 2753.51,554.216 2779.31,646.258 2805.1,714.553 2830.9,791.055 2856.7,831.572 2882.49,811.938 2908.29,896.187 "
     id="polyline3928" />
  <path
     clip-path="url(#clip160)"
     d="m 3107.4,476.064 h 845.36 V 268.704 H 3107.4 Z"
     fill="#ffffff"
     fill-rule="evenodd"
     fill-opacity="1"
     id="path3930"
     transform="translate(-2783.8983,-1.889)" />
  <polyline
     clip-path="url(#clip160)"
     style="fill:none;stroke:#000000;stroke-width:4;stroke-linecap:round;stroke-linejoin:round;stroke-opacity:1"
     points="3107.4,476.064 3952.76,476.064 3952.76,268.704 3107.4,268.704 3107.4,476.064 "
     id="polyline3932"
     transform="translate(-2783.8983,-1.889)" />
  <polyline
     clip-path="url(#clip160)"
     style="fill:none;stroke:#009af9;stroke-width:8;stroke-linecap:round;stroke-linejoin:round;stroke-opacity:0.8"
     stroke-dasharray="4, 8"
     points="3148.23,320.544 3393.22,320.544 "
     id="polyline3934"
     transform="translate(-2783.8983,-1.889)" />
  <path
     clip-path="url(#clip160)"
     d="m 3434.06,303.264 h 6.96 l 8.82,23.519 8.87,-23.519 h 6.97 v 34.56 h -4.56 v -30.347 l -8.92,23.704 h -4.7 l -8.91,-23.704 v 30.347 h -4.53 z"
     fill="#000000"
     fill-rule="nonzero"
     fill-opacity="1"
     id="path3936"
     transform="translate(-2783.8983,-1.889)" />
  <path
     clip-path="url(#clip160)"
     d="m 3479.63,307.107 v 12.986 h 5.88 q 3.27,0 5.05,-1.69 1.78,-1.69 1.78,-4.815 0,-3.101 -1.78,-4.791 -1.78,-1.69 -5.05,-1.69 h -5.88 m -4.67,-3.843 h 10.55 q 5.81,0 8.78,2.639 2.98,2.616 2.98,7.685 0,5.116 -2.98,7.732 -2.97,2.616 -8.78,2.616 h -5.88 v 13.888 h -4.67 z"
     fill="#000000"
     fill-rule="nonzero"
     fill-opacity="1"
     id="path3938"
     transform="translate(-2783.8983,-1.889)" />
  <path
     clip-path="url(#clip160)"
     d="m 3524.26,304.399 v 4.56 q -2.66,-1.273 -5.02,-1.898 -2.36,-0.625 -4.56,-0.625 -3.82,0 -5.9,1.481 -2.06,1.482 -2.06,4.213 0,2.292 1.36,3.472 1.39,1.158 5.23,1.875 l 2.83,0.579 q 5.23,0.995 7.71,3.518 2.5,2.5 2.5,6.713 0,5.024 -3.38,7.616 -3.36,2.593 -9.86,2.593 -2.46,0 -5.24,-0.556 -2.75,-0.555 -5.71,-1.643 v -4.815 q 2.84,1.597 5.58,2.407 2.73,0.81 5.37,0.81 4,0 6.18,-1.574 2.17,-1.574 2.17,-4.49 0,-2.547 -1.57,-3.982 -1.55,-1.435 -5.12,-2.153 l -2.84,-0.555 q -5.24,-1.042 -7.57,-3.264 -2.34,-2.222 -2.34,-6.181 0,-4.583 3.22,-7.222 3.24,-2.639 8.91,-2.639 2.43,0 4.95,0.44 2.52,0.44 5.16,1.32 z"
     fill="#000000"
     fill-rule="nonzero"
     fill-opacity="1"
     id="path3940"
     transform="translate(-2783.8983,-1.889)" />
  <path
     clip-path="url(#clip160)"
     d="m 3548.52,311.899 h 4.26 v 25.925 h -4.26 v -25.925 m 0,-10.093 h 4.26 v 5.394 h -4.26 z"
     fill="#000000"
     fill-rule="nonzero"
     fill-opacity="1"
     id="path3942"
     transform="translate(-2783.8983,-1.889)" />
  <path
     clip-path="url(#clip160)"
     d="m 3581.88,316.875 q 1.6,-2.87 3.82,-4.236 2.22,-1.365 5.23,-1.365 4.05,0 6.25,2.847 2.2,2.824 2.2,8.055 v 15.648 h -4.28 v -15.509 q 0,-3.727 -1.32,-5.532 -1.32,-1.806 -4.03,-1.806 -3.31,0 -5.23,2.199 -1.92,2.199 -1.92,5.996 v 14.652 h -4.29 v -15.509 q 0,-3.75 -1.32,-5.532 -1.31,-1.806 -4.07,-1.806 -3.26,0 -5.18,2.222 -1.93,2.2 -1.93,5.973 v 14.652 h -4.28 v -25.925 h 4.28 v 4.027 q 1.46,-2.384 3.5,-3.518 2.04,-1.134 4.84,-1.134 2.82,0 4.79,1.435 1.99,1.435 2.94,4.166 z"
     fill="#000000"
     fill-rule="nonzero"
     fill-opacity="1"
     id="path3944"
     transform="translate(-2783.8983,-1.889)" />
  <path
     clip-path="url(#clip160)"
     d="m 3611.99,333.935 v 13.75 h -4.28 v -35.786 h 4.28 v 3.935 q 1.35,-2.315 3.38,-3.426 2.06,-1.134 4.91,-1.134 4.72,0 7.66,3.75 2.97,3.75 2.97,9.861 0,6.111 -2.97,9.861 -2.94,3.75 -7.66,3.75 -2.85,0 -4.91,-1.111 -2.03,-1.135 -3.38,-3.45 m 14.5,-9.05 q 0,-4.699 -1.95,-7.361 -1.92,-2.686 -5.3,-2.686 -3.38,0 -5.32,2.686 -1.93,2.662 -1.93,7.361 0,4.699 1.93,7.384 1.94,2.662 5.32,2.662 3.38,0 5.3,-2.662 1.95,-2.685 1.95,-7.384 z"
     fill="#000000"
     fill-rule="nonzero"
     fill-opacity="1"
     id="path3946"
     transform="translate(-2783.8983,-1.889)" />
  <path
     clip-path="url(#clip160)"
     d="m 3637.53,327.593 v -15.694 h 4.26 v 15.532 q 0,3.68 1.43,5.532 1.44,1.829 4.31,1.829 3.45,0 5.44,-2.199 2.01,-2.199 2.01,-5.995 v -14.699 h 4.26 v 25.925 h -4.26 v -3.981 q -1.55,2.361 -3.61,3.518 -2.04,1.135 -4.75,1.135 -4.46,0 -6.78,-2.778 -2.31,-2.778 -2.31,-8.125 m 10.71,-16.319 z"
     fill="#000000"
     fill-rule="nonzero"
     fill-opacity="1"
     id="path3948"
     transform="translate(-2783.8983,-1.889)" />
  <path
     clip-path="url(#clip160)"
     d="m 3672.23,304.538 v 7.361 h 8.77 v 3.31 h -8.77 v 14.074 q 0,3.171 0.85,4.074 0.88,0.903 3.54,0.903 h 4.38 v 3.564 h -4.38 q -4.93,0 -6.8,-1.828 -1.88,-1.852 -1.88,-6.713 v -14.074 h -3.12 v -3.31 h 3.12 v -7.361 z"
     fill="#000000"
     fill-rule="nonzero"
     fill-opacity="1"
     id="path3950"
     transform="translate(-2783.8983,-1.889)" />
  <path
     clip-path="url(#clip160)"
     d="m 3708.78,323.797 v 2.083 h -19.59 q 0.28,4.398 2.64,6.713 2.39,2.292 6.62,2.292 2.46,0 4.75,-0.602 2.31,-0.602 4.58,-1.806 v 4.028 q -2.29,0.972 -4.7,1.481 -2.41,0.51 -4.88,0.51 -6.21,0 -9.84,-3.611 -3.61,-3.612 -3.61,-9.769 0,-6.366 3.42,-10.092 3.45,-3.75 9.29,-3.75 5.23,0 8.26,3.379 3.06,3.357 3.06,9.144 m -4.26,-1.25 q -0.05,-3.496 -1.97,-5.579 -1.9,-2.083 -5.05,-2.083 -3.56,0 -5.71,2.014 -2.13,2.013 -2.46,5.671 z"
     fill="#000000"
     fill-rule="nonzero"
     fill-opacity="1"
     id="path3952"
     transform="translate(-2783.8983,-1.889)" />
  <path
     clip-path="url(#clip160)"
     d="m 3732.83,315.834 v -14.028 h 4.26 v 36.018 h -4.26 v -3.889 q -1.35,2.315 -3.41,3.45 -2.03,1.111 -4.9,1.111 -4.7,0 -7.66,-3.75 -2.94,-3.75 -2.94,-9.861 0,-6.111 2.94,-9.861 2.96,-3.75 7.66,-3.75 2.87,0 4.9,1.134 2.06,1.111 3.41,3.426 m -14.52,9.051 q 0,4.699 1.92,7.384 1.95,2.662 5.33,2.662 3.38,0 5.32,-2.662 1.95,-2.685 1.95,-7.384 0,-4.699 -1.95,-7.361 -1.94,-2.686 -5.32,-2.686 -3.38,0 -5.33,2.686 -1.92,2.662 -1.92,7.361 z"
     fill="#000000"
     fill-rule="nonzero"
     fill-opacity="1"
     id="path3954"
     transform="translate(-2783.8983,-1.889)" />
  <polyline
     clip-path="url(#clip160)"
     style="fill:none;stroke:#ffa500;stroke-width:8;stroke-linecap:round;stroke-linejoin:round;stroke-opacity:0.7"
     points="3148.23,372.384 3393.22,372.384 "
     id="polyline3956"
     transform="translate(-2783.8983,-1.889)" />
  <path
     clip-path="url(#clip160)"
     d="m 3459.61,384.734 v -9.283 h -7.64 v -3.842 h 12.27 v 14.838 q -2.71,1.921 -5.97,2.916 -3.27,0.973 -6.97,0.973 -8.1,0 -12.68,-4.723 -4.56,-4.745 -4.56,-13.194 0,-8.472 4.56,-13.194 4.58,-4.746 12.68,-4.746 3.38,0 6.41,0.834 3.06,0.833 5.63,2.453 v 4.977 q -2.59,-2.199 -5.51,-3.31 -2.92,-1.111 -6.14,-1.111 -6.34,0 -9.53,3.542 -3.17,3.541 -3.17,10.555 0,6.991 3.17,10.532 3.19,3.542 9.53,3.542 2.48,0 4.43,-0.417 1.94,-0.439 3.49,-1.342 z"
     fill="#000000"
     fill-rule="nonzero"
     fill-opacity="1"
     id="path3958"
     transform="translate(-2783.8983,-1.889)" />
  <path
     clip-path="url(#clip160)"
     d="m 3487.62,367.72 q -0.72,-0.417 -1.57,-0.602 -0.84,-0.208 -1.86,-0.208 -3.61,0 -5.55,2.361 -1.92,2.338 -1.92,6.736 v 13.657 h -4.28 v -25.925 h 4.28 v 4.027 q 1.34,-2.361 3.49,-3.495 2.16,-1.157 5.23,-1.157 0.44,0 0.98,0.069 0.53,0.046 1.18,0.162 z"
     fill="#000000"
     fill-rule="nonzero"
     fill-opacity="1"
     id="path3960"
     transform="translate(-2783.8983,-1.889)" />
  <path
     clip-path="url(#clip160)"
     d="m 3501.09,366.725 q -3.42,0 -5.41,2.685 -1.99,2.662 -1.99,7.315 0,4.652 1.96,7.338 1.99,2.662 5.44,2.662 3.41,0 5.4,-2.686 1.99,-2.685 1.99,-7.314 0,-4.607 -1.99,-7.292 -1.99,-2.708 -5.4,-2.708 m 0,-3.611 q 5.56,0 8.73,3.611 3.17,3.611 3.17,10 0,6.365 -3.17,10 -3.17,3.611 -8.73,3.611 -5.58,0 -8.75,-3.611 -3.15,-3.635 -3.15,-10 0,-6.389 3.15,-10 3.17,-3.611 8.75,-3.611 z"
     fill="#000000"
     fill-rule="nonzero"
     fill-opacity="1"
     id="path3962"
     transform="translate(-2783.8983,-1.889)" />
  <path
     clip-path="url(#clip160)"
     d="m 3519.61,379.433 v -15.694 h 4.26 v 15.532 q 0,3.68 1.44,5.532 1.43,1.829 4.3,1.829 3.45,0 5.44,-2.199 2.01,-2.199 2.01,-5.995 v -14.699 h 4.26 v 25.925 h -4.26 v -3.981 q -1.55,2.361 -3.61,3.518 -2.03,1.135 -4.74,1.135 -4.47,0 -6.78,-2.778 -2.32,-2.778 -2.32,-8.125 m 10.72,-16.319 z"
     fill="#000000"
     fill-rule="nonzero"
     fill-opacity="1"
     id="path3964"
     transform="translate(-2783.8983,-1.889)" />
  <path
     clip-path="url(#clip160)"
     d="m 3571.65,374.016 v 15.648 h -4.26 v -15.509 q 0,-3.68 -1.44,-5.509 -1.43,-1.829 -4.3,-1.829 -3.45,0 -5.44,2.199 -1.99,2.199 -1.99,5.996 v 14.652 h -4.29 v -25.925 h 4.29 v 4.027 q 1.53,-2.338 3.59,-3.495 2.08,-1.157 4.79,-1.157 4.46,0 6.76,2.777 2.29,2.755 2.29,8.125 z"
     fill="#000000"
     fill-rule="nonzero"
     fill-opacity="1"
     id="path3966"
     transform="translate(-2783.8983,-1.889)" />
  <path
     clip-path="url(#clip160)"
     d="m 3597.2,367.674 v -14.028 h 4.26 v 36.018 h -4.26 v -3.889 q -1.34,2.315 -3.4,3.45 -2.04,1.111 -4.91,1.111 -4.7,0 -7.66,-3.75 -2.94,-3.75 -2.94,-9.861 0,-6.111 2.94,-9.861 2.96,-3.75 7.66,-3.75 2.87,0 4.91,1.134 2.06,1.111 3.4,3.426 m -14.51,9.051 q 0,4.699 1.92,7.384 1.95,2.662 5.32,2.662 3.38,0 5.33,-2.662 1.94,-2.685 1.94,-7.384 0,-4.699 -1.94,-7.361 -1.95,-2.686 -5.33,-2.686 -3.37,0 -5.32,2.686 -1.92,2.662 -1.92,7.361 z"
     fill="#000000"
     fill-rule="nonzero"
     fill-opacity="1"
     id="path3968"
     transform="translate(-2783.8983,-1.889)" />
  <path
     clip-path="url(#clip160)"
     d="m 3620.7,355.104 h 29.23 v 3.936 h -12.26 v 30.624 h -4.7 V 359.04 h -12.27 z"
     fill="#000000"
     fill-rule="nonzero"
     fill-opacity="1"
     id="path3970"
     transform="translate(-2783.8983,-1.889)" />
  <path
     clip-path="url(#clip160)"
     d="m 3662.32,367.72 q -0.72,-0.417 -1.58,-0.602 -0.83,-0.208 -1.85,-0.208 -3.61,0 -5.55,2.361 -1.92,2.338 -1.92,6.736 v 13.657 h -4.29 v -25.925 h 4.29 v 4.027 q 1.34,-2.361 3.49,-3.495 2.15,-1.157 5.23,-1.157 0.44,0 0.97,0.069 0.54,0.046 1.19,0.162 z"
     fill="#000000"
     fill-rule="nonzero"
     fill-opacity="1"
     id="path3972"
     transform="translate(-2783.8983,-1.889)" />
  <path
     clip-path="url(#clip160)"
     d="m 3666.35,379.433 v -15.694 h 4.26 v 15.532 q 0,3.68 1.43,5.532 1.44,1.829 4.31,1.829 3.45,0 5.44,-2.199 2.01,-2.199 2.01,-5.995 v -14.699 h 4.26 v 25.925 h -4.26 v -3.981 q -1.55,2.361 -3.61,3.518 -2.04,1.135 -4.75,1.135 -4.46,0 -6.78,-2.778 -2.31,-2.778 -2.31,-8.125 m 10.71,-16.319 z"
     fill="#000000"
     fill-rule="nonzero"
     fill-opacity="1"
     id="path3974"
     transform="translate(-2783.8983,-1.889)" />
  <path
     clip-path="url(#clip160)"
     d="m 3701.05,356.378 v 7.361 h 8.77 v 3.31 h -8.77 v 14.074 q 0,3.171 0.85,4.074 0.88,0.903 3.54,0.903 h 4.38 v 3.564 h -4.38 q -4.93,0 -6.8,-1.828 -1.88,-1.852 -1.88,-6.713 v -14.074 h -3.12 v -3.31 h 3.12 v -7.361 z"
     fill="#000000"
     fill-rule="nonzero"
     fill-opacity="1"
     id="path3976"
     transform="translate(-2783.8983,-1.889)" />
  <path
     clip-path="url(#clip160)"
     d="m 3736.97,374.016 v 15.648 h -4.26 v -15.509 q 0,-3.68 -1.43,-5.509 -1.44,-1.829 -4.31,-1.829 -3.45,0 -5.44,2.199 -1.99,2.199 -1.99,5.996 v 14.652 h -4.28 v -36.018 h 4.28 v 14.12 q 1.53,-2.338 3.59,-3.495 2.08,-1.157 4.79,-1.157 4.47,0 6.76,2.777 2.29,2.755 2.29,8.125 z"
     fill="#000000"
     fill-rule="nonzero"
     fill-opacity="1"
     id="path3978"
     transform="translate(-2783.8983,-1.889)" />
  <polyline
     clip-path="url(#clip160)"
     style="fill:none;stroke:#ff0000;stroke-width:8;stroke-linecap:round;stroke-linejoin:round;stroke-opacity:0.7"
     stroke-dasharray="4, 8"
     points="3148.23,424.224 3393.22,424.224 "
     id="polyline3980"
     transform="translate(-2783.8983,-1.889)" />
  <path
     clip-path="url(#clip160)"
     d="m 3434.06,406.944 h 6.29 l 15.33,28.912 v -28.912 h 4.53 v 34.56 h -6.29 l -15.33,-28.912 v 28.912 h -4.53 z"
     fill="#000000"
     fill-rule="nonzero"
     fill-opacity="1"
     id="path3982"
     transform="translate(-2783.8983,-1.889)" />
  <path
     clip-path="url(#clip160)"
     d="m 3491.51,427.477 v 2.083 h -19.58 q 0.27,4.398 2.63,6.713 2.39,2.292 6.63,2.292 2.45,0 4.74,-0.602 2.32,-0.602 4.58,-1.806 v 4.028 q -2.29,0.972 -4.7,1.481 -2.4,0.51 -4.88,0.51 -6.2,0 -9.84,-3.611 -3.61,-3.612 -3.61,-9.769 0,-6.366 3.43,-10.092 3.45,-3.75 9.28,-3.75 5.23,0 8.26,3.379 3.06,3.357 3.06,9.144 m -4.26,-1.25 q -0.05,-3.496 -1.97,-5.579 -1.9,-2.083 -5.04,-2.083 -3.57,0 -5.72,2.014 -2.13,2.013 -2.46,5.671 z"
     fill="#000000"
     fill-rule="nonzero"
     fill-opacity="1"
     id="path3984"
     transform="translate(-2783.8983,-1.889)" />
  <path
     clip-path="url(#clip160)"
     d="m 3510.28,428.472 q -5.16,0 -7.15,1.181 -1.99,1.18 -1.99,4.027 0,2.269 1.48,3.611 1.5,1.32 4.07,1.32 3.55,0 5.68,-2.5 2.15,-2.523 2.15,-6.69 v -0.949 h -4.24 m 8.5,-1.759 v 14.791 h -4.26 v -3.935 q -1.46,2.361 -3.64,3.496 -2.17,1.111 -5.32,1.111 -3.98,0 -6.34,-2.223 -2.34,-2.245 -2.34,-5.995 0,-4.375 2.92,-6.597 2.94,-2.222 8.75,-2.222 h 5.97 v -0.417 q 0,-2.94 -1.95,-4.537 -1.92,-1.62 -5.41,-1.62 -2.22,0 -4.33,0.532 -2.11,0.532 -4.05,1.597 v -3.935 q 2.34,-0.903 4.53,-1.342 2.2,-0.463 4.29,-0.463 5.62,0 8.4,2.916 2.78,2.917 2.78,8.843 z"
     fill="#000000"
     fill-rule="nonzero"
     fill-opacity="1"
     id="path3986"
     transform="translate(-2783.8983,-1.889)" />
  <path
     clip-path="url(#clip160)"
     d="m 3542.57,419.56 q -0.71,-0.417 -1.57,-0.602 -0.83,-0.208 -1.85,-0.208 -3.61,0 -5.56,2.361 -1.92,2.338 -1.92,6.736 v 13.657 h -4.28 v -25.925 h 4.28 v 4.027 q 1.34,-2.361 3.5,-3.495 2.15,-1.157 5.23,-1.157 0.44,0 0.97,0.069 0.53,0.046 1.18,0.162 z"
     fill="#000000"
     fill-rule="nonzero"
     fill-opacity="1"
     id="path3988"
     transform="translate(-2783.8983,-1.889)" />
  <path
     clip-path="url(#clip160)"
     d="m 3568.18,427.477 v 2.083 h -19.59 q 0.28,4.398 2.64,6.713 2.39,2.292 6.62,2.292 2.46,0 4.75,-0.602 2.31,-0.602 4.58,-1.806 v 4.028 q -2.29,0.972 -4.7,1.481 -2.41,0.51 -4.88,0.51 -6.21,0 -9.84,-3.611 -3.61,-3.612 -3.61,-9.769 0,-6.366 3.42,-10.092 3.45,-3.75 9.29,-3.75 5.23,0 8.26,3.379 3.06,3.357 3.06,9.144 m -4.26,-1.25 q -0.05,-3.496 -1.97,-5.579 -1.9,-2.083 -5.05,-2.083 -3.56,0 -5.72,2.014 -2.12,2.013 -2.45,5.671 z"
     fill="#000000"
     fill-rule="nonzero"
     fill-opacity="1"
     id="path3990"
     transform="translate(-2783.8983,-1.889)" />
  <path
     clip-path="url(#clip160)"
     d="m 3591.69,416.342 v 4.028 q -1.8,-0.926 -3.75,-1.389 -1.94,-0.463 -4.02,-0.463 -3.18,0 -4.77,0.973 -1.58,0.972 -1.58,2.916 0,1.482 1.14,2.338 1.13,0.834 4.56,1.597 l 1.46,0.324 q 4.53,0.973 6.43,2.755 1.92,1.759 1.92,4.931 0,3.611 -2.87,5.717 -2.84,2.107 -7.84,2.107 -2.09,0 -4.36,-0.417 -2.24,-0.394 -4.74,-1.204 v -4.398 q 2.36,1.227 4.65,1.852 2.29,0.602 4.54,0.602 3.01,0 4.63,-1.019 1.62,-1.041 1.62,-2.916 0,-1.736 -1.18,-2.662 -1.16,-0.926 -5.12,-1.783 l -1.48,-0.347 q -3.96,-0.833 -5.72,-2.546 -1.76,-1.736 -1.76,-4.746 0,-3.657 2.6,-5.648 2.59,-1.99 7.36,-1.99 2.36,0 4.44,0.347 2.08,0.347 3.84,1.041 z"
     fill="#000000"
     fill-rule="nonzero"
     fill-opacity="1"
     id="path3992"
     transform="translate(-2783.8983,-1.889)" />
  <path
     clip-path="url(#clip160)"
     d="m 3604.08,408.218 v 7.361 h 8.77 v 3.31 h -8.77 v 14.074 q 0,3.171 0.85,4.074 0.88,0.903 3.55,0.903 h 4.37 v 3.564 h -4.37 q -4.93,0 -6.81,-1.828 -1.87,-1.852 -1.87,-6.713 v -14.074 h -3.13 v -3.31 h 3.13 v -7.361 z"
     fill="#000000"
     fill-rule="nonzero"
     fill-opacity="1"
     id="path3994"
     transform="translate(-2783.8983,-1.889)" />
  <path
     clip-path="url(#clip160)"
     d="m 3628.92,406.944 h 29.23 v 3.936 h -12.27 v 30.624 h -4.7 V 410.88 h -12.26 z"
     fill="#000000"
     fill-rule="nonzero"
     fill-opacity="1"
     id="path3996"
     transform="translate(-2783.8983,-1.889)" />
  <path
     clip-path="url(#clip160)"
     d="m 3670.54,419.56 q -0.72,-0.417 -1.58,-0.602 -0.83,-0.208 -1.85,-0.208 -3.61,0 -5.56,2.361 -1.92,2.338 -1.92,6.736 v 13.657 h -4.28 v -25.925 h 4.28 v 4.027 q 1.35,-2.361 3.5,-3.495 2.15,-1.157 5.23,-1.157 0.44,0 0.97,0.069 0.53,0.046 1.18,0.162 z"
     fill="#000000"
     fill-rule="nonzero"
     fill-opacity="1"
     id="path3998"
     transform="translate(-2783.8983,-1.889)" />
  <path
     clip-path="url(#clip160)"
     d="m 3686.79,428.472 q -5.17,0 -7.16,1.181 -1.99,1.18 -1.99,4.027 0,2.269 1.48,3.611 1.51,1.32 4.08,1.32 3.54,0 5.67,-2.5 2.15,-2.523 2.15,-6.69 v -0.949 h -4.23 m 8.49,-1.759 v 14.791 h -4.26 v -3.935 q -1.46,2.361 -3.63,3.496 -2.18,1.111 -5.33,1.111 -3.98,0 -6.34,-2.223 -2.34,-2.245 -2.34,-5.995 0,-4.375 2.92,-6.597 2.94,-2.222 8.75,-2.222 h 5.97 v -0.417 q 0,-2.94 -1.94,-4.537 -1.92,-1.62 -5.42,-1.62 -2.22,0 -4.33,0.532 -2.1,0.532 -4.05,1.597 v -3.935 q 2.34,-0.903 4.54,-1.342 2.2,-0.463 4.28,-0.463 5.63,0 8.4,2.916 2.78,2.917 2.78,8.843 z"
     fill="#000000"
     fill-rule="nonzero"
     fill-opacity="1"
     id="path4000"
     transform="translate(-2783.8983,-1.889)" />
  <path
     clip-path="url(#clip160)"
     d="m 3704.05,415.579 h 4.26 v 25.925 h -4.26 v -25.925 m 0,-10.093 h 4.26 v 5.394 h -4.26 z"
     fill="#000000"
     fill-rule="nonzero"
     fill-opacity="1"
     id="path4002"
     transform="translate(-2783.8983,-1.889)" />
  <path
     clip-path="url(#clip160)"
     d="m 3738.78,425.856 v 15.648 h -4.26 v -15.509 q 0,-3.68 -1.44,-5.509 -1.43,-1.829 -4.3,-1.829 -3.45,0 -5.44,2.199 -1.99,2.199 -1.99,5.996 v 14.652 h -4.29 v -25.925 h 4.29 v 4.027 q 1.52,-2.338 3.58,-3.495 2.09,-1.157 4.8,-1.157 4.46,0 6.75,2.777 2.3,2.755 2.3,8.125 z"
     fill="#000000"
     fill-rule="nonzero"
     fill-opacity="1"
     id="path4004"
     transform="translate(-2783.8983,-1.889)" />
  <path
     clip-path="url(#clip160)"
     d="m 3767.2,410.787 v 26.875 h 5.65 q 7.15,0 10.46,-3.241 3.34,-3.241 3.34,-10.231 0,-6.945 -3.34,-10.162 -3.31,-3.241 -10.46,-3.241 h -5.65 m -4.67,-3.843 h 9.6 q 10.05,0 14.75,4.19 4.7,4.167 4.7,13.056 0,8.935 -4.73,13.125 -4.72,4.189 -14.72,4.189 h -9.6 z"
     fill="#000000"
     fill-rule="nonzero"
     fill-opacity="1"
     id="path4006"
     transform="translate(-2783.8983,-1.889)" />
  <path
     clip-path="url(#clip160)"
     d="m 3810.63,428.472 q -5.16,0 -7.15,1.181 -2,1.18 -2,4.027 0,2.269 1.49,3.611 1.5,1.32 4.07,1.32 3.54,0 5.67,-2.5 2.15,-2.523 2.15,-6.69 v -0.949 h -4.23 m 8.49,-1.759 v 14.791 h -4.26 v -3.935 q -1.45,2.361 -3.63,3.496 -2.18,1.111 -5.32,1.111 -3.99,0 -6.35,-2.223 -2.33,-2.245 -2.33,-5.995 0,-4.375 2.91,-6.597 2.94,-2.222 8.75,-2.222 h 5.97 v -0.417 q 0,-2.94 -1.94,-4.537 -1.92,-1.62 -5.42,-1.62 -2.22,0 -4.33,0.532 -2.1,0.532 -4.05,1.597 v -3.935 q 2.34,-0.903 4.54,-1.342 2.2,-0.463 4.28,-0.463 5.63,0 8.41,2.916 2.77,2.917 2.77,8.843 z"
     fill="#000000"
     fill-rule="nonzero"
     fill-opacity="1"
     id="path4008"
     transform="translate(-2783.8983,-1.889)" />
  <path
     clip-path="url(#clip160)"
     d="m 3832.11,408.218 v 7.361 h 8.77 v 3.31 h -8.77 v 14.074 q 0,3.171 0.86,4.074 0.88,0.903 3.54,0.903 h 4.37 v 3.564 h -4.37 q -4.93,0 -6.81,-1.828 -1.87,-1.852 -1.87,-6.713 v -14.074 h -3.13 v -3.31 h 3.13 v -7.361 z"
     fill="#000000"
     fill-rule="nonzero"
     fill-opacity="1"
     id="path4010"
     transform="translate(-2783.8983,-1.889)" />
  <path
     clip-path="url(#clip160)"
     d="m 3858.27,428.472 q -5.17,0 -7.16,1.181 -1.99,1.18 -1.99,4.027 0,2.269 1.48,3.611 1.51,1.32 4.08,1.32 3.54,0 5.67,-2.5 2.15,-2.523 2.15,-6.69 v -0.949 h -4.23 m 8.49,-1.759 v 14.791 h -4.26 v -3.935 q -1.46,2.361 -3.63,3.496 -2.18,1.111 -5.33,1.111 -3.98,0 -6.34,-2.223 -2.34,-2.245 -2.34,-5.995 0,-4.375 2.92,-6.597 2.94,-2.222 8.75,-2.222 h 5.97 v -0.417 q 0,-2.94 -1.94,-4.537 -1.92,-1.62 -5.42,-1.62 -2.22,0 -4.33,0.532 -2.1,0.532 -4.05,1.597 v -3.935 q 2.34,-0.903 4.54,-1.342 2.2,-0.463 4.28,-0.463 5.63,0 8.4,2.916 2.78,2.917 2.78,8.843 z"
     fill="#000000"
     fill-rule="nonzero"
     fill-opacity="1"
     id="path4012"
     transform="translate(-2783.8983,-1.889)" />
  <path
     clip-path="url(#clip160)"
     d="m 3892.02,437.569 h 7.64 v -26.365 l -8.31,1.666 v -4.259 l 8.26,-1.667 h 4.67 v 30.625 h 7.64 v 3.935 h -19.9 z"
     fill="#000000"
     fill-rule="nonzero"
     fill-opacity="1"
     id="path4014"
     transform="translate(-2783.8983,-1.889)" />
</svg>
