<svg xmlns="http://www.w3.org/2000/svg" xmlns:xlink="http://www.w3.org/1999/xlink" width="1000" height="500" viewBox="0 0 4000 2000">
<defs>
  <clipPath id="clip470">
    <rect x="0" y="0" width="4000" height="2000"></rect>
  </clipPath>
</defs>
<path clip-path="url(#clip470)" d="M0 2000 L4000 2000 L4000 0 L0 0  Z" fill="#ffffff" fill-rule="evenodd" fill-opacity="1"></path>
<defs>
  <clipPath id="clip471">
    <rect x="800" y="0" width="2801" height="2000"></rect>
  </clipPath>
</defs>
<path clip-path="url(#clip470)" d="M508.889 1610.49 L3097.44 1610.49 L3097.44 200.504 L508.889 200.504  Z" fill="#ffffff" fill-rule="evenodd" fill-opacity="1"></path>
<defs>
  <clipPath id="clip472">
    <rect x="508" y="200" width="2590" height="1411"></rect>
  </clipPath>
</defs>
<polyline clip-path="url(#clip472)" style="stroke:#000000; stroke-linecap:round; stroke-linejoin:round; stroke-width:2; stroke-opacity:0.1; fill:none" points="557.483,1610.49 557.483,200.504 "></polyline>
<polyline clip-path="url(#clip472)" style="stroke:#000000; stroke-linecap:round; stroke-linejoin:round; stroke-width:2; stroke-opacity:0.1; fill:none" points="1174.16,1610.49 1174.16,200.504 "></polyline>
<polyline clip-path="url(#clip472)" style="stroke:#000000; stroke-linecap:round; stroke-linejoin:round; stroke-width:2; stroke-opacity:0.1; fill:none" points="1790.83,1610.49 1790.83,200.504 "></polyline>
<polyline clip-path="url(#clip472)" style="stroke:#000000; stroke-linecap:round; stroke-linejoin:round; stroke-width:2; stroke-opacity:0.1; fill:none" points="2407.51,1610.49 2407.51,200.504 "></polyline>
<polyline clip-path="url(#clip472)" style="stroke:#000000; stroke-linecap:round; stroke-linejoin:round; stroke-width:2; stroke-opacity:0.1; fill:none" points="3024.18,1610.49 3024.18,200.504 "></polyline>
<polyline clip-path="url(#clip472)" style="stroke:#000000; stroke-linecap:round; stroke-linejoin:round; stroke-width:2; stroke-opacity:0.1; fill:none" points="508.889,1540.26 3097.44,1540.26 "></polyline>
<polyline clip-path="url(#clip472)" style="stroke:#000000; stroke-linecap:round; stroke-linejoin:round; stroke-width:2; stroke-opacity:0.1; fill:none" points="508.889,1282.35 3097.44,1282.35 "></polyline>
<polyline clip-path="url(#clip472)" style="stroke:#000000; stroke-linecap:round; stroke-linejoin:round; stroke-width:2; stroke-opacity:0.1; fill:none" points="508.889,1024.45 3097.44,1024.45 "></polyline>
<polyline clip-path="url(#clip472)" style="stroke:#000000; stroke-linecap:round; stroke-linejoin:round; stroke-width:2; stroke-opacity:0.1; fill:none" points="508.889,766.545 3097.44,766.545 "></polyline>
<polyline clip-path="url(#clip472)" style="stroke:#000000; stroke-linecap:round; stroke-linejoin:round; stroke-width:2; stroke-opacity:0.1; fill:none" points="508.889,508.642 3097.44,508.642 "></polyline>
<polyline clip-path="url(#clip472)" style="stroke:#000000; stroke-linecap:round; stroke-linejoin:round; stroke-width:2; stroke-opacity:0.1; fill:none" points="508.889,250.738 3097.44,250.738 "></polyline>
<polyline clip-path="url(#clip470)" style="stroke:#000000; stroke-linecap:round; stroke-linejoin:round; stroke-width:4; stroke-opacity:1; fill:none" points="508.889,1610.49 3097.44,1610.49 "></polyline>
<polyline clip-path="url(#clip470)" style="stroke:#000000; stroke-linecap:round; stroke-linejoin:round; stroke-width:4; stroke-opacity:1; fill:none" points="557.483,1610.49 557.483,1591.59 "></polyline>
<polyline clip-path="url(#clip470)" style="stroke:#000000; stroke-linecap:round; stroke-linejoin:round; stroke-width:4; stroke-opacity:1; fill:none" points="1174.16,1610.49 1174.16,1591.59 "></polyline>
<polyline clip-path="url(#clip470)" style="stroke:#000000; stroke-linecap:round; stroke-linejoin:round; stroke-width:4; stroke-opacity:1; fill:none" points="1790.83,1610.49 1790.83,1591.59 "></polyline>
<polyline clip-path="url(#clip470)" style="stroke:#000000; stroke-linecap:round; stroke-linejoin:round; stroke-width:4; stroke-opacity:1; fill:none" points="2407.51,1610.49 2407.51,1591.59 "></polyline>
<polyline clip-path="url(#clip470)" style="stroke:#000000; stroke-linecap:round; stroke-linejoin:round; stroke-width:4; stroke-opacity:1; fill:none" points="3024.18,1610.49 3024.18,1591.59 "></polyline>
<path clip-path="url(#clip470)" d="M557.483 1676.18 Q547.101 1676.18 541.844 1686.43 Q536.653 1696.61 536.653 1717.11 Q536.653 1737.54 541.844 1747.79 Q547.101 1757.97 557.483 1757.97 Q567.931 1757.97 573.122 1747.79 Q578.38 1737.54 578.38 1717.11 Q578.38 1696.61 573.122 1686.43 Q567.931 1676.18 557.483 1676.18 M557.483 1665.53 Q574.187 1665.53 582.972 1678.77 Q591.823 1691.95 591.823 1717.11 Q591.823 1742.2 582.972 1755.44 Q574.187 1768.62 557.483 1768.62 Q540.779 1768.62 531.928 1755.44 Q523.143 1742.2 523.143 1717.11 Q523.143 1691.95 531.928 1678.77 Q540.779 1665.53 557.483 1665.53 Z" fill="#000000" fill-rule="nonzero" fill-opacity="1"></path><path clip-path="url(#clip470)" d="M1114.56 1755.37 L1161.48 1755.37 L1161.48 1766.69 L1098.39 1766.69 L1098.39 1755.37 Q1106.04 1747.45 1119.22 1734.14 Q1132.46 1720.77 1135.86 1716.91 Q1142.31 1709.65 1144.84 1704.66 Q1147.44 1699.6 1147.44 1694.75 Q1147.44 1686.83 1141.85 1681.84 Q1136.32 1676.84 1127.41 1676.84 Q1121.08 1676.84 1114.03 1679.04 Q1107.04 1681.24 1099.06 1685.7 L1099.06 1672.12 Q1107.17 1668.86 1114.23 1667.19 Q1121.28 1665.53 1127.14 1665.53 Q1142.58 1665.53 1151.76 1673.25 Q1160.95 1680.97 1160.95 1693.88 Q1160.95 1700 1158.62 1705.53 Q1156.36 1710.98 1150.3 1718.44 Q1148.64 1720.37 1139.72 1729.62 Q1130.8 1738.8 1114.56 1755.37 Z" fill="#000000" fill-rule="nonzero" fill-opacity="1"></path><path clip-path="url(#clip470)" d="M1189.83 1667.33 L1242.6 1667.33 L1242.6 1678.64 L1202.14 1678.64 L1202.14 1703 Q1205.07 1702 1208 1701.53 Q1210.93 1701 1213.85 1701 Q1230.49 1701 1240.21 1710.12 Q1249.93 1719.24 1249.93 1734.81 Q1249.93 1750.85 1239.94 1759.77 Q1229.96 1768.62 1211.79 1768.62 Q1205.54 1768.62 1199.01 1767.55 Q1192.56 1766.49 1185.64 1764.36 L1185.64 1750.85 Q1191.63 1754.11 1198.02 1755.71 Q1204.4 1757.3 1211.53 1757.3 Q1223.04 1757.3 1229.76 1751.25 Q1236.48 1745.19 1236.48 1734.81 Q1236.48 1724.43 1229.76 1718.37 Q1223.04 1712.32 1211.53 1712.32 Q1206.13 1712.32 1200.74 1713.51 Q1195.42 1714.71 1189.83 1717.24 L1189.83 1667.33 Z" fill="#000000" fill-rule="nonzero" fill-opacity="1"></path><path clip-path="url(#clip470)" d="M1718.09 1667.33 L1770.87 1667.33 L1770.87 1678.64 L1730.4 1678.64 L1730.4 1703 Q1733.33 1702 1736.26 1701.53 Q1739.19 1701 1742.12 1701 Q1758.75 1701 1768.47 1710.12 Q1778.19 1719.24 1778.19 1734.81 Q1778.19 1750.85 1768.2 1759.77 Q1758.22 1768.62 1740.05 1768.62 Q1733.8 1768.62 1727.28 1767.55 Q1720.82 1766.49 1713.9 1764.36 L1713.9 1750.85 Q1719.89 1754.11 1726.28 1755.71 Q1732.67 1757.3 1739.79 1757.3 Q1751.3 1757.3 1758.02 1751.25 Q1764.74 1745.19 1764.74 1734.81 Q1764.74 1724.43 1758.02 1718.37 Q1751.3 1712.32 1739.79 1712.32 Q1734.4 1712.32 1729.01 1713.51 Q1723.68 1714.71 1718.09 1717.24 L1718.09 1667.33 Z" fill="#000000" fill-rule="nonzero" fill-opacity="1"></path><path clip-path="url(#clip470)" d="M1833.42 1676.18 Q1823.04 1676.18 1817.78 1686.43 Q1812.59 1696.61 1812.59 1717.11 Q1812.59 1737.54 1817.78 1747.79 Q1823.04 1757.97 1833.42 1757.97 Q1843.87 1757.97 1849.06 1747.79 Q1854.32 1737.54 1854.32 1717.11 Q1854.32 1696.61 1849.06 1686.43 Q1843.87 1676.18 1833.42 1676.18 M1833.42 1665.53 Q1850.13 1665.53 1858.91 1678.77 Q1867.76 1691.95 1867.76 1717.11 Q1867.76 1742.2 1858.91 1755.44 Q1850.13 1768.62 1833.42 1768.62 Q1816.72 1768.62 1807.87 1755.44 Q1799.08 1742.2 1799.08 1717.11 Q1799.08 1691.95 1807.87 1678.77 Q1816.72 1665.53 1833.42 1665.53 Z" fill="#000000" fill-rule="nonzero" fill-opacity="1"></path><path clip-path="url(#clip470)" d="M2332.34 1667.33 L2396.23 1667.33 L2396.23 1673.05 L2360.16 1766.69 L2346.11 1766.69 L2380.05 1678.64 L2332.34 1678.64 L2332.34 1667.33 Z" fill="#000000" fill-rule="nonzero" fill-opacity="1"></path><path clip-path="url(#clip470)" d="M2422.58 1667.33 L2475.35 1667.33 L2475.35 1678.64 L2434.89 1678.64 L2434.89 1703 Q2437.82 1702 2440.75 1701.53 Q2443.68 1701 2446.6 1701 Q2463.24 1701 2472.96 1710.12 Q2482.68 1719.24 2482.68 1734.81 Q2482.68 1750.85 2472.69 1759.77 Q2462.71 1768.62 2444.54 1768.62 Q2438.29 1768.62 2431.76 1767.55 Q2425.31 1766.49 2418.39 1764.36 L2418.39 1750.85 Q2424.38 1754.11 2430.77 1755.71 Q2437.15 1757.3 2444.28 1757.3 Q2455.79 1757.3 2462.51 1751.25 Q2469.23 1745.19 2469.23 1734.81 Q2469.23 1724.43 2462.51 1718.37 Q2455.79 1712.32 2444.28 1712.32 Q2438.88 1712.32 2433.49 1713.51 Q2428.17 1714.71 2422.58 1717.24 L2422.58 1667.33 Z" fill="#000000" fill-rule="nonzero" fill-opacity="1"></path><path clip-path="url(#clip470)" d="M2908.05 1755.37 L2930.01 1755.37 L2930.01 1679.57 L2906.12 1684.36 L2906.12 1672.12 L2929.88 1667.33 L2943.32 1667.33 L2943.32 1755.37 L2965.28 1755.37 L2965.28 1766.69 L2908.05 1766.69 L2908.05 1755.37 Z" fill="#000000" fill-rule="nonzero" fill-opacity="1"></path><path clip-path="url(#clip470)" d="M3021.19 1676.18 Q3010.8 1676.18 3005.55 1686.43 Q3000.36 1696.61 3000.36 1717.11 Q3000.36 1737.54 3005.55 1747.79 Q3010.8 1757.97 3021.19 1757.97 Q3031.63 1757.97 3036.83 1747.79 Q3042.08 1737.54 3042.08 1717.11 Q3042.08 1696.61 3036.83 1686.43 Q3031.63 1676.18 3021.19 1676.18 M3021.19 1665.53 Q3037.89 1665.53 3046.67 1678.77 Q3055.53 1691.95 3055.53 1717.11 Q3055.53 1742.2 3046.67 1755.44 Q3037.89 1768.62 3021.19 1768.62 Q3004.48 1768.62 2995.63 1755.44 Q2986.85 1742.2 2986.85 1717.11 Q2986.85 1691.95 2995.63 1678.77 Q3004.48 1665.53 3021.19 1665.53 Z" fill="#000000" fill-rule="nonzero" fill-opacity="1"></path><path clip-path="url(#clip470)" d="M3107.9 1676.18 Q3097.52 1676.18 3092.26 1686.43 Q3087.07 1696.61 3087.07 1717.11 Q3087.07 1737.54 3092.26 1747.79 Q3097.52 1757.97 3107.9 1757.97 Q3118.35 1757.97 3123.54 1747.79 Q3128.8 1737.54 3128.8 1717.11 Q3128.8 1696.61 3123.54 1686.43 Q3118.35 1676.18 3107.9 1676.18 M3107.9 1665.53 Q3124.61 1665.53 3133.39 1678.77 Q3142.24 1691.95 3142.24 1717.11 Q3142.24 1742.2 3133.39 1755.44 Q3124.61 1768.62 3107.9 1768.62 Q3091.2 1768.62 3082.35 1755.44 Q3073.56 1742.2 3073.56 1717.11 Q3073.56 1691.95 3082.35 1678.77 Q3091.2 1665.53 3107.9 1665.53 Z" fill="#000000" fill-rule="nonzero" fill-opacity="1"></path><path clip-path="url(#clip470)" d="M1675.95 1843.06 L1675.95 1864.22 L1701.18 1864.22 L1701.18 1873.74 L1675.95 1873.74 L1675.95 1914.2 Q1675.95 1923.32 1678.42 1925.92 Q1680.95 1928.51 1688.6 1928.51 L1701.18 1928.51 L1701.18 1938.76 L1688.6 1938.76 Q1674.42 1938.76 1669.03 1933.5 Q1663.64 1928.18 1663.64 1914.2 L1663.64 1873.74 L1654.66 1873.74 L1654.66 1864.22 L1663.64 1864.22 L1663.64 1843.06 L1675.95 1843.06 Z" fill="#000000" fill-rule="nonzero" fill-opacity="1"></path><path clip-path="url(#clip470)" d="M1717.28 1864.22 L1729.53 1864.22 L1729.53 1938.76 L1717.28 1938.76 L1717.28 1864.22 M1717.28 1835.21 L1729.53 1835.21 L1729.53 1850.71 L1717.28 1850.71 L1717.28 1835.21 Z" fill="#000000" fill-rule="nonzero" fill-opacity="1"></path><path clip-path="url(#clip470)" d="M1813.18 1878.53 Q1817.77 1870.28 1824.16 1866.35 Q1830.55 1862.43 1839.2 1862.43 Q1850.85 1862.43 1857.17 1870.61 Q1863.49 1878.73 1863.49 1893.77 L1863.49 1938.76 L1851.18 1938.76 L1851.18 1894.17 Q1851.18 1883.46 1847.39 1878.27 Q1843.59 1873.07 1835.81 1873.07 Q1826.29 1873.07 1820.77 1879.4 Q1815.24 1885.72 1815.24 1896.63 L1815.24 1938.76 L1802.93 1938.76 L1802.93 1894.17 Q1802.93 1883.39 1799.14 1878.27 Q1795.35 1873.07 1787.43 1873.07 Q1778.04 1873.07 1772.52 1879.46 Q1767 1885.79 1767 1896.63 L1767 1938.76 L1754.68 1938.76 L1754.68 1864.22 L1767 1864.22 L1767 1875.8 Q1771.19 1868.95 1777.04 1865.69 Q1782.9 1862.43 1790.95 1862.43 Q1799.07 1862.43 1804.73 1866.55 Q1810.45 1870.68 1813.18 1878.53 Z" fill="#000000" fill-rule="nonzero" fill-opacity="1"></path><path clip-path="url(#clip470)" d="M1951.67 1898.43 L1951.67 1904.42 L1895.37 1904.42 Q1896.17 1917.06 1902.96 1923.72 Q1909.81 1930.31 1921.99 1930.31 Q1929.05 1930.31 1935.63 1928.58 Q1942.29 1926.85 1948.81 1923.39 L1948.81 1934.97 Q1942.22 1937.76 1935.3 1939.23 Q1928.38 1940.69 1921.26 1940.69 Q1903.42 1940.69 1892.98 1930.31 Q1882.59 1919.93 1882.59 1902.22 Q1882.59 1883.92 1892.44 1873.21 Q1902.36 1862.43 1919.13 1862.43 Q1934.17 1862.43 1942.89 1872.14 Q1951.67 1881.79 1951.67 1898.43 M1939.43 1894.84 Q1939.29 1884.79 1933.77 1878.8 Q1928.31 1872.81 1919.26 1872.81 Q1909.01 1872.81 1902.82 1878.6 Q1896.7 1884.39 1895.77 1894.9 L1939.43 1894.84 Z" fill="#000000" fill-rule="nonzero" fill-opacity="1"></path><polyline clip-path="url(#clip470)" style="stroke:#000000; stroke-linecap:round; stroke-linejoin:round; stroke-width:4; stroke-opacity:1; fill:none" points="508.889,1610.49 508.889,200.504 "></polyline>
<polyline clip-path="url(#clip470)" style="stroke:#000000; stroke-linecap:round; stroke-linejoin:round; stroke-width:4; stroke-opacity:1; fill:none" points="508.889,1540.26 523.093,1540.26 "></polyline>
<polyline clip-path="url(#clip470)" style="stroke:#000000; stroke-linecap:round; stroke-linejoin:round; stroke-width:4; stroke-opacity:1; fill:none" points="508.889,1282.35 523.093,1282.35 "></polyline>
<polyline clip-path="url(#clip470)" style="stroke:#000000; stroke-linecap:round; stroke-linejoin:round; stroke-width:4; stroke-opacity:1; fill:none" points="508.889,1024.45 523.093,1024.45 "></polyline>
<polyline clip-path="url(#clip470)" style="stroke:#000000; stroke-linecap:round; stroke-linejoin:round; stroke-width:4; stroke-opacity:1; fill:none" points="508.889,766.545 523.093,766.545 "></polyline>
<polyline clip-path="url(#clip470)" style="stroke:#000000; stroke-linecap:round; stroke-linejoin:round; stroke-width:4; stroke-opacity:1; fill:none" points="508.889,508.642 523.093,508.642 "></polyline>
<polyline clip-path="url(#clip470)" style="stroke:#000000; stroke-linecap:round; stroke-linejoin:round; stroke-width:4; stroke-opacity:1; fill:none" points="508.889,250.738 523.093,250.738 "></polyline>
<path clip-path="url(#clip470)" d="M274.992 1541.55 L360.31 1541.55 L360.31 1552.87 L274.992 1552.87 L274.992 1541.55 Z" fill="#000000" fill-rule="nonzero" fill-opacity="1"></path><path clip-path="url(#clip470)" d="M391.656 1578.62 L413.617 1578.62 L413.617 1502.82 L389.726 1507.61 L389.726 1495.37 L413.484 1490.58 L426.927 1490.58 L426.927 1578.62 L448.889 1578.62 L448.889 1589.94 L391.656 1589.94 L391.656 1578.62 Z" fill="#000000" fill-rule="nonzero" fill-opacity="1"></path><path clip-path="url(#clip470)" d="M414.549 1241.52 Q404.167 1241.52 398.91 1251.77 Q393.719 1261.95 393.719 1282.45 Q393.719 1302.88 398.91 1313.13 Q404.167 1323.31 414.549 1323.31 Q424.997 1323.31 430.188 1313.13 Q435.446 1302.88 435.446 1282.45 Q435.446 1261.95 430.188 1251.77 Q424.997 1241.52 414.549 1241.52 M414.549 1230.88 Q431.253 1230.88 440.038 1244.12 Q448.889 1257.3 448.889 1282.45 Q448.889 1307.54 440.038 1320.79 Q431.253 1333.96 414.549 1333.96 Q397.845 1333.96 388.994 1320.79 Q380.209 1307.54 380.209 1282.45 Q380.209 1257.3 388.994 1244.12 Q397.845 1230.88 414.549 1230.88 Z" fill="#000000" fill-rule="nonzero" fill-opacity="1"></path><path clip-path="url(#clip470)" d="M391.656 1062.82 L413.617 1062.82 L413.617 987.014 L389.726 991.806 L389.726 979.561 L413.484 974.769 L426.927 974.769 L426.927 1062.82 L448.889 1062.82 L448.889 1074.13 L391.656 1074.13 L391.656 1062.82 Z" fill="#000000" fill-rule="nonzero" fill-opacity="1"></path><path clip-path="url(#clip470)" d="M401.971 804.912 L448.889 804.912 L448.889 816.225 L385.799 816.225 L385.799 804.912 Q393.452 796.992 406.629 783.682 Q419.873 770.305 423.267 766.445 Q429.723 759.191 432.251 754.2 Q434.847 749.142 434.847 744.284 Q434.847 736.365 429.257 731.373 Q423.733 726.382 414.815 726.382 Q408.493 726.382 401.439 728.578 Q394.451 730.774 386.465 735.233 L386.465 721.657 Q394.584 718.396 401.638 716.732 Q408.693 715.068 414.549 715.068 Q429.989 715.068 439.173 722.788 Q448.357 730.508 448.357 743.419 Q448.357 749.542 446.027 755.065 Q443.765 760.522 437.709 767.976 Q436.045 769.906 427.127 779.157 Q418.209 788.341 401.971 804.912 Z" fill="#000000" fill-rule="nonzero" fill-opacity="1"></path><path clip-path="url(#clip470)" d="M428.392 504.748 Q438.041 506.811 443.432 513.333 Q448.889 519.855 448.889 529.439 Q448.889 544.146 438.773 552.199 Q428.658 560.252 410.024 560.252 Q403.768 560.252 397.113 558.987 Q390.524 557.789 383.47 555.327 L383.47 542.349 Q389.06 545.61 395.715 547.274 Q402.37 548.938 409.624 548.938 Q422.269 548.938 428.857 543.947 Q435.512 538.955 435.512 529.439 Q435.512 520.654 429.323 515.729 Q423.201 510.738 412.22 510.738 L400.64 510.738 L400.64 499.691 L412.752 499.691 Q422.668 499.691 427.926 495.764 Q433.183 491.771 433.183 484.317 Q433.183 476.664 427.726 472.604 Q422.335 468.478 412.22 468.478 Q406.696 468.478 400.374 469.676 Q394.051 470.874 386.465 473.403 L386.465 461.424 Q394.118 459.294 400.773 458.23 Q407.495 457.165 413.418 457.165 Q428.724 457.165 437.642 464.153 Q446.56 471.074 446.56 482.92 Q446.56 491.172 441.835 496.895 Q437.11 502.552 428.392 504.748 Z" fill="#000000" fill-rule="nonzero" fill-opacity="1"></path><path clip-path="url(#clip470)" d="M421.337 212.771 L387.396 265.812 L421.337 265.812 L421.337 212.771 M417.81 201.058 L434.714 201.058 L434.714 265.812 L448.889 265.812 L448.889 276.992 L434.714 276.992 L434.714 300.418 L421.337 300.418 L421.337 276.992 L376.482 276.992 L376.482 264.015 L417.81 201.058 Z" fill="#000000" fill-rule="nonzero" fill-opacity="1"></path><path clip-path="url(#clip470)" d="M110.648 870.757 L146.918 897.709 L185.184 869.359 L185.184 883.8 L155.902 905.496 L185.184 927.191 L185.184 941.633 L146.186 912.683 L110.648 939.17 L110.648 924.729 L137.201 904.964 L110.648 885.198 L110.648 870.757 Z" fill="#000000" fill-rule="nonzero" fill-opacity="1"></path><path clip-path="url(#clip470)" d="M1611.6 107.918 L1658.52 107.918 L1658.52 119.232 L1595.43 119.232 L1595.43 107.918 Q1603.08 99.9989 1616.26 86.6888 Q1629.5 73.3121 1632.9 69.4522 Q1639.35 62.1982 1641.88 57.2069 Q1644.48 52.149 1644.48 47.2908 Q1644.48 39.3713 1638.89 34.38 Q1633.36 29.3887 1624.44 29.3887 Q1618.12 29.3887 1611.07 31.5849 Q1604.08 33.7811 1596.09 38.24 L1596.09 24.6636 Q1604.21 21.4027 1611.27 19.7389 Q1618.32 18.0751 1624.18 18.0751 Q1639.62 18.0751 1648.8 25.795 Q1657.99 33.5149 1657.99 46.4257 Q1657.99 52.5483 1655.66 58.072 Q1653.39 63.5292 1647.34 70.9828 Q1645.67 72.9128 1636.76 82.1633 Q1627.84 91.3473 1611.6 107.918 Z" fill="#000000" fill-rule="nonzero" fill-opacity="1"></path><path clip-path="url(#clip470)" d="M1683.34 19.872 L1747.23 19.872 L1747.23 25.5953 L1711.16 119.232 L1697.12 119.232 L1731.06 31.1856 L1683.34 31.1856 L1683.34 19.872 Z" fill="#000000" fill-rule="nonzero" fill-opacity="1"></path><path clip-path="url(#clip470)" d="M1773.45 102.328 L1787.49 102.328 L1787.49 119.232 L1773.45 119.232 L1773.45 102.328 Z" fill="#000000" fill-rule="nonzero" fill-opacity="1"></path><path clip-path="url(#clip470)" d="M1845.52 28.7232 Q1835.14 28.7232 1829.89 38.972 Q1824.69 49.1543 1824.69 69.6518 Q1824.69 90.0829 1829.89 100.332 Q1835.14 110.514 1845.52 110.514 Q1855.97 110.514 1861.16 100.332 Q1866.42 90.0829 1866.42 69.6518 Q1866.42 49.1543 1861.16 38.972 Q1855.97 28.7232 1845.52 28.7232 M1845.52 18.0751 Q1862.23 18.0751 1871.01 31.3187 Q1879.86 44.4957 1879.86 69.6518 Q1879.86 94.7414 1871.01 107.985 Q1862.23 121.162 1845.52 121.162 Q1828.82 121.162 1819.97 107.985 Q1811.18 94.7414 1811.18 69.6518 Q1811.18 44.4957 1819.97 31.3187 Q1828.82 18.0751 1845.52 18.0751 Z" fill="#000000" fill-rule="nonzero" fill-opacity="1"></path><path clip-path="url(#clip470)" d="M1988.01 75.5083 Q1982.22 75.5083 1978.89 80.433 Q1975.63 85.3578 1975.63 94.1424 Q1975.63 102.794 1978.89 107.785 Q1982.22 112.71 1988.01 112.71 Q1993.67 112.71 1996.93 107.785 Q2000.25 102.794 2000.25 94.1424 Q2000.25 85.4243 1996.93 80.4996 Q1993.67 75.5083 1988.01 75.5083 M1988.01 67.0564 Q1998.52 67.0564 2004.71 74.3769 Q2010.9 81.6975 2010.9 94.1424 Q2010.9 106.587 2004.65 113.908 Q1998.46 121.162 1988.01 121.162 Q1977.36 121.162 1971.17 113.908 Q1964.98 106.587 1964.98 94.1424 Q1964.98 81.6309 1971.17 74.3769 Q1977.43 67.0564 1988.01 67.0564 M1919.33 26.5271 Q1913.61 26.5271 1910.28 31.5183 Q1907.02 36.4431 1907.02 45.0947 Q1907.02 53.8793 1910.28 58.8041 Q1913.54 63.7288 1919.33 63.7288 Q1925.12 63.7288 1928.38 58.8041 Q1931.71 53.8793 1931.71 45.0947 Q1931.71 36.5096 1928.38 31.5183 Q1925.05 26.5271 1919.33 26.5271 M1979.42 18.0751 L1990.07 18.0751 L1927.91 121.162 L1917.27 121.162 L1979.42 18.0751 M1919.33 18.0751 Q1929.84 18.0751 1936.1 25.3957 Q1942.36 32.6497 1942.36 45.0947 Q1942.36 57.6727 1936.1 64.9267 Q1929.91 72.1807 1919.33 72.1807 Q1908.75 72.1807 1902.56 64.9267 Q1896.44 57.6062 1896.44 45.0947 Q1896.44 32.7163 1902.63 25.3957 Q1908.81 18.0751 1919.33 18.0751 Z" fill="#000000" fill-rule="nonzero" fill-opacity="1"></path><polyline clip-path="url(#clip472)" style="stroke:#000000; stroke-linecap:round; stroke-linejoin:round; stroke-width:8; stroke-opacity:1; fill:none" stroke-dasharray="4, 8" points="582.15,1268.11 606.817,1301.78 631.484,1464.01 656.151,1459.41 680.818,1449.41 705.485,1524.64 730.152,1570.58 754.819,1422.69 779.486,1262.16 804.153,1256.57 828.82,1228.01 853.487,1140.21 878.154,1032.99 902.821,978.837 927.488,940.491 952.155,851.826 976.822,1023.49 1001.49,1012.25 1026.16,979.541 1050.82,1157.08 1075.49,1157.49 1100.16,1194.51 1124.82,1321.1 1149.49,1305.36 1174.16,1239.86 1198.82,1346.24 1223.49,1199.99 1248.16,1259.18 1272.83,1219.1 1297.49,1133.16 1322.16,1045.99 1346.83,943.513 1371.49,908.903 1396.16,951.478 1420.83,792.737 1445.49,816.679 1470.16,773.445 1494.83,742.585 1519.5,825.369 1544.16,904.651 1568.83,1040.36 1593.5,998.081 1618.16,1177.88 1642.83,1199.72 1667.5,1096.92 1692.16,1130.51 1716.83,1117.01 1741.5,1094.02 1766.16,1068.87 1790.83,1023.83 1815.5,935.008 1840.17,844.995 1864.83,730.388 1889.5,688.718 1914.17,543.651 1938.83,596.027 1963.5,642.972 1988.17,695.789 2012.83,729.893 2037.5,783.779 2062.17,820.452 2086.84,916.119 2111.5,997.026 2136.17,990.137 2160.84,1019.82 2185.5,1014.34 2210.17,1015.41 2234.84,918.92 2259.5,847.601 "></polyline>
<polyline clip-path="url(#clip472)" style="stroke:#000000; stroke-linecap:round; stroke-linejoin:round; stroke-width:8; stroke-opacity:1; fill:none" stroke-dasharray="4, 8" points="2925.51,240.409 2950.18,246.047 2974.85,389.905 2999.51,458.994 3024.18,496.044 "></polyline>
<polyline clip-path="url(#clip472)" style="stroke:#000000; stroke-linecap:round; stroke-linejoin:round; stroke-width:8; stroke-opacity:0.3; fill:none" points="2284.17,818.032 2308.84,682.485 2333.51,622.846 2358.17,614.985 2382.84,477.84 2407.51,510.147 2432.17,470.969 2456.84,471.661 2481.51,568.136 2506.17,435.675 2530.84,624.838 2555.51,705.3 2580.18,737.43 2604.84,761.759 2629.51,868.568 2654.18,905.953 2678.84,826.704 2703.51,820.955 2728.18,817.948 2752.84,678.685 2777.51,629.464 2802.18,502.515 2826.84,392.366 2851.51,347.814 2876.18,314.155 2900.85,315.871 "></polyline>
<path clip-path="url(#clip472)" d="M2284.17 865.268 L2308.84 771.782 L2333.51 655.23 L2358.17 587.792 L2382.84 552.136 L2407.51 504.521 L2432.17 490.179 L2456.84 498.655 L2481.51 559.318 L2506.17 614.358 L2530.84 698.236 L2555.51 784.587 L2580.18 832.653 L2604.84 882.665 L2629.51 912.47 L2654.18 930.636 L2678.84 930 L2703.51 904.253 L2728.18 834.191 L2752.84 766.299 L2777.51 657.112 L2802.18 603.551 L2826.84 511.449 L2851.51 439.65 L2876.18 407.493 L2900.85 361.495 L2900.85 276.148 L2876.18 321.696 L2851.51 347.868 L2826.84 394.474 L2802.18 481.332 L2777.51 545.063 L2752.84 638.675 L2728.18 721.452 L2703.51 783.94 L2678.84 811.913 L2654.18 807.304 L2629.51 790.028 L2604.84 763.411 L2580.18 722.672 L2555.51 665.206 L2530.84 583.406 L2506.17 509.303 L2481.51 454.997 L2456.84 398.05 L2432.17 386.341 L2407.51 401.879 L2382.84 446.763 L2358.17 482.15 L2333.51 545.674 L2308.84 657.509 L2284.17 744.412  Z" fill="#ff0000" fill-rule="evenodd" fill-opacity="0.15"></path>
<polyline clip-path="url(#clip472)" style="stroke:#ff0000; stroke-linecap:round; stroke-linejoin:round; stroke-width:8; stroke-opacity:0.8; fill:none" points="2284.17,804.84 2308.84,714.645 2333.51,600.452 2358.17,534.971 2382.84,499.45 2407.51,453.2 2432.17,438.26 2456.84,448.353 2481.51,507.158 2506.17,561.831 2530.84,640.821 2555.51,724.897 2580.18,777.662 2604.84,823.038 2629.51,851.249 2654.18,868.97 2678.84,870.956 2703.51,844.097 2728.18,777.821 2752.84,702.487 2777.51,601.087 2802.18,542.441 2826.84,452.962 2851.51,393.759 2876.18,364.595 2900.85,318.822 "></polyline>
<path clip-path="url(#clip470)" d="M3212.24 454.864 L3952.76 454.864 L3952.76 247.504 L3212.24 247.504  Z" fill="#ffffff" fill-rule="evenodd" fill-opacity="1"></path>
<polyline clip-path="url(#clip470)" style="stroke:#000000; stroke-linecap:round; stroke-linejoin:round; stroke-width:4; stroke-opacity:1; fill:none" points="3212.24,454.864 3952.76,454.864 3952.76,247.504 3212.24,247.504 3212.24,454.864 "></polyline>
<polyline clip-path="url(#clip470)" style="stroke:#000000; stroke-linecap:round; stroke-linejoin:round; stroke-width:8; stroke-opacity:1; fill:none" stroke-dasharray="4, 8" points="3250.5,299.344 3480.09,299.344 "></polyline>
<path clip-path="url(#clip470)" d="M3534.38 285.235 Q3529.28 285.235 3526.28 289.031 Q3523.29 292.828 3523.29 299.378 Q3523.29 305.906 3526.28 309.702 Q3529.28 313.499 3534.38 313.499 Q3539.47 313.499 3542.43 309.702 Q3545.42 305.906 3545.42 299.378 Q3545.42 292.828 3542.43 289.031 Q3539.47 285.235 3534.38 285.235 M3534.38 281.439 Q3541.65 281.439 3546 286.323 Q3550.35 291.184 3550.35 299.378 Q3550.35 307.55 3546 312.434 Q3541.65 317.295 3534.38 317.295 Q3527.09 317.295 3522.71 312.434 Q3518.36 307.573 3518.36 299.378 Q3518.36 291.184 3522.71 286.323 Q3527.09 281.439 3534.38 281.439 Z" fill="#000000" fill-rule="nonzero" fill-opacity="1"></path><path clip-path="url(#clip470)" d="M3576.09 303.684 Q3576.09 298.985 3574.15 296.323 Q3572.22 293.638 3568.84 293.638 Q3565.46 293.638 3563.52 296.323 Q3561.6 298.985 3561.6 303.684 Q3561.6 308.383 3563.52 311.068 Q3565.46 313.73 3568.84 313.73 Q3572.22 313.73 3574.15 311.068 Q3576.09 308.383 3576.09 303.684 M3561.6 294.633 Q3562.94 292.318 3564.98 291.207 Q3567.04 290.073 3569.89 290.073 Q3574.61 290.073 3577.55 293.823 Q3580.51 297.573 3580.51 303.684 Q3580.51 309.795 3577.55 313.545 Q3574.61 317.295 3569.89 317.295 Q3567.04 317.295 3564.98 316.184 Q3562.94 315.05 3561.6 312.735 L3561.6 316.624 L3557.32 316.624 L3557.32 280.605 L3561.6 280.605 L3561.6 294.633 Z" fill="#000000" fill-rule="nonzero" fill-opacity="1"></path><path clip-path="url(#clip470)" d="M3604.1 291.462 L3604.1 295.49 Q3602.29 294.564 3600.35 294.101 Q3598.4 293.638 3596.32 293.638 Q3593.15 293.638 3591.55 294.61 Q3589.98 295.582 3589.98 297.527 Q3589.98 299.008 3591.11 299.865 Q3592.25 300.698 3595.67 301.462 L3597.13 301.786 Q3601.67 302.758 3603.57 304.54 Q3605.49 306.3 3605.49 309.471 Q3605.49 313.082 3602.62 315.189 Q3599.77 317.295 3594.77 317.295 Q3592.69 317.295 3590.42 316.878 Q3588.17 316.485 3585.67 315.675 L3585.67 311.277 Q3588.03 312.503 3590.33 313.128 Q3592.62 313.73 3594.86 313.73 Q3597.87 313.73 3599.49 312.712 Q3601.11 311.67 3601.11 309.795 Q3601.11 308.059 3599.93 307.133 Q3598.77 306.207 3594.82 305.351 L3593.34 305.003 Q3589.38 304.17 3587.62 302.457 Q3585.86 300.721 3585.86 297.712 Q3585.86 294.054 3588.45 292.064 Q3591.04 290.073 3595.81 290.073 Q3598.17 290.073 3600.26 290.42 Q3602.34 290.767 3604.1 291.462 Z" fill="#000000" fill-rule="nonzero" fill-opacity="1"></path><path clip-path="url(#clip470)" d="M3634.45 302.596 L3634.45 304.679 L3614.86 304.679 Q3615.14 309.077 3617.5 311.392 Q3619.89 313.684 3624.12 313.684 Q3626.58 313.684 3628.87 313.082 Q3631.18 312.48 3633.45 311.277 L3633.45 315.304 Q3631.16 316.276 3628.75 316.786 Q3626.34 317.295 3623.87 317.295 Q3617.66 317.295 3614.03 313.684 Q3610.42 310.073 3610.42 303.915 Q3610.42 297.55 3613.84 293.823 Q3617.29 290.073 3623.13 290.073 Q3628.36 290.073 3631.39 293.453 Q3634.45 296.809 3634.45 302.596 M3630.19 301.346 Q3630.14 297.851 3628.22 295.767 Q3626.32 293.684 3623.17 293.684 Q3619.61 293.684 3617.46 295.698 Q3615.33 297.712 3615 301.369 L3630.19 301.346 Z" fill="#000000" fill-rule="nonzero" fill-opacity="1"></path><path clip-path="url(#clip470)" d="M3656.46 294.679 Q3655.74 294.263 3654.89 294.078 Q3654.05 293.869 3653.03 293.869 Q3649.42 293.869 3647.48 296.23 Q3645.56 298.568 3645.56 302.966 L3645.56 316.624 L3641.27 316.624 L3641.27 290.698 L3645.56 290.698 L3645.56 294.726 Q3646.9 292.365 3649.05 291.23 Q3651.21 290.073 3654.28 290.073 Q3654.72 290.073 3655.26 290.142 Q3655.79 290.189 3656.44 290.304 L3656.46 294.679 Z" fill="#000000" fill-rule="nonzero" fill-opacity="1"></path><path clip-path="url(#clip470)" d="M3657.87 290.698 L3662.39 290.698 L3670.49 312.457 L3678.59 290.698 L3683.1 290.698 L3673.38 316.624 L3667.59 316.624 L3657.87 290.698 Z" fill="#000000" fill-rule="nonzero" fill-opacity="1"></path><path clip-path="url(#clip470)" d="M3711.16 302.596 L3711.16 304.679 L3691.58 304.679 Q3691.85 309.077 3694.21 311.392 Q3696.6 313.684 3700.83 313.684 Q3703.29 313.684 3705.58 313.082 Q3707.89 312.48 3710.16 311.277 L3710.16 315.304 Q3707.87 316.276 3705.46 316.786 Q3703.06 317.295 3700.58 317.295 Q3694.38 317.295 3690.74 313.684 Q3687.13 310.073 3687.13 303.915 Q3687.13 297.55 3690.56 293.823 Q3694.01 290.073 3699.84 290.073 Q3705.07 290.073 3708.1 293.453 Q3711.16 296.809 3711.16 302.596 M3706.9 301.346 Q3706.85 297.851 3704.93 295.767 Q3703.03 293.684 3699.89 293.684 Q3696.32 293.684 3694.17 295.698 Q3692.04 297.712 3691.71 301.369 L3706.9 301.346 Z" fill="#000000" fill-rule="nonzero" fill-opacity="1"></path><path clip-path="url(#clip470)" d="M3735.21 294.633 L3735.21 280.605 L3739.47 280.605 L3739.47 316.624 L3735.21 316.624 L3735.21 312.735 Q3733.87 315.05 3731.81 316.184 Q3729.77 317.295 3726.9 317.295 Q3722.2 317.295 3719.24 313.545 Q3716.3 309.795 3716.3 303.684 Q3716.3 297.573 3719.24 293.823 Q3722.2 290.073 3726.9 290.073 Q3729.77 290.073 3731.81 291.207 Q3733.87 292.318 3735.21 294.633 M3720.7 303.684 Q3720.7 308.383 3722.62 311.068 Q3724.56 313.73 3727.94 313.73 Q3731.32 313.73 3733.26 311.068 Q3735.21 308.383 3735.21 303.684 Q3735.21 298.985 3733.26 296.323 Q3731.32 293.638 3727.94 293.638 Q3724.56 293.638 3722.62 296.323 Q3720.7 298.985 3720.7 303.684 Z" fill="#000000" fill-rule="nonzero" fill-opacity="1"></path><polyline clip-path="url(#clip470)" style="stroke:#000000; stroke-linecap:round; stroke-linejoin:round; stroke-width:8; stroke-opacity:0.3; fill:none" points="3250.5,351.184 3480.09,351.184 "></polyline>
<path clip-path="url(#clip470)" d="M3543.91 363.533 L3543.91 354.251 L3536.28 354.251 L3536.28 350.408 L3548.54 350.408 L3548.54 365.246 Q3545.84 367.167 3542.57 368.163 Q3539.31 369.135 3535.6 369.135 Q3527.5 369.135 3522.92 364.413 Q3518.36 359.667 3518.36 351.218 Q3518.36 342.746 3522.92 338.024 Q3527.5 333.279 3535.6 333.279 Q3538.98 333.279 3542.02 334.112 Q3545.07 334.945 3547.64 336.566 L3547.64 341.543 Q3545.05 339.343 3542.13 338.232 Q3539.21 337.121 3536 337.121 Q3529.65 337.121 3526.46 340.663 Q3523.29 344.205 3523.29 351.218 Q3523.29 358.209 3526.46 361.751 Q3529.65 365.292 3536 365.292 Q3538.47 365.292 3540.42 364.876 Q3542.36 364.436 3543.91 363.533 Z" fill="#000000" fill-rule="nonzero" fill-opacity="1"></path><path clip-path="url(#clip470)" d="M3571.92 346.519 Q3571.21 346.103 3570.35 345.918 Q3569.52 345.709 3568.5 345.709 Q3564.89 345.709 3562.94 348.07 Q3561.02 350.408 3561.02 354.806 L3561.02 368.464 L3556.74 368.464 L3556.74 342.538 L3561.02 342.538 L3561.02 346.566 Q3562.36 344.205 3564.52 343.07 Q3566.67 341.913 3569.75 341.913 Q3570.19 341.913 3570.72 341.982 Q3571.25 342.029 3571.9 342.144 L3571.92 346.519 Z" fill="#000000" fill-rule="nonzero" fill-opacity="1"></path><path clip-path="url(#clip470)" d="M3585.4 345.524 Q3581.97 345.524 3579.98 348.209 Q3577.99 350.871 3577.99 355.524 Q3577.99 360.177 3579.96 362.862 Q3581.95 365.524 3585.4 365.524 Q3588.8 365.524 3590.79 362.839 Q3592.78 360.154 3592.78 355.524 Q3592.78 350.917 3590.79 348.232 Q3588.8 345.524 3585.4 345.524 M3585.4 341.913 Q3590.95 341.913 3594.12 345.524 Q3597.29 349.135 3597.29 355.524 Q3597.29 361.89 3594.12 365.524 Q3590.95 369.135 3585.4 369.135 Q3579.82 369.135 3576.65 365.524 Q3573.5 361.89 3573.5 355.524 Q3573.5 349.135 3576.65 345.524 Q3579.82 341.913 3585.4 341.913 Z" fill="#000000" fill-rule="nonzero" fill-opacity="1"></path><path clip-path="url(#clip470)" d="M3603.91 358.232 L3603.91 342.538 L3608.17 342.538 L3608.17 358.07 Q3608.17 361.751 3609.61 363.603 Q3611.04 365.431 3613.91 365.431 Q3617.36 365.431 3619.35 363.232 Q3621.37 361.033 3621.37 357.237 L3621.37 342.538 L3625.63 342.538 L3625.63 368.464 L3621.37 368.464 L3621.37 364.482 Q3619.82 366.843 3617.76 368.001 Q3615.72 369.135 3613.01 369.135 Q3608.54 369.135 3606.23 366.357 Q3603.91 363.579 3603.91 358.232 M3614.63 341.913 L3614.63 341.913 Z" fill="#000000" fill-rule="nonzero" fill-opacity="1"></path><path clip-path="url(#clip470)" d="M3655.95 352.816 L3655.95 368.464 L3651.69 368.464 L3651.69 352.955 Q3651.69 349.274 3650.26 347.445 Q3648.82 345.617 3645.95 345.617 Q3642.5 345.617 3640.51 347.816 Q3638.52 350.015 3638.52 353.811 L3638.52 368.464 L3634.24 368.464 L3634.24 342.538 L3638.52 342.538 L3638.52 346.566 Q3640.05 344.228 3642.11 343.07 Q3644.19 341.913 3646.9 341.913 Q3651.37 341.913 3653.66 344.691 Q3655.95 347.445 3655.95 352.816 Z" fill="#000000" fill-rule="nonzero" fill-opacity="1"></path><path clip-path="url(#clip470)" d="M3681.51 346.473 L3681.51 332.445 L3685.77 332.445 L3685.77 368.464 L3681.51 368.464 L3681.51 364.575 Q3680.16 366.89 3678.1 368.024 Q3676.07 369.135 3673.2 369.135 Q3668.5 369.135 3665.53 365.385 Q3662.59 361.635 3662.59 355.524 Q3662.59 349.413 3665.53 345.663 Q3668.5 341.913 3673.2 341.913 Q3676.07 341.913 3678.1 343.047 Q3680.16 344.158 3681.51 346.473 M3666.99 355.524 Q3666.99 360.223 3668.91 362.908 Q3670.86 365.57 3674.24 365.57 Q3677.62 365.57 3679.56 362.908 Q3681.51 360.223 3681.51 355.524 Q3681.51 350.825 3679.56 348.163 Q3677.62 345.478 3674.24 345.478 Q3670.86 345.478 3668.91 348.163 Q3666.99 350.825 3666.99 355.524 Z" fill="#000000" fill-rule="nonzero" fill-opacity="1"></path><path clip-path="url(#clip470)" d="M3713.82 335.177 L3713.82 342.538 L3722.59 342.538 L3722.59 345.848 L3713.82 345.848 L3713.82 359.922 Q3713.82 363.093 3714.68 363.996 Q3715.56 364.899 3718.22 364.899 L3722.59 364.899 L3722.59 368.464 L3718.22 368.464 Q3713.29 368.464 3711.41 366.635 Q3709.54 364.783 3709.54 359.922 L3709.54 345.848 L3706.41 345.848 L3706.41 342.538 L3709.54 342.538 L3709.54 335.177 L3713.82 335.177 Z" fill="#000000" fill-rule="nonzero" fill-opacity="1"></path><path clip-path="url(#clip470)" d="M3743.22 346.519 Q3742.5 346.103 3741.64 345.918 Q3740.81 345.709 3739.79 345.709 Q3736.18 345.709 3734.24 348.07 Q3732.32 350.408 3732.32 354.806 L3732.32 368.464 L3728.03 368.464 L3728.03 342.538 L3732.32 342.538 L3732.32 346.566 Q3733.66 344.205 3735.81 343.07 Q3737.96 341.913 3741.04 341.913 Q3741.48 341.913 3742.01 341.982 Q3742.55 342.029 3743.2 342.144 L3743.22 346.519 Z" fill="#000000" fill-rule="nonzero" fill-opacity="1"></path><path clip-path="url(#clip470)" d="M3747.25 358.232 L3747.25 342.538 L3751.51 342.538 L3751.51 358.07 Q3751.51 361.751 3752.94 363.603 Q3754.38 365.431 3757.25 365.431 Q3760.7 365.431 3762.69 363.232 Q3764.7 361.033 3764.7 357.237 L3764.7 342.538 L3768.96 342.538 L3768.96 368.464 L3764.7 368.464 L3764.7 364.482 Q3763.15 366.843 3761.09 368.001 Q3759.05 369.135 3756.34 369.135 Q3751.88 369.135 3749.56 366.357 Q3747.25 363.579 3747.25 358.232 M3757.96 341.913 L3757.96 341.913 Z" fill="#000000" fill-rule="nonzero" fill-opacity="1"></path><path clip-path="url(#clip470)" d="M3781.95 335.177 L3781.95 342.538 L3790.72 342.538 L3790.72 345.848 L3781.95 345.848 L3781.95 359.922 Q3781.95 363.093 3782.8 363.996 Q3783.68 364.899 3786.34 364.899 L3790.72 364.899 L3790.72 368.464 L3786.34 368.464 Q3781.41 368.464 3779.54 366.635 Q3777.66 364.783 3777.66 359.922 L3777.66 345.848 L3774.54 345.848 L3774.54 342.538 L3777.66 342.538 L3777.66 335.177 L3781.95 335.177 Z" fill="#000000" fill-rule="nonzero" fill-opacity="1"></path><path clip-path="url(#clip470)" d="M3817.87 352.816 L3817.87 368.464 L3813.61 368.464 L3813.61 352.955 Q3813.61 349.274 3812.18 347.445 Q3810.74 345.617 3807.87 345.617 Q3804.42 345.617 3802.43 347.816 Q3800.44 350.015 3800.44 353.811 L3800.44 368.464 L3796.16 368.464 L3796.16 332.445 L3800.44 332.445 L3800.44 346.566 Q3801.97 344.228 3804.03 343.07 Q3806.11 341.913 3808.82 341.913 Q3813.29 341.913 3815.58 344.691 Q3817.87 347.445 3817.87 352.816 Z" fill="#000000" fill-rule="nonzero" fill-opacity="1"></path><polyline clip-path="url(#clip470)" style="stroke:#ff0000; stroke-linecap:round; stroke-linejoin:round; stroke-width:8; stroke-opacity:0.8; fill:none" points="3250.5,403.024 3480.09,403.024 "></polyline>
<path clip-path="url(#clip470)" d="M3518.36 385.744 L3525.33 385.744 L3534.15 409.262 L3543.01 385.744 L3549.98 385.744 L3549.98 420.304 L3545.42 420.304 L3545.42 389.957 L3536.51 413.66 L3531.81 413.66 L3522.9 389.957 L3522.9 420.304 L3518.36 420.304 L3518.36 385.744 Z" fill="#000000" fill-rule="nonzero" fill-opacity="1"></path><path clip-path="url(#clip470)" d="M3563.94 389.586 L3563.94 402.572 L3569.82 402.572 Q3573.08 402.572 3574.86 400.883 Q3576.65 399.193 3576.65 396.068 Q3576.65 392.966 3574.86 391.276 Q3573.08 389.586 3569.82 389.586 L3563.94 389.586 M3559.26 385.744 L3569.82 385.744 Q3575.63 385.744 3578.59 388.383 Q3581.58 390.998 3581.58 396.068 Q3581.58 401.183 3578.59 403.799 Q3575.63 406.415 3569.82 406.415 L3563.94 406.415 L3563.94 420.304 L3559.26 420.304 L3559.26 385.744 Z" fill="#000000" fill-rule="nonzero" fill-opacity="1"></path><path clip-path="url(#clip470)" d="M3608.57 386.878 L3608.57 391.438 Q3605.9 390.165 3603.54 389.54 Q3601.18 388.915 3598.98 388.915 Q3595.16 388.915 3593.08 390.396 Q3591.02 391.878 3591.02 394.609 Q3591.02 396.901 3592.39 398.082 Q3593.77 399.239 3597.62 399.957 L3600.44 400.535 Q3605.67 401.531 3608.15 404.054 Q3610.65 406.554 3610.65 410.767 Q3610.65 415.79 3607.27 418.382 Q3603.91 420.975 3597.41 420.975 Q3594.96 420.975 3592.18 420.419 Q3589.42 419.864 3586.46 418.776 L3586.46 413.961 Q3589.31 415.558 3592.04 416.369 Q3594.77 417.179 3597.41 417.179 Q3601.41 417.179 3603.59 415.605 Q3605.77 414.031 3605.77 411.114 Q3605.77 408.568 3604.19 407.132 Q3602.64 405.697 3599.08 404.98 L3596.23 404.424 Q3591 403.382 3588.66 401.16 Q3586.32 398.938 3586.32 394.98 Q3586.32 390.396 3589.54 387.758 Q3592.78 385.119 3598.45 385.119 Q3600.88 385.119 3603.4 385.559 Q3605.93 385.998 3608.57 386.878 Z" fill="#000000" fill-rule="nonzero" fill-opacity="1"></path><path clip-path="url(#clip470)" d="M3633.01 385.744 L3637.69 385.744 L3637.69 420.304 L3633.01 420.304 L3633.01 385.744 Z" fill="#000000" fill-rule="nonzero" fill-opacity="1"></path><path clip-path="url(#clip470)" d="M3668.36 404.656 L3668.36 420.304 L3664.1 420.304 L3664.1 404.795 Q3664.1 401.114 3662.66 399.285 Q3661.23 397.457 3658.36 397.457 Q3654.91 397.457 3652.92 399.656 Q3650.93 401.855 3650.93 405.651 L3650.93 420.304 L3646.64 420.304 L3646.64 394.378 L3650.93 394.378 L3650.93 398.406 Q3652.46 396.068 3654.52 394.91 Q3656.6 393.753 3659.31 393.753 Q3663.77 393.753 3666.07 396.531 Q3668.36 399.285 3668.36 404.656 Z" fill="#000000" fill-rule="nonzero" fill-opacity="1"></path><path clip-path="url(#clip470)" d="M3681.07 387.017 L3681.07 394.378 L3689.84 394.378 L3689.84 397.688 L3681.07 397.688 L3681.07 411.762 Q3681.07 414.933 3681.92 415.836 Q3682.8 416.739 3685.46 416.739 L3689.84 416.739 L3689.84 420.304 L3685.46 420.304 Q3680.53 420.304 3678.66 418.475 Q3676.78 416.623 3676.78 411.762 L3676.78 397.688 L3673.66 397.688 L3673.66 394.378 L3676.78 394.378 L3676.78 387.017 L3681.07 387.017 Z" fill="#000000" fill-rule="nonzero" fill-opacity="1"></path><path clip-path="url(#clip470)" d="M3717.62 406.276 L3717.62 408.359 L3698.03 408.359 Q3698.31 412.757 3700.67 415.072 Q3703.06 417.364 3707.29 417.364 Q3709.75 417.364 3712.04 416.762 Q3714.35 416.16 3716.62 414.957 L3716.62 418.984 Q3714.33 419.956 3711.92 420.466 Q3709.51 420.975 3707.04 420.975 Q3700.83 420.975 3697.2 417.364 Q3693.59 413.753 3693.59 407.595 Q3693.59 401.23 3697.02 397.503 Q3700.46 393.753 3706.3 393.753 Q3711.53 393.753 3714.56 397.133 Q3717.62 400.489 3717.62 406.276 M3713.36 405.026 Q3713.31 401.531 3711.39 399.447 Q3709.49 397.364 3706.34 397.364 Q3702.78 397.364 3700.63 399.378 Q3698.5 401.392 3698.17 405.049 L3713.36 405.026 Z" fill="#000000" fill-rule="nonzero" fill-opacity="1"></path><path clip-path="url(#clip470)" d="M3739.63 398.359 Q3738.91 397.943 3738.06 397.758 Q3737.22 397.549 3736.2 397.549 Q3732.59 397.549 3730.65 399.91 Q3728.73 402.248 3728.73 406.646 L3728.73 420.304 L3724.45 420.304 L3724.45 394.378 L3728.73 394.378 L3728.73 398.406 Q3730.07 396.045 3732.22 394.91 Q3734.38 393.753 3737.45 393.753 Q3737.89 393.753 3738.43 393.822 Q3738.96 393.869 3739.61 393.984 L3739.63 398.359 Z" fill="#000000" fill-rule="nonzero" fill-opacity="1"></path><path clip-path="url(#clip470)" d="M3748.22 416.415 L3748.22 430.165 L3743.94 430.165 L3743.94 394.378 L3748.22 394.378 L3748.22 398.313 Q3749.56 395.998 3751.6 394.887 Q3753.66 393.753 3756.51 393.753 Q3761.23 393.753 3764.17 397.503 Q3767.13 401.253 3767.13 407.364 Q3767.13 413.475 3764.17 417.225 Q3761.23 420.975 3756.51 420.975 Q3753.66 420.975 3751.6 419.864 Q3749.56 418.73 3748.22 416.415 M3762.71 407.364 Q3762.71 402.665 3760.76 400.003 Q3758.84 397.318 3755.46 397.318 Q3752.08 397.318 3750.14 400.003 Q3748.22 402.665 3748.22 407.364 Q3748.22 412.063 3750.14 414.748 Q3752.08 417.41 3755.46 417.41 Q3758.84 417.41 3760.76 414.748 Q3762.71 412.063 3762.71 407.364 Z" fill="#000000" fill-rule="nonzero" fill-opacity="1"></path><path clip-path="url(#clip470)" d="M3784.24 397.364 Q3780.81 397.364 3778.82 400.049 Q3776.83 402.711 3776.83 407.364 Q3776.83 412.017 3778.8 414.702 Q3780.79 417.364 3784.24 417.364 Q3787.64 417.364 3789.63 414.679 Q3791.62 411.994 3791.62 407.364 Q3791.62 402.757 3789.63 400.072 Q3787.64 397.364 3784.24 397.364 M3784.24 393.753 Q3789.79 393.753 3792.96 397.364 Q3796.13 400.975 3796.13 407.364 Q3796.13 413.73 3792.96 417.364 Q3789.79 420.975 3784.24 420.975 Q3778.66 420.975 3775.49 417.364 Q3772.34 413.73 3772.34 407.364 Q3772.34 400.975 3775.49 397.364 Q3778.66 393.753 3784.24 393.753 Z" fill="#000000" fill-rule="nonzero" fill-opacity="1"></path><path clip-path="url(#clip470)" d="M3803.2 384.285 L3807.45 384.285 L3807.45 420.304 L3803.2 420.304 L3803.2 384.285 Z" fill="#000000" fill-rule="nonzero" fill-opacity="1"></path><path clip-path="url(#clip470)" d="M3828.15 407.271 Q3822.99 407.271 3821 408.452 Q3819.01 409.632 3819.01 412.48 Q3819.01 414.748 3820.49 416.091 Q3821.99 417.41 3824.56 417.41 Q3828.1 417.41 3830.23 414.91 Q3832.38 412.387 3832.38 408.22 L3832.38 407.271 L3828.15 407.271 M3836.64 405.512 L3836.64 420.304 L3832.38 420.304 L3832.38 416.369 Q3830.93 418.73 3828.75 419.864 Q3826.57 420.975 3823.43 420.975 Q3819.44 420.975 3817.08 418.753 Q3814.75 416.507 3814.75 412.757 Q3814.75 408.382 3817.66 406.16 Q3820.6 403.938 3826.41 403.938 L3832.38 403.938 L3832.38 403.521 Q3832.38 400.582 3830.44 398.984 Q3828.52 397.364 3825.02 397.364 Q3822.8 397.364 3820.69 397.896 Q3818.59 398.429 3816.64 399.494 L3816.64 395.558 Q3818.98 394.656 3821.18 394.216 Q3823.38 393.753 3825.46 393.753 Q3831.09 393.753 3833.87 396.67 Q3836.64 399.586 3836.64 405.512 Z" fill="#000000" fill-rule="nonzero" fill-opacity="1"></path><path clip-path="url(#clip470)" d="M3849.63 387.017 L3849.63 394.378 L3858.4 394.378 L3858.4 397.688 L3849.63 397.688 L3849.63 411.762 Q3849.63 414.933 3850.49 415.836 Q3851.37 416.739 3854.03 416.739 L3858.4 416.739 L3858.4 420.304 L3854.03 420.304 Q3849.1 420.304 3847.22 418.475 Q3845.35 416.623 3845.35 411.762 L3845.35 397.688 L3842.22 397.688 L3842.22 394.378 L3845.35 394.378 L3845.35 387.017 L3849.63 387.017 Z" fill="#000000" fill-rule="nonzero" fill-opacity="1"></path><path clip-path="url(#clip470)" d="M3886.18 406.276 L3886.18 408.359 L3866.6 408.359 Q3866.88 412.757 3869.24 415.072 Q3871.62 417.364 3875.86 417.364 Q3878.31 417.364 3880.6 416.762 Q3882.92 416.16 3885.19 414.957 L3885.19 418.984 Q3882.89 419.956 3880.49 420.466 Q3878.08 420.975 3875.6 420.975 Q3869.4 420.975 3865.76 417.364 Q3862.15 413.753 3862.15 407.595 Q3862.15 401.23 3865.58 397.503 Q3869.03 393.753 3874.86 393.753 Q3880.09 393.753 3883.13 397.133 Q3886.18 400.489 3886.18 406.276 M3881.92 405.026 Q3881.88 401.531 3879.95 399.447 Q3878.06 397.364 3874.91 397.364 Q3871.34 397.364 3869.19 399.378 Q3867.06 401.392 3866.74 405.049 L3881.92 405.026 Z" fill="#000000" fill-rule="nonzero" fill-opacity="1"></path><path clip-path="url(#clip470)" d="M3910.23 398.313 L3910.23 384.285 L3914.49 384.285 L3914.49 420.304 L3910.23 420.304 L3910.23 416.415 Q3908.89 418.73 3906.83 419.864 Q3904.79 420.975 3901.92 420.975 Q3897.22 420.975 3894.26 417.225 Q3891.32 413.475 3891.32 407.364 Q3891.32 401.253 3894.26 397.503 Q3897.22 393.753 3901.92 393.753 Q3904.79 393.753 3906.83 394.887 Q3908.89 395.998 3910.23 398.313 M3895.72 407.364 Q3895.72 412.063 3897.64 414.748 Q3899.58 417.41 3902.96 417.41 Q3906.34 417.41 3908.29 414.748 Q3910.23 412.063 3910.23 407.364 Q3910.23 402.665 3908.29 400.003 Q3906.34 397.318 3902.96 397.318 Q3899.58 397.318 3897.64 400.003 Q3895.72 402.665 3895.72 407.364 Z" fill="#000000" fill-rule="nonzero" fill-opacity="1"></path></svg>