<svg xmlns="http://www.w3.org/2000/svg" xmlns:xlink="http://www.w3.org/1999/xlink" width="1000" height="500" viewBox="0 0 4000 2000">
<defs>
  <clipPath id="clip830">
    <rect x="0" y="0" width="4000" height="2000"></rect>
  </clipPath>
</defs>
<path clip-path="url(#clip830)" d="M0 2000 L4000 2000 L4000 0 L0 0  Z" fill="#ffffff" fill-rule="evenodd" fill-opacity="1"></path>
<defs>
  <clipPath id="clip831">
    <rect x="800" y="0" width="2801" height="2000"></rect>
  </clipPath>
</defs>
<path clip-path="url(#clip830)" d="M403.673 1610.49 L3083.41 1610.49 L3083.41 200.504 L403.673 200.504  Z" fill="#ffffff" fill-rule="evenodd" fill-opacity="1"></path>
<defs>
  <clipPath id="clip832">
    <rect x="403" y="200" width="2681" height="1411"></rect>
  </clipPath>
</defs>
<polyline clip-path="url(#clip832)" style="stroke:#000000; stroke-linecap:round; stroke-linejoin:round; stroke-width:2; stroke-opacity:0.1; fill:none" points="453.978,1610.49 453.978,200.504 "></polyline>
<polyline clip-path="url(#clip832)" style="stroke:#000000; stroke-linecap:round; stroke-linejoin:round; stroke-width:2; stroke-opacity:0.1; fill:none" points="1092.38,1610.49 1092.38,200.504 "></polyline>
<polyline clip-path="url(#clip832)" style="stroke:#000000; stroke-linecap:round; stroke-linejoin:round; stroke-width:2; stroke-opacity:0.1; fill:none" points="1730.77,1610.49 1730.77,200.504 "></polyline>
<polyline clip-path="url(#clip832)" style="stroke:#000000; stroke-linecap:round; stroke-linejoin:round; stroke-width:2; stroke-opacity:0.1; fill:none" points="2369.17,1610.49 2369.17,200.504 "></polyline>
<polyline clip-path="url(#clip832)" style="stroke:#000000; stroke-linecap:round; stroke-linejoin:round; stroke-width:2; stroke-opacity:0.1; fill:none" points="3007.57,1610.49 3007.57,200.504 "></polyline>
<polyline clip-path="url(#clip832)" style="stroke:#000000; stroke-linecap:round; stroke-linejoin:round; stroke-width:2; stroke-opacity:0.1; fill:none" points="403.673,1326.31 3083.41,1326.31 "></polyline>
<polyline clip-path="url(#clip832)" style="stroke:#000000; stroke-linecap:round; stroke-linejoin:round; stroke-width:2; stroke-opacity:0.1; fill:none" points="403.673,1037.12 3083.41,1037.12 "></polyline>
<polyline clip-path="url(#clip832)" style="stroke:#000000; stroke-linecap:round; stroke-linejoin:round; stroke-width:2; stroke-opacity:0.1; fill:none" points="403.673,747.925 3083.41,747.925 "></polyline>
<polyline clip-path="url(#clip832)" style="stroke:#000000; stroke-linecap:round; stroke-linejoin:round; stroke-width:2; stroke-opacity:0.1; fill:none" points="403.673,458.731 3083.41,458.731 "></polyline>
<polyline clip-path="url(#clip830)" style="stroke:#000000; stroke-linecap:round; stroke-linejoin:round; stroke-width:4; stroke-opacity:1; fill:none" points="403.673,1610.49 3083.41,1610.49 "></polyline>
<polyline clip-path="url(#clip830)" style="stroke:#000000; stroke-linecap:round; stroke-linejoin:round; stroke-width:4; stroke-opacity:1; fill:none" points="453.978,1610.49 453.978,1591.59 "></polyline>
<polyline clip-path="url(#clip830)" style="stroke:#000000; stroke-linecap:round; stroke-linejoin:round; stroke-width:4; stroke-opacity:1; fill:none" points="1092.38,1610.49 1092.38,1591.59 "></polyline>
<polyline clip-path="url(#clip830)" style="stroke:#000000; stroke-linecap:round; stroke-linejoin:round; stroke-width:4; stroke-opacity:1; fill:none" points="1730.77,1610.49 1730.77,1591.59 "></polyline>
<polyline clip-path="url(#clip830)" style="stroke:#000000; stroke-linecap:round; stroke-linejoin:round; stroke-width:4; stroke-opacity:1; fill:none" points="2369.17,1610.49 2369.17,1591.59 "></polyline>
<polyline clip-path="url(#clip830)" style="stroke:#000000; stroke-linecap:round; stroke-linejoin:round; stroke-width:4; stroke-opacity:1; fill:none" points="3007.57,1610.49 3007.57,1591.59 "></polyline>
<path clip-path="url(#clip830)" d="M453.978 1676.18 Q443.597 1676.18 438.339 1686.43 Q433.148 1696.61 433.148 1717.11 Q433.148 1737.54 438.339 1747.79 Q443.597 1757.97 453.978 1757.97 Q464.427 1757.97 469.618 1747.79 Q474.875 1737.54 474.875 1717.11 Q474.875 1696.61 469.618 1686.43 Q464.427 1676.18 453.978 1676.18 M453.978 1665.53 Q470.683 1665.53 479.467 1678.77 Q488.318 1691.95 488.318 1717.11 Q488.318 1742.2 479.467 1755.44 Q470.683 1768.62 453.978 1768.62 Q437.274 1768.62 428.423 1755.44 Q419.638 1742.2 419.638 1717.11 Q419.638 1691.95 428.423 1678.77 Q437.274 1665.53 453.978 1665.53 Z" fill="#000000" fill-rule="nonzero" fill-opacity="1"></path><path clip-path="url(#clip830)" d="M1032.78 1755.37 L1079.7 1755.37 L1079.7 1766.69 L1016.61 1766.69 L1016.61 1755.37 Q1024.26 1747.45 1037.44 1734.14 Q1050.68 1720.77 1054.08 1716.91 Q1060.53 1709.65 1063.06 1704.66 Q1065.66 1699.6 1065.66 1694.75 Q1065.66 1686.83 1060.07 1681.84 Q1054.54 1676.84 1045.62 1676.84 Q1039.3 1676.84 1032.25 1679.04 Q1025.26 1681.24 1017.27 1685.7 L1017.27 1672.12 Q1025.39 1668.86 1032.45 1667.19 Q1039.5 1665.53 1045.36 1665.53 Q1060.8 1665.53 1069.98 1673.25 Q1079.17 1680.97 1079.17 1693.88 Q1079.17 1700 1076.84 1705.53 Q1074.57 1710.98 1068.52 1718.44 Q1066.85 1720.37 1057.94 1729.62 Q1049.02 1738.8 1032.78 1755.37 Z" fill="#000000" fill-rule="nonzero" fill-opacity="1"></path><path clip-path="url(#clip830)" d="M1108.05 1667.33 L1160.82 1667.33 L1160.82 1678.64 L1120.36 1678.64 L1120.36 1703 Q1123.29 1702 1126.22 1701.53 Q1129.15 1701 1132.07 1701 Q1148.71 1701 1158.43 1710.12 Q1168.14 1719.24 1168.14 1734.81 Q1168.14 1750.85 1158.16 1759.77 Q1148.18 1768.62 1130.01 1768.62 Q1123.76 1768.62 1117.23 1767.55 Q1110.78 1766.49 1103.86 1764.36 L1103.86 1750.85 Q1109.85 1754.11 1116.23 1755.71 Q1122.62 1757.3 1129.74 1757.3 Q1141.26 1757.3 1147.98 1751.25 Q1154.7 1745.19 1154.7 1734.81 Q1154.7 1724.43 1147.98 1718.37 Q1141.26 1712.32 1129.74 1712.32 Q1124.35 1712.32 1118.96 1713.51 Q1113.64 1714.71 1108.05 1717.24 L1108.05 1667.33 Z" fill="#000000" fill-rule="nonzero" fill-opacity="1"></path><path clip-path="url(#clip830)" d="M1658.03 1667.33 L1710.81 1667.33 L1710.81 1678.64 L1670.35 1678.64 L1670.35 1703 Q1673.27 1702 1676.2 1701.53 Q1679.13 1701 1682.06 1701 Q1698.7 1701 1708.41 1710.12 Q1718.13 1719.24 1718.13 1734.81 Q1718.13 1750.85 1708.15 1759.77 Q1698.16 1768.62 1680 1768.62 Q1673.74 1768.62 1667.22 1767.55 Q1660.76 1766.49 1653.84 1764.36 L1653.84 1750.85 Q1659.83 1754.11 1666.22 1755.71 Q1672.61 1757.3 1679.73 1757.3 Q1691.24 1757.3 1697.97 1751.25 Q1704.69 1745.19 1704.69 1734.81 Q1704.69 1724.43 1697.97 1718.37 Q1691.24 1712.32 1679.73 1712.32 Q1674.34 1712.32 1668.95 1713.51 Q1663.63 1714.71 1658.03 1717.24 L1658.03 1667.33 Z" fill="#000000" fill-rule="nonzero" fill-opacity="1"></path><path clip-path="url(#clip830)" d="M1773.37 1676.18 Q1762.99 1676.18 1757.73 1686.43 Q1752.54 1696.61 1752.54 1717.11 Q1752.54 1737.54 1757.73 1747.79 Q1762.99 1757.97 1773.37 1757.97 Q1783.82 1757.97 1789.01 1747.79 Q1794.26 1737.54 1794.26 1717.11 Q1794.26 1696.61 1789.01 1686.43 Q1783.82 1676.18 1773.37 1676.18 M1773.37 1665.53 Q1790.07 1665.53 1798.86 1678.77 Q1807.71 1691.95 1807.71 1717.11 Q1807.71 1742.2 1798.86 1755.44 Q1790.07 1768.62 1773.37 1768.62 Q1756.66 1768.62 1747.81 1755.44 Q1739.03 1742.2 1739.03 1717.11 Q1739.03 1691.95 1747.81 1678.77 Q1756.66 1665.53 1773.37 1665.53 Z" fill="#000000" fill-rule="nonzero" fill-opacity="1"></path><path clip-path="url(#clip830)" d="M2294 1667.33 L2357.89 1667.33 L2357.89 1673.05 L2321.82 1766.69 L2307.78 1766.69 L2341.72 1678.64 L2294 1678.64 L2294 1667.33 Z" fill="#000000" fill-rule="nonzero" fill-opacity="1"></path><path clip-path="url(#clip830)" d="M2384.25 1667.33 L2437.02 1667.33 L2437.02 1678.64 L2396.56 1678.64 L2396.56 1703 Q2399.49 1702 2402.41 1701.53 Q2405.34 1701 2408.27 1701 Q2424.91 1701 2434.63 1710.12 Q2444.34 1719.24 2444.34 1734.81 Q2444.34 1750.85 2434.36 1759.77 Q2424.38 1768.62 2406.21 1768.62 Q2399.95 1768.62 2393.43 1767.55 Q2386.98 1766.49 2380.05 1764.36 L2380.05 1750.85 Q2386.04 1754.11 2392.43 1755.71 Q2398.82 1757.3 2405.94 1757.3 Q2417.46 1757.3 2424.18 1751.25 Q2430.9 1745.19 2430.9 1734.81 Q2430.9 1724.43 2424.18 1718.37 Q2417.46 1712.32 2405.94 1712.32 Q2400.55 1712.32 2395.16 1713.51 Q2389.84 1714.71 2384.25 1717.24 L2384.25 1667.33 Z" fill="#000000" fill-rule="nonzero" fill-opacity="1"></path><path clip-path="url(#clip830)" d="M2891.44 1755.37 L2913.4 1755.37 L2913.4 1679.57 L2889.51 1684.36 L2889.51 1672.12 L2913.27 1667.33 L2926.71 1667.33 L2926.71 1755.37 L2948.67 1755.37 L2948.67 1766.69 L2891.44 1766.69 L2891.44 1755.37 Z" fill="#000000" fill-rule="nonzero" fill-opacity="1"></path><path clip-path="url(#clip830)" d="M3004.58 1676.18 Q2994.19 1676.18 2988.94 1686.43 Q2983.75 1696.61 2983.75 1717.11 Q2983.75 1737.54 2988.94 1747.79 Q2994.19 1757.97 3004.58 1757.97 Q3015.02 1757.97 3020.22 1747.79 Q3025.47 1737.54 3025.47 1717.11 Q3025.47 1696.61 3020.22 1686.43 Q3015.02 1676.18 3004.58 1676.18 M3004.58 1665.53 Q3021.28 1665.53 3030.07 1678.77 Q3038.92 1691.95 3038.92 1717.11 Q3038.92 1742.2 3030.07 1755.44 Q3021.28 1768.62 3004.58 1768.62 Q2987.87 1768.62 2979.02 1755.44 Q2970.24 1742.2 2970.24 1717.11 Q2970.24 1691.95 2979.02 1678.77 Q2987.87 1665.53 3004.58 1665.53 Z" fill="#000000" fill-rule="nonzero" fill-opacity="1"></path><path clip-path="url(#clip830)" d="M3091.29 1676.18 Q3080.91 1676.18 3075.65 1686.43 Q3070.46 1696.61 3070.46 1717.11 Q3070.46 1737.54 3075.65 1747.79 Q3080.91 1757.97 3091.29 1757.97 Q3101.74 1757.97 3106.93 1747.79 Q3112.19 1737.54 3112.19 1717.11 Q3112.19 1696.61 3106.93 1686.43 Q3101.74 1676.18 3091.29 1676.18 M3091.29 1665.53 Q3108 1665.53 3116.78 1678.77 Q3125.63 1691.95 3125.63 1717.11 Q3125.63 1742.2 3116.78 1755.44 Q3108 1768.62 3091.29 1768.62 Q3074.59 1768.62 3065.74 1755.44 Q3056.95 1742.2 3056.95 1717.11 Q3056.95 1691.95 3065.74 1678.77 Q3074.59 1665.53 3091.29 1665.53 Z" fill="#000000" fill-rule="nonzero" fill-opacity="1"></path><path clip-path="url(#clip830)" d="M1616.33 1843.06 L1616.33 1864.22 L1641.55 1864.22 L1641.55 1873.74 L1616.33 1873.74 L1616.33 1914.2 Q1616.33 1923.32 1618.79 1925.92 Q1621.32 1928.51 1628.98 1928.51 L1641.55 1928.51 L1641.55 1938.76 L1628.98 1938.76 Q1614.8 1938.76 1609.41 1933.5 Q1604.02 1928.18 1604.02 1914.2 L1604.02 1873.74 L1595.04 1873.74 L1595.04 1864.22 L1604.02 1864.22 L1604.02 1843.06 L1616.33 1843.06 Z" fill="#000000" fill-rule="nonzero" fill-opacity="1"></path><path clip-path="url(#clip830)" d="M1657.66 1864.22 L1669.9 1864.22 L1669.9 1938.76 L1657.66 1938.76 L1657.66 1864.22 M1657.66 1835.21 L1669.9 1835.21 L1669.9 1850.71 L1657.66 1850.71 L1657.66 1835.21 Z" fill="#000000" fill-rule="nonzero" fill-opacity="1"></path><path clip-path="url(#clip830)" d="M1753.56 1878.53 Q1758.15 1870.28 1764.54 1866.35 Q1770.93 1862.43 1779.58 1862.43 Q1791.23 1862.43 1797.55 1870.61 Q1803.87 1878.73 1803.87 1893.77 L1803.87 1938.76 L1791.56 1938.76 L1791.56 1894.17 Q1791.56 1883.46 1787.77 1878.27 Q1783.97 1873.07 1776.19 1873.07 Q1766.67 1873.07 1761.15 1879.4 Q1755.62 1885.72 1755.62 1896.63 L1755.62 1938.76 L1743.31 1938.76 L1743.31 1894.17 Q1743.31 1883.39 1739.52 1878.27 Q1735.72 1873.07 1727.8 1873.07 Q1718.42 1873.07 1712.9 1879.46 Q1707.37 1885.79 1707.37 1896.63 L1707.37 1938.76 L1695.06 1938.76 L1695.06 1864.22 L1707.37 1864.22 L1707.37 1875.8 Q1711.57 1868.95 1717.42 1865.69 Q1723.28 1862.43 1731.33 1862.43 Q1739.45 1862.43 1745.11 1866.55 Q1750.83 1870.68 1753.56 1878.53 Z" fill="#000000" fill-rule="nonzero" fill-opacity="1"></path><path clip-path="url(#clip830)" d="M1892.05 1898.43 L1892.05 1904.42 L1835.75 1904.42 Q1836.55 1917.06 1843.34 1923.72 Q1850.19 1930.31 1862.37 1930.31 Q1869.42 1930.31 1876.01 1928.58 Q1882.67 1926.85 1889.19 1923.39 L1889.19 1934.97 Q1882.6 1937.76 1875.68 1939.23 Q1868.76 1940.69 1861.64 1940.69 Q1843.8 1940.69 1833.35 1930.31 Q1822.97 1919.93 1822.97 1902.22 Q1822.97 1883.92 1832.82 1873.21 Q1842.74 1862.43 1859.51 1862.43 Q1874.55 1862.43 1883.27 1872.14 Q1892.05 1881.79 1892.05 1898.43 M1879.8 1894.84 Q1879.67 1884.79 1874.15 1878.8 Q1868.69 1872.81 1859.64 1872.81 Q1849.39 1872.81 1843.2 1878.6 Q1837.08 1884.39 1836.15 1894.9 L1879.8 1894.84 Z" fill="#000000" fill-rule="nonzero" fill-opacity="1"></path><polyline clip-path="url(#clip830)" style="stroke:#000000; stroke-linecap:round; stroke-linejoin:round; stroke-width:4; stroke-opacity:1; fill:none" points="403.673,1610.49 403.673,200.504 "></polyline>
<polyline clip-path="url(#clip830)" style="stroke:#000000; stroke-linecap:round; stroke-linejoin:round; stroke-width:4; stroke-opacity:1; fill:none" points="403.673,1326.31 417.941,1326.31 "></polyline>
<polyline clip-path="url(#clip830)" style="stroke:#000000; stroke-linecap:round; stroke-linejoin:round; stroke-width:4; stroke-opacity:1; fill:none" points="403.673,1037.12 417.941,1037.12 "></polyline>
<polyline clip-path="url(#clip830)" style="stroke:#000000; stroke-linecap:round; stroke-linejoin:round; stroke-width:4; stroke-opacity:1; fill:none" points="403.673,747.925 417.941,747.925 "></polyline>
<polyline clip-path="url(#clip830)" style="stroke:#000000; stroke-linecap:round; stroke-linejoin:round; stroke-width:4; stroke-opacity:1; fill:none" points="403.673,458.731 417.941,458.731 "></polyline>
<path clip-path="url(#clip830)" d="M309.333 1285.48 Q298.951 1285.48 293.693 1295.73 Q288.502 1305.92 288.502 1326.41 Q288.502 1346.84 293.693 1357.09 Q298.951 1367.28 309.333 1367.28 Q319.781 1367.28 324.972 1357.09 Q330.229 1346.84 330.229 1326.41 Q330.229 1305.92 324.972 1295.73 Q319.781 1285.48 309.333 1285.48 M309.333 1274.84 Q326.037 1274.84 334.821 1288.08 Q343.673 1301.26 343.673 1326.41 Q343.673 1351.5 334.821 1364.75 Q326.037 1377.92 309.333 1377.92 Q292.628 1377.92 283.777 1364.75 Q274.992 1351.5 274.992 1326.41 Q274.992 1301.26 283.777 1288.08 Q292.628 1274.84 309.333 1274.84 Z" fill="#000000" fill-rule="nonzero" fill-opacity="1"></path><path clip-path="url(#clip830)" d="M286.439 1075.49 L308.401 1075.49 L308.401 999.685 L284.509 1004.48 L284.509 992.231 L308.268 987.439 L321.711 987.439 L321.711 1075.49 L343.673 1075.49 L343.673 1086.8 L286.439 1086.8 L286.439 1075.49 Z" fill="#000000" fill-rule="nonzero" fill-opacity="1"></path><path clip-path="url(#clip830)" d="M296.754 786.292 L343.673 786.292 L343.673 797.605 L280.583 797.605 L280.583 786.292 Q288.236 778.372 301.413 765.062 Q314.657 751.686 318.051 747.826 Q324.506 740.572 327.035 735.58 Q329.63 730.522 329.63 725.664 Q329.63 717.745 324.04 712.753 Q318.517 707.762 309.599 707.762 Q303.276 707.762 296.222 709.958 Q289.234 712.155 281.248 716.613 L281.248 703.037 Q289.367 699.776 296.422 698.112 Q303.476 696.449 309.333 696.449 Q324.772 696.449 333.956 704.168 Q343.14 711.888 343.14 724.799 Q343.14 730.922 340.811 736.445 Q338.548 741.903 332.492 749.356 Q330.828 751.286 321.911 760.537 Q312.993 769.721 296.754 786.292 Z" fill="#000000" fill-rule="nonzero" fill-opacity="1"></path><path clip-path="url(#clip830)" d="M323.175 454.838 Q332.825 456.901 338.215 463.423 Q343.673 469.945 343.673 479.528 Q343.673 494.236 333.557 502.289 Q323.441 510.341 304.807 510.341 Q298.551 510.341 291.896 509.077 Q285.308 507.879 278.253 505.417 L278.253 492.439 Q283.844 495.7 290.499 497.364 Q297.154 499.028 304.408 499.028 Q317.052 499.028 323.641 494.036 Q330.296 489.045 330.296 479.528 Q330.296 470.744 324.107 465.819 Q317.984 460.828 307.003 460.828 L295.423 460.828 L295.423 449.78 L307.536 449.78 Q317.452 449.78 322.709 445.854 Q327.967 441.861 327.967 434.407 Q327.967 426.754 322.51 422.694 Q317.119 418.568 307.003 418.568 Q301.48 418.568 295.157 419.766 Q288.835 420.964 281.248 423.493 L281.248 411.514 Q288.902 409.384 295.557 408.319 Q302.278 407.255 308.201 407.255 Q323.508 407.255 332.426 414.242 Q341.343 421.164 341.343 433.01 Q341.343 441.262 336.618 446.985 Q331.893 452.642 323.175 454.838 Z" fill="#000000" fill-rule="nonzero" fill-opacity="1"></path><path clip-path="url(#clip830)" d="M110.648 870.757 L146.918 897.709 L185.184 869.359 L185.184 883.8 L155.902 905.496 L185.184 927.191 L185.184 941.633 L146.186 912.683 L110.648 939.17 L110.648 924.729 L137.201 904.964 L110.648 885.198 L110.648 870.757 Z" fill="#000000" fill-rule="nonzero" fill-opacity="1"></path><path clip-path="url(#clip830)" d="M1540.26 19.872 L1593.04 19.872 L1593.04 31.1856 L1552.58 31.1856 L1552.58 55.5431 Q1555.5 54.5448 1558.43 54.079 Q1561.36 53.5466 1564.29 53.5466 Q1580.93 53.5466 1590.64 62.664 Q1600.36 71.7814 1600.36 87.3543 Q1600.36 103.393 1590.38 112.311 Q1580.39 121.162 1562.23 121.162 Q1555.97 121.162 1549.45 120.097 Q1542.99 119.032 1536.07 116.903 L1536.07 103.393 Q1542.06 106.654 1548.45 108.251 Q1554.84 109.848 1561.96 109.848 Q1573.47 109.848 1580.19 103.792 Q1586.92 97.7362 1586.92 87.3543 Q1586.92 76.9724 1580.19 70.9163 Q1573.47 64.8602 1561.96 64.8602 Q1556.57 64.8602 1551.18 66.0581 Q1545.85 67.256 1540.26 69.7849 L1540.26 19.872 Z" fill="#000000" fill-rule="nonzero" fill-opacity="1"></path><path clip-path="url(#clip830)" d="M1655.6 28.7232 Q1645.21 28.7232 1639.96 38.972 Q1634.77 49.1543 1634.77 69.6518 Q1634.77 90.0829 1639.96 100.332 Q1645.21 110.514 1655.6 110.514 Q1666.04 110.514 1671.24 100.332 Q1676.49 90.0829 1676.49 69.6518 Q1676.49 49.1543 1671.24 38.972 Q1666.04 28.7232 1655.6 28.7232 M1655.6 18.0751 Q1672.3 18.0751 1681.08 31.3187 Q1689.94 44.4957 1689.94 69.6518 Q1689.94 94.7414 1681.08 107.985 Q1672.3 121.162 1655.6 121.162 Q1638.89 121.162 1630.04 107.985 Q1621.26 94.7414 1621.26 69.6518 Q1621.26 44.4957 1630.04 31.3187 Q1638.89 18.0751 1655.6 18.0751 Z" fill="#000000" fill-rule="nonzero" fill-opacity="1"></path><path clip-path="url(#clip830)" d="M1713.56 102.328 L1727.6 102.328 L1727.6 119.232 L1713.56 119.232 L1713.56 102.328 Z" fill="#000000" fill-rule="nonzero" fill-opacity="1"></path><path clip-path="url(#clip830)" d="M1785.64 28.7232 Q1775.25 28.7232 1770 38.972 Q1764.81 49.1543 1764.81 69.6518 Q1764.81 90.0829 1770 100.332 Q1775.25 110.514 1785.64 110.514 Q1796.08 110.514 1801.28 100.332 Q1806.53 90.0829 1806.53 69.6518 Q1806.53 49.1543 1801.28 38.972 Q1796.08 28.7232 1785.64 28.7232 M1785.64 18.0751 Q1802.34 18.0751 1811.12 31.3187 Q1819.98 44.4957 1819.98 69.6518 Q1819.98 94.7414 1811.12 107.985 Q1802.34 121.162 1785.64 121.162 Q1768.93 121.162 1760.08 107.985 Q1751.3 94.7414 1751.3 69.6518 Q1751.3 44.4957 1760.08 31.3187 Q1768.93 18.0751 1785.64 18.0751 Z" fill="#000000" fill-rule="nonzero" fill-opacity="1"></path><path clip-path="url(#clip830)" d="M1928.12 75.5083 Q1922.33 75.5083 1919 80.433 Q1915.74 85.3578 1915.74 94.1424 Q1915.74 102.794 1919 107.785 Q1922.33 112.71 1928.12 112.71 Q1933.78 112.71 1937.04 107.785 Q1940.37 102.794 1940.37 94.1424 Q1940.37 85.4243 1937.04 80.4996 Q1933.78 75.5083 1928.12 75.5083 M1928.12 67.0564 Q1938.64 67.0564 1944.82 74.3769 Q1951.01 81.6975 1951.01 94.1424 Q1951.01 106.587 1944.76 113.908 Q1938.57 121.162 1928.12 121.162 Q1917.47 121.162 1911.28 113.908 Q1905.09 106.587 1905.09 94.1424 Q1905.09 81.6309 1911.28 74.3769 Q1917.54 67.0564 1928.12 67.0564 M1859.44 26.5271 Q1853.72 26.5271 1850.39 31.5183 Q1847.13 36.4431 1847.13 45.0947 Q1847.13 53.8793 1850.39 58.8041 Q1853.65 63.7288 1859.44 63.7288 Q1865.23 63.7288 1868.49 58.8041 Q1871.82 53.8793 1871.82 45.0947 Q1871.82 36.5096 1868.49 31.5183 Q1865.16 26.5271 1859.44 26.5271 M1919.54 18.0751 L1930.18 18.0751 L1868.03 121.162 L1857.38 121.162 L1919.54 18.0751 M1859.44 18.0751 Q1869.96 18.0751 1876.21 25.3957 Q1882.47 32.6497 1882.47 45.0947 Q1882.47 57.6727 1876.21 64.9267 Q1870.02 72.1807 1859.44 72.1807 Q1848.86 72.1807 1842.67 64.9267 Q1836.55 57.6062 1836.55 45.0947 Q1836.55 32.7163 1842.74 25.3957 Q1848.93 18.0751 1859.44 18.0751 Z" fill="#000000" fill-rule="nonzero" fill-opacity="1"></path><polyline clip-path="url(#clip832)" style="stroke:#000000; stroke-linecap:round; stroke-linejoin:round; stroke-width:8; stroke-opacity:1; fill:none" stroke-dasharray="4, 8" points="479.514,1410.17 505.05,1212.43 530.586,1154.97 556.122,1081.95 "></polyline>
<polyline clip-path="url(#clip832)" style="stroke:#000000; stroke-linecap:round; stroke-linejoin:round; stroke-width:8; stroke-opacity:1; fill:none" stroke-dasharray="4, 8" points="990.233,1150.64 1015.77,1134.65 1041.3,923.229 1066.84,921.756 1092.38,924.255 1117.91,787.4 1143.45,870.031 1168.98,799.507 1194.52,831.551 1220.06,956.769 1245.59,958.588 1271.13,1157.86 1296.66,1229.66 1322.2,1278.52 1347.74,1217.13 1373.27,1337.86 1398.81,1264.85 1424.34,1155.86 1449.88,1154.63 "></polyline>
<polyline clip-path="url(#clip832)" style="stroke:#000000; stroke-linecap:round; stroke-linejoin:round; stroke-width:8; stroke-opacity:1; fill:none" stroke-dasharray="4, 8" points="2011.67,753.924 2037.21,722.63 2062.74,711.716 2088.28,470.658 2113.81,575.292 2139.35,510.221 2164.89,500.751 2190.42,461.275 2215.96,553.761 2241.49,620.339 2267.03,685.897 2292.57,849.75 2318.1,868.853 2343.64,909.951 2369.17,977.036 2394.71,917.284 2420.24,803.336 2445.78,968.78 2471.32,758.929 2496.85,703.457 2522.39,666.354 2547.92,633.38 2573.46,405.685 2599,302.898 "></polyline>
<polyline clip-path="url(#clip832)" style="stroke:#000000; stroke-linecap:round; stroke-linejoin:round; stroke-width:8; stroke-opacity:1; fill:none" stroke-dasharray="4, 8" points="2905.43,744.454 2930.96,691.904 2956.5,763.473 2982.04,574.751 3007.57,547.18 "></polyline>
<polyline clip-path="url(#clip832)" style="stroke:#000000; stroke-linecap:round; stroke-linejoin:round; stroke-width:8; stroke-opacity:0.3; fill:none" points="581.658,1015.82 607.194,1064.52 632.73,946.661 658.266,1042.55 683.802,1065.75 709.338,1180.34 734.874,1280.24 760.41,1327.2 785.945,1382.7 811.481,1526.54 837.017,1570.58 862.553,1515.74 888.089,1494.87 913.625,1395.72 939.161,1396.45 964.697,1324.9 "></polyline>
<polyline clip-path="url(#clip832)" style="stroke:#000000; stroke-linecap:round; stroke-linejoin:round; stroke-width:8; stroke-opacity:0.3; fill:none" points="1475.42,1038.49 1500.95,983.287 1526.49,845.994 1552.02,775.924 1577.56,648.562 1603.1,676.093 1628.63,625.847 1654.17,675.198 1679.7,688.376 1705.24,701.572 1730.77,776.02 1756.31,878.011 1781.85,891.581 1807.38,993.49 1832.92,1001.81 1858.45,1258.88 1883.99,1106.64 1909.53,1066.54 1935.06,1102.9 1960.6,1017.38 1986.13,878.704 "></polyline>
<polyline clip-path="url(#clip832)" style="stroke:#000000; stroke-linecap:round; stroke-linejoin:round; stroke-width:8; stroke-opacity:0.3; fill:none" points="2624.53,344.165 2650.07,240.409 2675.6,291.696 2701.14,436.723 2726.68,474.001 2752.21,297.257 2777.75,630.852 2803.28,614.821 2828.82,640.364 2854.36,724.59 2879.89,763.172 "></polyline>
<path clip-path="url(#clip832)" d="M581.658 1067.74 L607.194 1059.71 L632.73 1045.27 L658.266 1058.24 L683.802 1095.69 L709.338 1185.26 L734.874 1254.46 L760.41 1346.58 L785.945 1404.55 L811.481 1474.15 L837.017 1502.93 L862.553 1546.18 L888.089 1475.8 L913.625 1511.12 L939.161 1405.51 L964.697 1330.86 L964.697 1215.73 L939.161 1286.86 L913.625 1397.43 L888.089 1367.88 L862.553 1447.74 L837.017 1402.95 L811.481 1369.18 L785.945 1278.38 L760.41 1229.96 L734.874 1138.87 L709.338 1055.7 L683.802 968.295 L658.266 934.1 L632.73 924.439 L607.194 938.162 L581.658 945.457  Z" fill="#ff0000" fill-rule="evenodd" fill-opacity="0.15"></path>
<polyline clip-path="url(#clip832)" style="stroke:#ff0000; stroke-linecap:round; stroke-linejoin:round; stroke-width:8; stroke-opacity:0.8; fill:none" points="581.658,1006.6 607.194,998.934 632.73,984.855 658.266,996.171 683.802,1031.99 709.338,1120.48 734.874,1196.66 760.41,1288.27 785.945,1341.47 811.481,1421.66 837.017,1452.94 862.553,1496.96 888.089,1421.84 913.625,1454.28 939.161,1346.19 964.697,1273.3 "></polyline>
<path clip-path="url(#clip832)" d="M1475.42 1163.12 L1500.95 1060.33 L1526.49 992.748 L1552.02 894.402 L1577.56 807.351 L1603.1 723.59 L1628.63 740.699 L1654.17 720.782 L1679.7 772.065 L1705.24 813.856 L1730.77 896.192 L1756.31 945.647 L1781.85 1059.79 L1807.38 1085.05 L1832.92 1156.78 L1858.45 1184.9 L1883.99 1202.81 L1909.53 1185.5 L1935.06 1132.33 L1960.6 1056.72 L1986.13 975.074 L1986.13 846.894 L1960.6 935.624 L1935.06 1003.66 L1909.53 1059.91 L1883.99 1079.49 L1858.45 1059.62 L1832.92 1029.11 L1807.38 955.95 L1781.85 937.186 L1756.31 806.639 L1730.77 760.213 L1705.24 684.115 L1679.7 646.244 L1654.17 586.854 L1628.63 613.809 L1603.1 594.561 L1577.56 683.669 L1552.02 762.004 L1526.49 865.755 L1500.95 936.647 L1475.42 1034.35  Z" fill="#ff0000" fill-rule="evenodd" fill-opacity="0.15"></path>
<polyline clip-path="url(#clip832)" style="stroke:#ff0000; stroke-linecap:round; stroke-linejoin:round; stroke-width:8; stroke-opacity:0.8; fill:none" points="1475.42,1098.73 1500.95,998.488 1526.49,929.251 1552.02,828.203 1577.56,745.51 1603.1,659.076 1628.63,677.254 1654.17,653.818 1679.7,709.154 1705.24,748.986 1730.77,828.203 1756.31,876.143 1781.85,998.488 1807.38,1020.5 1832.92,1092.94 1858.45,1122.26 1883.99,1141.15 1909.53,1122.7 1935.06,1067.99 1960.6,996.171 1986.13,910.984 "></polyline>
<path clip-path="url(#clip832)" d="M2624.53 368.405 L2650.07 368.7 L2675.6 352.277 L2701.14 426.784 L2726.68 474.265 L2752.21 547.243 L2777.75 601.601 L2803.28 675.65 L2828.82 788.461 L2854.36 811.248 L2879.89 834.673 L2879.89 712.129 L2854.36 691 L2828.82 666.917 L2803.28 546.443 L2777.75 481.84 L2752.21 433.011 L2726.68 355.395 L2701.14 316.086 L2675.6 253.01 L2650.07 271.874 L2624.53 266.822  Z" fill="#ff0000" fill-rule="evenodd" fill-opacity="0.15"></path>
<polyline clip-path="url(#clip832)" style="stroke:#ff0000; stroke-linecap:round; stroke-linejoin:round; stroke-width:8; stroke-opacity:0.8; fill:none" points="2624.53,317.614 2650.07,320.287 2675.6,302.643 2701.14,371.435 2726.68,414.83 2752.21,490.127 2777.75,541.72 2803.28,611.046 2828.82,727.689 2854.36,751.124 2879.89,773.401 "></polyline>
<path clip-path="url(#clip830)" d="M3201.72 454.864 L3952.76 454.864 L3952.76 247.504 L3201.72 247.504  Z" fill="#ffffff" fill-rule="evenodd" fill-opacity="1"></path>
<polyline clip-path="url(#clip830)" style="stroke:#000000; stroke-linecap:round; stroke-linejoin:round; stroke-width:4; stroke-opacity:1; fill:none" points="3201.72,454.864 3952.76,454.864 3952.76,247.504 3201.72,247.504 3201.72,454.864 "></polyline>
<polyline clip-path="url(#clip830)" style="stroke:#000000; stroke-linecap:round; stroke-linejoin:round; stroke-width:8; stroke-opacity:1; fill:none" stroke-dasharray="4, 8" points="3241.15,299.344 3477.76,299.344 "></polyline>
<path clip-path="url(#clip830)" d="M3533.21 285.235 Q3528.12 285.235 3525.11 289.031 Q3522.12 292.828 3522.12 299.378 Q3522.12 305.906 3525.11 309.702 Q3528.12 313.499 3533.21 313.499 Q3538.3 313.499 3541.26 309.702 Q3544.25 305.906 3544.25 299.378 Q3544.25 292.828 3541.26 289.031 Q3538.3 285.235 3533.21 285.235 M3533.21 281.439 Q3540.48 281.439 3544.83 286.323 Q3549.18 291.184 3549.18 299.378 Q3549.18 307.55 3544.83 312.434 Q3540.48 317.295 3533.21 317.295 Q3525.92 317.295 3521.54 312.434 Q3517.19 307.573 3517.19 299.378 Q3517.19 291.184 3521.54 286.323 Q3525.92 281.439 3533.21 281.439 Z" fill="#000000" fill-rule="nonzero" fill-opacity="1"></path><path clip-path="url(#clip830)" d="M3574.92 303.684 Q3574.92 298.985 3572.98 296.323 Q3571.05 293.638 3567.68 293.638 Q3564.3 293.638 3562.35 296.323 Q3560.43 298.985 3560.43 303.684 Q3560.43 308.383 3562.35 311.068 Q3564.3 313.73 3567.68 313.73 Q3571.05 313.73 3572.98 311.068 Q3574.92 308.383 3574.92 303.684 M3560.43 294.633 Q3561.77 292.318 3563.81 291.207 Q3565.87 290.073 3568.72 290.073 Q3573.44 290.073 3576.38 293.823 Q3579.34 297.573 3579.34 303.684 Q3579.34 309.795 3576.38 313.545 Q3573.44 317.295 3568.72 317.295 Q3565.87 317.295 3563.81 316.184 Q3561.77 315.05 3560.43 312.735 L3560.43 316.624 L3556.15 316.624 L3556.15 280.605 L3560.43 280.605 L3560.43 294.633 Z" fill="#000000" fill-rule="nonzero" fill-opacity="1"></path><path clip-path="url(#clip830)" d="M3602.93 291.462 L3602.93 295.49 Q3601.12 294.564 3599.18 294.101 Q3597.24 293.638 3595.15 293.638 Q3591.98 293.638 3590.38 294.61 Q3588.81 295.582 3588.81 297.527 Q3588.81 299.008 3589.94 299.865 Q3591.08 300.698 3594.5 301.462 L3595.96 301.786 Q3600.5 302.758 3602.4 304.54 Q3604.32 306.3 3604.32 309.471 Q3604.32 313.082 3601.45 315.189 Q3598.6 317.295 3593.6 317.295 Q3591.52 317.295 3589.25 316.878 Q3587 316.485 3584.5 315.675 L3584.5 311.277 Q3586.87 312.503 3589.16 313.128 Q3591.45 313.73 3593.69 313.73 Q3596.7 313.73 3598.32 312.712 Q3599.94 311.67 3599.94 309.795 Q3599.94 308.059 3598.76 307.133 Q3597.61 306.207 3593.65 305.351 L3592.17 305.003 Q3588.21 304.17 3586.45 302.457 Q3584.69 300.721 3584.69 297.712 Q3584.69 294.054 3587.28 292.064 Q3589.87 290.073 3594.64 290.073 Q3597 290.073 3599.09 290.42 Q3601.17 290.767 3602.93 291.462 Z" fill="#000000" fill-rule="nonzero" fill-opacity="1"></path><path clip-path="url(#clip830)" d="M3633.28 302.596 L3633.28 304.679 L3613.69 304.679 Q3613.97 309.077 3616.33 311.392 Q3618.72 313.684 3622.95 313.684 Q3625.41 313.684 3627.7 313.082 Q3630.01 312.48 3632.28 311.277 L3632.28 315.304 Q3629.99 316.276 3627.58 316.786 Q3625.18 317.295 3622.7 317.295 Q3616.49 317.295 3612.86 313.684 Q3609.25 310.073 3609.25 303.915 Q3609.25 297.55 3612.68 293.823 Q3616.12 290.073 3621.96 290.073 Q3627.19 290.073 3630.22 293.453 Q3633.28 296.809 3633.28 302.596 M3629.02 301.346 Q3628.97 297.851 3627.05 295.767 Q3625.15 293.684 3622 293.684 Q3618.44 293.684 3616.29 295.698 Q3614.16 297.712 3613.83 301.369 L3629.02 301.346 Z" fill="#000000" fill-rule="nonzero" fill-opacity="1"></path><path clip-path="url(#clip830)" d="M3655.29 294.679 Q3654.57 294.263 3653.72 294.078 Q3652.88 293.869 3651.86 293.869 Q3648.25 293.869 3646.31 296.23 Q3644.39 298.568 3644.39 302.966 L3644.39 316.624 L3640.11 316.624 L3640.11 290.698 L3644.39 290.698 L3644.39 294.726 Q3645.73 292.365 3647.88 291.23 Q3650.04 290.073 3653.11 290.073 Q3653.55 290.073 3654.09 290.142 Q3654.62 290.189 3655.27 290.304 L3655.29 294.679 Z" fill="#000000" fill-rule="nonzero" fill-opacity="1"></path><path clip-path="url(#clip830)" d="M3656.7 290.698 L3661.22 290.698 L3669.32 312.457 L3677.42 290.698 L3681.93 290.698 L3672.21 316.624 L3666.42 316.624 L3656.7 290.698 Z" fill="#000000" fill-rule="nonzero" fill-opacity="1"></path><path clip-path="url(#clip830)" d="M3709.99 302.596 L3709.99 304.679 L3690.41 304.679 Q3690.68 309.077 3693.05 311.392 Q3695.43 313.684 3699.67 313.684 Q3702.12 313.684 3704.41 313.082 Q3706.73 312.48 3708.99 311.277 L3708.99 315.304 Q3706.7 316.276 3704.29 316.786 Q3701.89 317.295 3699.41 317.295 Q3693.21 317.295 3689.57 313.684 Q3685.96 310.073 3685.96 303.915 Q3685.96 297.55 3689.39 293.823 Q3692.84 290.073 3698.67 290.073 Q3703.9 290.073 3706.93 293.453 Q3709.99 296.809 3709.99 302.596 M3705.73 301.346 Q3705.68 297.851 3703.76 295.767 Q3701.86 293.684 3698.72 293.684 Q3695.15 293.684 3693 295.698 Q3690.87 297.712 3690.55 301.369 L3705.73 301.346 Z" fill="#000000" fill-rule="nonzero" fill-opacity="1"></path><path clip-path="url(#clip830)" d="M3734.04 294.633 L3734.04 280.605 L3738.3 280.605 L3738.3 316.624 L3734.04 316.624 L3734.04 312.735 Q3732.7 315.05 3730.64 316.184 Q3728.6 317.295 3725.73 317.295 Q3721.03 317.295 3718.07 313.545 Q3715.13 309.795 3715.13 303.684 Q3715.13 297.573 3718.07 293.823 Q3721.03 290.073 3725.73 290.073 Q3728.6 290.073 3730.64 291.207 Q3732.7 292.318 3734.04 294.633 M3719.53 303.684 Q3719.53 308.383 3721.45 311.068 Q3723.39 313.73 3726.77 313.73 Q3730.15 313.73 3732.1 311.068 Q3734.04 308.383 3734.04 303.684 Q3734.04 298.985 3732.1 296.323 Q3730.15 293.638 3726.77 293.638 Q3723.39 293.638 3721.45 296.323 Q3719.53 298.985 3719.53 303.684 Z" fill="#000000" fill-rule="nonzero" fill-opacity="1"></path><polyline clip-path="url(#clip830)" style="stroke:#000000; stroke-linecap:round; stroke-linejoin:round; stroke-width:8; stroke-opacity:0.3; fill:none" points="3241.15,351.184 3477.76,351.184 "></polyline>
<path clip-path="url(#clip830)" d="M3542.74 363.533 L3542.74 354.251 L3535.11 354.251 L3535.11 350.408 L3547.37 350.408 L3547.37 365.246 Q3544.67 367.167 3541.4 368.163 Q3538.14 369.135 3534.43 369.135 Q3526.33 369.135 3521.75 364.413 Q3517.19 359.667 3517.19 351.218 Q3517.19 342.746 3521.75 338.024 Q3526.33 333.279 3534.43 333.279 Q3537.81 333.279 3540.85 334.112 Q3543.9 334.945 3546.47 336.566 L3546.47 341.543 Q3543.88 339.343 3540.96 338.232 Q3538.05 337.121 3534.83 337.121 Q3528.49 337.121 3525.29 340.663 Q3522.12 344.205 3522.12 351.218 Q3522.12 358.209 3525.29 361.751 Q3528.49 365.292 3534.83 365.292 Q3537.31 365.292 3539.25 364.876 Q3541.19 364.436 3542.74 363.533 Z" fill="#000000" fill-rule="nonzero" fill-opacity="1"></path><path clip-path="url(#clip830)" d="M3570.75 346.519 Q3570.04 346.103 3569.18 345.918 Q3568.35 345.709 3567.33 345.709 Q3563.72 345.709 3561.77 348.07 Q3559.85 350.408 3559.85 354.806 L3559.85 368.464 L3555.57 368.464 L3555.57 342.538 L3559.85 342.538 L3559.85 346.566 Q3561.19 344.205 3563.35 343.07 Q3565.5 341.913 3568.58 341.913 Q3569.02 341.913 3569.55 341.982 Q3570.08 342.029 3570.73 342.144 L3570.75 346.519 Z" fill="#000000" fill-rule="nonzero" fill-opacity="1"></path><path clip-path="url(#clip830)" d="M3584.23 345.524 Q3580.8 345.524 3578.81 348.209 Q3576.82 350.871 3576.82 355.524 Q3576.82 360.177 3578.79 362.862 Q3580.78 365.524 3584.23 365.524 Q3587.63 365.524 3589.62 362.839 Q3591.61 360.154 3591.61 355.524 Q3591.61 350.917 3589.62 348.232 Q3587.63 345.524 3584.23 345.524 M3584.23 341.913 Q3589.78 341.913 3592.95 345.524 Q3596.12 349.135 3596.12 355.524 Q3596.12 361.89 3592.95 365.524 Q3589.78 369.135 3584.23 369.135 Q3578.65 369.135 3575.48 365.524 Q3572.33 361.89 3572.33 355.524 Q3572.33 349.135 3575.48 345.524 Q3578.65 341.913 3584.23 341.913 Z" fill="#000000" fill-rule="nonzero" fill-opacity="1"></path><path clip-path="url(#clip830)" d="M3602.74 358.232 L3602.74 342.538 L3607 342.538 L3607 358.07 Q3607 361.751 3608.44 363.603 Q3609.87 365.431 3612.74 365.431 Q3616.19 365.431 3618.18 363.232 Q3620.2 361.033 3620.2 357.237 L3620.2 342.538 L3624.46 342.538 L3624.46 368.464 L3620.2 368.464 L3620.2 364.482 Q3618.65 366.843 3616.59 368.001 Q3614.55 369.135 3611.84 369.135 Q3607.37 369.135 3605.06 366.357 Q3602.74 363.579 3602.74 358.232 M3613.46 341.913 L3613.46 341.913 Z" fill="#000000" fill-rule="nonzero" fill-opacity="1"></path><path clip-path="url(#clip830)" d="M3654.78 352.816 L3654.78 368.464 L3650.52 368.464 L3650.52 352.955 Q3650.52 349.274 3649.09 347.445 Q3647.65 345.617 3644.78 345.617 Q3641.33 345.617 3639.34 347.816 Q3637.35 350.015 3637.35 353.811 L3637.35 368.464 L3633.07 368.464 L3633.07 342.538 L3637.35 342.538 L3637.35 346.566 Q3638.88 344.228 3640.94 343.07 Q3643.02 341.913 3645.73 341.913 Q3650.2 341.913 3652.49 344.691 Q3654.78 347.445 3654.78 352.816 Z" fill="#000000" fill-rule="nonzero" fill-opacity="1"></path><path clip-path="url(#clip830)" d="M3680.34 346.473 L3680.34 332.445 L3684.6 332.445 L3684.6 368.464 L3680.34 368.464 L3680.34 364.575 Q3678.99 366.89 3676.93 368.024 Q3674.9 369.135 3672.03 369.135 Q3667.33 369.135 3664.36 365.385 Q3661.42 361.635 3661.42 355.524 Q3661.42 349.413 3664.36 345.663 Q3667.33 341.913 3672.03 341.913 Q3674.9 341.913 3676.93 343.047 Q3678.99 344.158 3680.34 346.473 M3665.82 355.524 Q3665.82 360.223 3667.74 362.908 Q3669.69 365.57 3673.07 365.57 Q3676.45 365.57 3678.39 362.908 Q3680.34 360.223 3680.34 355.524 Q3680.34 350.825 3678.39 348.163 Q3676.45 345.478 3673.07 345.478 Q3669.69 345.478 3667.74 348.163 Q3665.82 350.825 3665.82 355.524 Z" fill="#000000" fill-rule="nonzero" fill-opacity="1"></path><path clip-path="url(#clip830)" d="M3712.65 335.177 L3712.65 342.538 L3721.42 342.538 L3721.42 345.848 L3712.65 345.848 L3712.65 359.922 Q3712.65 363.093 3713.51 363.996 Q3714.39 364.899 3717.05 364.899 L3721.42 364.899 L3721.42 368.464 L3717.05 368.464 Q3712.12 368.464 3710.24 366.635 Q3708.37 364.783 3708.37 359.922 L3708.37 345.848 L3705.24 345.848 L3705.24 342.538 L3708.37 342.538 L3708.37 335.177 L3712.65 335.177 Z" fill="#000000" fill-rule="nonzero" fill-opacity="1"></path><path clip-path="url(#clip830)" d="M3742.05 346.519 Q3741.33 346.103 3740.48 345.918 Q3739.64 345.709 3738.62 345.709 Q3735.01 345.709 3733.07 348.07 Q3731.15 350.408 3731.15 354.806 L3731.15 368.464 L3726.86 368.464 L3726.86 342.538 L3731.15 342.538 L3731.15 346.566 Q3732.49 344.205 3734.64 343.07 Q3736.79 341.913 3739.87 341.913 Q3740.31 341.913 3740.85 341.982 Q3741.38 342.029 3742.03 342.144 L3742.05 346.519 Z" fill="#000000" fill-rule="nonzero" fill-opacity="1"></path><path clip-path="url(#clip830)" d="M3746.08 358.232 L3746.08 342.538 L3750.34 342.538 L3750.34 358.07 Q3750.34 361.751 3751.77 363.603 Q3753.21 365.431 3756.08 365.431 Q3759.53 365.431 3761.52 363.232 Q3763.53 361.033 3763.53 357.237 L3763.53 342.538 L3767.79 342.538 L3767.79 368.464 L3763.53 368.464 L3763.53 364.482 Q3761.98 366.843 3759.92 368.001 Q3757.88 369.135 3755.17 369.135 Q3750.71 369.135 3748.39 366.357 Q3746.08 363.579 3746.08 358.232 M3756.79 341.913 L3756.79 341.913 Z" fill="#000000" fill-rule="nonzero" fill-opacity="1"></path><path clip-path="url(#clip830)" d="M3780.78 335.177 L3780.78 342.538 L3789.55 342.538 L3789.55 345.848 L3780.78 345.848 L3780.78 359.922 Q3780.78 363.093 3781.63 363.996 Q3782.51 364.899 3785.17 364.899 L3789.55 364.899 L3789.55 368.464 L3785.17 368.464 Q3780.24 368.464 3778.37 366.635 Q3776.49 364.783 3776.49 359.922 L3776.49 345.848 L3773.37 345.848 L3773.37 342.538 L3776.49 342.538 L3776.49 335.177 L3780.78 335.177 Z" fill="#000000" fill-rule="nonzero" fill-opacity="1"></path><path clip-path="url(#clip830)" d="M3816.7 352.816 L3816.7 368.464 L3812.44 368.464 L3812.44 352.955 Q3812.44 349.274 3811.01 347.445 Q3809.57 345.617 3806.7 345.617 Q3803.25 345.617 3801.26 347.816 Q3799.27 350.015 3799.27 353.811 L3799.27 368.464 L3794.99 368.464 L3794.99 332.445 L3799.27 332.445 L3799.27 346.566 Q3800.8 344.228 3802.86 343.07 Q3804.94 341.913 3807.65 341.913 Q3812.12 341.913 3814.41 344.691 Q3816.7 347.445 3816.7 352.816 Z" fill="#000000" fill-rule="nonzero" fill-opacity="1"></path><polyline clip-path="url(#clip830)" style="stroke:#ff0000; stroke-linecap:round; stroke-linejoin:round; stroke-width:8; stroke-opacity:0.8; fill:none" points="3241.15,403.024 3477.76,403.024 "></polyline>
<path clip-path="url(#clip830)" d="M3517.19 385.744 L3524.16 385.744 L3532.98 409.262 L3541.84 385.744 L3548.81 385.744 L3548.81 420.304 L3544.25 420.304 L3544.25 389.957 L3535.34 413.66 L3530.64 413.66 L3521.73 389.957 L3521.73 420.304 L3517.19 420.304 L3517.19 385.744 Z" fill="#000000" fill-rule="nonzero" fill-opacity="1"></path><path clip-path="url(#clip830)" d="M3562.77 389.586 L3562.77 402.572 L3568.65 402.572 Q3571.91 402.572 3573.69 400.883 Q3575.48 399.193 3575.48 396.068 Q3575.48 392.966 3573.69 391.276 Q3571.91 389.586 3568.65 389.586 L3562.77 389.586 M3558.09 385.744 L3568.65 385.744 Q3574.46 385.744 3577.42 388.383 Q3580.41 390.998 3580.41 396.068 Q3580.41 401.183 3577.42 403.799 Q3574.46 406.415 3568.65 406.415 L3562.77 406.415 L3562.77 420.304 L3558.09 420.304 L3558.09 385.744 Z" fill="#000000" fill-rule="nonzero" fill-opacity="1"></path><path clip-path="url(#clip830)" d="M3607.4 386.878 L3607.4 391.438 Q3604.74 390.165 3602.37 389.54 Q3600.01 388.915 3597.81 388.915 Q3593.99 388.915 3591.91 390.396 Q3589.85 391.878 3589.85 394.609 Q3589.85 396.901 3591.22 398.082 Q3592.61 399.239 3596.45 399.957 L3599.27 400.535 Q3604.5 401.531 3606.98 404.054 Q3609.48 406.554 3609.48 410.767 Q3609.48 415.79 3606.1 418.382 Q3602.74 420.975 3596.24 420.975 Q3593.79 420.975 3591.01 420.419 Q3588.25 419.864 3585.29 418.776 L3585.29 413.961 Q3588.14 415.558 3590.87 416.369 Q3593.6 417.179 3596.24 417.179 Q3600.24 417.179 3602.42 415.605 Q3604.6 414.031 3604.6 411.114 Q3604.6 408.568 3603.02 407.132 Q3601.47 405.697 3597.91 404.98 L3595.06 404.424 Q3589.83 403.382 3587.49 401.16 Q3585.15 398.938 3585.15 394.98 Q3585.15 390.396 3588.37 387.758 Q3591.61 385.119 3597.28 385.119 Q3599.71 385.119 3602.24 385.559 Q3604.76 385.998 3607.4 386.878 Z" fill="#000000" fill-rule="nonzero" fill-opacity="1"></path><path clip-path="url(#clip830)" d="M3631.84 385.744 L3636.52 385.744 L3636.52 420.304 L3631.84 420.304 L3631.84 385.744 Z" fill="#000000" fill-rule="nonzero" fill-opacity="1"></path><path clip-path="url(#clip830)" d="M3667.19 404.656 L3667.19 420.304 L3662.93 420.304 L3662.93 404.795 Q3662.93 401.114 3661.49 399.285 Q3660.06 397.457 3657.19 397.457 Q3653.74 397.457 3651.75 399.656 Q3649.76 401.855 3649.76 405.651 L3649.76 420.304 L3645.48 420.304 L3645.48 394.378 L3649.76 394.378 L3649.76 398.406 Q3651.29 396.068 3653.35 394.91 Q3655.43 393.753 3658.14 393.753 Q3662.61 393.753 3664.9 396.531 Q3667.19 399.285 3667.19 404.656 Z" fill="#000000" fill-rule="nonzero" fill-opacity="1"></path><path clip-path="url(#clip830)" d="M3679.9 387.017 L3679.9 394.378 L3688.67 394.378 L3688.67 397.688 L3679.9 397.688 L3679.9 411.762 Q3679.9 414.933 3680.75 415.836 Q3681.63 416.739 3684.3 416.739 L3688.67 416.739 L3688.67 420.304 L3684.3 420.304 Q3679.36 420.304 3677.49 418.475 Q3675.61 416.623 3675.61 411.762 L3675.61 397.688 L3672.49 397.688 L3672.49 394.378 L3675.61 394.378 L3675.61 387.017 L3679.9 387.017 Z" fill="#000000" fill-rule="nonzero" fill-opacity="1"></path><path clip-path="url(#clip830)" d="M3716.45 406.276 L3716.45 408.359 L3696.86 408.359 Q3697.14 412.757 3699.5 415.072 Q3701.89 417.364 3706.12 417.364 Q3708.58 417.364 3710.87 416.762 Q3713.18 416.16 3715.45 414.957 L3715.45 418.984 Q3713.16 419.956 3710.75 420.466 Q3708.35 420.975 3705.87 420.975 Q3699.67 420.975 3696.03 417.364 Q3692.42 413.753 3692.42 407.595 Q3692.42 401.23 3695.85 397.503 Q3699.3 393.753 3705.13 393.753 Q3710.36 393.753 3713.39 397.133 Q3716.45 400.489 3716.45 406.276 M3712.19 405.026 Q3712.14 401.531 3710.22 399.447 Q3708.32 397.364 3705.17 397.364 Q3701.61 397.364 3699.46 399.378 Q3697.33 401.392 3697 405.049 L3712.19 405.026 Z" fill="#000000" fill-rule="nonzero" fill-opacity="1"></path><path clip-path="url(#clip830)" d="M3738.46 398.359 Q3737.74 397.943 3736.89 397.758 Q3736.05 397.549 3735.04 397.549 Q3731.42 397.549 3729.48 399.91 Q3727.56 402.248 3727.56 406.646 L3727.56 420.304 L3723.28 420.304 L3723.28 394.378 L3727.56 394.378 L3727.56 398.406 Q3728.9 396.045 3731.05 394.91 Q3733.21 393.753 3736.29 393.753 Q3736.73 393.753 3737.26 393.822 Q3737.79 393.869 3738.44 393.984 L3738.46 398.359 Z" fill="#000000" fill-rule="nonzero" fill-opacity="1"></path><path clip-path="url(#clip830)" d="M3747.05 416.415 L3747.05 430.165 L3742.77 430.165 L3742.77 394.378 L3747.05 394.378 L3747.05 398.313 Q3748.39 395.998 3750.43 394.887 Q3752.49 393.753 3755.34 393.753 Q3760.06 393.753 3763 397.503 Q3765.96 401.253 3765.96 407.364 Q3765.96 413.475 3763 417.225 Q3760.06 420.975 3755.34 420.975 Q3752.49 420.975 3750.43 419.864 Q3748.39 418.73 3747.05 416.415 M3761.54 407.364 Q3761.54 402.665 3759.6 400.003 Q3757.67 397.318 3754.29 397.318 Q3750.92 397.318 3748.97 400.003 Q3747.05 402.665 3747.05 407.364 Q3747.05 412.063 3748.97 414.748 Q3750.92 417.41 3754.29 417.41 Q3757.67 417.41 3759.6 414.748 Q3761.54 412.063 3761.54 407.364 Z" fill="#000000" fill-rule="nonzero" fill-opacity="1"></path><path clip-path="url(#clip830)" d="M3783.07 397.364 Q3779.64 397.364 3777.65 400.049 Q3775.66 402.711 3775.66 407.364 Q3775.66 412.017 3777.63 414.702 Q3779.62 417.364 3783.07 417.364 Q3786.47 417.364 3788.46 414.679 Q3790.45 411.994 3790.45 407.364 Q3790.45 402.757 3788.46 400.072 Q3786.47 397.364 3783.07 397.364 M3783.07 393.753 Q3788.62 393.753 3791.79 397.364 Q3794.97 400.975 3794.97 407.364 Q3794.97 413.73 3791.79 417.364 Q3788.62 420.975 3783.07 420.975 Q3777.49 420.975 3774.32 417.364 Q3771.17 413.73 3771.17 407.364 Q3771.17 400.975 3774.32 397.364 Q3777.49 393.753 3783.07 393.753 Z" fill="#000000" fill-rule="nonzero" fill-opacity="1"></path><path clip-path="url(#clip830)" d="M3802.03 384.285 L3806.29 384.285 L3806.29 420.304 L3802.03 420.304 L3802.03 384.285 Z" fill="#000000" fill-rule="nonzero" fill-opacity="1"></path><path clip-path="url(#clip830)" d="M3826.98 407.271 Q3821.82 407.271 3819.83 408.452 Q3817.84 409.632 3817.84 412.48 Q3817.84 414.748 3819.32 416.091 Q3820.82 417.41 3823.39 417.41 Q3826.93 417.41 3829.06 414.91 Q3831.22 412.387 3831.22 408.22 L3831.22 407.271 L3826.98 407.271 M3835.47 405.512 L3835.47 420.304 L3831.22 420.304 L3831.22 416.369 Q3829.76 418.73 3827.58 419.864 Q3825.41 420.975 3822.26 420.975 Q3818.28 420.975 3815.91 418.753 Q3813.58 416.507 3813.58 412.757 Q3813.58 408.382 3816.49 406.16 Q3819.43 403.938 3825.24 403.938 L3831.22 403.938 L3831.22 403.521 Q3831.22 400.582 3829.27 398.984 Q3827.35 397.364 3823.85 397.364 Q3821.63 397.364 3819.53 397.896 Q3817.42 398.429 3815.47 399.494 L3815.47 395.558 Q3817.81 394.656 3820.01 394.216 Q3822.21 393.753 3824.29 393.753 Q3829.92 393.753 3832.7 396.67 Q3835.47 399.586 3835.47 405.512 Z" fill="#000000" fill-rule="nonzero" fill-opacity="1"></path><path clip-path="url(#clip830)" d="M3848.46 387.017 L3848.46 394.378 L3857.23 394.378 L3857.23 397.688 L3848.46 397.688 L3848.46 411.762 Q3848.46 414.933 3849.32 415.836 Q3850.2 416.739 3852.86 416.739 L3857.23 416.739 L3857.23 420.304 L3852.86 420.304 Q3847.93 420.304 3846.05 418.475 Q3844.18 416.623 3844.18 411.762 L3844.18 397.688 L3841.05 397.688 L3841.05 394.378 L3844.18 394.378 L3844.18 387.017 L3848.46 387.017 Z" fill="#000000" fill-rule="nonzero" fill-opacity="1"></path><path clip-path="url(#clip830)" d="M3885.01 406.276 L3885.01 408.359 L3865.43 408.359 Q3865.71 412.757 3868.07 415.072 Q3870.45 417.364 3874.69 417.364 Q3877.14 417.364 3879.43 416.762 Q3881.75 416.16 3884.02 414.957 L3884.02 418.984 Q3881.72 419.956 3879.32 420.466 Q3876.91 420.975 3874.43 420.975 Q3868.23 420.975 3864.6 417.364 Q3860.98 413.753 3860.98 407.595 Q3860.98 401.23 3864.41 397.503 Q3867.86 393.753 3873.69 393.753 Q3878.92 393.753 3881.96 397.133 Q3885.01 400.489 3885.01 406.276 M3880.75 405.026 Q3880.71 401.531 3878.78 399.447 Q3876.89 397.364 3873.74 397.364 Q3870.17 397.364 3868.02 399.378 Q3865.89 401.392 3865.57 405.049 L3880.75 405.026 Z" fill="#000000" fill-rule="nonzero" fill-opacity="1"></path><path clip-path="url(#clip830)" d="M3909.06 398.313 L3909.06 384.285 L3913.32 384.285 L3913.32 420.304 L3909.06 420.304 L3909.06 416.415 Q3907.72 418.73 3905.66 419.864 Q3903.62 420.975 3900.75 420.975 Q3896.05 420.975 3893.09 417.225 Q3890.15 413.475 3890.15 407.364 Q3890.15 401.253 3893.09 397.503 Q3896.05 393.753 3900.75 393.753 Q3903.62 393.753 3905.66 394.887 Q3907.72 395.998 3909.06 398.313 M3894.55 407.364 Q3894.55 412.063 3896.47 414.748 Q3898.41 417.41 3901.79 417.41 Q3905.17 417.41 3907.12 414.748 Q3909.06 412.063 3909.06 407.364 Q3909.06 402.665 3907.12 400.003 Q3905.17 397.318 3901.79 397.318 Q3898.41 397.318 3896.47 400.003 Q3894.55 402.665 3894.55 407.364 Z" fill="#000000" fill-rule="nonzero" fill-opacity="1"></path></svg>