<svg xmlns="http://www.w3.org/2000/svg" xmlns:xlink="http://www.w3.org/1999/xlink" width="1000" height="500" viewBox="0 0 4000 2000">
<defs>
  <clipPath id="clip030">
    <rect x="0" y="0" width="4000" height="2000"></rect>
  </clipPath>
</defs>
<path clip-path="url(#clip030)" d="M0 2000 L4000 2000 L4000 0 L0 0  Z" fill="#ffffff" fill-rule="evenodd" fill-opacity="1"></path>
<defs>
  <clipPath id="clip031">
    <rect x="800" y="0" width="2801" height="2000"></rect>
  </clipPath>
</defs>
<path clip-path="url(#clip030)" d="M407.399 1610.49 L3083.91 1610.49 L3083.91 200.504 L407.399 200.504  Z" fill="#ffffff" fill-rule="evenodd" fill-opacity="1"></path>
<defs>
  <clipPath id="clip032">
    <rect x="407" y="200" width="2678" height="1411"></rect>
  </clipPath>
</defs>
<polyline clip-path="url(#clip032)" style="stroke:#000000; stroke-linecap:round; stroke-linejoin:round; stroke-width:2; stroke-opacity:0.1; fill:none" points="457.645,1610.49 457.645,200.504 "></polyline>
<polyline clip-path="url(#clip032)" style="stroke:#000000; stroke-linecap:round; stroke-linejoin:round; stroke-width:2; stroke-opacity:0.1; fill:none" points="1095.27,1610.49 1095.27,200.504 "></polyline>
<polyline clip-path="url(#clip032)" style="stroke:#000000; stroke-linecap:round; stroke-linejoin:round; stroke-width:2; stroke-opacity:0.1; fill:none" points="1732.9,1610.49 1732.9,200.504 "></polyline>
<polyline clip-path="url(#clip032)" style="stroke:#000000; stroke-linecap:round; stroke-linejoin:round; stroke-width:2; stroke-opacity:0.1; fill:none" points="2370.53,1610.49 2370.53,200.504 "></polyline>
<polyline clip-path="url(#clip032)" style="stroke:#000000; stroke-linecap:round; stroke-linejoin:round; stroke-width:2; stroke-opacity:0.1; fill:none" points="3008.16,1610.49 3008.16,200.504 "></polyline>
<polyline clip-path="url(#clip032)" style="stroke:#000000; stroke-linecap:round; stroke-linejoin:round; stroke-width:2; stroke-opacity:0.1; fill:none" points="407.399,1362.02 3083.91,1362.02 "></polyline>
<polyline clip-path="url(#clip032)" style="stroke:#000000; stroke-linecap:round; stroke-linejoin:round; stroke-width:2; stroke-opacity:0.1; fill:none" points="407.399,1074.67 3083.91,1074.67 "></polyline>
<polyline clip-path="url(#clip032)" style="stroke:#000000; stroke-linecap:round; stroke-linejoin:round; stroke-width:2; stroke-opacity:0.1; fill:none" points="407.399,787.314 3083.91,787.314 "></polyline>
<polyline clip-path="url(#clip032)" style="stroke:#000000; stroke-linecap:round; stroke-linejoin:round; stroke-width:2; stroke-opacity:0.1; fill:none" points="407.399,499.959 3083.91,499.959 "></polyline>
<polyline clip-path="url(#clip032)" style="stroke:#000000; stroke-linecap:round; stroke-linejoin:round; stroke-width:2; stroke-opacity:0.1; fill:none" points="407.399,212.604 3083.91,212.604 "></polyline>
<polyline clip-path="url(#clip030)" style="stroke:#000000; stroke-linecap:round; stroke-linejoin:round; stroke-width:4; stroke-opacity:1; fill:none" points="407.399,1610.49 3083.91,1610.49 "></polyline>
<polyline clip-path="url(#clip030)" style="stroke:#000000; stroke-linecap:round; stroke-linejoin:round; stroke-width:4; stroke-opacity:1; fill:none" points="457.645,1610.49 457.645,1591.59 "></polyline>
<polyline clip-path="url(#clip030)" style="stroke:#000000; stroke-linecap:round; stroke-linejoin:round; stroke-width:4; stroke-opacity:1; fill:none" points="1095.27,1610.49 1095.27,1591.59 "></polyline>
<polyline clip-path="url(#clip030)" style="stroke:#000000; stroke-linecap:round; stroke-linejoin:round; stroke-width:4; stroke-opacity:1; fill:none" points="1732.9,1610.49 1732.9,1591.59 "></polyline>
<polyline clip-path="url(#clip030)" style="stroke:#000000; stroke-linecap:round; stroke-linejoin:round; stroke-width:4; stroke-opacity:1; fill:none" points="2370.53,1610.49 2370.53,1591.59 "></polyline>
<polyline clip-path="url(#clip030)" style="stroke:#000000; stroke-linecap:round; stroke-linejoin:round; stroke-width:4; stroke-opacity:1; fill:none" points="3008.16,1610.49 3008.16,1591.59 "></polyline>
<path clip-path="url(#clip030)" d="M457.645 1676.18 Q447.263 1676.18 442.005 1686.43 Q436.814 1696.61 436.814 1717.11 Q436.814 1737.54 442.005 1747.79 Q447.263 1757.97 457.645 1757.97 Q468.093 1757.97 473.284 1747.79 Q478.541 1737.54 478.541 1717.11 Q478.541 1696.61 473.284 1686.43 Q468.093 1676.18 457.645 1676.18 M457.645 1665.53 Q474.349 1665.53 483.133 1678.77 Q491.985 1691.95 491.985 1717.11 Q491.985 1742.2 483.133 1755.44 Q474.349 1768.62 457.645 1768.62 Q440.94 1768.62 432.089 1755.44 Q423.305 1742.2 423.305 1717.11 Q423.305 1691.95 432.089 1678.77 Q440.94 1665.53 457.645 1665.53 Z" fill="#000000" fill-rule="nonzero" fill-opacity="1"></path><path clip-path="url(#clip030)" d="M1035.68 1755.37 L1082.6 1755.37 L1082.6 1766.69 L1019.51 1766.69 L1019.51 1755.37 Q1027.16 1747.45 1040.34 1734.14 Q1053.58 1720.77 1056.97 1716.91 Q1063.43 1709.65 1065.96 1704.66 Q1068.55 1699.6 1068.55 1694.75 Q1068.55 1686.83 1062.96 1681.84 Q1057.44 1676.84 1048.52 1676.84 Q1042.2 1676.84 1035.14 1679.04 Q1028.16 1681.24 1020.17 1685.7 L1020.17 1672.12 Q1028.29 1668.86 1035.34 1667.19 Q1042.4 1665.53 1048.26 1665.53 Q1063.7 1665.53 1072.88 1673.25 Q1082.06 1680.97 1082.06 1693.88 Q1082.06 1700 1079.73 1705.53 Q1077.47 1710.98 1071.41 1718.44 Q1069.75 1720.37 1060.83 1729.62 Q1051.92 1738.8 1035.68 1755.37 Z" fill="#000000" fill-rule="nonzero" fill-opacity="1"></path><path clip-path="url(#clip030)" d="M1110.95 1667.33 L1163.72 1667.33 L1163.72 1678.64 L1123.26 1678.64 L1123.26 1703 Q1126.19 1702 1129.11 1701.53 Q1132.04 1701 1134.97 1701 Q1151.61 1701 1161.32 1710.12 Q1171.04 1719.24 1171.04 1734.81 Q1171.04 1750.85 1161.06 1759.77 Q1151.08 1768.62 1132.91 1768.62 Q1126.65 1768.62 1120.13 1767.55 Q1113.67 1766.49 1106.75 1764.36 L1106.75 1750.85 Q1112.74 1754.11 1119.13 1755.71 Q1125.52 1757.3 1132.64 1757.3 Q1144.15 1757.3 1150.88 1751.25 Q1157.6 1745.19 1157.6 1734.81 Q1157.6 1724.43 1150.88 1718.37 Q1144.15 1712.32 1132.64 1712.32 Q1127.25 1712.32 1121.86 1713.51 Q1116.54 1714.71 1110.95 1717.24 L1110.95 1667.33 Z" fill="#000000" fill-rule="nonzero" fill-opacity="1"></path><path clip-path="url(#clip030)" d="M1660.16 1667.33 L1712.94 1667.33 L1712.94 1678.64 L1672.47 1678.64 L1672.47 1703 Q1675.4 1702 1678.33 1701.53 Q1681.26 1701 1684.19 1701 Q1700.82 1701 1710.54 1710.12 Q1720.26 1719.24 1720.26 1734.81 Q1720.26 1750.85 1710.27 1759.77 Q1700.29 1768.62 1682.12 1768.62 Q1675.87 1768.62 1669.35 1767.55 Q1662.89 1766.49 1655.97 1764.36 L1655.97 1750.85 Q1661.96 1754.11 1668.35 1755.71 Q1674.74 1757.3 1681.86 1757.3 Q1693.37 1757.3 1700.09 1751.25 Q1706.81 1745.19 1706.81 1734.81 Q1706.81 1724.43 1700.09 1718.37 Q1693.37 1712.32 1681.86 1712.32 Q1676.47 1712.32 1671.08 1713.51 Q1665.75 1714.71 1660.16 1717.24 L1660.16 1667.33 Z" fill="#000000" fill-rule="nonzero" fill-opacity="1"></path><path clip-path="url(#clip030)" d="M1775.49 1676.18 Q1765.11 1676.18 1759.85 1686.43 Q1754.66 1696.61 1754.66 1717.11 Q1754.66 1737.54 1759.85 1747.79 Q1765.11 1757.97 1775.49 1757.97 Q1785.94 1757.97 1791.13 1747.79 Q1796.39 1737.54 1796.39 1717.11 Q1796.39 1696.61 1791.13 1686.43 Q1785.94 1676.18 1775.49 1676.18 M1775.49 1665.53 Q1792.2 1665.53 1800.98 1678.77 Q1809.83 1691.95 1809.83 1717.11 Q1809.83 1742.2 1800.98 1755.44 Q1792.2 1768.62 1775.49 1768.62 Q1758.79 1768.62 1749.94 1755.44 Q1741.15 1742.2 1741.15 1717.11 Q1741.15 1691.95 1749.94 1678.77 Q1758.79 1665.53 1775.49 1665.53 Z" fill="#000000" fill-rule="nonzero" fill-opacity="1"></path><path clip-path="url(#clip030)" d="M2295.36 1667.33 L2359.25 1667.33 L2359.25 1673.05 L2323.18 1766.69 L2309.14 1766.69 L2343.08 1678.64 L2295.36 1678.64 L2295.36 1667.33 Z" fill="#000000" fill-rule="nonzero" fill-opacity="1"></path><path clip-path="url(#clip030)" d="M2385.6 1667.33 L2438.38 1667.33 L2438.38 1678.64 L2397.92 1678.64 L2397.92 1703 Q2400.84 1702 2403.77 1701.53 Q2406.7 1701 2409.63 1701 Q2426.27 1701 2435.98 1710.12 Q2445.7 1719.24 2445.7 1734.81 Q2445.7 1750.85 2435.72 1759.77 Q2425.73 1768.62 2407.57 1768.62 Q2401.31 1768.62 2394.79 1767.55 Q2388.33 1766.49 2381.41 1764.36 L2381.41 1750.85 Q2387.4 1754.11 2393.79 1755.71 Q2400.18 1757.3 2407.3 1757.3 Q2418.81 1757.3 2425.53 1751.25 Q2432.26 1745.19 2432.26 1734.81 Q2432.26 1724.43 2425.53 1718.37 Q2418.81 1712.32 2407.3 1712.32 Q2401.91 1712.32 2396.52 1713.51 Q2391.19 1714.71 2385.6 1717.24 L2385.6 1667.33 Z" fill="#000000" fill-rule="nonzero" fill-opacity="1"></path><path clip-path="url(#clip030)" d="M2892.03 1755.37 L2913.99 1755.37 L2913.99 1679.57 L2890.1 1684.36 L2890.1 1672.12 L2913.86 1667.33 L2927.3 1667.33 L2927.3 1755.37 L2949.26 1755.37 L2949.26 1766.69 L2892.03 1766.69 L2892.03 1755.37 Z" fill="#000000" fill-rule="nonzero" fill-opacity="1"></path><path clip-path="url(#clip030)" d="M3005.16 1676.18 Q2994.78 1676.18 2989.53 1686.43 Q2984.33 1696.61 2984.33 1717.11 Q2984.33 1737.54 2989.53 1747.79 Q2994.78 1757.97 3005.16 1757.97 Q3015.61 1757.97 3020.8 1747.79 Q3026.06 1737.54 3026.06 1717.11 Q3026.06 1696.61 3020.8 1686.43 Q3015.61 1676.18 3005.16 1676.18 M3005.16 1665.53 Q3021.87 1665.53 3030.65 1678.77 Q3039.5 1691.95 3039.5 1717.11 Q3039.5 1742.2 3030.65 1755.44 Q3021.87 1768.62 3005.16 1768.62 Q2988.46 1768.62 2979.61 1755.44 Q2970.82 1742.2 2970.82 1717.11 Q2970.82 1691.95 2979.61 1678.77 Q2988.46 1665.53 3005.16 1665.53 Z" fill="#000000" fill-rule="nonzero" fill-opacity="1"></path><path clip-path="url(#clip030)" d="M3091.88 1676.18 Q3081.5 1676.18 3076.24 1686.43 Q3071.05 1696.61 3071.05 1717.11 Q3071.05 1737.54 3076.24 1747.79 Q3081.5 1757.97 3091.88 1757.97 Q3102.33 1757.97 3107.52 1747.79 Q3112.78 1737.54 3112.78 1717.11 Q3112.78 1696.61 3107.52 1686.43 Q3102.33 1676.18 3091.88 1676.18 M3091.88 1665.53 Q3108.58 1665.53 3117.37 1678.77 Q3126.22 1691.95 3126.22 1717.11 Q3126.22 1742.2 3117.37 1755.44 Q3108.58 1768.62 3091.88 1768.62 Q3075.18 1768.62 3066.32 1755.44 Q3057.54 1742.2 3057.54 1717.11 Q3057.54 1691.95 3066.32 1678.77 Q3075.18 1665.53 3091.88 1665.53 Z" fill="#000000" fill-rule="nonzero" fill-opacity="1"></path><path clip-path="url(#clip030)" d="M1618.44 1843.06 L1618.44 1864.22 L1643.67 1864.22 L1643.67 1873.74 L1618.44 1873.74 L1618.44 1914.2 Q1618.44 1923.32 1620.91 1925.92 Q1623.43 1928.51 1631.09 1928.51 L1643.67 1928.51 L1643.67 1938.76 L1631.09 1938.76 Q1616.91 1938.76 1611.52 1933.5 Q1606.13 1928.18 1606.13 1914.2 L1606.13 1873.74 L1597.15 1873.74 L1597.15 1864.22 L1606.13 1864.22 L1606.13 1843.06 L1618.44 1843.06 Z" fill="#000000" fill-rule="nonzero" fill-opacity="1"></path><path clip-path="url(#clip030)" d="M1659.77 1864.22 L1672.02 1864.22 L1672.02 1938.76 L1659.77 1938.76 L1659.77 1864.22 M1659.77 1835.21 L1672.02 1835.21 L1672.02 1850.71 L1659.77 1850.71 L1659.77 1835.21 Z" fill="#000000" fill-rule="nonzero" fill-opacity="1"></path><path clip-path="url(#clip030)" d="M1755.67 1878.53 Q1760.26 1870.28 1766.65 1866.35 Q1773.04 1862.43 1781.69 1862.43 Q1793.34 1862.43 1799.66 1870.61 Q1805.98 1878.73 1805.98 1893.77 L1805.98 1938.76 L1793.67 1938.76 L1793.67 1894.17 Q1793.67 1883.46 1789.88 1878.27 Q1786.08 1873.07 1778.3 1873.07 Q1768.78 1873.07 1763.26 1879.4 Q1757.73 1885.72 1757.73 1896.63 L1757.73 1938.76 L1745.42 1938.76 L1745.42 1894.17 Q1745.42 1883.39 1741.63 1878.27 Q1737.83 1873.07 1729.92 1873.07 Q1720.53 1873.07 1715.01 1879.46 Q1709.48 1885.79 1709.48 1896.63 L1709.48 1938.76 L1697.17 1938.76 L1697.17 1864.22 L1709.48 1864.22 L1709.48 1875.8 Q1713.68 1868.95 1719.53 1865.69 Q1725.39 1862.43 1733.44 1862.43 Q1741.56 1862.43 1747.22 1866.55 Q1752.94 1870.68 1755.67 1878.53 Z" fill="#000000" fill-rule="nonzero" fill-opacity="1"></path><path clip-path="url(#clip030)" d="M1894.16 1898.43 L1894.16 1904.42 L1837.86 1904.42 Q1838.66 1917.06 1845.45 1923.72 Q1852.3 1930.31 1864.48 1930.31 Q1871.53 1930.31 1878.12 1928.58 Q1884.78 1926.85 1891.3 1923.39 L1891.3 1934.97 Q1884.71 1937.76 1877.79 1939.23 Q1870.87 1940.69 1863.75 1940.69 Q1845.91 1940.69 1835.46 1930.31 Q1825.08 1919.93 1825.08 1902.22 Q1825.08 1883.92 1834.93 1873.21 Q1844.85 1862.43 1861.62 1862.43 Q1876.66 1862.43 1885.38 1872.14 Q1894.16 1881.79 1894.16 1898.43 M1881.92 1894.84 Q1881.78 1884.79 1876.26 1878.8 Q1870.8 1872.81 1861.75 1872.81 Q1851.5 1872.81 1845.31 1878.6 Q1839.19 1884.39 1838.26 1894.9 L1881.92 1894.84 Z" fill="#000000" fill-rule="nonzero" fill-opacity="1"></path><polyline clip-path="url(#clip030)" style="stroke:#000000; stroke-linecap:round; stroke-linejoin:round; stroke-width:4; stroke-opacity:1; fill:none" points="407.399,1610.49 407.399,200.504 "></polyline>
<polyline clip-path="url(#clip030)" style="stroke:#000000; stroke-linecap:round; stroke-linejoin:round; stroke-width:4; stroke-opacity:1; fill:none" points="407.399,1362.02 421.666,1362.02 "></polyline>
<polyline clip-path="url(#clip030)" style="stroke:#000000; stroke-linecap:round; stroke-linejoin:round; stroke-width:4; stroke-opacity:1; fill:none" points="407.399,1074.67 421.666,1074.67 "></polyline>
<polyline clip-path="url(#clip030)" style="stroke:#000000; stroke-linecap:round; stroke-linejoin:round; stroke-width:4; stroke-opacity:1; fill:none" points="407.399,787.314 421.666,787.314 "></polyline>
<polyline clip-path="url(#clip030)" style="stroke:#000000; stroke-linecap:round; stroke-linejoin:round; stroke-width:4; stroke-opacity:1; fill:none" points="407.399,499.959 421.666,499.959 "></polyline>
<polyline clip-path="url(#clip030)" style="stroke:#000000; stroke-linecap:round; stroke-linejoin:round; stroke-width:4; stroke-opacity:1; fill:none" points="407.399,212.604 421.666,212.604 "></polyline>
<path clip-path="url(#clip030)" d="M313.059 1321.19 Q302.677 1321.19 297.42 1331.44 Q292.229 1341.63 292.229 1362.12 Q292.229 1382.55 297.42 1392.8 Q302.677 1402.99 313.059 1402.99 Q323.508 1402.99 328.699 1392.8 Q333.956 1382.55 333.956 1362.12 Q333.956 1341.63 328.699 1331.44 Q323.508 1321.19 313.059 1321.19 M313.059 1310.55 Q329.764 1310.55 338.548 1323.79 Q347.399 1336.97 347.399 1362.12 Q347.399 1387.21 338.548 1400.46 Q329.764 1413.63 313.059 1413.63 Q296.355 1413.63 287.504 1400.46 Q278.719 1387.21 278.719 1362.12 Q278.719 1336.97 287.504 1323.79 Q296.355 1310.55 313.059 1310.55 Z" fill="#000000" fill-rule="nonzero" fill-opacity="1"></path><path clip-path="url(#clip030)" d="M290.166 1113.03 L312.128 1113.03 L312.128 1037.23 L288.236 1042.03 L288.236 1029.78 L311.995 1024.99 L325.438 1024.99 L325.438 1113.03 L347.399 1113.03 L347.399 1124.35 L290.166 1124.35 L290.166 1113.03 Z" fill="#000000" fill-rule="nonzero" fill-opacity="1"></path><path clip-path="url(#clip030)" d="M300.481 825.68 L347.399 825.68 L347.399 836.994 L284.31 836.994 L284.31 825.68 Q291.963 817.76 305.14 804.45 Q318.383 791.074 321.777 787.214 Q328.233 779.96 330.762 774.968 Q333.357 769.911 333.357 765.052 Q333.357 757.133 327.767 752.142 Q322.243 747.15 313.326 747.15 Q307.003 747.15 299.949 749.346 Q292.961 751.543 284.975 756.002 L284.975 742.425 Q293.094 739.164 300.149 737.5 Q307.203 735.837 313.059 735.837 Q328.499 735.837 337.683 743.557 Q346.867 751.276 346.867 764.187 Q346.867 770.31 344.538 775.834 Q342.275 781.291 336.219 788.744 Q334.555 790.674 325.637 799.925 Q316.72 809.109 300.481 825.68 Z" fill="#000000" fill-rule="nonzero" fill-opacity="1"></path><path clip-path="url(#clip030)" d="M326.902 496.065 Q336.552 498.128 341.942 504.65 Q347.399 511.172 347.399 520.756 Q347.399 535.463 337.284 543.516 Q327.168 551.569 308.534 551.569 Q302.278 551.569 295.623 550.304 Q289.035 549.106 281.98 546.644 L281.98 533.666 Q287.57 536.927 294.226 538.591 Q300.881 540.255 308.135 540.255 Q320.779 540.255 327.368 535.264 Q334.023 530.272 334.023 520.756 Q334.023 511.971 327.834 507.046 Q321.711 502.055 310.73 502.055 L299.15 502.055 L299.15 491.008 L311.263 491.008 Q321.179 491.008 326.436 487.081 Q331.694 483.088 331.694 475.634 Q331.694 467.981 326.236 463.921 Q320.846 459.795 310.73 459.795 Q305.206 459.795 298.884 460.993 Q292.562 462.191 284.975 464.72 L284.975 452.741 Q292.628 450.611 299.283 449.547 Q306.005 448.482 311.928 448.482 Q327.235 448.482 336.152 455.47 Q345.07 462.391 345.07 474.237 Q345.07 482.489 340.345 488.212 Q335.62 493.869 326.902 496.065 Z" fill="#000000" fill-rule="nonzero" fill-opacity="1"></path><path clip-path="url(#clip030)" d="M319.848 174.636 L285.907 227.677 L319.848 227.677 L319.848 174.636 M316.32 162.924 L333.224 162.924 L333.224 227.677 L347.399 227.677 L347.399 238.858 L333.224 238.858 L333.224 262.284 L319.848 262.284 L319.848 238.858 L274.992 238.858 L274.992 225.88 L316.32 162.924 Z" fill="#000000" fill-rule="nonzero" fill-opacity="1"></path><path clip-path="url(#clip030)" d="M110.648 870.757 L146.918 897.709 L185.184 869.359 L185.184 883.8 L155.902 905.496 L185.184 927.191 L185.184 941.633 L146.186 912.683 L110.648 939.17 L110.648 924.729 L137.201 904.964 L110.648 885.198 L110.648 870.757 Z" fill="#000000" fill-rule="nonzero" fill-opacity="1"></path><path clip-path="url(#clip030)" d="M1543.61 117.169 L1543.61 104.924 Q1548.66 107.319 1553.86 108.584 Q1559.05 109.848 1564.04 109.848 Q1577.35 109.848 1584.34 100.931 Q1591.39 91.9463 1592.39 73.7114 Q1588.53 79.4348 1582.61 82.4961 Q1576.68 85.5574 1569.5 85.5574 Q1554.59 85.5574 1545.87 76.5731 Q1537.22 67.5222 1537.22 51.8828 Q1537.22 36.5762 1546.27 27.3257 Q1555.32 18.0751 1570.36 18.0751 Q1587.6 18.0751 1596.65 31.3187 Q1605.77 44.4957 1605.77 69.6518 Q1605.77 93.1442 1594.58 107.186 Q1583.47 121.162 1564.64 121.162 Q1559.58 121.162 1554.39 120.164 Q1549.2 119.165 1543.61 117.169 M1570.36 75.0424 Q1579.41 75.0424 1584.67 68.8532 Q1589.99 62.664 1589.99 51.8828 Q1589.99 41.1682 1584.67 34.979 Q1579.41 28.7232 1570.36 28.7232 Q1561.31 28.7232 1555.99 34.979 Q1550.73 41.1682 1550.73 51.8828 Q1550.73 62.664 1555.99 68.8532 Q1561.31 75.0424 1570.36 75.0424 Z" fill="#000000" fill-rule="nonzero" fill-opacity="1"></path><path clip-path="url(#clip030)" d="M1666.86 31.5849 L1632.92 84.6257 L1666.86 84.6257 L1666.86 31.5849 M1663.33 19.872 L1680.24 19.872 L1680.24 84.6257 L1694.41 84.6257 L1694.41 95.8062 L1680.24 95.8062 L1680.24 119.232 L1666.86 119.232 L1666.86 95.8062 L1622 95.8062 L1622 82.8288 L1663.33 19.872 Z" fill="#000000" fill-rule="nonzero" fill-opacity="1"></path><path clip-path="url(#clip030)" d="M1716.64 102.328 L1730.68 102.328 L1730.68 119.232 L1716.64 119.232 L1716.64 102.328 Z" fill="#000000" fill-rule="nonzero" fill-opacity="1"></path><path clip-path="url(#clip030)" d="M1788.71 28.7232 Q1778.33 28.7232 1773.07 38.972 Q1767.88 49.1543 1767.88 69.6518 Q1767.88 90.0829 1773.07 100.332 Q1778.33 110.514 1788.71 110.514 Q1799.16 110.514 1804.35 100.332 Q1809.61 90.0829 1809.61 69.6518 Q1809.61 49.1543 1804.35 38.972 Q1799.16 28.7232 1788.71 28.7232 M1788.71 18.0751 Q1805.42 18.0751 1814.2 31.3187 Q1823.05 44.4957 1823.05 69.6518 Q1823.05 94.7414 1814.2 107.985 Q1805.42 121.162 1788.71 121.162 Q1772.01 121.162 1763.16 107.985 Q1754.37 94.7414 1754.37 69.6518 Q1754.37 44.4957 1763.16 31.3187 Q1772.01 18.0751 1788.71 18.0751 Z" fill="#000000" fill-rule="nonzero" fill-opacity="1"></path><path clip-path="url(#clip030)" d="M1931.2 75.5083 Q1925.41 75.5083 1922.08 80.433 Q1918.82 85.3578 1918.82 94.1424 Q1918.82 102.794 1922.08 107.785 Q1925.41 112.71 1931.2 112.71 Q1936.85 112.71 1940.12 107.785 Q1943.44 102.794 1943.44 94.1424 Q1943.44 85.4243 1940.12 80.4996 Q1936.85 75.5083 1931.2 75.5083 M1931.2 67.0564 Q1941.71 67.0564 1947.9 74.3769 Q1954.09 81.6975 1954.09 94.1424 Q1954.09 106.587 1947.84 113.908 Q1941.65 121.162 1931.2 121.162 Q1920.55 121.162 1914.36 113.908 Q1908.17 106.587 1908.17 94.1424 Q1908.17 81.6309 1914.36 74.3769 Q1920.62 67.0564 1931.2 67.0564 M1862.52 26.5271 Q1856.79 26.5271 1853.47 31.5183 Q1850.21 36.4431 1850.21 45.0947 Q1850.21 53.8793 1853.47 58.8041 Q1856.73 63.7288 1862.52 63.7288 Q1868.31 63.7288 1871.57 58.8041 Q1874.9 53.8793 1874.9 45.0947 Q1874.9 36.5096 1871.57 31.5183 Q1868.24 26.5271 1862.52 26.5271 M1922.61 18.0751 L1933.26 18.0751 L1871.1 121.162 L1860.45 121.162 L1922.61 18.0751 M1862.52 18.0751 Q1873.03 18.0751 1879.29 25.3957 Q1885.54 32.6497 1885.54 45.0947 Q1885.54 57.6727 1879.29 64.9267 Q1873.1 72.1807 1862.52 72.1807 Q1851.94 72.1807 1845.75 64.9267 Q1839.62 57.6062 1839.62 45.0947 Q1839.62 32.7163 1845.81 25.3957 Q1852 18.0751 1862.52 18.0751 Z" fill="#000000" fill-rule="nonzero" fill-opacity="1"></path><polyline clip-path="url(#clip032)" style="stroke:#000000; stroke-linecap:round; stroke-linejoin:round; stroke-width:8; stroke-opacity:1; fill:none" stroke-dasharray="4, 8" points="483.15,1482.31 508.655,1330.15 534.16,1304.81 559.665,1130.8 "></polyline>
<polyline clip-path="url(#clip032)" style="stroke:#000000; stroke-linecap:round; stroke-linejoin:round; stroke-width:8; stroke-opacity:1; fill:none" stroke-dasharray="4, 8" points="2906.14,866.509 2931.64,809.993 2957.15,814.977 2982.65,755.89 3008.16,740.184 "></polyline>
<polyline clip-path="url(#clip032)" style="stroke:#000000; stroke-linecap:round; stroke-linejoin:round; stroke-width:8; stroke-opacity:0.3; fill:none" points="585.17,995.408 610.675,1107.93 636.181,1065.26 661.686,1010.21 687.191,1142.65 712.696,1061.49 738.201,1163.09 763.706,1189.86 789.212,1316.61 814.717,1433.03 840.222,1568.71 865.727,1408.74 891.232,1511.34 916.737,1570.58 942.242,1438.52 967.748,1396.8 993.253,1313.74 1018.76,1140.3 1044.26,1072.51 1069.77,977.029 1095.27,933.515 1120.78,840.383 1146.28,833.526 1171.79,720.945 1197.29,866.851 1222.8,886.828 1248.3,977.425 1273.81,1036.53 1299.31,1223.13 1324.82,1351.71 1350.32,1259.38 1375.83,1378.05 1401.34,1363.59 1426.84,1240.8 1452.35,1220.79 1477.85,1113.2 1503.36,1206.76 1528.86,1003.4 1554.37,914.36 1579.87,872.386 1605.38,766.528 1630.88,763.404 1656.39,700.798 1681.89,632.416 1707.4,735.751 1732.9,838.107 1758.41,854.791 1783.91,855.326 1809.42,1043.75 1834.92,1153.93 1860.43,1094.84 1885.93,1111.9 1911.44,1187.95 1936.94,1188.36 1962.45,1146.52 1987.95,1092.83 2013.46,969.8 2038.96,849.916 2064.47,705.759 2089.97,644.523 2115.48,569.421 2140.98,609.294 2166.49,350.647 2191.99,494.482 2217.5,461.979 2243,516.884 2268.51,662.322 2294.02,845.877 2319.52,837.554 2345.03,930.809 2370.53,950.269 2396.04,937.368 2421.54,955.235 2447.05,962.461 2472.55,875.614 2498.06,822.144 2523.56,694.864 2549.07,791.626 2574.57,547.852 2600.08,578.02 2625.58,403.594 2651.09,370.275 2676.59,240.409 2702.1,349.81 2727.6,367.98 2753.11,374.416 2778.61,443.087 2804.12,577.661 2829.62,714.9 2855.13,713.327 2880.63,711.542 "></polyline>
<path clip-path="url(#clip032)" d="M585.17 1156.26 L610.675 1118.18 L636.181 1090.83 L661.686 1077.01 L687.191 1111.45 L712.696 1183.8 L738.201 1267.56 L763.706 1349.81 L789.212 1379.77 L814.717 1488.41 L840.222 1524.06 L865.727 1545.48 L891.232 1558.5 L916.737 1550.44 L942.242 1501.81 L967.748 1456.94 L993.253 1393.46 L1018.76 1301.87 L1044.26 1191.77 L1069.77 1107.11 L1095.27 1021.32 L1120.78 964.742 L1146.28 878.689 L1171.79 902.965 L1197.29 938.233 L1222.8 969.346 L1248.3 1022.38 L1273.81 1092.04 L1299.31 1185.14 L1324.82 1260.03 L1350.32 1290.13 L1375.83 1355.12 L1401.34 1385.77 L1426.84 1368.76 L1452.35 1378.32 L1477.85 1325.37 L1503.36 1245.51 L1528.86 1094 L1554.37 1067.98 L1579.87 966.992 L1605.38 870.376 L1630.88 805.779 L1656.39 779.867 L1681.89 738.341 L1707.4 765.258 L1732.9 781.272 L1758.41 830.07 L1783.91 909.934 L1809.42 995.642 L1834.92 1054.25 L1860.43 1126.6 L1885.93 1177.24 L1911.44 1221.42 L1936.94 1240.99 L1962.45 1183.23 L1987.95 1134.48 L2013.46 1077.28 L2038.96 962.528 L2064.47 885.32 L2089.97 812.008 L2115.48 698.055 L2140.98 598.248 L2166.49 587.638 L2191.99 562.055 L2217.5 551.627 L2243 594.107 L2268.51 668.692 L2294.02 761.237 L2319.52 809.971 L2345.03 893.851 L2370.53 985.322 L2396.04 1040.71 L2421.54 1057.5 L2447.05 1038.76 L2472.55 1029.11 L2498.06 943.934 L2523.56 867.367 L2549.07 817.439 L2574.57 668.748 L2600.08 589.326 L2625.58 485.733 L2651.09 449.342 L2676.59 402.36 L2702.1 389.577 L2727.6 384.688 L2753.11 411.446 L2778.61 481.514 L2804.12 632.357 L2829.62 621.555 L2855.13 748.614 L2880.63 823.597 L2880.63 700.543 L2855.13 621.11 L2829.62 509.816 L2804.12 513.003 L2778.61 362.629 L2753.11 315.999 L2727.6 289.455 L2702.1 288.462 L2676.59 305.96 L2651.09 343.092 L2625.58 372.577 L2600.08 477.233 L2574.57 549.571 L2549.07 692.181 L2523.56 742.127 L2498.06 807.758 L2472.55 903.914 L2447.05 914.804 L2421.54 932.544 L2396.04 913.388 L2370.53 855.265 L2345.03 764.873 L2319.52 684.951 L2294.02 630.269 L2268.51 549.804 L2243 481.305 L2217.5 436.484 L2191.99 447.128 L2166.49 475.379 L2140.98 483.186 L2115.48 572.857 L2089.97 685.216 L2064.47 752.862 L2038.96 817.497 L2013.46 956.861 L1987.95 1006.09 L1962.45 1055.27 L1936.94 1119.33 L1911.44 1096.76 L1885.93 1050.27 L1860.43 1002.46 L1834.92 931.547 L1809.42 859.289 L1783.91 782.081 L1758.41 706.643 L1732.9 655.566 L1707.4 638.998 L1681.89 611.904 L1656.39 650.597 L1630.88 681.351 L1605.38 743.546 L1579.87 817.815 L1554.37 938.179 L1528.86 968.65 L1503.36 1123.85 L1477.85 1212.04 L1452.35 1261.44 L1426.84 1253.48 L1401.34 1270.11 L1375.83 1238.25 L1350.32 1178.39 L1324.82 1133.94 L1299.31 1051.59 L1273.81 966.184 L1248.3 888.507 L1222.8 835.825 L1197.29 807.438 L1171.79 775.946 L1146.28 755.242 L1120.78 833.7 L1095.27 892.403 L1069.77 984.227 L1044.26 1054.52 L1018.76 1184.72 L993.253 1264.9 L967.748 1340.43 L942.242 1392.42 L916.737 1445.96 L891.232 1419.84 L865.727 1440.3 L840.222 1412.85 L814.717 1378.01 L789.212 1247.95 L763.706 1203.18 L738.201 1145.53 L712.696 1022.29 L687.191 987.851 L661.686 956.419 L636.181 969.698 L610.675 992.455 L585.17 1015.48  Z" fill="#ff0000" fill-rule="evenodd" fill-opacity="0.15"></path>
<polyline clip-path="url(#clip032)" style="stroke:#ff0000; stroke-linecap:round; stroke-linejoin:round; stroke-width:8; stroke-opacity:0.8; fill:none" points="585.17,1085.87 610.675,1055.32 636.181,1030.26 661.686,1016.72 687.191,1049.65 712.696,1103.04 738.201,1206.55 763.706,1276.5 789.212,1313.86 814.717,1433.21 840.222,1468.45 865.727,1492.89 891.232,1489.17 916.737,1498.2 942.242,1447.12 967.748,1398.68 993.253,1329.18 1018.76,1243.29 1044.26,1123.14 1069.77,1045.67 1095.27,956.861 1120.78,899.221 1146.28,816.966 1171.79,839.455 1197.29,872.836 1222.8,902.585 1248.3,955.445 1273.81,1029.11 1299.31,1118.36 1324.82,1196.99 1350.32,1234.26 1375.83,1296.68 1401.34,1327.94 1426.84,1311.12 1452.35,1319.88 1477.85,1268.7 1503.36,1184.68 1528.86,1031.32 1554.37,1003.08 1579.87,892.403 1605.38,806.961 1630.88,743.565 1656.39,715.232 1681.89,675.123 1707.4,702.128 1732.9,718.419 1758.41,768.357 1783.91,846.007 1809.42,927.466 1834.92,992.898 1860.43,1064.53 1885.93,1113.76 1911.44,1159.09 1936.94,1180.16 1962.45,1119.25 1987.95,1070.28 2013.46,1017.07 2038.96,890.013 2064.47,819.091 2089.97,748.612 2115.48,635.456 2140.98,540.717 2166.49,531.508 2191.99,504.592 2217.5,494.055 2243,537.706 2268.51,609.248 2294.02,695.753 2319.52,747.461 2345.03,829.362 2370.53,920.294 2396.04,977.049 2421.54,995.023 2447.05,976.783 2472.55,966.512 2498.06,875.846 2523.56,804.747 2549.07,754.81 2574.57,609.159 2600.08,533.279 2625.58,429.155 2651.09,396.217 2676.59,354.16 2702.1,339.019 2727.6,337.071 2753.11,363.722 2778.61,422.071 2804.12,572.68 2829.62,565.685 2855.13,684.862 2880.63,762.07 "></polyline>
<path clip-path="url(#clip030)" d="M3202.09 454.864 L3952.76 454.864 L3952.76 247.504 L3202.09 247.504  Z" fill="#ffffff" fill-rule="evenodd" fill-opacity="1"></path>
<polyline clip-path="url(#clip030)" style="stroke:#000000; stroke-linecap:round; stroke-linejoin:round; stroke-width:4; stroke-opacity:1; fill:none" points="3202.09,454.864 3952.76,454.864 3952.76,247.504 3202.09,247.504 3202.09,454.864 "></polyline>
<polyline clip-path="url(#clip030)" style="stroke:#000000; stroke-linecap:round; stroke-linejoin:round; stroke-width:8; stroke-opacity:1; fill:none" stroke-dasharray="4, 8" points="3241.48,299.344 3477.84,299.344 "></polyline>
<path clip-path="url(#clip030)" d="M3533.25 285.235 Q3528.16 285.235 3525.15 289.031 Q3522.16 292.828 3522.16 299.378 Q3522.16 305.906 3525.15 309.702 Q3528.16 313.499 3533.25 313.499 Q3538.34 313.499 3541.3 309.702 Q3544.29 305.906 3544.29 299.378 Q3544.29 292.828 3541.3 289.031 Q3538.34 285.235 3533.25 285.235 M3533.25 281.439 Q3540.52 281.439 3544.87 286.323 Q3549.22 291.184 3549.22 299.378 Q3549.22 307.55 3544.87 312.434 Q3540.52 317.295 3533.25 317.295 Q3525.96 317.295 3521.58 312.434 Q3517.23 307.573 3517.23 299.378 Q3517.23 291.184 3521.58 286.323 Q3525.96 281.439 3533.25 281.439 Z" fill="#000000" fill-rule="nonzero" fill-opacity="1"></path><path clip-path="url(#clip030)" d="M3574.96 303.684 Q3574.96 298.985 3573.02 296.323 Q3571.1 293.638 3567.72 293.638 Q3564.34 293.638 3562.39 296.323 Q3560.47 298.985 3560.47 303.684 Q3560.47 308.383 3562.39 311.068 Q3564.34 313.73 3567.72 313.73 Q3571.1 313.73 3573.02 311.068 Q3574.96 308.383 3574.96 303.684 M3560.47 294.633 Q3561.81 292.318 3563.85 291.207 Q3565.91 290.073 3568.76 290.073 Q3573.48 290.073 3576.42 293.823 Q3579.38 297.573 3579.38 303.684 Q3579.38 309.795 3576.42 313.545 Q3573.48 317.295 3568.76 317.295 Q3565.91 317.295 3563.85 316.184 Q3561.81 315.05 3560.47 312.735 L3560.47 316.624 L3556.19 316.624 L3556.19 280.605 L3560.47 280.605 L3560.47 294.633 Z" fill="#000000" fill-rule="nonzero" fill-opacity="1"></path><path clip-path="url(#clip030)" d="M3602.97 291.462 L3602.97 295.49 Q3601.17 294.564 3599.22 294.101 Q3597.28 293.638 3595.19 293.638 Q3592.02 293.638 3590.42 294.61 Q3588.85 295.582 3588.85 297.527 Q3588.85 299.008 3589.99 299.865 Q3591.12 300.698 3594.55 301.462 L3596 301.786 Q3600.54 302.758 3602.44 304.54 Q3604.36 306.3 3604.36 309.471 Q3604.36 313.082 3601.49 315.189 Q3598.64 317.295 3593.64 317.295 Q3591.56 317.295 3589.29 316.878 Q3587.05 316.485 3584.55 315.675 L3584.55 311.277 Q3586.91 312.503 3589.2 313.128 Q3591.49 313.73 3593.74 313.73 Q3596.74 313.73 3598.36 312.712 Q3599.99 311.67 3599.99 309.795 Q3599.99 308.059 3598.8 307.133 Q3597.65 306.207 3593.69 305.351 L3592.21 305.003 Q3588.25 304.17 3586.49 302.457 Q3584.73 300.721 3584.73 297.712 Q3584.73 294.054 3587.32 292.064 Q3589.92 290.073 3594.68 290.073 Q3597.05 290.073 3599.13 290.42 Q3601.21 290.767 3602.97 291.462 Z" fill="#000000" fill-rule="nonzero" fill-opacity="1"></path><path clip-path="url(#clip030)" d="M3633.32 302.596 L3633.32 304.679 L3613.74 304.679 Q3614.01 309.077 3616.37 311.392 Q3618.76 313.684 3622.99 313.684 Q3625.45 313.684 3627.74 313.082 Q3630.05 312.48 3632.32 311.277 L3632.32 315.304 Q3630.03 316.276 3627.62 316.786 Q3625.22 317.295 3622.74 317.295 Q3616.54 317.295 3612.9 313.684 Q3609.29 310.073 3609.29 303.915 Q3609.29 297.55 3612.72 293.823 Q3616.17 290.073 3622 290.073 Q3627.23 290.073 3630.26 293.453 Q3633.32 296.809 3633.32 302.596 M3629.06 301.346 Q3629.01 297.851 3627.09 295.767 Q3625.19 293.684 3622.05 293.684 Q3618.48 293.684 3616.33 295.698 Q3614.2 297.712 3613.87 301.369 L3629.06 301.346 Z" fill="#000000" fill-rule="nonzero" fill-opacity="1"></path><path clip-path="url(#clip030)" d="M3655.33 294.679 Q3654.61 294.263 3653.76 294.078 Q3652.92 293.869 3651.91 293.869 Q3648.3 293.869 3646.35 296.23 Q3644.43 298.568 3644.43 302.966 L3644.43 316.624 L3640.15 316.624 L3640.15 290.698 L3644.43 290.698 L3644.43 294.726 Q3645.77 292.365 3647.92 291.23 Q3650.08 290.073 3653.16 290.073 Q3653.6 290.073 3654.13 290.142 Q3654.66 290.189 3655.31 290.304 L3655.33 294.679 Z" fill="#000000" fill-rule="nonzero" fill-opacity="1"></path><path clip-path="url(#clip030)" d="M3656.74 290.698 L3661.26 290.698 L3669.36 312.457 L3677.46 290.698 L3681.98 290.698 L3672.25 316.624 L3666.47 316.624 L3656.74 290.698 Z" fill="#000000" fill-rule="nonzero" fill-opacity="1"></path><path clip-path="url(#clip030)" d="M3710.03 302.596 L3710.03 304.679 L3690.45 304.679 Q3690.73 309.077 3693.09 311.392 Q3695.47 313.684 3699.71 313.684 Q3702.16 313.684 3704.45 313.082 Q3706.77 312.48 3709.04 311.277 L3709.04 315.304 Q3706.74 316.276 3704.34 316.786 Q3701.93 317.295 3699.45 317.295 Q3693.25 317.295 3689.61 313.684 Q3686 310.073 3686 303.915 Q3686 297.55 3689.43 293.823 Q3692.88 290.073 3698.71 290.073 Q3703.94 290.073 3706.98 293.453 Q3710.03 296.809 3710.03 302.596 M3705.77 301.346 Q3705.73 297.851 3703.8 295.767 Q3701.91 293.684 3698.76 293.684 Q3695.19 293.684 3693.04 295.698 Q3690.91 297.712 3690.59 301.369 L3705.77 301.346 Z" fill="#000000" fill-rule="nonzero" fill-opacity="1"></path><path clip-path="url(#clip030)" d="M3734.08 294.633 L3734.08 280.605 L3738.34 280.605 L3738.34 316.624 L3734.08 316.624 L3734.08 312.735 Q3732.74 315.05 3730.68 316.184 Q3728.64 317.295 3725.77 317.295 Q3721.07 317.295 3718.11 313.545 Q3715.17 309.795 3715.17 303.684 Q3715.17 297.573 3718.11 293.823 Q3721.07 290.073 3725.77 290.073 Q3728.64 290.073 3730.68 291.207 Q3732.74 292.318 3734.08 294.633 M3719.57 303.684 Q3719.57 308.383 3721.49 311.068 Q3723.43 313.73 3726.81 313.73 Q3730.19 313.73 3732.14 311.068 Q3734.08 308.383 3734.08 303.684 Q3734.08 298.985 3732.14 296.323 Q3730.19 293.638 3726.81 293.638 Q3723.43 293.638 3721.49 296.323 Q3719.57 298.985 3719.57 303.684 Z" fill="#000000" fill-rule="nonzero" fill-opacity="1"></path><polyline clip-path="url(#clip030)" style="stroke:#000000; stroke-linecap:round; stroke-linejoin:round; stroke-width:8; stroke-opacity:0.3; fill:none" points="3241.48,351.184 3477.84,351.184 "></polyline>
<path clip-path="url(#clip030)" d="M3542.79 363.533 L3542.79 354.251 L3535.15 354.251 L3535.15 350.408 L3547.42 350.408 L3547.42 365.246 Q3544.71 367.167 3541.44 368.163 Q3538.18 369.135 3534.48 369.135 Q3526.37 369.135 3521.79 364.413 Q3517.23 359.667 3517.23 351.218 Q3517.23 342.746 3521.79 338.024 Q3526.37 333.279 3534.48 333.279 Q3537.86 333.279 3540.89 334.112 Q3543.94 334.945 3546.51 336.566 L3546.51 341.543 Q3543.92 339.343 3541 338.232 Q3538.09 337.121 3534.87 337.121 Q3528.53 337.121 3525.33 340.663 Q3522.16 344.205 3522.16 351.218 Q3522.16 358.209 3525.33 361.751 Q3528.53 365.292 3534.87 365.292 Q3537.35 365.292 3539.29 364.876 Q3541.24 364.436 3542.79 363.533 Z" fill="#000000" fill-rule="nonzero" fill-opacity="1"></path><path clip-path="url(#clip030)" d="M3570.8 346.519 Q3570.08 346.103 3569.22 345.918 Q3568.39 345.709 3567.37 345.709 Q3563.76 345.709 3561.81 348.07 Q3559.89 350.408 3559.89 354.806 L3559.89 368.464 L3555.61 368.464 L3555.61 342.538 L3559.89 342.538 L3559.89 346.566 Q3561.24 344.205 3563.39 343.07 Q3565.54 341.913 3568.62 341.913 Q3569.06 341.913 3569.59 341.982 Q3570.12 342.029 3570.77 342.144 L3570.8 346.519 Z" fill="#000000" fill-rule="nonzero" fill-opacity="1"></path><path clip-path="url(#clip030)" d="M3584.27 345.524 Q3580.84 345.524 3578.85 348.209 Q3576.86 350.871 3576.86 355.524 Q3576.86 360.177 3578.83 362.862 Q3580.82 365.524 3584.27 365.524 Q3587.67 365.524 3589.66 362.839 Q3591.65 360.154 3591.65 355.524 Q3591.65 350.917 3589.66 348.232 Q3587.67 345.524 3584.27 345.524 M3584.27 341.913 Q3589.82 341.913 3592.99 345.524 Q3596.17 349.135 3596.17 355.524 Q3596.17 361.89 3592.99 365.524 Q3589.82 369.135 3584.27 369.135 Q3578.69 369.135 3575.52 365.524 Q3572.37 361.89 3572.37 355.524 Q3572.37 349.135 3575.52 345.524 Q3578.69 341.913 3584.27 341.913 Z" fill="#000000" fill-rule="nonzero" fill-opacity="1"></path><path clip-path="url(#clip030)" d="M3602.79 358.232 L3602.79 342.538 L3607.05 342.538 L3607.05 358.07 Q3607.05 361.751 3608.48 363.603 Q3609.92 365.431 3612.79 365.431 Q3616.24 365.431 3618.23 363.232 Q3620.24 361.033 3620.24 357.237 L3620.24 342.538 L3624.5 342.538 L3624.5 368.464 L3620.24 368.464 L3620.24 364.482 Q3618.69 366.843 3616.63 368.001 Q3614.59 369.135 3611.88 369.135 Q3607.42 369.135 3605.1 366.357 Q3602.79 363.579 3602.79 358.232 M3613.5 341.913 L3613.5 341.913 Z" fill="#000000" fill-rule="nonzero" fill-opacity="1"></path><path clip-path="url(#clip030)" d="M3654.82 352.816 L3654.82 368.464 L3650.56 368.464 L3650.56 352.955 Q3650.56 349.274 3649.13 347.445 Q3647.69 345.617 3644.82 345.617 Q3641.37 345.617 3639.38 347.816 Q3637.39 350.015 3637.39 353.811 L3637.39 368.464 L3633.11 368.464 L3633.11 342.538 L3637.39 342.538 L3637.39 346.566 Q3638.92 344.228 3640.98 343.07 Q3643.06 341.913 3645.77 341.913 Q3650.24 341.913 3652.53 344.691 Q3654.82 347.445 3654.82 352.816 Z" fill="#000000" fill-rule="nonzero" fill-opacity="1"></path><path clip-path="url(#clip030)" d="M3680.38 346.473 L3680.38 332.445 L3684.64 332.445 L3684.64 368.464 L3680.38 368.464 L3680.38 364.575 Q3679.04 366.89 3676.98 368.024 Q3674.94 369.135 3672.07 369.135 Q3667.37 369.135 3664.41 365.385 Q3661.47 361.635 3661.47 355.524 Q3661.47 349.413 3664.41 345.663 Q3667.37 341.913 3672.07 341.913 Q3674.94 341.913 3676.98 343.047 Q3679.04 344.158 3680.38 346.473 M3665.86 355.524 Q3665.86 360.223 3667.79 362.908 Q3669.73 365.57 3673.11 365.57 Q3676.49 365.57 3678.43 362.908 Q3680.38 360.223 3680.38 355.524 Q3680.38 350.825 3678.43 348.163 Q3676.49 345.478 3673.11 345.478 Q3669.73 345.478 3667.79 348.163 Q3665.86 350.825 3665.86 355.524 Z" fill="#000000" fill-rule="nonzero" fill-opacity="1"></path><path clip-path="url(#clip030)" d="M3712.69 335.177 L3712.69 342.538 L3721.47 342.538 L3721.47 345.848 L3712.69 345.848 L3712.69 359.922 Q3712.69 363.093 3713.55 363.996 Q3714.43 364.899 3717.09 364.899 L3721.47 364.899 L3721.47 368.464 L3717.09 368.464 Q3712.16 368.464 3710.29 366.635 Q3708.41 364.783 3708.41 359.922 L3708.41 345.848 L3705.29 345.848 L3705.29 342.538 L3708.41 342.538 L3708.41 335.177 L3712.69 335.177 Z" fill="#000000" fill-rule="nonzero" fill-opacity="1"></path><path clip-path="url(#clip030)" d="M3742.09 346.519 Q3741.37 346.103 3740.52 345.918 Q3739.68 345.709 3738.66 345.709 Q3735.05 345.709 3733.11 348.07 Q3731.19 350.408 3731.19 354.806 L3731.19 368.464 L3726.91 368.464 L3726.91 342.538 L3731.19 342.538 L3731.19 346.566 Q3732.53 344.205 3734.68 343.07 Q3736.84 341.913 3739.91 341.913 Q3740.35 341.913 3740.89 341.982 Q3741.42 342.029 3742.07 342.144 L3742.09 346.519 Z" fill="#000000" fill-rule="nonzero" fill-opacity="1"></path><path clip-path="url(#clip030)" d="M3746.12 358.232 L3746.12 342.538 L3750.38 342.538 L3750.38 358.07 Q3750.38 361.751 3751.81 363.603 Q3753.25 365.431 3756.12 365.431 Q3759.57 365.431 3761.56 363.232 Q3763.57 361.033 3763.57 357.237 L3763.57 342.538 L3767.83 342.538 L3767.83 368.464 L3763.57 368.464 L3763.57 364.482 Q3762.02 366.843 3759.96 368.001 Q3757.92 369.135 3755.22 369.135 Q3750.75 369.135 3748.43 366.357 Q3746.12 363.579 3746.12 358.232 M3756.84 341.913 L3756.84 341.913 Z" fill="#000000" fill-rule="nonzero" fill-opacity="1"></path><path clip-path="url(#clip030)" d="M3780.82 335.177 L3780.82 342.538 L3789.59 342.538 L3789.59 345.848 L3780.82 345.848 L3780.82 359.922 Q3780.82 363.093 3781.67 363.996 Q3782.55 364.899 3785.22 364.899 L3789.59 364.899 L3789.59 368.464 L3785.22 368.464 Q3780.29 368.464 3778.41 366.635 Q3776.54 364.783 3776.54 359.922 L3776.54 345.848 L3773.41 345.848 L3773.41 342.538 L3776.54 342.538 L3776.54 335.177 L3780.82 335.177 Z" fill="#000000" fill-rule="nonzero" fill-opacity="1"></path><path clip-path="url(#clip030)" d="M3816.74 352.816 L3816.74 368.464 L3812.48 368.464 L3812.48 352.955 Q3812.48 349.274 3811.05 347.445 Q3809.61 345.617 3806.74 345.617 Q3803.29 345.617 3801.3 347.816 Q3799.31 350.015 3799.31 353.811 L3799.31 368.464 L3795.03 368.464 L3795.03 332.445 L3799.31 332.445 L3799.31 346.566 Q3800.84 344.228 3802.9 343.07 Q3804.98 341.913 3807.69 341.913 Q3812.16 341.913 3814.45 344.691 Q3816.74 347.445 3816.74 352.816 Z" fill="#000000" fill-rule="nonzero" fill-opacity="1"></path><polyline clip-path="url(#clip030)" style="stroke:#ff0000; stroke-linecap:round; stroke-linejoin:round; stroke-width:8; stroke-opacity:0.8; fill:none" points="3241.48,403.024 3477.84,403.024 "></polyline>
<path clip-path="url(#clip030)" d="M3517.23 385.744 L3524.2 385.744 L3533.02 409.262 L3541.88 385.744 L3548.85 385.744 L3548.85 420.304 L3544.29 420.304 L3544.29 389.957 L3535.38 413.66 L3530.68 413.66 L3521.77 389.957 L3521.77 420.304 L3517.23 420.304 L3517.23 385.744 Z" fill="#000000" fill-rule="nonzero" fill-opacity="1"></path><path clip-path="url(#clip030)" d="M3562.81 389.586 L3562.81 402.572 L3568.69 402.572 Q3571.95 402.572 3573.74 400.883 Q3575.52 399.193 3575.52 396.068 Q3575.52 392.966 3573.74 391.276 Q3571.95 389.586 3568.69 389.586 L3562.81 389.586 M3558.13 385.744 L3568.69 385.744 Q3574.5 385.744 3577.46 388.383 Q3580.45 390.998 3580.45 396.068 Q3580.45 401.183 3577.46 403.799 Q3574.5 406.415 3568.69 406.415 L3562.81 406.415 L3562.81 420.304 L3558.13 420.304 L3558.13 385.744 Z" fill="#000000" fill-rule="nonzero" fill-opacity="1"></path><path clip-path="url(#clip030)" d="M3607.44 386.878 L3607.44 391.438 Q3604.78 390.165 3602.42 389.54 Q3600.05 388.915 3597.86 388.915 Q3594.04 388.915 3591.95 390.396 Q3589.89 391.878 3589.89 394.609 Q3589.89 396.901 3591.26 398.082 Q3592.65 399.239 3596.49 399.957 L3599.31 400.535 Q3604.55 401.531 3607.02 404.054 Q3609.52 406.554 3609.52 410.767 Q3609.52 415.79 3606.14 418.382 Q3602.79 420.975 3596.28 420.975 Q3593.83 420.975 3591.05 420.419 Q3588.3 419.864 3585.33 418.776 L3585.33 413.961 Q3588.18 415.558 3590.91 416.369 Q3593.64 417.179 3596.28 417.179 Q3600.29 417.179 3602.46 415.605 Q3604.64 414.031 3604.64 411.114 Q3604.64 408.568 3603.06 407.132 Q3601.51 405.697 3597.95 404.98 L3595.1 404.424 Q3589.87 403.382 3587.53 401.16 Q3585.19 398.938 3585.19 394.98 Q3585.19 390.396 3588.41 387.758 Q3591.65 385.119 3597.32 385.119 Q3599.75 385.119 3602.28 385.559 Q3604.8 385.998 3607.44 386.878 Z" fill="#000000" fill-rule="nonzero" fill-opacity="1"></path><path clip-path="url(#clip030)" d="M3631.88 385.744 L3636.56 385.744 L3636.56 420.304 L3631.88 420.304 L3631.88 385.744 Z" fill="#000000" fill-rule="nonzero" fill-opacity="1"></path><path clip-path="url(#clip030)" d="M3667.23 404.656 L3667.23 420.304 L3662.97 420.304 L3662.97 404.795 Q3662.97 401.114 3661.54 399.285 Q3660.1 397.457 3657.23 397.457 Q3653.78 397.457 3651.79 399.656 Q3649.8 401.855 3649.8 405.651 L3649.8 420.304 L3645.52 420.304 L3645.52 394.378 L3649.8 394.378 L3649.8 398.406 Q3651.33 396.068 3653.39 394.91 Q3655.47 393.753 3658.18 393.753 Q3662.65 393.753 3664.94 396.531 Q3667.23 399.285 3667.23 404.656 Z" fill="#000000" fill-rule="nonzero" fill-opacity="1"></path><path clip-path="url(#clip030)" d="M3679.94 387.017 L3679.94 394.378 L3688.71 394.378 L3688.71 397.688 L3679.94 397.688 L3679.94 411.762 Q3679.94 414.933 3680.79 415.836 Q3681.67 416.739 3684.34 416.739 L3688.71 416.739 L3688.71 420.304 L3684.34 420.304 Q3679.41 420.304 3677.53 418.475 Q3675.66 416.623 3675.66 411.762 L3675.66 397.688 L3672.53 397.688 L3672.53 394.378 L3675.66 394.378 L3675.66 387.017 L3679.94 387.017 Z" fill="#000000" fill-rule="nonzero" fill-opacity="1"></path><path clip-path="url(#clip030)" d="M3716.49 406.276 L3716.49 408.359 L3696.91 408.359 Q3697.18 412.757 3699.54 415.072 Q3701.93 417.364 3706.17 417.364 Q3708.62 417.364 3710.91 416.762 Q3713.23 416.16 3715.49 414.957 L3715.49 418.984 Q3713.2 419.956 3710.79 420.466 Q3708.39 420.975 3705.91 420.975 Q3699.71 420.975 3696.07 417.364 Q3692.46 413.753 3692.46 407.595 Q3692.46 401.23 3695.89 397.503 Q3699.34 393.753 3705.17 393.753 Q3710.4 393.753 3713.43 397.133 Q3716.49 400.489 3716.49 406.276 M3712.23 405.026 Q3712.18 401.531 3710.26 399.447 Q3708.36 397.364 3705.22 397.364 Q3701.65 397.364 3699.5 399.378 Q3697.37 401.392 3697.04 405.049 L3712.23 405.026 Z" fill="#000000" fill-rule="nonzero" fill-opacity="1"></path><path clip-path="url(#clip030)" d="M3738.5 398.359 Q3737.79 397.943 3736.93 397.758 Q3736.1 397.549 3735.08 397.549 Q3731.47 397.549 3729.52 399.91 Q3727.6 402.248 3727.6 406.646 L3727.6 420.304 L3723.32 420.304 L3723.32 394.378 L3727.6 394.378 L3727.6 398.406 Q3728.94 396.045 3731.1 394.91 Q3733.25 393.753 3736.33 393.753 Q3736.77 393.753 3737.3 393.822 Q3737.83 393.869 3738.48 393.984 L3738.5 398.359 Z" fill="#000000" fill-rule="nonzero" fill-opacity="1"></path><path clip-path="url(#clip030)" d="M3747.09 416.415 L3747.09 430.165 L3742.81 430.165 L3742.81 394.378 L3747.09 394.378 L3747.09 398.313 Q3748.43 395.998 3750.47 394.887 Q3752.53 393.753 3755.38 393.753 Q3760.1 393.753 3763.04 397.503 Q3766 401.253 3766 407.364 Q3766 413.475 3763.04 417.225 Q3760.1 420.975 3755.38 420.975 Q3752.53 420.975 3750.47 419.864 Q3748.43 418.73 3747.09 416.415 M3761.58 407.364 Q3761.58 402.665 3759.64 400.003 Q3757.72 397.318 3754.34 397.318 Q3750.96 397.318 3749.01 400.003 Q3747.09 402.665 3747.09 407.364 Q3747.09 412.063 3749.01 414.748 Q3750.96 417.41 3754.34 417.41 Q3757.72 417.41 3759.64 414.748 Q3761.58 412.063 3761.58 407.364 Z" fill="#000000" fill-rule="nonzero" fill-opacity="1"></path><path clip-path="url(#clip030)" d="M3783.11 397.364 Q3779.68 397.364 3777.69 400.049 Q3775.7 402.711 3775.7 407.364 Q3775.7 412.017 3777.67 414.702 Q3779.66 417.364 3783.11 417.364 Q3786.51 417.364 3788.5 414.679 Q3790.49 411.994 3790.49 407.364 Q3790.49 402.757 3788.5 400.072 Q3786.51 397.364 3783.11 397.364 M3783.11 393.753 Q3788.66 393.753 3791.84 397.364 Q3795.01 400.975 3795.01 407.364 Q3795.01 413.73 3791.84 417.364 Q3788.66 420.975 3783.11 420.975 Q3777.53 420.975 3774.36 417.364 Q3771.21 413.73 3771.21 407.364 Q3771.21 400.975 3774.36 397.364 Q3777.53 393.753 3783.11 393.753 Z" fill="#000000" fill-rule="nonzero" fill-opacity="1"></path><path clip-path="url(#clip030)" d="M3802.07 384.285 L3806.33 384.285 L3806.33 420.304 L3802.07 420.304 L3802.07 384.285 Z" fill="#000000" fill-rule="nonzero" fill-opacity="1"></path><path clip-path="url(#clip030)" d="M3827.02 407.271 Q3821.86 407.271 3819.87 408.452 Q3817.88 409.632 3817.88 412.48 Q3817.88 414.748 3819.36 416.091 Q3820.86 417.41 3823.43 417.41 Q3826.97 417.41 3829.1 414.91 Q3831.26 412.387 3831.26 408.22 L3831.26 407.271 L3827.02 407.271 M3835.52 405.512 L3835.52 420.304 L3831.26 420.304 L3831.26 416.369 Q3829.8 418.73 3827.62 419.864 Q3825.45 420.975 3822.3 420.975 Q3818.32 420.975 3815.96 418.753 Q3813.62 416.507 3813.62 412.757 Q3813.62 408.382 3816.53 406.16 Q3819.47 403.938 3825.28 403.938 L3831.26 403.938 L3831.26 403.521 Q3831.26 400.582 3829.31 398.984 Q3827.39 397.364 3823.9 397.364 Q3821.67 397.364 3819.57 397.896 Q3817.46 398.429 3815.52 399.494 L3815.52 395.558 Q3817.85 394.656 3820.05 394.216 Q3822.25 393.753 3824.34 393.753 Q3829.96 393.753 3832.74 396.67 Q3835.52 399.586 3835.52 405.512 Z" fill="#000000" fill-rule="nonzero" fill-opacity="1"></path><path clip-path="url(#clip030)" d="M3848.5 387.017 L3848.5 394.378 L3857.28 394.378 L3857.28 397.688 L3848.5 397.688 L3848.5 411.762 Q3848.5 414.933 3849.36 415.836 Q3850.24 416.739 3852.9 416.739 L3857.28 416.739 L3857.28 420.304 L3852.9 420.304 Q3847.97 420.304 3846.09 418.475 Q3844.22 416.623 3844.22 411.762 L3844.22 397.688 L3841.09 397.688 L3841.09 394.378 L3844.22 394.378 L3844.22 387.017 L3848.5 387.017 Z" fill="#000000" fill-rule="nonzero" fill-opacity="1"></path><path clip-path="url(#clip030)" d="M3885.05 406.276 L3885.05 408.359 L3865.47 408.359 Q3865.75 412.757 3868.11 415.072 Q3870.49 417.364 3874.73 417.364 Q3877.18 417.364 3879.47 416.762 Q3881.79 416.16 3884.06 414.957 L3884.06 418.984 Q3881.77 419.956 3879.36 420.466 Q3876.95 420.975 3874.47 420.975 Q3868.27 420.975 3864.64 417.364 Q3861.03 413.753 3861.03 407.595 Q3861.03 401.23 3864.45 397.503 Q3867.9 393.753 3873.73 393.753 Q3878.97 393.753 3882 397.133 Q3885.05 400.489 3885.05 406.276 M3880.79 405.026 Q3880.75 401.531 3878.83 399.447 Q3876.93 397.364 3873.78 397.364 Q3870.22 397.364 3868.06 399.378 Q3865.93 401.392 3865.61 405.049 L3880.79 405.026 Z" fill="#000000" fill-rule="nonzero" fill-opacity="1"></path><path clip-path="url(#clip030)" d="M3909.1 398.313 L3909.1 384.285 L3913.36 384.285 L3913.36 420.304 L3909.1 420.304 L3909.1 416.415 Q3907.76 418.73 3905.7 419.864 Q3903.66 420.975 3900.79 420.975 Q3896.09 420.975 3893.13 417.225 Q3890.19 413.475 3890.19 407.364 Q3890.19 401.253 3893.13 397.503 Q3896.09 393.753 3900.79 393.753 Q3903.66 393.753 3905.7 394.887 Q3907.76 395.998 3909.1 398.313 M3894.59 407.364 Q3894.59 412.063 3896.51 414.748 Q3898.46 417.41 3901.84 417.41 Q3905.21 417.41 3907.16 414.748 Q3909.1 412.063 3909.1 407.364 Q3909.1 402.665 3907.16 400.003 Q3905.21 397.318 3901.84 397.318 Q3898.46 397.318 3896.51 400.003 Q3894.59 402.665 3894.59 407.364 Z" fill="#000000" fill-rule="nonzero" fill-opacity="1"></path></svg>