<?xml version="1.0" encoding="utf-8"?>
<svg xmlns="http://www.w3.org/2000/svg" xmlns:xlink="http://www.w3.org/1999/xlink" width="700" height="500" viewBox="0 0 2800 2000">
<defs>
  <clipPath id="clip520">
    <rect x="0" y="0" width="2800" height="2000"/>
  </clipPath>
</defs>
<path clip-path="url(#clip520)" d="M0 2000 L2800 2000 L2800 -4.44089e-14 L0 -4.44089e-14  Z" fill="#ffffff" fill-rule="evenodd" fill-opacity="1"/>
<defs>
  <clipPath id="clip521">
    <rect x="560" y="0" width="1961" height="1961"/>
  </clipPath>
</defs>
<path clip-path="url(#clip520)" d="M431.91 1515.12 L2752.76 1515.12 L2752.76 47.2441 L431.91 47.2441  Z" fill="#ffffff" fill-rule="evenodd" fill-opacity="1"/>
<defs>
  <clipPath id="clip522">
    <rect x="431" y="47" width="2322" height="1469"/>
  </clipPath>
</defs>
<polyline clip-path="url(#clip522)" style="stroke:#000000; stroke-linecap:round; stroke-linejoin:round; stroke-width:2; stroke-opacity:0.1; fill:none" points="866.465,1515.12 866.465,47.2441 "/>
<polyline clip-path="url(#clip522)" style="stroke:#000000; stroke-linecap:round; stroke-linejoin:round; stroke-width:2; stroke-opacity:0.1; fill:none" points="1658.03,1515.12 1658.03,47.2441 "/>
<polyline clip-path="url(#clip522)" style="stroke:#000000; stroke-linecap:round; stroke-linejoin:round; stroke-width:2; stroke-opacity:0.1; fill:none" points="2449.6,1515.12 2449.6,47.2441 "/>
<polyline clip-path="url(#clip522)" style="stroke:#000000; stroke-linecap:round; stroke-linejoin:round; stroke-width:2; stroke-opacity:0.1; fill:none" points="431.91,1515.12 2752.76,1515.12 "/>
<polyline clip-path="url(#clip522)" style="stroke:#000000; stroke-linecap:round; stroke-linejoin:round; stroke-width:2; stroke-opacity:0.1; fill:none" points="431.91,1138.74 2752.76,1138.74 "/>
<polyline clip-path="url(#clip522)" style="stroke:#000000; stroke-linecap:round; stroke-linejoin:round; stroke-width:2; stroke-opacity:0.1; fill:none" points="431.91,762.362 2752.76,762.362 "/>
<polyline clip-path="url(#clip522)" style="stroke:#000000; stroke-linecap:round; stroke-linejoin:round; stroke-width:2; stroke-opacity:0.1; fill:none" points="431.91,385.984 2752.76,385.984 "/>
<polyline clip-path="url(#clip520)" style="stroke:#000000; stroke-linecap:round; stroke-linejoin:round; stroke-width:4; stroke-opacity:1; fill:none" points="431.91,1515.12 2752.76,1515.12 "/>
<polyline clip-path="url(#clip520)" style="stroke:#000000; stroke-linecap:round; stroke-linejoin:round; stroke-width:4; stroke-opacity:1; fill:none" points="866.465,1515.12 866.465,1496.22 "/>
<polyline clip-path="url(#clip520)" style="stroke:#000000; stroke-linecap:round; stroke-linejoin:round; stroke-width:4; stroke-opacity:1; fill:none" points="1658.03,1515.12 1658.03,1496.22 "/>
<polyline clip-path="url(#clip520)" style="stroke:#000000; stroke-linecap:round; stroke-linejoin:round; stroke-width:4; stroke-opacity:1; fill:none" points="2449.6,1515.12 2449.6,1496.22 "/>
<path clip-path="url(#clip520)" d="M763.512 1562.36 L776.955 1562.36 L776.955 1661.72 L763.512 1661.72 L763.512 1562.36 Z" fill="#000000" fill-rule="nonzero" fill-opacity="1" /><path clip-path="url(#clip520)" d="M817.151 1573.4 L817.151 1610.74 L834.055 1610.74 Q843.439 1610.74 848.563 1605.88 Q853.688 1601.02 853.688 1592.04 Q853.688 1583.12 848.563 1578.26 Q843.439 1573.4 834.055 1573.4 L817.151 1573.4 M803.708 1562.36 L834.055 1562.36 Q850.759 1562.36 859.278 1569.94 Q867.863 1577.46 867.863 1592.04 Q867.863 1606.75 859.278 1614.27 Q850.759 1621.79 834.055 1621.79 L817.151 1621.79 L817.151 1661.72 L803.708 1661.72 L803.708 1562.36 Z" fill="#000000" fill-rule="nonzero" fill-opacity="1" /><path clip-path="url(#clip520)" d="M899.341 1573.4 L899.341 1650.67 L915.58 1650.67 Q936.144 1650.67 945.66 1641.35 Q955.244 1632.04 955.244 1611.94 Q955.244 1591.97 945.66 1582.72 Q936.144 1573.4 915.58 1573.4 L899.341 1573.4 M885.898 1562.36 L913.517 1562.36 Q942.399 1562.36 955.909 1574.4 Q969.419 1586.38 969.419 1611.94 Q969.419 1637.63 955.843 1649.67 Q942.266 1661.72 913.517 1661.72 L885.898 1661.72 L885.898 1562.36 Z" fill="#000000" fill-rule="nonzero" fill-opacity="1" /><path clip-path="url(#clip520)" d="M1395.72 1562.36 L1458.55 1562.36 L1458.55 1573.67 L1409.17 1573.67 L1409.17 1603.09 L1456.48 1603.09 L1456.48 1614.4 L1409.17 1614.4 L1409.17 1650.4 L1459.75 1650.4 L1459.75 1661.72 L1395.72 1661.72 L1395.72 1562.36 Z" fill="#000000" fill-rule="nonzero" fill-opacity="1" /><path clip-path="url(#clip520)" d="M1556.24 1570.01 L1556.24 1584.19 Q1549.46 1577.86 1541.74 1574.74 Q1534.08 1571.61 1525.43 1571.61 Q1508.39 1571.61 1499.34 1582.06 Q1490.29 1592.44 1490.29 1612.14 Q1490.29 1631.77 1499.34 1642.22 Q1508.39 1652.6 1525.43 1652.6 Q1534.08 1652.6 1541.74 1649.47 Q1549.46 1646.34 1556.24 1640.02 L1556.24 1654.06 Q1549.19 1658.86 1541.27 1661.25 Q1533.42 1663.65 1524.63 1663.65 Q1502.07 1663.65 1489.09 1649.87 Q1476.12 1636.03 1476.12 1612.14 Q1476.12 1588.18 1489.09 1574.4 Q1502.07 1560.56 1524.63 1560.56 Q1533.55 1560.56 1541.4 1562.96 Q1549.32 1565.29 1556.24 1570.01 Z" fill="#000000" fill-rule="nonzero" fill-opacity="1" /><path clip-path="url(#clip520)" d="M1644.76 1647.54 L1644.76 1620.86 L1622.79 1620.86 L1622.79 1609.81 L1658.07 1609.81 L1658.07 1652.47 Q1650.28 1657.99 1640.9 1660.85 Q1631.51 1663.65 1620.86 1663.65 Q1597.57 1663.65 1584.4 1650.07 Q1571.28 1636.43 1571.28 1612.14 Q1571.28 1587.78 1584.4 1574.2 Q1597.57 1560.56 1620.86 1560.56 Q1630.58 1560.56 1639.3 1562.96 Q1648.08 1565.35 1655.47 1570.01 L1655.47 1584.32 Q1648.02 1578 1639.63 1574.8 Q1631.25 1571.61 1622 1571.61 Q1603.76 1571.61 1594.58 1581.79 Q1585.46 1591.97 1585.46 1612.14 Q1585.46 1632.24 1594.58 1642.42 Q1603.76 1652.6 1622 1652.6 Q1629.12 1652.6 1634.71 1651.4 Q1640.3 1650.14 1644.76 1647.54 Z" fill="#000000" fill-rule="nonzero" fill-opacity="1" /><path clip-path="url(#clip520)" d="M1695.4 1650.4 L1742.32 1650.4 L1742.32 1661.72 L1679.23 1661.72 L1679.23 1650.4 Q1686.88 1642.48 1700.06 1629.17 Q1713.3 1615.8 1716.7 1611.94 Q1723.15 1604.68 1725.68 1599.69 Q1728.28 1594.63 1728.28 1589.78 Q1728.28 1581.86 1722.69 1576.87 Q1717.16 1571.87 1708.25 1571.87 Q1701.92 1571.87 1694.87 1574.07 Q1687.88 1576.27 1679.9 1580.73 L1679.9 1567.15 Q1688.01 1563.89 1695.07 1562.22 Q1702.12 1560.56 1707.98 1560.56 Q1723.42 1560.56 1732.6 1568.28 Q1741.79 1576 1741.79 1588.91 Q1741.79 1595.03 1739.46 1600.56 Q1737.2 1606.01 1731.14 1613.47 Q1729.48 1615.4 1720.56 1624.65 Q1711.64 1633.83 1695.4 1650.4 Z" fill="#000000" fill-rule="nonzero" fill-opacity="1" /><path clip-path="url(#clip520)" d="M1799.29 1571.21 Q1788.9 1571.21 1783.65 1581.46 Q1778.46 1591.64 1778.46 1612.14 Q1778.46 1632.57 1783.65 1642.82 Q1788.9 1653 1799.29 1653 Q1809.74 1653 1814.93 1642.82 Q1820.18 1632.57 1820.18 1612.14 Q1820.18 1591.64 1814.93 1581.46 Q1809.74 1571.21 1799.29 1571.21 M1799.29 1560.56 Q1815.99 1560.56 1824.78 1573.8 Q1833.63 1586.98 1833.63 1612.14 Q1833.63 1637.23 1824.78 1650.47 Q1815.99 1663.65 1799.29 1663.65 Q1782.58 1663.65 1773.73 1650.47 Q1764.95 1637.23 1764.95 1612.14 Q1764.95 1586.98 1773.73 1573.8 Q1782.58 1560.56 1799.29 1560.56 Z" fill="#000000" fill-rule="nonzero" fill-opacity="1" /><path clip-path="url(#clip520)" d="M1886 1571.21 Q1875.62 1571.21 1870.36 1581.46 Q1865.17 1591.64 1865.17 1612.14 Q1865.17 1632.57 1870.36 1642.82 Q1875.62 1653 1886 1653 Q1896.45 1653 1901.64 1642.82 Q1906.9 1632.57 1906.9 1612.14 Q1906.9 1591.64 1901.64 1581.46 Q1896.45 1571.21 1886 1571.21 M1886 1560.56 Q1902.71 1560.56 1911.49 1573.8 Q1920.34 1586.98 1920.34 1612.14 Q1920.34 1637.23 1911.49 1650.47 Q1902.71 1663.65 1886 1663.65 Q1869.3 1663.65 1860.45 1650.47 Q1851.66 1637.23 1851.66 1612.14 Q1851.66 1586.98 1860.45 1573.8 Q1869.3 1560.56 1886 1560.56 Z" fill="#000000" fill-rule="nonzero" fill-opacity="1" /><path clip-path="url(#clip520)" d="M2240.93 1562.36 L2254.38 1562.36 L2254.38 1604.35 L2298.96 1562.36 L2316.27 1562.36 L2266.95 1608.68 L2319.79 1661.72 L2302.09 1661.72 L2254.38 1613.87 L2254.38 1661.72 L2240.93 1661.72 L2240.93 1562.36 Z" fill="#000000" fill-rule="nonzero" fill-opacity="1" /><path clip-path="url(#clip520)" d="M2386.74 1621.39 L2386.74 1627.38 L2330.44 1627.38 Q2331.24 1640.02 2338.03 1646.68 Q2344.88 1653.27 2357.06 1653.27 Q2364.12 1653.27 2370.71 1651.53 Q2377.36 1649.8 2383.88 1646.34 L2383.88 1657.92 Q2377.29 1660.72 2370.37 1662.18 Q2363.45 1663.65 2356.33 1663.65 Q2338.5 1663.65 2328.05 1653.27 Q2317.66 1642.88 2317.66 1625.18 Q2317.66 1606.88 2327.51 1596.16 Q2337.43 1585.38 2354.2 1585.38 Q2369.24 1585.38 2377.96 1595.1 Q2386.74 1604.75 2386.74 1621.39 M2374.5 1617.79 Q2374.37 1607.74 2368.84 1601.76 Q2363.38 1595.77 2354.33 1595.77 Q2344.09 1595.77 2337.9 1601.56 Q2331.77 1607.35 2330.84 1617.86 L2374.5 1617.79 Z" fill="#000000" fill-rule="nonzero" fill-opacity="1" /><path clip-path="url(#clip520)" d="M2418.69 1650.54 L2418.69 1690.07 L2406.38 1690.07 L2406.38 1587.18 L2418.69 1587.18 L2418.69 1598.49 Q2422.55 1591.84 2428.4 1588.64 Q2434.33 1585.38 2442.51 1585.38 Q2456.09 1585.38 2464.54 1596.16 Q2473.06 1606.95 2473.06 1624.52 Q2473.06 1642.08 2464.54 1652.87 Q2456.09 1663.65 2442.51 1663.65 Q2434.33 1663.65 2428.4 1660.45 Q2422.55 1657.19 2418.69 1650.54 M2460.35 1624.52 Q2460.35 1611.01 2454.76 1603.35 Q2449.24 1595.63 2439.52 1595.63 Q2429.8 1595.63 2424.21 1603.35 Q2418.69 1611.01 2418.69 1624.52 Q2418.69 1638.03 2424.21 1645.75 Q2429.8 1653.4 2439.52 1653.4 Q2449.24 1653.4 2454.76 1645.75 Q2460.35 1638.03 2460.35 1624.52 Z" fill="#000000" fill-rule="nonzero" fill-opacity="1" /><path clip-path="url(#clip520)" d="M2493.36 1558.16 L2505.6 1558.16 L2505.6 1661.72 L2493.36 1661.72 L2493.36 1558.16 Z" fill="#000000" fill-rule="nonzero" fill-opacity="1" /><path clip-path="url(#clip520)" d="M2594.98 1621.39 L2594.98 1627.38 L2538.68 1627.38 Q2539.48 1640.02 2546.27 1646.68 Q2553.12 1653.27 2565.3 1653.27 Q2572.35 1653.27 2578.94 1651.53 Q2585.6 1649.8 2592.12 1646.34 L2592.12 1657.92 Q2585.53 1660.72 2578.61 1662.18 Q2571.69 1663.65 2564.57 1663.65 Q2546.73 1663.65 2536.28 1653.27 Q2525.9 1642.88 2525.9 1625.18 Q2525.9 1606.88 2535.75 1596.16 Q2545.67 1585.38 2562.44 1585.38 Q2577.48 1585.38 2586.2 1595.1 Q2594.98 1604.75 2594.98 1621.39 M2582.74 1617.79 Q2582.6 1607.74 2577.08 1601.76 Q2571.62 1595.77 2562.57 1595.77 Q2552.32 1595.77 2546.13 1601.56 Q2540.01 1607.35 2539.08 1617.86 L2582.74 1617.79 Z" fill="#000000" fill-rule="nonzero" fill-opacity="1" /><path clip-path="url(#clip520)" d="M2658.27 1598.63 Q2656.21 1597.43 2653.75 1596.9 Q2651.35 1596.3 2648.42 1596.3 Q2638.04 1596.3 2632.45 1603.09 Q2626.93 1609.81 2626.93 1622.45 L2626.93 1661.72 L2614.61 1661.72 L2614.61 1587.18 L2626.93 1587.18 L2626.93 1598.76 Q2630.79 1591.97 2636.97 1588.71 Q2643.16 1585.38 2652.01 1585.38 Q2653.28 1585.38 2654.81 1585.58 Q2656.34 1585.72 2658.2 1586.05 L2658.27 1598.63 Z" fill="#000000" fill-rule="nonzero" fill-opacity="1" /><path clip-path="url(#clip520)" d="M1394.44 1762.17 L1394.44 1721.84 L1406.69 1721.84 L1406.69 1825.39 L1394.44 1825.39 L1394.44 1814.21 Q1390.59 1820.86 1384.66 1824.12 Q1378.81 1827.32 1370.55 1827.32 Q1357.04 1827.32 1348.53 1816.54 Q1340.07 1805.76 1340.07 1788.19 Q1340.07 1770.62 1348.53 1759.84 Q1357.04 1749.06 1370.55 1749.06 Q1378.81 1749.06 1384.66 1752.32 Q1390.59 1755.51 1394.44 1762.17 M1352.72 1788.19 Q1352.72 1801.7 1358.24 1809.42 Q1363.83 1817.07 1373.55 1817.07 Q1383.26 1817.07 1388.85 1809.42 Q1394.44 1801.7 1394.44 1788.19 Q1394.44 1774.68 1388.85 1767.02 Q1383.26 1759.3 1373.55 1759.3 Q1363.83 1759.3 1358.24 1767.02 Q1352.72 1774.68 1352.72 1788.19 Z" fill="#000000" fill-rule="nonzero" fill-opacity="1" /><path clip-path="url(#clip520)" d="M1465.79 1787.92 Q1450.95 1787.92 1445.22 1791.32 Q1439.5 1794.71 1439.5 1802.9 Q1439.5 1809.42 1443.76 1813.28 Q1448.08 1817.07 1455.47 1817.07 Q1465.65 1817.07 1471.78 1809.88 Q1477.97 1802.63 1477.97 1790.65 L1477.97 1787.92 L1465.79 1787.92 M1490.21 1782.86 L1490.21 1825.39 L1477.97 1825.39 L1477.97 1814.08 Q1473.77 1820.86 1467.52 1824.12 Q1461.26 1827.32 1452.21 1827.32 Q1440.76 1827.32 1433.98 1820.93 Q1427.25 1814.47 1427.25 1803.69 Q1427.25 1791.12 1435.64 1784.73 Q1444.09 1778.34 1460.8 1778.34 L1477.97 1778.34 L1477.97 1777.14 Q1477.97 1768.69 1472.38 1764.1 Q1466.85 1759.44 1456.8 1759.44 Q1450.41 1759.44 1444.36 1760.97 Q1438.3 1762.5 1432.71 1765.56 L1432.71 1754.25 Q1439.43 1751.65 1445.76 1750.39 Q1452.08 1749.06 1458.07 1749.06 Q1474.24 1749.06 1482.23 1757.44 Q1490.21 1765.83 1490.21 1782.86 Z" fill="#000000" fill-rule="nonzero" fill-opacity="1" /><path clip-path="url(#clip520)" d="M1527.55 1729.69 L1527.55 1750.85 L1552.77 1750.85 L1552.77 1760.37 L1527.55 1760.37 L1527.55 1800.83 Q1527.55 1809.95 1530.01 1812.54 Q1532.54 1815.14 1540.19 1815.14 L1552.77 1815.14 L1552.77 1825.39 L1540.19 1825.39 Q1526.02 1825.39 1520.62 1820.13 Q1515.23 1814.81 1515.23 1800.83 L1515.23 1760.37 L1506.25 1760.37 L1506.25 1750.85 L1515.23 1750.85 L1515.23 1729.69 L1527.55 1729.69 Z" fill="#000000" fill-rule="nonzero" fill-opacity="1" /><path clip-path="url(#clip520)" d="M1602.75 1787.92 Q1587.91 1787.92 1582.18 1791.32 Q1576.46 1794.71 1576.46 1802.9 Q1576.46 1809.42 1580.72 1813.28 Q1585.05 1817.07 1592.43 1817.07 Q1602.62 1817.07 1608.74 1809.88 Q1614.93 1802.63 1614.93 1790.65 L1614.93 1787.92 L1602.75 1787.92 M1627.17 1782.86 L1627.17 1825.39 L1614.93 1825.39 L1614.93 1814.08 Q1610.73 1820.86 1604.48 1824.12 Q1598.22 1827.32 1589.17 1827.32 Q1577.73 1827.32 1570.94 1820.93 Q1564.22 1814.47 1564.22 1803.69 Q1564.22 1791.12 1572.6 1784.73 Q1581.05 1778.34 1597.76 1778.34 L1614.93 1778.34 L1614.93 1777.14 Q1614.93 1768.69 1609.34 1764.1 Q1603.81 1759.44 1593.76 1759.44 Q1587.38 1759.44 1581.32 1760.97 Q1575.26 1762.5 1569.67 1765.56 L1569.67 1754.25 Q1576.39 1751.65 1582.72 1750.39 Q1589.04 1749.06 1595.03 1749.06 Q1611.2 1749.06 1619.19 1757.44 Q1627.17 1765.83 1627.17 1782.86 Z" fill="#000000" fill-rule="nonzero" fill-opacity="1" /><path clip-path="url(#clip520)" d="M1699.91 1753.05 L1699.91 1764.63 Q1694.72 1761.97 1689.13 1760.64 Q1683.54 1759.3 1677.55 1759.3 Q1668.43 1759.3 1663.84 1762.1 Q1659.32 1764.89 1659.32 1770.48 Q1659.32 1774.74 1662.58 1777.21 Q1665.84 1779.6 1675.69 1781.8 L1679.88 1782.73 Q1692.92 1785.53 1698.38 1790.65 Q1703.91 1795.71 1703.91 1804.83 Q1703.91 1815.21 1695.65 1821.26 Q1687.47 1827.32 1673.09 1827.32 Q1667.1 1827.32 1660.58 1826.12 Q1654.13 1824.99 1646.94 1822.66 L1646.94 1810.02 Q1653.73 1813.54 1660.31 1815.34 Q1666.9 1817.07 1673.36 1817.07 Q1682.01 1817.07 1686.67 1814.14 Q1691.33 1811.15 1691.33 1805.76 Q1691.33 1800.77 1687.93 1798.1 Q1684.61 1795.44 1673.23 1792.98 L1668.97 1791.98 Q1657.59 1789.59 1652.53 1784.66 Q1647.47 1779.67 1647.47 1771.02 Q1647.47 1760.5 1654.92 1754.78 Q1662.38 1749.06 1676.09 1749.06 Q1682.88 1749.06 1688.86 1750.05 Q1694.85 1751.05 1699.91 1753.05 Z" fill="#000000" fill-rule="nonzero" fill-opacity="1" /><path clip-path="url(#clip520)" d="M1787.16 1785.06 L1787.16 1791.05 L1730.86 1791.05 Q1731.66 1803.69 1738.44 1810.35 Q1745.3 1816.94 1757.48 1816.94 Q1764.53 1816.94 1771.12 1815.21 Q1777.78 1813.48 1784.3 1810.02 L1784.3 1821.6 Q1777.71 1824.39 1770.79 1825.86 Q1763.87 1827.32 1756.75 1827.32 Q1738.91 1827.32 1728.46 1816.94 Q1718.08 1806.56 1718.08 1788.85 Q1718.08 1770.55 1727.93 1759.84 Q1737.85 1749.06 1754.62 1749.06 Q1769.66 1749.06 1778.38 1758.77 Q1787.16 1768.42 1787.16 1785.06 M1774.91 1781.47 Q1774.78 1771.42 1769.26 1765.43 Q1763.8 1759.44 1754.75 1759.44 Q1744.5 1759.44 1738.31 1765.23 Q1732.19 1771.02 1731.26 1781.53 L1774.91 1781.47 Z" fill="#000000" fill-rule="nonzero" fill-opacity="1" /><path clip-path="url(#clip520)" d="M1819.37 1729.69 L1819.37 1750.85 L1844.59 1750.85 L1844.59 1760.37 L1819.37 1760.37 L1819.37 1800.83 Q1819.37 1809.95 1821.83 1812.54 Q1824.36 1815.14 1832.01 1815.14 L1844.59 1815.14 L1844.59 1825.39 L1832.01 1825.39 Q1817.84 1825.39 1812.45 1820.13 Q1807.06 1814.81 1807.06 1800.83 L1807.06 1760.37 L1798.07 1760.37 L1798.07 1750.85 L1807.06 1750.85 L1807.06 1729.69 L1819.37 1729.69 Z" fill="#000000" fill-rule="nonzero" fill-opacity="1" /><polyline clip-path="url(#clip520)" style="stroke:#000000; stroke-linecap:round; stroke-linejoin:round; stroke-width:4; stroke-opacity:1; fill:none" points="431.91,1515.12 431.91,47.2441 "/>
<polyline clip-path="url(#clip520)" style="stroke:#000000; stroke-linecap:round; stroke-linejoin:round; stroke-width:4; stroke-opacity:1; fill:none" points="431.91,1515.12 450.808,1515.12 "/>
<polyline clip-path="url(#clip520)" style="stroke:#000000; stroke-linecap:round; stroke-linejoin:round; stroke-width:4; stroke-opacity:1; fill:none" points="431.91,1138.74 450.808,1138.74 "/>
<polyline clip-path="url(#clip520)" style="stroke:#000000; stroke-linecap:round; stroke-linejoin:round; stroke-width:4; stroke-opacity:1; fill:none" points="431.91,762.362 450.808,762.362 "/>
<polyline clip-path="url(#clip520)" style="stroke:#000000; stroke-linecap:round; stroke-linejoin:round; stroke-width:4; stroke-opacity:1; fill:none" points="431.91,385.984 450.808,385.984 "/>
<path clip-path="url(#clip520)" d="M225.065 1474.29 Q214.683 1474.29 209.425 1484.54 Q204.234 1494.72 204.234 1515.22 Q204.234 1535.65 209.425 1545.9 Q214.683 1556.08 225.065 1556.08 Q235.513 1556.08 240.704 1545.9 Q245.961 1535.65 245.961 1515.22 Q245.961 1494.72 240.704 1484.54 Q235.513 1474.29 225.065 1474.29 M225.065 1463.64 Q241.769 1463.64 250.553 1476.88 Q259.405 1490.06 259.405 1515.22 Q259.405 1540.31 250.553 1553.55 Q241.769 1566.73 225.065 1566.73 Q208.36 1566.73 199.509 1553.55 Q190.724 1540.31 190.724 1515.22 Q190.724 1490.06 199.509 1476.88 Q208.36 1463.64 225.065 1463.64 Z" fill="#000000" fill-rule="nonzero" fill-opacity="1" /><path clip-path="url(#clip520)" d="M283.03 1547.89 L297.072 1547.89 L297.072 1564.8 L283.03 1564.8 L283.03 1547.89 Z" fill="#000000" fill-rule="nonzero" fill-opacity="1" /><path clip-path="url(#clip520)" d="M356.768 1509.76 Q347.717 1509.76 342.393 1515.95 Q337.136 1522.14 337.136 1532.92 Q337.136 1543.63 342.393 1549.89 Q347.717 1556.08 356.768 1556.08 Q365.819 1556.08 371.076 1549.89 Q376.4 1543.63 376.4 1532.92 Q376.4 1522.14 371.076 1515.95 Q365.819 1509.76 356.768 1509.76 M383.455 1467.63 L383.455 1479.88 Q378.397 1477.48 373.206 1476.22 Q368.082 1474.95 363.024 1474.95 Q349.714 1474.95 342.659 1483.94 Q335.672 1492.92 334.673 1511.09 Q338.6 1505.3 344.523 1502.24 Q350.446 1499.11 357.567 1499.11 Q372.541 1499.11 381.192 1508.23 Q389.91 1517.28 389.91 1532.92 Q389.91 1548.23 380.859 1557.48 Q371.809 1566.73 356.768 1566.73 Q339.531 1566.73 330.414 1553.55 Q321.297 1540.31 321.297 1515.22 Q321.297 1491.66 332.477 1477.68 Q343.658 1463.64 362.491 1463.64 Q367.549 1463.64 372.674 1464.64 Q377.865 1465.64 383.455 1467.63 Z" fill="#000000" fill-rule="nonzero" fill-opacity="1" /><path clip-path="url(#clip520)" d="M228.126 1097.91 Q217.744 1097.91 212.486 1108.16 Q207.296 1118.34 207.296 1138.84 Q207.296 1159.27 212.486 1169.52 Q217.744 1179.7 228.126 1179.7 Q238.574 1179.7 243.765 1169.52 Q249.023 1159.27 249.023 1138.84 Q249.023 1118.34 243.765 1108.16 Q238.574 1097.91 228.126 1097.91 M228.126 1087.26 Q244.83 1087.26 253.615 1100.51 Q262.466 1113.68 262.466 1138.84 Q262.466 1163.93 253.615 1177.17 Q244.83 1190.35 228.126 1190.35 Q211.422 1190.35 202.57 1177.17 Q193.786 1163.93 193.786 1138.84 Q193.786 1113.68 202.57 1100.51 Q211.422 1087.26 228.126 1087.26 Z" fill="#000000" fill-rule="nonzero" fill-opacity="1" /><path clip-path="url(#clip520)" d="M286.091 1171.52 L300.134 1171.52 L300.134 1188.42 L286.091 1188.42 L286.091 1171.52 Z" fill="#000000" fill-rule="nonzero" fill-opacity="1" /><path clip-path="url(#clip520)" d="M326.022 1089.06 L389.91 1089.06 L389.91 1094.78 L353.84 1188.42 L339.798 1188.42 L373.738 1100.37 L326.022 1100.37 L326.022 1089.06 Z" fill="#000000" fill-rule="nonzero" fill-opacity="1" /><path clip-path="url(#clip520)" d="M225.797 721.533 Q215.415 721.533 210.157 731.782 Q204.966 741.964 204.966 762.462 Q204.966 782.893 210.157 793.141 Q215.415 803.324 225.797 803.324 Q236.245 803.324 241.436 793.141 Q246.693 782.893 246.693 762.462 Q246.693 741.964 241.436 731.782 Q236.245 721.533 225.797 721.533 M225.797 710.885 Q242.501 710.885 251.285 724.128 Q260.137 737.305 260.137 762.462 Q260.137 787.551 251.285 800.795 Q242.501 813.972 225.797 813.972 Q209.092 813.972 200.241 800.795 Q191.456 787.551 191.456 762.462 Q191.456 737.305 200.241 724.128 Q209.092 710.885 225.797 710.885 Z" fill="#000000" fill-rule="nonzero" fill-opacity="1" /><path clip-path="url(#clip520)" d="M283.762 795.138 L297.804 795.138 L297.804 812.042 L283.762 812.042 L283.762 795.138 Z" fill="#000000" fill-rule="nonzero" fill-opacity="1" /><path clip-path="url(#clip520)" d="M355.836 764.857 Q346.253 764.857 340.729 769.982 Q335.272 775.106 335.272 784.091 Q335.272 793.075 340.729 798.199 Q346.253 803.324 355.836 803.324 Q365.42 803.324 370.943 798.199 Q376.467 793.008 376.467 784.091 Q376.467 775.106 370.943 769.982 Q365.486 764.857 355.836 764.857 M342.393 759.134 Q333.742 757.004 328.883 751.081 Q324.092 745.158 324.092 736.64 Q324.092 724.727 332.544 717.806 Q341.062 710.885 355.836 710.885 Q370.677 710.885 379.129 717.806 Q387.581 724.727 387.581 736.64 Q387.581 745.158 382.723 751.081 Q377.931 757.004 369.346 759.134 Q379.063 761.397 384.453 767.985 Q389.91 774.574 389.91 784.091 Q389.91 798.532 381.059 806.252 Q372.274 813.972 355.836 813.972 Q339.398 813.972 330.547 806.252 Q321.762 798.532 321.762 784.091 Q321.762 774.574 327.22 767.985 Q332.677 761.397 342.393 759.134 M337.468 737.904 Q337.468 745.624 342.26 749.95 Q347.118 754.276 355.836 754.276 Q364.488 754.276 369.346 749.95 Q374.271 745.624 374.271 737.904 Q374.271 730.185 369.346 725.859 Q364.488 721.533 355.836 721.533 Q347.118 721.533 342.26 725.859 Q337.468 730.185 337.468 737.904 Z" fill="#000000" fill-rule="nonzero" fill-opacity="1" /><path clip-path="url(#clip520)" d="M226.063 345.155 Q215.681 345.155 210.423 355.404 Q205.232 365.586 205.232 386.084 Q205.232 406.515 210.423 416.764 Q215.681 426.946 226.063 426.946 Q236.511 426.946 241.702 416.764 Q246.96 406.515 246.96 386.084 Q246.96 365.586 241.702 355.404 Q236.511 345.155 226.063 345.155 M226.063 334.507 Q242.767 334.507 251.552 347.751 Q260.403 360.928 260.403 386.084 Q260.403 411.173 251.552 424.417 Q242.767 437.594 226.063 437.594 Q209.359 437.594 200.507 424.417 Q191.723 411.173 191.723 386.084 Q191.723 360.928 200.507 347.751 Q209.359 334.507 226.063 334.507 Z" fill="#000000" fill-rule="nonzero" fill-opacity="1" /><path clip-path="url(#clip520)" d="M284.028 418.76 L298.07 418.76 L298.07 435.664 L284.028 435.664 L284.028 418.76 Z" fill="#000000" fill-rule="nonzero" fill-opacity="1" /><path clip-path="url(#clip520)" d="M327.752 433.601 L327.752 421.356 Q332.81 423.751 338.001 425.016 Q343.192 426.28 348.183 426.28 Q361.493 426.28 368.481 417.363 Q375.535 408.378 376.534 390.143 Q372.674 395.867 366.751 398.928 Q360.828 401.989 353.64 401.989 Q338.733 401.989 330.015 393.005 Q321.363 383.954 321.363 368.315 Q321.363 353.008 330.414 343.758 Q339.465 334.507 354.505 334.507 Q371.742 334.507 380.793 347.751 Q389.91 360.928 389.91 386.084 Q389.91 409.576 378.73 423.618 Q367.616 437.594 348.782 437.594 Q343.724 437.594 338.533 436.596 Q333.342 435.597 327.752 433.601 M354.505 391.474 Q363.556 391.474 368.814 385.285 Q374.138 379.096 374.138 368.315 Q374.138 357.6 368.814 351.411 Q363.556 345.155 354.505 345.155 Q345.454 345.155 340.13 351.411 Q334.873 357.6 334.873 368.315 Q334.873 379.096 340.13 385.285 Q345.454 391.474 354.505 391.474 Z" fill="#000000" fill-rule="nonzero" fill-opacity="1" /><path clip-path="url(#clip522)" d="M549.838 183.225 L549.838 3773.38 L708.152 3773.38 L708.152 183.225 L549.838 183.225 L549.838 183.225  Z" fill="#009af9" fill-rule="evenodd" fill-opacity="1"/>
<polyline clip-path="url(#clip522)" style="stroke:#000000; stroke-linecap:round; stroke-linejoin:round; stroke-width:4; stroke-opacity:1; fill:none" points="549.838,183.225 549.838,3773.38 708.152,3773.38 708.152,183.225 549.838,183.225 "/>
<path clip-path="url(#clip522)" d="M1341.41 426.131 L1341.41 3773.38 L1499.72 3773.38 L1499.72 426.131 L1341.41 426.131 L1341.41 426.131  Z" fill="#009af9" fill-rule="evenodd" fill-opacity="1"/>
<polyline clip-path="url(#clip522)" style="stroke:#000000; stroke-linecap:round; stroke-linejoin:round; stroke-width:4; stroke-opacity:1; fill:none" points="1341.41,426.131 1341.41,3773.38 1499.72,3773.38 1499.72,426.131 1341.41,426.131 "/>
<path clip-path="url(#clip522)" d="M2132.97 403.059 L2132.97 3773.38 L2291.29 3773.38 L2291.29 403.059 L2132.97 403.059 L2132.97 403.059  Z" fill="#009af9" fill-rule="evenodd" fill-opacity="1"/>
<polyline clip-path="url(#clip522)" style="stroke:#000000; stroke-linecap:round; stroke-linejoin:round; stroke-width:4; stroke-opacity:1; fill:none" points="2132.97,403.059 2132.97,3773.38 2291.29,3773.38 2291.29,403.059 2132.97,403.059 "/>
<circle clip-path="url(#clip522)" style="fill:#009af9; stroke:none; fill-opacity:0" cx="628.995" cy="183.225" r="2"/>
<circle clip-path="url(#clip522)" style="fill:#009af9; stroke:none; fill-opacity:0" cx="1420.56" cy="426.131" r="2"/>
<circle clip-path="url(#clip522)" style="fill:#009af9; stroke:none; fill-opacity:0" cx="2212.13" cy="403.059" r="2"/>
<path clip-path="url(#clip522)" d="M628.995 199.133 L628.995 167.318 L628.995 3773.38 L628.995 3773.38  Z" fill="#009af9" fill-rule="evenodd" fill-opacity="1"/>
<polyline clip-path="url(#clip522)" style="stroke:#000000; stroke-linecap:round; stroke-linejoin:round; stroke-width:4; stroke-opacity:1; fill:none" points="628.995,199.133 628.995,167.318 "/>
<path clip-path="url(#clip522)" d="M1420.56 466.911 L1420.56 385.351 L1420.56 3773.38 L1420.56 3773.38  Z" fill="#009af9" fill-rule="evenodd" fill-opacity="1"/>
<polyline clip-path="url(#clip522)" style="stroke:#000000; stroke-linecap:round; stroke-linejoin:round; stroke-width:4; stroke-opacity:1; fill:none" points="1420.56,466.911 1420.56,385.351 "/>
<path clip-path="url(#clip522)" d="M2212.13 452.317 L2212.13 353.802 L2212.13 3773.38 L2212.13 3773.38  Z" fill="#009af9" fill-rule="evenodd" fill-opacity="1"/>
<polyline clip-path="url(#clip522)" style="stroke:#000000; stroke-linecap:round; stroke-linejoin:round; stroke-width:4; stroke-opacity:1; fill:none" points="2212.13,452.317 2212.13,353.802 "/>
<line clip-path="url(#clip522)" x1="644.995" y1="199.133" x2="612.995" y2="199.133" style="stroke:#000000; stroke-width:4; stroke-opacity:1"/>
<line clip-path="url(#clip522)" x1="644.995" y1="167.318" x2="612.995" y2="167.318" style="stroke:#000000; stroke-width:4; stroke-opacity:1"/>
<line clip-path="url(#clip522)" x1="1436.56" y1="466.911" x2="1404.56" y2="466.911" style="stroke:#000000; stroke-width:4; stroke-opacity:1"/>
<line clip-path="url(#clip522)" x1="1436.56" y1="385.351" x2="1404.56" y2="385.351" style="stroke:#000000; stroke-width:4; stroke-opacity:1"/>
<line clip-path="url(#clip522)" x1="2228.13" y1="452.317" x2="2196.13" y2="452.317" style="stroke:#000000; stroke-width:4; stroke-opacity:1"/>
<line clip-path="url(#clip522)" x1="2228.13" y1="353.802" x2="2196.13" y2="353.802" style="stroke:#000000; stroke-width:4; stroke-opacity:1"/>
<path clip-path="url(#clip522)" d="M708.152 158.841 L708.152 3773.38 L866.465 3773.38 L866.465 158.841 L708.152 158.841 L708.152 158.841  Z" fill="#e26f46" fill-rule="evenodd" fill-opacity="1"/>
<polyline clip-path="url(#clip522)" style="stroke:#000000; stroke-linecap:round; stroke-linejoin:round; stroke-width:4; stroke-opacity:1; fill:none" points="708.152,158.841 708.152,3773.38 866.465,3773.38 866.465,158.841 708.152,158.841 "/>
<path clip-path="url(#clip522)" d="M1499.72 398.53 L1499.72 3773.38 L1658.03 3773.38 L1658.03 398.53 L1499.72 398.53 L1499.72 398.53  Z" fill="#e26f46" fill-rule="evenodd" fill-opacity="1"/>
<polyline clip-path="url(#clip522)" style="stroke:#000000; stroke-linecap:round; stroke-linejoin:round; stroke-width:4; stroke-opacity:1; fill:none" points="1499.72,398.53 1499.72,3773.38 1658.03,3773.38 1658.03,398.53 1499.72,398.53 "/>
<path clip-path="url(#clip522)" d="M2291.29 272.897 L2291.29 3773.38 L2449.6 3773.38 L2449.6 272.897 L2291.29 272.897 L2291.29 272.897  Z" fill="#e26f46" fill-rule="evenodd" fill-opacity="1"/>
<polyline clip-path="url(#clip522)" style="stroke:#000000; stroke-linecap:round; stroke-linejoin:round; stroke-width:4; stroke-opacity:1; fill:none" points="2291.29,272.897 2291.29,3773.38 2449.6,3773.38 2449.6,272.897 2291.29,272.897 "/>
<circle clip-path="url(#clip522)" style="fill:#e26f46; stroke:none; fill-opacity:0" cx="787.308" cy="158.841" r="2"/>
<circle clip-path="url(#clip522)" style="fill:#e26f46; stroke:none; fill-opacity:0" cx="1578.88" cy="398.53" r="2"/>
<circle clip-path="url(#clip522)" style="fill:#e26f46; stroke:none; fill-opacity:0" cx="2370.44" cy="272.897" r="2"/>
<path clip-path="url(#clip522)" d="M787.308 177.073 L787.308 140.609 L787.308 3773.38 L787.308 3773.38  Z" fill="#e26f46" fill-rule="evenodd" fill-opacity="1"/>
<polyline clip-path="url(#clip522)" style="stroke:#000000; stroke-linecap:round; stroke-linejoin:round; stroke-width:4; stroke-opacity:1; fill:none" points="787.308,177.073 787.308,140.609 "/>
<path clip-path="url(#clip522)" d="M1578.88 433.604 L1578.88 363.456 L1578.88 3773.38 L1578.88 3773.38  Z" fill="#e26f46" fill-rule="evenodd" fill-opacity="1"/>
<polyline clip-path="url(#clip522)" style="stroke:#000000; stroke-linecap:round; stroke-linejoin:round; stroke-width:4; stroke-opacity:1; fill:none" points="1578.88,433.604 1578.88,363.456 "/>
<path clip-path="url(#clip522)" d="M2370.44 311.968 L2370.44 233.826 L2370.44 3773.38 L2370.44 3773.38  Z" fill="#e26f46" fill-rule="evenodd" fill-opacity="1"/>
<polyline clip-path="url(#clip522)" style="stroke:#000000; stroke-linecap:round; stroke-linejoin:round; stroke-width:4; stroke-opacity:1; fill:none" points="2370.44,311.968 2370.44,233.826 "/>
<line clip-path="url(#clip522)" x1="803.308" y1="177.073" x2="771.308" y2="177.073" style="stroke:#000000; stroke-width:4; stroke-opacity:1"/>
<line clip-path="url(#clip522)" x1="803.308" y1="140.609" x2="771.308" y2="140.609" style="stroke:#000000; stroke-width:4; stroke-opacity:1"/>
<line clip-path="url(#clip522)" x1="1594.88" y1="433.604" x2="1562.88" y2="433.604" style="stroke:#000000; stroke-width:4; stroke-opacity:1"/>
<line clip-path="url(#clip522)" x1="1594.88" y1="363.456" x2="1562.88" y2="363.456" style="stroke:#000000; stroke-width:4; stroke-opacity:1"/>
<line clip-path="url(#clip522)" x1="2386.44" y1="311.968" x2="2354.44" y2="311.968" style="stroke:#000000; stroke-width:4; stroke-opacity:1"/>
<line clip-path="url(#clip522)" x1="2386.44" y1="233.826" x2="2354.44" y2="233.826" style="stroke:#000000; stroke-width:4; stroke-opacity:1"/>
<path clip-path="url(#clip522)" d="M866.465 301.857 L866.465 3773.38 L1024.78 3773.38 L1024.78 301.857 L866.465 301.857 L866.465 301.857  Z" fill="#3da44d" fill-rule="evenodd" fill-opacity="1"/>
<polyline clip-path="url(#clip522)" style="stroke:#000000; stroke-linecap:round; stroke-linejoin:round; stroke-width:4; stroke-opacity:1; fill:none" points="866.465,301.857 866.465,3773.38 1024.78,3773.38 1024.78,301.857 866.465,301.857 "/>
<path clip-path="url(#clip522)" d="M1658.03 789.963 L1658.03 3773.38 L1816.35 3773.38 L1816.35 789.963 L1658.03 789.963 L1658.03 789.963  Z" fill="#3da44d" fill-rule="evenodd" fill-opacity="1"/>
<polyline clip-path="url(#clip522)" style="stroke:#000000; stroke-linecap:round; stroke-linejoin:round; stroke-width:4; stroke-opacity:1; fill:none" points="1658.03,789.963 1658.03,3773.38 1816.35,3773.38 1816.35,789.963 1658.03,789.963 "/>
<path clip-path="url(#clip522)" d="M2449.6 416.735 L2449.6 3773.38 L2607.91 3773.38 L2607.91 416.735 L2449.6 416.735 L2449.6 416.735  Z" fill="#3da44d" fill-rule="evenodd" fill-opacity="1"/>
<polyline clip-path="url(#clip522)" style="stroke:#000000; stroke-linecap:round; stroke-linejoin:round; stroke-width:4; stroke-opacity:1; fill:none" points="2449.6,416.735 2449.6,3773.38 2607.91,3773.38 2607.91,416.735 2449.6,416.735 "/>
<circle clip-path="url(#clip522)" style="fill:#3da44d; stroke:none; fill-opacity:0" cx="945.622" cy="301.857" r="2"/>
<circle clip-path="url(#clip522)" style="fill:#3da44d; stroke:none; fill-opacity:0" cx="1737.19" cy="789.963" r="2"/>
<circle clip-path="url(#clip522)" style="fill:#3da44d; stroke:none; fill-opacity:0" cx="2528.76" cy="416.735" r="2"/>
<path clip-path="url(#clip522)" d="M945.622 322.568 L945.622 281.146 L945.622 3773.38 L945.622 3773.38  Z" fill="#3da44d" fill-rule="evenodd" fill-opacity="1"/>
<polyline clip-path="url(#clip522)" style="stroke:#000000; stroke-linecap:round; stroke-linejoin:round; stroke-width:4; stroke-opacity:1; fill:none" points="945.622,322.568 945.622,281.146 "/>
<path clip-path="url(#clip522)" d="M1737.19 835.387 L1737.19 744.538 L1737.19 3773.38 L1737.19 3773.38  Z" fill="#3da44d" fill-rule="evenodd" fill-opacity="1"/>
<polyline clip-path="url(#clip522)" style="stroke:#000000; stroke-linecap:round; stroke-linejoin:round; stroke-width:4; stroke-opacity:1; fill:none" points="1737.19,835.387 1737.19,744.538 "/>
<path clip-path="url(#clip522)" d="M2528.76 457.577 L2528.76 375.893 L2528.76 3773.38 L2528.76 3773.38  Z" fill="#3da44d" fill-rule="evenodd" fill-opacity="1"/>
<polyline clip-path="url(#clip522)" style="stroke:#000000; stroke-linecap:round; stroke-linejoin:round; stroke-width:4; stroke-opacity:1; fill:none" points="2528.76,457.577 2528.76,375.893 "/>
<line clip-path="url(#clip522)" x1="961.622" y1="322.568" x2="929.622" y2="322.568" style="stroke:#000000; stroke-width:4; stroke-opacity:1"/>
<line clip-path="url(#clip522)" x1="961.622" y1="281.146" x2="929.622" y2="281.146" style="stroke:#000000; stroke-width:4; stroke-opacity:1"/>
<line clip-path="url(#clip522)" x1="1753.19" y1="835.387" x2="1721.19" y2="835.387" style="stroke:#000000; stroke-width:4; stroke-opacity:1"/>
<line clip-path="url(#clip522)" x1="1753.19" y1="744.538" x2="1721.19" y2="744.538" style="stroke:#000000; stroke-width:4; stroke-opacity:1"/>
<line clip-path="url(#clip522)" x1="2544.76" y1="457.577" x2="2512.76" y2="457.577" style="stroke:#000000; stroke-width:4; stroke-opacity:1"/>
<line clip-path="url(#clip522)" x1="2544.76" y1="375.893" x2="2512.76" y2="375.893" style="stroke:#000000; stroke-width:4; stroke-opacity:1"/>
<path clip-path="url(#clip522)" d="M1024.78 148.721 L1024.78 3773.38 L1183.09 3773.38 L1183.09 148.721 L1024.78 148.721 L1024.78 148.721  Z" fill="#c271d2" fill-rule="evenodd" fill-opacity="1"/>
<polyline clip-path="url(#clip522)" style="stroke:#000000; stroke-linecap:round; stroke-linejoin:round; stroke-width:4; stroke-opacity:1; fill:none" points="1024.78,148.721 1024.78,3773.38 1183.09,3773.38 1183.09,148.721 1024.78,148.721 "/>
<path clip-path="url(#clip522)" d="M1816.35 399.785 L1816.35 3773.38 L1974.66 3773.38 L1974.66 399.785 L1816.35 399.785 L1816.35 399.785  Z" fill="#c271d2" fill-rule="evenodd" fill-opacity="1"/>
<polyline clip-path="url(#clip522)" style="stroke:#000000; stroke-linecap:round; stroke-linejoin:round; stroke-width:4; stroke-opacity:1; fill:none" points="1816.35,399.785 1816.35,3773.38 1974.66,3773.38 1974.66,399.785 1816.35,399.785 "/>
<circle clip-path="url(#clip522)" style="fill:#c271d2; stroke:none; fill-opacity:0" cx="1103.94" cy="148.721" r="2"/>
<circle clip-path="url(#clip522)" style="fill:#c271d2; stroke:none; fill-opacity:0" cx="1895.5" cy="399.785" r="2"/>
<path clip-path="url(#clip522)" d="M1103.94 157.575 L1103.94 139.867 L1103.94 3773.38 L1103.94 3773.38  Z" fill="#c271d2" fill-rule="evenodd" fill-opacity="1"/>
<polyline clip-path="url(#clip522)" style="stroke:#000000; stroke-linecap:round; stroke-linejoin:round; stroke-width:4; stroke-opacity:1; fill:none" points="1103.94,157.575 1103.94,139.867 "/>
<path clip-path="url(#clip522)" d="M1895.5 437.794 L1895.5 361.775 L1895.5 3773.38 L1895.5 3773.38  Z" fill="#c271d2" fill-rule="evenodd" fill-opacity="1"/>
<polyline clip-path="url(#clip522)" style="stroke:#000000; stroke-linecap:round; stroke-linejoin:round; stroke-width:4; stroke-opacity:1; fill:none" points="1895.5,437.794 1895.5,361.775 "/>
<line clip-path="url(#clip522)" x1="1119.94" y1="157.575" x2="1087.94" y2="157.575" style="stroke:#000000; stroke-width:4; stroke-opacity:1"/>
<line clip-path="url(#clip522)" x1="1119.94" y1="139.867" x2="1087.94" y2="139.867" style="stroke:#000000; stroke-width:4; stroke-opacity:1"/>
<line clip-path="url(#clip522)" x1="1911.5" y1="437.794" x2="1879.5" y2="437.794" style="stroke:#000000; stroke-width:4; stroke-opacity:1"/>
<line clip-path="url(#clip522)" x1="1911.5" y1="361.775" x2="1879.5" y2="361.775" style="stroke:#000000; stroke-width:4; stroke-opacity:1"/>
<path clip-path="url(#clip520)" d="M509.272 1466.19 L1070.36 1466.19 L1070.36 1206.99 L509.272 1206.99  Z" fill="#ffffff" fill-rule="evenodd" fill-opacity="1"/>
<polyline clip-path="url(#clip520)" style="stroke:#000000; stroke-linecap:round; stroke-linejoin:round; stroke-width:4; stroke-opacity:1; fill:none" points="509.272,1466.19 1070.36,1466.19 1070.36,1206.99 509.272,1206.99 509.272,1466.19 "/>
<path clip-path="url(#clip520)" d="M535.059 1279.56 L689.782 1279.56 L689.782 1238.09 L535.059 1238.09 L535.059 1279.56  Z" fill="#009af9" fill-rule="evenodd" fill-opacity="1"/>
<polyline clip-path="url(#clip520)" style="stroke:#000000; stroke-linecap:round; stroke-linejoin:round; stroke-width:4; stroke-opacity:1; fill:none" points="535.059,1279.56 689.782,1279.56 689.782,1238.09 535.059,1238.09 535.059,1279.56 "/>
<path clip-path="url(#clip520)" d="M715.569 1241.55 L722.537 1241.55 L731.356 1265.07 L740.222 1241.55 L747.189 1241.55 L747.189 1276.11 L742.629 1276.11 L742.629 1245.76 L733.717 1269.46 L729.018 1269.46 L720.106 1245.76 L720.106 1276.11 L715.569 1276.11 L715.569 1241.55 Z" fill="#000000" fill-rule="nonzero" fill-opacity="1" /><path clip-path="url(#clip520)" d="M761.148 1245.39 L761.148 1258.38 L767.027 1258.38 Q770.291 1258.38 772.074 1256.69 Q773.856 1255 773.856 1251.87 Q773.856 1248.77 772.074 1247.08 Q770.291 1245.39 767.027 1245.39 L761.148 1245.39 M756.472 1241.55 L767.027 1241.55 Q772.837 1241.55 775.8 1244.19 Q778.786 1246.8 778.786 1251.87 Q778.786 1256.99 775.8 1259.6 Q772.837 1262.22 767.027 1262.22 L761.148 1262.22 L761.148 1276.11 L756.472 1276.11 L756.472 1241.55 Z" fill="#000000" fill-rule="nonzero" fill-opacity="1" /><path clip-path="url(#clip520)" d="M805.777 1242.68 L805.777 1247.24 Q803.115 1245.97 800.754 1245.34 Q798.393 1244.72 796.194 1244.72 Q792.374 1244.72 790.291 1246.2 Q788.231 1247.68 788.231 1250.41 Q788.231 1252.71 789.597 1253.89 Q790.985 1255.04 794.828 1255.76 L797.652 1256.34 Q802.884 1257.34 805.36 1259.86 Q807.86 1262.36 807.86 1266.57 Q807.86 1271.59 804.481 1274.19 Q801.124 1276.78 794.62 1276.78 Q792.166 1276.78 789.388 1276.22 Q786.634 1275.67 783.671 1274.58 L783.671 1269.77 Q786.518 1271.36 789.249 1272.17 Q791.981 1272.98 794.62 1272.98 Q798.624 1272.98 800.8 1271.41 Q802.976 1269.83 802.976 1266.92 Q802.976 1264.37 801.402 1262.94 Q799.851 1261.5 796.286 1260.78 L793.439 1260.23 Q788.208 1259.19 785.87 1256.96 Q783.532 1254.74 783.532 1250.78 Q783.532 1246.2 786.749 1243.56 Q789.99 1240.92 795.661 1240.92 Q798.092 1240.92 800.615 1241.36 Q803.138 1241.8 805.777 1242.68 Z" fill="#000000" fill-rule="nonzero" fill-opacity="1" /><path clip-path="url(#clip520)" d="M535.059 1331.4 L689.782 1331.4 L689.782 1289.93 L535.059 1289.93 L535.059 1331.4  Z" fill="#e26f46" fill-rule="evenodd" fill-opacity="1"/>
<polyline clip-path="url(#clip520)" style="stroke:#000000; stroke-linecap:round; stroke-linejoin:round; stroke-width:4; stroke-opacity:1; fill:none" points="535.059,1331.4 689.782,1331.4 689.782,1289.93 535.059,1289.93 535.059,1331.4 "/>
<path clip-path="url(#clip520)" d="M715.569 1293.39 L720.245 1293.39 L720.245 1327.95 L715.569 1327.95 L715.569 1293.39 Z" fill="#000000" fill-rule="nonzero" fill-opacity="1" /><path clip-path="url(#clip520)" d="M750.916 1312.3 L750.916 1327.95 L746.657 1327.95 L746.657 1312.44 Q746.657 1308.76 745.222 1306.93 Q743.787 1305.1 740.916 1305.1 Q737.467 1305.1 735.476 1307.3 Q733.486 1309.5 733.486 1313.3 L733.486 1327.95 L729.203 1327.95 L729.203 1302.02 L733.486 1302.02 L733.486 1306.05 Q735.014 1303.71 737.074 1302.55 Q739.157 1301.4 741.865 1301.4 Q746.333 1301.4 748.625 1304.18 Q750.916 1306.93 750.916 1312.3 Z" fill="#000000" fill-rule="nonzero" fill-opacity="1" /><path clip-path="url(#clip520)" d="M778.069 1303.02 L778.069 1307 Q776.263 1306 774.435 1305.52 Q772.629 1305.01 770.777 1305.01 Q766.634 1305.01 764.342 1307.65 Q762.05 1310.26 762.05 1315.01 Q762.05 1319.75 764.342 1322.39 Q766.634 1325.01 770.777 1325.01 Q772.629 1325.01 774.435 1324.52 Q776.263 1324.01 778.069 1323.02 L778.069 1326.95 Q776.286 1327.79 774.365 1328.2 Q772.467 1328.62 770.314 1328.62 Q764.458 1328.62 761.009 1324.94 Q757.56 1321.26 757.56 1315.01 Q757.56 1308.67 761.032 1305.03 Q764.527 1301.4 770.592 1301.4 Q772.56 1301.4 774.435 1301.81 Q776.31 1302.21 778.069 1303.02 Z" fill="#000000" fill-rule="nonzero" fill-opacity="1" /><path clip-path="url(#clip520)" d="M807.652 1313.92 L807.652 1316 L788.069 1316 Q788.347 1320.4 790.708 1322.72 Q793.092 1325.01 797.328 1325.01 Q799.782 1325.01 802.073 1324.41 Q804.388 1323.8 806.657 1322.6 L806.657 1326.63 Q804.365 1327.6 801.958 1328.11 Q799.55 1328.62 797.073 1328.62 Q790.87 1328.62 787.235 1325.01 Q783.624 1321.4 783.624 1315.24 Q783.624 1308.87 787.05 1305.15 Q790.499 1301.4 796.333 1301.4 Q801.564 1301.4 804.596 1304.78 Q807.652 1308.13 807.652 1313.92 M803.393 1312.67 Q803.346 1309.18 801.425 1307.09 Q799.527 1305.01 796.379 1305.01 Q792.814 1305.01 790.661 1307.02 Q788.532 1309.04 788.208 1312.69 L803.393 1312.67 Z" fill="#000000" fill-rule="nonzero" fill-opacity="1" /><path clip-path="url(#clip520)" d="M818.763 1324.06 L818.763 1337.81 L814.481 1337.81 L814.481 1302.02 L818.763 1302.02 L818.763 1305.96 Q820.106 1303.64 822.143 1302.53 Q824.203 1301.4 827.05 1301.4 Q831.772 1301.4 834.712 1305.15 Q837.675 1308.9 837.675 1315.01 Q837.675 1321.12 834.712 1324.87 Q831.772 1328.62 827.05 1328.62 Q824.203 1328.62 822.143 1327.51 Q820.106 1326.37 818.763 1324.06 M833.254 1315.01 Q833.254 1310.31 831.309 1307.65 Q829.388 1304.96 826.008 1304.96 Q822.629 1304.96 820.684 1307.65 Q818.763 1310.31 818.763 1315.01 Q818.763 1319.71 820.684 1322.39 Q822.629 1325.05 826.008 1325.05 Q829.388 1325.05 831.309 1322.39 Q833.254 1319.71 833.254 1315.01 Z" fill="#000000" fill-rule="nonzero" fill-opacity="1" /><path clip-path="url(#clip520)" d="M848.948 1294.66 L848.948 1302.02 L857.721 1302.02 L857.721 1305.33 L848.948 1305.33 L848.948 1319.41 Q848.948 1322.58 849.805 1323.48 Q850.684 1324.38 853.346 1324.38 L857.721 1324.38 L857.721 1327.95 L853.346 1327.95 Q848.416 1327.95 846.541 1326.12 Q844.666 1324.27 844.666 1319.41 L844.666 1305.33 L841.541 1305.33 L841.541 1302.02 L844.666 1302.02 L844.666 1294.66 L848.948 1294.66 Z" fill="#000000" fill-rule="nonzero" fill-opacity="1" /><path clip-path="url(#clip520)" d="M863.323 1302.02 L867.582 1302.02 L867.582 1327.95 L863.323 1327.95 L863.323 1302.02 M863.323 1291.93 L867.582 1291.93 L867.582 1297.32 L863.323 1297.32 L863.323 1291.93 Z" fill="#000000" fill-rule="nonzero" fill-opacity="1" /><path clip-path="url(#clip520)" d="M886.54 1305.01 Q883.115 1305.01 881.124 1307.69 Q879.133 1310.36 879.133 1315.01 Q879.133 1319.66 881.101 1322.35 Q883.091 1325.01 886.54 1325.01 Q889.943 1325.01 891.934 1322.32 Q893.925 1319.64 893.925 1315.01 Q893.925 1310.4 891.934 1307.72 Q889.943 1305.01 886.54 1305.01 M886.54 1301.4 Q892.096 1301.4 895.267 1305.01 Q898.439 1308.62 898.439 1315.01 Q898.439 1321.37 895.267 1325.01 Q892.096 1328.62 886.54 1328.62 Q880.962 1328.62 877.791 1325.01 Q874.642 1321.37 874.642 1315.01 Q874.642 1308.62 877.791 1305.01 Q880.962 1301.4 886.54 1301.4 Z" fill="#000000" fill-rule="nonzero" fill-opacity="1" /><path clip-path="url(#clip520)" d="M927.05 1312.3 L927.05 1327.95 L922.79 1327.95 L922.79 1312.44 Q922.79 1308.76 921.355 1306.93 Q919.92 1305.1 917.05 1305.1 Q913.601 1305.1 911.61 1307.3 Q909.619 1309.5 909.619 1313.3 L909.619 1327.95 L905.337 1327.95 L905.337 1302.02 L909.619 1302.02 L909.619 1306.05 Q911.147 1303.71 913.207 1302.55 Q915.29 1301.4 917.999 1301.4 Q922.466 1301.4 924.758 1304.18 Q927.05 1306.93 927.05 1312.3 Z" fill="#000000" fill-rule="nonzero" fill-opacity="1" /><path clip-path="url(#clip520)" d="M930.938 1293.39 L960.174 1293.39 L960.174 1297.32 L947.906 1297.32 L947.906 1327.95 L943.207 1327.95 L943.207 1297.32 L930.938 1297.32 L930.938 1293.39 Z" fill="#000000" fill-rule="nonzero" fill-opacity="1" /><path clip-path="url(#clip520)" d="M963.045 1302.02 L967.304 1302.02 L967.304 1327.95 L963.045 1327.95 L963.045 1302.02 M963.045 1291.93 L967.304 1291.93 L967.304 1297.32 L963.045 1297.32 L963.045 1291.93 Z" fill="#000000" fill-rule="nonzero" fill-opacity="1" /><path clip-path="url(#clip520)" d="M996.401 1307 Q997.998 1304.13 1000.22 1302.76 Q1002.44 1301.4 1005.45 1301.4 Q1009.5 1301.4 1011.7 1304.24 Q1013.9 1307.07 1013.9 1312.3 L1013.9 1327.95 L1009.62 1327.95 L1009.62 1312.44 Q1009.62 1308.71 1008.3 1306.91 Q1006.98 1305.1 1004.27 1305.1 Q1000.96 1305.1 999.04 1307.3 Q997.119 1309.5 997.119 1313.3 L997.119 1327.95 L992.836 1327.95 L992.836 1312.44 Q992.836 1308.69 991.517 1306.91 Q990.197 1305.1 987.443 1305.1 Q984.179 1305.1 982.258 1307.32 Q980.336 1309.52 980.336 1313.3 L980.336 1327.95 L976.054 1327.95 L976.054 1302.02 L980.336 1302.02 L980.336 1306.05 Q981.795 1303.67 983.832 1302.53 Q985.869 1301.4 988.67 1301.4 Q991.494 1301.4 993.461 1302.83 Q995.452 1304.27 996.401 1307 Z" fill="#000000" fill-rule="nonzero" fill-opacity="1" /><path clip-path="url(#clip520)" d="M1044.57 1313.92 L1044.57 1316 L1024.99 1316 Q1025.27 1320.4 1027.63 1322.72 Q1030.01 1325.01 1034.25 1325.01 Q1036.7 1325.01 1038.99 1324.41 Q1041.31 1323.8 1043.58 1322.6 L1043.58 1326.63 Q1041.29 1327.6 1038.88 1328.11 Q1036.47 1328.62 1033.99 1328.62 Q1027.79 1328.62 1024.16 1325.01 Q1020.54 1321.4 1020.54 1315.24 Q1020.54 1308.87 1023.97 1305.15 Q1027.42 1301.4 1033.25 1301.4 Q1038.48 1301.4 1041.52 1304.78 Q1044.57 1308.13 1044.57 1313.92 M1040.31 1312.67 Q1040.27 1309.18 1038.35 1307.09 Q1036.45 1305.01 1033.3 1305.01 Q1029.73 1305.01 1027.58 1307.02 Q1025.45 1309.04 1025.13 1312.69 L1040.31 1312.67 Z" fill="#000000" fill-rule="nonzero" fill-opacity="1" /><path clip-path="url(#clip520)" d="M535.059 1383.24 L689.782 1383.24 L689.782 1341.77 L535.059 1341.77 L535.059 1383.24  Z" fill="#3da44d" fill-rule="evenodd" fill-opacity="1"/>
<polyline clip-path="url(#clip520)" style="stroke:#000000; stroke-linecap:round; stroke-linejoin:round; stroke-width:4; stroke-opacity:1; fill:none" points="535.059,1383.24 689.782,1383.24 689.782,1341.77 535.059,1341.77 535.059,1383.24 "/>
<path clip-path="url(#clip520)" d="M716.24 1375.85 L723.879 1375.85 L723.879 1349.49 L715.569 1351.15 L715.569 1346.89 L723.833 1345.23 L728.509 1345.23 L728.509 1375.85 L736.148 1375.85 L736.148 1379.79 L716.24 1379.79 L716.24 1375.85 Z" fill="#000000" fill-rule="nonzero" fill-opacity="1" /><path clip-path="url(#clip520)" d="M742.838 1364.9 L755.314 1364.9 L755.314 1368.7 L742.838 1368.7 L742.838 1364.9 Z" fill="#000000" fill-rule="nonzero" fill-opacity="1" /><path clip-path="url(#clip520)" d="M762.282 1345.23 L768.578 1345.23 L783.902 1374.14 L783.902 1345.23 L788.439 1345.23 L788.439 1379.79 L782.143 1379.79 L766.819 1350.88 L766.819 1379.79 L762.282 1379.79 L762.282 1345.23 Z" fill="#000000" fill-rule="nonzero" fill-opacity="1" /><path clip-path="url(#clip520)" d="M797.745 1345.23 L804.041 1345.23 L819.365 1374.14 L819.365 1345.23 L823.902 1345.23 L823.902 1379.79 L817.606 1379.79 L802.282 1350.88 L802.282 1379.79 L797.745 1379.79 L797.745 1345.23 Z" fill="#000000" fill-rule="nonzero" fill-opacity="1" /><path clip-path="url(#clip520)" d="M830.869 1364.9 L843.346 1364.9 L843.346 1368.7 L830.869 1368.7 L830.869 1364.9 Z" fill="#000000" fill-rule="nonzero" fill-opacity="1" /><path clip-path="url(#clip520)" d="M854.99 1349.07 L854.99 1375.95 L860.638 1375.95 Q867.791 1375.95 871.101 1372.7 Q874.434 1369.46 874.434 1362.47 Q874.434 1355.53 871.101 1352.31 Q867.791 1349.07 860.638 1349.07 L854.99 1349.07 M850.314 1345.23 L859.92 1345.23 Q869.966 1345.23 874.666 1349.42 Q879.365 1353.58 879.365 1362.47 Q879.365 1371.41 874.642 1375.6 Q869.92 1379.79 859.92 1379.79 L850.314 1379.79 L850.314 1345.23 Z" fill="#000000" fill-rule="nonzero" fill-opacity="1" /><path clip-path="url(#clip520)" d="M882.027 1345.23 L911.263 1345.23 L911.263 1349.16 L898.994 1349.16 L898.994 1379.79 L894.295 1379.79 L894.295 1349.16 L882.027 1349.16 L882.027 1345.23 Z" fill="#000000" fill-rule="nonzero" fill-opacity="1" /><path clip-path="url(#clip520)" d="M912.698 1345.23 L917.42 1345.23 L924.688 1374.44 L931.934 1345.23 L937.188 1345.23 L944.457 1374.44 L951.702 1345.23 L956.448 1345.23 L947.767 1379.79 L941.887 1379.79 L934.596 1349.79 L927.235 1379.79 L921.355 1379.79 L912.698 1345.23 Z" fill="#000000" fill-rule="nonzero" fill-opacity="1" /><path clip-path="url(#clip520)" d="M535.059 1435.08 L689.782 1435.08 L689.782 1393.61 L535.059 1393.61 L535.059 1435.08  Z" fill="#c271d2" fill-rule="evenodd" fill-opacity="1"/>
<polyline clip-path="url(#clip520)" style="stroke:#000000; stroke-linecap:round; stroke-linejoin:round; stroke-width:4; stroke-opacity:1; fill:none" points="535.059,1435.08 689.782,1435.08 689.782,1393.61 535.059,1393.61 535.059,1435.08 "/>
<path clip-path="url(#clip520)" d="M715.569 1397.07 L720.245 1397.07 L720.245 1411.23 L737.236 1411.23 L737.236 1397.07 L741.912 1397.07 L741.912 1431.63 L737.236 1431.63 L737.236 1415.17 L720.245 1415.17 L720.245 1431.63 L715.569 1431.63 L715.569 1397.07 Z" fill="#000000" fill-rule="nonzero" fill-opacity="1" /><path clip-path="url(#clip520)" d="M751.032 1405.7 L755.291 1405.7 L755.291 1431.63 L751.032 1431.63 L751.032 1405.7 M751.032 1395.61 L755.291 1395.61 L755.291 1401 L751.032 1401 L751.032 1395.61 Z" fill="#000000" fill-rule="nonzero" fill-opacity="1" /><path clip-path="url(#clip520)" d="M761.148 1405.7 L765.661 1405.7 L773.763 1427.46 L781.865 1405.7 L786.379 1405.7 L776.657 1431.63 L770.87 1431.63 L761.148 1405.7 Z" fill="#000000" fill-rule="nonzero" fill-opacity="1" /><path clip-path="url(#clip520)" d="M814.434 1417.6 L814.434 1419.68 L794.851 1419.68 Q795.129 1424.08 797.49 1426.4 Q799.874 1428.69 804.11 1428.69 Q806.564 1428.69 808.856 1428.09 Q811.171 1427.48 813.439 1426.28 L813.439 1430.31 Q811.147 1431.28 808.74 1431.79 Q806.333 1432.3 803.856 1432.3 Q797.652 1432.3 794.018 1428.69 Q790.407 1425.08 790.407 1418.92 Q790.407 1412.55 793.833 1408.83 Q797.282 1405.08 803.115 1405.08 Q808.346 1405.08 811.379 1408.46 Q814.434 1411.81 814.434 1417.6 M810.175 1416.35 Q810.129 1412.86 808.208 1410.77 Q806.309 1408.69 803.161 1408.69 Q799.597 1408.69 797.444 1410.7 Q795.314 1412.72 794.99 1416.37 L810.175 1416.35 Z" fill="#000000" fill-rule="nonzero" fill-opacity="1" /><path clip-path="url(#clip520)" d="M847.49 1399.73 L847.49 1404.66 Q845.129 1402.46 842.443 1401.37 Q839.781 1400.29 836.772 1400.29 Q830.846 1400.29 827.698 1403.92 Q824.55 1407.53 824.55 1414.38 Q824.55 1421.21 827.698 1424.85 Q830.846 1428.46 836.772 1428.46 Q839.781 1428.46 842.443 1427.37 Q845.129 1426.28 847.49 1424.08 L847.49 1428.97 Q845.036 1430.63 842.281 1431.47 Q839.55 1432.3 836.494 1432.3 Q828.647 1432.3 824.133 1427.51 Q819.62 1422.69 819.62 1414.38 Q819.62 1406.05 824.133 1401.26 Q828.647 1396.44 836.494 1396.44 Q839.596 1396.44 842.328 1397.28 Q845.082 1398.09 847.49 1399.73 Z" fill="#000000" fill-rule="nonzero" fill-opacity="1" /><path clip-path="url(#clip520)" d="M864.573 1408.69 Q861.147 1408.69 859.156 1411.37 Q857.166 1414.04 857.166 1418.69 Q857.166 1423.34 859.133 1426.03 Q861.124 1428.69 864.573 1428.69 Q867.976 1428.69 869.966 1426 Q871.957 1423.32 871.957 1418.69 Q871.957 1414.08 869.966 1411.4 Q867.976 1408.69 864.573 1408.69 M864.573 1405.08 Q870.129 1405.08 873.3 1408.69 Q876.471 1412.3 876.471 1418.69 Q876.471 1425.05 873.3 1428.69 Q870.129 1432.3 864.573 1432.3 Q858.994 1432.3 855.823 1428.69 Q852.675 1425.05 852.675 1418.69 Q852.675 1412.3 855.823 1408.69 Q858.994 1405.08 864.573 1405.08 Z" fill="#000000" fill-rule="nonzero" fill-opacity="1" /><path clip-path="url(#clip520)" d="M887.744 1398.34 L887.744 1405.7 L896.517 1405.7 L896.517 1409.01 L887.744 1409.01 L887.744 1423.09 Q887.744 1426.26 888.601 1427.16 Q889.48 1428.06 892.142 1428.06 L896.517 1428.06 L896.517 1431.63 L892.142 1431.63 Q887.212 1431.63 885.337 1429.8 Q883.462 1427.95 883.462 1423.09 L883.462 1409.01 L880.337 1409.01 L880.337 1405.7 L883.462 1405.7 L883.462 1398.34 L887.744 1398.34 Z" fill="#000000" fill-rule="nonzero" fill-opacity="1" /><path clip-path="url(#clip520)" d="M924.295 1417.6 L924.295 1419.68 L904.712 1419.68 Q904.989 1424.08 907.351 1426.4 Q909.735 1428.69 913.971 1428.69 Q916.425 1428.69 918.716 1428.09 Q921.031 1427.48 923.3 1426.28 L923.3 1430.31 Q921.008 1431.28 918.6 1431.79 Q916.193 1432.3 913.716 1432.3 Q907.513 1432.3 903.878 1428.69 Q900.267 1425.08 900.267 1418.92 Q900.267 1412.55 903.693 1408.83 Q907.142 1405.08 912.976 1405.08 Q918.207 1405.08 921.239 1408.46 Q924.295 1411.81 924.295 1417.6 M920.036 1416.35 Q919.989 1412.86 918.068 1410.77 Q916.17 1408.69 913.022 1408.69 Q909.457 1408.69 907.304 1410.7 Q905.175 1412.72 904.851 1416.37 L920.036 1416.35 Z" fill="#000000" fill-rule="nonzero" fill-opacity="1" /><path clip-path="url(#clip520)" d="M940.383 1431.63 L927.188 1397.07 L932.073 1397.07 L943.022 1426.17 L953.994 1397.07 L958.855 1397.07 L945.684 1431.63 L940.383 1431.63 Z" fill="#000000" fill-rule="nonzero" fill-opacity="1" /><path clip-path="url(#clip520)" d="M968.346 1427.69 L984.665 1427.69 L984.665 1431.63 L962.721 1431.63 L962.721 1427.69 Q965.383 1424.94 969.966 1420.31 Q974.572 1415.66 975.753 1414.31 Q977.998 1411.79 978.878 1410.05 Q979.781 1408.29 979.781 1406.61 Q979.781 1403.85 977.836 1402.11 Q975.915 1400.38 972.813 1400.38 Q970.614 1400.38 968.16 1401.14 Q965.73 1401.91 962.952 1403.46 L962.952 1398.73 Q965.776 1397.6 968.23 1397.02 Q970.684 1396.44 972.721 1396.44 Q978.091 1396.44 981.285 1399.13 Q984.48 1401.81 984.48 1406.3 Q984.48 1408.43 983.67 1410.36 Q982.883 1412.25 980.776 1414.85 Q980.197 1415.52 977.096 1418.73 Q973.994 1421.93 968.346 1427.69 Z" fill="#000000" fill-rule="nonzero" fill-opacity="1" /></svg>
