<?xml version="1.0" encoding="utf-8"?>
<svg xmlns="http://www.w3.org/2000/svg" xmlns:xlink="http://www.w3.org/1999/xlink" width="700" height="500" viewBox="0 0 2800 2000">
<defs>
  <clipPath id="clip960">
    <rect x="0" y="0" width="2800" height="2000"/>
  </clipPath>
</defs>
<path clip-path="url(#clip960)" d="M0 2000 L2800 2000 L2800 -4.44089e-14 L0 -4.44089e-14  Z" fill="#ffffff" fill-rule="evenodd" fill-opacity="1"/>
<defs>
  <clipPath id="clip961">
    <rect x="560" y="0" width="1961" height="1961"/>
  </clipPath>
</defs>
<path clip-path="url(#clip960)" d="M431.91 1515.12 L2752.76 1515.12 L2752.76 47.2441 L431.91 47.2441  Z" fill="#ffffff" fill-rule="evenodd" fill-opacity="1"/>
<defs>
  <clipPath id="clip962">
    <rect x="431" y="47" width="2322" height="1469"/>
  </clipPath>
</defs>
<polyline clip-path="url(#clip962)" style="stroke:#000000; stroke-linecap:round; stroke-linejoin:round; stroke-width:2; stroke-opacity:0.1; fill:none" points="845.581,1515.12 845.581,47.2441 "/>
<polyline clip-path="url(#clip962)" style="stroke:#000000; stroke-linecap:round; stroke-linejoin:round; stroke-width:2; stroke-opacity:0.1; fill:none" points="1592.33,1515.12 1592.33,47.2441 "/>
<polyline clip-path="url(#clip962)" style="stroke:#000000; stroke-linecap:round; stroke-linejoin:round; stroke-width:2; stroke-opacity:0.1; fill:none" points="2339.09,1515.12 2339.09,47.2441 "/>
<polyline clip-path="url(#clip962)" style="stroke:#000000; stroke-linecap:round; stroke-linejoin:round; stroke-width:2; stroke-opacity:0.1; fill:none" points="431.91,1515.12 2752.76,1515.12 "/>
<polyline clip-path="url(#clip962)" style="stroke:#000000; stroke-linecap:round; stroke-linejoin:round; stroke-width:2; stroke-opacity:0.1; fill:none" points="431.91,1138.74 2752.76,1138.74 "/>
<polyline clip-path="url(#clip962)" style="stroke:#000000; stroke-linecap:round; stroke-linejoin:round; stroke-width:2; stroke-opacity:0.1; fill:none" points="431.91,762.362 2752.76,762.362 "/>
<polyline clip-path="url(#clip962)" style="stroke:#000000; stroke-linecap:round; stroke-linejoin:round; stroke-width:2; stroke-opacity:0.1; fill:none" points="431.91,385.984 2752.76,385.984 "/>
<polyline clip-path="url(#clip960)" style="stroke:#000000; stroke-linecap:round; stroke-linejoin:round; stroke-width:4; stroke-opacity:1; fill:none" points="431.91,1515.12 2752.76,1515.12 "/>
<polyline clip-path="url(#clip960)" style="stroke:#000000; stroke-linecap:round; stroke-linejoin:round; stroke-width:4; stroke-opacity:1; fill:none" points="845.581,1515.12 845.581,1496.22 "/>
<polyline clip-path="url(#clip960)" style="stroke:#000000; stroke-linecap:round; stroke-linejoin:round; stroke-width:4; stroke-opacity:1; fill:none" points="1592.33,1515.12 1592.33,1496.22 "/>
<polyline clip-path="url(#clip960)" style="stroke:#000000; stroke-linecap:round; stroke-linejoin:round; stroke-width:4; stroke-opacity:1; fill:none" points="2339.09,1515.12 2339.09,1496.22 "/>
<path clip-path="url(#clip960)" d="M742.627 1562.36 L756.071 1562.36 L756.071 1661.72 L742.627 1661.72 L742.627 1562.36 Z" fill="#000000" fill-rule="nonzero" fill-opacity="1" /><path clip-path="url(#clip960)" d="M796.267 1573.4 L796.267 1610.74 L813.171 1610.74 Q822.555 1610.74 827.679 1605.88 Q832.803 1601.02 832.803 1592.04 Q832.803 1583.12 827.679 1578.26 Q822.555 1573.4 813.171 1573.4 L796.267 1573.4 M782.824 1562.36 L813.171 1562.36 Q829.875 1562.36 838.394 1569.94 Q846.979 1577.46 846.979 1592.04 Q846.979 1606.75 838.394 1614.27 Q829.875 1621.79 813.171 1621.79 L796.267 1621.79 L796.267 1661.72 L782.824 1661.72 L782.824 1562.36 Z" fill="#000000" fill-rule="nonzero" fill-opacity="1" /><path clip-path="url(#clip960)" d="M878.457 1573.4 L878.457 1650.67 L894.695 1650.67 Q915.259 1650.67 924.776 1641.35 Q934.359 1632.04 934.359 1611.94 Q934.359 1591.97 924.776 1582.72 Q915.259 1573.4 894.695 1573.4 L878.457 1573.4 M865.014 1562.36 L892.632 1562.36 Q921.515 1562.36 935.025 1574.4 Q948.535 1586.38 948.535 1611.94 Q948.535 1637.63 934.958 1649.67 Q921.382 1661.72 892.632 1661.72 L865.014 1661.72 L865.014 1562.36 Z" fill="#000000" fill-rule="nonzero" fill-opacity="1" /><path clip-path="url(#clip960)" d="M1330.02 1562.36 L1392.85 1562.36 L1392.85 1573.67 L1343.47 1573.67 L1343.47 1603.09 L1390.78 1603.09 L1390.78 1614.4 L1343.47 1614.4 L1343.47 1650.4 L1394.05 1650.4 L1394.05 1661.72 L1330.02 1661.72 L1330.02 1562.36 Z" fill="#000000" fill-rule="nonzero" fill-opacity="1" /><path clip-path="url(#clip960)" d="M1490.54 1570.01 L1490.54 1584.19 Q1483.76 1577.86 1476.04 1574.74 Q1468.38 1571.61 1459.73 1571.61 Q1442.69 1571.61 1433.64 1582.06 Q1424.59 1592.44 1424.59 1612.14 Q1424.59 1631.77 1433.64 1642.22 Q1442.69 1652.6 1459.73 1652.6 Q1468.38 1652.6 1476.04 1649.47 Q1483.76 1646.34 1490.54 1640.02 L1490.54 1654.06 Q1483.49 1658.86 1475.57 1661.25 Q1467.72 1663.65 1458.93 1663.65 Q1436.37 1663.65 1423.39 1649.87 Q1410.42 1636.03 1410.42 1612.14 Q1410.42 1588.18 1423.39 1574.4 Q1436.37 1560.56 1458.93 1560.56 Q1467.85 1560.56 1475.7 1562.96 Q1483.62 1565.29 1490.54 1570.01 Z" fill="#000000" fill-rule="nonzero" fill-opacity="1" /><path clip-path="url(#clip960)" d="M1579.06 1647.54 L1579.06 1620.86 L1557.09 1620.86 L1557.09 1609.81 L1592.37 1609.81 L1592.37 1652.47 Q1584.58 1657.99 1575.2 1660.85 Q1565.81 1663.65 1555.16 1663.65 Q1531.87 1663.65 1518.69 1650.07 Q1505.58 1636.43 1505.58 1612.14 Q1505.58 1587.78 1518.69 1574.2 Q1531.87 1560.56 1555.16 1560.56 Q1564.88 1560.56 1573.6 1562.96 Q1582.38 1565.35 1589.77 1570.01 L1589.77 1584.32 Q1582.32 1578 1573.93 1574.8 Q1565.55 1571.61 1556.3 1571.61 Q1538.06 1571.61 1528.88 1581.79 Q1519.76 1591.97 1519.76 1612.14 Q1519.76 1632.24 1528.88 1642.42 Q1538.06 1652.6 1556.3 1652.6 Q1563.42 1652.6 1569.01 1651.4 Q1574.6 1650.14 1579.06 1647.54 Z" fill="#000000" fill-rule="nonzero" fill-opacity="1" /><path clip-path="url(#clip960)" d="M1629.7 1650.4 L1676.62 1650.4 L1676.62 1661.72 L1613.53 1661.72 L1613.53 1650.4 Q1621.18 1642.48 1634.36 1629.17 Q1647.6 1615.8 1651 1611.94 Q1657.45 1604.68 1659.98 1599.69 Q1662.58 1594.63 1662.58 1589.78 Q1662.58 1581.86 1656.99 1576.87 Q1651.46 1571.87 1642.55 1571.87 Q1636.22 1571.87 1629.17 1574.07 Q1622.18 1576.27 1614.19 1580.73 L1614.19 1567.15 Q1622.31 1563.89 1629.37 1562.22 Q1636.42 1560.56 1642.28 1560.56 Q1657.72 1560.56 1666.9 1568.28 Q1676.09 1576 1676.09 1588.91 Q1676.09 1595.03 1673.76 1600.56 Q1671.49 1606.01 1665.44 1613.47 Q1663.78 1615.4 1654.86 1624.65 Q1645.94 1633.83 1629.7 1650.4 Z" fill="#000000" fill-rule="nonzero" fill-opacity="1" /><path clip-path="url(#clip960)" d="M1733.59 1571.21 Q1723.2 1571.21 1717.95 1581.46 Q1712.76 1591.64 1712.76 1612.14 Q1712.76 1632.57 1717.95 1642.82 Q1723.2 1653 1733.59 1653 Q1744.04 1653 1749.23 1642.82 Q1754.48 1632.57 1754.48 1612.14 Q1754.48 1591.64 1749.23 1581.46 Q1744.04 1571.21 1733.59 1571.21 M1733.59 1560.56 Q1750.29 1560.56 1759.08 1573.8 Q1767.93 1586.98 1767.93 1612.14 Q1767.93 1637.23 1759.08 1650.47 Q1750.29 1663.65 1733.59 1663.65 Q1716.88 1663.65 1708.03 1650.47 Q1699.25 1637.23 1699.25 1612.14 Q1699.25 1586.98 1708.03 1573.8 Q1716.88 1560.56 1733.59 1560.56 Z" fill="#000000" fill-rule="nonzero" fill-opacity="1" /><path clip-path="url(#clip960)" d="M1820.3 1571.21 Q1809.92 1571.21 1804.66 1581.46 Q1799.47 1591.64 1799.47 1612.14 Q1799.47 1632.57 1804.66 1642.82 Q1809.92 1653 1820.3 1653 Q1830.75 1653 1835.94 1642.82 Q1841.2 1632.57 1841.2 1612.14 Q1841.2 1591.64 1835.94 1581.46 Q1830.75 1571.21 1820.3 1571.21 M1820.3 1560.56 Q1837.01 1560.56 1845.79 1573.8 Q1854.64 1586.98 1854.64 1612.14 Q1854.64 1637.23 1845.79 1650.47 Q1837.01 1663.65 1820.3 1663.65 Q1803.6 1663.65 1794.75 1650.47 Q1785.96 1637.23 1785.96 1612.14 Q1785.96 1586.98 1794.75 1573.8 Q1803.6 1560.56 1820.3 1560.56 Z" fill="#000000" fill-rule="nonzero" fill-opacity="1" /><path clip-path="url(#clip960)" d="M2130.42 1562.36 L2143.86 1562.36 L2143.86 1604.35 L2188.45 1562.36 L2205.75 1562.36 L2156.44 1608.68 L2209.28 1661.72 L2191.58 1661.72 L2143.86 1613.87 L2143.86 1661.72 L2130.42 1661.72 L2130.42 1562.36 Z" fill="#000000" fill-rule="nonzero" fill-opacity="1" /><path clip-path="url(#clip960)" d="M2276.23 1621.39 L2276.23 1627.38 L2219.93 1627.38 Q2220.72 1640.02 2227.51 1646.68 Q2234.37 1653.27 2246.55 1653.27 Q2253.6 1653.27 2260.19 1651.53 Q2266.84 1649.8 2273.37 1646.34 L2273.37 1657.92 Q2266.78 1660.72 2259.86 1662.18 Q2252.94 1663.65 2245.81 1663.65 Q2227.98 1663.65 2217.53 1653.27 Q2207.15 1642.88 2207.15 1625.18 Q2207.15 1606.88 2217 1596.16 Q2226.91 1585.38 2243.68 1585.38 Q2258.73 1585.38 2267.44 1595.1 Q2276.23 1604.75 2276.23 1621.39 M2263.98 1617.79 Q2263.85 1607.74 2258.33 1601.76 Q2252.87 1595.77 2243.82 1595.77 Q2233.57 1595.77 2227.38 1601.56 Q2221.26 1607.35 2220.33 1617.86 L2263.98 1617.79 Z" fill="#000000" fill-rule="nonzero" fill-opacity="1" /><path clip-path="url(#clip960)" d="M2308.17 1650.54 L2308.17 1690.07 L2295.86 1690.07 L2295.86 1587.18 L2308.17 1587.18 L2308.17 1598.49 Q2312.03 1591.84 2317.89 1588.64 Q2323.81 1585.38 2332 1585.38 Q2345.57 1585.38 2354.03 1596.16 Q2362.54 1606.95 2362.54 1624.52 Q2362.54 1642.08 2354.03 1652.87 Q2345.57 1663.65 2332 1663.65 Q2323.81 1663.65 2317.89 1660.45 Q2312.03 1657.19 2308.17 1650.54 M2349.83 1624.52 Q2349.83 1611.01 2344.24 1603.35 Q2338.72 1595.63 2329 1595.63 Q2319.29 1595.63 2313.7 1603.35 Q2308.17 1611.01 2308.17 1624.52 Q2308.17 1638.03 2313.7 1645.75 Q2319.29 1653.4 2329 1653.4 Q2338.72 1653.4 2344.24 1645.75 Q2349.83 1638.03 2349.83 1624.52 Z" fill="#000000" fill-rule="nonzero" fill-opacity="1" /><path clip-path="url(#clip960)" d="M2382.84 1558.16 L2395.09 1558.16 L2395.09 1661.72 L2382.84 1661.72 L2382.84 1558.16 Z" fill="#000000" fill-rule="nonzero" fill-opacity="1" /><path clip-path="url(#clip960)" d="M2484.46 1621.39 L2484.46 1627.38 L2428.16 1627.38 Q2428.96 1640.02 2435.75 1646.68 Q2442.6 1653.27 2454.78 1653.27 Q2461.84 1653.27 2468.43 1651.53 Q2475.08 1649.8 2481.6 1646.34 L2481.6 1657.92 Q2475.01 1660.72 2468.09 1662.18 Q2461.17 1663.65 2454.05 1663.65 Q2436.22 1663.65 2425.77 1653.27 Q2415.39 1642.88 2415.39 1625.18 Q2415.39 1606.88 2425.23 1596.16 Q2435.15 1585.38 2451.92 1585.38 Q2466.96 1585.38 2475.68 1595.1 Q2484.46 1604.75 2484.46 1621.39 M2472.22 1617.79 Q2472.09 1607.74 2466.56 1601.76 Q2461.11 1595.77 2452.05 1595.77 Q2441.81 1595.77 2435.62 1601.56 Q2429.49 1607.35 2428.56 1617.86 L2472.22 1617.79 Z" fill="#000000" fill-rule="nonzero" fill-opacity="1" /><path clip-path="url(#clip960)" d="M2547.75 1598.63 Q2545.69 1597.43 2543.23 1596.9 Q2540.83 1596.3 2537.9 1596.3 Q2527.52 1596.3 2521.93 1603.09 Q2516.41 1609.81 2516.41 1622.45 L2516.41 1661.72 L2504.1 1661.72 L2504.1 1587.18 L2516.41 1587.18 L2516.41 1598.76 Q2520.27 1591.97 2526.46 1588.71 Q2532.65 1585.38 2541.5 1585.38 Q2542.76 1585.38 2544.29 1585.58 Q2545.82 1585.72 2547.69 1586.05 L2547.75 1598.63 Z" fill="#000000" fill-rule="nonzero" fill-opacity="1" /><path clip-path="url(#clip960)" d="M1394.44 1762.17 L1394.44 1721.84 L1406.69 1721.84 L1406.69 1825.39 L1394.44 1825.39 L1394.44 1814.21 Q1390.59 1820.86 1384.66 1824.12 Q1378.81 1827.32 1370.55 1827.32 Q1357.04 1827.32 1348.53 1816.54 Q1340.07 1805.76 1340.07 1788.19 Q1340.07 1770.62 1348.53 1759.84 Q1357.04 1749.06 1370.55 1749.06 Q1378.81 1749.06 1384.66 1752.32 Q1390.59 1755.51 1394.44 1762.17 M1352.72 1788.19 Q1352.72 1801.7 1358.24 1809.42 Q1363.83 1817.07 1373.55 1817.07 Q1383.26 1817.07 1388.85 1809.42 Q1394.44 1801.7 1394.44 1788.19 Q1394.44 1774.68 1388.85 1767.02 Q1383.26 1759.3 1373.55 1759.3 Q1363.83 1759.3 1358.24 1767.02 Q1352.72 1774.68 1352.72 1788.19 Z" fill="#000000" fill-rule="nonzero" fill-opacity="1" /><path clip-path="url(#clip960)" d="M1465.79 1787.92 Q1450.95 1787.92 1445.22 1791.32 Q1439.5 1794.71 1439.5 1802.9 Q1439.5 1809.42 1443.76 1813.28 Q1448.08 1817.07 1455.47 1817.07 Q1465.65 1817.07 1471.78 1809.88 Q1477.97 1802.63 1477.97 1790.65 L1477.97 1787.92 L1465.79 1787.92 M1490.21 1782.86 L1490.21 1825.39 L1477.97 1825.39 L1477.97 1814.08 Q1473.77 1820.86 1467.52 1824.12 Q1461.26 1827.32 1452.21 1827.32 Q1440.76 1827.32 1433.98 1820.93 Q1427.25 1814.47 1427.25 1803.69 Q1427.25 1791.12 1435.64 1784.73 Q1444.09 1778.34 1460.8 1778.34 L1477.97 1778.34 L1477.97 1777.14 Q1477.97 1768.69 1472.38 1764.1 Q1466.85 1759.44 1456.8 1759.44 Q1450.41 1759.44 1444.36 1760.97 Q1438.3 1762.5 1432.71 1765.56 L1432.71 1754.25 Q1439.43 1751.65 1445.76 1750.39 Q1452.08 1749.06 1458.07 1749.06 Q1474.24 1749.06 1482.23 1757.44 Q1490.21 1765.83 1490.21 1782.86 Z" fill="#000000" fill-rule="nonzero" fill-opacity="1" /><path clip-path="url(#clip960)" d="M1527.55 1729.69 L1527.55 1750.85 L1552.77 1750.85 L1552.77 1760.37 L1527.55 1760.37 L1527.55 1800.83 Q1527.55 1809.95 1530.01 1812.54 Q1532.54 1815.14 1540.19 1815.14 L1552.77 1815.14 L1552.77 1825.39 L1540.19 1825.39 Q1526.02 1825.39 1520.62 1820.13 Q1515.23 1814.81 1515.23 1800.83 L1515.23 1760.37 L1506.25 1760.37 L1506.25 1750.85 L1515.23 1750.85 L1515.23 1729.69 L1527.55 1729.69 Z" fill="#000000" fill-rule="nonzero" fill-opacity="1" /><path clip-path="url(#clip960)" d="M1602.75 1787.92 Q1587.91 1787.92 1582.18 1791.32 Q1576.46 1794.71 1576.46 1802.9 Q1576.46 1809.42 1580.72 1813.28 Q1585.05 1817.07 1592.43 1817.07 Q1602.62 1817.07 1608.74 1809.88 Q1614.93 1802.63 1614.93 1790.65 L1614.93 1787.92 L1602.75 1787.92 M1627.17 1782.86 L1627.17 1825.39 L1614.93 1825.39 L1614.93 1814.08 Q1610.73 1820.86 1604.48 1824.12 Q1598.22 1827.32 1589.17 1827.32 Q1577.73 1827.32 1570.94 1820.93 Q1564.22 1814.47 1564.22 1803.69 Q1564.22 1791.12 1572.6 1784.73 Q1581.05 1778.34 1597.76 1778.34 L1614.93 1778.34 L1614.93 1777.14 Q1614.93 1768.69 1609.34 1764.1 Q1603.81 1759.44 1593.76 1759.44 Q1587.38 1759.44 1581.32 1760.97 Q1575.26 1762.5 1569.67 1765.56 L1569.67 1754.25 Q1576.39 1751.65 1582.72 1750.39 Q1589.04 1749.06 1595.03 1749.06 Q1611.2 1749.06 1619.19 1757.44 Q1627.17 1765.83 1627.17 1782.86 Z" fill="#000000" fill-rule="nonzero" fill-opacity="1" /><path clip-path="url(#clip960)" d="M1699.91 1753.05 L1699.91 1764.63 Q1694.72 1761.97 1689.13 1760.64 Q1683.54 1759.3 1677.55 1759.3 Q1668.43 1759.3 1663.84 1762.1 Q1659.32 1764.89 1659.32 1770.48 Q1659.32 1774.74 1662.58 1777.21 Q1665.84 1779.6 1675.69 1781.8 L1679.88 1782.73 Q1692.92 1785.53 1698.38 1790.65 Q1703.91 1795.71 1703.91 1804.83 Q1703.91 1815.21 1695.65 1821.26 Q1687.47 1827.32 1673.09 1827.32 Q1667.1 1827.32 1660.58 1826.12 Q1654.13 1824.99 1646.94 1822.66 L1646.94 1810.02 Q1653.73 1813.54 1660.31 1815.34 Q1666.9 1817.07 1673.36 1817.07 Q1682.01 1817.07 1686.67 1814.14 Q1691.33 1811.15 1691.33 1805.76 Q1691.33 1800.77 1687.93 1798.1 Q1684.61 1795.44 1673.23 1792.98 L1668.97 1791.98 Q1657.59 1789.59 1652.53 1784.66 Q1647.47 1779.67 1647.47 1771.02 Q1647.47 1760.5 1654.92 1754.78 Q1662.38 1749.06 1676.09 1749.06 Q1682.88 1749.06 1688.86 1750.05 Q1694.85 1751.05 1699.91 1753.05 Z" fill="#000000" fill-rule="nonzero" fill-opacity="1" /><path clip-path="url(#clip960)" d="M1787.16 1785.06 L1787.16 1791.05 L1730.86 1791.05 Q1731.66 1803.69 1738.44 1810.35 Q1745.3 1816.94 1757.48 1816.94 Q1764.53 1816.94 1771.12 1815.21 Q1777.78 1813.48 1784.3 1810.02 L1784.3 1821.6 Q1777.71 1824.39 1770.79 1825.86 Q1763.87 1827.32 1756.75 1827.32 Q1738.91 1827.32 1728.46 1816.94 Q1718.08 1806.56 1718.08 1788.85 Q1718.08 1770.55 1727.93 1759.84 Q1737.85 1749.06 1754.62 1749.06 Q1769.66 1749.06 1778.38 1758.77 Q1787.16 1768.42 1787.16 1785.06 M1774.91 1781.47 Q1774.78 1771.42 1769.26 1765.43 Q1763.8 1759.44 1754.75 1759.44 Q1744.5 1759.44 1738.31 1765.23 Q1732.19 1771.02 1731.26 1781.53 L1774.91 1781.47 Z" fill="#000000" fill-rule="nonzero" fill-opacity="1" /><path clip-path="url(#clip960)" d="M1819.37 1729.69 L1819.37 1750.85 L1844.59 1750.85 L1844.59 1760.37 L1819.37 1760.37 L1819.37 1800.83 Q1819.37 1809.95 1821.83 1812.54 Q1824.36 1815.14 1832.01 1815.14 L1844.59 1815.14 L1844.59 1825.39 L1832.01 1825.39 Q1817.84 1825.39 1812.45 1820.13 Q1807.06 1814.81 1807.06 1800.83 L1807.06 1760.37 L1798.07 1760.37 L1798.07 1750.85 L1807.06 1750.85 L1807.06 1729.69 L1819.37 1729.69 Z" fill="#000000" fill-rule="nonzero" fill-opacity="1" /><polyline clip-path="url(#clip960)" style="stroke:#000000; stroke-linecap:round; stroke-linejoin:round; stroke-width:4; stroke-opacity:1; fill:none" points="431.91,1515.12 431.91,47.2441 "/>
<polyline clip-path="url(#clip960)" style="stroke:#000000; stroke-linecap:round; stroke-linejoin:round; stroke-width:4; stroke-opacity:1; fill:none" points="431.91,1515.12 450.808,1515.12 "/>
<polyline clip-path="url(#clip960)" style="stroke:#000000; stroke-linecap:round; stroke-linejoin:round; stroke-width:4; stroke-opacity:1; fill:none" points="431.91,1138.74 450.808,1138.74 "/>
<polyline clip-path="url(#clip960)" style="stroke:#000000; stroke-linecap:round; stroke-linejoin:round; stroke-width:4; stroke-opacity:1; fill:none" points="431.91,762.362 450.808,762.362 "/>
<polyline clip-path="url(#clip960)" style="stroke:#000000; stroke-linecap:round; stroke-linejoin:round; stroke-width:4; stroke-opacity:1; fill:none" points="431.91,385.984 450.808,385.984 "/>
<path clip-path="url(#clip960)" d="M225.065 1474.29 Q214.683 1474.29 209.425 1484.54 Q204.234 1494.72 204.234 1515.22 Q204.234 1535.65 209.425 1545.9 Q214.683 1556.08 225.065 1556.08 Q235.513 1556.08 240.704 1545.9 Q245.961 1535.65 245.961 1515.22 Q245.961 1494.72 240.704 1484.54 Q235.513 1474.29 225.065 1474.29 M225.065 1463.64 Q241.769 1463.64 250.553 1476.88 Q259.405 1490.06 259.405 1515.22 Q259.405 1540.31 250.553 1553.55 Q241.769 1566.73 225.065 1566.73 Q208.36 1566.73 199.509 1553.55 Q190.724 1540.31 190.724 1515.22 Q190.724 1490.06 199.509 1476.88 Q208.36 1463.64 225.065 1463.64 Z" fill="#000000" fill-rule="nonzero" fill-opacity="1" /><path clip-path="url(#clip960)" d="M283.03 1547.89 L297.072 1547.89 L297.072 1564.8 L283.03 1564.8 L283.03 1547.89 Z" fill="#000000" fill-rule="nonzero" fill-opacity="1" /><path clip-path="url(#clip960)" d="M356.768 1509.76 Q347.717 1509.76 342.393 1515.95 Q337.136 1522.14 337.136 1532.92 Q337.136 1543.63 342.393 1549.89 Q347.717 1556.08 356.768 1556.08 Q365.819 1556.08 371.076 1549.89 Q376.4 1543.63 376.4 1532.92 Q376.4 1522.14 371.076 1515.95 Q365.819 1509.76 356.768 1509.76 M383.455 1467.63 L383.455 1479.88 Q378.397 1477.48 373.206 1476.22 Q368.082 1474.95 363.024 1474.95 Q349.714 1474.95 342.659 1483.94 Q335.672 1492.92 334.673 1511.09 Q338.6 1505.3 344.523 1502.24 Q350.446 1499.11 357.567 1499.11 Q372.541 1499.11 381.192 1508.23 Q389.91 1517.28 389.91 1532.92 Q389.91 1548.23 380.859 1557.48 Q371.809 1566.73 356.768 1566.73 Q339.531 1566.73 330.414 1553.55 Q321.297 1540.31 321.297 1515.22 Q321.297 1491.66 332.477 1477.68 Q343.658 1463.64 362.491 1463.64 Q367.549 1463.64 372.674 1464.64 Q377.865 1465.64 383.455 1467.63 Z" fill="#000000" fill-rule="nonzero" fill-opacity="1" /><path clip-path="url(#clip960)" d="M228.126 1097.91 Q217.744 1097.91 212.486 1108.16 Q207.296 1118.34 207.296 1138.84 Q207.296 1159.27 212.486 1169.52 Q217.744 1179.7 228.126 1179.7 Q238.574 1179.7 243.765 1169.52 Q249.023 1159.27 249.023 1138.84 Q249.023 1118.34 243.765 1108.16 Q238.574 1097.91 228.126 1097.91 M228.126 1087.26 Q244.83 1087.26 253.615 1100.51 Q262.466 1113.68 262.466 1138.84 Q262.466 1163.93 253.615 1177.17 Q244.83 1190.35 228.126 1190.35 Q211.422 1190.35 202.57 1177.17 Q193.786 1163.93 193.786 1138.84 Q193.786 1113.68 202.57 1100.51 Q211.422 1087.26 228.126 1087.26 Z" fill="#000000" fill-rule="nonzero" fill-opacity="1" /><path clip-path="url(#clip960)" d="M286.091 1171.52 L300.134 1171.52 L300.134 1188.42 L286.091 1188.42 L286.091 1171.52 Z" fill="#000000" fill-rule="nonzero" fill-opacity="1" /><path clip-path="url(#clip960)" d="M326.022 1089.06 L389.91 1089.06 L389.91 1094.78 L353.84 1188.42 L339.798 1188.42 L373.738 1100.37 L326.022 1100.37 L326.022 1089.06 Z" fill="#000000" fill-rule="nonzero" fill-opacity="1" /><path clip-path="url(#clip960)" d="M225.797 721.533 Q215.415 721.533 210.157 731.782 Q204.966 741.964 204.966 762.462 Q204.966 782.893 210.157 793.141 Q215.415 803.324 225.797 803.324 Q236.245 803.324 241.436 793.141 Q246.693 782.893 246.693 762.462 Q246.693 741.964 241.436 731.782 Q236.245 721.533 225.797 721.533 M225.797 710.885 Q242.501 710.885 251.285 724.128 Q260.137 737.305 260.137 762.462 Q260.137 787.551 251.285 800.795 Q242.501 813.972 225.797 813.972 Q209.092 813.972 200.241 800.795 Q191.456 787.551 191.456 762.462 Q191.456 737.305 200.241 724.128 Q209.092 710.885 225.797 710.885 Z" fill="#000000" fill-rule="nonzero" fill-opacity="1" /><path clip-path="url(#clip960)" d="M283.762 795.138 L297.804 795.138 L297.804 812.042 L283.762 812.042 L283.762 795.138 Z" fill="#000000" fill-rule="nonzero" fill-opacity="1" /><path clip-path="url(#clip960)" d="M355.836 764.857 Q346.253 764.857 340.729 769.982 Q335.272 775.106 335.272 784.091 Q335.272 793.075 340.729 798.199 Q346.253 803.324 355.836 803.324 Q365.42 803.324 370.943 798.199 Q376.467 793.008 376.467 784.091 Q376.467 775.106 370.943 769.982 Q365.486 764.857 355.836 764.857 M342.393 759.134 Q333.742 757.004 328.883 751.081 Q324.092 745.158 324.092 736.64 Q324.092 724.727 332.544 717.806 Q341.062 710.885 355.836 710.885 Q370.677 710.885 379.129 717.806 Q387.581 724.727 387.581 736.64 Q387.581 745.158 382.723 751.081 Q377.931 757.004 369.346 759.134 Q379.063 761.397 384.453 767.985 Q389.91 774.574 389.91 784.091 Q389.91 798.532 381.059 806.252 Q372.274 813.972 355.836 813.972 Q339.398 813.972 330.547 806.252 Q321.762 798.532 321.762 784.091 Q321.762 774.574 327.22 767.985 Q332.677 761.397 342.393 759.134 M337.468 737.904 Q337.468 745.624 342.26 749.95 Q347.118 754.276 355.836 754.276 Q364.488 754.276 369.346 749.95 Q374.271 745.624 374.271 737.904 Q374.271 730.185 369.346 725.859 Q364.488 721.533 355.836 721.533 Q347.118 721.533 342.26 725.859 Q337.468 730.185 337.468 737.904 Z" fill="#000000" fill-rule="nonzero" fill-opacity="1" /><path clip-path="url(#clip960)" d="M226.063 345.155 Q215.681 345.155 210.423 355.404 Q205.232 365.586 205.232 386.084 Q205.232 406.515 210.423 416.764 Q215.681 426.946 226.063 426.946 Q236.511 426.946 241.702 416.764 Q246.96 406.515 246.96 386.084 Q246.96 365.586 241.702 355.404 Q236.511 345.155 226.063 345.155 M226.063 334.507 Q242.767 334.507 251.552 347.751 Q260.403 360.928 260.403 386.084 Q260.403 411.173 251.552 424.417 Q242.767 437.594 226.063 437.594 Q209.359 437.594 200.507 424.417 Q191.723 411.173 191.723 386.084 Q191.723 360.928 200.507 347.751 Q209.359 334.507 226.063 334.507 Z" fill="#000000" fill-rule="nonzero" fill-opacity="1" /><path clip-path="url(#clip960)" d="M284.028 418.76 L298.07 418.76 L298.07 435.664 L284.028 435.664 L284.028 418.76 Z" fill="#000000" fill-rule="nonzero" fill-opacity="1" /><path clip-path="url(#clip960)" d="M327.752 433.601 L327.752 421.356 Q332.81 423.751 338.001 425.016 Q343.192 426.28 348.183 426.28 Q361.493 426.28 368.481 417.363 Q375.535 408.378 376.534 390.143 Q372.674 395.867 366.751 398.928 Q360.828 401.989 353.64 401.989 Q338.733 401.989 330.015 393.005 Q321.363 383.954 321.363 368.315 Q321.363 353.008 330.414 343.758 Q339.465 334.507 354.505 334.507 Q371.742 334.507 380.793 347.751 Q389.91 360.928 389.91 386.084 Q389.91 409.576 378.73 423.618 Q367.616 437.594 348.782 437.594 Q343.724 437.594 338.533 436.596 Q333.342 435.597 327.752 433.601 M354.505 391.474 Q363.556 391.474 368.814 385.285 Q374.138 379.096 374.138 368.315 Q374.138 357.6 368.814 351.411 Q363.556 345.155 354.505 345.155 Q345.454 345.155 340.13 351.411 Q334.873 357.6 334.873 368.315 Q334.873 379.096 340.13 385.285 Q345.454 391.474 354.505 391.474 Z" fill="#000000" fill-rule="nonzero" fill-opacity="1" /><path clip-path="url(#clip962)" d="M546.88 183.225 L546.88 3773.38 L696.231 3773.38 L696.231 183.225 L546.88 183.225 L546.88 183.225  Z" fill="#009af9" fill-rule="evenodd" fill-opacity="1"/>
<polyline clip-path="url(#clip962)" style="stroke:#000000; stroke-linecap:round; stroke-linejoin:round; stroke-width:4; stroke-opacity:1; fill:none" points="546.88,183.225 546.88,3773.38 696.231,3773.38 696.231,183.225 546.88,183.225 "/>
<path clip-path="url(#clip962)" d="M1293.63 426.131 L1293.63 3773.38 L1442.98 3773.38 L1442.98 426.131 L1293.63 426.131 L1293.63 426.131  Z" fill="#009af9" fill-rule="evenodd" fill-opacity="1"/>
<polyline clip-path="url(#clip962)" style="stroke:#000000; stroke-linecap:round; stroke-linejoin:round; stroke-width:4; stroke-opacity:1; fill:none" points="1293.63,426.131 1293.63,3773.38 1442.98,3773.38 1442.98,426.131 1293.63,426.131 "/>
<path clip-path="url(#clip962)" d="M2040.38 357.103 L2040.38 3773.38 L2189.73 3773.38 L2189.73 357.103 L2040.38 357.103 L2040.38 357.103  Z" fill="#009af9" fill-rule="evenodd" fill-opacity="1"/>
<polyline clip-path="url(#clip962)" style="stroke:#000000; stroke-linecap:round; stroke-linejoin:round; stroke-width:4; stroke-opacity:1; fill:none" points="2040.38,357.103 2040.38,3773.38 2189.73,3773.38 2189.73,357.103 2040.38,357.103 "/>
<circle clip-path="url(#clip962)" style="fill:#009af9; stroke:none; fill-opacity:0" cx="621.555" cy="183.225" r="2"/>
<circle clip-path="url(#clip962)" style="fill:#009af9; stroke:none; fill-opacity:0" cx="1368.31" cy="426.131" r="2"/>
<circle clip-path="url(#clip962)" style="fill:#009af9; stroke:none; fill-opacity:0" cx="2115.06" cy="357.103" r="2"/>
<path clip-path="url(#clip962)" d="M621.555 199.133 L621.555 167.318 L621.555 3773.38 L621.555 3773.38  Z" fill="#009af9" fill-rule="evenodd" fill-opacity="1"/>
<polyline clip-path="url(#clip962)" style="stroke:#000000; stroke-linecap:round; stroke-linejoin:round; stroke-width:4; stroke-opacity:1; fill:none" points="621.555,199.133 621.555,167.318 "/>
<path clip-path="url(#clip962)" d="M1368.31 466.911 L1368.31 385.351 L1368.31 3773.38 L1368.31 3773.38  Z" fill="#009af9" fill-rule="evenodd" fill-opacity="1"/>
<polyline clip-path="url(#clip962)" style="stroke:#000000; stroke-linecap:round; stroke-linejoin:round; stroke-width:4; stroke-opacity:1; fill:none" points="1368.31,466.911 1368.31,385.351 "/>
<path clip-path="url(#clip962)" d="M2115.06 397.334 L2115.06 316.872 L2115.06 3773.38 L2115.06 3773.38  Z" fill="#009af9" fill-rule="evenodd" fill-opacity="1"/>
<polyline clip-path="url(#clip962)" style="stroke:#000000; stroke-linecap:round; stroke-linejoin:round; stroke-width:4; stroke-opacity:1; fill:none" points="2115.06,397.334 2115.06,316.872 "/>
<line clip-path="url(#clip962)" x1="637.555" y1="199.133" x2="605.555" y2="199.133" style="stroke:#000000; stroke-width:4; stroke-opacity:1"/>
<line clip-path="url(#clip962)" x1="637.555" y1="167.318" x2="605.555" y2="167.318" style="stroke:#000000; stroke-width:4; stroke-opacity:1"/>
<line clip-path="url(#clip962)" x1="1384.31" y1="466.911" x2="1352.31" y2="466.911" style="stroke:#000000; stroke-width:4; stroke-opacity:1"/>
<line clip-path="url(#clip962)" x1="1384.31" y1="385.351" x2="1352.31" y2="385.351" style="stroke:#000000; stroke-width:4; stroke-opacity:1"/>
<line clip-path="url(#clip962)" x1="2131.06" y1="397.334" x2="2099.06" y2="397.334" style="stroke:#000000; stroke-width:4; stroke-opacity:1"/>
<line clip-path="url(#clip962)" x1="2131.06" y1="316.872" x2="2099.06" y2="316.872" style="stroke:#000000; stroke-width:4; stroke-opacity:1"/>
<path clip-path="url(#clip962)" d="M696.231 158.841 L696.231 3773.38 L845.581 3773.38 L845.581 158.841 L696.231 158.841 L696.231 158.841  Z" fill="#e26f46" fill-rule="evenodd" fill-opacity="1"/>
<polyline clip-path="url(#clip962)" style="stroke:#000000; stroke-linecap:round; stroke-linejoin:round; stroke-width:4; stroke-opacity:1; fill:none" points="696.231,158.841 696.231,3773.38 845.581,3773.38 845.581,158.841 696.231,158.841 "/>
<path clip-path="url(#clip962)" d="M1442.98 398.53 L1442.98 3773.38 L1592.33 3773.38 L1592.33 398.53 L1442.98 398.53 L1442.98 398.53  Z" fill="#e26f46" fill-rule="evenodd" fill-opacity="1"/>
<polyline clip-path="url(#clip962)" style="stroke:#000000; stroke-linecap:round; stroke-linejoin:round; stroke-width:4; stroke-opacity:1; fill:none" points="1442.98,398.53 1442.98,3773.38 1592.33,3773.38 1592.33,398.53 1442.98,398.53 "/>
<path clip-path="url(#clip962)" d="M2189.73 272.897 L2189.73 3773.38 L2339.09 3773.38 L2339.09 272.897 L2189.73 272.897 L2189.73 272.897  Z" fill="#e26f46" fill-rule="evenodd" fill-opacity="1"/>
<polyline clip-path="url(#clip962)" style="stroke:#000000; stroke-linecap:round; stroke-linejoin:round; stroke-width:4; stroke-opacity:1; fill:none" points="2189.73,272.897 2189.73,3773.38 2339.09,3773.38 2339.09,272.897 2189.73,272.897 "/>
<circle clip-path="url(#clip962)" style="fill:#e26f46; stroke:none; fill-opacity:0" cx="770.906" cy="158.841" r="2"/>
<circle clip-path="url(#clip962)" style="fill:#e26f46; stroke:none; fill-opacity:0" cx="1517.66" cy="398.53" r="2"/>
<circle clip-path="url(#clip962)" style="fill:#e26f46; stroke:none; fill-opacity:0" cx="2264.41" cy="272.897" r="2"/>
<path clip-path="url(#clip962)" d="M770.906 177.073 L770.906 140.609 L770.906 3773.38 L770.906 3773.38  Z" fill="#e26f46" fill-rule="evenodd" fill-opacity="1"/>
<polyline clip-path="url(#clip962)" style="stroke:#000000; stroke-linecap:round; stroke-linejoin:round; stroke-width:4; stroke-opacity:1; fill:none" points="770.906,177.073 770.906,140.609 "/>
<path clip-path="url(#clip962)" d="M1517.66 433.604 L1517.66 363.456 L1517.66 3773.38 L1517.66 3773.38  Z" fill="#e26f46" fill-rule="evenodd" fill-opacity="1"/>
<polyline clip-path="url(#clip962)" style="stroke:#000000; stroke-linecap:round; stroke-linejoin:round; stroke-width:4; stroke-opacity:1; fill:none" points="1517.66,433.604 1517.66,363.456 "/>
<path clip-path="url(#clip962)" d="M2264.41 311.968 L2264.41 233.826 L2264.41 3773.38 L2264.41 3773.38  Z" fill="#e26f46" fill-rule="evenodd" fill-opacity="1"/>
<polyline clip-path="url(#clip962)" style="stroke:#000000; stroke-linecap:round; stroke-linejoin:round; stroke-width:4; stroke-opacity:1; fill:none" points="2264.41,311.968 2264.41,233.826 "/>
<line clip-path="url(#clip962)" x1="786.906" y1="177.073" x2="754.906" y2="177.073" style="stroke:#000000; stroke-width:4; stroke-opacity:1"/>
<line clip-path="url(#clip962)" x1="786.906" y1="140.609" x2="754.906" y2="140.609" style="stroke:#000000; stroke-width:4; stroke-opacity:1"/>
<line clip-path="url(#clip962)" x1="1533.66" y1="433.604" x2="1501.66" y2="433.604" style="stroke:#000000; stroke-width:4; stroke-opacity:1"/>
<line clip-path="url(#clip962)" x1="1533.66" y1="363.456" x2="1501.66" y2="363.456" style="stroke:#000000; stroke-width:4; stroke-opacity:1"/>
<line clip-path="url(#clip962)" x1="2280.41" y1="311.968" x2="2248.41" y2="311.968" style="stroke:#000000; stroke-width:4; stroke-opacity:1"/>
<line clip-path="url(#clip962)" x1="2280.41" y1="233.826" x2="2248.41" y2="233.826" style="stroke:#000000; stroke-width:4; stroke-opacity:1"/>
<path clip-path="url(#clip962)" d="M845.581 301.857 L845.581 3773.38 L994.931 3773.38 L994.931 301.857 L845.581 301.857 L845.581 301.857  Z" fill="#3da44d" fill-rule="evenodd" fill-opacity="1"/>
<polyline clip-path="url(#clip962)" style="stroke:#000000; stroke-linecap:round; stroke-linejoin:round; stroke-width:4; stroke-opacity:1; fill:none" points="845.581,301.857 845.581,3773.38 994.931,3773.38 994.931,301.857 845.581,301.857 "/>
<path clip-path="url(#clip962)" d="M1592.33 789.963 L1592.33 3773.38 L1741.68 3773.38 L1741.68 789.963 L1592.33 789.963 L1592.33 789.963  Z" fill="#3da44d" fill-rule="evenodd" fill-opacity="1"/>
<polyline clip-path="url(#clip962)" style="stroke:#000000; stroke-linecap:round; stroke-linejoin:round; stroke-width:4; stroke-opacity:1; fill:none" points="1592.33,789.963 1592.33,3773.38 1741.68,3773.38 1741.68,789.963 1592.33,789.963 "/>
<path clip-path="url(#clip962)" d="M2339.09 416.735 L2339.09 3773.38 L2488.44 3773.38 L2488.44 416.735 L2339.09 416.735 L2339.09 416.735  Z" fill="#3da44d" fill-rule="evenodd" fill-opacity="1"/>
<polyline clip-path="url(#clip962)" style="stroke:#000000; stroke-linecap:round; stroke-linejoin:round; stroke-width:4; stroke-opacity:1; fill:none" points="2339.09,416.735 2339.09,3773.38 2488.44,3773.38 2488.44,416.735 2339.09,416.735 "/>
<circle clip-path="url(#clip962)" style="fill:#3da44d; stroke:none; fill-opacity:0" cx="920.256" cy="301.857" r="2"/>
<circle clip-path="url(#clip962)" style="fill:#3da44d; stroke:none; fill-opacity:0" cx="1667.01" cy="789.963" r="2"/>
<circle clip-path="url(#clip962)" style="fill:#3da44d; stroke:none; fill-opacity:0" cx="2413.76" cy="416.735" r="2"/>
<path clip-path="url(#clip962)" d="M920.256 322.568 L920.256 281.146 L920.256 3773.38 L920.256 3773.38  Z" fill="#3da44d" fill-rule="evenodd" fill-opacity="1"/>
<polyline clip-path="url(#clip962)" style="stroke:#000000; stroke-linecap:round; stroke-linejoin:round; stroke-width:4; stroke-opacity:1; fill:none" points="920.256,322.568 920.256,281.146 "/>
<path clip-path="url(#clip962)" d="M1667.01 835.387 L1667.01 744.538 L1667.01 3773.38 L1667.01 3773.38  Z" fill="#3da44d" fill-rule="evenodd" fill-opacity="1"/>
<polyline clip-path="url(#clip962)" style="stroke:#000000; stroke-linecap:round; stroke-linejoin:round; stroke-width:4; stroke-opacity:1; fill:none" points="1667.01,835.387 1667.01,744.538 "/>
<path clip-path="url(#clip962)" d="M2413.76 457.577 L2413.76 375.893 L2413.76 3773.38 L2413.76 3773.38  Z" fill="#3da44d" fill-rule="evenodd" fill-opacity="1"/>
<polyline clip-path="url(#clip962)" style="stroke:#000000; stroke-linecap:round; stroke-linejoin:round; stroke-width:4; stroke-opacity:1; fill:none" points="2413.76,457.577 2413.76,375.893 "/>
<line clip-path="url(#clip962)" x1="936.256" y1="322.568" x2="904.256" y2="322.568" style="stroke:#000000; stroke-width:4; stroke-opacity:1"/>
<line clip-path="url(#clip962)" x1="936.256" y1="281.146" x2="904.256" y2="281.146" style="stroke:#000000; stroke-width:4; stroke-opacity:1"/>
<line clip-path="url(#clip962)" x1="1683.01" y1="835.387" x2="1651.01" y2="835.387" style="stroke:#000000; stroke-width:4; stroke-opacity:1"/>
<line clip-path="url(#clip962)" x1="1683.01" y1="744.538" x2="1651.01" y2="744.538" style="stroke:#000000; stroke-width:4; stroke-opacity:1"/>
<line clip-path="url(#clip962)" x1="2429.76" y1="457.577" x2="2397.76" y2="457.577" style="stroke:#000000; stroke-width:4; stroke-opacity:1"/>
<line clip-path="url(#clip962)" x1="2429.76" y1="375.893" x2="2397.76" y2="375.893" style="stroke:#000000; stroke-width:4; stroke-opacity:1"/>
<path clip-path="url(#clip962)" d="M994.931 148.721 L994.931 3773.38 L1144.28 3773.38 L1144.28 148.721 L994.931 148.721 L994.931 148.721  Z" fill="#c271d2" fill-rule="evenodd" fill-opacity="1"/>
<polyline clip-path="url(#clip962)" style="stroke:#000000; stroke-linecap:round; stroke-linejoin:round; stroke-width:4; stroke-opacity:1; fill:none" points="994.931,148.721 994.931,3773.38 1144.28,3773.38 1144.28,148.721 994.931,148.721 "/>
<path clip-path="url(#clip962)" d="M1741.68 399.785 L1741.68 3773.38 L1891.03 3773.38 L1891.03 399.785 L1741.68 399.785 L1741.68 399.785  Z" fill="#c271d2" fill-rule="evenodd" fill-opacity="1"/>
<polyline clip-path="url(#clip962)" style="stroke:#000000; stroke-linecap:round; stroke-linejoin:round; stroke-width:4; stroke-opacity:1; fill:none" points="1741.68,399.785 1741.68,3773.38 1891.03,3773.38 1891.03,399.785 1741.68,399.785 "/>
<path clip-path="url(#clip962)" d="M2488.44 168.782 L2488.44 3773.38 L2637.79 3773.38 L2637.79 168.782 L2488.44 168.782 L2488.44 168.782  Z" fill="#c271d2" fill-rule="evenodd" fill-opacity="1"/>
<polyline clip-path="url(#clip962)" style="stroke:#000000; stroke-linecap:round; stroke-linejoin:round; stroke-width:4; stroke-opacity:1; fill:none" points="2488.44,168.782 2488.44,3773.38 2637.79,3773.38 2637.79,168.782 2488.44,168.782 "/>
<circle clip-path="url(#clip962)" style="fill:#c271d2; stroke:none; fill-opacity:0" cx="1069.61" cy="148.721" r="2"/>
<circle clip-path="url(#clip962)" style="fill:#c271d2; stroke:none; fill-opacity:0" cx="1816.36" cy="399.785" r="2"/>
<circle clip-path="url(#clip962)" style="fill:#c271d2; stroke:none; fill-opacity:0" cx="2563.11" cy="168.782" r="2"/>
<path clip-path="url(#clip962)" d="M1069.61 157.575 L1069.61 139.867 L1069.61 3773.38 L1069.61 3773.38  Z" fill="#c271d2" fill-rule="evenodd" fill-opacity="1"/>
<polyline clip-path="url(#clip962)" style="stroke:#000000; stroke-linecap:round; stroke-linejoin:round; stroke-width:4; stroke-opacity:1; fill:none" points="1069.61,157.575 1069.61,139.867 "/>
<path clip-path="url(#clip962)" d="M1816.36 437.794 L1816.36 361.775 L1816.36 3773.38 L1816.36 3773.38  Z" fill="#c271d2" fill-rule="evenodd" fill-opacity="1"/>
<polyline clip-path="url(#clip962)" style="stroke:#000000; stroke-linecap:round; stroke-linejoin:round; stroke-width:4; stroke-opacity:1; fill:none" points="1816.36,437.794 1816.36,361.775 "/>
<path clip-path="url(#clip962)" d="M2563.11 199.196 L2563.11 138.368 L2563.11 3773.38 L2563.11 3773.38  Z" fill="#c271d2" fill-rule="evenodd" fill-opacity="1"/>
<polyline clip-path="url(#clip962)" style="stroke:#000000; stroke-linecap:round; stroke-linejoin:round; stroke-width:4; stroke-opacity:1; fill:none" points="2563.11,199.196 2563.11,138.368 "/>
<line clip-path="url(#clip962)" x1="1085.61" y1="157.575" x2="1053.61" y2="157.575" style="stroke:#000000; stroke-width:4; stroke-opacity:1"/>
<line clip-path="url(#clip962)" x1="1085.61" y1="139.867" x2="1053.61" y2="139.867" style="stroke:#000000; stroke-width:4; stroke-opacity:1"/>
<line clip-path="url(#clip962)" x1="1832.36" y1="437.794" x2="1800.36" y2="437.794" style="stroke:#000000; stroke-width:4; stroke-opacity:1"/>
<line clip-path="url(#clip962)" x1="1832.36" y1="361.775" x2="1800.36" y2="361.775" style="stroke:#000000; stroke-width:4; stroke-opacity:1"/>
<line clip-path="url(#clip962)" x1="2579.11" y1="199.196" x2="2547.11" y2="199.196" style="stroke:#000000; stroke-width:4; stroke-opacity:1"/>
<line clip-path="url(#clip962)" x1="2579.11" y1="138.368" x2="2547.11" y2="138.368" style="stroke:#000000; stroke-width:4; stroke-opacity:1"/>
<path clip-path="url(#clip960)" d="M2114.31 1466.19 L2675.39 1466.19 L2675.39 1206.99 L2114.31 1206.99  Z" fill="#ffffff" fill-rule="evenodd" fill-opacity="1"/>
<polyline clip-path="url(#clip960)" style="stroke:#000000; stroke-linecap:round; stroke-linejoin:round; stroke-width:4; stroke-opacity:1; fill:none" points="2114.31,1466.19 2675.39,1466.19 2675.39,1206.99 2114.31,1206.99 2114.31,1466.19 "/>
<path clip-path="url(#clip960)" d="M2140.09 1279.56 L2294.82 1279.56 L2294.82 1238.09 L2140.09 1238.09 L2140.09 1279.56  Z" fill="#009af9" fill-rule="evenodd" fill-opacity="1"/>
<polyline clip-path="url(#clip960)" style="stroke:#000000; stroke-linecap:round; stroke-linejoin:round; stroke-width:4; stroke-opacity:1; fill:none" points="2140.09,1279.56 2294.82,1279.56 2294.82,1238.09 2140.09,1238.09 2140.09,1279.56 "/>
<path clip-path="url(#clip960)" d="M2320.6 1241.55 L2327.57 1241.55 L2336.39 1265.07 L2345.26 1241.55 L2352.22 1241.55 L2352.22 1276.11 L2347.66 1276.11 L2347.66 1245.76 L2338.75 1269.46 L2334.05 1269.46 L2325.14 1245.76 L2325.14 1276.11 L2320.6 1276.11 L2320.6 1241.55 Z" fill="#000000" fill-rule="nonzero" fill-opacity="1" /><path clip-path="url(#clip960)" d="M2366.18 1245.39 L2366.18 1258.38 L2372.06 1258.38 Q2375.33 1258.38 2377.11 1256.69 Q2378.89 1255 2378.89 1251.87 Q2378.89 1248.77 2377.11 1247.08 Q2375.33 1245.39 2372.06 1245.39 L2366.18 1245.39 M2361.51 1241.55 L2372.06 1241.55 Q2377.87 1241.55 2380.84 1244.19 Q2383.82 1246.8 2383.82 1251.87 Q2383.82 1256.99 2380.84 1259.6 Q2377.87 1262.22 2372.06 1262.22 L2366.18 1262.22 L2366.18 1276.11 L2361.51 1276.11 L2361.51 1241.55 Z" fill="#000000" fill-rule="nonzero" fill-opacity="1" /><path clip-path="url(#clip960)" d="M2410.81 1242.68 L2410.81 1247.24 Q2408.15 1245.97 2405.79 1245.34 Q2403.43 1244.72 2401.23 1244.72 Q2397.41 1244.72 2395.33 1246.2 Q2393.27 1247.68 2393.27 1250.41 Q2393.27 1252.71 2394.63 1253.89 Q2396.02 1255.04 2399.86 1255.76 L2402.69 1256.34 Q2407.92 1257.34 2410.4 1259.86 Q2412.9 1262.36 2412.9 1266.57 Q2412.9 1271.59 2409.52 1274.19 Q2406.16 1276.78 2399.65 1276.78 Q2397.2 1276.78 2394.42 1276.22 Q2391.67 1275.67 2388.71 1274.58 L2388.71 1269.77 Q2391.55 1271.36 2394.28 1272.17 Q2397.02 1272.98 2399.65 1272.98 Q2403.66 1272.98 2405.84 1271.41 Q2408.01 1269.83 2408.01 1266.92 Q2408.01 1264.37 2406.44 1262.94 Q2404.89 1261.5 2401.32 1260.78 L2398.47 1260.23 Q2393.24 1259.19 2390.9 1256.96 Q2388.57 1254.74 2388.57 1250.78 Q2388.57 1246.2 2391.78 1243.56 Q2395.03 1240.92 2400.7 1240.92 Q2403.13 1240.92 2405.65 1241.36 Q2408.17 1241.8 2410.81 1242.68 Z" fill="#000000" fill-rule="nonzero" fill-opacity="1" /><path clip-path="url(#clip960)" d="M2140.09 1331.4 L2294.82 1331.4 L2294.82 1289.93 L2140.09 1289.93 L2140.09 1331.4  Z" fill="#e26f46" fill-rule="evenodd" fill-opacity="1"/>
<polyline clip-path="url(#clip960)" style="stroke:#000000; stroke-linecap:round; stroke-linejoin:round; stroke-width:4; stroke-opacity:1; fill:none" points="2140.09,1331.4 2294.82,1331.4 2294.82,1289.93 2140.09,1289.93 2140.09,1331.4 "/>
<path clip-path="url(#clip960)" d="M2320.6 1293.39 L2325.28 1293.39 L2325.28 1327.95 L2320.6 1327.95 L2320.6 1293.39 Z" fill="#000000" fill-rule="nonzero" fill-opacity="1" /><path clip-path="url(#clip960)" d="M2355.95 1312.3 L2355.95 1327.95 L2351.69 1327.95 L2351.69 1312.44 Q2351.69 1308.76 2350.26 1306.93 Q2348.82 1305.1 2345.95 1305.1 Q2342.5 1305.1 2340.51 1307.3 Q2338.52 1309.5 2338.52 1313.3 L2338.52 1327.95 L2334.24 1327.95 L2334.24 1302.02 L2338.52 1302.02 L2338.52 1306.05 Q2340.05 1303.71 2342.11 1302.55 Q2344.19 1301.4 2346.9 1301.4 Q2351.37 1301.4 2353.66 1304.18 Q2355.95 1306.93 2355.95 1312.3 Z" fill="#000000" fill-rule="nonzero" fill-opacity="1" /><path clip-path="url(#clip960)" d="M2383.1 1303.02 L2383.1 1307 Q2381.3 1306 2379.47 1305.52 Q2377.66 1305.01 2375.81 1305.01 Q2371.67 1305.01 2369.38 1307.65 Q2367.09 1310.26 2367.09 1315.01 Q2367.09 1319.75 2369.38 1322.39 Q2371.67 1325.01 2375.81 1325.01 Q2377.66 1325.01 2379.47 1324.52 Q2381.3 1324.01 2383.1 1323.02 L2383.1 1326.95 Q2381.32 1327.79 2379.4 1328.2 Q2377.5 1328.62 2375.35 1328.62 Q2369.49 1328.62 2366.04 1324.94 Q2362.59 1321.26 2362.59 1315.01 Q2362.59 1308.67 2366.07 1305.03 Q2369.56 1301.4 2375.63 1301.4 Q2377.59 1301.4 2379.47 1301.81 Q2381.34 1302.21 2383.1 1303.02 Z" fill="#000000" fill-rule="nonzero" fill-opacity="1" /><path clip-path="url(#clip960)" d="M2412.69 1313.92 L2412.69 1316 L2393.1 1316 Q2393.38 1320.4 2395.74 1322.72 Q2398.13 1325.01 2402.36 1325.01 Q2404.82 1325.01 2407.11 1324.41 Q2409.42 1323.8 2411.69 1322.6 L2411.69 1326.63 Q2409.4 1327.6 2406.99 1328.11 Q2404.59 1328.62 2402.11 1328.62 Q2395.9 1328.62 2392.27 1325.01 Q2388.66 1321.4 2388.66 1315.24 Q2388.66 1308.87 2392.09 1305.15 Q2395.53 1301.4 2401.37 1301.4 Q2406.6 1301.4 2409.63 1304.78 Q2412.69 1308.13 2412.69 1313.92 M2408.43 1312.67 Q2408.38 1309.18 2406.46 1307.09 Q2404.56 1305.01 2401.41 1305.01 Q2397.85 1305.01 2395.7 1307.02 Q2393.57 1309.04 2393.24 1312.69 L2408.43 1312.67 Z" fill="#000000" fill-rule="nonzero" fill-opacity="1" /><path clip-path="url(#clip960)" d="M2423.8 1324.06 L2423.8 1337.81 L2419.52 1337.81 L2419.52 1302.02 L2423.8 1302.02 L2423.8 1305.96 Q2425.14 1303.64 2427.18 1302.53 Q2429.24 1301.4 2432.09 1301.4 Q2436.81 1301.4 2439.75 1305.15 Q2442.71 1308.9 2442.71 1315.01 Q2442.71 1321.12 2439.75 1324.87 Q2436.81 1328.62 2432.09 1328.62 Q2429.24 1328.62 2427.18 1327.51 Q2425.14 1326.37 2423.8 1324.06 M2438.29 1315.01 Q2438.29 1310.31 2436.34 1307.65 Q2434.42 1304.96 2431.04 1304.96 Q2427.66 1304.96 2425.72 1307.65 Q2423.8 1310.31 2423.8 1315.01 Q2423.8 1319.71 2425.72 1322.39 Q2427.66 1325.05 2431.04 1325.05 Q2434.42 1325.05 2436.34 1322.39 Q2438.29 1319.71 2438.29 1315.01 Z" fill="#000000" fill-rule="nonzero" fill-opacity="1" /><path clip-path="url(#clip960)" d="M2453.98 1294.66 L2453.98 1302.02 L2462.76 1302.02 L2462.76 1305.33 L2453.98 1305.33 L2453.98 1319.41 Q2453.98 1322.58 2454.84 1323.48 Q2455.72 1324.38 2458.38 1324.38 L2462.76 1324.38 L2462.76 1327.95 L2458.38 1327.95 Q2453.45 1327.95 2451.58 1326.12 Q2449.7 1324.27 2449.7 1319.41 L2449.7 1305.33 L2446.58 1305.33 L2446.58 1302.02 L2449.7 1302.02 L2449.7 1294.66 L2453.98 1294.66 Z" fill="#000000" fill-rule="nonzero" fill-opacity="1" /><path clip-path="url(#clip960)" d="M2468.36 1302.02 L2472.62 1302.02 L2472.62 1327.95 L2468.36 1327.95 L2468.36 1302.02 M2468.36 1291.93 L2472.62 1291.93 L2472.62 1297.32 L2468.36 1297.32 L2468.36 1291.93 Z" fill="#000000" fill-rule="nonzero" fill-opacity="1" /><path clip-path="url(#clip960)" d="M2491.58 1305.01 Q2488.15 1305.01 2486.16 1307.69 Q2484.17 1310.36 2484.17 1315.01 Q2484.17 1319.66 2486.14 1322.35 Q2488.13 1325.01 2491.58 1325.01 Q2494.98 1325.01 2496.97 1322.32 Q2498.96 1319.64 2498.96 1315.01 Q2498.96 1310.4 2496.97 1307.72 Q2494.98 1305.01 2491.58 1305.01 M2491.58 1301.4 Q2497.13 1301.4 2500.3 1305.01 Q2503.47 1308.62 2503.47 1315.01 Q2503.47 1321.37 2500.3 1325.01 Q2497.13 1328.62 2491.58 1328.62 Q2486 1328.62 2482.83 1325.01 Q2479.68 1321.37 2479.68 1315.01 Q2479.68 1308.62 2482.83 1305.01 Q2486 1301.4 2491.58 1301.4 Z" fill="#000000" fill-rule="nonzero" fill-opacity="1" /><path clip-path="url(#clip960)" d="M2532.08 1312.3 L2532.08 1327.95 L2527.83 1327.95 L2527.83 1312.44 Q2527.83 1308.76 2526.39 1306.93 Q2524.96 1305.1 2522.08 1305.1 Q2518.64 1305.1 2516.64 1307.3 Q2514.65 1309.5 2514.65 1313.3 L2514.65 1327.95 L2510.37 1327.95 L2510.37 1302.02 L2514.65 1302.02 L2514.65 1306.05 Q2516.18 1303.71 2518.24 1302.55 Q2520.33 1301.4 2523.03 1301.4 Q2527.5 1301.4 2529.79 1304.18 Q2532.08 1306.93 2532.08 1312.3 Z" fill="#000000" fill-rule="nonzero" fill-opacity="1" /><path clip-path="url(#clip960)" d="M2535.97 1293.39 L2565.21 1293.39 L2565.21 1297.32 L2552.94 1297.32 L2552.94 1327.95 L2548.24 1327.95 L2548.24 1297.32 L2535.97 1297.32 L2535.97 1293.39 Z" fill="#000000" fill-rule="nonzero" fill-opacity="1" /><path clip-path="url(#clip960)" d="M2568.08 1302.02 L2572.34 1302.02 L2572.34 1327.95 L2568.08 1327.95 L2568.08 1302.02 M2568.08 1291.93 L2572.34 1291.93 L2572.34 1297.32 L2568.08 1297.32 L2568.08 1291.93 Z" fill="#000000" fill-rule="nonzero" fill-opacity="1" /><path clip-path="url(#clip960)" d="M2601.44 1307 Q2603.03 1304.13 2605.26 1302.76 Q2607.48 1301.4 2610.49 1301.4 Q2614.54 1301.4 2616.74 1304.24 Q2618.94 1307.07 2618.94 1312.3 L2618.94 1327.95 L2614.65 1327.95 L2614.65 1312.44 Q2614.65 1308.71 2613.33 1306.91 Q2612.01 1305.1 2609.31 1305.1 Q2606 1305.1 2604.08 1307.3 Q2602.15 1309.5 2602.15 1313.3 L2602.15 1327.95 L2597.87 1327.95 L2597.87 1312.44 Q2597.87 1308.69 2596.55 1306.91 Q2595.23 1305.1 2592.48 1305.1 Q2589.21 1305.1 2587.29 1307.32 Q2585.37 1309.52 2585.37 1313.3 L2585.37 1327.95 L2581.09 1327.95 L2581.09 1302.02 L2585.37 1302.02 L2585.37 1306.05 Q2586.83 1303.67 2588.87 1302.53 Q2590.9 1301.4 2593.7 1301.4 Q2596.53 1301.4 2598.5 1302.83 Q2600.49 1304.27 2601.44 1307 Z" fill="#000000" fill-rule="nonzero" fill-opacity="1" /><path clip-path="url(#clip960)" d="M2649.61 1313.92 L2649.61 1316 L2630.02 1316 Q2630.3 1320.4 2632.66 1322.72 Q2635.05 1325.01 2639.28 1325.01 Q2641.74 1325.01 2644.03 1324.41 Q2646.34 1323.8 2648.61 1322.6 L2648.61 1326.63 Q2646.32 1327.6 2643.91 1328.11 Q2641.51 1328.62 2639.03 1328.62 Q2632.82 1328.62 2629.19 1325.01 Q2625.58 1321.4 2625.58 1315.24 Q2625.58 1308.87 2629.01 1305.15 Q2632.45 1301.4 2638.29 1301.4 Q2643.52 1301.4 2646.55 1304.78 Q2649.61 1308.13 2649.61 1313.92 M2645.35 1312.67 Q2645.3 1309.18 2643.38 1307.09 Q2641.48 1305.01 2638.33 1305.01 Q2634.77 1305.01 2632.62 1307.02 Q2630.49 1309.04 2630.16 1312.69 L2645.35 1312.67 Z" fill="#000000" fill-rule="nonzero" fill-opacity="1" /><path clip-path="url(#clip960)" d="M2140.09 1383.24 L2294.82 1383.24 L2294.82 1341.77 L2140.09 1341.77 L2140.09 1383.24  Z" fill="#3da44d" fill-rule="evenodd" fill-opacity="1"/>
<polyline clip-path="url(#clip960)" style="stroke:#000000; stroke-linecap:round; stroke-linejoin:round; stroke-width:4; stroke-opacity:1; fill:none" points="2140.09,1383.24 2294.82,1383.24 2294.82,1341.77 2140.09,1341.77 2140.09,1383.24 "/>
<path clip-path="url(#clip960)" d="M2321.28 1375.85 L2328.91 1375.85 L2328.91 1349.49 L2320.6 1351.15 L2320.6 1346.89 L2328.87 1345.23 L2333.54 1345.23 L2333.54 1375.85 L2341.18 1375.85 L2341.18 1379.79 L2321.28 1379.79 L2321.28 1375.85 Z" fill="#000000" fill-rule="nonzero" fill-opacity="1" /><path clip-path="url(#clip960)" d="M2347.87 1364.9 L2360.35 1364.9 L2360.35 1368.7 L2347.87 1368.7 L2347.87 1364.9 Z" fill="#000000" fill-rule="nonzero" fill-opacity="1" /><path clip-path="url(#clip960)" d="M2367.32 1345.23 L2373.61 1345.23 L2388.94 1374.14 L2388.94 1345.23 L2393.47 1345.23 L2393.47 1379.79 L2387.18 1379.79 L2371.85 1350.88 L2371.85 1379.79 L2367.32 1379.79 L2367.32 1345.23 Z" fill="#000000" fill-rule="nonzero" fill-opacity="1" /><path clip-path="url(#clip960)" d="M2402.78 1345.23 L2409.08 1345.23 L2424.4 1374.14 L2424.4 1345.23 L2428.94 1345.23 L2428.94 1379.79 L2422.64 1379.79 L2407.32 1350.88 L2407.32 1379.79 L2402.78 1379.79 L2402.78 1345.23 Z" fill="#000000" fill-rule="nonzero" fill-opacity="1" /><path clip-path="url(#clip960)" d="M2435.9 1364.9 L2448.38 1364.9 L2448.38 1368.7 L2435.9 1368.7 L2435.9 1364.9 Z" fill="#000000" fill-rule="nonzero" fill-opacity="1" /><path clip-path="url(#clip960)" d="M2460.02 1349.07 L2460.02 1375.95 L2465.67 1375.95 Q2472.83 1375.95 2476.14 1372.7 Q2479.47 1369.46 2479.47 1362.47 Q2479.47 1355.53 2476.14 1352.31 Q2472.83 1349.07 2465.67 1349.07 L2460.02 1349.07 M2455.35 1345.23 L2464.96 1345.23 Q2475 1345.23 2479.7 1349.42 Q2484.4 1353.58 2484.4 1362.47 Q2484.4 1371.41 2479.68 1375.6 Q2474.96 1379.79 2464.96 1379.79 L2455.35 1379.79 L2455.35 1345.23 Z" fill="#000000" fill-rule="nonzero" fill-opacity="1" /><path clip-path="url(#clip960)" d="M2487.06 1345.23 L2516.3 1345.23 L2516.3 1349.16 L2504.03 1349.16 L2504.03 1379.79 L2499.33 1379.79 L2499.33 1349.16 L2487.06 1349.16 L2487.06 1345.23 Z" fill="#000000" fill-rule="nonzero" fill-opacity="1" /><path clip-path="url(#clip960)" d="M2517.73 1345.23 L2522.46 1345.23 L2529.72 1374.44 L2536.97 1345.23 L2542.22 1345.23 L2549.49 1374.44 L2556.74 1345.23 L2561.48 1345.23 L2552.8 1379.79 L2546.92 1379.79 L2539.63 1349.79 L2532.27 1379.79 L2526.39 1379.79 L2517.73 1345.23 Z" fill="#000000" fill-rule="nonzero" fill-opacity="1" /><path clip-path="url(#clip960)" d="M2140.09 1435.08 L2294.82 1435.08 L2294.82 1393.61 L2140.09 1393.61 L2140.09 1435.08  Z" fill="#c271d2" fill-rule="evenodd" fill-opacity="1"/>
<polyline clip-path="url(#clip960)" style="stroke:#000000; stroke-linecap:round; stroke-linejoin:round; stroke-width:4; stroke-opacity:1; fill:none" points="2140.09,1435.08 2294.82,1435.08 2294.82,1393.61 2140.09,1393.61 2140.09,1435.08 "/>
<path clip-path="url(#clip960)" d="M2320.6 1397.07 L2325.28 1397.07 L2325.28 1411.23 L2342.27 1411.23 L2342.27 1397.07 L2346.95 1397.07 L2346.95 1431.63 L2342.27 1431.63 L2342.27 1415.17 L2325.28 1415.17 L2325.28 1431.63 L2320.6 1431.63 L2320.6 1397.07 Z" fill="#000000" fill-rule="nonzero" fill-opacity="1" /><path clip-path="url(#clip960)" d="M2356.07 1405.7 L2360.33 1405.7 L2360.33 1431.63 L2356.07 1431.63 L2356.07 1405.7 M2356.07 1395.61 L2360.33 1395.61 L2360.33 1401 L2356.07 1401 L2356.07 1395.61 Z" fill="#000000" fill-rule="nonzero" fill-opacity="1" /><path clip-path="url(#clip960)" d="M2366.18 1405.7 L2370.7 1405.7 L2378.8 1427.46 L2386.9 1405.7 L2391.41 1405.7 L2381.69 1431.63 L2375.9 1431.63 L2366.18 1405.7 Z" fill="#000000" fill-rule="nonzero" fill-opacity="1" /><path clip-path="url(#clip960)" d="M2419.47 1417.6 L2419.47 1419.68 L2399.89 1419.68 Q2400.16 1424.08 2402.53 1426.4 Q2404.91 1428.69 2409.15 1428.69 Q2411.6 1428.69 2413.89 1428.09 Q2416.21 1427.48 2418.47 1426.28 L2418.47 1430.31 Q2416.18 1431.28 2413.78 1431.79 Q2411.37 1432.3 2408.89 1432.3 Q2402.69 1432.3 2399.05 1428.69 Q2395.44 1425.08 2395.44 1418.92 Q2395.44 1412.55 2398.87 1408.83 Q2402.32 1405.08 2408.15 1405.08 Q2413.38 1405.08 2416.41 1408.46 Q2419.47 1411.81 2419.47 1417.6 M2415.21 1416.35 Q2415.16 1412.86 2413.24 1410.77 Q2411.34 1408.69 2408.2 1408.69 Q2404.63 1408.69 2402.48 1410.7 Q2400.35 1412.72 2400.03 1416.37 L2415.21 1416.35 Z" fill="#000000" fill-rule="nonzero" fill-opacity="1" /><path clip-path="url(#clip960)" d="M2452.52 1399.73 L2452.52 1404.66 Q2450.16 1402.46 2447.48 1401.37 Q2444.82 1400.29 2441.81 1400.29 Q2435.88 1400.29 2432.73 1403.92 Q2429.59 1407.53 2429.59 1414.38 Q2429.59 1421.21 2432.73 1424.85 Q2435.88 1428.46 2441.81 1428.46 Q2444.82 1428.46 2447.48 1427.37 Q2450.16 1426.28 2452.52 1424.08 L2452.52 1428.97 Q2450.07 1430.63 2447.32 1431.47 Q2444.59 1432.3 2441.53 1432.3 Q2433.68 1432.3 2429.17 1427.51 Q2424.65 1422.69 2424.65 1414.38 Q2424.65 1406.05 2429.17 1401.26 Q2433.68 1396.44 2441.53 1396.44 Q2444.63 1396.44 2447.36 1397.28 Q2450.12 1398.09 2452.52 1399.73 Z" fill="#000000" fill-rule="nonzero" fill-opacity="1" /><path clip-path="url(#clip960)" d="M2469.61 1408.69 Q2466.18 1408.69 2464.19 1411.37 Q2462.2 1414.04 2462.2 1418.69 Q2462.2 1423.34 2464.17 1426.03 Q2466.16 1428.69 2469.61 1428.69 Q2473.01 1428.69 2475 1426 Q2476.99 1423.32 2476.99 1418.69 Q2476.99 1414.08 2475 1411.4 Q2473.01 1408.69 2469.61 1408.69 M2469.61 1405.08 Q2475.16 1405.08 2478.33 1408.69 Q2481.51 1412.3 2481.51 1418.69 Q2481.51 1425.05 2478.33 1428.69 Q2475.16 1432.3 2469.61 1432.3 Q2464.03 1432.3 2460.86 1428.69 Q2457.71 1425.05 2457.71 1418.69 Q2457.71 1412.3 2460.86 1408.69 Q2464.03 1405.08 2469.61 1405.08 Z" fill="#000000" fill-rule="nonzero" fill-opacity="1" /><path clip-path="url(#clip960)" d="M2492.78 1398.34 L2492.78 1405.7 L2501.55 1405.7 L2501.55 1409.01 L2492.78 1409.01 L2492.78 1423.09 Q2492.78 1426.26 2493.64 1427.16 Q2494.52 1428.06 2497.18 1428.06 L2501.55 1428.06 L2501.55 1431.63 L2497.18 1431.63 Q2492.25 1431.63 2490.37 1429.8 Q2488.5 1427.95 2488.5 1423.09 L2488.5 1409.01 L2485.37 1409.01 L2485.37 1405.7 L2488.5 1405.7 L2488.5 1398.34 L2492.78 1398.34 Z" fill="#000000" fill-rule="nonzero" fill-opacity="1" /><path clip-path="url(#clip960)" d="M2529.33 1417.6 L2529.33 1419.68 L2509.75 1419.68 Q2510.02 1424.08 2512.39 1426.4 Q2514.77 1428.69 2519.01 1428.69 Q2521.46 1428.69 2523.75 1428.09 Q2526.07 1427.48 2528.33 1426.28 L2528.33 1430.31 Q2526.04 1431.28 2523.64 1431.79 Q2521.23 1432.3 2518.75 1432.3 Q2512.55 1432.3 2508.91 1428.69 Q2505.3 1425.08 2505.3 1418.92 Q2505.3 1412.55 2508.73 1408.83 Q2512.18 1405.08 2518.01 1405.08 Q2523.24 1405.08 2526.27 1408.46 Q2529.33 1411.81 2529.33 1417.6 M2525.07 1416.35 Q2525.02 1412.86 2523.1 1410.77 Q2521.21 1408.69 2518.06 1408.69 Q2514.49 1408.69 2512.34 1410.7 Q2510.21 1412.72 2509.89 1416.37 L2525.07 1416.35 Z" fill="#000000" fill-rule="nonzero" fill-opacity="1" /><path clip-path="url(#clip960)" d="M2545.42 1431.63 L2532.22 1397.07 L2537.11 1397.07 L2548.06 1426.17 L2559.03 1397.07 L2563.89 1397.07 L2550.72 1431.63 L2545.42 1431.63 Z" fill="#000000" fill-rule="nonzero" fill-opacity="1" /><path clip-path="url(#clip960)" d="M2573.38 1427.69 L2589.7 1427.69 L2589.7 1431.63 L2567.76 1431.63 L2567.76 1427.69 Q2570.42 1424.94 2575 1420.31 Q2579.61 1415.66 2580.79 1414.31 Q2583.03 1411.79 2583.91 1410.05 Q2584.82 1408.29 2584.82 1406.61 Q2584.82 1403.85 2582.87 1402.11 Q2580.95 1400.38 2577.85 1400.38 Q2575.65 1400.38 2573.2 1401.14 Q2570.77 1401.91 2567.99 1403.46 L2567.99 1398.73 Q2570.81 1397.6 2573.27 1397.02 Q2575.72 1396.44 2577.76 1396.44 Q2583.13 1396.44 2586.32 1399.13 Q2589.51 1401.81 2589.51 1406.3 Q2589.51 1408.43 2588.7 1410.36 Q2587.92 1412.25 2585.81 1414.85 Q2585.23 1415.52 2582.13 1418.73 Q2579.03 1421.93 2573.38 1427.69 Z" fill="#000000" fill-rule="nonzero" fill-opacity="1" /></svg>
